time	action	midinote	velocity
0.847387428	144	62	13
0.8856753980000001	128	62	64
0.988988077	144	62	34
1.051991736	128	62	64
1.14197554	144	62	53
1.182362469	128	62	64
1.325839125	144	62	74
1.351751835	128	62	64
1.437917246	144	62	94
1.501806111	128	62	64
1.605265039	144	62	118
1.6686987960000002	128	62	64
1.9620905190000002	144	62	125
2.001604726	128	62	64
2.628473947	144	62	84
2.649761507	128	62	64
3.59713269	144	62	97
3.635583367	128	62	64
6.8981751760000005	144	62	37
6.916767769	128	62	64
7.060785493	144	62	49
7.086213528	128	62	64
7.189137069	144	62	69
7.252660657	128	62	64
7.339579529	144	62	87
7.402225541	128	62	64
7.488722688	144	62	109
7.551969235	128	62	64
12.435408031	144	43	61
12.460465084	128	43	64
13.118777805	144	43	73
13.147865914	128	43	64
14.271250139	144	43	58
14.311936286	144	62	39
14.337575965	128	62	64
14.341041688	128	43	64
15.11340019	144	62	76
15.167102345	128	62	64
15.410254894	144	43	63
15.532563166	128	43	64
15.996630448	144	62	77
16.051412993	128	62	64
16.225102477	144	43	70
16.312187281	128	43	64
16.878379034	144	62	121
16.933525473	128	62	64
17.148771085	144	43	66
17.25784285	128	43	64
18.394455698	144	62	104
18.403109047	128	62	64
18.48897807	144	62	100
18.535833181	128	62	64
18.621012725	144	62	96
18.666283427	128	62	64
18.756606413	144	62	91
18.820005983	128	62	64
18.890023126	144	62	86
18.932593404	128	62	64
36.634802306	144	43	68
36.635124777	128	43	64
37.785209724	144	43	70
37.856166802	128	43	64
49.496821845	144	43	73
49.59162723	128	43	64
57.66722171	144	43	79
57.787021777	128	43	64
67.525395022	144	43	73
67.614175685	128	43	64
68.672707946	144	43	56
68.770671456	128	43	64
76.552211034	144	43	75
76.703670029	128	43	64
77.213944198	144	43	57
77.318879133	128	43	64
77.828096253	144	43	69
77.918011967	128	43	64
78.477143929	144	43	63
78.578465315	128	43	64
88.832473538	144	62	78
88.852004996	144	43	85
88.871343146	128	62	64
88.87240185900001	128	43	64
89.265037928	144	62	63
89.319395199	128	62	64
89.463800042	144	62	71
89.470408229	128	62	64
89.559857077	144	62	68
89.621017027	128	62	64
95.145354344	144	62	87
95.155651445	128	62	64
95.256809009	144	62	89
95.303454062	128	62	64
95.398679354	144	62	90
95.457878789	128	62	64
100.444154377	144	43	54
100.484464173	128	43	64
100.484545328	144	43	42
100.533703346	128	43	64
101.642161212	144	62	68
101.705412849	128	62	64
102.030473446	144	62	61
102.104764701	128	62	64
102.191804	144	62	78
102.27165023	128	62	64
102.343670965	144	62	95
102.420854177	128	62	64
102.49229726	144	62	111
102.560420861	128	62	64
102.62597291	144	62	124
102.691390936	128	62	64
103.198564453	144	62	52
103.238780145	128	62	64
103.30852937	144	62	52
103.371785768	128	62	64
103.459074553	144	62	66
103.502185019	128	62	64
103.577709055	144	62	82
103.635753745	128	62	64
103.725177243	144	62	107
103.754493852	128	62	64
103.811297925	144	62	117
103.856220754	128	62	64
105.066435038	144	62	55
105.095103904	128	62	64
105.96550848	144	62	73
105.98446482	128	62	64
106.752047205	144	62	67
106.784871163	128	62	64
107.188918247	144	43	46
107.291154438	128	43	64
111.932227428	144	43	64
111.934319144	128	43	64
111.934405373	144	43	40
111.960619232	128	43	64
203.148375809	144	43	70
203.256973295	128	43	64
203.257072361	144	43	43
203.284684307	128	43	64
205.286170986	144	43	74
205.411772462	128	43	64
205.961395372	144	43	70
206.068073307	128	43	64
206.565797045	144	43	67
206.651073922	128	43	64
207.065407165	144	43	72
207.158518514	128	43	64
207.400499204	144	43	73
207.475400076	128	43	64
212.918745842	144	62	90
212.973865137	128	62	64
213.969119464	144	62	75
214.00817331	128	62	64
214.811715336	144	43	56
214.900246475	128	43	64
215.473472142	128	62	64
215.660368078	144	43	69
215.708424288	128	43	64
216.541208246	144	43	81
216.541479641	128	43	64
216.541751047	144	43	67
216.542072248	128	43	64
216.76592942	144	43	58
216.766179184	128	43	64
217.492717843	144	43	80
217.530129728	128	43	64
217.669332071	144	43	86
217.712521929	128	43	64
217.848310434	144	43	83
217.90409155	128	43	64
219.303096508	144	102	26
219.341591381	128	102	64
219.484405941	144	102	37
219.508656725	128	102	64
219.598145979	144	102	54
219.658531671	128	102	64
219.762105566	144	102	78
219.806285907	128	102	64
219.948808317	144	102	99
219.955999264	128	102	64
220.045030627	144	102	121
220.108444934	128	102	64
228.619310956	144	43	63
228.727550171	128	43	64
240.721281129	144	102	32
240.72776274	128	102	64
240.845136541	144	102	37
240.875827673	128	102	64
240.931515675	144	102	48
240.9894282	128	102	64
249.188366122	144	102	83
249.225922645	128	102	64
249.603256868	144	102	51
249.658788337	128	102	64
249.853442258	144	102	57
249.892538492	128	102	64
250.959922084	144	43	83
250.996834616	128	43	64
251.076271157	144	102	55
251.11027959	128	102	64
251.255067765	144	102	58
251.293896128	128	102	64
252.02134615	144	43	78
252.065558558	128	43	64
252.57002134	144	102	45
252.626881264	128	102	64
252.715294229	144	102	46
252.75843071	128	102	64
252.846692009	144	102	57
252.909756311	128	102	64
253.936581903	144	102	66
253.976652959	128	102	64
254.048558258	144	102	65
254.109920356	128	102	64
254.163630372	144	102	69
254.224061073	128	102	64
265.555456527	144	102	59
265.561166611	128	102	64
265.986758029	144	102	67
266.026541019	128	102	64
266.119198858	144	43	59
266.221980287	128	43	64
266.321321907	144	102	77
266.375208878	128	102	64
266.480297384	144	102	80
266.523574703	128	102	64
266.667190452	144	102	77
266.693037186	128	102	64
266.780543304	144	102	78
266.826672213	128	102	64
266.97057583	144	102	80
266.978689134	128	102	64
268.188038244	144	102	1
268.20663702	128	102	64
268.282333953	144	102	12
268.340525761	128	102	64
268.416345497	144	102	36
268.459959255	128	102	64
268.547163225	144	102	66
268.592880475	128	102	64
268.620262202	144	43	99
268.6803706	144	102	100
268.680892178	128	43	64
268.723134578	128	102	64
269.403874508	144	102	23
269.443051585	128	102	64
269.49796402	144	102	56
269.559084126	128	102	64
269.63135821	144	102	77
269.678360245	128	102	64
269.765108557	144	102	102
269.813205376	128	102	64
271.302939669	144	43	24
271.345116355	128	43	64
271.353969551	144	102	4
271.442724392	128	102	64
271.545606613	144	102	35
271.642613049	128	102	64
271.69718341	144	102	57
271.776858425	128	102	64
271.833013888	144	102	83
271.87634549	128	102	64
271.957791697	144	43	69
272.003176208	128	43	64
272.304749775	144	102	91
272.323436032	128	102	64
272.609940383	144	43	50
272.682138849	128	43	64
272.939521654	144	43	44
273.024994687	128	43	64
273.570657688	144	102	42
273.590046185	128	102	64
273.943420254	144	43	45
273.993512462	128	43	64
274.643498249	144	43	50
274.683250335	128	43	64
275.090090825	144	102	21
275.107921854	128	102	64
275.341239494	144	43	42
275.38364626	128	43	64
275.587060089	144	102	44
275.626440376	128	102	64
275.705278565	144	43	50
275.763485011	128	43	64
275.920325189	144	102	58
275.992604359	128	102	64
276.220909101	144	102	92
276.291949729	128	102	64
276.737991544	144	43	39
276.738297329	128	43	64
276.803688616	144	102	56
276.843107584	128	102	64
277.440576566	144	43	52
277.498417894	128	43	64
277.588422105	144	102	43
277.626771174	128	102	64
278.103284156	144	43	45
278.222514304	144	102	56
278.260637171	128	102	64
278.420613961	144	102	58
278.475321679	128	102	64
278.563588448	144	102	61
278.626943757	128	102	64
278.627465485	128	43	64
278.797930355	144	43	35
278.884587711	128	43	64
279.269111013	144	43	44
279.317790143	128	43	64
279.914297284	144	43	48
279.985095661	128	43	64
280.322491064	144	102	43
280.377001783	128	102	64
280.519889189	144	102	60
280.527821125	128	102	64
280.646257067	144	43	47
280.713890467	128	43	64
281.319456731	144	43	62
281.370383873	128	43	64
281.999376606	144	43	75
282.050058187	128	43	64
282.332378014	144	43	81
282.437170751	128	43	64
282.673354955	144	43	55
282.736745804	128	43	64
282.903992988	144	102	51
282.924817614	128	102	64
283.238477675	144	102	71
283.326949881	128	102	64
283.471992095	144	102	107
283.579384421	128	102	64
283.679884882	144	102	117
283.776449171	128	102	64
284.069052539	144	43	42
284.164290638	128	43	64
285.406212586	144	43	45
285.449529345	128	43	64
285.772311957	144	43	114
285.826453599	128	43	64
286.055152518	144	102	84
286.095684475	128	102	64
286.114335304	144	43	42
286.155344145	128	43	64
286.166876111	144	102	109
286.22725656	128	102	64
286.297164073	144	102	118
286.340074373	128	102	64
286.39944636	144	102	127
286.433903215	144	43	95
286.443246946	128	102	64
286.452877365	128	43	64
287.150777834	144	43	58
287.153452863	128	43	64
287.2298415	144	102	90
287.309930508	128	102	64
287.587831129	144	102	110
287.60743324	128	102	64
287.855013482	144	102	103
287.908904237	128	102	64
288.112007078	144	43	46
288.133404314	128	43	64
288.320850998	144	102	100
288.377738186	128	102	64
288.487986087	144	43	54
288.543482468	128	43	64
288.673061099	144	102	101
288.710305097	128	102	64
288.85743054	144	43	56
288.905602424	128	43	64
289.193277693	144	43	52
289.248131495	128	43	64
289.608655404	144	102	97
289.658929659	128	102	64
289.904483366	144	102	102
289.943648276	128	102	64
290.236116799	144	102	100
290.276782674	128	102	64
291.593845048	144	43	32
291.594063141	128	43	64
291.595010618	144	43	36
291.817718053	128	43	64
292.217006095	144	43	41
292.309812637	128	43	64
292.736560769	144	43	65
292.826445469	128	43	64
293.046577436	144	43	71
293.136063186	128	43	64
293.271714873	144	43	75
293.331601777	128	43	64
293.43277941	144	43	81
293.499982636	128	43	64
293.542226208	128	102	64
293.620595747	144	43	87
293.711186867	128	43	64
293.759885151	144	43	84
293.881549417	128	43	64
295.233431308	144	43	87
295.266736287	128	43	64
295.37935795	144	43	51
295.442847813	128	43	64
295.449734656	144	43	91
295.535067048	128	43	64
295.552436113	144	43	53
295.623191014	128	43	64
295.627091675	144	43	89
295.759370612	128	43	64
295.759822168	144	43	55
295.764229455	128	43	64
295.786242639	144	43	93
295.876564414	128	43	64
295.876663993	144	43	56
295.911574355	128	43	64
295.911673322	144	43	92
295.991822035	128	43	64
296.058801338	144	43	54
296.062524028	128	43	64
296.097659299	144	43	90
296.17161909	128	43	64
296.171717062	144	43	52
296.219042047	128	43	64
296.794021614	144	43	47
296.8065419	128	43	64
297.189746593	144	43	32
297.266897375	128	43	64
297.80366237	144	43	35
297.864707148	128	43	64
298.27016971	144	43	60
298.37855465	128	43	64
298.650745968	144	43	71
298.702320869	128	43	64
298.838929479	144	43	81
298.866605398	128	43	64
299.002421227	144	43	81
299.06030702	128	43	64
299.156251569	144	43	80
299.201583808	128	43	64
299.310889441	144	43	86
299.351191303	128	43	64
299.389042087	144	62	34
299.428109966	128	62	64
299.460363516	144	43	81
299.546269368	128	43	64
299.771109621	144	62	69
299.824101051	128	62	64
299.915815323	144	62	83
299.980442312	128	62	64
300.066222207	144	62	94
300.107247038	128	62	64
300.183557879	144	62	105
300.245064164	128	62	64
300.322585205	144	43	28
300.381169427	128	43	64
300.526606731	144	43	30
300.56944056	128	43	64
300.673410082	144	43	29
300.737266324	128	43	64
300.857050618	144	43	31
300.914309446	128	43	64
300.998259605	144	43	38
301.080278473	128	43	64
301.218409523	144	43	39
301.260301026	128	43	64
301.452125	144	62	69
301.508020676	128	62	64
301.596663847	144	62	66
301.634630305	144	43	65
301.659602966	128	62	64
301.671300123	128	43	64
301.729930017	144	62	63
301.792751146	128	62	64
301.865692653	144	62	36
301.926272233	128	62	64
302.013904832	144	62	86
302.077521815	128	62	64
302.13206082	144	62	84
302.194230061	128	62	64
302.240036367	144	43	35
302.31383164	128	43	64
302.911494037	144	43	36
302.960600434	128	43	64
303.298381749	144	43	67
303.339910265	128	43	64
304.364042831	144	43	44
304.417299973	128	43	64
304.435724075	128	62	64
305.200871066	144	43	45
305.253843252	128	43	64
306.544468907	144	43	63
306.544762087	128	43	64
306.768556421	144	43	72
306.768727438	128	43	64
306.845629272	144	43	76
306.884142101	128	43	64
307.000036772	144	43	77
307.039632034	128	43	64
307.125433393	144	43	76
307.182780146	128	43	64
308.466756916	144	43	59
308.569654472	128	43	64
309.199049515	144	43	60
309.917885874	128	43	64
310.466679162	144	43	62
310.724020457	128	43	64
311.105311183	144	68	41
311.145008633	128	68	64
311.190889807	144	43	55
311.216124705	144	68	59
311.277971345	128	68	64
311.311599099	128	43	64
311.60504603	144	68	94
311.647479499	128	68	64
312.205652126	144	43	67
312.302053336	128	43	64
313.003986264	144	43	63
313.100093574	128	43	64
313.622209145	144	68	56
313.666454723	128	68	64
313.669046022	144	68	20
313.69486674	128	68	64
313.749062652	144	68	69
313.781311214	128	68	64
313.784335959	144	68	31
313.845195317	128	68	64
313.863516222	144	68	92
313.930893663	128	68	64
313.930996598	144	68	54
313.984614842	144	43	64
314.009818352	128	68	64
314.572137112	144	68	53
314.626960555	128	68	64
314.646710079	144	68	106
314.711313544	128	68	64
314.731820157	144	68	63
314.770051217	128	43	64
314.77451666	128	68	64
314.816155651	144	68	115
314.87244934	128	68	64
314.875739248	144	68	73
314.911298265	128	68	64
315.636036427	144	43	109
315.70999651	128	43	64
316.155021228	144	68	57
316.194824008	128	68	64
316.55438548	144	68	121
316.563405151	128	68	64
316.851488804	144	43	60
316.854988168	128	43	64
317.182841012	144	68	102
317.277590844	128	68	64
317.56150504	144	43	61
317.603808106	128	43	64
317.759163471	144	43	60
317.800014622	128	43	64
317.904543987	144	43	61
317.974525627	128	43	64
318.076060135	144	43	62
318.150379191	128	43	64
318.222132192	144	68	57
318.241714223	144	43	55
318.277078643	128	68	64
318.294328248	128	43	64
318.429929946	144	43	57
318.480176208	128	43	64
318.615878209	144	43	58
318.639802918	144	68	33
318.657892749	128	68	64
318.682945111	128	43	64
318.788012655	144	43	57
318.854949941	128	43	64
318.950941997	144	43	57
319.016210314	128	43	64
319.132931976	144	68	28
319.174386568	144	43	53
319.21904594	128	43	64
319.227332081	128	68	64
319.955114654	144	68	23
319.955332857	128	68	64
319.955382825	144	68	1
320.028613289	128	68	64
320.186776194	144	43	42
320.201562549	128	43	64
320.221836607	144	68	44
320.241441644	128	68	64
320.26902206	144	68	10
320.311558694	128	68	64
320.331586906	144	68	38
320.397963686	128	68	64
320.402298856	144	68	4
320.462272809	128	68	64
320.483404023	144	68	39
320.529347381	128	68	64
320.550298922	144	68	9
320.595365232	128	68	64
320.617625092	144	68	42
320.662090101	144	43	20
320.678137383	128	68	64
320.698452157	144	68	11
320.716465787	128	43	64
320.765932995	128	68	64
320.767779637	144	68	42
320.774473818	144	43	36
320.84321781	128	68	64
320.863523457	144	68	6
320.909706716	128	68	64
320.937677078	144	68	36
320.997211152	128	68	64
321.02086037	144	68	10
321.078077943	128	68	64
321.222227509	144	68	18
321.278594213	128	68	64
321.36437251	144	68	14
321.428602036	128	68	64
321.481954818	144	68	16
321.484433693	128	43	64
321.484940582	144	43	25
321.485142042	128	43	64
321.485378292	144	43	34
321.485903976	128	43	64
321.486121302	144	43	24
321.486344273	128	43	64
321.48648446	144	43	24
321.486612613	128	43	64
321.486747384	144	43	41
321.486863507	128	43	64
321.561676063	128	68	64
321.617213447	144	68	16
321.695185235	128	68	64
321.709419154	144	43	27
321.709684237	128	43	64
321.765917785	144	68	12
321.828552349	128	68	64
321.893874354	144	43	44
321.913681801	144	68	8
321.959224579	128	68	64
321.991084868	128	43	64
321.991185706	144	43	33
322.048650066	144	68	13
322.112762988	128	68	64
322.113558015	128	43	64
322.14778187	144	43	50
322.182739642	144	68	17
322.245112282	128	68	64
322.265183649	128	43	64
322.265283734	144	43	36
322.330794801	144	68	14
322.36388842	128	43	64
322.375535905	128	68	64
322.479868877	144	43	57
322.497316022	128	43	64
322.497414471	144	43	42
322.517785812	144	68	14
322.524990486	128	68	64
322.57536395	128	43	64
322.64805196	144	43	56
322.668798841	144	68	14
322.675401063	128	68	64
322.722860382	128	43	64
322.730527361	144	43	43
322.789837221	128	43	64
322.839062301	144	68	16
322.83920686	128	68	64
322.845655742	144	43	53
322.932918915	144	68	17
322.94517137	128	43	64
322.978050273	128	68	64
323.015708667	144	43	43
323.018759075	128	43	64
323.083416549	144	68	12
323.099656771	144	43	55
323.124577623	128	68	64
323.270926806	144	68	12
323.292400261	128	68	64
323.29275243	128	43	64
323.29404435	144	43	42
323.301546506	128	43	64
323.319656062	144	43	56
323.400329043	128	43	64
323.429868865	144	43	46
323.439635155	144	68	12
323.459191476	128	68	64
323.509517144	128	43	64
323.572446137	144	43	59
323.638800848	128	43	64
323.671491754	144	68	13
323.687528989	144	43	44
323.691051829	128	68	64
323.755287052	128	43	64
323.841027865	144	43	60
323.906110069	144	68	18
323.919114364	128	43	64
323.919187771	144	43	44
323.944567934	128	68	64
324.122093412	144	68	21
324.162085984	128	68	64
324.247969453	144	68	22
324.257592005	128	43	64
324.257688674	144	43	83
324.311565738	128	68	64
324.398816959	144	68	25
324.462291897	128	68	64
324.516667935	128	43	64
324.516767319	144	43	41
324.550062661	144	68	29
324.612064815	128	68	64
324.698739413	144	68	34
324.722931987	128	43	64
324.723037951	144	43	38
324.761594593	128	68	64
324.864941398	144	68	36
324.928505925	128	68	64
324.936199199	128	43	64
324.936317263	144	43	35
325.000205312	144	68	38
325.024819079	128	43	64
325.024950904	144	43	46
325.061981065	128	68	64
325.110125828	128	43	64
325.110220428	144	43	37
325.148769576	144	68	38
325.213347862	128	68	64
325.250726998	128	43	64
325.250852008	144	43	52
325.282627355	144	68	36
325.340646821	128	43	64
325.340739087	144	43	40
325.344677757	128	68	64
325.45335142	128	43	64
325.453453628	144	43	49
325.534879227	128	43	64
325.534982201	144	43	36
325.633073508	128	43	64
325.633173375	144	43	52
325.705764798	144	68	31
325.713501596	128	43	64
325.713579142	144	43	38
325.74536437	128	68	64
325.813492936	128	43	64
325.813589985	144	43	52
325.831434325	144	68	33
325.884869539	128	43	64
325.884966645	144	43	40
325.89497062	128	68	64
325.981466981	144	68	35
325.989086208	128	43	64
325.989240494	144	43	59
326.026366688	128	68	64
326.100810049	128	43	64
326.100911909	144	43	42
326.131584042	144	68	36
326.138600677	128	43	64
326.138702376	144	43	60
326.178939107	128	68	64
326.200494582	128	43	64
326.200591829	144	43	43
326.248763032	144	68	39
326.298803131	128	43	64
326.298877611	144	43	60
326.311558994	128	68	64
326.353612872	128	43	64
326.35370775	144	43	41
326.488304131	144	68	53
326.499911278	128	43	64
326.500005797	144	43	51
326.528403828	128	68	64
326.67170464	144	68	63
326.692933449	128	68	64
326.856555973	144	68	87
326.87551825	128	68	64
326.930733755	128	43	64
327.055073488	144	68	100
327.09494127	128	68	64
327.288835495	144	68	107
327.328175149	128	68	64
327.537167404	144	43	64
328.090437527	144	68	46
328.108754245	128	68	64
328.257797016	144	68	53
328.295622842	128	68	64
328.455167739	144	68	114
328.475103332	128	68	64
329.457179514	128	43	64
329.457279612	144	43	104
329.733147424	128	43	64
329.733310474	144	43	110
329.936128831	128	43	64
329.936230717	144	43	111
329.988775349	144	68	11
329.996213128	128	68	64
330.064863278	144	68	51
330.120752079	128	43	64
330.120850564	144	43	110
330.14736667	128	68	64
330.151391444	144	68	20
330.17829583	128	68	64
330.214423769	144	68	67
330.259627524	128	68	64
330.262398876	128	43	64
330.26247697	144	43	105
330.301893885	144	68	39
330.316648024	128	68	64
330.398466617	144	68	60
330.408608779	128	43	64
330.408709099	144	43	105
330.46525734	128	68	64
330.481377371	144	68	122
330.538823928	128	43	64
330.538921873	144	43	104
330.545178609	128	68	64
330.671574919	128	43	64
330.671677783	144	43	105
330.829486867	128	43	64
330.829591236	144	43	100
330.972146186	144	68	113
330.975205066	128	43	64
330.975294229	144	43	100
330.978904593	128	68	64
331.139391714	128	43	64
331.139479601	144	43	102
331.295068112	128	43	64
331.295278713	144	43	100
331.306743544	144	68	124
331.345322858	128	68	64
331.456857068	128	43	64
331.456952252	144	43	97
332.155925503	144	68	91
332.197296809	128	68	64
332.653230265	128	43	64
332.653324676	144	43	41
332.783980238	128	43	64
332.78407814	144	43	39
332.851072476	144	68	95
332.928250194	128	43	64
332.928348847	144	43	40
332.944132745	128	68	64
333.134664834	128	43	64
333.134763576	144	43	21
333.189339308	144	68	103
333.228310291	128	68	64
333.27585065	128	43	64
333.275951012	144	43	68
333.351662562	128	43	64
333.351761938	144	43	37
333.452660044	144	68	98
333.460035318	128	43	64
333.46013456	144	43	76
333.527875275	128	68	64
333.536879709	128	43	64
333.536984271	144	43	42
333.647195044	128	43	64
333.647293094	144	43	84
333.672067543	144	68	103
333.714471233	128	43	64
333.714586114	144	43	45
333.745942009	128	68	64
333.788806396	128	43	64
333.7889063	144	43	84
333.815056944	144	68	104
333.906404681	128	43	64
333.90665119	144	43	46
333.910463815	128	68	64
333.990391038	128	43	64
333.99048763	144	43	82
333.997053624	144	68	105
334.078762609	128	68	64
334.096027387	128	43	64
334.096121173	144	43	44
334.267735528	128	43	64
334.267837296	144	43	82
334.278433566	128	43	64
334.278532902	144	43	41
334.406148127	128	43	64
334.406244403	144	43	78
334.497327079	128	43	64
334.497425236	144	43	41
334.571585242	128	43	64
334.571691614	144	43	80
334.660228273	128	43	64
334.66032544	144	43	38
334.696685418	128	43	64
334.696807446	144	43	79
334.782675361	128	43	64
334.782766915	144	43	39
334.933673161	128	43	64
334.933769766	144	43	79
334.997078803	128	43	64
334.997171169	144	43	72
335.207018669	128	43	64
335.207113606	144	43	79
335.303431764	128	43	64
335.303526057	144	43	39
335.401441077	128	43	64
335.401543436	144	43	79
335.518962264	128	43	64
335.519059263	144	43	42
335.599661507	128	43	64
335.599759038	144	43	81
335.688278431	128	43	64
335.688373738	144	43	40
335.797669234	128	43	64
335.797761381	144	43	79
336.475716245	128	43	64
336.475822123	144	43	42
336.476064752	128	43	64
336.476110761	144	43	80
336.699787236	128	43	64
336.699882829	144	43	82
336.991541535	128	43	64
336.991636752	144	43	50
337.182359447	128	43	64
337.182456153	144	43	81
337.427460105	128	43	64
337.427558917	144	43	82
337.58720372	128	43	64
337.587309045	144	43	46
337.758301845	128	43	64
337.758393784	144	43	50
337.94627503	128	43	64
337.946375866	144	43	52
338.110095963	128	43	64
338.110194301	144	43	47
338.253736601	128	43	64
338.25383477	144	43	47
338.384280014	128	43	64
338.38438182	144	43	50
338.533553647	128	43	64
338.533653752	144	43	52
338.702123925	128	43	64
338.702229477	144	43	53
338.842389202	128	43	64
338.842490998	144	43	56
339.717967468	128	43	64
340.672167754	144	43	44
340.721975216	128	43	64
341.50380066	144	43	41
341.541660592	128	43	64
342.376240608	144	43	55
342.441336385	128	43	64
342.82265154	144	43	55
342.903786576	128	43	64
344.016763369	144	43	78
344.51330255	128	43	64
344.876151136	144	43	53
344.955681704	128	43	64
345.59536985	144	43	44
345.688288366	128	43	64
346.03559626	144	43	47
346.135966243	128	43	64
347.280176203	144	43	53
347.35250352	128	43	64
347.67419845	144	43	109
347.801084035	128	43	64
348.055603062	144	43	52
348.089226211	128	43	64
348.496039266	144	43	101
348.55242177	128	43	64
349.073578756	144	68	93
349.073767689	128	68	64
349.13204429	144	68	101
349.195634079	128	68	64
349.266234328	144	68	123
349.329033597	128	68	64
349.337006194	144	43	48
349.377583605	128	43	64
350.085426645	144	43	51
350.134971674	128	43	64
350.525099161	144	43	50
350.590595072	128	43	64
350.657063649	144	68	78
350.711158482	128	68	64
351.07309778	144	68	102
351.112482879	128	68	64
352.48959457	144	68	35
352.578249281	128	68	64
352.665573878	144	68	38
352.728960015	128	68	64
352.815419492	144	68	44
352.879016474	128	68	64
352.934191363	144	68	53
352.994702374	128	68	64
353.10042046	144	68	80
353.17788467	128	68	64
353.217899982	144	68	105
353.361745757	128	68	64
353.41580902	144	68	123
353.557445018	128	68	64
353.839213909	144	68	127
353.894665535	128	68	64
354.23977798	144	68	127
354.294425355	128	68	64
354.622680804	144	68	105
354.662395955	128	68	64
354.901685945	144	68	77
354.94474759	128	68	64
355.138063695	144	68	64
355.145299217	128	68	64
355.249042992	144	68	64
355.327934568	128	68	64
355.62298426	144	68	47
355.695013165	128	68	64
356.04021755	144	68	42
356.094765496	128	68	64
356.356338598	144	68	39
356.445114554	128	68	64
356.706461597	144	68	24
356.853145907	128	68	64
357.139965258	144	68	24
357.228991421	128	68	64
357.606947461	144	68	32
357.751373366	128	68	64
357.798390581	144	68	42
357.895148928	128	68	64
357.981744119	144	68	66
358.082995191	128	68	64
358.13512025	144	68	90
358.21024455	128	68	64
358.251701216	144	68	112
358.262474628	144	43	88
358.305704136	128	43	64
358.393484175	128	68	64
359.273618401	144	68	103
359.3117596	128	68	64
359.93908522	144	43	19
360.336576544	128	43	64
361.50230567	144	43	48
361.566595815	128	43	64
386.291458731	144	68	43
386.328900226	128	68	64
386.399086814	144	68	32
386.48105046	128	68	64
386.567042302	144	68	35
386.629996159	128	68	64
386.716810452	144	68	35
386.760233942	128	68	64
389.341542637	144	68	70
389.395392831	128	68	64
389.415160189	144	68	34
389.447034711	128	68	64
389.501318794	144	68	81
389.543109603	128	68	64
389.585224396	144	68	44
389.613900378	128	68	64
389.634608101	144	68	111
389.697686886	128	68	64
390.191011581	144	68	51
390.230520308	128	68	64
390.286518721	144	68	105
390.353645307	128	68	64
390.353772823	144	68	72
390.415074374	128	68	64
390.435392722	144	68	126
390.498760498	128	68	64
390.503207464	144	68	96
390.530248813	128	68	64
390.92517167	144	68	101
390.963367166	128	68	64
391.209503934	144	68	65
391.279425866	128	68	64
391.507482801	144	68	40
391.578802705	128	68	64
391.941945777	144	68	17
391.980458622	128	68	64
394.508859347	144	68	20
394.528025387	128	68	64
394.557071198	144	68	7
394.58056921	128	68	64
394.622078453	144	68	38
394.695515953	128	68	64
394.698374027	144	68	18
394.730112429	128	68	64
394.766901628	144	68	58
394.830635125	128	68	64
394.854001979	144	68	32
394.881021311	128	68	64
394.920014899	144	68	81
394.963743569	128	68	64
394.983946376	144	68	51
395.027746647	128	68	64
395.103070002	144	68	124
395.146966701	128	68	64
518.167847928	144	68	41
518.168029973	128	68	64
518.280614098	144	68	51
518.281864797	128	68	64
518.458472278	144	68	63
518.458674063	128	68	64
518.473806049	144	68	81
518.638746397	128	68	64
518.639031196	144	68	92
518.647368721	128	68	64
518.817671132	144	68	108
518.817787667	128	68	64
518.907450999	144	68	114
518.90767672	128	68	64
519.958094119	144	68	106
519.963794727	128	68	64
520.353438059	144	68	118
520.513087512	128	68	64
520.804863536	144	68	114
520.867244278	128	68	64
521.128607467	144	68	79
521.20317134	128	68	64
521.459878382	144	68	73
521.516000124	128	68	64
522.345674079	144	68	66
522.386558634	128	68	64
522.691850154	144	68	63
522.74179994	128	68	64
523.014947428	144	68	69
523.066218777	128	68	64
523.177911021	144	43	89
523.220279097	128	43	64
523.313103634	144	68	70
523.382927053	128	68	64
523.561485119	144	68	72
523.600747854	128	68	64
528.740338135	144	43	89
528.838425612	128	43	64
569.902002146	128	43	64
583.493245076	144	73	32
583.542049446	128	73	64
583.641321114	144	73	38
583.7065528	128	73	64
583.786481419	144	73	45
583.823011683	128	73	64
583.924661549	144	73	59
583.984911436	128	73	64
584.071960483	144	73	83
584.112442208	128	73	64
584.213185244	144	73	106
584.246619617	128	73	64
585.382518358	128	73	64
601.382637071	144	60	40
601.434389241	128	60	64
601.787470014	144	60	44
601.83572163	128	60	64
602.030824654	144	60	45
602.070953681	128	60	64
602.115231023	144	60	44
602.186420399	128	60	64
602.252317109	144	60	45
602.317264358	128	60	64
602.382830733	144	60	44
602.459289524	128	60	64
602.475643299	144	60	44
603.552487211	128	60	64
603.638922855	144	60	46
603.708134433	128	60	64
603.781091107	144	60	47
603.947239008	128	60	64
604.005011633	144	60	47
604.096720267	128	60	64
604.131089525	144	60	45
604.196994118	128	60	64
604.699007146	144	60	62
605.116411149	128	60	64
605.332445401	144	60	95
605.433786789	128	60	64
605.54936965	144	60	104
605.585935675	128	60	64
605.835153497	144	60	112
605.915613472	128	60	64
606.293442444	144	60	65
606.381952828	128	60	64
606.577785462	144	60	52
606.676057711	128	60	64
606.890041459	144	60	29
606.963804936	128	60	64
607.071959789	144	60	24
607.181113006	128	60	64
607.281479142	144	60	19
607.356256229	128	60	64
607.77965556	144	60	68
607.868975192	128	60	64
607.983717409	144	60	77
608.067476803	128	60	64
608.229827401	144	60	90
608.291191017	128	60	64
608.704951472	144	60	109
608.764145418	128	60	64
608.873637035	144	60	110
608.940799071	128	60	64
609.049187703	144	60	107
609.104654113	128	60	64
613.111450641	144	60	39
613.526773349	128	60	64
613.610180649	144	60	42
613.674668877	128	60	64
613.767621381	144	60	42
613.847009256	128	60	64
613.926241558	144	60	45
613.986283601	128	60	64
614.0509586	144	60	47
614.108390836	128	60	64
614.193113395	144	60	52
614.241335631	128	60	64
614.299976574	144	60	53
614.358996367	128	60	64
614.407495621	144	60	57
614.453201519	128	60	64
614.866884728	144	60	52
614.916838331	128	60	64
614.994523487	144	60	54
615.039651257	128	60	64
615.106642533	144	60	57
615.1710614	128	60	64
615.236762022	144	60	58
615.287652355	128	60	64
615.325877382	144	60	59
615.381557564	128	60	64
615.754489617	144	60	52
615.853004907	128	60	64
616.558518864	144	60	53
616.595078172	128	60	64
616.627477588	144	60	54
616.73210867	128	60	64
616.825302398	144	60	56
616.892281381	128	60	64
616.953161898	144	60	60
617.671110274	128	60	64
617.873269871	144	60	61
617.937648507	128	60	64
618.002866655	144	60	57
618.170460982	128	60	64
618.390619145	144	60	55
618.569087704	128	60	64
619.50083075	144	68	55
619.517049572	128	68	64
619.529857734	144	68	84
619.566766235	128	68	64
619.608595795	144	68	87
619.759786663	128	68	64
620.200144003	144	60	53
620.291226928	128	60	64
620.477508203	144	60	52
620.58222932	128	60	64
620.766708786	144	60	49
621.75233837	128	60	64
622.212637073	144	60	55
622.244475112	128	60	64
622.328189654	144	60	55
622.376264815	128	60	64
622.461612181	144	60	71
622.493937345	128	60	64
622.546923178	144	60	93
622.588104027	128	60	64
622.637350947	144	60	113
622.690651532	128	60	64
623.337270249	144	60	34
623.389064785	128	60	64
623.510788909	144	60	32
623.597764296	128	60	64
623.67111895	144	60	44
623.737898676	128	60	64
623.811810037	144	60	58
623.892148957	128	60	64
623.965471349	144	60	76
624.030095444	128	60	64
624.132571457	144	60	98
624.213911768	128	60	64
624.248403884	144	60	109
624.506057551	128	60	64
624.8702839	144	60	57
624.933773462	128	60	64
625.009543766	144	60	59
625.094380185	128	60	64
625.148600863	144	60	77
625.229084685	128	60	64
625.342386332	144	60	102
625.613707711	128	60	64
625.782233809	144	60	61
625.835250386	128	60	64
625.900796857	144	60	54
626.026511606	128	60	64
626.230658674	144	60	63
626.440942821	128	60	64
626.572133107	144	60	61
626.693472108	128	60	64
626.884767415	144	60	59
626.975133761	128	60	64
627.278865439	144	60	57
627.892345099	128	60	64
630.047250097	144	60	34
631.871857207	128	60	64
631.986122031	144	60	33
632.151847155	128	60	64
632.256940223	144	60	36
632.36143722	128	60	64
632.437429714	144	60	35
632.552684052	128	60	64
632.619511505	144	60	38
632.711001856	128	60	64
632.750629882	144	60	42
632.898838086	128	60	64
634.610282243	144	60	50
634.639559249	128	60	64
634.740145416	144	60	52
634.778503515	128	60	64
634.845553235	144	60	52
636.451833615	128	60	64
636.591298751	144	60	48
636.656426594	128	60	64
636.763589518	144	60	50
636.816917766	128	60	64
636.931663412	144	60	51
636.952292243	128	60	64
636.980042686	144	60	52
637.034135529	128	60	64
637.099529	144	60	51
637.152758548	128	60	64
637.21733458	144	60	52
637.276130952	128	60	64
637.347272923	144	60	52
637.563657226	128	60	64
637.979323126	144	60	1
638.026161775	128	60	64
639.204377687	144	60	40
639.279723702	128	60	64
639.432158223	144	60	58
639.555590523	128	60	64
639.628965025	144	60	83
639.833718373	128	60	64
639.886460762	144	60	101
640.168872422	128	60	64
640.995835595	144	60	24
641.060310722	128	60	64
641.131752921	144	60	24
641.207993446	128	60	64
641.282721203	144	60	29
641.33280851	128	60	64
641.409321334	144	60	37
641.472325176	128	60	64
641.517638102	144	60	43
641.584495615	128	60	64
641.656299223	144	60	45
641.723294677	128	60	64
642.064112984	144	60	31
643.202471014	128	60	64
643.339690029	144	60	32
643.406189965	128	60	64
643.488576502	144	60	33
643.58141403	128	60	64
643.627867334	144	60	34
643.688896855	128	60	64
643.728368843	144	60	35
643.806447085	128	60	64
643.887910185	144	60	37
643.941272189	128	60	64
644.678588472	144	60	28
644.707821897	128	60	64
644.906409126	144	60	39
644.976886492	128	60	64
645.365780799	144	60	41
645.411827687	128	60	64
645.596492569	144	60	41
645.695689152	128	60	64
645.852425029	144	60	42
645.92246987	128	60	64
646.085493359	144	60	43
646.164986087	128	60	64
646.292458967	144	60	45
646.388949337	128	60	64
646.527777821	144	60	48
646.593721178	128	60	64
646.748029394	144	60	49
646.826491218	128	60	64
646.980002985	144	60	53
648.225789662	128	60	64
648.420749407	144	60	56
648.484295942	128	60	64
648.597269383	144	60	57
648.649203845	128	60	64
649.715491228	144	60	33
649.777196323	128	60	64
649.926522665	144	60	25
649.978129054	128	60	64
650.108177555	144	60	18
650.168814808	128	60	64
650.276419113	144	60	13
650.314902904	128	60	64
650.391342458	144	60	11
650.444793278	128	60	64
650.547088735	144	60	11
650.59881613	128	60	64
650.66481064	144	60	10
650.734986104	128	60	64
650.928201778	144	60	9
650.961006286	128	60	64
651.319719583	144	60	11
651.375150222	128	60	64
651.489381487	144	60	14
651.536576027	128	60	64
651.653127252	144	60	17
651.711414816	128	60	64
651.808867089	144	60	16
651.860904465	128	60	64
652.028256481	144	60	18
652.057769671	128	60	64
652.146031888	144	60	21
652.202846586	128	60	64
652.393864477	144	60	27
652.438702311	128	60	64
652.507718516	144	60	30
652.57447248	128	60	64
652.962003938	144	60	19
652.979531289	128	60	64
653.110127659	144	60	20
653.173100209	128	60	64
653.252194472	144	60	20
653.291948659	128	60	64
653.483244116	144	60	21
653.524158368	128	60	64
653.706414581	144	60	21
653.759095755	128	60	64
653.850316573	144	60	21
653.899132702	128	60	64
654.096532143	144	60	19
654.148626445	128	60	64
654.289406215	144	60	16
654.369750725	128	60	64
654.525518147	144	60	14
654.900342402	128	60	64
654.924621238	144	60	26
655.446273268	128	60	64
655.531857391	144	60	66
655.611473796	128	60	64
655.674049014	144	60	78
655.737592046	128	60	64
655.802341496	144	60	90
655.851725559	128	60	64
655.932518469	144	60	103
655.98511619	128	60	64
656.034812726	144	60	111
656.40942194	128	60	64
656.634918121	144	60	78
656.757593267	128	60	64
656.828666238	144	60	63
656.915260911	128	60	64
657.047625828	144	60	42
657.126150687	128	60	64
657.239987036	144	60	33
657.328277142	128	60	64
657.484503633	144	60	20
657.53952991	128	60	64
657.651613177	144	60	20
657.719363267	128	60	64
657.847578416	144	60	23
657.939138956	128	60	64
658.053700696	144	60	34
658.134587459	128	60	64
658.222037864	144	60	39
658.286046499	128	60	64
658.347738617	144	60	49
658.407885274	128	60	64
658.483509049	144	60	64
658.535496785	128	60	64
658.610792501	144	60	82
658.667241898	128	60	64
658.731077822	144	60	98
659.211960236	128	60	64
659.288143809	144	60	75
659.392088381	128	60	64
659.463816183	144	60	64
659.581260236	128	60	64
659.637442121	144	60	46
659.843294464	128	60	64
659.984994205	144	60	33
660.086254012	128	60	64
660.321315288	144	60	25
660.371636347	128	60	64
660.568592419	144	60	16
660.636527702	128	60	64
660.814585693	144	60	16
660.882611517	128	60	64
661.098496797	144	60	24
662.822627825	128	60	64
666.853551622	144	60	48
666.925678484	128	60	64
667.022653287	144	60	46
667.072702696	128	60	64
667.173141818	144	60	45
667.229365628	128	60	64
667.288382864	144	60	45
667.353086598	128	60	64
667.391234376	144	60	45
667.720499299	128	60	64
667.965980557	144	60	43
668.058356228	128	60	64
668.574204321	144	60	21
668.669444549	128	60	64
668.963825384	144	60	35
670.293656422	128	60	64
670.300823249	144	73	61
670.358338587	128	73	64
670.591970127	144	60	61
670.687228032	128	60	64
670.74922222	144	60	62
670.837838198	128	60	64
670.8441216	144	73	81
670.875484403	128	73	64
670.9408911	144	60	62
671.02139724	128	60	64
671.086995992	144	60	61
671.326830766	144	73	40
671.430029519	128	73	64
671.554499898	128	60	64
671.891760095	144	60	51
672.187289177	128	60	64
672.454963295	144	73	80
672.463575468	128	73	64
672.518992301	144	60	49
672.614205675	128	60	64
672.792350647	144	60	54
672.902431757	128	60	64
673.088315534	144	60	55
673.521967063	128	60	64
673.604473666	144	60	57
673.672146706	128	60	64
673.678433376	144	73	42
673.709514459	144	60	59
673.709980748	128	73	64
674.336183579	144	73	77
674.34807308	128	73	64
674.606010629	144	73	71
674.621845216	128	60	64
674.665547667	128	73	64
674.798347077	144	60	57
674.852547089	128	60	64
675.141438048	144	60	59
675.168404919	144	73	47
675.228436642	128	60	64
675.242517315	128	73	64
675.452474923	144	60	57
675.797970226	144	73	77
675.800286699	128	73	64
675.845270214	128	60	64
675.916296778	144	60	57
675.992478305	128	60	64
676.04318887	144	60	58
676.965387205	128	60	64
676.972880733	144	73	86
676.974363713	128	73	64
677.042776208	144	60	56
677.081465284	128	60	64
677.247405501	144	73	78
677.29731935	128	73	64
677.326136911	144	60	55
677.391154779	128	60	64
677.555998977	144	73	50
677.571576682	144	60	54
677.580631809	128	73	64
677.700743452	128	60	64
677.857707242	144	60	58
677.859853198	144	73	67
677.897538385	128	73	64
678.265173817	128	60	64
678.361315126	144	60	58
678.417681719	128	60	64
678.466360592	144	60	58
678.486510694	144	73	72
678.541553602	128	73	64
678.541969389	128	60	64
678.582121012	144	60	59
679.422705868	144	73	64
679.447041197	128	73	64
679.529541068	128	60	64
679.656424251	144	60	59
679.700830962	128	60	64
679.735279619	144	73	63
679.796470193	128	73	64
679.959761115	144	60	54
680.022078593	144	73	86
680.086268606	128	73	64
680.09254688	128	60	64
680.291094082	144	60	54
680.359707459	144	73	88
680.403933006	128	60	64
680.418279447	128	73	64
680.62595946	144	60	57
681.037703992	128	60	64
681.136264179	144	60	60
681.165759555	128	60	64
681.236222614	144	60	57
681.505547611	144	73	94
681.505811851	128	73	64
681.506051401	144	73	77
681.506278128	128	73	64
681.618113465	144	68	30
681.622026716	128	68	64
681.691349384	144	68	35
681.788325032	128	68	64
682.052033187	144	73	95
682.079376734	128	73	64
682.37773444	128	60	64
682.749611281	144	73	87
682.755500061	144	60	70
682.831124578	128	73	64
682.870395122	128	60	64
683.012474183	144	60	68
683.040036842	144	73	89
683.141749403	128	60	64
683.159911067	128	73	64
683.283069581	144	68	76
683.310635458	128	68	64
683.323531144	144	60	63
683.759384336	128	60	64
683.90511007	144	60	64
684.688781401	144	73	41
684.734283292	128	73	64
685.074243239	144	73	48
685.091124452	128	60	64
685.134357407	128	73	64
685.337190436	144	73	60
685.402645199	128	73	64
685.642946281	144	73	68
685.679419369	128	73	64
686.004215803	144	60	67
686.092043565	128	60	64
686.240449568	144	73	79
686.324849888	128	73	64
686.568876375	144	73	101
686.639773522	128	73	64
687.185169546	144	60	69
687.21504323	128	60	64
688.387250731	144	73	79
688.402133942	128	73	64
688.534495705	144	60	52
689.226788909	128	60	64
689.718060059	144	108	63
689.82411066	128	108	64
689.933500969	144	60	53
690.248624016	144	108	69
690.273280167	128	60	64
690.342856827	128	108	64
690.589204259	144	108	59
690.661263947	128	108	64
690.773485625	144	108	55
690.820732938	128	108	64
690.925905952	144	108	52
691.000805585	128	108	64
691.091601365	144	108	55
691.144816064	128	108	64
693.586418764	144	68	28
693.729952266	144	108	34
693.846094895	128	68	64
693.862855382	144	68	41
693.939747215	128	68	64
693.978343402	144	68	56
694.038133858	128	68	64
694.111404462	144	68	46
694.156504931	128	68	64
694.195567341	144	68	52
694.255306571	128	68	64
694.327806638	144	68	60
694.361750937	128	108	64
694.374126842	128	68	64
694.459328783	144	68	55
694.523252619	128	68	64
694.578808627	144	68	52
694.638970668	128	68	64
694.711966753	144	68	55
694.755262915	128	68	64
694.79413081	144	68	62
694.852147778	128	68	64
694.926836617	144	68	66
694.941574661	144	60	60
694.969123553	128	68	64
695.01087524	144	68	71
695.055744497	128	68	64
695.120835992	128	60	64
695.131359813	128	108	64
695.14263545	144	68	74
695.18890982	128	68	64
695.231397013	144	60	55
695.297374642	128	60	64
695.331742263	144	60	56
695.332261157	144	68	78
695.38790946	128	68	64
695.418490981	128	60	64
695.428607559	144	68	81
695.445734957	144	60	56
695.489517167	128	68	64
695.522776074	128	60	64
695.600007728	144	60	64
695.656113192	128	60	64
695.707560984	144	60	60
695.875978623	128	60	64
695.937574521	144	60	83
696.000178055	128	60	64
696.301144669	144	68	14
696.462449872	128	68	64
696.502417155	144	68	16
696.573307596	128	68	64
696.60556296	144	73	81
696.605843035	128	73	64
696.606121035	144	73	61
696.659603803	144	68	16
696.702834819	128	68	64
696.792087163	144	68	29
696.828678871	128	73	64
696.835448	128	68	64
696.926576526	144	68	46
696.955850739	128	68	64
697.042306173	144	68	69
697.213005615	128	68	64
697.228238315	144	68	91
697.272943571	128	68	64
697.323670169	144	73	82
697.442077805	144	60	55
697.454590711	128	73	64
697.503727056	128	60	64
697.739700178	144	60	76
697.813880125	128	60	64
698.055673997	144	60	76
698.344955638	128	60	64
698.348997374	144	68	60
698.438522475	128	68	64
698.560044588	144	73	101
698.683484963	144	60	63
698.747141416	128	60	64
699.016519566	144	68	114
699.036097287	128	68	64
699.225142262	144	60	43
699.417542108	128	60	64
699.710260365	144	60	50
700.102906376	128	60	64
700.216912745	144	68	49
700.272424815	128	68	64
700.502751123	144	60	54
701.331282745	144	68	41
701.448089859	128	73	64
701.47264507	144	73	57
701.707211009	128	73	64
702.308804738	144	73	75
702.484302277	128	73	64
703.277023357	144	73	44
703.465223058	128	73	64
703.879173375	128	68	64
704.119865704	144	73	87
704.201745514	128	73	64
705.315201234	144	73	30
705.411419588	128	60	64
705.550952059	144	60	70
705.639411276	128	60	64
705.847450319	144	60	69
705.984377198	144	68	21
706.02279618	128	68	64
706.090769604	128	60	64
706.21653713	144	68	33
707.222460451	128	68	64
707.258275973	144	60	17
707.309073947	128	60	64
707.551836386	144	60	19
707.656403439	128	60	64
707.728610544	144	60	21
707.810479626	128	60	64
707.88815502	144	60	21
708.293158896	128	60	64
708.40475015	144	60	22
708.49859517	144	68	21
708.507169561	128	60	64
708.732198563	144	60	22
708.806251457	128	60	64
708.865639253	144	60	22
709.153794031	128	68	64
709.734122048	144	68	25
710.104077743	128	73	64
710.638810196	144	73	36
710.67450221	128	60	64
711.013132589	128	68	64
711.101189082	144	60	22
711.651074071	144	68	31
712.330007361	128	68	64
712.357701352	128	73	64
713.349490614	128	60	64
713.631234821	144	60	25
714.10328785	128	60	64
714.187163581	144	60	25
714.384026764	144	68	27
714.644804615	128	60	64
714.981817071	144	60	37
715.000895896	128	68	64
715.000967273	144	68	61
715.829313317	128	68	64
716.166822142	144	68	66
716.430080398	128	68	64
716.633815769	128	60	64
716.683523039	144	68	34
717.075403329	144	60	37
717.128612932	128	68	64
718.448819909	144	68	1
719.299006274	128	60	64
719.610953082	144	60	40
720.546441475	128	68	64
721.75392802	128	60	64
721.952299838	144	60	42
722.080041258	128	60	64
722.101827084	144	68	25
722.597072591	128	68	64
722.655635987	128	60	64
722.917851457	144	68	42
723.256701399	128	68	64
726.166509989	144	68	19
726.34742279	128	68	64
726.684501349	144	68	50
727.114197162	128	68	64
728.033871081	144	68	5
728.433328757	128	68	64
728.950323525	144	68	28
729.113883906	128	68	64
729.833949631	144	68	19
730.39744045	128	68	64
730.717292305	144	68	12
731.496775794	128	68	64
731.717441131	144	68	26
732.281247583	128	68	64
732.501649837	144	68	50
733.014124926	128	68	64
733.158401259	144	68	61
733.630769761	128	68	64
733.949552773	144	68	66
734.280528099	128	68	64
734.884867122	144	68	56
735.197286003	128	68	64
738.851733307	144	28	47
740.832120502	128	28	64
741.403154704	144	28	37
741.504614947	128	28	64
741.605744905	144	28	39
741.699409809	128	28	64
741.732282996	144	28	42
742.086294466	128	28	64
742.427674104	144	28	50
742.551728953	128	28	64
742.849053691	144	28	53
742.970289652	128	28	64
743.298162577	144	28	50
744.992376721	128	28	64
745.037599098	144	28	69
745.042073957	128	28	64
745.042344781	144	28	69
745.043583927	128	28	64
745.070809806	144	28	22
745.150144759	128	28	64
745.16219445	144	28	95
745.228530815	128	28	64
745.2552542	144	28	36
745.326940897	128	28	64
745.327049296	144	28	111
745.362037613	128	28	64
745.448139804	144	28	89
745.501827757	128	28	64
745.53790918	144	28	32
745.601022377	128	28	64
745.641536812	144	28	89
745.66893237	128	28	64
745.669001038	144	28	33
745.752003737	128	28	64
745.784549019	144	28	94
745.798923269	128	28	64
745.830009135	144	28	41
745.964853153	128	28	64
746.185886192	144	28	104
746.268912754	128	28	64
746.564834366	144	28	99
746.61831468	128	28	64
746.91006774	144	73	98
746.915362455	128	73	64
747.03358042	144	60	52
747.218794002	128	60	64
747.399752171	144	73	48
747.447566018	128	73	64
747.490675772	144	60	53
747.825925102	128	60	64
747.925613976	144	28	99
747.981341951	144	60	57
748.061519904	144	73	89
748.119081093	128	73	64
748.387165432	128	60	64
748.492226565	128	28	64
748.522308544	144	60	59
748.850356117	128	60	64
749.015558481	144	60	59
749.343630649	128	60	64
749.509066083	144	60	60
749.517056995	144	28	93
749.833516058	128	60	64
749.984509217	144	60	91
750.078199505	128	60	64
750.078290336	144	60	58
750.163371683	128	60	64
750.200572072	144	60	90
750.251166442	128	28	64
750.292405288	128	60	64
750.345026527	144	60	55
750.357469468	128	60	64
750.385507664	144	60	88
750.477082678	128	60	64
750.477181946	144	60	55
750.560326447	128	60	64
750.57540925	144	60	87
750.643539677	128	60	64
750.643636921	144	60	52
750.720960738	128	60	64
750.7582046	144	60	87
750.823141318	128	60	64
750.836054723	144	60	53
750.874018295	128	60	64
750.913701373	144	60	84
750.972246454	128	60	64
750.972340151	144	60	53
751.042716111	128	60	64
751.079075055	144	73	84
751.079278088	144	60	80
751.1410895	128	73	64
751.159115495	128	60	64
751.172379326	144	60	49
751.205008157	128	60	64
751.236812946	144	28	73
751.252621222	144	60	78
751.298442238	128	60	64
751.348610433	144	60	47
751.353976024	128	60	64
751.466681538	144	60	31
751.503128379	128	60	64
751.507374122	144	73	45
751.550763606	128	73	64
751.567466472	144	60	71
751.622435056	128	60	64
751.62269189	144	60	46
751.692478616	128	60	64
751.761602575	144	60	20
751.76586382	128	60	64
751.795022082	144	60	79
751.828456817	128	60	64
751.828528785	144	60	46
751.849985179	128	28	64
751.912724128	128	60	64
751.936215588	144	60	22
751.963381887	144	73	27
751.983423974	128	60	64
751.999315531	144	60	84
752.0390888	128	73	64
752.058862862	128	60	64
752.058980901	144	60	50
752.136997547	128	60	64
752.156787524	144	60	27
752.213247606	128	60	64
752.264670606	144	60	90
752.281396034	128	60	64
752.281490682	144	60	63
752.334214548	128	60	64
752.350033877	144	60	39
752.396193063	128	60	64
752.413859982	144	60	99
752.460585943	128	60	64
752.460694871	144	60	70
752.523948965	128	60	64
752.542182265	144	73	46
752.550650759	144	60	44
752.554874085	128	73	64
752.571269839	128	60	64
752.601560274	144	60	102
752.68529771	128	60	64
752.685389001	144	60	70
752.742103378	128	60	64
752.742200176	144	60	45
752.824037338	128	60	64
752.829652773	144	28	67
752.879341882	144	60	104
752.908845105	128	60	64
752.908956682	144	60	73
752.991513395	128	60	64
753.029725377	144	60	44
753.05655589	128	60	64
753.089064751	144	73	67
753.091710306	144	60	101
753.127837145	128	73	64
753.177509309	128	60	64
753.177601074	144	60	69
753.221819883	128	60	64
753.26824547	144	60	45
753.289306082	128	60	64
753.311889008	144	60	101
753.383659086	128	60	64
753.383755072	144	60	71
753.467801659	128	60	64
753.478943246	144	60	43
753.535061636	128	60	64
753.569806506	144	60	74
753.69662648	128	60	64
753.744512105	144	60	44
753.749571724	128	60	64
753.759465086	128	28	64
753.860308585	144	73	86
753.860575762	128	73	64
754.196294829	144	28	83
754.367547356	128	28	64
754.6474946230001	144	28	82
754.951487604	144	60	40
755.028422242	128	28	64
755.371308131	128	60	64
755.807246658	144	60	1
755.863572256	144	73	9
755.911188941	144	28	84
755.946779372	128	28	64
756.02112186	144	28	89
756.04363823	128	60	64
756.08238737	128	28	64
756.228610904	144	28	74
756.305286455	128	28	64
756.428128539	128	73	64
756.428446179	144	73	15
756.428649788	128	73	64
756.428937897	144	73	20
756.510465643	144	60	1
756.651488007	128	73	64
756.654826086	144	73	30
756.656223477	128	60	64
756.69921143	128	73	64
756.869521311	144	73	36
756.928682912	128	73	64
757.107683895	144	60	127
757.117336078	144	73	48
757.169945004	128	73	64
757.217034435	128	60	64
757.380705446	144	73	54
757.399479955	144	28	88
757.438679456	128	73	64
757.525713555	128	28	64
757.638717338	144	73	65
757.69530229	128	73	64
757.756842908	144	28	86
757.938947226	144	73	74
757.969074562	128	73	64
758.034108812	144	60	3
758.251064576	144	73	101
758.287351611	128	73	64
758.319432055	128	28	64
758.406989399	128	60	64
758.559326957	144	73	122
758.602244609	144	60	28
758.6322112	128	73	64
758.665008862	128	60	64
758.767657253	144	60	44
758.83840043	128	60	64
758.923035216	144	73	127
758.94784514	144	60	73
758.955446052	128	73	64
759.004262298	128	60	64
759.116727654	144	60	90
759.190042844	128	60	64
759.297190754	144	60	110
759.356911002	144	28	24
759.368996046	128	60	64
759.454106458	128	28	64
759.479786296	144	60	117
759.543158985	128	60	64
759.645486739	144	60	127
759.739399075	128	60	64
759.797653309	144	28	28
759.826604858	144	60	127
759.919376227	128	28	64
760.336938223	144	28	35
760.383825687	128	28	64
760.470356266	144	28	30
760.52778615	128	28	64
760.530063622	128	60	64
760.603780999	144	28	31
760.65797633	128	28	64
760.690358736	144	60	92
760.759351759	144	28	38
760.761980669	128	60	64
760.800608861	128	28	64
760.872671933	144	60	68
760.885139667	144	28	43
760.938189844	128	28	64
760.940264533	128	60	64
761.017564894	144	28	36
761.027983417	144	60	41
761.102911714	128	60	64
761.156052084	128	28	64
761.208038363	144	60	20
761.273744701	128	60	64
761.380972474	144	60	9
761.444803959	128	60	64
761.525217524	144	28	53
761.543413792	144	60	5
761.611462027	128	28	64
761.634644594	128	60	64
761.747700824	144	60	24
761.83944982	128	60	64
761.886188634	144	68	63
761.892763397	128	68	64
761.942119197	144	60	40
762.023155645	128	60	64
762.122832254	144	60	51
762.217009058	128	60	64
762.342389176	144	60	61
762.801843914	144	28	56
762.873251379	128	28	64
762.990926563	128	60	64
763.055851618	144	60	115
763.207303516	144	28	57
763.443012373	128	60	64
763.457276429	128	28	64
763.632339425	144	60	108
763.717741269	128	60	64
764.012020923	144	60	85
764.081461232	128	60	64
764.335299305	144	60	43
764.452819991	144	28	55
764.486717336	128	60	64
764.520057357	128	28	64
764.655769226	144	60	29
764.835355495	144	28	54
764.885379198	128	60	64
765.004074038	128	28	64
765.109121574	144	60	32
765.329355923	128	60	64
765.537328764	144	60	10
765.963431562	128	60	64
766.06655702	144	28	91
766.101174954	144	60	69
766.176212928	128	28	64
766.414545764	128	60	64
766.501456364	144	28	89
766.528630163	128	28	64
766.551354103	144	60	70
766.745648828	128	60	64
766.887689995	144	60	102
767.119624155	128	60	64
767.262530118	144	60	116
767.662351976	144	28	91
767.694894957	128	28	64
767.878089683	128	60	64
768.011309053	144	28	90
768.04942327	128	28	64
768.197368162	144	60	97
768.390521156	128	60	64
769.279360044	144	28	85
769.296061851	128	28	64
770.709026309	144	28	70
770.732229703	128	28	64
771.274734549	144	28	59
771.329252794	128	28	64
771.634666352	144	28	73
771.687119345	128	28	64
776.005358854	144	60	108
776.041136641	128	60	64
776.817660049	144	60	92
776.850622916	128	60	64
776.876962919	144	60	94
776.911826418	128	60	64
777.025680311	144	60	93
777.053987323	128	60	64
778.197880917	144	60	1
778.35714498	128	60	64
778.622508002	144	60	1
778.755192695	128	60	64
778.95293767	144	60	1
779.129941462	128	60	64
779.301665153	144	60	1
779.412089022	128	60	64
779.516484065	144	60	4
779.59422753	128	60	64
779.684557871	144	60	1
779.761542503	128	60	64
779.851686575	144	60	1
779.943350366	128	60	64
780.037071222	144	60	2
780.110761714	128	60	64
781.566475355	128	28	64
788.023616274	128	60	64
800.453053834	144	28	49
800.960686912	128	28	64
801.06692194	144	28	54
801.182782619	128	28	64
801.285913876	144	28	63
801.378212912	128	28	64
801.493885853	144	28	72
801.59605127	128	28	64
801.677895659	144	28	88
801.779121325	128	28	64
801.869461368	144	28	98
801.972975445	128	28	64
802.102161865	144	28	85
802.195968392	128	28	64
802.308836505	144	28	41
802.390686697	128	28	64
802.490624068	144	28	30
802.580430622	128	28	64
802.670488979	144	28	37
802.736104401	128	28	64
802.852013746	144	28	55
802.909660758	128	28	64
803.015521721	144	28	66
803.066567799	128	28	64
803.155277013	144	28	70
803.219131576	128	28	64
803.31632412	144	28	68
803.372701102	128	28	64
803.445513254	144	28	61
803.520862656	128	28	64
803.58878263	144	28	58
803.644178568	128	28	64
803.763341418	144	28	55
803.813475965	128	28	64
803.883844949	144	28	53
803.944598454	128	28	64
804.04286543	144	28	53
804.093014256	128	28	64
804.182685167	144	28	53
804.233349608	128	28	64
804.328988659	144	28	53
804.362858149	128	28	64
804.454005115	144	28	54
804.509547165	128	28	64
804.600877917	144	28	54
804.649297966	128	28	64
805.154594432	144	28	91
805.209897101	128	28	64
805.303285518	144	28	97
805.364272627	128	28	64
805.446340917	144	28	104
805.522890454	128	28	64
806.597038751	128	28	64
809.449732085	144	60	51
809.66016638	128	60	64
809.924035484	144	60	71
810.009958603	128	60	64
810.1287576	144	60	81
810.201934935	128	60	64
810.318914868	144	60	83
810.385290966	128	60	64
810.512627249	144	60	81
810.602636491	128	60	64
810.746977209	144	60	64
810.823844351	128	60	64
810.939614611	144	60	65
811.020105626	128	60	64
811.144572709	144	60	63
811.226954503	128	60	64
811.338513795	144	60	65
811.421068876	128	60	64
811.530729173	144	60	68
811.610817461	128	60	64
811.733553286	144	60	71
811.80353029	128	60	64
811.948148157	144	60	72
812.020305007	128	60	64
812.136575929	144	60	73
812.209049036	128	60	64
812.317567876	144	60	75
812.395593955	128	60	64
812.962948689	144	60	62
813.019589173	128	60	64
813.160160598	144	60	67
813.230821535	128	60	64
813.39215856	144	60	71
813.447247949	128	60	64
813.563076499	144	60	74
813.648262267	128	60	64
813.739409178	144	60	76
813.819692122	128	60	64
813.946182214	144	60	79
814.015282354	128	60	64
814.152888764	144	60	82
814.209580062	128	60	64
814.335005867	144	60	80
814.41217429	128	60	64
814.539792822	144	60	82
814.606702009	128	60	64
814.732756138	144	60	81
814.801200714	128	60	64
814.928168483	144	60	78
814.997148006	128	60	64
815.11942717	144	60	79
815.196754064	128	60	64
815.314654785	144	60	79
815.400536987	128	60	64
815.50931449	144	60	80
815.576440324	128	60	64
819.730436972	144	60	85
819.804782369	128	60	64
819.931469477	144	60	87
820.006522109	128	60	64
820.136371834	144	60	92
820.190694645	128	60	64
820.302809922	144	60	96
820.381473839	128	60	64
820.485655259	144	60	98
820.564748777	128	60	64
820.858422425	144	60	100
820.917349475	128	60	64
821.054733763	144	60	94
821.100888501	128	60	64
821.222762785	144	60	97
821.289771625	128	60	64
821.662634421	144	52	42
822.203638334	128	52	64
822.388955365	144	52	62
822.46310304	128	52	64
822.574560874	144	52	90
822.668887638	128	52	64
822.770752402	144	52	104
822.811771419	144	60	83
822.878515585	128	60	64
822.882381803	128	52	64
823.013989517	144	52	58
823.0485407	144	60	87
823.087712544	128	60	64
823.125362406	128	52	64
823.231814798	144	52	37
823.327791632	128	52	64
823.426338753	144	52	70
823.507232602	128	52	64
823.6200755	144	52	86
823.688736938	128	52	64
823.770879071	144	73	42
823.771375552	128	73	64
823.813372265	144	52	43
823.868511985	128	52	64
823.95618738	144	52	28
824.037737103	128	52	64
824.139959461	144	52	57
824.205249638	128	52	64
824.291356737	144	52	84
824.363787412	128	52	64
824.476845355	144	52	66
824.515289068	128	52	64
824.616142188	144	52	36
824.686278285	128	52	64
824.749987735	144	52	30
824.834733101	128	52	64
824.926337634	144	52	52
824.982852917	128	52	64
825.055980752	144	73	60
825.083114956	144	52	74
825.143644469	128	52	64
825.99037009	128	73	64
826.374287928	144	60	71
826.424962529	128	60	64
826.580307266	144	60	77
826.647619595	128	60	64
826.759917208	144	60	77
826.776519544	144	52	54
826.796499727	144	73	102
826.824216368	128	52	64
826.82534366	128	60	64
826.84080559	128	73	64
826.928927481	144	60	79
826.935678012	144	52	68
826.993014332	128	60	64
827.002721746	128	52	64
827.10284154	144	52	68
827.107963705	144	60	80
827.157345431	128	52	64
827.177720103	128	60	64
827.243675964	144	52	69
827.27792436	144	60	81
827.34517071	128	52	64
827.363955881	128	60	64
827.513314153	144	73	42
827.518717536	144	52	62
827.571981386	128	73	64
827.856663148	128	52	64
828.353815264	144	52	56
828.463016556	128	52	64
828.594986601	144	52	42
828.685400523	128	52	64
828.692768101	144	73	87
828.790408357	144	52	48
828.860152145	128	52	64
828.970674015	144	52	45
829.026486965	128	52	64
829.14943886	144	52	48
829.219625287	128	52	64
829.32991646	144	52	49
829.337581993	128	73	64
829.423667013	128	52	64
829.536904895	144	52	43
829.603468991	128	52	64
829.739492489	144	52	48
830.014411637	128	52	64
830.236002104	144	52	45
830.631303572	128	52	64
830.809934842	144	73	66
830.846583568	144	60	79
830.913390163	128	60	64
831.042250804	144	60	80
831.118644174	144	52	47
831.126553233	128	60	64
831.211913037	144	60	78
831.295528584	128	60	64
831.380926408	144	60	79
831.456006883	128	60	64
831.473570968	128	52	64
831.500614733	128	73	64
831.50122966	144	73	67
831.546015247	144	60	79
831.625855404	128	60	64
831.724058124	128	73	64
831.738271023	144	60	80
831.816119409	128	60	64
831.920657508	144	52	47
832.222724047	128	52	64
832.442635491	144	52	49
832.646990304	128	52	64
832.759098616	144	73	71
832.820069415	144	52	45
832.913165244	144	60	76
832.924093879	128	73	64
832.947231803	128	52	64
833.000320705	128	60	64
833.403563411	144	60	77
833.467418775	128	60	64
833.873290971	144	73	76
833.989987473	144	60	76
834.067380036	128	73	64
834.077563435	144	52	59
834.0790932	128	60	64
834.131257539	128	52	64
834.254450258	144	60	79
834.323805333	128	60	64
834.460089149	144	60	81
834.544689781	128	60	64
834.654648293	144	60	83
834.73145437	128	60	64
834.848058385	144	60	85
834.902098507	144	52	62
834.928932955	128	60	64
834.977715236	128	52	64
835.023050139	144	73	73
835.220231124	128	73	64
835.807724164	128	52	64
836.083665828	144	60	82
836.142706691	128	60	64
836.671794761	144	60	81
836.688687785	144	73	73
836.731024918	128	73	64
836.741372893	128	60	64
837.591971151	144	73	76
837.636551563	144	60	79
837.654729363	128	73	64
837.698988368	128	60	64
838.538352714	144	60	79
838.584414893	128	60	64
839.750889385	144	60	76
839.798805272	128	60	64
840.112253254	144	73	72
840.180473661	128	73	64
840.772177646	144	60	78
840.805576568	128	60	64
841.509031015	144	73	76
841.560744118	128	73	64
841.682879607	144	60	70
841.721208819	128	60	64
842.740846901	144	73	71
842.791416328	128	73	64
842.843781128	144	60	68
842.900351351	128	60	64
843.826847688	144	73	73
843.842773311	128	73	64
843.92140679	144	60	67
843.954457529	128	60	64
845.758624724	144	60	66
845.816120818	128	60	64
847.13165953	144	73	46
847.244091535	128	73	64
848.172675499	144	73	62
848.308319155	128	73	64
849.155585759	144	73	60
849.25921247	128	73	64
849.451093709	144	60	55
849.497103545	128	60	64
850.070604577	144	73	56
850.188943063	128	73	64
850.838006482	144	60	58
850.875190461	128	60	64
850.928571432	144	73	61
851.03752614	128	73	64
851.796695883	144	73	58
851.927239561	128	73	64
852.460409143	144	60	75
852.508752164	128	60	64
852.636635783	144	73	57
852.74509549	128	73	64
853.492394598	144	73	59
853.609577557	128	73	64
858.769848227	144	73	53
858.877544247	128	73	64
859.168146625	144	60	85
859.230577115	128	60	64
859.295466295	144	68	67
859.298955959	128	68	64
859.638947064	144	79	9
859.724024513	144	60	89
859.744373835	128	79	64
859.771167458	128	60	64
860.271867724	144	60	90
860.301943535	144	73	57
860.30524748	144	68	63
860.314542586	144	79	13
860.319544546	128	60	64
860.324397344	128	68	64
860.388615666	128	73	64
860.433802822	128	79	64
860.645324913	144	79	10
860.735700695	128	79	64
860.885324242	144	79	11
860.982021948	128	79	64
861.305466058	144	68	58
861.344688093	128	68	64
861.398406455	144	68	57
861.460979808	128	68	64
861.515204265	144	68	58
861.539417227	144	73	57
861.539726684	128	73	64
861.549179869	128	68	64
861.950563628	144	79	13
862.050023344	128	79	64
862.16642004	144	79	16
862.216703058	128	79	64
862.32540325	144	79	16
862.369486644	128	79	64
862.486536591	144	79	22
862.583699436	128	79	64
862.678839301	144	73	59
862.775309388	128	73	64
862.872417476	144	68	102
862.890852378	128	68	64
862.967547798	144	68	99
863.027234026	128	68	64
863.131006639	144	79	6
863.681769819	144	73	58
863.774345357	128	73	64
863.992274454	128	79	64
864.213322035	144	79	109
864.280992008	144	73	56
864.336678212	128	79	64
864.376393931	128	73	64
864.625568931	144	60	99
864.684119588	128	60	64
864.717108658	144	73	56
864.827308616	128	73	64
864.933255735	144	73	58
864.992765516	128	73	64
865.092083439	144	73	56
865.161815937	144	60	91
865.194921916	128	73	64
865.22958606	128	60	64
865.280463742	144	73	56
865.352619435	144	79	101
865.373112481	128	73	64
865.449675045	144	73	56
865.543856435	128	73	64
865.612934153	144	73	59
865.715874089	128	73	64
865.973780149	128	79	64
866.174735965	144	65	27
866.427302866	144	79	5
866.513303875	128	65	64
866.576566037	128	79	64
866.619983844	144	65	40
866.712030983	144	60	89
866.735495808	128	65	64
866.770895838	128	60	64
866.850697584	144	65	50
866.928939893	128	65	64
867.031764043	144	65	65
867.163238065	144	79	96
867.207850417	144	60	84
867.25247361	128	65	64
867.287860534	128	60	64
867.474379835	144	65	59
867.487030139	144	60	90
867.54465335	128	60	64
867.655375379	128	79	64
867.693652772	144	60	93
867.757716588	128	60	64
867.896180348	144	60	95
867.977465791	128	60	64
868.139585905	144	79	122
868.213459686	128	65	64
868.395649377	144	60	87
868.481027494	128	60	64
868.659624186	128	79	64
869.3053826	144	65	54
869.611831538	144	79	71
869.701762276	128	79	64
869.862577657	144	79	60
869.908491883	128	79	64
870.134379281	144	79	65
870.189714561	128	79	64
870.310215863	144	79	65
870.40216605	128	79	64
870.483081333	144	79	63
870.525279464	128	79	64
870.546071842	144	60	79
870.597261983	128	60	64
870.598364138	144	79	61
870.640755493	128	79	64
870.644052777	128	65	64
870.695864047	144	60	82
870.757748371	144	79	70
870.769045	128	60	64
870.803874491	128	79	64
870.865577022	144	60	87
870.888009349	144	79	70
870.917178655	128	60	64
870.93467413	128	79	64
871.031012147	144	79	67
871.074612734	128	79	64
871.160697634	144	79	67
871.204438609	128	79	64
871.273817547	144	79	64
871.333390831	128	79	64
871.410604047	144	79	61
871.47156099	128	79	64
871.55846723	144	79	61
871.603566197	128	79	64
871.703531892	144	79	60
871.749767359	128	79	64
871.990934358	144	65	55
872.988149192	144	79	84
873.037185727	128	79	64
873.114708871	144	79	50
873.171892794	128	79	64
873.181882548	144	60	76
873.228346408	128	60	64
873.271920644	144	79	81
873.316962373	144	60	73
873.319573137	128	79	64
873.321655038	144	73	1
873.321842595	128	65	64
873.384300797	128	60	64
873.385357811	144	79	38
873.407621786	128	73	64
873.43264271	128	79	64
873.458504475	144	79	91
873.472514004	144	60	72
873.507429271	128	79	64
873.513920928	128	60	64
873.592589855	144	79	42
873.641672673	128	79	64
873.673827316	144	79	88
873.74875989	128	79	64
873.789052348	144	79	42
873.810537878	128	79	64
873.874560524	144	79	90
873.925060984	128	79	64
873.958711684	144	79	42
874.002506519	128	79	64
874.068913701	144	79	93
874.118029566	128	79	64
874.146891396	144	79	41
874.160980028	128	79	64
874.234077234	144	79	91
874.278003592	128	79	64
874.30772213	144	79	46
874.3369861	128	79	64
874.3747609	144	79	91
874.419186413	128	79	64
874.483619763	144	79	40
874.550742634	128	79	64
874.551238368	144	79	87
874.574025193	128	79	64
874.636191975	144	79	38
874.67666836	128	79	64
874.698390326	144	79	93
874.718044579	128	79	64
874.763246165	144	65	55
874.785249147	144	79	41
874.859762208	128	79	64
874.859984957	144	79	88
874.922189948	128	79	64
874.97727594	144	79	40
875.022168901	128	79	64
875.796428637	128	65	64
876.159127125	144	79	84
876.168618294	144	65	36
876.209618032	128	79	64
876.240292182	128	65	64
876.352947371	144	65	37
876.427045152	128	65	64
876.539214232	144	65	35
876.604396268	128	65	64
876.677332461	144	65	36
876.747207604	128	65	64
876.789795481	144	65	35
876.891411878	128	65	64
877.099976463	144	79	81
877.149140817	128	79	64
877.244281467	144	65	34
877.456588316	128	65	64
877.740782875	144	79	69
877.783939348	128	79	64
878.121656353	144	65	33
878.329213377	144	79	78
878.376881237	128	79	64
878.588933531	128	65	64
878.796275328	144	79	86
878.836302402	128	79	64
879.005609536	144	65	44
879.099451312	128	65	64
879.267992649	144	79	76
879.316432434	128	79	64
879.728919892	144	65	46
879.778155614	128	65	64
880.14203301	144	79	95
880.18577931	128	79	64
880.831963104	144	65	39
880.879287686	128	65	64
880.969094008	144	65	35
881.025229798	128	65	64
881.110308377	144	65	35
881.148498633	128	65	64
881.242962898	144	65	33
881.298391454	128	65	64
881.357964746	144	65	29
881.433997486	128	65	64
881.511590922	144	65	32
881.565587547	128	65	64
881.659281226	144	79	87
881.705094986	144	65	33
881.71211823	128	79	64
881.761643179	128	65	64
881.818435551	144	65	28
882.249408325	128	65	64
882.519128693	144	65	31
882.573022598	128	65	64
882.633689751	144	65	31
882.679437779	144	79	102
882.689645412	128	65	64
882.736880016	128	79	64
882.740039967	144	65	33
882.781687367	128	65	64
882.840889107	144	65	35
882.899768193	128	65	64
882.93265583	144	65	37
883.261475085	128	65	64
883.433168191	144	73	103
883.461484546	128	73	64
883.536991873	144	73	113
883.593948873	128	73	64
883.822224274	144	65	37
883.847982394	128	65	64
884.100255763	144	73	111
884.127462829	128	73	64
884.515310714	144	65	37
884.546717738	128	65	64
885.172502532	144	79	125
885.560074439	144	65	37
885.586231112	128	65	64
886.208830573	144	65	28
886.247027885	128	65	64
886.292371649	128	79	64
886.303710661	144	79	94
886.884064926	128	79	64
887.379788407	144	65	36
887.40900036	128	65	64
887.764610076	144	65	36
887.81598783	128	65	64
888.450409064	144	65	31
888.482671868	128	60	64
888.503346145	128	65	64
888.598224976	144	65	29
888.638584174	128	65	64
889.074078889	144	65	60
889.197204387	128	65	64
889.202524694	144	65	11
889.298639622	128	65	64
889.328285116	144	65	61
889.41632754	128	65	64
889.432666237	144	65	15
889.509257103	128	65	64
889.56261143	144	65	68
889.621767054	128	65	64
889.621863315	144	65	17
889.687828784	128	65	64
889.74651933	144	65	46
889.839629669	128	65	64
889.88703272	144	65	12
889.899961123	128	65	64
890.334076126	144	65	17
890.431682001	128	65	64
890.457762653	144	65	57
890.544485758	128	65	64
890.594910576	144	65	16
890.622148262	128	65	64
890.653141062	144	65	56
890.731634376	128	65	64
890.782080507	144	65	14
890.782337045	128	65	64
890.946938281	144	65	22
891.004961067	128	65	64
891.102588435	144	65	20
891.139338878	128	65	64
891.216633619	144	65	23
891.273112817	128	65	64
891.349925651	144	65	26
891.407125216	128	65	64
891.479164504	144	65	26
891.534746987	128	65	64
891.84743967	144	65	29
891.923579577	128	65	64
892.251651765	144	65	29
893.584504043	128	65	64
893.815264949	144	65	26
893.879047049	128	65	64
893.966977455	144	65	23
894.018616344	128	65	64
894.09900942	144	65	25
894.153456565	128	65	64
894.224351695	144	65	27
894.278238105	128	65	64
894.353844898	144	65	31
894.406729697	128	65	64
894.482276398	144	65	31
894.541832236	128	65	64
894.613409749	144	65	28
894.959815301	128	65	64
896.806965556	128	65	64
899.369650198	144	57	57
899.434886094	128	57	64
899.891938673	144	57	72
899.939994195	128	57	64
901.097655014	144	57	92
901.148025365	128	57	64
901.369790149	144	57	96
901.390768453	128	57	64
901.481067244	144	57	94
901.546128105	128	57	64
901.621107104	144	57	92
901.67342578	128	57	64
901.735503898	144	57	93
901.794368576	128	57	64
902.37377306	144	57	88
902.388191811	144	73	74
902.436755249	128	57	64
902.466400867	144	57	49
902.466611185	128	73	64
902.527009515	128	57	64
902.541363137	144	57	81
902.608826049	128	57	64
902.633883611	144	57	50
902.697930337	128	57	64
902.734151574	144	57	88
902.796125862	128	57	64
902.808352299	144	57	56
902.855904967	128	57	64
902.900352144	144	57	80
902.945510045	144	73	80
902.971140108	128	57	64
903.001172906	144	57	42
903.008545756	128	73	64
903.044646636	128	57	64
903.054198857	144	57	99
903.080864812	144	55	63
903.151498351	128	57	64
903.151596286	144	57	61
903.213013055	128	55	64
903.213319521	128	57	64
903.247397333	144	57	37
903.280921729	128	57	64
903.304821216	144	57	92
903.358161395	128	57	64
903.358274648	144	57	56
903.431931053	128	57	64
903.483146746	144	57	30
903.508848142	128	57	64
903.534823128	144	57	97
903.573836281	128	57	64
903.573960002	144	57	60
903.663862972	128	57	64
903.679720607	144	57	35
903.736338966	128	57	64
903.769177024	144	57	99
903.77857712	144	55	49
903.824744929	128	57	64
903.824896568	144	57	58
903.892089353	128	57	64
903.912377791	128	55	64
903.937562318	144	57	31
903.961545745	128	57	64
903.997771523	144	57	96
904.053688419	128	57	64
904.053781953	144	57	60
904.114205903	128	57	64
904.16279397	144	57	33
904.169090818	128	57	64
904.190705888	144	57	99
904.245832268	128	57	64
904.245988569	144	57	59
904.290294089	144	55	46
904.304202594	128	57	64
904.313963006	144	57	35
904.346489537	128	57	64
904.369453122	144	57	99
904.387130055	128	55	64
904.436182761	128	57	64
904.436274515	144	57	61
904.500983526	128	57	64
904.518086672	144	57	35
904.52493018	144	55	47
904.574571894	128	57	64
904.613912387	144	57	98
904.629431453	128	55	64
904.650373798	128	57	64
904.650471789	144	57	61
904.741472368	144	55	49
904.741827315	128	57	64
904.750925054	144	57	32
904.813342874	128	57	64
904.826866069	128	55	64
904.858952294	144	57	99
904.890527421	144	55	47
904.902000339	128	57	64
904.902112687	144	57	63
904.93604342	128	55	64
904.95444768	128	57	64
905.021823012	144	55	48
905.023206362	144	57	32
905.032923277	128	57	64
905.053363568	144	57	61
905.066933248	128	55	64
905.108735945	128	57	64
905.108837227	144	57	31
905.14611977	144	55	47
905.190354135	128	57	64
905.205982262	128	55	64
905.208074554	144	57	97
905.269973491	128	57	64
905.270073473	144	57	59
905.292765608	144	55	48
905.328737232	128	57	64
905.354386567	128	55	64
905.388628126	144	57	31
905.392367231	128	57	64
905.414775239	144	57	99
905.437411217	144	55	39
905.473089982	128	57	64
905.473199141	144	57	62
905.526719422	128	55	64
905.5460739	128	57	64
905.582052669	144	55	42
905.584652491	144	57	33
905.608131929	128	57	64
905.625386379	128	55	64
905.63301374	144	57	100
905.699444428	128	57	64
905.699535704	144	57	64
905.708845511	144	55	41
905.757125297	128	55	64
905.760442038	128	57	64
905.800855292	144	57	34
905.802928155	128	57	64
905.815044001	144	57	96
905.853647055	144	55	46
905.906175658	128	55	64
905.921154657	128	57	64
905.961671822	144	55	43
906.008830397	128	55	64
906.093341644	144	55	42
906.135865875	128	55	64
906.22223343	144	55	43
906.276207052	128	55	64
906.344931805	144	55	33
906.436912662	128	55	64
906.512438079	144	55	33
906.571788278	128	55	64
906.842161509	144	57	103
906.894070401	128	57	64
906.894160744	144	57	69
906.914399601	144	55	38
906.972532121	128	57	64
906.972618217	144	57	38
907.016087837	128	55	64
907.01663146	128	57	64
907.085207295	144	57	68
907.152110821	128	57	64
907.162680683	144	57	39
907.228016502	128	57	64
907.245367852	144	55	44
907.25521288	144	57	71
907.277038275	128	57	64
907.277137214	144	57	109
907.315823901	128	57	64
907.327320087	144	57	41
907.337988048	128	55	64
907.397035094	128	57	64
907.433898375	144	57	73
907.489563795	128	57	64
907.489651922	144	57	107
907.50291288	128	57	64
907.517273955	144	55	47
907.526922621	144	57	42
907.572137472	128	57	64
907.572220981	144	57	109
907.60583505	128	55	64
907.660636358	128	57	64
907.69383403	144	57	47
907.700504296	144	55	47
907.739011079	128	57	64
907.754730008	128	55	64
907.793447409	144	57	101
907.853869309	144	55	47
907.868151826	128	57	64
907.908936104	128	55	64
907.9146133	144	57	40
907.925298379	128	57	64
907.992942347	144	57	105
907.998420427	144	55	48
908.033366663	128	57	64
908.033437696	144	57	78
908.042404942	128	55	64
908.102503474	128	57	64
908.150784158	144	57	47
908.208529296	128	57	64
908.258685906	144	57	78
908.282628176	128	57	64
908.314476361	144	57	46
908.333727415	128	57	64
908.370995632	144	57	79
908.440491858	128	57	64
908.486088252	144	57	47
908.505240545	128	57	64
908.538890522	144	57	80
908.62237541	128	57	64
908.651114241	144	57	46
908.667846679	128	57	64
908.708109771	144	57	80
908.70972429	144	55	99
908.773083917	128	57	64
908.785072202	144	57	47
908.804229895	128	55	64
908.840928738	128	57	64
908.878734455	144	57	87
908.911698385	128	57	64
908.98421289	144	57	54
908.990705281	128	57	64
909.023227243	144	57	90
909.09069696	128	57	64
909.133495561	144	57	54
909.155798169	128	57	64
909.185615977	144	57	92
909.248250854	128	57	64
909.274869388	144	57	52
909.341825503	128	57	64
909.350862269	144	57	89
909.418439689	128	57	64
909.425972153	144	57	51
909.517355103	128	57	64
909.541841267	144	57	86
909.634665133	128	57	64
909.69427806	144	57	51
909.694531605	128	57	64
910.108960824	144	27	62
910.168251065	128	27	64
910.402876402	144	55	10
910.456175512	144	27	98
910.501515613	128	55	64
910.551736336	128	27	64
910.55183108	144	27	49
910.674566717	144	57	96
910.694414812	128	57	64
910.711316405	128	27	64
910.71661614	144	27	91
910.770790049	144	57	67
910.810086399	128	27	64
910.810177878	144	27	47
910.845584377	128	57	64
910.845656651	144	57	95
910.939720543	128	57	64
910.953413051	144	57	76
910.995923327	128	27	64
911.010327762	144	27	95
911.026484212	128	57	64
911.056659236	144	57	101
911.121857469	128	57	64
911.144476719	144	57	73
911.234647783	128	57	64
911.240103444	144	57	103
911.295903488	128	57	64
911.310333985	144	57	75
911.39440871	128	57	64
911.411134868	144	55	6
911.418840175	144	57	106
911.45608154	128	57	64
911.509561082	128	55	64
911.519336137	128	27	64
911.725793037	144	55	8
911.817332899	128	55	64
911.905062687	144	55	8
911.995194367	128	55	64
912.079142182	144	55	14
912.089411576	144	57	79
912.124484865	128	55	64
912.124684514	128	57	64
912.173153646	144	57	111
912.188900168	144	55	12
912.249359198	128	55	64
912.257819468	128	57	64
912.27130675	144	57	77
912.331518377	144	55	11
912.352267288	128	57	64
912.361152633	144	57	108
912.388786641	128	55	64
912.437529175	128	57	64
912.447461804	144	57	76
912.489973464	128	57	64
912.493999169	144	55	11
912.538846345	128	55	64
912.54696132	144	57	106
912.605745567	128	57	64
912.64201305	144	55	11
912.643362808	144	57	80
912.646021382	128	57	64
912.683437527	144	27	87
912.687713486	128	55	64
912.78271945	128	27	64
912.782815229	144	27	41
912.799087718	144	55	14
912.887789616	128	55	64
912.897783462	128	27	64
912.915005841	144	27	94
912.997701824	128	27	64
912.997793867	144	27	44
913.184879196	128	27	64
913.217015056	144	27	94
913.272152907	144	73	74
913.296925107	128	27	64
913.34099427	128	73	64
913.679388133	144	73	1
913.679592243	128	73	64
913.774202564	144	57	20
913.818439017	128	57	64
913.932499754	144	57	12
914.013107346	128	57	64
914.113466803	144	57	12
914.180505242	128	57	64
914.280691664	144	57	18
914.288994798	144	27	62
914.320257885	128	27	64
914.356144808	128	57	64
914.40834822	144	27	61
914.433122227	144	55	119
914.472161721	128	27	64
914.486727474	144	57	21
914.532729998	144	27	55
914.555299105	128	57	64
914.597217086	128	27	64
914.654623197	144	27	58
914.66922728	144	57	30
914.700562588	128	27	64
914.731778966	128	57	64
914.75039956	144	27	59
914.814353213	128	27	64
914.838257336	144	57	36
914.89288584	144	27	65
914.903224249	128	57	64
914.945167328	128	27	64
915.00705718	144	57	51
915.016704705	144	27	67
915.073345743	128	27	64
915.074900984	128	57	64
915.145552559	144	27	63
915.187377256	144	57	84
915.187503856	128	27	64
915.251073873	128	57	64
915.263770256	144	27	60
915.301327517	128	27	64
915.353982384	144	57	106
915.392397404	144	27	61
915.42989176	128	57	64
915.43227469	128	27	64
915.493164909	144	27	60
915.529917241	144	57	116
915.538204316	128	27	64
915.59714913	128	57	64
915.597733629	128	55	64
915.610282986	144	27	59
915.667981677	128	27	64
915.70081756	144	57	120
915.727840729	144	27	60
915.749334549	128	57	64
915.766285128	128	27	64
915.853648237	144	57	118
915.910977644	128	57	64
916.036448211	144	57	110
916.104124227	128	57	64
916.216367711	144	57	94
916.270655108	144	55	67
916.275990923	128	57	64
916.382308488	144	57	74
916.446087874	128	57	64
916.535863863	144	57	56
916.625029466	128	57	64
916.707424682	144	57	41
916.782640471	128	57	64
916.899290125	144	57	28
916.959724206	128	55	64
916.990988489	128	57	64
917.03741494	144	27	38
917.093860722	144	57	19
917.145242263	128	27	64
917.16010004	128	57	64
917.201562458	144	27	90
917.256062152	144	57	17
917.311711478	128	27	64
917.3356189	128	57	64
917.349813971	144	27	35
917.384204257	128	27	64
917.42617324	144	57	23
917.43695291	144	27	87
917.50298223	128	57	64
917.528545797	128	27	64
917.565714723	144	27	37
917.593765803	128	27	64
917.61807336	144	57	29
917.700099794	128	57	64
917.824273362	144	57	36
917.912278613	128	57	64
918.015892808	144	57	43
918.100991582	144	73	123
918.103520844	128	57	64
918.166604252	128	73	64
918.222122687	144	57	51
918.263929089	144	27	84
918.269256554	144	73	102
918.287168524	128	57	64
918.318107864	128	73	64
918.364162751	128	27	64
918.364257499	144	27	39
918.414428007	144	57	56
918.482531484	128	57	64
918.511055475	128	27	64
918.596654362	144	57	62
918.681486166	128	57	64
918.780721873	144	57	68
918.789009589	144	55	71
918.84194994	128	57	64
918.921573676	128	55	64
918.946271317	144	57	75
918.978155566	144	27	79
919.022481061	128	57	64
919.052479294	128	27	64
919.052699069	144	27	41
919.099013628	144	57	79
919.13070801	128	27	64
919.174322651	128	57	64
919.278511171	144	57	82
919.358186683	128	57	64
919.410071169	144	73	94
919.4333144	144	27	81
919.43636173	128	73	64
919.444639821	144	57	87
919.534595332	128	27	64
919.545513747	144	27	38
919.612853637	128	27	64
919.833311427	144	27	80
919.885799522	128	27	64
919.885879279	144	27	39
919.98138543	128	27	64
920.712487082	128	57	64
920.840333135	144	57	113
921.213534176	144	27	55
921.241713377	128	57	64
921.269016707	128	27	64
921.420025965	144	27	57
921.482548692	128	27	64
921.601269148	144	27	55
921.656354513	128	27	64
921.753533084	144	27	56
921.81806266	128	27	64
921.887674567	144	27	56
921.964105737	128	27	64
922.078752523	144	27	60
922.125625739	128	27	64
922.79110788	144	27	59
922.858761795	128	27	64
922.932167058	144	27	59
923.015739048	128	27	64
923.07011611	144	27	57
923.183265896	128	27	64
923.243582521	144	57	119
923.427598333	128	57	64
923.614678496	144	57	87
923.676884561	128	57	64
923.819934263	144	27	60
923.86169936	128	27	64
923.920871992	144	27	59
923.967107581	144	57	54
924.026145825	128	27	64
924.050153319	128	57	64
924.246596014	144	57	39
924.362856557	128	57	64
924.53220259	144	57	23
924.623297509	128	57	64
924.791475764	144	57	11
924.865723477	128	57	64
925.006397815	144	57	9
925.077770382	128	57	64
925.203561614	144	57	33
925.229242594	144	55	114
925.283270403	128	57	64
925.385000999	128	55	64
925.392040676	144	57	51
925.458765817	128	57	64
925.58750515	144	57	71
925.642100456	128	57	64
925.752817495	144	57	94
925.820915305	128	57	64
925.933860577	144	57	115
926.005272704	128	57	64
926.104271194	144	57	127
926.133347814	144	55	58
926.184294482	128	57	64
926.224716073	128	55	64
926.268776749	144	57	127
926.321354813	128	57	64
926.475037107	144	57	114
926.534129412	128	57	64
926.56103471	144	27	60
926.640374297	128	27	64
926.688938564	144	27	60
926.79406592	128	27	64
926.843947073	144	27	60
926.943376193	128	27	64
927.337854651	144	57	35
927.473024255	144	27	61
927.476535541	144	55	4
927.561101571	128	27	64
927.569634688	128	55	64
927.636010448	144	27	60
927.717243766	128	27	64
927.915175851	128	57	64
928.064251271	144	57	121
928.372770576	144	55	52
928.489948074	128	55	64
928.608975776	128	57	64
928.863446359	144	57	85
928.933011625	144	55	127
929.066727325	128	55	64
929.589275485	144	55	125
929.681277751	128	55	64
929.983902175	144	55	127
930.087911706	128	55	64
930.461199087	144	27	38
930.560665044	128	27	64
930.7202907	144	55	127
930.817759002	128	55	64
930.998918348	144	27	58
931.042239876	128	27	64
931.368325454	144	27	56
931.380947596	144	55	10
931.400975352	128	27	64
931.483365976	128	55	64
931.737408397	144	27	52
931.806820804	128	27	64
931.855814993	144	55	9
931.950668885	128	55	64
932.100779633	128	57	64
932.152862628	144	27	53
932.159540949	144	55	8
932.204054321	128	27	64
932.217875756	144	57	81
932.252251014	128	55	64
932.30327374	128	57	64
932.368844337	144	55	9
932.402535473	144	57	82
932.46948923	128	55	64
932.469870987	128	57	64
932.54627788	144	55	10
932.56145059	144	27	57
932.571526698	144	57	86
932.602631031	128	27	64
932.606374959	128	55	64
932.652993989	128	57	64
932.721306643	144	55	14
932.739010168	144	57	87
932.776605538	128	55	64
932.959840179	144	55	14
933.037855726	144	27	60
933.067900052	128	55	64
933.079172566	128	27	64
933.884246555	144	55	67
933.952805953	128	55	64
934.112229318	144	55	60
934.157193431	128	55	64
934.243259513	144	55	63
934.266829568	144	27	53
934.303866447	128	55	64
934.318245251	128	27	64
934.441944805	144	55	65
934.456456965	128	55	64
934.543756263	144	55	63
934.618721259	144	27	54
934.619652466	128	55	64
934.702231375	128	27	64
934.832812686	144	55	61
934.889962844	128	55	64
934.991019484	144	27	53
935.072289486	128	27	64
935.398806467	144	27	57
935.453011165	128	27	64
936.342042175	144	55	73
936.54593828	144	27	61
936.57009667	128	57	64
936.572368079	128	27	64
936.596358179	144	57	57
936.635328124	128	57	64
936.635450238	144	57	113
936.732215918	128	57	64
936.857219	144	57	113
936.892106034	144	27	62
937.006045172	128	27	64
938.098111658	144	27	63
938.144023124	128	27	64
938.432443979	144	27	64
938.512511279	128	27	64
938.839307784	144	27	61
938.916776655	128	27	64
939.42539289	128	57	64
939.604532374	144	57	112
939.641870296	144	68	1
939.647600258	128	68	64
939.750867969	144	68	45
939.793456236	128	68	64
939.80536277	128	57	64
939.936765311	144	57	107
940.016937101	144	27	97
940.101302004	128	27	64
940.273060645	128	55	64
940.51325214	144	55	58
940.669147457	128	55	64
940.889921442	144	68	56
940.930073369	128	68	64
941.328812374	144	27	95
941.403746691	128	27	64
941.638783153	144	55	51
941.700496604	144	27	94
941.752101191	128	27	64
941.771481318	128	55	64
942.157427165	144	68	79
942.903543539	144	55	39
943.026132811	128	55	64
943.08431406	128	57	64
943.08440676	144	57	83
943.184599311	128	57	64
943.198244292	144	57	60
943.258887047	128	57	64
943.285989815	144	57	96
943.354934051	128	57	64
943.355030857	144	57	69
943.382664838	144	27	100
943.419550745	128	27	64
943.426565148	128	57	64
943.464910325	144	57	91
943.561976573	128	57	64
943.562075298	144	57	66
943.608255632	128	57	64
943.608371596	144	57	92
943.638883168	144	55	80
943.700845158	128	57	64
943.730563397	144	27	90
943.738008782	128	55	64
943.738442479	144	57	70
943.784017844	128	27	64
943.791061537	128	57	64
943.791129027	144	57	113
943.898233119	128	57	64
943.898327196	144	57	89
943.979779375	128	57	64
943.979882196	144	57	67
944.075385055	128	57	64
944.102466747	144	57	108
944.151910892	128	57	64
944.152001771	144	57	88
944.272335393	128	57	64
944.446609837	144	57	84
944.497874389	128	68	64
944.519513173	144	55	64
944.605509406	128	55	64
944.82444673	144	68	73
944.83120145	128	68	64
944.897346154	144	55	64
944.988520245	128	55	64
945.153697404	144	55	67
945.176849364	144	27	84
945.211828605	128	55	64
945.334662941	128	27	64
945.398987511	128	57	64
945.517288286	144	27	84
945.56997492	144	55	66
945.588310273	144	57	13
945.599730949	128	27	64
945.657481188	128	55	64
945.674714806	128	57	64
945.756636818	144	57	17
945.834575313	128	57	64
945.857360683	144	55	79
945.910762531	144	57	12
945.974375041	128	55	64
946.017545846	128	57	64
946.064790022	144	57	14
946.178716267	128	57	64
946.246633973	144	57	15
946.306327777	144	55	71
946.919201105	128	57	64
947.055124183	144	57	10
947.082662762	144	27	82
947.161227762	128	27	64
947.481029391	144	27	84
948.141044517	144	68	51
948.335089825	128	57	64
948.475502242	144	57	15
949.091588611	128	57	64
949.243865747	144	57	32
949.753102652	128	68	64
949.817540887	144	68	41
949.832560033	128	68	64
949.86821882	128	57	64
950.015995467	144	57	69
950.145183992	128	55	64
950.719501202	128	27	64
950.873812584	128	57	64
950.9586367	144	68	37
951.007631403	144	57	75
951.012558097	128	68	64
951.125901275	144	68	105
951.126186049	128	68	64
951.126262353	144	68	38
951.147535812	128	68	64
951.447124221	128	57	64
951.863223972	144	55	44
951.910440393	128	55	64
952.37099588	144	27	81
952.424664111	128	27	64
952.475969137	144	68	34
952.58444258	144	55	54
952.670876344	128	55	64
952.717969475	144	55	63
952.747734177	144	27	78
952.777528957	128	55	64
952.782198883	128	27	64
952.878551579	144	55	61
953.472206677	128	68	64
953.987208869	128	55	64
954.125483117	144	68	36
954.580770692	128	68	64
955.211349499	144	27	26
955.239159674	128	27	64
955.581173838	144	27	19
955.620981467	128	27	64
955.913663149	144	27	23
955.960964337	128	27	64
956.416260573	144	27	27
956.489473131	128	27	64
956.574635164	144	68	58
956.579448625	144	55	127
957.406286856	128	55	64
957.616138338	144	27	27
957.703459391	128	68	64
957.705068886	128	27	64
958.021557332	144	27	28
958.082020276	128	27	64
959.441412459	144	68	53
959.603354266	144	27	50
959.789630267	128	27	64
959.940369286	128	57	64
959.986087174	128	68	64
960.67859624	144	27	44
960.732191912	128	27	64
961.022615536	144	27	42
961.060406637	128	27	64
963.042141832	144	68	51
963.254031413	128	68	64
963.424097113	144	68	82
963.500879256	144	27	50
963.553884364	128	27	64
963.670900192	128	68	64
963.851416088	144	27	52
963.915472039	128	27	64
964.684154149	144	68	11
965.561575219	144	55	43
965.67723421	144	27	53
965.69358058	128	55	64
965.75004723	128	27	64
965.973530184	144	55	51
966.093697024	128	55	64
966.150340594	144	27	60
966.197444642	128	27	64
966.432026789	144	55	48
966.655143259	128	55	64
969.692046553	144	27	30
969.8085086	128	27	64
969.896478489	144	27	80
969.948253998	128	27	64
969.948347027	144	27	29
970.068349092	128	27	64
970.084418585	144	27	77
970.175763203	128	27	64
970.212860905	144	27	25
970.236140346	128	27	64
971.406163926	144	33	52
971.486512313	128	33	64
971.537951358	144	27	75
971.686531941	128	27	64
971.897040121	144	33	40
971.971122601	144	27	31
972.194022848	128	27	64
973.288471459	144	27	69
973.321416188	128	27	64
973.648283066	144	27	58
973.716346275	128	27	64
974.982976021	144	27	53
975.002266585	128	27	64
976.015621697	144	27	58
976.032075021	128	27	64
976.110546825	144	27	60
976.163199372	128	27	64
976.524735552	144	27	67
976.580995994	128	27	64
976.687946589	144	55	107
976.884050514	128	55	64
977.363653958	128	68	64
977.924639355	144	27	68
978.000864328	128	27	64
978.270014276	144	27	65
978.380936465	128	27	64
979.444414651	144	27	98
979.519198268	144	55	92
979.524498091	128	27	64
979.524594206	144	27	53
979.650358673	128	27	64
979.650454867	144	27	90
979.704437308	128	55	64
979.773828899	128	27	64
979.945704663	144	27	83
980.058307791	128	27	64
981.32419174	144	27	59
981.391241303	128	27	64
981.659260939	144	27	60
981.704412696	128	27	64
982.896852913	144	27	83
983.016042055	128	27	64
983.016369559	144	27	44
983.138423725	128	27	64
983.138522038	144	27	84
983.210685201	128	27	64
983.210781342	144	27	43
983.316003698	128	27	64
983.316104944	144	27	81
983.403914323	128	27	64
983.404004067	144	27	41
983.48773308	128	27	64
984.739713781	144	27	58
984.741423617	128	33	64
984.762839616	128	27	64
984.931233761	144	33	52
985.052291806	144	27	57
985.106412553	128	27	64
985.515564842	128	33	64
985.822984748	144	33	33
986.060520169	144	55	119
986.202319363	128	55	64
986.251363381	144	55	119
986.359475395	128	55	64
986.558463776	144	27	70
986.592557194	128	27	64
986.6054252	128	33	64
986.605775075	144	55	117
986.8832972	144	33	68
986.942763119	144	27	71
986.979390006	128	27	64
988.018543613	144	27	59
988.057430862	128	27	64
988.393461514	144	27	55
988.496210265	128	27	64
988.6639552	128	33	64
988.724512426	144	33	70
988.805007074	128	33	64
988.904839811	144	33	70
988.975125916	128	33	64
989.049367552	144	33	73
989.108651123	128	33	64
989.185146339	144	33	72
989.254755538	128	33	64
989.30537731	144	33	75
989.562838443	144	27	53
989.608849547	128	27	64
989.988130773	128	33	64
990.023748445	144	33	77
990.051185385	144	27	53
990.07640262	128	33	64
990.103116377	128	27	64
990.167264966	144	33	75
990.230057068	128	33	64
990.320005603	144	33	80
990.36951563	128	33	64
990.461037773	144	33	78
990.530762906	128	33	64
990.632765783	144	33	72
990.795600279	128	33	64
990.911595694	144	33	72
991.016315732	128	33	64
991.14398182	144	33	70
991.194092112	128	33	64
991.312824258	144	33	65
991.450214886	128	33	64
991.568213574	144	33	64
991.894166123	128	33	64
991.992718249	144	33	58
993.052279643	128	55	64
993.090884494	128	33	64
993.131684722	144	27	62
993.195401521	128	27	64
993.195497004	144	27	28
993.205308869	144	33	65
993.267946821	144	55	91
993.293783218	128	33	64
993.296779756	128	27	64
993.322583027	144	27	59
993.345266457	144	33	63
993.430418368	128	27	64
993.473245543	144	27	27
993.499785288	128	27	64
993.499868638	144	27	56
993.512489081	128	55	64
993.569703848	128	27	64
993.569800074	144	27	29
993.68011582	128	27	64
993.713093859	144	27	62
993.812398516	128	27	64
993.812489915	144	27	33
993.862549649	128	27	64
993.94552312	144	27	65
993.981955841	128	33	64
994.047959906	128	27	64
994.048057229	144	27	29
994.06682023	144	33	61
994.14307401	128	33	64
994.14477446	128	27	64
994.159602696	144	27	66
994.207199555	144	33	59
994.2626905	128	27	64
994.272251011	144	27	32
994.339790711	128	27	64
994.475381962	144	27	68
994.475637895	128	27	64
994.475871242	144	27	35
994.476248011	128	27	64
994.651576263	128	33	64
994.748611892	144	33	58
994.803973901	128	33	64
994.891141363	144	33	57
994.971120417	128	33	64
995.038144881	144	33	56
995.100771135	144	27	36
995.113980367	128	33	64
995.187548478	128	27	64
995.198639753	144	27	68
995.269827251	128	27	64
995.269927733	144	27	33
995.358780187	144	33	10
995.413805347	128	27	64
995.417831329	128	33	64
995.422465052	144	27	66
995.482923336	144	33	14
995.493239164	128	27	64
995.527399704	144	27	31
995.584992756	128	33	64
995.591562838	128	27	64
995.591654202	144	27	66
995.624236486	144	33	13
995.626611977	128	27	64
995.740584631	128	33	64
995.781389246	144	33	12
995.903649385	128	33	64
995.971826935	144	33	13
996.001986143	144	27	58
996.084938053	128	33	64
996.099783387	128	27	64
996.099881089	144	27	24
996.213905517	128	27	64
996.216402808	144	33	12
996.219985995	144	27	56
996.307688088	128	33	64
996.324211667	128	27	64
996.3753663	144	27	24
996.40546861	128	27	64
996.407104558	144	33	8
996.429111052	144	27	59
996.475355119	128	27	64
996.57420631	128	33	64
996.634457815	144	33	8
996.753543484	128	33	64
996.789544134	144	73	54
996.857205662	144	33	10
996.860969965	128	73	64
996.961945631	128	33	64
997.052050208	144	33	10
997.131505502	144	55	118
997.131836737	128	33	64
997.243505247	144	33	11
997.318211186	144	27	40
997.3246772	128	33	64
997.344648235	128	55	64
997.381274672	128	27	64
997.436701189	144	33	12
997.465580954	144	27	26
997.520210843	128	33	64
997.571677113	128	27	64
997.610748546	144	27	55
997.633302195	144	33	14
997.633716658	128	27	64
997.696350796	128	33	64
997.724830482	144	27	32
997.829675108	128	27	64
997.893176407	144	27	62
997.988052152	128	27	64
998.035953933	144	33	22
998.089793728	128	33	64
998.435570676	144	27	46
998.481278991	128	27	64
998.638872962	144	33	26
998.685264254	128	33	64
998.767751351	144	27	43
998.867254586	128	27	64
999.053556666	144	27	54
999.160553986	128	27	64
999.230212009	144	33	25
999.288115216	128	33	64
999.710450652	144	27	99
999.761448692	128	27	64
999.768886684	144	33	28
999.825743158	128	33	64
999.831170231	144	73	87
999.84426003	144	27	102
999.889801577	128	27	64
999.89864602	128	73	64
999.95216174	144	27	105
1000.017046747	128	27	64
1000.065241272	144	27	113
1000.134385224	128	27	64
1000.293920001	144	73	36
1000.325403854	144	33	12
1000.395750943	128	73	64
1000.400983347	128	33	64
1000.525027889	144	33	19
1000.605270816	128	33	64
1000.731468017	144	33	27
1000.811419048	128	33	64
1000.93900688	144	73	77
1001.015521729	144	33	24
1001.032696712	128	73	64
1001.163543503	144	27	21
1001.175902739	128	27	64
1001.233072063	144	73	78
1001.337475357	128	73	64
1001.432175721	144	27	22
1001.469485016	128	27	64
1001.547410557	144	73	92
1001.57854423	128	33	64
1001.683917661	128	73	64
1001.713613883	144	27	34
1001.763134727	144	33	77
1001.767894485	128	27	64
1001.841601521	128	33	64
1002.059467383	144	33	81
1002.076742699	144	88	68
1002.170172564	128	88	64
1002.43723293	144	27	109
1002.47859107	128	27	64
1002.571802431	144	27	110
1002.612357246	128	27	64
1002.677705029	144	27	112
1002.726308172	128	27	64
1002.790862693	144	27	112
1002.837682654	128	27	64
1002.997699058	144	55	110
1003.060999543	144	88	78
1003.148304059	128	88	64
1003.234381429	128	33	64
1003.436585761	144	33	85
1003.62646874	128	33	64
1003.729589225	144	33	84
1003.811009127	144	88	73
1003.833825653	128	33	64
1003.875592702	128	88	64
1003.939427822	144	33	85
1004.02643024	128	33	64
1004.183183366	144	33	86
1004.198723024	144	88	69
1004.259117739	128	33	64
1004.272472734	128	88	64
1004.318669823	144	27	73
1004.353196294	128	27	64
1004.36206244	144	33	86
1004.427687516	128	33	64
1004.447621878	144	88	76
1004.542743909	128	88	64
1004.580019231	144	33	85
1004.632098054	144	88	77
1004.656374377	128	33	64
1004.725464093	128	88	64
1004.843251714	144	33	86
1004.930679803	128	33	64
1005.120893332	144	33	86
1005.121267108	144	27	66
1005.179596088	128	27	64
1005.204882418	128	33	64
1005.243770205	144	27	64
1005.338025614	128	27	64
1005.405731712	144	33	86
1005.474919835	128	33	64
1005.712170526	144	27	69
1005.726197087	144	88	64
1005.770313222	128	27	64
1005.772284795	128	88	64
1005.918488316	144	33	88
1005.995513362	128	33	64
1006.181637786	144	33	87
1006.240172453	128	33	64
1006.42476578	144	33	86
1006.495176083	128	33	64
1006.931372684	144	33	89
1006.975426601	128	33	64
1006.997524343	144	27	66
1007.086482958	128	27	64
1007.143080489	144	33	89
1007.204164673	128	33	64
1007.251622006	144	27	68
1007.351484195	128	27	64
1007.392381437	128	55	64
1007.641191886	144	33	90
1007.709114212	128	33	64
1007.894988728	144	33	91
1007.91296862	144	27	64
1007.950931285	128	27	64
1007.971771451	128	33	64
1008.113048856	144	55	111
1008.176435742	128	55	64
1008.255386066	144	27	68
1008.316914719	128	27	64
1008.86624012	144	33	86
1009.140025957	144	55	97
1009.519387133	144	27	78
1009.585893126	128	27	64
1009.75680694	128	33	64
1009.912795424	144	33	63
1009.937976509	144	27	77
1009.973232226	128	33	64
1010.016423364	128	27	64
1010.098565485	144	33	58
1010.178461354	128	33	64
1010.266099378	144	33	52
1010.373510016	128	33	64
1010.48489332	144	33	43
1010.575896096	128	33	64
1010.638240288	128	55	64
1010.703349904	144	33	40
1011.213717176	128	33	64
1011.239797287	144	27	61
1011.277837828	128	27	64
1011.360216613	144	33	49
1011.465549351	128	33	64
1011.592348022	144	33	45
1011.654582386	144	27	61
1011.693860246	128	33	64
1011.813106551	144	33	44
1011.940627582	128	33	64
1012.042411296	144	33	40
1012.124311588	128	33	64
1012.224776691	144	33	39
1012.286536064	128	33	64
1012.959238677	144	55	101
1013.257262458	128	55	64
1013.334791893	144	88	54
1013.595936632	128	88	64
1013.728402388	128	27	64
1014.01584131	144	55	84
1014.185835009	128	55	64
1014.757107356	144	55	85
1014.862262929	128	55	64
1014.974858505	144	55	90
1015.157173925	128	55	64
1015.186854412	144	55	82
1015.259191185	128	55	64
1015.925420881	144	55	100
1016.17032184	128	55	64
1017.431420504	144	27	78
1017.441836528	128	27	64
1017.538715606	144	27	77
1017.593888382	128	27	64
1017.653343015	144	27	78
1017.920048526	128	27	64
1018.096450842	144	33	82
1018.134494057	128	33	64
1018.281203057	144	33	99
1018.329526257	128	33	64
1018.384049844	144	88	115
1018.448749864	144	33	98
1018.46696323	128	88	64
1018.688670128	128	33	64
1018.739128579	144	33	98
1018.807877618	128	33	64
1019.318962567	144	27	63
1019.401646975	128	27	64
1019.712889738	144	27	62
1019.784559645	144	88	22
1019.84807547	128	88	64
1019.998908432	128	27	64
1020.005160267	144	33	84
1020.367519823	144	88	114
1020.471590964	128	88	64
1021.374049447	144	27	84
1021.419614541	128	27	64
1021.419713115	144	27	49
1021.537647934	128	27	64
1021.53774558	144	27	79
1021.631204232	128	27	64
1021.631298558	144	27	43
1021.834458817	128	27	64
1022.07770846	144	73	118
1022.092772707	128	73	64
1022.271022632	144	27	79
1022.324046899	128	27	64
1022.975203717	144	73	62
1022.977703837	128	73	64
1023.048363759	144	73	63
1023.120743552	128	73	64
1024.122585738	144	27	83
1024.145032861	128	33	64
1024.226091966	128	27	64
1024.226182721	144	27	43
1024.352327859	128	27	64
1024.88131511	144	55	73
1025.084796055	144	73	76
1025.193243703	128	73	64
1025.262213125	144	73	46
1025.356423047	128	73	64
1025.983170278	144	33	99
1026.108303616	128	55	64
1026.912485379	144	55	67
1027.402679887	128	55	64
1028.512499381	144	55	122
1028.636075652	128	55	64
1028.752861503	144	55	125
1028.808745196	128	55	64
1028.897759092	144	55	126
1029.158469735	144	88	96
1029.253858011	128	88	64
1029.536170428	128	55	64
1029.967123998	144	27	97
1029.982780948	128	27	64
1030.072610925	144	27	103
1030.144764097	128	27	64
1030.194146905	144	27	103
1030.44118745	144	88	87
1030.446029382	128	27	64
1030.451513643	128	33	64
1030.48574118	128	88	64
1030.595874401	144	88	87
1030.665449777	144	33	93
1030.67546383	128	88	64
1030.690386964	128	33	64
1030.743336511	144	88	88
1030.769046962	144	33	95
1030.83930065	128	88	64
1030.843167018	128	33	64
1030.87288328	144	88	90
1030.934264577	128	88	64
1030.960588024	144	33	92
1031.019242821	128	33	64
1031.105493877	144	33	91
1031.168583833	128	33	64
1031.258380343	144	33	90
1031.337040578	128	33	64
1031.413781014	144	33	87
1032.49680536	144	27	102
1032.51696955	128	27	64
1032.621551755	144	27	102
1032.659367987	128	27	64
1032.737057926	144	27	98
1032.789518056	128	27	64
1033.221908762	144	55	31
1033.813390835	128	55	64
1034.1547695	144	55	33
1034.499640372	128	33	64
1034.703568128	128	55	64
1034.977482138	144	27	68
1034.99703014	144	55	41
1035.020280982	128	27	64
1035.4398995	128	55	64
1035.787909709	144	55	51
1035.863250883	144	27	32
1035.93729521	128	27	64
1036.079857697	128	55	64
1036.183124962	144	27	56
1036.262257496	128	27	64
1036.427315874	144	55	54
1036.574469084	144	27	84
1036.626598314	128	55	64
1036.628075299	128	27	64
1036.869808835	144	55	60
1036.992580842	128	55	64
1037.237648882	144	55	64
1037.34165588	128	55	64
1037.543250266	144	55	66
1037.596932236	128	55	64
1037.691885137	144	27	17
1037.740502287	128	27	64
1037.797535103	144	55	76
1037.842677503	128	55	64
1037.989632443	144	55	80
1038.037205271	128	55	64
1038.150106469	144	55	77
1038.203966015	128	55	64
1038.241731066	144	27	28
1038.278308259	144	55	78
1038.305446623	128	27	64
1038.32591964	128	55	64
1038.406846905	144	55	81
1038.452591429	144	27	37
1038.452849296	128	55	64
1038.496030194	128	27	64
1038.529819101	144	55	85
1038.57026947	144	27	46
1038.57511513	128	55	64
1038.632576628	144	55	85
1038.648811112	128	27	64
1038.678096479	128	55	64
1038.761682226	144	55	87
1038.763837537	144	27	56
1038.803416125	128	27	64
1038.80803784	128	55	64
1038.824655942	144	88	94
1038.85304815	144	27	67
1038.870261565	144	55	97
1038.91253551	128	55	64
1038.91466162	128	88	64
1038.926676851	128	27	64
1038.988718804	144	55	104
1039.01010327	144	27	81
1039.028332527	128	55	64
1039.060043995	128	27	64
1039.089026124	144	27	86
1039.096525151	144	55	110
1039.140972	128	55	64
1039.153732507	128	27	64
1039.209046394	144	55	113
1039.259935053	128	55	64
1039.325374114	144	55	114
1039.371701238	128	55	64
1039.428059123	144	88	93
1039.431282661	144	55	119
1039.474865945	128	55	64
1039.492925052	128	88	64
1039.541215745	144	55	120
1039.589153147	128	55	64
1039.65328398	144	55	126
1039.696665516	128	55	64
1039.897420437	144	88	93
1039.95546601	128	88	64
1040.04611634	144	27	38
1040.115366775	128	27	64
1040.624644034	144	27	40
1040.65703576	128	27	64
1041.179671236	144	88	18
1041.213622683	144	27	39
1041.245195264	128	88	64
1041.256994485	128	27	64
1041.573747664	144	55	1
1041.701157059	144	88	65
1041.71259655	128	55	64
1041.756581248	128	88	64
1041.829039251	144	55	1
1041.984413972	128	55	64
1042.133902302	144	55	1
1042.134957623	144	88	86
1042.17893632	128	88	64
1042.193284117	128	55	64
1042.358834245	144	55	3
1042.413268897	128	55	64
1042.459175442	144	27	42
1042.502285604	128	27	64
1042.614193596	144	55	9
1042.704945071	128	55	64
1042.854243859	144	55	13
1042.894184312	144	27	43
1042.909287464	128	55	64
1042.940818882	128	27	64
1042.948579194	144	88	122
1043.049854822	128	88	64
1043.096261353	144	55	18
1043.154938016	128	55	64
1043.383161055	144	27	41
1043.43971495	128	27	64
1043.54234358	144	55	18
1043.638018419	128	55	64
1043.750699334	144	55	24
1043.792256733	144	88	28
1043.795840416	144	62	56
1043.797352221	128	55	64
1043.895166228	144	55	21
1043.930504519	128	88	64
1043.997727808	128	55	64
1044.120135296	144	55	12
1044.25795625	128	55	64
1044.353536811	144	88	41
1044.377451991	144	55	4
1044.422378854	128	55	64
1044.480936922	128	88	64
1044.582719245	144	55	4
1044.706931853	128	55	64
1044.746749688	144	55	10
1044.828773539	128	55	64
1044.857496175	144	27	45
1044.875530579	144	55	11
1044.896743376	144	88	43
1044.897193731	128	55	64
1044.93951391	128	27	64
1044.962904438	128	88	64
1044.981375579	144	55	12
1045.028212229	128	55	64
1045.063975294	144	55	13
1045.105986191	128	55	64
1045.179917851	144	55	8
1045.222869925	128	55	64
1045.291721773	144	55	10
1045.341100853	128	55	64
1045.348413654	144	27	43
1045.364622864	144	88	54
1045.36839906	144	55	10
1045.424651954	128	27	64
1045.425146098	128	55	64
1045.426380445	128	88	64
1045.480701054	144	55	11
1045.505550367	128	55	64
1045.592160709	144	55	12
1045.636613826	128	55	64
1045.699726761	144	55	10
1045.749589845	128	55	64
1045.785337601	144	88	56
1045.815724335	144	55	13
1045.820092051	144	27	44
1045.860782336	128	55	64
1045.863388338	128	88	64
1045.896015658	144	55	11
1045.906602964	128	27	64
1045.921906528	128	55	64
1046.006765432	144	55	15
1046.049593731	128	55	64
1046.082279363	144	55	19
1046.112949299	128	55	64
1046.169453503	144	88	67
1046.198930959	144	55	12
1046.241209412	128	55	64
1046.265353492	128	88	64
1046.312968826	144	55	12
1046.359079979	128	55	64
1046.421757705	144	55	10
1046.471681779	128	55	64
1046.520150553	144	88	75
1046.528750026	144	55	12
1046.574714463	128	55	64
1046.596635142	128	88	64
1046.638832387	144	55	10
1046.680002008	128	55	64
1046.74588789	144	55	11
1046.793762079	128	55	64
1046.837214315	144	88	87
1046.856283575	144	55	13
1046.905909855	128	55	64
1046.910177669	128	88	64
1046.963137499	144	55	11
1047.008556672	128	55	64
1047.080364503	144	55	11
1047.123836615	128	55	64
1047.188145063	144	55	11
1047.19773071	144	88	106
1047.235973606	128	55	64
1047.261751183	128	88	64
1047.296019485	144	55	15
1047.342704658	128	55	64
1047.397988503	144	55	17
1047.444869316	128	55	64
1047.460017356	144	27	47
1047.558017063	128	27	64
1047.721253293	128	62	64
1047.837597926	144	62	11
1047.883750781	144	55	15
1047.926208715	128	55	64
1047.930771631	144	27	48
1047.976705716	128	27	64
1048.16719606	144	55	4
1048.216110328	128	55	64
1048.355772732	144	55	11
1048.37909228	144	27	44
1048.394393159	144	88	86
1048.420481999	128	55	64
1048.452626383	128	27	64
1048.711179073	144	55	3
1048.755428763	128	55	64
1049.721126524	144	27	45
1049.803336628	128	27	64
1050.229813157	144	27	45
1050.284687081	144	55	29
1050.285019013	128	27	64
1050.350323507	128	88	64
1050.373182751	128	55	64
1050.648610826	144	55	44
1050.673709995	144	27	46
1050.694631773	128	55	64
1050.735954589	128	27	64
1050.967293519	144	55	44
1051.010866021	128	55	64
1051.101249371	144	88	101
1051.147591843	144	39	49
1051.205054105	128	39	64
1051.256374651	144	55	42
1051.303443577	128	55	64
1051.479761028	144	55	41
1051.522719136	128	55	64
1051.656803243	144	55	44
1051.699396253	144	39	51
1051.702990863	128	55	64
1051.815985021	144	55	38
1051.859462318	128	55	64
1051.892551181	128	39	64
1051.944334008	144	55	38
1051.988763618	128	55	64
1052.055758113	144	55	37
1052.101255366	128	55	64
1052.180600064	144	55	38
1052.212399235	144	27	44
1052.225734843	128	55	64
1052.27008818	128	88	64
1052.28723362	128	27	64
1052.312844512	144	55	40
1052.361246833	128	55	64
1052.407657575	144	39	46
1052.442377679	144	55	41
1052.485540849	128	39	64
1052.487462628	128	55	64
1052.600139084	144	55	41
1052.642533391	128	55	64
1052.683950977	144	27	45
1052.770299227	128	27	64
1052.82612504	144	55	47
1052.871598827	128	55	64
1052.996102607	128	62	64
1053.083229935	144	39	50
1053.096631461	144	55	45
1053.116606309	144	27	44
1053.138991094	128	55	64
1053.142328493	144	62	6
1053.17427458	128	27	64
1053.227745833	128	39	64
1053.38432931	144	55	47
1053.417858266	144	39	51
1053.427029669	128	55	64
1053.501501213	128	39	64
1053.64974195	144	39	54
1053.687362548	144	55	43
1053.737180319	128	55	64
1053.745396236	128	62	64
1053.913484318	144	55	43
1053.940157884	144	62	9
1053.957876674	128	55	64
1054.136161491	144	55	41
1054.186577395	128	55	64
1054.341131434	128	62	64
1054.368028561	144	55	41
1054.422962943	128	55	64
1054.547512306	144	62	27
1054.556201382	144	55	40
1054.587169452	144	27	47
1054.599233026	128	55	64
1054.611784012	128	27	64
1054.72831135	144	55	38
1054.771893005	128	55	64
1054.889827621	144	55	40
1054.939630364	128	55	64
1055.014429803	144	55	32
1055.036492137	144	27	47
1055.061992918	128	55	64
1055.094734077	128	27	64
1055.145615148	144	55	37
1055.192245511	128	55	64
1055.273186128	144	55	39
1055.320680921	128	55	64
1055.416509526	144	55	47
1055.445561687	144	27	49
1055.460311253	128	55	64
1055.522682062	128	27	64
1055.59232622	128	39	64
1055.73645704	144	55	37
1055.781515038	128	55	64
1055.781762609	144	39	57
1055.926127799	128	39	64
1056.398360446	144	55	27
1056.433150111	144	39	64
1056.438975367	128	55	64
1056.710885946	144	27	49
1056.782422057	128	27	64
1056.910920088	144	68	74
1056.930928157	128	68	64
1057.006506794	144	68	71
1057.03252236	128	68	64
1057.05878885	128	39	64
1057.125376709	144	27	47
1057.134009956	144	55	45
1057.174023257	128	55	64
1057.197771495	128	27	64
1057.290972372	128	62	64
1057.440294491	144	62	37
1057.480527147	144	55	31
1057.526739719	128	55	64
1057.574915782	144	27	45
1057.632693285	128	27	64
1057.66689635	144	39	60
1057.812003287	144	50	21
1057.869780646	144	55	35
1057.903206594	128	50	64
1057.909885228	128	55	64
1058.11433948	128	62	64
1058.200917862	144	55	39
1058.24598859	128	55	64
1058.251271733	144	62	56
1058.324599291	128	62	64
1058.342497225	128	39	64
1058.426107695	144	50	15
1058.446113529	144	62	71
1058.47705423	128	50	64
1058.512903359	128	62	64
1058.598877991	144	62	83
1058.633090767	144	50	21
1058.644606781	144	68	28
1058.653694072	144	55	33
1058.656974283	128	50	64
1058.706763085	128	62	64
1058.710152703	128	55	64
1058.782321164	144	62	91
1058.808466556	144	50	35
1058.848945688	144	39	56
1058.8597541	128	50	64
1058.992863959	128	39	64
1059.004329678	144	50	44
1059.022233945	128	50	64
1059.038268317	144	55	50
1059.043449961	144	27	68
1059.071106563	128	27	64
1059.079483137	128	55	64
1059.175321404	144	50	52
1059.193548715	128	50	64
1059.265913318	144	39	55
1059.351798306	128	39	64
1059.385028892	144	55	46
1059.428351651	128	55	64
1059.666143794	144	39	57
1059.674235608	128	68	64
1059.736985115	144	55	53
1059.75387844	144	68	36
1059.781163567	128	55	64
1059.783134824	128	68	64
1060.024905531	144	55	53
1060.122703534	144	27	81
1060.155894974	128	27	64
1060.158902677	128	55	64
1060.309242983	144	55	54
1060.375215901	128	55	64
1060.437966744	144	68	49
1060.64483012	144	55	57
1060.716734793	128	55	64
1060.757739366	144	50	120
1060.81012846	128	50	64
1061.139501071	128	62	64
1061.237993001	144	62	26
1061.263234243	144	55	65
1061.305358927	128	55	64
1061.639805108	144	27	66
1061.672113908	128	27	64
1061.737930593	128	62	64
1061.839984087	144	62	26
1062.074273907	144	55	78
1062.12127921	128	55	64
1062.438795604	144	50	50
1062.439912168	128	68	64
1062.918224131	144	55	84
1062.995102428	128	55	64
1063.010940802	144	27	71
1063.244400629	144	68	82
1063.300188745	128	27	64
1063.756581536	128	68	64
1063.825312623	128	50	64
1063.978339521	144	55	121
1064.169044733	128	39	64
1064.252798727	128	62	64
1064.364882559	144	62	27
1064.391108656	144	27	60
1064.452814996	128	27	64
1064.963177189	144	39	11
1065.317588871	128	62	64
1065.493388831	144	27	59
1065.532680051	144	62	67
1065.590655807	128	27	64
1065.892617234	144	69	32
1066.093013776	128	39	64
1066.231593242	128	62	64
1066.271829437	128	69	64
1066.338975075	144	27	60
1066.550888924	144	39	1
1066.587430029	128	39	64
1066.710369275	144	69	61
1066.749715055	144	39	5
1066.804686928	128	39	64
1066.896502561	144	62	69
1066.908248896	144	39	4
1066.987844008	128	39	64
1066.997321881	128	69	64
1067.009717071	144	68	27
1067.016746082	128	68	64
1067.074931065	144	39	6
1067.089111199	144	68	76
1067.153484016	128	39	64
1067.158944449	144	69	51
1067.194008364	128	68	64
1067.194201114	144	68	49
1067.231790007	128	68	64
1067.300743512	144	39	4
1067.353461431	128	39	64
1067.374793687	144	68	68
1067.400092001	128	68	64
1067.407592414	144	50	26
1067.446463631	128	69	64
1067.457915229	144	39	4
1067.47623635	128	50	64
1067.537871342	128	39	64
1067.572967801	144	69	47
1067.624371539	144	50	25
1067.65659715	128	50	64
1067.667207463	128	69	64
1067.736602144	144	50	26
1067.769962119	144	23	92
1067.792874025	128	50	64
1067.82094258	144	69	45
1067.851195515	144	50	26
1067.851575478	128	23	64
1067.912480259	128	50	64
1067.91991823	128	69	64
1067.949222819	144	39	123
1067.970759099	144	50	28
1068.003039153	128	39	64
1068.027009088	128	50	64
1068.080262149	144	69	43
1068.090762173	144	50	29
1068.107031445	144	39	123
1068.14077917	128	50	64
1068.161636387	128	27	64
1068.173771656	128	69	64
1068.187749426	128	39	64
1068.199550321	144	50	31
1068.261924776	128	50	64
1068.307354452	144	39	121
1068.331426104	144	50	35
1068.351747556	144	69	42
1068.374770276	128	50	64
1068.376538333	144	27	66
1068.384159536	128	39	64
1068.435595744	144	50	34
1068.470642973	128	69	64
1068.493316276	128	50	64
1068.532301772	144	39	123
1068.565790388	128	39	64
1068.566912676	128	27	64
1068.571924929	144	50	37
1068.608108269	128	50	64
1068.641948204	144	69	38
1068.68611165	144	50	38
1068.739851155	128	50	64
1068.74177375	128	69	64
1068.806146754	144	50	41
1068.865813942	128	50	64
1068.915698743	144	50	43
1068.974520145	128	50	64
1069.038235213	144	50	47
1069.064804746	144	39	3
1069.094497951	128	50	64
1069.119772843	128	39	64
1069.154378173	144	50	49
1069.209268764	128	50	64
1069.270098863	144	68	22
1069.29905216	144	50	52
1069.313941177	128	68	64
1069.355366696	128	50	64
1069.38223896	144	69	32
1069.387599543	144	50	54
1069.460396864	128	50	64
1069.462026265	144	68	50
1069.484488975	128	68	64
1069.507682579	144	50	54
1069.538165206	144	68	75
1069.559817308	128	50	64
1069.565420017	144	39	126
1069.584417194	128	68	64
1069.604944469	144	68	96
1069.615836653	144	50	54
1069.619184271	128	39	64
1069.66489982	144	27	83
1069.678574938	128	50	64
1069.678732754	128	68	64
1069.706640237	144	68	72
1069.735200604	144	50	54
1069.751038423	128	68	64
1069.752202272	128	69	64
1069.771159889	144	68	127
1069.79272072	128	50	64
1069.799270344	128	27	64
1069.818914425	128	68	64
1069.828115784	144	27	51
1069.848462025	144	68	92
1069.871198834	144	50	55
1069.897248004	128	68	64
1069.906607796	128	50	64
1069.917532421	128	27	64
1069.958991362	144	27	77
1069.970569301	144	50	55
1070.014965622	144	39	7
1070.022597835	128	50	64
1070.070189487	128	39	64
1070.097312378	128	27	64
1070.101170051	144	50	56
1070.157377393	128	50	64
1070.190794815	144	69	28
1070.201381382	144	27	40
1070.222421846	144	50	56
1070.276350666	128	50	64
1070.320885071	144	50	57
1070.388796359	128	50	64
1070.442541023	144	50	60
1070.50572127	128	27	64
1070.508459031	128	50	64
1070.549472324	144	50	62
1070.582187883	144	39	126
1070.626623085	128	50	64
1070.632793867	128	39	64
1070.637111679	144	68	67
1070.666488572	128	68	64
1070.686811406	144	50	64
1070.74357667	128	50	64
1070.781709197	144	39	120
1070.816005752	144	23	105
1070.816153237	128	39	64
1070.823120554	128	69	64
1070.824490922	144	50	65
1070.848278747	128	23	64
1070.857780841	128	50	64
1070.936976668	144	50	65
1070.976707345	128	50	64
1070.97699474	144	23	110
1071.045929968	128	23	64
1071.054944156	144	50	66
1071.090485944	128	50	64
1071.134673865	144	23	110
1071.165852118	144	50	68
1071.199754256	144	39	27
1071.212121646	144	68	69
1071.212363105	128	23	64
1071.212491637	128	50	64
1071.219995589	128	39	64
1071.284948367	144	50	67
1071.345841856	128	50	64
1071.357051669	144	23	112
1071.378081186	128	23	64
1071.405793693	144	50	71
1071.459330529	128	50	64
1071.536450861	144	50	74
1071.566430611	144	27	69
1071.577709006	128	50	64
1071.6572516	144	50	77
1071.674193197	128	27	64
1071.674289556	144	27	46
1071.723145246	128	50	64
1071.773081169	144	50	78
1071.786851129	128	27	64
1071.827029764	128	50	64
1071.839308124	144	69	30
1071.879731664	144	27	75
1071.889045536	144	50	80
1071.923864621	128	50	64
1072.016767061	144	50	84
1072.075589727	128	50	64
1072.122662211	144	50	84
1072.173891027	128	69	64
1072.176875963	128	50	64
1072.241368656	144	50	87
1072.293388109	128	50	64
1072.348735044	144	50	87
1072.411962865	128	50	64
1072.471395887	144	50	90
1072.478962999	128	27	64
1072.491966584	144	69	26
1072.529192035	128	50	64
1072.60354447	144	50	92
1072.678232407	128	50	64
1072.707296511	144	50	95
1072.762390922	128	50	64
1072.820702536	144	50	100
1072.877320814	128	50	64
1072.879251548	128	69	64
1072.953537958	144	50	102
1072.993082144	128	50	64
1073.012794878	144	27	67
1073.01709144	144	69	22
1073.07000099	144	50	107
1073.126371858	128	50	64
1073.160919871	128	27	64
1073.161017918	144	27	105
1073.180788675	144	50	110
1073.233060242	128	68	64
1073.245385113	128	50	64
1073.265060729	128	27	64
1073.265135566	144	27	62
1073.306883792	144	50	114
1073.363474654	128	69	64
1073.378736612	128	27	64
1073.38058642	128	50	64
1073.385999606	144	27	88
1073.394060719	144	68	100
1073.403032132	128	68	64
1073.421379243	144	50	117
1073.485253712	128	27	64
1073.489414921	144	69	25
1073.489681943	128	50	64
1073.489905222	144	27	57
1073.548148176	144	50	114
1073.594656597	128	27	64
1073.594748103	144	27	90
1073.620373907	128	50	64
1073.671751437	128	27	64
1073.671848023	144	27	57
1073.686199556	144	50	109
1073.740653169	128	50	64
1073.779156374	128	27	64
1073.779255961	144	27	96
1073.836944885	144	50	92
1073.848694253	128	69	64
1073.893780587	128	50	64
1073.919533146	128	27	64
1073.950766031	144	50	87
1074.011101155	128	50	64
1074.021827723	128	55	64
1074.069475725	144	50	81
1074.071501163	128	62	64
1074.081477442	144	39	11
1074.126207727	128	50	64
1074.183451374	144	50	76
1074.234817454	144	62	83
1074.244901616	128	50	64
1074.314313924	144	50	67
1074.377736572	128	50	64
1074.440319469	144	50	65
1074.493281325	128	50	64
1074.570905426	144	50	60
1074.626511479	128	50	64
1074.68317493	144	50	58
1074.745388488	128	50	64
1074.832947789	144	50	55
1074.882375601	128	50	64
1074.903620492	128	69	64
1074.954810112	144	50	53
1074.989199213	128	50	64
1075.070266446	144	50	50
1075.122425522	128	50	64
1075.179434973	144	50	50
1075.31074933	144	23	25
1075.494324399	144	27	83
1075.551761441	128	27	64
1075.587986512	144	27	41
1075.63475392	128	27	64
1075.640341911	144	27	81
1075.657250326	128	50	64
1075.706127505	144	50	50
1075.72479459	128	50	64
1075.732430429	128	27	64
1075.759604023	144	55	127
1075.772450585	144	27	36
1075.797122202	128	27	64
1075.811204988	144	27	76
1075.874331469	128	27	64
1075.896174373	144	27	31
1075.976348819	128	23	64
1075.978390653	128	27	64
1075.98686342	144	27	78
1076.030346908	128	27	64
1076.057009038	144	27	33
1076.057193352	128	27	64
1076.28650647	128	62	64
1076.310347478	128	39	64
1076.384103321	144	62	57
1076.453551886	128	62	64
1076.479452476	144	23	40
1076.499645088	144	39	110
1076.539982833	144	62	54
1076.613010515	128	62	64
1076.618406506	128	39	64
1076.631830571	128	23	64
1076.691421235	144	62	48
1076.905258418	144	27	73
1077.21594838	144	23	42
1077.319907038	144	39	112
1077.362188828	144	68	35
1077.374366964	128	23	64
1077.379469569	128	27	64
1077.492764976	128	39	64
1077.619589386	144	73	63
1077.66008413	128	73	64
1077.793053579	144	23	49
1077.952998507	128	23	64
1078.063483011	144	73	106
1078.157030501	128	73	64
1078.344239278	128	62	64
1078.35763206	144	23	52
1078.414346639	128	23	64
1078.47392186	128	68	64
1078.481444608	144	62	54
1078.499497163	144	39	119
1078.505398493	144	27	39
1078.536808875	128	27	64
1078.544243068	128	62	64
1078.587070042	128	39	64
1078.62944422	144	68	48
1078.635473205	128	68	64
1078.659208524	144	62	55
1078.732514112	128	62	64
1078.739257259	144	23	54
1078.746628884	128	23	64
1078.840408622	144	23	54
1078.852674486	144	62	52
1078.932086907	128	23	64
1079.129597171	144	23	51
1079.215285133	128	23	64
1079.429070243	144	68	61
1079.448314485	128	68	64
1079.631258671	144	27	39
1079.921547914	128	27	64
1080.108708371	144	23	58
1080.232843657	128	23	64
1080.493419188	128	62	64
1080.608909018	144	23	58
1080.628355793	144	62	56
1080.699185742	128	23	64
1080.713819498	128	62	64
1080.732045151	144	39	115
1080.820206563	128	39	64
1080.826537881	144	62	58
1080.903088072	128	62	64
1081.004649864	144	62	58
1081.096865199	144	27	67
1081.150668557	128	27	64
1081.257448958	144	23	64
1081.270519191	144	50	41
1081.408071598	128	23	64
1081.57986089	144	23	62
1081.663986335	128	23	64
1081.813611609	144	23	67
1081.898577512	128	23	64
1082.064568493	144	23	69
1082.115762343	144	39	21
1082.129485841	128	23	64
1082.218029164	128	39	64
1082.242457795	144	27	60
1082.30837246	128	27	64
1082.549457632	128	50	64
1082.609830169	144	39	33
1082.625927672	128	62	64
1082.753416515	144	62	58
1082.792614667	128	39	64
1082.838986929	128	62	64
1082.92084636	144	62	60
1082.996684425	128	62	64
1083.124836849	144	62	60
1083.199538279	144	39	49
1083.343668391	128	39	64
1083.614453178	144	23	109
1083.757595739	128	23	64
1083.76500531	144	39	52
1083.873579296	144	50	40
1083.894237822	144	27	69
1083.901067471	128	27	64
1083.942865732	128	39	64
1083.979222102	144	27	63
1084.046719712	128	27	64
1084.096418409	144	27	61
1084.181930231	128	27	64
1084.248555442	144	39	62
1084.54219836	144	23	111
1084.548258991	128	50	64
1084.687094559	128	23	64
1084.726108135	128	39	64
1084.842211737	144	27	59
1084.881506602	128	27	64
1084.919499432	144	23	114
1084.937122022	144	39	61
1084.979850384	128	23	64
1085.126105046	128	39	64
1085.325591618	144	27	65
1085.352302929	144	39	63
1085.382712466	128	27	64
1085.542311024	128	39	64
1085.650479379	128	62	64
1085.786698924	128	55	64
1085.787171558	144	62	87
1085.852099076	128	62	64
1085.899503145	144	39	71
1085.93993735	144	62	85
1085.995147322	144	55	119
1086.008709302	128	62	64
1086.059497605	128	39	64
1086.121205059	144	62	85
1086.335727632	144	27	66
1086.363131219	128	27	64
1086.449461847	144	39	73
1086.593626536	128	39	64
1086.598189222	144	27	72
1086.874171101	144	23	22
1086.949776028	144	39	107
1087.040077978	128	23	64
1087.101601884	128	39	64
1087.449757519	144	39	49
1087.482931559	128	27	64
1087.610141197	128	39	64
1087.824237472	144	23	23
1087.948775357	144	39	107
1087.973532609	128	23	64
1088.056126374	128	39	64
1088.106737984	144	50	115
1088.219757225	144	23	24
1088.356585277	144	27	77
1088.374279311	128	23	64
1088.385025062	128	27	64
1088.414110145	128	62	64
1088.449804437	144	39	59
1088.503153715	144	62	23
1088.537141712	128	39	64
1088.579412451	128	62	64
1088.676571883	144	73	125
1088.68498472	144	62	26
1088.715079458	128	73	64
1088.773121573	128	62	64
1088.901959293	144	62	26
1089.657517817	144	27	86
1089.948155708	128	27	64
1090.134203439	144	73	29
1090.666375838	128	62	64
1090.765953734	144	62	37
1090.862728523	128	62	64
1090.970493878	144	62	38
1091.058674336	128	62	64
1091.217311092	144	62	40
1091.341849923	144	23	107
1091.342390487	128	73	64
1091.345245798	128	62	64
1091.415559163	128	23	64
1091.44633572	144	62	45
1092.209118575	144	27	91
1092.251432668	128	27	64
1092.272291133	144	73	62
1092.429493098	128	55	64
1093.419771412	144	55	118
1093.581068222	128	62	64
1093.67656574	144	62	49
1093.748678567	128	62	64
1093.759932567	144	23	105
1093.760234028	128	23	64
1093.808214434	144	23	105
1093.853157822	144	62	51
1093.956958814	128	23	64
1093.958105526	128	62	64
1094.073123621	144	62	53
1094.590085089	144	27	82
1094.638487368	128	27	64
1094.976064909	144	27	83
1095.037881461	128	27	64
1095.537410303	128	73	64
1095.993893857	128	62	64
1096.101967071	144	62	55
1096.197283101	128	62	64
1096.270965262	144	62	56
1096.361738082	128	62	64
1096.477901203	144	62	57
1097.229556984	144	37	86
1097.236216917	144	27	79
1097.277217522	128	27	64
1097.308279543	128	37	64
1097.854489875	144	37	78
1097.942462601	128	37	64
1098.482190569	144	37	76
1098.63526696	128	55	64
1098.64397532	128	62	64
1098.74804994	128	37	64
1098.755011734	144	62	55
1098.837918305	128	62	64
1098.919006471	144	62	55
1099.025762852	128	62	64
1099.139578309	144	62	55
1099.294186289	144	73	50
1099.463365521	144	27	83
1099.558551145	144	37	24
1099.570335182	128	27	64
1099.612076473	144	27	83
1099.717193824	128	27	64
1099.766798478	144	27	81
1099.874744147	128	27	64
1099.999411771	128	50	64
1100.017415681	128	37	64
1100.37820332	144	37	119
1100.983715234	128	62	64
1101.056391343	144	62	76
1101.062384392	128	37	64
1101.173556706	128	62	64
1101.247822131	144	62	80
1101.351166857	128	62	64
1101.378954325	144	37	19
1101.453463737	144	62	78
1101.680209001	128	73	64
1101.892934415	128	37	64
1102.107909528	144	37	74
1102.200395092	128	37	64
1102.333129691	144	37	78
1102.384852054	144	27	78
1102.405164834	128	37	64
1102.407163775	128	27	64
1102.492381542	144	27	79
1102.532111959	128	27	64
1102.534153334	144	37	80
1102.606570284	128	37	64
1102.622683259	144	27	77
1102.665631633	128	27	64
1102.67574781	144	55	50
1102.725045339	144	37	85
1102.731809809	128	55	64
1102.799410614	128	37	64
1102.905337853	144	37	89
1102.959747445	128	37	64
1103.556903605	128	62	64
1103.718875712	144	62	61
1103.757371139	128	62	64
1103.885087671	144	62	62
1103.965005649	128	62	64
1104.063784354	144	62	59
1104.06981368	144	39	27
1104.146781742	128	62	64
1104.226513129	128	39	64
1104.259687597	144	62	55
1104.3259468	144	39	15
1104.418716476	128	39	64
1104.423273994	144	27	73
1104.485798961	128	27	64
1104.562896192	144	39	18
1104.61744113	128	39	64
1104.708467148	144	39	17
1104.860232744	128	39	64
1104.927859717	144	39	18
1104.934454976	144	27	73
1104.994868525	128	27	64
1105.018739435	128	39	64
1105.167532104	144	39	17
1105.252605912	128	39	64
1105.342196787	144	39	18
1105.487579085	128	39	64
1105.541991821	144	39	17
1105.694825716	128	39	64
1105.715830312	144	37	113
1105.757931909	144	39	17
1105.909766194	128	39	64
1105.976077637	144	39	16
1106.049853112	128	37	64
1106.119665931	128	39	64
1106.176578796	128	62	64
1106.191088747	144	39	19
1106.2638963	144	62	54
1106.357733964	128	62	64
1106.431712765	144	62	54
1106.519256148	128	62	64
1106.536210465	144	37	115
1106.598457461	144	62	54
1106.688592824	128	62	64
1106.776347311	144	62	56
1106.976479467	128	39	64
1106.991803441	128	37	64
1107.19993192	144	39	18
1107.286145323	128	39	64
1107.431172536	144	39	17
1107.439761536	144	37	72
1107.487372494	128	39	64
1107.606186452	144	27	64
1107.632465775	144	39	20
1107.650177777	128	27	64
1107.684931383	128	39	64
1107.755240102	128	37	64
1107.766925022	144	27	62
1107.79336198	144	39	20
1107.817329873	128	27	64
1107.884524472	128	39	64
1107.910948608	144	27	63
1107.95058445	128	27	64
1107.964196017	144	39	18
1107.966710415	144	37	51
1108.039225219	144	27	62
1108.078737586	128	27	64
1108.110013145	128	39	64
1108.162134503	144	39	19
1108.181034784	144	27	63
1108.206868216	128	27	64
1108.262434861	128	37	64
1108.269742537	128	39	64
1108.282775531	144	27	62
1108.333343122	128	27	64
1108.359233411	144	39	18
1108.424638282	144	27	61
1108.427180659	144	37	26
1108.445310521	128	62	64
1108.481514554	128	27	64
1108.50980826	128	39	64
1108.554915559	144	27	62
1108.574543326	144	39	19
1108.581787633	144	62	54
1108.613389192	128	27	64
1108.639815387	128	37	64
1108.659610182	128	62	64
1108.683196813	144	27	62
1108.717881777	128	39	64
1108.734456668	144	62	53
1108.734575458	128	27	64
1108.778134372	144	39	16
1108.794255489	144	37	17
1108.821182619	128	62	64
1108.824566075	144	27	62
1108.878633213	128	27	64
1108.913543718	144	62	52
1108.922717301	128	39	64
1108.954118669	144	27	62
1108.986881865	128	37	64
1108.9891101	128	62	64
1108.99113043	144	39	16
1108.992705344	128	27	64
1109.08289756	144	27	62
1109.106263224	144	62	51
1109.114440126	144	37	24
1109.125634745	128	27	64
1109.136970664	128	39	64
1109.191116432	144	39	14
1109.213791719	144	27	62
1109.242942912	128	37	64
1109.263033004	128	27	64
1109.340850474	144	27	62
1109.34300673	128	39	64
1109.380105453	128	27	64
1109.407843603	144	39	15
1109.4279056	144	37	40
1109.559695532	128	39	64
1109.60017211	128	37	64
1109.624918687	144	39	16
1109.741751423	144	37	49
1109.770064103	128	39	64
1109.827818747	128	37	64
1109.841075981	144	39	16
1109.969007805	128	39	64
1109.991217207	144	37	66
1110.044680819	144	39	16
1110.088159324	128	37	64
1110.147481464	144	55	50
1110.156711392	144	27	9
1110.200965138	128	39	64
1110.205592587	128	55	64
1110.205703629	144	55	60
1110.214752096	144	37	76
1110.223041801	128	55	64
1110.268719255	144	39	15
1110.279911954	128	27	64
1110.299032309	128	37	64
1110.413559596	128	39	64
1110.440409372	144	37	85
1110.474711198	144	27	12
1110.510980997	144	39	16
1110.542242044	128	62	64
1110.542553435	128	27	64
1110.546667834	128	37	64
1110.602129155	128	39	64
1110.641369642	144	37	92
1110.645833028	144	27	16
1110.655975461	144	62	29
1110.691209973	144	39	17
1110.6946997	128	27	64
1110.725163844	128	37	64
1110.742578787	128	62	64
1110.745439884	144	27	14
1110.806069207	128	27	64
1110.80970472	144	62	29
1110.84212903	144	37	89
1110.843274829	128	39	64
1110.905546315	128	62	64
1110.907502508	144	39	15
1110.915519164	128	37	64
1111.010351015	144	62	27
1111.021030697	144	37	94
1111.061275906	128	39	64
1111.090099804	128	37	64
1111.12281365	144	39	16
1111.173827311	144	37	89
1111.176846401	128	62	64
1111.184174342	144	27	17
1111.185699527	128	27	64
1111.23578186	128	39	64
1111.246655606	128	37	64
1111.320628242	144	62	30
1111.340177144	144	37	91
1111.34928155	144	27	18
1111.396196163	128	27	64
1111.436393556	128	37	64
1111.499972707	144	39	98
1111.530988897	144	37	88
1111.561524794	144	27	18
1111.599592917	128	37	64
1111.602006011	128	39	64
1111.614166561	128	27	64
1111.872304008	144	27	18
1111.943451639	128	27	64
1112.016507388	144	39	104
1112.118632731	128	39	64
1112.284330659	144	27	18
1112.327818883	128	27	64
1112.473781577	144	39	114
1112.518373418	128	39	64
1112.530089479	128	62	64
1112.657935457	144	27	18
1112.669850759	144	62	30
1112.720075832	128	27	64
1112.760632048	144	73	54
1112.785611367	128	62	64
1112.822974793	128	73	64
1112.929399324	144	62	32
1112.992992214	128	37	64
1113.092786097	128	62	64
1113.222622855	144	62	30
1113.387668352	128	62	64
1113.530684031	144	62	33
1113.578770688	144	27	54
1113.604174838	128	27	64
1113.742132879	144	27	49
1113.761368683	128	62	64
1113.813397012	128	27	64
1113.911224697	144	27	49
1113.915879785	144	62	33
1113.967559125	128	27	64
1114.31769086	144	73	118
1114.405252661	128	73	64
1114.727973612	144	23	109
1114.95458292	144	27	57
1114.983320727	128	27	64
1115.042987789	128	23	64
1115.283888727	144	39	91
1115.310734422	144	27	57
1115.414994204	128	27	64
1115.68778799	144	27	59
1115.766657285	128	27	64
1115.978015907	144	23	120
1116.068842923	128	23	64
1116.160149526	144	23	120
1116.343420114	128	23	64
1116.392890461	144	23	120
1116.481370793	128	62	64
1116.576396743	128	23	64
1116.630343926	144	62	76
1116.68242995	128	62	64
1116.772405471	144	62	75
1116.854346604	128	62	64
1116.857858786	144	27	59
1116.893170125	128	27	64
1116.912483401	144	62	79
1116.993173275	128	39	64
1117.00780738	128	62	64
1117.070983895	144	27	59
1117.105236327	144	62	81
1117.124562294	128	27	64
1117.181991084	128	62	64
1117.213108133	144	27	55
1117.259280577	144	62	86
1117.285211431	128	27	64
1117.313321711	128	62	64
1117.345129978	144	27	55
1117.400603303	144	39	125
1117.403337578	144	62	92
1117.408290311	128	27	64
1117.442685164	144	27	59
1117.455977218	128	62	64
1117.517245896	128	27	64
1117.532920854	144	62	91
1117.891817608	144	50	67
1118.334014925	144	23	117
1118.789883393	144	27	85
1118.903964852	128	27	64
1118.904067361	144	27	55
1119.087867825	128	27	64
1119.087963873	144	27	86
1119.201791826	128	27	64
1119.201910927	144	27	57
1119.397033056	128	27	64
1120.827939865	128	23	64
1121.236556575	144	27	104
1121.312648548	128	27	64
1121.312737481	144	27	66
1121.376348865	144	73	1
1121.41453495	128	27	64
1121.414632183	144	27	99
1121.497410364	128	27	64
1121.497496422	144	27	65
1121.552367141	128	27	64
1121.805521468	128	73	64
1121.877775429	128	39	64
1121.883757317	128	50	64
1121.922876418	144	73	1
1121.934872882	128	62	64
1122.069270496	144	62	74
1122.295511048	144	23	19
1122.308633955	144	50	68
1122.33649561	128	23	64
1122.450868049	144	39	116
1122.621024397	144	23	24
1122.719773324	128	23	64
1122.883807526	144	23	25
1123.043935467	128	23	64
1123.190901738	144	23	27
1123.286216669	128	23	64
1123.431186441	144	23	31
1123.538825512	128	23	64
1123.684787274	144	23	33
1123.828763815	128	23	64
1123.925984287	144	23	38
1124.056693768	144	27	79
1124.072246929	128	23	64
1124.08769957	128	27	64
1124.094462231	128	62	64
1124.159368488	144	23	39
1124.167885194	144	62	75
1124.253672105	128	23	64
1124.362056954	144	23	43
1124.365862036	144	27	77
1124.472880833	128	73	64
1124.511738626	128	23	64
1124.593219971	144	23	43
1124.647667486	128	27	64
1124.737409649	128	23	64
1124.80903976	144	23	43
1124.917619752	128	23	64
1125.061864956	144	23	44
1125.135431931	128	23	64
1125.226504037	144	23	47
1125.377165996	128	23	64
1125.476381822	144	23	49
1125.619729351	128	23	64
1125.635111724	144	93	85
1125.692878798	144	23	54
1125.859790305	128	23	64
1126.187133064	128	93	64
1126.337520843	144	93	74
1126.588102574	128	62	64
1126.649643434	144	62	75
1126.703434236	128	93	64
1126.75534504	128	62	64
1126.86220655	144	62	75
1126.894074324	144	93	72
1126.964418036	128	62	64
1127.022170924	144	62	75
1127.230369327	128	93	64
1127.35470016	128	62	64
1127.459969335	144	62	74
1127.49173151	144	93	74
1127.515877419	144	27	61
1127.593184694	128	39	64
1127.594944846	128	27	64
1127.875278969	128	93	64
1127.933178934	144	39	5
1128.132839822	128	50	64
1128.138380237	144	93	69
1128.476852341	128	39	64
1128.545263982	128	93	64
1128.627184679	144	73	127
1128.642555591	144	50	39
1128.65040207	144	39	19
1128.663510366	128	50	64
1128.707897557	128	73	64
1128.840678641	144	93	54
1129.109939713	128	39	64
1129.470305824	128	62	64
1129.529773195	144	62	45
1129.547179972	144	50	51
1129.560317822	128	50	64
1129.608506969	128	93	64
1129.633117055	128	62	64
1129.710714518	144	62	43
1129.812171545	128	62	64
1129.833573882	144	39	14
1129.87213912	144	93	38
1129.901823876	144	62	43
1130.53377216	128	93	64
1130.560212545	128	39	64
1130.652124252	144	55	123
1130.803570743	144	93	64
1130.891073987	144	50	52
1130.926674579	128	50	64
1131.129035653	128	55	64
1131.48408805	128	93	64
1131.618634202	128	62	64
1131.630376098	144	73	17
1131.630652572	128	73	64
1131.651513269	144	62	41
1131.794136859	128	62	64
1131.811948019	144	93	90
1131.847710044	144	62	30
1131.884942858	144	73	35
1131.942458312	144	50	49
1131.961585566	128	62	64
1131.973680809	128	50	64
1132.011637541	144	62	26
1132.056942224	128	73	64
1132.322496808	144	73	47
1132.393814635	144	27	90
1132.414805343	128	93	64
1132.415226841	128	73	64
1132.622776786	128	27	64
1132.622874171	144	27	66
1132.744508685	144	93	87
1132.805862706	128	27	64
1132.976654674	144	50	48
1132.99975679	144	39	105
1133.007100238	128	50	64
1133.128292294	144	73	28
1133.246116724	128	73	64
1133.260482695	128	39	64
1133.327644262	128	93	64
1133.603528943	144	93	102
1133.649278341	128	62	64
1133.736631592	144	62	21
1133.762943655	144	73	55
1133.828141985	128	73	64
1133.83529109	128	62	64
1133.875355862	144	62	19
1133.975535445	144	50	53
1133.979612872	128	62	64
1134.03298288	128	50	64
1134.068539751	144	62	18
1134.306972281	144	73	57
1134.339468408	128	93	64
1134.408620585	128	73	64
1134.640964993	144	93	123
1134.871546338	144	73	30
1134.94231811	144	50	59
1134.991859381	128	73	64
1135.023462616	128	50	64
1135.176868889	144	27	68
1135.412023517	128	27	64
1135.579864521	144	73	22
1135.682649824	128	73	64
1135.685892594	128	62	64
1135.750240846	144	39	114
1135.76927125	144	62	7
1135.859404796	144	50	54
1135.884443139	128	62	64
1135.89348914	128	39	64
1135.911771659	128	50	64
1135.974009369	144	62	8
1136.074597888	128	62	64
1136.183104452	144	62	8
1136.239155896	128	93	64
1136.240957996	144	73	35
1136.33370693	128	73	64
1136.521279092	144	73	38
1136.536838394	128	62	64
1136.615783932	144	62	10
1136.620504318	128	73	64
1136.676420707	144	73	38
1136.775279994	144	50	58
1136.790477032	128	73	64
1136.84203225	128	50	64
1136.844675316	144	73	37
1136.911488495	128	73	64
1136.979472768	144	73	39
1137.011285819	144	47	125
1137.030161027	128	47	64
1137.088045849	128	73	64
1137.104235624	144	47	127
1137.161559055	128	47	64
1137.177054483	144	73	38
1137.207834723	144	93	99
1137.246720723	144	47	120
1137.263371977	128	47	64
1137.285234479	128	73	64
1137.341384426	144	73	38
1137.464405184	128	73	64
1137.499932303	144	27	97
1137.521241029	144	73	39
1137.599546304	128	27	64
1137.59963606	144	27	58
1137.629872132	128	73	64
1137.706032292	144	73	37
1137.759704131	144	50	52
1137.790555389	128	50	64
1137.800951541	128	73	64
1137.827991848	128	27	64
1137.858464611	144	73	35
1137.990998152	128	73	64
1138.062795721	144	73	33
1138.07213788	144	47	104
1138.088222825	128	62	64
1138.091682713	128	73	64
1138.115934183	128	47	64
1138.201394768	144	62	9
1138.208308323	144	47	109
1138.250627269	144	39	106
1138.256682757	128	47	64
1138.316775167	144	23	94
1138.3220244	144	47	117
1138.361390702	128	47	64
1138.393554448	144	73	25
1138.393736524	128	93	64
1138.410968293	128	39	64
1138.469347731	128	62	64
1138.512763738	128	73	64
1138.512849681	144	73	29
1138.520195035	128	73	64
1138.558443736	144	62	9
1138.583759178	144	73	30
1138.658098055	144	50	57
1138.665032729	128	62	64
1138.692469938	128	73	64
1138.731539654	128	50	64
1138.737856639	144	62	10
1138.760002434	144	93	76
1138.82717112	128	62	64
1138.843438474	144	73	26
1138.881068015	128	73	64
1138.930207874	144	62	9
1138.95132314	144	73	27
1139.005794752	128	62	64
1139.033383561	128	73	64
1139.046604254	128	23	64
1139.08889613	144	62	11
1139.137035082	144	73	31
1139.170704627	128	73	64
1139.170790176	144	73	27
1139.185465159	128	62	64
1139.238790619	128	73	64
1139.273146785	144	73	30
1139.302187442	144	62	10
1139.355119354	128	73	64
1139.392204793	144	73	31
1139.403332492	128	62	64
1139.460513583	128	73	64
1139.506167143	144	47	88
1139.507156721	144	62	15
1139.509935329	128	47	64
1139.563519042	144	73	32
1139.599555979	144	47	97
1139.603310155	128	62	64
1139.625967139	144	50	58
1139.644993062	128	47	64
1139.648496613	128	73	64
1139.648602517	144	73	29
1139.650744259	144	62	18
1139.702021988	128	50	64
1139.717086258	144	47	106
1139.732933829	128	93	64
1139.758921202	128	62	64
1139.759538274	128	47	64
1139.783688138	128	73	64
1139.78378256	144	73	30
1139.819309985	144	62	22
1139.823915015	144	47	109
1139.859084499	128	47	64
1139.868724053	128	73	64
1139.868826524	144	73	29
1139.920710664	128	62	64
1139.950324809	144	47	104
1139.960976243	128	73	64
1139.982485351	144	27	29
1139.98731028	144	73	33
1139.988421593	128	47	64
1139.991650914	128	27	64
1139.995419186	144	62	26
1140.06737079	128	73	64
1140.06745701	144	73	27
1140.081307138	144	27	29
1140.086401117	128	62	64
1140.100122068	144	39	109
1140.100371345	128	39	64
1140.127517774	128	73	64
1140.144421323	128	27	64
1140.162792883	144	73	35
1140.163619042	144	62	28
1140.202679621	144	27	29
1140.209258147	144	39	109
1140.237079087	128	39	64
1140.241148019	128	62	64
1140.277377618	128	73	64
1140.277463424	144	73	25
1140.277616378	128	27	64
1140.286522624	128	73	64
1140.31872153	144	62	30
1140.367355106	144	73	25
1140.384160851	144	39	112
1140.403883704	128	39	64
1140.407626637	128	62	64
1140.441864981	128	73	64
1140.441958413	144	73	31
1140.448409761	128	73	64
1140.474804935	144	62	33
1140.480210463	144	39	120
1140.52557027	144	50	57
1140.526649206	144	73	33
1140.535539731	128	39	64
1140.565971213	144	23	82
1140.575534788	128	62	64
1140.578486096	128	50	64
1140.61521433	144	39	120
1140.623396948	128	73	64
1140.654764977	144	62	35
1140.670820093	128	39	64
1140.680618449	144	73	28
1140.734534836	128	62	64
1140.748902912	144	39	119
1140.764088795	128	73	64
1140.8047599	128	39	64
1140.812610974	144	62	36
1140.902159818	144	73	29
1140.902383161	128	73	64
1140.902424847	144	73	30
1140.90445382	128	62	64
1140.921260057	128	93	64
1140.930577662	128	73	64
1140.985832551	144	62	36
1141.006382174	144	73	32
1141.074535222	128	73	64
1141.076263271	128	62	64
1141.094640043	144	39	56
1141.137372074	128	39	64
1141.140515867	144	73	28
1141.16710827	144	62	41
1141.226744123	128	73	64
1141.258291314	144	73	32
1141.258409884	128	62	64
1141.337037599	144	62	43
1141.366206985	128	73	64
1141.438770321	144	73	27
1141.50230737	128	73	64
1141.509260887	144	50	57
1141.516961116	144	39	118
1141.538416481	128	39	64
1141.543909604	144	47	69
1141.561325099	128	50	64
1141.605895464	128	47	64
1141.620609265	144	73	30
1141.742130588	144	47	68
1141.743164123	128	73	64
1141.802092895	128	47	64
1141.833908081	144	39	59
1141.85315893	144	73	28
1141.867035456	128	39	64
1141.961289898	128	73	64
1142.001368312	144	73	31
1142.050208928	144	39	64
1142.072269323	128	39	64
1142.12450878	128	73	64
1142.171060119	144	73	31
1142.176138354	144	39	79
1142.234109149	128	39	64
1142.258180327	128	73	64
1142.316316151	144	39	80
1142.37099261	144	73	29
1142.384229156	128	39	64
1142.42586494	144	50	68
1142.454695194	128	73	64
1142.466436762	144	27	58
1142.478508211	128	50	64
1142.480875374	144	39	78
1142.493615542	144	73	31
1142.520425519	128	27	64
1142.534044811	128	39	64
1142.611584318	144	27	54
1142.630561677	144	39	84
1142.632781276	128	73	64
1142.652244335	128	62	64
1142.675882651	144	73	29
1142.679610668	128	27	64
1142.683802118	128	39	64
1142.761283336	144	62	42
1142.773879349	128	73	64
1142.830590002	128	62	64
1142.867152997	144	39	87
1142.870746264	144	73	31
1142.900581925	128	39	64
1142.917285614	144	62	41
1142.96591055	128	23	64
1142.995200473	128	62	64
1143.011071186	128	73	64
1143.042565952	144	39	77
1143.067162632	128	39	64
1143.073778033	144	62	41
1143.161380068	128	62	64
1143.210827761	144	39	67
1143.2375193	128	39	64
1143.238700621	144	62	40
1143.326954947	144	50	80
1143.381414143	144	39	68
1143.391949138	128	50	64
1143.401359431	128	39	64
1144.035895515	144	47	61
1144.076526182	128	47	64
1144.184249868	144	47	59
1144.237086992	128	47	64
1144.266686401	144	39	67
1144.293159507	144	50	86
1144.32094819	128	39	64
1144.323998091	128	50	64
1144.344944681	144	39	69
1144.492428831	128	39	64
1144.492692123	144	39	73
1144.493500348	128	39	64
1144.493572015	144	39	63
1144.554438756	128	39	64
1144.55487821	144	27	66
1144.58682605	144	55	116
1144.609145483	144	39	76
1144.633157575	128	27	64
1144.693615545	128	39	64
1144.693690594	144	39	63
1144.788943895	128	39	64
1144.833615866	144	39	79
1144.876929702	144	27	66
1144.885308092	128	62	64
1144.918079096	128	39	64
1144.918174149	144	39	63
1144.939173866	128	27	64
1145.005065199	128	39	64
1145.011415702	144	62	33
1145.079733034	128	62	64
1145.092604754	144	39	77
1145.158267402	128	39	64
1145.158349546	144	39	61
1145.17041242	144	62	32
1145.221424622	128	39	64
1145.252207944	128	62	64
1145.279511928	144	39	62
1145.321358135	144	62	32
1145.37227143	128	39	64
1145.372391765	144	39	61
1145.385662771	128	62	64
1145.435049491	128	39	64
1145.504790697	144	62	26
1145.509323403	144	50	84
1145.513735304	144	39	59
1145.534751575	128	50	64
1145.551661527	128	62	64
1145.611325168	128	39	64
1145.611428446	144	39	57
1145.666115046	144	62	39
1145.70455434	128	39	64
1145.778018127	144	39	31
1145.858487082	144	50	83
1145.865825863	128	39	64
1145.865926025	144	39	41
1145.912615421	128	50	64
1145.952429477	128	39	64
1146.041604795	144	39	36
1146.18678891	128	39	64
1146.186885183	144	39	36
1146.230094067	144	68	94
1146.236175728	128	68	64
1146.242024294	128	62	64
1146.25241236	128	39	64
1146.286650478	144	68	90
1146.302058863	144	39	31
1146.351166857	128	68	64
1146.374531432	144	62	69
1146.44448595	128	39	64
1146.444579731	144	39	32
1146.502047401	128	39	64
1146.549983695	144	39	32
1146.693032133	128	39	64
1146.69313057	144	39	33
1146.752300353	128	39	64
1146.799122147	144	39	31
1146.826038704	144	50	87
1146.872859339	128	55	64
1146.900842119	128	39	64
1146.900933545	144	39	33
1146.909053854	128	50	64
1146.968816156	128	39	64
1147.031992611	144	39	32
1147.115240445	144	55	87
1147.132003424	128	39	64
1147.132114588	144	39	35
1147.220360362	128	39	64
1147.275245968	144	50	87
1147.278925591	144	39	36
1147.310801094	144	27	46
1147.329447579	128	50	64
1147.347239578	128	27	64
1147.365967528	128	39	64
1147.366043244	144	39	38
1147.510037566	128	39	64
1147.528355688	144	39	41
1147.625345325	128	39	64
1147.625440841	144	39	45
1147.631716133	144	27	43
1147.694554156	128	27	64
1147.719272644	128	39	64
1147.779837325	144	39	51
1147.872100715	128	39	64
1147.872198733	144	39	52
1147.913561872	128	62	64
1147.970873746	128	39	64
1148.011641893	144	39	54
1148.03521816	144	62	68
1148.100544756	128	62	64
1148.111737661	128	39	64
1148.111838548	144	39	55
1148.189805641	144	62	71
1148.198602496	144	27	42
1148.245648342	128	55	64
1148.25246819	128	62	64
1148.255699391	128	39	64
1148.269038447	144	39	55
1148.35616519	144	62	68
1148.35913355	128	39	64
1148.359213572	144	39	55
1148.4524522	128	39	64
1148.479763606	128	27	64
1148.484121542	144	55	80
1148.500301409	144	39	57
1148.593832083	128	39	64
1148.593928032	144	39	55
1148.737929109	128	39	64
1148.738138241	144	39	57
1148.844878552	128	39	64
1148.844970541	144	39	56
1148.935773545	128	39	64
1148.957065394	144	39	61
1149.100426272	128	39	64
1149.100526914	144	39	56
1149.168286945	128	39	64
1149.193433217	144	39	61
1149.294133609	128	39	64
1149.294230651	144	39	58
1149.396424134	144	27	71
1149.437082629	128	39	64
1149.437320171	144	39	62
1149.527775013	128	39	64
1149.52787429	144	39	59
1149.67105511	128	39	64
1149.671301931	144	39	60
1149.699623525	128	62	64
1149.76371065	128	39	64
1149.76380633	144	39	59
1149.907241923	128	39	64
1149.919348977	144	39	66
1149.957644339	128	55	64
1150.011524986	128	39	64
1150.011624184	144	39	59
1150.105093645	128	39	64
1150.128227489	144	39	66
1150.141381241	128	27	64
1150.229242336	144	55	71
1150.24231605	128	39	64
1150.242406474	144	39	61
1150.386045279	128	39	64
1150.386569633	144	39	66
1150.400450445	144	62	65
1150.528217612	128	62	64
1150.535555146	128	39	64
1150.535856819	144	39	63
1150.599134581	128	39	64
1150.616005759	144	39	68
1150.701121219	144	62	66
1150.757714921	128	39	64
1150.757809644	144	39	64
1150.806686341	128	62	64
1150.819073942	128	39	64
1150.866910676	144	39	69
1151.010792554	128	39	64
1151.011022106	144	39	68
1151.018351788	144	62	67
1151.068884248	128	39	64
1151.093005059	144	39	71
1151.237154552	128	39	64
1151.237379642	144	39	69
1151.301669325	128	39	64
1151.348740959	144	39	74
1151.348921278	144	27	70
1151.451079006	128	39	64
1151.451183783	144	39	71
1151.535781237	128	39	64
1151.559480177	144	39	75
1151.703419237	128	39	64
1151.703512243	144	39	71
1151.754803015	128	39	64
1151.810945895	144	39	71
1151.898902892	128	55	64
1151.953866039	128	39	64
1151.953960598	144	39	71
1151.988288405	128	39	64
1152.030471384	144	39	68
1152.127739833	128	39	64
1152.127840222	144	39	71
1152.205165364	128	39	64
1152.383219982	144	39	70
1152.390095263	144	55	83
1152.458665881	128	27	64
1152.470993067	128	39	64
1152.613895841	144	39	68
1152.654779779	128	39	64
1152.799961195	144	39	68
1152.868758121	128	39	64
1153.017878892	144	39	69
1153.080198422	128	62	64
1153.086121207	128	39	64
1153.204739585	144	62	65
1153.229951795	144	39	70
1153.302367026	128	39	64
1153.37536738	128	62	64
1153.449843507	144	39	72
1153.518692077	128	39	64
1153.553632737	144	62	64
1153.66676358	144	39	72
1153.720919169	128	39	64
1153.808800694	128	62	64
1153.867370534	144	39	72
1153.92172771	128	39	64
1153.963210399	144	62	63
1154.050848455	144	27	45
1154.066572685	144	39	71
1154.121785538	128	39	64
1154.283533458	144	39	71
1154.295281745	128	55	64
1154.316685122	144	77	106
1154.341091962	128	39	64
1154.34413058	128	77	64
1154.483833319	144	39	72
1154.552728908	128	39	64
1154.696320584	144	39	71
1154.733169152	144	77	102
1154.752094766	128	39	64
1154.762684519	144	55	116
1154.776988328	128	77	64
1154.788089606	128	27	64
1154.833370824	144	23	1
1154.949072658	144	63	63
1155.083867252	144	39	64
1155.129790057	128	39	64
1155.129887477	144	39	56
1155.211019187	144	77	112
1155.254562063	128	39	64
1155.266553045	128	23	64
1155.276222835	128	77	64
1155.342534544	144	39	51
1155.37562791	144	77	112
1155.413371764	128	39	64
1155.413488909	144	39	56
1155.417403323	128	77	64
1155.460552211	128	63	64
1155.52832957	144	77	111
1155.558106609	128	39	64
1155.558460085	144	39	53
1155.581895677	128	77	64
1155.61209067	144	63	62
1155.626359772	128	39	64
1155.626476155	144	39	57
1155.723454482	128	39	64
1155.723547829	144	39	53
1155.752739486	128	63	64
1155.871264453	128	39	64
1155.871355612	144	39	60
1155.945377652	128	39	64
1155.945473549	144	39	53
1155.956801368	128	55	64
1155.97501807	144	63	67
1156.098929373	128	39	64
1156.09919182	144	39	62
1156.168399494	128	39	64
1156.168499326	144	39	58
1156.193304145	144	27	46
1156.257987371	128	63	64
1156.311726333	128	39	64
1156.315104776	144	39	63
1156.415306281	144	63	64
1156.416399927	128	39	64
1156.416476095	144	39	61
1156.458394057	128	62	64
1156.526853128	128	39	64
1156.530733033	144	39	63
1156.623311485	128	39	64
1156.626261223	144	39	61
1156.631490997	144	62	64
1156.640020377	144	73	88
1156.654291249	144	55	117
1156.657198668	128	73	64
1156.740656605	128	63	64
1156.775707329	128	39	64
1156.775923975	144	39	63
1156.840132086	128	39	64
1156.840226988	144	39	57
1156.926820608	128	62	64
1156.983243132	128	55	64
1156.985168278	128	39	64
1156.985244569	144	39	62
1157.057218907	128	39	64
1157.05731366	144	39	58
1157.100785155	144	62	62
1157.182697157	144	55	108
1157.203434273	128	39	64
1157.203547799	144	39	63
1157.223005289	128	23	64
1157.278017056	128	39	64
1157.278133566	144	39	59
1157.333681483	128	62	64
1157.367056564	128	55	64
1157.377569597	144	73	107
1157.421104964	128	39	64
1157.421242587	144	39	64
1157.426990324	128	73	64
1157.493426638	128	39	64
1157.493503045	144	39	57
1157.528908433	128	27	64
1157.553380176	144	55	125
1157.553479103	128	55	64
1157.637860286	128	39	64
1157.638036319	144	39	64
1157.646939251	144	55	123
1157.659401978	128	55	64
1157.660641128	144	62	66
1157.728886513	128	39	64
1157.733917914	144	39	55
1157.831906045	144	55	116
1157.847087197	128	55	64
1157.876690436	128	39	64
1157.877262696	144	39	63
1157.940770592	128	39	64
1157.943968916	144	39	54
1158.015448118	144	55	92
1158.039959149	128	55	64
1158.102472251	128	39	64
1158.102701429	144	39	61
1158.173750029	128	39	64
1158.176155885	144	39	58
1158.199995238	144	55	101
1158.214487611	128	55	64
1158.294439965	128	39	64
1158.294536957	144	39	63
1158.342043621	144	55	104
1158.385122461	128	39	64
1158.391527965	128	55	64
1158.436735811	144	39	58
1158.514960508	144	55	118
1158.515243734	128	39	64
1158.51532506	144	39	62
1158.567163161	128	55	64
1158.669404918	128	39	64
1158.669671204	144	39	60
1158.69038668	144	55	91
1158.733972765	128	55	64
1158.813753087	128	39	64
1158.813846478	144	39	66
1158.869513722	144	55	127
1158.878472168	128	39	64
1158.87856871	144	39	58
1158.914824005	128	55	64
1159.031582668	128	39	64
1159.031686936	144	39	64
1159.046221098	144	55	110
1159.091418251	128	55	64
1159.11187138	128	39	64
1159.115509332	144	39	56
1159.206297713	144	55	88
1159.223431982	128	39	64
1159.223527518	144	39	63
1159.260690113	128	55	64
1159.32296175	128	39	64
1159.323051186	144	39	54
1159.381959523	144	55	106
1159.427022443	128	55	64
1159.484211551	128	39	64
1159.484484008	144	39	63
1159.553901391	128	39	64
1159.554131652	144	39	54
1159.55853225	144	55	109
1159.60612914	128	55	64
1159.710790815	128	39	64
1159.710971475	144	39	63
1159.733254643	144	55	117
1159.773439457	128	39	64
1159.773690554	128	62	64
1159.775619221	144	39	50
1159.779867918	128	55	64
1159.910200172	144	55	111
1159.917136249	128	39	64
1159.917212591	144	39	63
1159.958176003	128	55	64
1159.989570521	128	39	64
1159.99224652	144	39	51
1160.012402663	144	62	64
1160.086135122	144	55	114
1160.132855293	128	55	64
1160.136330036	128	39	64
1160.136425043	144	39	62
1160.188119392	128	39	64
1160.188231688	144	39	52
1160.18940141	128	62	64
1160.262376366	144	55	105
1160.308070487	128	55	64
1160.331967846	128	39	64
1160.33206744	144	39	61
1160.385740214	128	39	64
1160.425300114	144	62	63
1160.43935198	144	55	109
1160.493498098	128	55	64
1160.632082551	144	55	102
1160.674767159	128	55	64
1160.706514224	128	62	64
1160.804424862	144	55	111
1160.857555998	128	55	64
1160.962893446	144	62	64
1162.125627672	144	39	127
1162.218779137	128	39	64
1163.275639123	144	55	113
1163.335116616	128	55	64
1163.457941445	128	50	64
1164.579461668	128	62	64
1169.769897019	128	73	64
1182.948288905	144	55	6
1183.018690179	128	55	64
1190.40370721	144	55	30
1190.494011155	128	55	64
1213.616653586	144	77	58
1214.422789244	144	62	43
1214.49151266	128	77	64
1215.338419751	144	88	62
1215.38093618	128	88	64
1215.414280946	144	68	11
1215.494170263	144	107	43
1217.76837089	144	88	87
1217.886049432	128	88	64
1217.971568728	144	63	84
1218.461720061	128	68	64
1218.628072654	144	27	15
1218.874402592	128	62	64
1218.959700607	144	62	19
1219.324102266	128	62	64
1219.473807245	144	62	28
1220.517155042	144	68	49
1220.612389948	144	77	90
1220.835969845	128	77	64
1220.912798576	128	68	64
1221.471885375	144	88	76
1221.517034129	128	88	64
1221.62549732	128	27	64
1221.635417524	128	107	64
1222.799079206	144	68	7
1223.182473546	128	63	64
1224.463200826	128	62	64
1224.585761527	144	62	27
1224.598779567	144	55	68
1225.528535655	128	68	64
1226.511279548	144	88	90
1226.555356946	128	88	64
1226.69311182	128	62	64
1226.921977429	144	62	41
1226.961478323	144	107	122
1226.996592912	128	107	64
1227.016135256	128	62	64
1227.105017843	144	62	40
1227.137193016	128	55	64
1227.156633365	128	62	64
1227.268146105	144	62	42
1228.165215345	144	47	66
1228.2926382	128	47	64
1228.302112048	144	39	75
1228.322718344	128	39	64
1228.41585555	144	68	22
1228.523569054	144	63	26
1228.548930237	144	27	81
1229.20219901	144	107	32
1229.595099525	128	68	64
1229.782512668	144	68	56
1229.978756199	128	68	64
1230.16831082	128	62	64
1230.246716091	128	27	64
1230.248114864	144	68	65
1230.277472894	144	62	41
1230.369437445	128	62	64
1230.471622625	144	62	43
1230.571437717	128	62	64
1230.654297611	144	62	43
1230.953060646	128	107	64
1231.429197295	144	107	37
1231.69370555	128	63	64
1232.52119882	128	107	64
1232.608963645	144	88	66
1232.711164898	128	88	64
1232.84491028	128	68	64
1232.862631356	144	107	37
1233.072989421	144	77	74
1233.123803529	144	88	66
1233.243505557	128	88	64
1233.584000809	144	88	75
1233.71151443	128	88	64
1233.835322774	128	107	64
1234.008908488	144	88	77
1234.082777341	128	88	64
1234.445508558	144	107	43
1234.487740281	128	62	64
1234.597722255	144	62	45
1234.707619895	128	62	64
1234.831716919	144	62	47
1234.924898163	128	77	64
1234.948938992	128	62	64
1235.060472132	144	62	48
1235.175463981	128	62	64
1235.385775629	144	62	51
1236.033153415	144	68	36
1236.119097906	144	39	33
1236.210816146	144	55	114
1236.241248645	144	77	87
1236.280032413	144	47	63
1236.369784891	144	21	27
1236.425383613	128	47	64
1236.664415486	144	27	103
1236.763515466	128	21	64
1236.804216937	144	63	71
1236.976459216	128	63	64
1237.167650141	144	63	69
1237.25058478	128	63	64
1237.318510309	144	97	45
1237.437143271	144	63	69
1237.585399399	128	63	64
1237.755483315	144	63	68
1237.944274188	128	97	64
1238.145507307	128	68	64
1238.381834924	144	97	71
1238.55135725	128	97	64
1238.636808653	128	27	64
1238.858726963	144	88	79
1238.94911333	128	88	64
1239.170075793	144	97	85
1239.202084415	144	88	80
1239.235733435	128	97	64
1239.313638365	128	88	64
1239.430832748	128	62	64
1239.541047998	144	88	80
1239.576284176	144	62	45
1239.624525637	128	88	64
1239.637150027	128	77	64
1239.657097947	128	62	64
1239.781155109	144	62	46
1239.898847459	128	62	64
1239.951252821	144	97	81
1239.978781215	144	88	81
1239.995651134	128	97	64
1239.999130727	144	62	48
1240.027125688	128	88	64
1240.105197451	128	62	64
1240.392142217	144	62	52
1240.993918919	128	63	64
1241.050356255	144	77	91
1241.28071618	144	63	70
1241.357662757	128	63	64
1241.509449589	144	63	70
1241.595132738	128	63	64
1241.723773722	144	63	69
1241.829179998	128	63	64
1242.013597899	144	21	70
1242.12814087	144	63	67
1243.004452963	128	77	64
1243.485452121	128	62	64
1243.596754329	144	62	54
1243.723298148	128	62	64
1243.831583699	128	21	64
1243.841151418	144	62	53
1243.950547779	128	62	64
1243.99594227	128	107	64
1244.038276903	128	39	64
1244.068802427	144	62	53
1244.187809116	128	62	64
1244.216639992	144	27	10
1244.258083582	128	27	64
1244.310478793	144	21	54
1244.323015741	144	97	76
1244.350730729	144	27	30
1244.390442171	128	27	64
1244.422654343	144	27	8
1244.434694908	128	97	64
1244.44501379	144	39	4
1244.454907064	144	62	55
1244.488734934	128	27	64
1244.527975733	144	27	31
1244.613715291	128	27	64
1244.626076117	144	27	8
1244.658534611	144	77	73
1244.691890301	128	27	64
1244.722863295	144	27	29
1244.785874956	128	27	64
1244.785971225	144	27	8
1244.859741982	128	27	64
1244.924811768	144	27	27
1245.005382749	128	27	64
1245.005469145	144	27	4
1245.037493365	144	97	58
1245.144246118	128	97	64
1245.144404724	128	27	64
1245.144496239	144	27	30
1245.248138114	128	27	64
1245.248230286	144	27	7
1245.355081063	128	27	64
1245.364177501	144	27	35
1245.456259466	128	27	64
1245.456354711	144	27	8
1245.571774506	128	27	64
1245.620270296	144	27	30
1245.674335295	128	27	64
1245.674429905	144	27	8
1245.683235369	128	63	64
1245.725882381	128	21	64
1245.816536788	128	27	64
1245.82603636	144	97	41
1245.831393635	144	27	29
1245.889090915	128	27	64
1245.88917703	144	27	8
1245.916400307	144	63	65
1245.956994581	128	97	64
1246.00919986	128	27	64
1246.021897884	144	27	28
1246.117858166	128	27	64
1246.117943257	144	27	7
1246.157922907	144	21	50
1246.270774437	128	27	64
1246.308256134	144	27	29
1246.345568319	128	27	64
1246.345703761	144	27	6
1246.490053887	128	27	64
1246.569731929	144	27	27
1246.58008107	128	63	64
1246.591064037	128	27	64
1246.591182314	144	27	6
1246.674089302	144	97	28
1246.723811889	128	27	64
1246.723896321	144	27	29
1246.74086522	144	63	65
1246.777877274	128	97	64
1246.839562096	128	27	64
1246.839653891	144	27	6
1246.975554105	128	27	64
1247.046725644	144	27	30
1247.075083958	128	27	64
1247.136354207	144	27	6
1247.145017055	128	77	64
1247.172353337	128	27	64
1247.187492455	144	27	30
1247.305844594	128	27	64
1247.305937752	144	27	6
1247.420226203	128	27	64
1247.420319088	144	27	30
1247.432107824	128	63	64
1247.512489665	128	39	64
1247.52643685	144	97	39
1247.545978136	128	21	64
1247.550699902	128	27	64
1247.550795226	144	27	7
1247.648011436	128	97	64
1247.668546093	144	63	65
1247.680149249	128	27	64
1247.680236918	144	27	31
1247.702365114	144	68	66
1247.746711749	128	63	64
1247.779768131	128	27	64
1247.779854494	144	27	9
1247.809887478	144	21	30
1247.887358527	144	63	62
1247.920616239	128	27	64
1247.920720814	144	27	34
1247.985172315	144	39	6
1248.007848573	128	63	64
1248.013843444	128	27	64
1248.013923436	144	27	10
1248.154504397	128	27	64
1248.223616121	144	27	37
1248.236865678	128	27	64
1248.236958233	144	27	10
1248.370504793	128	27	64
1248.370691578	144	97	46
1248.448054848	144	27	37
1248.46895321	128	27	64
1248.469064835	144	27	10
1248.571456605	128	27	64
1248.57154823	144	27	38
1248.682894295	128	27	64
1248.682991261	144	27	12
1248.810861106	128	27	64
1248.820962502	144	27	40
1248.902263053	128	27	64
1248.902361291	144	27	12
1249.030644062	128	27	64
1249.030736087	144	27	39
1249.109139712	128	21	64
1249.13638785	128	27	64
1249.136475124	144	27	13
1249.167742247	128	62	64
1249.275900699	128	27	64
1249.280530244	144	62	52
1249.320103553	144	27	40
1249.370041666	128	27	64
1249.370139572	144	27	14
1249.456903452	128	62	64
1249.475313242	144	21	19
1249.49290254	128	27	64
1249.539325319	144	27	40
1249.571397994	144	62	53
1249.617067437	128	27	64
1249.617172902	144	27	13
1249.713947908	128	62	64
1249.755942435	128	27	64
1249.756038027	144	27	37
1249.842389951	144	62	53
1249.882196312	128	27	64
1249.882290198	144	27	12
1250.012554395	128	27	64
1250.012645679	144	27	38
1250.020557057	128	62	64
1250.13962516	128	27	64
1250.206299661	144	27	10
1250.24484234	144	62	54
1250.245813111	128	39	64
1250.280287941	128	27	64
1250.340435964	144	27	37
1250.366678148	128	27	64
1250.366747745	144	27	10
1250.529587148	128	27	64
1250.539165568	144	27	37
1250.594997476	128	21	64
1250.631863381	128	27	64
1250.631948099	144	27	8
1250.716610993	128	97	64
1250.773113793	128	27	64
1250.777270928	144	39	6
1250.779931704	144	27	37
1250.871029647	128	27	64
1250.871125754	144	27	10
1250.927145382	144	88	81
1250.965602591	128	88	64
1251.017828183	144	47	60
1251.021642479	128	27	64
1251.032751902	144	27	37
1251.122617012	128	27	64
1251.122702355	144	27	9
1251.160747601	128	68	64
1251.197640587	128	47	64
1251.251870339	128	27	64
1251.251967956	144	27	37
1251.27297828	144	63	56
1251.312374399	128	39	64
1251.366671416	128	27	64
1251.366761439	144	27	10
1251.461097165	128	63	64
1251.508090923	128	27	64
1251.514581577	144	27	37
1251.552136387	144	39	6
1251.558684889	144	68	63
1251.598004611	128	27	64
1251.598076807	144	27	13
1251.655270727	128	68	64
1251.667345737	144	63	56
1251.731715325	128	27	64
1251.731804447	144	27	40
1251.825335096	128	63	64
1251.855199091	128	27	64
1251.924914328	144	27	13
1251.950470471	128	27	64
1252.026377405	144	63	56
1252.026749248	144	27	40
1252.046380568	128	27	64
1252.04646956	144	27	15
1252.129006112	128	39	64
1252.166945669	128	27	64
1252.208703069	144	27	41
1252.240840295	128	63	64
1252.257911243	128	27	64
1252.257995513	144	27	13
1252.352968152	144	39	7
1252.374826648	128	27	64
1252.46307571	144	27	40
1252.50073348	128	27	64
1252.500816641	144	27	13
1252.585997989	144	63	55
1252.606466576	128	27	64
1252.606579274	144	27	41
1252.772436467	128	27	64
1252.812944054	128	39	64
1253.168751339	144	39	8
1253.69558843	128	39	64
1253.952373575	144	39	8
1254.167083841	144	68	56
1254.322549366	128	62	64
1254.362476723	128	68	64
1254.496981566	144	62	55
1254.528763288	128	39	64
1254.611790164	144	21	111
1254.623805788	128	62	64
1254.786141903	144	39	9
1254.81848284	144	62	56
1254.89479086	128	62	64
1254.937967502	144	27	34
1254.999067726	144	62	57
1255.022763404	128	27	64
1255.075672712	128	62	64
1255.203921804	144	62	59
1255.212266482	144	107	115
1255.233148391	128	62	64
1255.23820596	128	107	64
1255.261942331	128	39	64
1255.282615546	144	27	34
1255.351447956	128	27	64
1255.374185232	144	62	60
1255.424043421	128	62	64
1255.51613269	144	62	59
1255.578981828	128	62	64
1255.585962816	144	39	8
1255.66714837	144	62	60
1255.685882445	144	27	33
1256.081817984	144	68	30
1256.129175076	128	39	64
1256.29299325	144	88	108
1256.503296291	144	39	8
1257.029475601	128	39	64
1257.315858619	128	27	64
1257.452538267	144	39	9
1257.542830351	128	88	64
1258.012228278	128	39	64
1258.335974857	144	39	9
1258.768015471	144	27	15
1258.860933411	128	27	64
1258.912581885	128	39	64
1259.074098068	144	27	18
1259.196593358	128	27	64
1259.210638715	128	63	64
1259.285541024	144	39	10
1259.34127107	144	27	21
1259.452637315	128	27	64
1259.546892978	144	77	1
1259.578545212	144	27	24
1259.622792471	128	77	64
1259.65806684	128	27	64
1259.756950299	144	27	25
1259.795617996	128	39	64
1259.81228693	128	68	64
1259.833484797	128	27	64
1259.920660936	144	27	27
1259.943958111	144	63	20
1260.013036247	128	27	64
1260.098379004	144	27	28
1260.153047429	144	39	10
1260.184722905	128	27	64
1260.267455094	144	27	29
1260.34735956	128	27	64
1260.42211178	144	27	29
1260.50343309	128	27	64
1260.589604733	144	27	30
1260.653589921	128	27	64
1260.713033523	128	39	64
1260.757307294	144	27	31
1260.810864925	128	27	64
1260.926255734	144	27	31
1260.947142274	128	63	64
1261.000474966	128	27	64
1261.01897084	144	39	10
1261.070098536	144	27	30
1261.156740985	128	27	64
1261.166166217	144	68	12
1261.249295848	144	27	32
1261.308703189	144	63	19
1261.329273149	128	27	64
1261.416653934	144	27	32
1261.505611673	128	27	64
1261.546293651	144	27	33
1261.566216513	144	97	68
1261.646164979	128	39	64
1261.659579694	128	27	64
1261.750842032	144	27	33
1261.831855275	128	27	64
1261.894882985	144	27	34
1261.968941623	144	39	9
1261.995620736	128	27	64
1262.047887629	144	27	34
1262.259047265	128	21	64
1262.333494268	128	63	64
1262.513177339	128	39	64
1262.554771492	144	63	20
1262.62442012	128	68	64
1262.680738855	128	63	64
1262.833426634	144	63	20
1262.935465729	144	39	9
1262.994098003	128	27	64
1263.072674012	128	63	64
1263.203711414	144	68	1
1263.282149403	144	88	102
1263.292379594	144	63	33
1263.307878257	128	88	64
1263.328825095	128	39	64
1263.429851522	144	107	64
1263.503308266	128	68	64
1263.539506901	144	88	62
1263.573766704	128	63	64
1263.635651807	128	88	64
1263.769730388	144	39	10
1264.255453641	128	39	64
1264.583461711	144	68	7
1264.585551765	144	39	10
1264.589757442	128	68	64
1264.590154858	144	27	51
1264.66515234	128	27	64
1264.883988552	144	27	49
1264.972345979	128	97	64
1265.129541923	128	39	64
1265.337984993	128	55	64
1265.402307058	144	39	9
1265.712525691	144	21	16
1265.859156925	144	88	102
1265.906566931	128	88	64
1265.908785161	128	21	64
1266.012756754	128	39	64
1266.165495055	144	88	50
1266.223018837	128	88	64
1266.31929233	144	39	10
1266.375760516	144	21	17
1266.468347796	128	27	64
1266.472909928	128	62	64
1266.484376678	128	21	64
1266.620443096	144	62	59
1266.841517335	144	21	22
1266.879610215	128	39	64
1266.935065037	128	21	64
1267.094298985	144	47	67
1267.124904311	128	47	64
1267.164300938	144	47	67
1267.219104655	144	39	12
1267.304673184	128	47	64
1267.389068224	144	77	94
1267.393904578	144	21	29
1267.538559617	128	21	64
1267.563005601	128	39	64
1267.756450399	128	62	64
1267.868821126	144	62	52
1267.975863394	144	21	34
1268.018563172	144	39	7
1268.119480154	128	21	64
1268.189751392	128	62	64
1268.293601351	144	62	54
1268.313056454	128	39	64
1268.349088212	144	68	103
1268.355359222	128	68	64
1268.488523703	128	62	64
1268.562562399	144	21	35
1268.651600428	128	21	64
1268.706889006	144	62	54
1268.720676988	128	107	64
1268.769087671	144	39	8
1269.113229633	128	39	64
1269.129288647	144	21	34
1269.201776192	128	21	64
1269.603477671	144	39	4
1269.685924619	144	63	90
1269.694194059	144	55	88
1269.726703253	144	21	36
1269.795728146	144	107	65
1269.871622028	128	21	64
1270.031013463	128	39	64
1270.031667052	128	77	64
1270.075310622	144	88	105
1270.124831027	128	88	64
1270.182573745	144	68	117
1270.309654423	144	21	43
1270.326712083	128	68	64
1270.367275882	144	88	104
1270.401758393	128	21	64
1270.442322551	128	88	64
1270.552147376	144	39	5
1270.60110067	144	88	105
1270.623832181	128	88	64
1270.766437001	144	27	99
1270.807506842	128	27	64
1270.912556792	144	21	42
1270.927842096	144	88	46
1270.938275876	128	39	64
1270.984365232	128	21	64
1271.047052166	128	88	64
1271.426156359	144	21	41
1271.485842213	144	39	6
1271.536469678	128	21	64
1271.995477897	128	39	64
1272.046803354	144	21	43
1272.121957671	128	21	64
1272.318195917	144	39	7
1272.552896674	144	97	98
1272.619089273	128	97	64
1272.645981046	144	21	43
1272.719121699	128	21	64
1272.7293955	128	39	64
1273.118552709	144	97	97
1273.152489368	144	39	7
1273.159111618	128	97	64
1273.220453518	128	107	64
1273.279742647	144	21	40
1273.352335548	128	21	64
1273.529413603	128	39	64
1273.763093663	144	107	80
1273.824545408	144	97	95
1273.826599334	144	21	40
1273.837361333	128	97	64
1273.969022923	144	39	8
1273.993946713	128	21	64
1274.262055474	128	39	64
1274.297938891	144	88	106
1274.344934073	128	88	64
1274.494479222	144	21	41
1274.585328381	128	21	64
1274.636066368	144	39	8
1274.820793613	128	107	64
1274.885521751	128	62	64
1274.996025911	128	39	64
1275.016942216	144	62	42
1275.095508564	144	21	42
1275.120403862	128	62	64
1275.185515046	128	21	64
1275.296451191	144	107	83
1275.369463631	144	39	9
1275.419173803	144	62	35
1275.628865045	128	62	64
1275.71242909	144	21	43
1275.713651936	128	39	64
1275.856574331	128	21	64
1275.938580709	144	62	36
1276.132885691	144	27	77
1276.161600482	128	27	64
1276.185635625	144	39	11
1276.34340876	144	21	45
1276.436129993	128	21	64
1276.439334513	144	77	112
1276.496262107	128	39	64
1276.532146763	144	88	44
1276.616629877	128	88	64
1276.840759373	128	63	64
1276.919216274	144	39	13
1276.996037541	144	21	44
1277.089185096	128	21	64
1277.205186606	128	39	64
1277.226198288	144	21	44
1277.239307807	144	47	65
1277.319495384	128	47	64
1277.371089374	128	21	64
1277.483631146	144	47	67
1277.562733522	128	47	64
1277.825825776	144	21	44
1277.918739818	128	21	64
1278.052734301	144	39	25
1278.08968842	144	47	64
1278.173083739	128	47	64
1278.329745431	128	39	64
1278.381591564	144	47	63
1278.446903249	144	21	44
1278.46945118	128	47	64
1278.518537685	128	21	64
1278.690496652	144	27	75
1278.8699174610001	144	39	11
1278.91790787	144	68	56
1278.941659284	128	27	64
1279.006478355	128	107	64
1279.07818265	144	21	46
1279.095477737	128	39	64
1279.119425523	128	21	64
1279.242661804	144	21	45
1279.386164313	128	21	64
1279.460685771	144	63	96
1279.518853987	144	30	9
1279.535929963	144	39	10
1279.606686432	128	30	64
1279.606950364	128	63	64
1279.700814652	144	63	93
1279.804413554	128	62	64
1279.81291141	128	39	64
1279.820471208	128	63	64
1279.928118446	144	21	45
1279.966572938	144	62	25
1280.019313108	128	21	64
1280.071504413	128	62	64
1280.133282605	144	30	10
1280.235172587	128	30	64
1280.236491393	144	39	52
1280.246656887	144	27	67
1280.249729457	144	62	28
1280.269989919	128	27	64
1280.341095153	144	27	64
1280.385868547	128	27	64
1280.387501635	144	63	93
1280.412468408	128	39	64
1280.414665711	128	62	64
1280.424920023	144	27	61
1280.488724247	128	27	64
1280.513388189	128	63	64
1280.527380099	144	27	61
1280.554594969	144	62	32
1280.580525695	144	30	12
1280.59568268	144	21	46
1280.630293921	144	63	93
1280.686273172	128	21	64
1280.718781369	128	30	64
1280.735387438	128	62	64
1280.782981661	128	63	64
1280.95276786	144	39	15
1280.953074298	144	62	36
1281.005780538	128	68	64
1281.14171543	144	30	11
1281.163045095	144	107	103
1281.17809048	144	21	45
1281.179309627	128	39	64
1281.255826089	128	62	64
1281.287144393	128	30	64
1281.318512599	144	63	92
1281.321025334	128	21	64
1281.369824418	128	55	64
1281.390920241	144	30	11
1281.405238099	144	62	40
1281.437621558	128	107	64
1281.471188383	128	30	64
1281.521884578	144	107	80
1281.535703376	144	30	11
1281.609849094	128	77	64
1281.630559609	128	30	64
1281.636447441	128	62	64
1281.722030304	144	30	10
1281.797244075	128	30	64
1281.837580374	128	107	64
1281.892122537	144	30	8
1281.947389258	144	62	45
1281.948218904	128	30	64
1281.962142941	144	21	46
1282.015371347	144	107	65
1282.036572241	128	21	64
1282.0383924	144	30	9
1282.118680212	128	30	64
1282.170802855	144	30	11
1282.181496541	144	21	46
1282.184794131	144	39	14
1282.195091506	128	62	64
1282.284857896	128	30	64
1282.328602039	128	39	64
1282.352521713	144	30	12
1282.393518264	128	21	64
1282.468614998	128	30	64
1282.487276841	128	107	64
1282.535982808	144	30	13
1282.569180022	144	39	55
1282.581035678	144	62	44
1282.588484664	144	107	53
1282.652355858	128	30	64
1282.712713637	128	39	64
1282.830294557	128	62	64
1282.911695402	144	21	48
1283.002961722	128	21	64
1283.04127897	144	21	48
1283.184512761	128	21	64
1283.200500919	144	62	43
1283.220898776	128	107	64
1283.227863929	144	21	48
1283.318252039	128	21	64
1283.336503811	144	39	17
1283.353646672	144	30	79
1283.386069331	144	107	49
1283.406537874	144	21	52
1283.503125984	128	21	64
1283.639519187	128	62	64
1283.842926509	144	62	44
1284.054426669	128	107	64
1284.071349014	128	30	64
1284.215032309	144	107	47
1284.262748263	128	39	64
1284.290773537	144	77	8
1284.38833882	128	77	64
1284.467412596	144	68	81
1284.507087783	128	68	64
1284.615181995	144	39	16
1284.654187739	144	30	32
1284.70894882	128	39	64
1284.780568595	128	62	64
1284.853288198	144	77	11
1284.923806446	128	30	64
1284.924197997	128	77	64
1285.026789669	144	39	56
1285.027146383	144	77	12
1285.053648079	128	107	64
1285.057383908	128	39	64
1285.094584428	144	30	111
1285.107141627	128	77	64
1285.15544371	144	62	43
1285.195637442	144	21	114
1285.196038236	144	77	12
1285.206299249	128	21	64
1285.246480374	144	107	48
1285.267993184	128	77	64
1285.321262276	128	30	64
1285.349358758	144	77	13
1285.400160778	128	77	64
1285.464049306	128	62	64
1285.490517204	144	77	15
1285.555700802	128	77	64
1285.630915475	144	77	15
1285.664879492	144	68	16
1285.694208271	144	30	127
1285.711150746	128	77	64
1285.786209589	144	39	18
1285.799798695	144	77	18
1285.825031699	144	62	40
1285.86129519	128	77	64
1285.933504888	128	63	64
1285.956076726	144	77	21
1286.005034647	128	30	64
1286.02043898	128	77	64
1286.107361616	144	77	25
1286.178920025	128	77	64
1286.260980708	128	27	64
1286.26362075	144	77	28
1286.320089728	144	30	93
1286.331711337	128	77	64
1286.36656136	128	30	64
1286.38031245	128	68	64
1286.407051295	144	77	34
1286.407193952	128	62	64
1286.474311356	144	30	60
1286.480536006	144	68	32
1286.485596441	128	77	64
1286.565521155	144	77	39
1286.628267367	128	77	64
1286.715230457	144	77	44
1286.746017563	128	39	64
1286.792092162	128	77	64
1286.86830708	144	77	51
1286.947659285	128	77	64
1286.971796519	144	27	52
1287.000668173	128	27	64
1287.024851924	144	77	65
1287.088010589	128	77	64
1287.104076082	128	107	64
1287.157965071	144	107	47
1287.177201679	144	77	78
1287.248119456	128	77	64
1287.264552596	144	39	62
1287.350263464	144	77	88
1287.397818551	128	77	64
1287.444085353	144	27	39
1287.475033548	144	77	104
1287.519136218	128	27	64
1287.540451374	128	77	64
1287.546680157	128	39	64
1287.63209717	144	77	117
1287.68332904	128	77	64
1287.713637428	128	68	64
1287.793527751	144	68	31
1287.858404875	128	68	64
1287.944101556	144	68	32
1287.970231325	144	39	15
1288.008362632	128	68	64
1288.062668567	144	68	32
1288.119086055	144	55	32
1288.153111263	144	63	56
1288.181032012	128	55	64
1288.195877595	128	39	64
1288.230639084	128	63	64
1288.271303332	128	107	64
1288.29152455	144	27	50
1288.296833907	128	68	64
1288.306062331	144	55	33
1288.322803388	144	63	57
1288.339602813	144	88	58
1288.351780461	128	55	64
1288.384244974	128	88	64
1288.420336897	128	63	64
1288.441353573	128	30	64
1288.450624176	144	55	33
1288.494115185	128	55	64
1288.499743927	144	63	58
1288.546446115	128	27	64
1288.564256315	144	55	37
1288.570096514	144	39	64
1288.59708825	128	63	64
1288.61168305	128	55	64
1288.666844046	144	63	58
1288.672242756	128	39	64
1288.679471236	144	55	36
1288.700629296	144	62	41
1288.732922701	128	55	64
1288.769598247	128	63	64
1288.778358344	128	62	64
1288.804781804	144	55	37
1288.820600406	144	68	34
1288.829861401	144	63	59
1288.848321944	128	55	64
1288.871567813	128	68	64
1288.913592887	144	68	34
1288.932197541	144	55	41
1288.934579174	128	63	64
1288.972674018	128	68	64
1288.978113495	144	27	51
1288.986067838	128	55	64
1289.008881798	144	63	62
1289.020014023	144	39	59
1289.044636598	144	68	36
1289.087439828	144	62	39
1289.090015993	128	107	64
1289.092207543	144	55	46
1289.105815468	128	68	64
1289.114244106	128	63	64
1289.135943887	128	55	64
1289.163926028	128	39	64
1289.175370368	144	63	64
1289.177861235	144	68	37
1289.212771582	128	62	64
1289.215798958	128	27	64
1289.234281725	144	55	47
1289.237353675	128	68	64
1289.280590796	128	55	64
1289.289335355	128	63	64
1289.292741273	144	68	38
1289.316813863	144	62	38
1289.339068949	144	63	64
1289.339822033	128	68	64
1289.362797192	144	55	52
1289.388338828	144	88	72
1289.398153075	128	62	64
1289.453518657	128	88	64
1289.459176136	128	63	64
1289.481965698	144	62	41
1289.552174881	144	39	60
1289.557008038	128	62	64
1289.570443929	144	27	51
1289.601111638	128	55	64
1289.644583474	144	62	45
1289.661766184	144	55	58
1289.662196654	128	55	64
1289.662869378	144	55	67
1289.670447277	128	27	64
1289.685046384	128	55	64
1289.723958048	128	62	64
1289.729780444	128	39	64
1289.779748223	144	55	73
1289.820795133	144	62	43
1289.854386265	128	55	64
1289.915435003	128	62	64
1289.930366758	144	55	79
1289.979874912	128	55	64
1290.009293447	144	62	46
1290.067146643	144	55	87
1290.100227656	128	62	64
1290.102981273	144	39	60
1290.111827585	128	55	64
1290.152323641	144	68	45
1290.190985758	144	55	92
1290.222320396	128	68	64
1290.24356466	144	62	49
1290.250213526	128	55	64
1290.278126528	144	68	45
1290.296210394	128	39	64
1290.321287434	144	55	93
1290.345310389	128	62	64
1290.357786733	128	68	64
1290.383267487	128	55	64
1290.411285922	144	68	45
1290.45910558	144	62	50
1290.466595339	144	55	95
1290.51319248	128	55	64
1290.549005585	128	62	64
1290.578822281	128	68	64
1290.591156125	144	55	97
1290.628368665	144	62	53
1290.63441945	128	55	64
1290.670552	144	39	60
1290.721647853	144	68	63
1290.728057044	128	62	64
1290.738219446	144	55	96
1290.772485273	128	68	64
1290.782130568	128	55	64
1290.811969629	144	68	75
1290.821135707	144	62	53
1290.846139574	128	39	64
1290.87047885	128	68	64
1290.927081928	128	62	64
1290.930660839	144	68	92
1290.973260631	144	88	77
1290.973419622	128	68	64
1290.987947473	144	62	54
1291.002375986	144	39	60
1291.019924803	128	88	64
1291.096726068	128	62	64
1291.174846953	128	39	64
1291.186844034	144	63	98
1291.240096672	128	63	64
1291.260715031	144	27	55
1291.321538807	144	63	101
1291.348747946	128	27	64
1291.392883407	128	63	64
1291.395365625	144	39	60
1291.466380435	144	63	105
1291.540930378	128	39	64
1291.54422619	128	63	64
1291.590402626	144	62	51
1291.605620573	144	63	105
1291.646056735	128	62	64
1291.665642145	128	63	64
1291.763324569	144	62	59
1291.815390005	128	62	64
1291.819596906	144	39	60
1291.873280494	144	27	78
1291.933818384	144	62	53
1291.954264554	128	27	64
1291.979504658	128	39	64
1291.984493071	128	62	64
1292.023884555	144	55	68
1292.068533419	128	55	64
1292.085890858	144	62	55
1292.116891338	144	77	16
1292.150778044	128	62	64
1292.156317099	144	88	72
1292.162707664	144	55	81
1292.165411243	128	77	64
1292.166909294	144	68	6
1292.167306135	128	68	64
1292.167351576	144	68	47
1292.205087324	128	55	64
1292.219348719	128	88	64
1292.228737388	144	62	54
1292.238377581	144	55	82
1292.240451985	144	77	23
1292.252940279	144	39	60
1292.281638691	128	55	64
1292.292978285	128	62	64
1292.310981032	128	68	64
1292.311093468	144	68	5
1292.317260429	128	77	64
1292.340597298	128	68	64
1292.361554874	144	68	51
1292.370352085	144	55	74
1292.385053929	144	77	34
1292.393397801	144	62	57
1292.415817669	128	55	64
1292.429625346	128	39	64
1292.439000205	128	68	64
1292.448421293	128	77	64
1292.458127387	144	68	7
1292.461419212	144	27	72
1292.461534706	128	62	64
1292.505050137	128	68	64
1292.505335671	128	27	64
1292.522504816	144	77	50
1292.545656939	144	68	64
1292.551015578	144	62	60
1292.587162476	128	68	64
1292.589253172	128	77	64
1292.615035884	144	68	17
1292.615237193	128	62	64
1292.65815262	128	68	64
1292.66637374	144	77	70
1292.670051698	144	39	59
1292.694876142	144	68	81
1292.714297885	144	62	65
1292.735183433	128	77	64
1292.738016836	128	68	64
1292.779186925	144	68	37
1292.783899283	128	62	64
1292.806232425	128	68	64
1292.829886225	128	39	64
1292.832099878	144	77	88
1292.845872538	144	68	98
1292.871604931	144	63	81
1292.882501381	128	77	64
1292.893380848	128	68	64
1292.896757432	144	68	52
1292.925835809	128	63	64
1292.936932059	128	68	64
1292.96328133	144	68	119
1292.986565096	144	77	102
1293.005089917	144	63	76
1293.007533615	144	88	73
1293.008069222	128	68	64
1293.026175369	128	77	64
1293.055529495	128	88	64
1293.07771833	128	63	64
1293.103586025	144	77	114
1293.119657576	144	39	60
1293.134033958	144	63	73
1293.166658327	128	77	64
1293.214535082	144	62	63
1293.273786396	128	63	64
1293.27934144	144	63	72
1293.287148583	144	77	116
1293.298403728	128	62	64
1293.316556717	128	39	64
1293.316986699	128	77	64
1293.336398542	128	63	64
1293.378785579	144	62	66
1293.413658209	144	77	114
1293.440959944	128	62	64
1293.466630596	128	77	64
1293.529506338	144	62	63
1293.536615137	144	97	57
1293.59239655	128	97	64
1293.594593587	128	62	64
1293.621773071	144	39	60
1293.669409224	144	27	68
1293.673023361	144	62	61
1293.676091735	144	68	48
1293.730441855	128	27	64
1293.735728165	128	62	64
1293.736101271	128	39	64
1293.75596998	128	68	64
1293.773056079	144	88	78
1293.822516399	128	88	64
1293.826928358	144	62	60
1293.828723126	144	68	60
1293.890554327	128	62	64
1293.890692292	128	68	64
1293.960600672	144	68	76
1293.979053798	144	62	61
1294.023547822	128	68	64
1294.044667712	128	62	64
1294.053091993	144	39	61
1294.09440377	144	68	92
1294.136407551	128	68	64
1294.18935497	144	27	68
1294.211818753	144	68	104
1294.233391454	144	63	42
1294.246071956	128	39	64
1294.247192806	144	55	79
1294.25385825	128	27	64
1294.257238637	128	68	64
1294.287373055	128	63	64
1294.347453473	128	55	64
1294.357582772	144	63	41
1294.428852588	128	63	64
1294.49081199	144	63	41
1294.525158528	144	88	83
1294.556076731	128	63	64
1294.570331085	128	88	64
1294.580314303	144	62	61
1294.620220203	144	39	61
1294.640475144	144	63	44
1294.655429167	128	62	64
1294.69575511	144	55	75
1294.700123116	128	63	64
1294.714502886	144	27	66
1294.743194285	144	62	61
1294.7574771	128	27	64
1294.764878604	144	88	85
1294.77967612	128	39	64
1294.793137188	144	63	56
1294.811283805	128	62	64
1294.81578395	128	55	64
1294.819146929	128	88	64
1294.875338307	128	63	64
1294.910368172	144	62	62
1294.956929113	144	63	62
1294.964263888	144	88	86
1294.966371958	144	21	27
1294.978928251	128	62	64
1295.019929446	128	88	64
1295.035786483	128	63	64
1295.067808718	144	62	60
1295.102405543	144	63	64
1295.104923903	144	77	21
1295.136054839	144	39	62
1295.136346766	128	62	64
1295.150462573	128	77	64
1295.184605747	128	63	64
1295.191190573	144	55	77
1295.195425482	144	30	10
1295.213505772	144	77	25
1295.219080422	144	62	60
1295.234342976	144	27	66
1295.246851285	144	106	50
1295.256539265	144	63	64
1295.277703649	128	106	64
1295.279068612	128	27	64
1295.290781191	128	55	64
1295.293677646	128	77	64
1295.301506517	128	62	64
1295.308485646	128	30	64
1295.330215097	128	39	64
1295.3445584	128	63	64
1295.379885299	144	106	49
1295.380222807	144	77	32
1295.388732872	144	62	61
1295.409273479	144	63	67
1295.432048771	128	106	64
1295.445348818	128	77	64
1295.451199324	128	62	64
1295.493437448	128	63	64
1295.516596637	144	106	50
1295.520419288	144	77	42
1295.541483153	144	62	62
1295.574009371	144	63	69
1295.580133585	128	106	64
1295.592662019	128	77	64
1295.610383075	128	62	64
1295.619064052	144	39	62
1295.661183973	128	63	64
1295.6616742	144	106	53
1295.680568526	144	77	51
1295.702953054	144	62	62
1295.703334769	144	55	81
1295.727631578	144	63	70
1295.732839191	128	77	64
1295.762418796	128	62	64
1295.781510794	144	30	1
1295.782532424	144	27	63
1295.796419799	128	39	64
1295.799121549	128	63	64
1295.817292254	144	77	68
1295.823647516	128	55	64
1295.82434689	128	27	64
1295.848390748	144	62	60
1295.873843253	144	63	70
1295.880024329	144	47	65
1295.894051977	128	77	64
1295.917112142	128	62	64
1295.921511176	128	106	64
1295.934309519	144	68	31
1295.954899886	144	106	54
1295.964478177	128	63	64
1295.972954476	144	77	88
1295.9738917	128	68	64
1295.99533241	128	47	64
1296.002230483	144	62	63
1296.012184863	144	68	31
1296.028837635	128	106	64
1296.03445962	128	77	64
1296.057868161	128	62	64
1296.058112339	144	88	56
1296.090059801	128	68	64
1296.104935515	128	88	64
1296.110942626	144	106	54
1296.115135272	144	77	103
1296.145133511	144	68	40
1296.159371255	144	62	60
1296.180601427	128	106	64
1296.185796877	128	77	64
1296.192791301	128	30	64
1296.198400754	144	88	61
1296.20297873	144	39	61
1296.204777726	128	68	64
1296.221937378	128	62	64
1296.245480266	144	106	53
1296.247795223	144	55	78
1296.254062192	128	88	64
1296.262545579	144	27	64
1296.262962015	128	21	64
1296.276023888	144	77	115
1296.278371551	144	68	49
1296.313795321	144	62	56
1296.321451817	128	27	64
1296.324354715	128	77	64
1296.333390507	128	106	64
1296.336646395	128	68	64
1296.346658836	128	55	64
1296.363141929	144	47	64
1296.389877545	128	62	64
1296.398323094	144	106	53
1296.411556385	144	68	62
1296.426293517	144	77	115
1296.431654049	144	30	1
1296.461811618	128	47	64
1296.465816056	128	106	64
1296.478713112	144	62	58
1296.487495184	128	77	64
1296.505596898	128	68	64
1296.514063377	144	106	53
1296.540769875	128	39	64
1296.543972577	144	68	76
1296.55887897	128	62	64
1296.580272623	144	77	104
1296.580747373	128	106	64
1296.590166424	128	68	64
1296.625759397	128	30	64
1296.63133061	128	77	64
1296.633184461	144	62	60
1296.644139557	144	106	55
1296.696974753	128	62	64
1296.711585234	128	106	64
1296.711844322	144	30	1
1296.768031162	144	106	55
1296.785831482	144	39	61
1296.793096952	144	55	76
1296.793374823	144	62	62
1296.809612536	128	30	64
1296.818516662	144	27	62
1296.829106445	128	106	64
1296.853133062	128	62	64
1296.877808673	128	27	64
1296.887799462	144	106	55
1296.891370057	128	55	64
1296.894499365	144	30	1
1296.938488856	144	47	64
1296.946183788	128	39	64
1296.953894971	144	62	63
1296.964770776	128	106	64
1296.988319718	128	30	64
1297.019398834	128	62	64
1297.027229052	144	106	54
1297.044842579	128	47	64
1297.059874321	144	30	1
1297.095616372	128	106	64
1297.122470151	144	62	62
1297.150027109	144	106	54
1297.159338529	128	30	64
1297.181821816	144	63	102
1297.191390583	128	62	64
1297.224329537	144	55	77
1297.224855096	144	30	1
1297.233114926	128	106	64
1297.233666442	128	63	64
1297.259731047	144	106	54
1297.276279738	144	62	64
1297.312734459	128	55	64
1297.334214481	128	106	64
1297.341784742	128	30	64
1297.342049497	144	27	63
1297.342819677	144	63	98
1297.353009853	144	39	62
1297.354191855	128	62	64
1297.37536124	144	30	1
1297.381165616	144	21	44
1297.393565576	144	106	56
1297.398982537	128	27	64
1297.399245775	128	63	64
1297.427900871	144	55	73
1297.44197705	144	62	66
1297.455055731	128	30	64
1297.461611505	128	106	64
1297.469706907	144	63	99
1297.496150629	128	39	64
1297.505590905	128	62	64
1297.507836838	144	30	1
1297.51851231	144	47	64
1297.519412619	144	106	57
1297.522184368	128	55	64
1297.563767616	128	63	64
1297.595733083	128	106	64
1297.603950361	128	47	64
1297.61084973	144	62	64
1297.625366892	128	30	64
1297.660570841	144	106	57
1297.675204229	144	30	1
1297.677287865	128	62	64
1297.717436986	128	106	64
1297.755767628	128	30	64
1297.767477532	144	62	62
1297.775412085	144	106	57
1297.829762348	128	62	64
1297.832671749	128	106	64
1297.848999922	144	55	84
1297.906971706	144	27	63
1297.909799526	144	106	57
1297.939788095	128	55	64
1297.943002569	144	62	66
1297.951556471	128	27	64
1297.984649265	128	106	64
1298.011241604	128	62	64
1298.032350831	144	106	56
1298.038848198	144	47	64
1298.100128732	128	106	64
1298.110032123	144	62	64
1298.115696234	144	55	82
1298.115997343	144	77	28
1298.117424159	128	47	64
1298.118806671	144	39	53
1298.157764121	128	77	64
1298.159318017	144	106	57
1298.179706816	128	62	64
1298.194843473	144	63	45
1298.215114539	128	106	64
1298.222033701	128	39	64
1298.233075874	144	77	28
1298.237359401	128	55	64
1298.247631365	128	63	64
1298.270733553	144	106	58
1298.280803826	144	62	64
1298.299511339	144	68	1
1298.305177071	128	77	64
1298.315856494	128	21	64
1298.317175665	144	63	41
1298.344217676	128	62	64
1298.344764862	128	106	64
1298.374692546	144	77	33
1298.389378794	128	68	64
1298.400571224	128	63	64
1298.40967732	144	106	60
1298.412391766	144	27	63
1298.457133553	128	77	64
1298.460652958	144	63	40
1298.466685818	128	106	64
1298.474423881	144	68	1
1298.482358193	128	27	64
1298.522183385	144	106	61
1298.531106839	144	55	79
1298.532729637	144	30	1
1298.540543498	128	68	64
1298.541828522	144	77	42
1298.56627804	128	63	64
1298.592468147	128	77	64
1298.601590231	128	106	64
1298.611623037	144	68	1
1298.6271731	128	55	64
1298.63625833	144	106	61
1298.644005373	128	30	64
1298.654205986	128	68	64
1298.675301567	144	47	64
1298.683227132	144	77	55
1298.691256598	144	62	60
1298.716561594	128	106	64
1298.743042084	144	68	5
1298.748086099	128	62	64
1298.748540661	128	77	64
1298.771118904	128	47	64
1298.777029864	144	106	63
1298.807731647	128	68	64
1298.841056537	144	77	66
1298.846793461	128	106	64
1298.850820259	144	55	77
1298.861796792	144	62	62
1298.867734009	144	63	107
1298.877959054	144	68	15
1298.884471756	144	30	1
1298.898365581	144	106	62
1298.902786234	128	77	64
1298.92783895	128	62	64
1298.932470376	128	63	64
1298.939850559	128	68	64
1298.943608676	128	55	64
1298.963559495	128	106	64
1298.977611179	128	30	64
1298.991318784	144	63	106
1298.994622871	144	77	80
1299.010489343	144	68	25
1299.015279968	144	27	61
1299.026551483	144	106	63
1299.044258291	128	77	64
1299.059705679	128	27	64
1299.064291982	128	63	64
1299.073778294	128	68	64
1299.116975304	144	30	1
1299.118683577	144	62	62
1299.119661152	144	39	35
1299.123242149	144	63	103
1299.127636995	144	68	43
1299.132182349	128	106	64
1299.15514001	144	106	63
1299.156946041	144	77	94
1299.18761797	128	77	64
1299.189215372	128	30	64
1299.18956543	128	68	64
1299.191479881	128	63	64
1299.197155061	128	62	64
1299.246073294	128	106	64
1299.255772352	128	39	64
1299.262878755	144	68	69
1299.281163876	144	21	50
1299.289796759	144	77	109
1299.293805219	144	106	63
1299.309008956	128	68	64
1299.336370339	144	55	84
1299.344660655	128	77	64
1299.360697748	128	106	64
1299.362074697	144	62	66
1299.386453045	144	30	1
1299.404133221	144	97	59
1299.427886563	144	106	63
1299.433263593	128	62	64
1299.434846479	128	55	64
1299.446963756	144	77	114
1299.47843617	128	30	64
1299.481331611	128	106	64
1299.499198487	128	77	64
1299.501652996	128	97	64
1299.544185762	144	62	62
1299.559989996	144	106	62
1299.572999079	144	27	68
1299.59759388	128	62	64
1299.59946258	144	77	114
1299.616140563	128	106	64
1299.637941732	128	77	64
1299.667430971	144	55	95
1299.673504189	128	27	64
1299.693912139	144	106	65
1299.699998471	144	62	59
1299.741023575	144	77	117
1299.74834114	128	62	64
1299.779241039	128	106	64
1299.803729118	128	77	64
1299.82306994	128	55	64
1299.828150934	144	106	65
1299.850010028	144	62	62
1299.894371647	128	106	64
1299.908716789	144	63	95
1299.91015544	144	77	115
1299.922243419	128	62	64
1299.952928666	128	77	64
1299.974293692	128	63	64
1299.981432664	128	21	64
1299.993681579	144	106	66
1300.017666125	144	62	65
1300.03390763	144	30	1
1300.047947054	128	106	64
1300.053274958	144	63	95
1300.084256766	128	62	64
1300.107737282	144	106	67
1300.128373946	128	63	64
1300.158685167	144	27	97
1300.161855777	128	30	64
1300.169903913	128	106	64
1300.185371225	144	63	94
1300.198207489	144	62	68
1300.201121536	144	55	103
1300.20496645	128	27	64
1300.213045819	144	88	95
1300.219518381	144	106	68
1300.236381356	144	39	47
1300.244124406	128	88	64
1300.258860822	128	63	64
1300.272547661	128	62	64
1300.289301646	128	55	64
1300.299414403	128	106	64
1300.31268472	144	97	59
1300.358171805	144	106	71
1300.363610052	144	62	66
1300.391714571	128	97	64
1300.406536107	128	39	64
1300.428402324	128	106	64
1300.43828415	128	62	64
1300.451892052	144	55	87
1300.455764749	144	30	1
1300.487967817	144	106	72
1300.525646619	144	62	62
1300.54604755	128	55	64
1300.546578876	128	106	64
1300.578820611	128	30	64
1300.583977994	128	62	64
1300.611413706	144	63	82
1300.625228059	144	106	73
1300.665149544	144	27	88
1300.679163681	128	63	64
1300.685775917	128	106	64
1300.698865706	144	62	62
1300.708053833	128	27	64
1300.724603444	144	55	87
1300.740497896	144	106	74
1300.753580324	128	62	64
1300.75886306	144	63	80
1300.783340726	144	68	80
1300.812032076	128	106	64
1300.837002884	128	63	64
1300.85644262	144	62	59
1300.863426347	128	55	64
1300.869651927	144	106	76
1300.87401967	144	97	77
1300.900354252	144	63	82
1300.904591379	128	62	64
1300.947404765	128	106	64
1300.960351511	128	97	64
1300.971248767	128	63	64
1301.008079065	144	106	76
1301.00832791	144	62	64
1301.026665882	144	30	1
1301.065063606	128	62	64
1301.065152813	128	106	64
1301.12232348	144	106	77
1301.146500167	128	30	64
1301.149784219	144	62	78
1301.197088131	128	106	64
1301.218682547	128	62	64
1301.22951572	144	27	88
1301.256010086	144	77	22
1301.288218834	144	106	77
1301.290446713	144	62	80
1301.296424862	128	27	64
1301.30669836	128	77	64
1301.312938029	128	106	64
1301.354247091	144	55	94
1301.35861865	128	62	64
1301.375615923	144	39	52
1301.387790919	144	106	77
1301.39278967	144	77	31
1301.417767896	144	97	80
1301.445095621	128	55	64
1301.4455844	128	106	64
1301.446324264	144	62	81
1301.473231777	128	97	64
1301.475884456	128	77	64
1301.505438642	144	106	77
1301.511413183	128	62	64
1301.518122904	144	30	1
1301.52289872	128	39	64
1301.566907522	128	106	64
1301.569325164	144	77	38
1301.587175178	144	62	83
1301.587410336	144	55	86
1301.613455332	128	77	64
1301.630420712	128	30	64
1301.64306469	144	106	79
1301.654686944	128	62	64
1301.682136829	128	55	64
1301.698896101	128	106	64
1301.714940292	144	77	44
1301.740366777	144	62	84
1301.776797213	128	77	64
1301.779135349	144	106	79
1301.784769018	144	27	84
1301.805054281	128	62	64
1301.829722915	144	55	103
1301.831935127	128	106	64
1301.873451078	128	27	64
1301.895146963	144	77	56
1301.907198935	144	62	84
1301.910549083	144	106	82
1301.918268733	144	30	1
1301.937677279	128	77	64
1301.952229543	128	55	64
1301.964100811	128	68	64
1301.965084736	128	106	64
1301.974721516	128	62	64
1302.000917923	144	97	81
1302.02008231	144	106	82
1302.037778984	144	77	68
1302.053097593	128	97	64
1302.064112908	128	30	64
1302.076146175	128	77	64
1302.086518806	144	62	89
1302.09686392	128	106	64
1302.11221415	144	63	97
1302.14252039	144	106	84
1302.16091916	128	62	64
1302.194741954	144	77	82
1302.212940698	128	106	64
1302.230896169	128	77	64
1302.253117038	144	62	91
1302.274049253	144	106	86
1302.286032455	144	21	108
1302.319420711	144	30	1
1302.319782553	128	62	64
1302.328052231	144	27	83
1302.344766829	128	106	64
1302.361861811	144	77	88
1302.394062123	128	77	64
1302.405064443	144	106	85
1302.413218228	128	27	64
1302.423826886	144	62	95
1302.443173144	144	55	97
1302.446913894	128	30	64
1302.48811491	128	62	64
1302.497474557	128	106	64
1302.50054586	144	68	97
1302.500911971	144	77	99
1302.521362231	144	97	86
1302.531804923	144	106	86
1302.560090709	128	77	64
1302.579875691	128	55	64
1302.589353758	144	62	94
1302.593230518	144	39	86
1302.600656659	128	97	64
1302.602883851	128	106	64
1302.643794014	144	77	115
1302.654196658	128	62	64
1302.662576196	144	106	86
1302.676436878	144	55	90
1302.7016544	144	30	1
1302.707667799	128	77	64
1302.732202639	128	106	64
1302.739317023	128	39	64
1302.742833546	128	63	64
1302.758331248	144	62	94
1302.771451644	128	55	64
1302.786412794	144	106	89
1302.798935498	144	77	119
1302.80729318	128	62	64
1302.846104595	128	106	64
1302.846423282	128	30	64
1302.855944238	128	77	64
1302.890174978	144	27	84
1302.910099963	144	62	94
1302.912296869	144	106	92
1302.92242765	144	63	103
1302.951913508	144	55	101
1302.95370303	144	77	119
1302.960111597	128	27	64
1302.96761295	128	62	64
1302.995569149	128	106	64
1303.009262524	128	77	64
1303.031668149	144	106	92
1303.053168063	144	97	89
1303.064026808	144	62	97
1303.086096486	128	21	64
1303.087855491	128	55	64
1303.089516496	144	30	3
1303.093799929	144	77	120
1303.115177381	128	106	64
1303.133531346	128	62	64
1303.137803076	128	97	64
1303.163911758	128	77	64
1303.175889795	144	106	95
1303.195578476	128	30	64
1303.244482319	128	106	64
1303.245120218	144	62	94
1303.282292343	144	30	5
1303.297537249	144	106	96
1303.297743937	128	62	64
1303.379373988	128	30	64
1303.396042774	128	68	64
1303.397137752	144	62	96
1303.416153942	144	27	83
1303.440411298	128	106	64
1303.441164472	144	106	97
1303.464766139	144	21	112
1303.465073444	128	62	64
1303.483457171	144	30	7
1303.487348917	128	27	64
1303.517740129	128	106	64
1303.538566504	128	21	64
1303.554943992	144	106	99
1303.562554152	144	55	91
1303.566702764	144	68	103
1303.569009274	144	62	96
1303.571135945	144	97	90
1303.579114629	128	30	64
1303.621232502	128	63	64
1303.632852531	128	106	64
1303.638784174	128	62	64
1303.644367583	128	97	64
1303.649830442	128	55	64
1303.703073564	144	30	10
1303.711384727	128	68	64
1303.712725084	144	106	101
1303.733303105	144	62	101
1303.758806009	128	30	64
1303.777813471	128	106	64
1303.805301681	128	62	64
1303.80857459	144	63	102
1303.844114514	144	55	93
1303.858291025	144	106	102
1303.899095201	144	62	100
1303.899410793	144	30	14
1303.913557991	144	27	84
1303.944009929	128	106	64
1303.948340363	128	55	64
1303.965314584	128	62	64
1304.012598448	128	30	64
1304.015474397	128	27	64
1304.02721684	144	106	103
1304.051637178	144	62	100
1304.102762219	128	106	64
1304.115940135	144	55	106
1304.134675987	144	68	47
1304.135662665	128	62	64
1304.1363744	144	30	11
1304.137739549	144	97	95
1304.141531279	128	68	64
1304.212671617	128	97	64
1304.227387192	144	68	65
1304.233776243	144	62	101
1304.245401577	144	106	102
1304.255655032	128	55	64
1304.280452619	128	30	64
1304.281512314	128	106	64
1304.290473425	128	68	64
1304.309965499	128	62	64
1304.361855809	144	68	74
1304.36336276	144	21	114
1304.369072014	144	88	92
1304.388911695	128	88	64
1304.401913746	144	62	98
1304.404069244	128	21	64
1304.41755513	144	27	85
1304.4236239	128	68	64
1304.42499851	144	106	100
1304.426357596	144	77	29
1304.449617623	128	106	64
1304.47173371	128	62	64
1304.474817685	128	63	64
1304.494605469	128	77	64
1304.502942727	128	27	64
1304.509319968	144	68	86
1304.553988591	128	68	64
1304.567858709	144	62	96
1304.578702852	144	77	34
1304.641509891	128	77	64
1304.643831914	144	68	88
1304.6455555	144	106	90
1304.64579365	128	62	64
1304.653337764	144	39	126
1304.683993424	144	63	93
1304.68740333	128	68	64
1304.696749391	144	97	97
1304.69893881	128	106	64
1304.733333125	144	77	38
1304.747274533	144	62	95
1304.780102246	128	97	64
1304.793862883	144	55	113
1304.796144512	128	77	64
1304.811885747	128	62	64
1304.822854404	128	39	64
1304.878942874	144	106	89
1304.886014322	144	77	49
1304.926252934	144	62	96
1304.932816136	128	106	64
1304.958337035	128	77	64
1304.959141526	128	55	64
1304.962409621	144	27	85
1304.9949948	128	62	64
1305.035763917	128	27	64
1305.053377515	144	77	68
1305.112679704	128	77	64
1305.132645398	144	62	91
1305.166469945	144	68	108
1305.211924695	144	77	83
1305.212192543	128	62	64
1305.229159985	144	106	80
1305.249615143	128	106	64
1305.261087397	128	77	64
1305.264790597	144	97	100
1305.300407446	144	21	113
1305.313422964	144	62	92
1305.345151295	128	97	64
1305.370103188	144	39	21
1305.372540464	128	21	64
1305.373299428	128	62	64
1305.381667987	144	77	93
1305.393637425	144	27	91
1305.409771949	128	63	64
1305.414372737	128	77	64
1305.472611901	128	39	64
1305.497337875	128	68	64
1305.505207709	144	62	94
1305.52133846	144	77	107
1305.530408721	128	27	64
1305.573023738	128	77	64
1305.580287603	144	106	77
1305.601377205	128	62	64
1305.610683505	128	106	64
1305.65112909	144	68	103
1305.65871582	144	77	117
1305.714139074	128	77	64
1305.7522134	144	62	92
1305.757387724	144	63	92
1305.800822296	144	77	125
1305.813768356	144	30	112
1305.844727106	128	30	64
1305.852506975	144	39	127
1305.852684839	128	62	64
1305.8651333	128	77	64
1305.875919972	144	97	110
1305.91495278	144	27	100
1305.935570439	128	97	64
1305.950190771	144	30	112
1305.968398917	128	39	64
1305.974608369	144	77	117
1306.000760454	128	27	64
1306.009460738	144	62	95
1306.01115803	128	77	64
1306.063696497	128	30	64
1306.094860575	128	68	64
1306.097649069	144	77	123
1306.100325307	128	62	64
1306.170791824	128	77	64
1306.205052621	144	30	105
1306.255280687	144	77	123
1306.277263269	144	62	94
1306.294472862	128	30	64
1306.299050885	144	21	113
1306.304413764	128	77	64
1306.317299785	144	68	104
1306.322930227	128	21	64
1306.385187361	144	30	106
1306.415756848	144	88	98
1306.4231432	144	27	101
1306.435546572	144	77	121
1306.435707989	128	62	64
1306.441675129	144	55	103
1306.444999223	128	88	64
1306.446267613	144	97	118
1306.469989371	128	77	64
1306.490656685	128	27	64
1306.497346516	128	97	64
1306.586643086	144	62	89
1306.594912601	144	106	82
1306.638940183	128	55	64
1306.716061967	128	62	64
1306.780049	128	68	64
1306.856128928	144	62	89
1306.943372467	144	27	110
1306.969033061	144	68	103
1306.98164031	128	62	64
1306.994049324	128	27	64
1307.041793408	144	39	127
1307.048502745	144	47	65
1307.058957424	144	97	126
1307.079599284	144	27	107
1307.111718999	128	97	64
1307.143774993	128	47	64
1307.14785372	128	27	64
1307.157954112	128	39	64
1307.17585518	144	62	89
1307.208212604	144	27	108
1307.242787223	144	21	115
1307.272830993	128	21	64
1307.286584095	128	27	64
1307.325955488	144	27	107
1307.331724649	128	62	64
1307.393775355	128	27	64
1307.430307109	128	68	64
1307.455177686	144	27	106
1307.485374004	144	21	113
1307.510808032	144	62	95
1307.516670017	128	27	64
1307.554563852	128	21	64
1307.586942236	144	27	104
1307.645167611	128	27	64
1307.6771634	128	62	64
1307.69977806	144	27	105
1307.701413827	144	97	124
1307.74139866	128	97	64
1307.771218816	144	21	114
1307.805371503	128	27	64
1307.837787727	128	21	64
1307.846134726	144	62	92
1308.036781444	128	62	64
1308.052975097	144	77	23
1308.085015532	144	68	94
1308.115823681	128	77	64
1308.147461167	128	30	64
1308.17414893	144	21	117
1308.19985661	144	77	34
1308.211383223	144	27	99
1308.221250872	144	47	66
1308.233728764	144	62	95
1308.25653671	128	63	64
1308.272657955	128	27	64
1308.278956565	144	97	126
1308.282369839	128	77	64
1308.328779013	128	97	64
1308.330434151	128	21	64
1308.362510438	128	47	64
1308.367982005	144	77	51
1308.369476583	128	62	64
1308.430743809	128	77	64
1308.43727987	144	39	18
1308.520681299	144	77	64
1308.554190698	144	62	92
1308.569090778	144	63	69
1308.587798802	128	77	64
1308.702241188	144	77	83
1308.742373664	128	77	64
1308.747455434	128	62	64
1308.783893189	144	21	117
1308.786506577	128	21	64
1308.786569398	144	21	66
1308.823966258	144	27	107
1308.830889858	144	30	106
1308.842234723	144	77	97
1308.845320992	144	97	110
1308.883043837	128	27	64
1308.897464039	128	77	64
1308.928020067	144	62	98
1308.953687147	128	97	64
1309.024631777	144	77	109
1309.031227241	128	68	64
1309.040092052	128	62	64
1309.074451253	128	21	64
1309.074569005	144	21	65
1309.076276126	128	77	64
1309.097998642	128	39	64
1309.187654127	128	106	64
1309.221605511	144	77	118
1309.227313024	144	68	92
1309.233914822	144	62	95
1309.269904078	128	77	64
1309.359089304	144	27	103
1309.370273844	144	77	116
1309.398520008	128	62	64
1309.401958521	128	27	64
1309.431776292	128	77	64
1309.453003665	144	39	11
1309.466262179	128	30	64
1309.47928804	144	106	84
1309.521295612	144	97	78
1309.581402989	144	62	95
1309.593153969	128	63	64
1309.608544994	128	97	64
1309.613972581	128	68	64
1309.63651238	144	47	65
1309.659399809	144	77	114
1309.669238756	128	77	64
1309.669338205	144	77	115
1309.706322433	144	30	103
1309.721587892	128	62	64
1309.733322149	128	39	64
1309.734701038	128	77	64
1309.746316771	128	47	64
1309.746574416	128	30	64
1309.870029545	144	30	107
1309.870417769	144	63	86
1309.889874909	144	62	92
1309.912458959	128	30	64
1309.942614775	144	27	82
1310.034576147	128	27	64
1310.038686118	144	30	103
1310.041281185	128	62	64
1310.053604641	128	68	64
1310.078861881	128	30	64
1310.118975408	144	27	91
1310.124439912	144	97	63
1310.130485285	144	39	9
1310.198908061	144	30	107
1310.206299931	128	97	64
1310.208052384	144	62	90
1310.244079211	128	27	64
1310.245980441	128	30	64
1310.326071368	144	27	61
1310.346457696	128	106	64
1310.3629659	128	62	64
1310.367882288	144	30	106
1310.379898817	128	39	64
1310.383426928	144	88	102
1310.414932767	128	27	64
1310.420549388	128	88	64
1310.429463691	128	30	64
1310.505254008	144	27	96
1310.520240566	144	62	89
1310.533182934	144	30	106
1310.579056291	128	30	64
1310.580289081	128	27	64
1310.657954515	128	62	64
1310.680375882	144	106	86
1310.681173039	144	30	107
1310.723407175	144	27	67
1310.786185234	144	39	6
1310.791029518	128	27	64
1310.795879954	128	30	64
1310.832282452	144	30	113
1310.838477278	144	62	91
1310.88988889	144	27	97
1310.928955263	128	30	64
1310.962434223	128	27	64
1310.993693275	128	62	64
1311.008468383	128	63	64
1311.044933547	144	47	66
1311.05264268	144	30	100
1311.06418378	128	39	64
1311.074837661	144	27	62
1311.112792982	128	30	64
1311.149328836	128	47	64
1311.152209785	128	27	64
1311.185133643	144	62	91
1311.199243558	144	30	97
1311.199454887	144	63	66
1311.226604637	144	27	93
1311.263486931	128	30	64
1311.319410904	128	27	64
1311.320776832	128	106	64
1311.325538478	128	62	64
1311.349395896	144	30	99
1311.370100366	144	39	6
1311.412993626	128	30	64
1311.420133067	144	27	65
1311.507495054	144	62	89
1311.516846282	128	27	64
1311.519749894	144	30	99
1311.580019208	128	30	64
1311.590922573	144	27	102
1311.613574082	144	106	85
1311.646422062	128	39	64
1311.666113613	128	27	64
1311.682823953	144	30	98
1311.729988416	128	30	64
1311.740177389	128	62	64
1311.744566189	144	27	66
1311.792041509	128	21	64
1311.837085543	128	27	64
1311.852651526	144	30	98
1311.895385428	128	30	64
1311.928629824	144	27	102
1311.930839603	144	62	90
1311.953480779	144	39	6
1311.996840637	144	30	99
1312.012446782	128	27	64
1312.045255494	128	30	64
1312.105783353	144	27	63
1312.165979942	144	21	114
1312.168375344	144	30	97
1312.170241307	144	47	64
1312.196467217	128	39	64
1312.200937245	128	27	64
1312.211924912	128	30	64
1312.263615497	128	47	64
1312.280938007	144	30	98
1312.286483013	144	27	98
1312.320749577	128	106	64
1312.370468367	128	27	64
1312.432325187	144	27	66
1312.445888691	128	63	64
1312.521647569	128	27	64
1312.60780834	144	27	102
1312.714061474	128	27	64
1312.736055058	144	27	67
1312.780223745	144	106	78
1312.79729203	144	63	80
1312.812169174	128	27	64
1312.844362919	144	27	92
1312.907971718	128	27	64
1312.930659429	144	27	61
1312.983840591	128	27	64
1312.995817843	144	27	97
1313.08539975	128	27	64
1313.094372889	144	27	66
1313.134744261	128	27	64
1313.148840074	144	27	95
1313.187377268	128	27	64
1313.21628576	144	27	69
1313.267154516	128	27	64
1313.282721587	144	27	99
1313.342953622	128	27	64
1313.366754401	144	27	72
1313.38717776	144	39	119
1313.39684599	144	47	65
1313.430473645	128	27	64
1313.44663917	128	106	64
1313.471022034	128	47	64
1313.485590265	144	27	101
1313.80398615	128	30	64
1313.930501949	144	106	85
1313.967971362	128	62	64
1314.106385453	144	62	95
1314.239146678	144	55	73
1314.52127398	128	63	64
1314.634794235	144	30	79
1315.136721481	144	63	106
1315.153135046	128	30	64
1315.366675651	128	21	64
1315.508472982	128	62	64
1315.683208437	144	62	90
1315.733792863	128	27	64
1315.936707099	144	30	75
1316.323667357	144	88	70
1316.369546213	128	88	64
1316.56071631	128	63	64
1316.603175575	144	97	61
1316.754952298	128	30	64
1317.10585323	144	63	89
1317.283217493	144	21	26
1317.35720994	128	21	64
1317.368289856	144	25	75
1317.37826792	144	30	78
1317.409889282	128	62	64
1317.611368949	144	62	96
1317.815032159	144	27	45
1318.156429597	128	30	64
1319.173862241	144	77	114
1319.288553945	144	30	80
1319.389204384	128	30	64
1319.561162043	144	30	76
1319.602944479	128	30	64
1319.62280451	128	97	64
1319.651129059	144	97	66
1319.71088423	144	30	75
1319.751834727	128	30	64
1319.763855501	128	97	64
1319.83206936	128	25	64
1319.86605975	144	21	15
1319.875096403	128	63	64
1319.876939754	144	30	75
1319.892921772	144	25	53
1319.916736377	128	30	64
1319.941632692	128	25	64
1320.026863338	144	30	75
1320.065628789	128	21	64
1320.069233515	128	30	64
1320.137539542	144	88	78
1320.159746899	144	30	77
1320.167629731	128	88	64
1320.220548293	128	30	64
1320.325330605	144	30	76
1320.369633081	128	30	64
1320.426093743	128	55	64
1320.472007306	144	63	54
1320.477020682	144	30	78
1320.519263188	128	30	64
1320.536814363	128	27	64
1320.608796865	144	30	68
1320.651443089	128	30	64
1320.800902425	144	27	43
1320.904511965	128	106	64
1321.176543602	128	62	64
1321.319828982	144	25	8
1321.32347269	144	62	99
1321.840776065	128	25	64
1321.978320062	144	25	25
1322.057494432	128	25	64
1322.113330137	128	39	64
1322.247769602	144	106	112
1322.265762301	128	106	64
1322.355571681	144	21	14
1322.355792568	144	106	56
1322.362112438	128	63	64
1322.487330287	144	25	51
1322.501780435	128	106	64
1322.573876752	128	25	64
1322.633590817	128	21	64
1322.814503087	144	63	66
1322.870742591	144	30	80
1322.923395513	128	30	64
1322.959078955	128	27	64
1323.244754025	128	62	64
1323.286046782	144	25	61
1323.3536322	144	39	12
1323.380287667	144	62	67
1323.615284126	128	25	64
1323.72517183	128	77	64
1323.912895617	144	27	83
1324.435270706	128	27	64
1324.468177496	144	25	62
1324.716326162	128	63	64
1324.831224318	128	25	64
1324.979259277	144	63	66
1325.250465092	128	62	64
1325.321692702	128	63	64
1325.38562337	144	62	42
1325.410667822	144	63	67
1325.458458759	144	88	45
1325.546833077	128	39	64
1325.608119768	128	88	64
1325.944539807	144	88	45
1325.981518732	144	27	80
1326.074717989	128	88	64
1326.103337208	144	39	14
1326.423836342	144	88	45
1326.486006225	128	27	64
1326.575059003	128	88	64
1326.58380579	144	25	65
1326.675131046	128	62	64
1326.811995912	144	62	33
1327.086017623	128	25	64
1327.303868106	128	62	64
1327.314016656	128	39	64
1327.427986366	144	62	41
1327.460801351	128	63	64
1327.822036827	144	63	40
1328.010188361	144	27	77
1328.136904919	144	39	17
1328.236544832	144	21	15
1328.243415068	128	21	64
1328.315785441	144	21	15
1328.391915526	128	21	64
1328.425509311	128	62	64
1328.534669964	144	62	35
1328.693615844	128	106	64
1328.73423316	144	25	53
1328.734563009	144	97	57
1328.818736806	128	27	64
1328.886200502	144	55	124
1328.999850229	144	21	13
1329.057687533	128	21	64
1329.120583394	128	55	64
1329.272018028	144	21	14
1329.306203382	128	21	64
1329.480751592	128	25	64
1329.530172222	128	39	64
1329.63270012	144	21	13
1329.724563012	128	21	64
1329.862625411	128	62	64
1330.19733632	128	63	64
1330.250056985	144	27	20
1330.453084217	144	39	66
1330.458450655	144	63	27
1330.945773042	128	27	64
1331.144762526	144	77	85
1331.167598754	144	21	16
1331.235827314	144	25	38
1331.291914755	128	77	64
1331.393340188	144	77	86
1331.448144043	128	77	64
1331.551239194	144	77	86
1331.562787266	128	77	64
1331.652101851	144	77	86
1331.74412655	128	77	64
1331.819131366	144	77	87
1331.925535172	128	77	64
1331.986030046	144	77	87
1332.067277125	128	77	64
1332.129385256	144	77	85
1332.244282915	128	77	64
1332.308190499	144	77	84
1332.346515695	144	55	122
1332.402236361	128	77	64
1332.463177434	144	77	84
1332.567019837	128	77	64
1332.614498743	128	39	64
1332.65078507	144	77	85
1332.739149112	128	77	64
1332.814579845	144	77	87
1332.906854766	144	27	15
1332.922550141	128	77	64
1333.136738071	128	21	64
1333.397549819	128	55	64
1333.501710596	128	27	64
1333.591671364	144	88	80
1333.714956475	128	25	64
1333.837203153	144	39	76
1333.991312104	128	63	64
1334.553118491	144	25	127
1334.571141413	128	25	64
1335.084275845	144	27	16
1335.363220114	144	63	20
1335.748774614	128	88	64
1336.522050537	144	62	18
1336.566988904	128	27	64
1337.180149521	144	88	71
1337.328583158	144	27	28
1337.452302958	144	21	116
1337.901369101	144	25	44
1339.081682402	144	55	41
1339.11512739	128	25	64
1339.194662815	144	25	51
1339.211093805	128	25	64
1339.264446616	128	27	64
1339.474166205	128	62	64
1340.053493505	144	25	51
1340.091971893	128	25	64
1340.241080098	144	62	38
1340.389364833	144	27	34
1340.612090558	128	27	64
1340.614431162	144	22	51
1340.867041586	144	77	79
1340.909718477	128	77	64
1340.917313766	128	88	64
1340.994885048	144	77	82
1341.023733388	144	25	51
1341.04494594	128	77	64
1341.075516151	128	25	64
1341.16271516	144	77	84
1341.216145403	128	77	64
1341.288688898	128	55	64
1341.309339264	144	77	85
1341.356741259	128	77	64
1341.461933893	144	77	87
1341.53481682	128	77	64
1341.613006139	144	77	84
1341.675708532	128	77	64
1341.712506366	128	63	64
1341.782203511	144	77	83
1341.790447234	128	97	64
1341.833931156	128	77	64
1341.937042884	144	77	79
1341.972988713	144	25	55
1341.996642028	128	77	64
1342.0404894	128	25	64
1342.092331583	144	77	79
1342.177554194	128	77	64
1342.624114101	144	27	35
1342.665557204	144	63	49
1342.682817074	128	27	64
1342.765220416	128	63	64
1342.835631324	144	63	49
1342.903225556	144	25	60
1342.913293016	128	62	64
1342.94049494	128	63	64
1342.976483609	144	63	49
1342.990508468	128	25	64
1343.118335877	144	27	35
1343.191132741	128	27	64
1343.41743561	128	63	64
1343.451713338	144	63	47
1343.485960465	144	62	33
1343.93594993	144	25	61
1343.990090138	128	25	64
1344.020626657	128	63	64
1344.301685813	144	88	75
1344.461064413	144	27	35
1344.517122875	128	88	64
1344.522060288	128	27	64
1344.674937773	128	62	64
1344.705402108	144	88	75
1344.919220468	144	25	65
1344.957071579	144	27	41
1344.989986694	128	25	64
1345.013234417	128	27	64
1345.354542404	128	88	64
1345.534638354	144	97	93
1345.572878329	144	88	75
1345.573464317	128	97	64
1345.91612026	144	25	73
1345.934469115	128	21	64
1345.991056578	128	25	64
1346.038253539	144	27	47
1346.069690027	128	27	64
1346.122246789	128	22	64
1346.124060251	144	21	73
1346.178047314	128	21	64
1346.196675984	144	63	10
1346.261345397	144	21	71
1346.506829415	144	27	45
1346.542227746	128	27	64
1346.707252107	144	97	70
1346.785428656	128	97	64
1346.869176194	144	25	80
1346.936852702	144	62	37
1347.013572091	128	25	64
1347.148441607	144	22	72
1347.324046026	144	47	62
1347.434324832	128	62	64
1347.455911249	144	27	52
1347.470480356	128	47	64
1347.518133597	128	27	64
1347.537588457	128	88	64
1347.575808925	144	62	36
1347.669056569	144	97	51
1347.739330605	128	62	64
1347.789352499	128	97	64
1347.802795346	144	25	86
1347.827820817	144	62	35
1347.861023254	144	27	51
1347.87397246	128	25	64
1347.894152349	128	27	64
1347.933677735	128	62	64
1348.031530955	128	39	64
1348.060284322	144	62	34
1348.166532885	128	63	64
1348.173646166	128	62	64
1348.26481435	144	62	35
1348.277207571	144	97	49
1348.314007894	128	97	64
1348.351478977	144	63	36
1348.381147888	128	62	64
1348.489086358	144	62	34
1348.541902365	144	47	64
1348.655979297	128	47	64
1348.701574682	128	62	64
1348.736859536	144	25	94
1348.807100942	128	25	64
1348.816951324	144	62	37
1349.123654942	144	30	65
1349.186824559	128	30	64
1349.235483606	144	27	49
1349.307009415	144	30	65
1349.308569699	128	27	64
1349.366878727	128	30	64
1349.490396727	144	30	66
1349.533828736	128	30	64
1349.543510229	128	62	64
1349.583501959	144	25	102
1349.657787099	128	25	64
1349.68799646	144	30	66
1349.694200433	144	62	48
1349.733386174	128	30	64
1349.832784955	144	30	64
1349.853150443	144	47	63
1349.864582143	144	97	65
1349.899157235	128	30	64
1349.974489131	128	47	64
1349.980528762	128	97	64
1349.990610651	144	30	61
1350.011967507	144	27	55
1350.08145471	128	27	64
1350.085870586	128	30	64
1350.121292149	144	30	61
1350.136032234	128	62	64
1350.183184234	128	30	64
1350.272985639	144	62	54
1350.400645628	128	62	64
1350.453322795	144	25	108
1350.525027877	128	25	64
1350.542486118	144	62	52
1350.619717778	128	62	64
1350.745857859	144	62	53
1350.806286005	144	97	58
1350.82789637	128	62	64
1350.874759504	128	97	64
1350.892134369	144	27	60
1350.93582247	128	27	64
1350.950498303	144	62	55
1351.257227066	144	47	63
1351.319518939	144	25	115
1351.390898043	128	25	64
1351.453795326	128	47	64
1351.60997492	144	97	57
1351.618145104	128	21	64
1351.626121216	128	63	64
1351.723310424	128	97	64
1351.7485105	144	27	74
1351.759590575	128	27	64
1352.087376116	144	97	58
1352.170398605	128	97	64
1352.222657095	144	25	120
1352.242164992	128	25	64
1352.33939875	128	22	64
1352.653834733	144	39	23
1352.672966814	144	27	90
1352.681423837	128	27	64
1353.113955693	144	47	62
1353.129024394	144	25	127
1353.164111092	144	55	68
1353.167548932	144	27	96
1353.202808121	128	27	64
1353.224278019	128	47	64
1353.224417262	128	25	64
1353.226570837	144	63	64
1353.237222714	128	55	64
1353.293350402	144	97	60
1353.388332497	128	97	64
1353.58372147	144	55	64
1353.628680652	128	55	64
1353.657618105	144	88	77
1353.702799082	128	88	64
1353.736398859	128	63	64
1354.069702325	144	25	127
1354.099139113	144	97	59
1354.158509169	128	25	64
1354.182458725	128	97	64
1354.188815308	144	21	95
1354.27689664	128	21	64
1354.364956689	144	27	96
1354.410260738	128	27	64
1354.437335601	144	55	71
1354.502523302	128	55	64
1354.559268686	144	88	78
1354.597097334	128	39	64
1354.618884351	128	88	64
1354.632472319	144	63	71
1354.655330574	144	22	88
1354.903125749	144	25	127
1354.975849139	144	97	60
1354.993214774	128	25	64
1354.996721976	128	63	64
1355.046477061	128	97	64
1355.32985437	144	27	86
1355.36656704	144	65	99
1355.383394657	128	27	64
1355.408761241	144	97	70
1355.440305869	144	88	80
1355.474724903	128	88	64
1355.496838752	128	97	64
1355.517492704	144	63	65
1355.833407879	144	25	127
1355.890585876	128	25	64
1355.905312541	128	63	64
1356.072880571	128	22	64
1356.307105264	144	88	87
1356.315143874	144	22	93
1356.353439549	128	62	64
1356.371050096	128	88	64
1356.567707069	144	62	68
1356.649114705	128	62	64
1356.761138971	144	62	72
1356.80181627	144	97	75
1356.803179477	144	25	127
1356.824718949	128	62	64
1356.848293635	128	97	64
1356.851136698	144	63	60
1356.87416187	128	25	64
1356.902384928	144	62	68
1356.983204736	128	62	64
1356.994443475	128	65	64
1357.06883677	144	62	70
1357.18717676	144	55	75
1357.240936802	128	55	64
1357.258697884	144	88	95
1357.303974065	128	88	64
1357.437113397	144	39	102
1357.471152084	128	39	64
1357.718957211	144	25	127
1357.774115424	128	25	64
1357.77492217	144	97	74
1357.817990468	128	97	64
1357.973033972	128	63	64
1358.161211579	144	27	86
1358.196131204	128	27	64
1358.226677287	144	88	90
1358.259196634	128	88	64
1358.536758015	144	65	96
1358.670584329	144	25	127
1358.693812158	144	63	74
1358.709861949	144	97	74
1358.741676548	128	25	64
1358.763394741	128	97	64
1359.176983717	144	88	90
1359.17980986	144	27	96
1359.185517959	144	97	73
1359.205577657	128	27	64
1359.220667336	144	39	108
1359.220851278	128	88	64
1359.260566647	128	97	64
1359.296503262	128	63	64
1359.323199889	128	39	64
1359.483150514	144	55	77
1359.538429369	128	55	64
1359.664287483	128	22	64
1359.701263236	144	25	126
1359.74238771	128	25	64
1359.824161751	128	62	64
1359.94811713	144	62	67
1360.006382009	128	62	64
1360.127791241	144	62	68
1360.141581273	144	21	101
1360.16941935	128	21	64
1360.209540895	144	88	85
1360.21815264	128	62	64
1360.226746556	144	27	87
1360.241266687	128	27	64
1360.241419479	128	88	64
1360.26638894	128	65	64
1360.362085241	144	62	69
1360.379010651	144	21	96
1360.412548069	128	62	64
1360.425704206	128	21	64
1360.551587232	144	62	71
1360.620248413	144	25	127
1360.659137393	128	25	64
1360.700901216	144	97	78
1360.761276446	128	97	64
1360.905930805	144	65	99
1361.085516273	144	27	88
1361.12550303	144	88	90
1361.153413148	144	39	113
1361.158897803	128	27	64
1361.171352345	128	88	64
1361.254582787	128	39	64
1361.559609344	144	55	74
1361.602357047	144	25	127
1361.607319074	128	55	64
1361.633210699	144	97	75
1361.642305619	128	25	64
1361.696717021	128	97	64
1362.109273683	144	27	93
1362.115890435	128	27	64
1362.128965925	144	88	90
1362.160321494	128	88	64
1362.550582191	144	63	99
1362.652980304	144	25	127
1362.666951604	144	97	74
1362.673720497	128	63	64
1362.70852163	128	97	64
1362.712057028	128	65	64
1362.797502388	128	25	64
1363.107075183	144	27	97
1363.136225064	128	27	64
1363.140998952	144	97	75
1363.14276101	144	88	84
1363.179094694	128	88	64
1363.193478437	128	97	64
1363.23783294	144	39	112
1363.295304096	144	65	99
1363.340253116	128	39	64
1363.482407376	144	22	100
1363.566246518	128	22	64
1363.574284526	144	55	59
1363.634375369	128	55	64
1363.66986905	144	25	127
1363.710568156	128	25	64
1364.137676437	144	63	99
1364.160220774	144	88	77
1364.206824572	128	88	64
1364.294728644	128	63	64
1364.475308585	128	62	64
1364.640862926	144	62	69
1364.650124019	144	97	81
1364.70779033	128	97	64
1364.972981198	144	21	95
1365.069781813	144	25	5
1365.112419605	128	65	64
1365.136635053	128	21	64
1365.167956627	144	27	102
1365.169894235	144	39	102
1365.196279949	128	27	64
1365.353858331	128	39	64
1365.495236623	144	21	95
1365.511121932	128	21	64
1365.652395045	144	65	99
1365.670144705	128	62	64
1365.69627401	144	63	91
1365.696589904	144	97	76
1365.696848107	144	22	89
1365.7506488	128	97	64
1365.829474628	128	63	64
1366.15593527	144	62	85
1366.192314183	128	62	64
1366.753404339	144	97	72
1366.808511422	128	97	64
1367.032839289	128	65	64
1367.06339869	144	88	84
1367.109417092	128	88	64
1367.16947982	144	27	110
1367.179694419	128	27	64
1367.218404812	144	88	85
1367.257606055	128	88	64
1367.33719134	144	97	68
1367.380479723	128	97	64
1367.770007326	144	39	100
1367.778280739	144	65	94
1367.799083275	144	55	94
1367.847706278	128	55	64
1367.857131933	128	39	64
1368.201078231	144	27	104
1368.222500109	128	27	64
1368.335905963	144	62	70
1368.372528907	128	62	64
1368.46315407	128	25	64
1368.652279342	144	25	82
1368.867271429	128	25	64
1369.069188037	144	27	103
1369.100877669	128	27	64
1369.620348365	128	65	64
1369.746411375	144	63	85
1370.268423194	144	62	89
1370.287821989	144	39	97
1370.353311651	144	25	98
1370.371212607	144	65	96
1370.390347574	128	39	64
1370.425190847	128	25	64
1370.551952247	144	55	96
1370.552326326	128	62	64
1370.755367405	144	21	79
1370.82819388	144	27	105
1370.845161666	128	21	64
1370.84831619	128	27	64
1371.184309804	144	21	80
1371.227042112	128	21	64
1371.587930809	144	27	105
1371.67652567	128	27	64
1371.79000358	144	21	71
1371.845920968	128	21	64
1372.002861511	128	55	64
1372.194661177	144	55	77
1372.245449586	128	55	64
1372.521269317	144	21	75
1372.562371356	128	65	64
1372.57918832	128	21	64
1372.639766444	144	39	104
1372.740454719	128	39	64
1372.871765374	144	65	99
1373.123587898	128	63	64
1373.127873261	144	27	96
1373.194716757	128	27	64
1373.355898761	144	63	86
1373.376073012	144	62	100
1373.420246841	128	62	64
1373.551193122	144	21	69
1373.694359717	128	21	64
1374.038214232	144	39	68
1374.086039124	144	25	113
1374.146237065	144	27	34
1374.182355171	128	39	64
1374.232906561	128	25	64
1374.323114435	144	21	71
1374.37913687	128	21	64
1374.555135148	144	39	109
1374.658479894	128	39	64
1374.705039686	128	65	64
1374.756986096	128	63	64
1374.807103435	128	22	64
1374.934087401	144	65	94
1375.095400128	144	97	73
1375.130458362	128	97	64
1375.137497146	128	27	64
1375.154665579	144	21	70
1375.212879474	128	21	64
1375.370514585	144	39	66
1375.457087465	128	39	64
1375.837904206	144	39	66
1375.922680917	144	21	75
1375.961895619	128	21	64
1375.982316509	128	39	64
1375.998042681	144	27	77
1376.011374874	128	27	64
1376.096792784	144	97	66
1376.160205155	128	97	64
1376.287451559	144	25	109
1376.354758485	144	39	116
1376.422857689	128	39	64
1376.799452641	128	25	64
1376.806983124	144	21	76
1376.896263222	128	21	64
1376.929250125	144	97	69
1377.000041227	128	97	64
1377.321576086	144	39	67
1377.349346719	144	97	70
1377.355750586	144	27	68
1377.402951354	128	27	64
1377.423520017	128	39	64
1377.439501025	128	97	64
1377.459049122	144	55	114
1377.670467428	128	55	64
1378.545950556	144	22	76
1378.631163307	128	22	64
1378.655270427	144	39	73
1378.725635412	128	39	64
1378.938082101	144	39	115
1378.992037122	128	39	64
1379.119998179	128	65	64
1379.142469088	144	21	76
1379.373850778	144	27	69
1379.376824805	128	27	64
1379.397797258	128	21	64
1379.425259316	144	55	127
1379.558739986	128	55	64
1379.769957341	144	27	70
1379.81266049	128	27	64
1380.088435081	144	25	106
1380.699027695	128	25	64
1380.753870113	144	39	68
1380.833629753	144	63	90
1380.898620118	128	39	64
1380.9627888	128	63	64
1380.989089079	128	22	64
1381.078154467	144	39	110
1381.220439414	128	39	64
1381.338676413	144	88	101
1381.370707901	128	88	64
1381.769303987	144	63	89
1381.814864805	144	62	92
1381.833206727	144	27	85
1381.844387327	144	55	55
1381.85477748	128	62	64
1381.976464486	128	27	64
1382.091276829	144	21	90
1382.199610132	144	27	102
1382.246782867	128	21	64
1382.287062279	128	27	64
1382.287807111	144	25	98
1382.454836472	144	39	71
1382.80258611	144	62	97
1382.829466535	128	62	64
1382.86476426	128	25	64
1383.26191684	128	63	64
1383.366403379	144	88	87
1383.391425835	128	55	64
1383.417118039	128	88	64
1383.429418711	144	63	88
1383.811379031	144	62	87
1383.84777151	144	27	113
1383.87478647	128	62	64
1383.905342382	128	27	64
1384.235320587	128	63	64
1384.338471779	144	25	103
1384.365388565	144	63	85
1384.572575802	128	63	64
1384.828329171	144	62	92
1384.871550364	128	62	64
1384.901967121	144	27	101
1384.907599337	128	27	64
1384.924311906	144	21	96
1384.999551923	128	25	64
1385.128184573	128	21	64
1385.3677877	144	63	85
1385.547794914	128	30	64
1385.854423822	144	62	86
1385.892819043	128	62	64
1385.909210125	128	63	64
1385.998265195	128	39	64
1386.020148076	144	55	19
1386.339245916	144	25	81
1386.398779068	144	63	84
1386.437983133	144	39	101
1386.707483183	128	39	64
1386.925025587	144	27	92
1386.934647157	144	62	90
1386.956593196	128	27	64
1386.962491478	128	63	64
1386.96393169	128	62	64
1387.045442466	128	55	64
1387.083189886	128	25	64
1387.4999664	144	63	79
1387.743913295	144	21	21
1387.751854339	128	21	64
1388.022511801	144	62	82
1388.043425634	128	62	64
1388.057839453	128	63	64
1388.457276079	144	21	26
1388.497018882	128	21	64
1388.520426382	144	25	113
1388.620940701	144	21	25
1388.638810745	144	63	75
1388.698047796	128	21	64
1388.783736147	144	21	26
1388.862163424	128	21	64
1388.949949222	144	21	24
1389.012231059	128	21	64
1389.052525873	144	27	67
1389.064097298	144	62	93
1389.089491624	144	88	66
1389.122862455	128	62	64
1389.161491864	128	63	64
1389.203002031	128	88	64
1389.248397098	128	25	64
1389.303204005	128	27	64
1389.329180298	144	88	67
1389.440247181	128	88	64
1389.613114783	144	63	62
1389.989406092	144	21	16
1390.0636986	128	21	64
1390.138692105	144	21	16
1390.171988787	144	62	92
1390.177944815	128	62	64
1390.214017736	128	21	64
1390.215218314	128	63	64
1390.224599551	144	55	47
1390.268885418	128	55	64
1390.304893616	144	21	19
1390.362722168	128	21	64
1390.45126823	144	21	20
1390.512599731	128	21	64
1390.620966255	144	39	112
1390.653627724	144	27	76
1390.663560126	144	21	20
1390.679694246	128	21	64
1390.695582441	128	27	64
1390.717315189	144	69	102
1390.719841989	144	25	78
1390.750772056	144	63	54
1390.767234169	128	39	64
1390.785067512	144	55	65
1390.82317143	144	21	21
1390.83198051	128	55	64
1390.844775973	128	21	64
1390.934401092	144	21	25
1390.994983998	128	21	64
1391.102472293	144	21	27
1391.150002395	128	25	64
1391.162646846	128	21	64
1391.202939593	144	62	90
1391.236374353	144	21	26
1391.242669997	128	62	64
1391.296710519	144	55	59
1391.313430096	128	21	64
1391.325418089	128	63	64
1391.347539354	128	55	64
1391.350408654	144	21	26
1391.44677395	128	21	64
1391.516462209	144	55	55
1391.564421135	128	55	64
1391.589608009	144	21	26
1391.612692317	128	21	64
1391.700966894	144	21	24
1391.739463478	144	55	61
1391.779999154	128	21	64
1391.787116783	128	55	64
1391.805878641	144	63	56
1391.923870781	144	21	26
1391.946378015	128	21	64
1391.963524832	144	55	64
1392.008304624	128	55	64
1392.034171823	144	21	27
1392.095238149	128	21	64
1392.155425423	144	55	73
1392.20088943	128	55	64
1392.2025472	144	21	27
1392.264139175	128	21	64
1392.347432403	144	55	76
1392.396949992	128	55	64
1392.428383398	144	21	25
1392.462645471	128	21	64
1392.507388083	144	55	70
1392.534240633	144	21	26
1392.552431544	128	55	64
1392.596301595	128	21	64
1392.59700632	144	27	57
1392.636288191	144	55	63
1392.636789587	128	27	64
1392.68143617	128	55	64
1392.702677375	144	21	30
1392.751037291	144	55	63
1392.761819689	128	21	64
1392.797213135	128	55	64
1392.830154514	128	63	64
1392.874639118	144	55	66
1392.883501984	144	21	34
1392.922682808	128	55	64
1392.943845036	144	63	55
1392.946001497	128	21	64
1392.997767982	144	55	69
1393.037265505	144	21	34
1393.038396399	128	55	64
1393.046414245	144	27	63
1393.052519539	144	25	82
1393.112594091	128	21	64
1393.120495109	144	55	67
1393.142486641	128	25	64
1393.164917486	128	55	64
1393.16547742	144	66	85
1393.18784168	144	21	34
1393.192901804	128	27	64
1393.21037307	144	88	97
1393.255649718	128	88	64
1393.259149595	144	55	64
1393.303232759	128	55	64
1393.331944466	128	21	64
1393.384830349	128	69	64
1393.390143719	144	55	63
1393.404202165	144	21	37
1393.433493877	128	55	64
1393.463051292	128	21	64
1393.516194564	144	55	64
1393.563179922	128	55	64
1393.606791032	144	21	38
1393.615069499	128	21	64
1393.64062674	144	55	63
1393.671848172	144	39	113
1393.685729912	128	55	64
1393.771776093	144	55	62
1393.774962351	144	62	105
1393.814838887	128	55	64
1393.815830585	128	39	64
1393.835472683	144	21	34
1393.835602547	128	21	64
1393.894789093	128	63	64
1393.902061789	144	55	65
1393.938198193	144	21	37
1393.949840013	128	55	64
1393.996611007	128	21	64
1394.084989967	144	21	39
1394.137501208	144	27	64
1394.146485038	128	21	64
1394.187311051	144	25	55
1394.216840939	128	27	64
1394.353517471	144	63	63
1394.363899614	144	21	33
1394.371320409	144	69	97
1394.396119964	128	21	64
1394.488000146	144	21	37
1394.513257507	128	21	64
1394.607093712	144	21	42
1394.647149926	144	27	68
1394.679566532	128	21	64
1394.735207173	128	27	64
1394.767740832	144	21	38
1394.84853606	128	21	64
1394.92094788	144	21	38
1395.090951339	128	21	64
1395.104861356	144	21	38
1395.196708835	128	21	64
1395.253172672	144	21	42
1395.330219045	128	21	64
1395.419237062	144	21	41
1395.486234461	144	97	78
1395.497921685	128	21	64
1395.568309508	144	21	42
1395.610189952	128	97	64
1395.630438667	128	21	64
1395.675741459	128	63	64
1395.687231165	144	27	58
1395.700946054	144	21	45
1395.707255319	128	62	64
1395.7236893	128	27	64
1395.781295119	128	21	64
1395.851330024	144	21	43
1395.930456906	128	21	64
1396.001250265	144	21	43
1396.063619945	128	21	64
1396.13498672	144	21	46
1396.197174054	144	27	54
1396.278084454	144	88	91
1396.278580949	128	27	64
1396.339870229	128	21	64
1396.347374956	128	88	64
1396.376204353	144	21	46
1396.446631163	128	21	64
1396.517718469	144	21	45
1396.557083543	128	66	64
1396.57993582	128	21	64
1396.649187303	144	62	91
1396.668614009	144	21	46
1396.682042932	128	62	64
1396.698197694	144	63	84
1396.729940013	128	21	64
1396.783735882	144	27	79
1396.819312563	128	27	64
1396.826885906	144	39	54
1396.844964492	144	27	80
1396.874464192	144	21	48
1396.874642461	128	39	64
1396.875985878	128	69	64
1396.877745268	144	39	35
1396.880771532	128	21	64
1396.891195417	128	27	64
1396.898229795	144	66	87
1396.984841101	144	21	44
1397.022068769	128	39	64
1397.0221659	144	39	53
1397.029200736	128	21	64
1397.082181095	128	39	64
1397.082273032	144	39	27
1397.172898388	144	21	41
1397.232487771	128	39	64
1397.238088902	144	39	49
1397.330820258	128	39	64
1397.330911486	144	39	28
1397.45527754	144	27	74
1397.481414909	128	39	64
1397.508992197	128	27	64
1397.534857291	144	39	52
1397.597618391	128	39	64
1397.597715334	144	39	29
1397.607533135	128	21	64
1397.656371056	144	21	45
1397.689430038	128	39	64
1397.7306591	128	21	64
1397.737758805	144	39	44
1397.818324598	144	21	44
1397.879817705	128	21	64
1397.881263762	128	39	64
1397.881608662	144	39	21
1397.939713605	128	39	64
1397.952572791	144	27	74
1397.961537198	144	39	41
1397.972194879	144	21	48
1397.9853497	128	27	64
1397.995700095	144	69	104
1398.030103512	128	21	64
1398.118452038	144	21	49
1398.119308486	128	39	64
1398.119496642	144	39	19
1398.17610772	128	39	64
1398.220659035	144	39	39
1398.282339827	128	21	64
1398.356512263	144	21	51
1398.364367372	128	39	64
1398.364624502	144	39	14
1398.408678493	128	39	64
1398.415248659	128	21	64
1398.469142659	144	39	34
1398.505228392	144	21	47
1398.529781397	128	21	64
1398.575053357	128	39	64
1398.580031041	144	39	11
1398.617939455	144	21	44
1398.639359226	128	39	64
1398.698401796	128	21	64
1398.717483774	144	39	33
1398.771291225	144	21	46
1398.78960699	128	39	64
1398.813253785	144	39	11
1398.88125251	128	39	64
1398.966987449	144	39	31
1398.974007088	144	27	62
1398.988071566	128	21	64
1399.004563089	128	27	64
1399.023549028	144	21	46
1399.060907201	128	39	64
1399.06100331	144	39	7
1399.097827649	128	21	64
1399.140157167	128	39	64
1399.168223233	144	21	46
1399.182257734	144	39	28
1399.231745447	128	21	64
1399.249839068	144	100	49
1399.280400381	128	39	64
1399.298108254	144	39	10
1399.314691285	128	100	64
1399.37201913	128	39	64
1399.405288737	144	21	52
1399.416700824	144	100	61
1399.422214727	144	97	74
1399.425496785	144	39	28
1399.449696791	128	21	64
1399.477675355	128	100	64
1399.499691323	144	62	87
1399.522701335	144	27	63
1399.523328564	128	39	64
1399.526278849	144	39	11
1399.55695614	144	21	54
1399.5661384	144	100	67
1399.576768276	128	27	64
1399.623877757	128	39	64
1399.647764966	144	39	30
1399.662205498	128	100	64
1399.728162073	144	100	70
1399.80125031	128	39	64
1399.801430898	144	39	12
1399.847075473	128	100	64
1399.855837965	128	39	64
1399.857259716	128	21	64
1399.901510967	144	21	51
1399.906583598	144	39	32
1399.917251943	144	100	68
1399.980758448	128	21	64
1399.981309408	128	39	64
1399.992224053	128	100	64
1399.996921894	144	39	15
1400.053252964	144	21	52
1400.063348416	144	100	66
1400.089979452	128	39	64
1400.099528269	128	21	64
1400.139286428	144	39	34
1400.143234666	128	100	64
1400.149465725	144	21	52
1400.218794064	144	100	66
1400.226386875	128	39	64
1400.22891249	128	21	64
1400.254795339	128	63	64
1400.286917353	144	39	18
1400.308208251	128	100	64
1400.316108225	144	21	53
1400.324372996	128	39	64
1400.365133907	144	100	65
1400.375355822	144	39	35
1400.456135728	128	39	64
1400.465284745	144	63	104
1400.479167939	128	100	64
1400.488345877	144	39	18
1400.489446446	128	21	64
1400.513332771	128	69	64
1400.531268532	144	100	66
1400.550155456	144	27	62
1400.555356254	144	21	54
1400.55833796	128	39	64
1400.586759844	128	27	64
1400.598603395	128	21	64
1400.621514291	144	39	36
1400.628609541	128	100	64
1400.675772239	128	39	64
1400.707136528	128	66	64
1400.712294219	144	100	65
1400.722134809	144	39	18
1400.789631954	128	39	64
1400.813958252	128	100	64
1400.873392256	144	39	37
1400.880171774	144	100	65
1400.960942745	128	39	64
1400.963310411	144	39	21
1400.979542225	128	100	64
1401.039037893	128	39	64
1401.046611128	144	100	65
1401.055986692	144	66	91
1401.094708768	144	39	37
1401.14620441	128	100	64
1401.189887579	128	39	64
1401.194234145	144	39	21
1401.198284025	144	100	66
1401.277665375	128	39	64
1401.290885059	144	21	53
1401.304225227	144	69	99
1401.312794306	128	100	64
1401.321989449	144	39	38
1401.348941194	128	21	64
1401.366784848	144	100	67
1401.391121862	128	39	64
1401.394668108	144	27	54
1401.417282819	144	39	22
1401.420400936	144	21	53
1401.476727845	128	100	64
1401.481825952	128	27	64
1401.497449861	128	21	64
1401.504360999	144	27	15
1401.506577144	128	39	64
1401.55490728	144	39	39
1401.567919172	144	100	65
1401.568128731	144	21	54
1401.608667878	128	27	64
1401.630963308	128	21	64
1401.643146368	128	39	64
1401.643331869	128	100	64
1401.646267293	144	27	41
1401.665317167	144	39	26
1401.693141109	128	27	64
1401.693237512	144	27	14
1401.719116232	144	21	56
1401.733409826	144	100	65
1401.758693173	128	39	64
1401.761653298	128	27	64
1401.78105817	128	21	64
1401.792861282	128	100	64
1401.804635597	144	39	43
1401.815631997	144	27	41
1401.861889796	128	27	64
1401.861980383	144	27	12
1401.872183923	144	21	56
1401.883545261	144	100	65
1401.894175546	128	39	64
1401.908860222	128	100	64
1401.916390597	144	39	30
1401.94329269	128	27	64
1401.943381894	144	27	44
1401.946877265	128	21	64
1401.981247323	144	100	64
1402.001535279	128	27	64
1402.001628165	144	27	16
1402.018157969	144	21	56
1402.042342058	128	100	64
1402.060264047	128	39	64
1402.06044937	144	39	42
1402.078957085	128	27	64
1402.079047382	144	27	48
1402.116030677	128	21	64
1402.133453152	144	100	64
1402.152382024	144	21	56
1402.163146263	128	39	64
1402.166060673	144	39	29
1402.176038177	128	27	64
1402.176131147	144	27	12
1402.229764487	128	100	64
1402.230994397	128	63	64
1402.248205449	128	21	64
1402.256321989	128	39	64
1402.256730218	128	27	64
1402.25679892	144	27	38
1402.304187102	144	39	42
1402.323137893	128	27	64
1402.323230327	144	27	14
1402.333540741	144	100	62
1402.33975546	144	21	56
1402.361093359	144	63	111
1402.397770333	128	39	64
1402.399118905	128	27	64
1402.399202537	144	27	34
1402.413345696	128	100	64
1402.416236791	144	39	31
1402.485636659	128	27	64
1402.488944014	128	21	64
1402.489991611	144	27	3
1402.506949344	128	39	64
1402.508931587	128	25	64
1402.520548295	144	100	61
1402.521601468	144	21	57
1402.549006582	128	27	64
1402.549097538	144	27	34
1402.574630154	144	39	44
1402.576189282	128	100	64
1402.597276844	128	21	64
1402.650235291	128	39	64
1402.650329212	144	39	32
1402.698268254	128	27	64
1402.715120936	144	100	61
1402.740782996	128	39	64
1402.742376113	128	100	64
1402.750007081	144	27	27
1402.771796916	128	27	64
1402.788149057	144	39	45
1402.817748327	144	100	60
1402.834168848	144	27	1
1402.846548988	128	27	64
1402.856109643	144	27	26
1402.860269909	128	100	64
1402.877582991	128	62	64
1402.889081439	128	39	64
1402.891890778	144	39	33
1402.903859807	128	27	64
1402.903949304	144	27	11
1402.967467699	144	100	61
1402.973944184	128	27	64
1402.974035215	144	27	32
1402.990411895	128	39	64
1403.0148742	144	39	46
1403.047209912	128	100	64
1403.053680472	144	62	94
1403.060745791	128	27	64
1403.060834924	144	27	4
1403.113103681	128	39	64
1403.135299094	144	100	61
1403.144643685	144	39	32
1403.146425941	128	27	64
1403.146496948	144	27	26
1403.198143096	128	27	64
1403.198239714	144	27	5
1403.226591352	128	39	64
1403.248742969	128	100	64
1403.271015907	144	39	48
1403.314334666	144	100	60
1403.32205297	128	27	64
1403.33275712	144	27	26
1403.359542347	128	39	64
1403.377050384	128	27	64
1403.377142532	144	27	2
1403.383647011	144	39	29
1403.413181893	128	100	64
1403.45562287	128	97	64
1403.455717547	144	97	84
1403.471615655	128	27	64
1403.471704437	144	27	23
1403.473176704	128	39	64
1403.499094875	144	100	59
1403.506931057	128	69	64
1403.521497478	144	39	46
1403.525251123	144	21	41
1403.527232459	128	27	64
1403.527306055	144	27	6
1403.575348857	128	100	64
1403.582373354	128	21	64
1403.604197628	128	27	64
1403.60429537	144	27	28
1403.618930332	128	39	64
1403.621740657	144	39	32
1403.652705413	144	21	42
1403.665730978	144	100	59
1403.676947627	128	97	64
1403.677043871	144	97	88
1403.687536105	128	27	64
1403.687615281	144	27	5
1403.714321243	128	21	64
1403.723191986	128	39	64
1403.747618182	128	100	64
1403.748808113	144	39	50
1403.756779269	128	27	64
1403.756871813	144	27	27
1403.802838792	144	21	44
1403.823435578	144	69	103
1403.832019986	128	27	64
1403.832111071	144	27	3
1403.840509816	128	39	64
1403.840768653	128	63	64
1403.850846793	144	100	59
1403.862936636	128	21	64
1403.873946423	128	66	64
1403.904464087	128	97	64
1403.904556406	144	97	87
1403.910815067	128	100	64
1403.912112045	128	27	64
1403.912187276	144	27	30
1403.934188493	144	39	34
1403.953040999	144	21	46
1403.957718258	128	39	64
1403.993760946	128	27	64
1404.027274685	144	39	48
1404.029347458	144	27	6
1404.050145864	128	27	64
1404.050232964	144	27	33
1404.096180201	128	21	64
1404.104106413	144	100	59
1404.104420327	128	97	64
1404.104481237	144	97	87
1404.106634797	128	39	64
1404.114432434	128	27	64
1404.11452779	144	27	8
1404.121398005	144	21	46
1404.196411842	128	27	64
1404.196526314	144	27	32
1404.196676694	128	21	64
1404.197044895	128	100	64
1404.208030594	144	39	30
1404.250139306	128	39	64
1404.250382871	144	39	46
1404.266620165	144	21	48
1404.28465612	144	100	59
1404.299921982	128	27	64
1404.310982481	144	63	113
1404.334750078	144	27	9
1404.341802299	128	39	64
1404.343817626	128	27	64
1404.34389342	144	27	33
1404.347474404	128	21	64
1404.364513192	128	100	64
1404.366564266	144	39	32
1404.418549176	144	21	53
1404.431257191	144	100	59
1404.433736571	128	27	64
1404.437582881	144	25	127
1404.440221782	144	27	1
1404.459555627	128	39	64
1404.462650365	128	97	64
1404.462749209	144	97	83
1404.480711587	128	21	64
1404.504462897	144	39	47
1404.504805168	128	27	64
1404.504852883	144	27	31
1404.530854825	128	100	64
1404.572206691	128	39	64
1404.587194107	128	27	64
1404.587680178	144	21	63
1404.59617123	144	27	1
1404.608792105	144	39	29
1404.618145715	144	100	59
1404.647289754	128	21	64
1404.656588829	128	27	64
1404.675012333	128	97	64
1404.675105213	144	97	84
1404.692857902	128	39	64
1404.698172623	128	100	64
1404.716274388	144	66	89
1404.717516163	144	27	35
1404.717827679	144	21	64
1404.737629849	144	39	45
1404.737866004	128	27	64
1404.737908677	144	27	4
1404.765330487	144	100	58
1404.806721029	128	39	64
1404.827822616	128	100	64
1404.834650757	128	27	64
1404.834756965	144	27	29
1404.843540897	144	39	30
1404.853693053	128	97	64
1404.853780729	144	97	85
1404.873545483	128	21	64
1404.918841134	144	21	68
1404.921373738	128	27	64
1404.93450375	144	27	1
1404.941025461	128	39	64
1404.980999703	128	21	64
1405.002851615	128	27	64
1405.021057073	144	39	46
1405.024567308	128	97	64
1405.024640325	144	97	84
1405.053182233	144	27	24
1405.07204394	144	21	72
1405.081545598	128	27	64
1405.095478278	128	39	64
1405.106055627	144	39	29
1405.1162466	144	27	1
1405.129385084	128	21	64
1405.155431082	128	27	64
1405.173155896	128	39	64
1405.195671239	144	27	31
1405.22055436	144	39	45
1405.222302106	128	27	64
1405.267757208	144	27	4
1405.281782209	128	97	64
1405.281875466	144	97	87
1405.306998208	128	39	64
1405.307658652	128	27	64
1405.315572474	144	27	36
1405.331809069	144	39	31
1405.372007428	128	97	64
1405.372098187	144	97	87
1405.372216097	128	27	64
1405.3722845	144	27	9
1405.424166855	128	39	64
1405.429794877	128	63	64
1405.450336849	128	27	64
1405.466043147	144	27	37
1405.471758628	144	39	46
1405.534993313	128	27	64
1405.535089423	144	27	8
1405.548981023	128	97	64
1405.549072008	144	97	87
1405.552592204	128	39	64
1405.556926882	144	39	32
1405.58259378	128	69	64
1405.638570647	128	27	64
1405.657297748	128	39	64
1405.686882382	144	27	31
1405.697831203	128	27	64
1405.702483105	144	39	47
1405.71266618	144	27	6
1405.772693887	128	39	64
1405.77493482	128	97	64
1405.775008765	144	97	86
1405.785755516	128	27	64
1405.808872053	144	39	32
1405.824689858	144	63	113
1405.837656056	144	27	35
1405.857074807	128	27	64
1405.857164924	144	27	3
1405.892176481	144	69	91
1405.907809113	128	39	64
1405.954012976	144	39	46
1405.95425107	128	27	64
1405.95919408	128	97	64
1405.95926656	144	97	84
1406.0009583	144	27	32
1406.022029295	128	39	64
1406.036028377	128	27	64
1406.050889509	144	39	32
1406.081590769	144	27	6
1406.116473914	128	97	64
1406.116566146	144	97	84
1406.121618335	128	27	64
1406.14144297	144	27	33
1406.194837731	128	39	64
1406.195059243	144	39	42
1406.216821211	128	27	64
1406.223240493	144	27	5
1406.274855874	128	39	64
1406.290327377	128	27	64
1406.303385872	144	27	33
1406.330115611	144	39	27
1406.370293705	128	27	64
1406.378798955	144	27	7
1406.400271946	128	97	64
1406.400364938	144	97	84
1406.414639039	144	55	89
1406.458583716	128	27	64
1406.473104583	128	39	64
1406.473362198	144	39	39
1406.500645598	128	62	64
1406.503918006	144	27	33
1406.540236634	128	27	64
1406.548327271	144	27	4
1406.571058236	128	39	64
1406.575470066	144	39	28
1406.594498098	128	97	64
1406.594586723	144	97	85
1406.613578439	128	27	64
1406.653842396	144	27	34
1406.65643048	128	39	64
1406.676175142	144	62	94
1406.70327261	128	27	64
1406.723150514	144	39	41
1406.753644655	144	27	6
1406.770896064	128	27	64
1406.789431889	128	39	64
1406.812988592	144	39	29
1406.842708964	144	27	35
1406.863001271	128	97	64
1406.863091813	144	97	83
1406.870175219	128	27	64
1406.909076333	128	39	64
1406.918009684	144	27	6
1406.940945526	128	27	64
1406.952647021	144	39	42
1407.002680918	144	27	35
1407.03028843	128	27	64
1407.030379161	144	27	5
1407.031614233	128	39	64
1407.031690287	144	39	32
1407.062171135	128	97	64
1407.062263773	144	97	82
1407.121027782	128	27	64
1407.121123634	144	27	33
1407.176020492	128	39	64
1407.188944494	144	39	43
1407.210243326	128	27	64
1407.210340008	144	27	6
1407.277287519	128	39	64
1407.28015056	144	39	30
1407.321110668	128	27	64
1407.341014471	144	27	36
1407.39371192	128	27	64
1407.393807791	144	27	6
1407.431696231	128	39	64
1407.432453067	144	39	44
1407.502065253	128	27	64
1407.533158518	128	97	64
1407.533253266	144	97	83
1407.551426807	144	27	34
1407.574121582	128	27	64
1407.574211718	144	27	9
1407.575502786	128	39	64
1407.575770911	144	39	32
1407.611804017	128	55	64
1407.657021343	128	39	64
1407.685039155	128	27	64
1407.70436314	144	39	43
1407.706715042	144	27	34
1407.772689521	128	27	64
1407.772774318	144	27	6
1407.800134109	128	39	64
1407.804185662	144	39	33
1407.851326408	128	27	64
1407.851411705	144	27	34
1407.868810951	144	88	81
1407.896341073	128	39	64
1407.912894192	128	88	64
1407.928767405	128	69	64
1407.953542541	144	39	43
1408.040063291	128	39	64
1408.058450958	128	27	64
1408.058543062	144	27	10
1408.077889494	144	39	33
1408.11468301	144	100	72
1408.164313514	128	100	64
1408.174312559	128	39	64
1408.187811004	144	88	80
1408.20322374	128	97	64
1408.203309068	144	97	81
1408.220374857	144	39	45
1408.26770921	144	69	100
1408.273650369	144	100	69
1408.275839525	128	66	64
1408.283197003	128	88	64
1408.319125874	128	39	64
1408.322516845	144	39	33
1408.349579371	128	100	64
1408.375743257	144	21	109
1408.390857293	144	47	71
1408.433684314	144	100	67
1408.450139199	128	21	64
1408.465887742	128	39	64
1408.466115722	144	39	43
1408.497059715	128	100	64
1408.505934047	144	88	80
1408.583576614	128	88	64
1408.586769862	144	100	68
1408.609371057	128	39	64
1408.609642265	144	39	34
1408.666373424	128	100	64
1408.702327221	144	55	121
1408.733945981	144	100	68
1408.744106666	128	97	64
1408.744202949	144	97	81
1408.753283268	128	39	64
1408.753494251	144	39	44
1408.813623706	128	63	64
1408.833353815	128	100	64
1408.885450085	144	100	68
1408.896994629	128	39	64
1408.897218628	144	39	34
1408.991014901	128	39	64
1408.999900878	128	100	64
1409.036945798	144	39	44
1409.067078947	144	100	69
1409.089557326	144	63	115
1409.126267272	128	39	64
1409.148823618	128	100	64
1409.165198676	128	27	64
1409.165294465	144	27	14
1409.172924199	128	47	64
1409.203832841	144	39	33
1409.237411837	144	100	69
1409.256977001	128	97	64
1409.257066234	144	97	81
1409.261700135	128	100	64
1409.304259214	128	39	64
1409.306965612	144	39	44
1409.373304922	144	100	69
1409.373558771	128	27	64
1409.373622497	144	27	45
1409.407083405	128	39	64
1409.42492982	144	21	72
1409.430123778	128	100	64
1409.431175684	144	39	34
1409.481005732	128	21	64
1409.501045158	144	100	69
1409.562131798	128	100	64
1409.581149531	128	39	64
1409.582397588	144	39	44
1409.603610389	128	27	64
1409.603704185	144	27	43
1409.653223546	128	62	64
1409.653428722	144	100	70
1409.67367999	128	39	64
1409.705400857	128	97	64
1409.705490436	144	97	80
1409.720611639	144	39	32
1409.763283746	128	100	64
1409.814831845	144	100	70
1409.828801011	144	62	94
1409.863632547	128	39	64
1409.863729763	144	39	43
1409.866224508	128	27	64
1409.86631536	144	27	17
1409.949910295	128	100	64
1409.99280855	128	55	64
1410.007375313	128	39	64
1410.00757897	144	39	33
1410.017554949	144	100	70
1410.138389549	128	27	64
1410.138480185	144	27	47
1410.14988737	128	100	64
1410.152719606	128	39	64
1410.152813319	144	39	41
1410.165970553	144	66	100
1410.169223096	128	69	64
1410.217673142	144	100	70
1410.241528623	128	97	64
1410.241625793	144	97	77
1410.296577237	128	39	64
1410.296787076	144	39	34
1410.367430358	128	100	64
1410.390554554	128	39	64
1410.424443757	144	100	70
1410.4383967	144	39	40
1410.489871952	128	27	64
1410.489958328	144	27	15
1410.534598911	128	100	64
1410.559752469	144	69	92
1410.573735674	128	97	64
1410.580482917	128	39	64
1410.580691394	144	39	32
1410.591366292	144	100	71
1410.597817451	144	47	67
1410.678404674	128	39	64
1410.680982047	144	39	39
1410.700702107	128	100	64
1410.735730033	144	55	106
1410.768155833	144	100	72
1410.77689675	128	39	64
1410.777966031	128	27	64
1410.778057422	144	27	48
1410.822118885	144	39	33
1410.919502205	128	100	64
1410.923606294	128	39	64
1410.935584598	144	100	72
1410.948583262	144	39	38
1410.969879047	144	97	70
1411.036152262	128	97	64
1411.068962121	128	100	64
1411.092580471	128	39	64
1411.092841746	144	39	28
1411.103417811	144	100	72
1411.146670978	128	27	64
1411.146758277	144	27	19
1411.19042188	128	39	64
1411.215059194	144	39	36
1411.347216528	144	97	67
1411.364793788	128	39	64
1411.36612669	144	39	23
1411.400598015	128	100	64
1411.433684696	128	97	64
1411.465740434	128	27	64
1411.465839192	144	27	54
1411.510261091	128	39	64
1411.522806658	144	39	34
1411.525766472	144	100	76
1411.634528215	128	100	64
1411.646296958	144	97	64
1411.648970078	128	47	64
1411.665766256	128	39	64
1411.678356057	144	39	24
1411.698576668	128	97	64
1411.759646166	128	39	64
1411.804911339	144	39	36
1411.83664758	128	62	64
1411.924448306	144	97	60
1411.951338664	128	39	64
1411.963877901	144	39	26
1411.979128377	128	97	64
1412.043404133	128	39	64
1412.088676783	144	39	35
1412.139647271	128	55	64
1412.186149569	144	97	56
1412.231092108	128	39	64
1412.240560132	144	39	23
1412.256113385	128	97	64
1412.326608394	128	39	64
1412.34472905	144	62	95
1412.353744973	144	39	35
1412.42991711	144	97	55
1412.457200476	128	39	64
1412.461696213	128	69	64
1412.482717367	128	97	64
1412.484842704	144	39	24
1412.576687191	128	39	64
1412.61975454	144	97	54
1412.622057909	144	39	36
1412.627202834	144	69	100
1412.644124131	128	27	64
1412.692534327	128	97	64
1412.712776869	128	39	64
1412.731376997	144	39	25
1412.738230919	128	63	64
1412.779780861	144	21	53
1412.782129965	144	97	54
1412.846478121	128	97	64
1412.874171981	128	39	64
1412.874271241	144	39	35
1412.883384772	128	21	64
1412.93513998	144	97	54
1412.977239034	128	39	64
1412.977336636	144	39	24
1413.002174407	128	97	64
1413.068823329	144	97	53
1413.119802106	128	39	64
1413.120011379	144	39	33
1413.152923978	128	97	64
1413.209417974	128	39	64
1413.227416243	144	97	53
1413.250301865	144	39	25
1413.266415804	144	63	115
1413.297254404	128	97	64
1413.307259215	144	27	59
1413.354829568	128	63	64
1413.357891308	128	66	64
1413.36485939	128	27	64
1413.379612693	144	97	55
1413.39184282	144	21	51
1413.394297436	128	39	64
1413.394373814	144	39	33
1413.437164071	128	97	64
1413.477942451	144	27	58
1413.496585097	128	39	64
1413.499299708	128	21	64
1413.500339381	144	39	24
1413.51619188	144	97	55
1413.53513723	128	27	64
1413.56863097	128	97	64
1413.578323869	144	63	116
1413.590822083	128	39	64
1413.62133453	144	27	58
1413.641015391	144	39	34
1413.644166181	144	97	54
1413.658834744	128	27	64
1413.711547775	128	39	64
1413.713591275	128	97	64
1413.73416772	144	39	25
1413.735706681	144	27	58
1413.753806641	128	63	64
1413.792515356	128	27	64
1413.801448811	144	97	55
1413.824075571	128	39	64
1413.848329541	144	39	35
1413.852709464	144	27	56
1413.853129283	128	97	64
1413.886094579	144	63	118
1413.893338177	128	27	64
1413.948229342	144	97	56
1413.986210226	144	27	51
1413.992457823	128	39	64
1413.992667225	144	39	25
1413.996256258	128	97	64
1414.032375793	128	27	64
1414.039211116	128	39	64
1414.079934603	144	39	33
1414.096308157	144	97	55
1414.098586626	128	63	64
1414.144653777	128	97	64
1414.17537497	128	39	64
1414.190819336	144	88	60
1414.209888003	144	39	25
1414.232794859	144	63	119
1414.254554977	144	27	50
1414.264132104	128	88	64
1414.274913762	128	39	64
1414.293882274	128	27	64
1414.314255614	144	39	32
1414.31912404	128	62	64
1414.326854505	144	97	54
1414.382294347	128	97	64
1414.406963534	144	27	55
1414.431903895	144	62	97
1414.458129886	128	39	64
1414.458303597	144	39	26
1414.500671373	128	62	64
1414.507415454	128	39	64
1414.52319778	128	27	64
1414.550729961	144	39	34
1414.598314879	144	66	101
1414.603647977	144	27	55
1414.6332391	128	27	64
1414.637124318	144	62	94
1414.647084023	128	39	64
1414.677308267	144	39	30
1414.685001983	144	97	55
1414.693146969	144	55	99
1414.702639851	128	69	64
1414.71639715	144	27	53
1414.736618636	128	97	64
1414.74862551	128	27	64
1414.81465121	128	62	64
1414.824181199	128	39	64
1414.824368521	144	39	33
1414.832945041	144	27	53
1414.860647818	128	27	64
1414.872931301	128	55	64
1414.884701504	144	97	56
1414.889922295	128	39	64
1414.922794784	144	39	31
1414.949945775	144	27	52
1414.953648713	128	97	64
1414.959043216	144	62	95
1414.976891916	128	27	64
1414.999735957	144	69	100
1415.034329886	128	62	64
1415.050438179	144	55	116
1415.078361648	144	27	50
1415.089833456	128	39	64
1415.08992754	144	39	33
1415.090248168	144	97	57
1415.108356673	128	27	64
1415.146319106	128	97	64
1415.156218583	128	39	64
1415.1748868	128	55	64
1415.194047401	144	27	48
1415.231988463	144	62	102
1415.234827732	128	27	64
1415.23665017	144	39	53
1415.278977275	144	21	37
1415.297431079	144	27	47
1415.337754133	128	27	64
1415.350080839	128	21	64
1415.412128681	128	62	64
1415.413931228	128	39	64
1415.439517538	144	27	49
1415.439773953	144	21	38
1415.457740363	144	39	25
1415.464796401	128	27	64
1415.508374674	144	55	107
1415.538941794	128	39	64
1415.555105867	144	27	50
1415.563317113	144	39	41
1415.58072018	128	27	64
1415.584740074	128	21	64
1415.601169056	144	62	101
1415.638987311	144	21	40
1415.657472023	144	27	51
1415.665403965	128	39	64
1415.665502582	144	39	23
1415.693995282	128	55	64
1415.705598304	128	27	64
1415.776569449	144	27	53
1415.782997772	128	21	64
1415.805011488	144	21	40
1415.814151955	128	27	64
1415.823185718	128	39	64
1415.823281665	144	39	36
1415.879245887	144	27	53
1415.930611114	128	27	64
1415.947208233	128	21	64
1415.955807597	144	21	40
1415.969485916	128	39	64
1415.969580458	144	39	24
1415.993551886	144	27	53
1416.040585118	128	39	64
1416.053476468	128	27	64
1416.099763794	128	21	64
1416.101688433	144	39	38
1416.114133284	144	27	56
1416.157164242	144	21	41
1416.159609875	128	27	64
1416.195907977	144	55	108
1416.196094545	128	39	64
1416.196129848	144	39	25
1416.215195016	128	21	64
1416.228632372	144	27	54
1416.279219727	128	27	64
1416.339335016	128	63	64
1416.356889274	144	27	55
1416.358892446	144	21	41
1416.368835766	128	39	64
1416.369041943	144	39	38
1416.39215417	128	27	64
1416.432013003	128	21	64
1416.47113262	144	27	50
1416.490515073	144	21	41
1416.511307978	144	63	121
1416.513625277	128	39	64
1416.513834658	144	39	27
1416.527142535	128	27	64
1416.603020249	144	27	53
1416.606901851	128	39	64
1416.631155667	144	39	36
1416.641400699	128	21	64
1416.652995769	128	27	64
1416.653128608	128	63	64
1416.753556577	144	27	51
1416.763716408	128	39	64
1416.76707872	144	39	22
1416.782760242	128	27	64
1416.842295939	144	63	118
1416.844086434	128	69	64
1416.91968726	128	39	64
1416.919889255	144	39	36
1417.026815038	128	63	64
1417.056218091	144	27	20
1417.071193638	128	39	64
1417.071400588	144	39	25
1417.090373312	128	27	64
1417.149964174	144	63	117
1417.161471057	128	62	64
1417.16789825	128	39	64
1417.170386977	144	39	37
1417.237587387	144	27	19
1417.278380484	128	27	64
1417.280741935	128	63	64
1417.331324268	128	39	64
1417.331574004	144	39	26
1417.423841571	128	39	64
1417.462471415	144	63	116
1417.550753973	144	39	38
1417.572594361	128	39	64
1417.603763211	144	39	23
1417.618567335	144	27	19
1417.646368752	128	55	64
1417.663373015	128	27	64
1417.712893479	128	39	64
1417.738886689	144	88	67
1417.751285823	144	39	37
1417.804488546	128	88	64
1417.854996377	144	55	101
1417.857386547	128	39	64
1417.862192609	144	62	101
1417.873766968	128	66	64
1417.882470948	144	39	20
1417.910824927	144	88	68
1417.966536231	128	88	64
1417.990495792	128	39	64
1418.003598493	144	27	20
1418.038846327	144	39	31
1418.040656619	128	55	64
1418.053741474	144	88	67
1418.054055236	128	27	64
1418.110314783	128	62	64
1418.11694132	128	88	64
1418.124821668	128	39	64
1418.126814355	144	21	59
1418.184432801	128	21	64
1418.18652304	144	88	68
1418.204236877	144	39	15
1418.274871579	144	21	60
1418.276668862	128	39	64
1418.287266094	128	88	64
1418.32606385	144	27	24
1418.337392726	144	39	31
1418.33987715	144	88	68
1418.415564621	128	88	64
1418.418218962	128	21	64
1418.425575839	128	39	64
1418.425953256	128	27	64
1418.42789539	144	39	16
1418.438208483	144	21	60
1418.500004811	144	55	108
1418.522934416	144	88	70
1418.548551818	128	88	64
1418.571982663	128	39	64
1418.581821492	128	21	64
1418.591412124	144	39	29
1418.605413249	144	21	60
1418.635428505	128	55	64
1418.698478829	144	27	26
1418.698839533	128	21	64
1418.734622572	128	39	64
1418.734848493	144	39	12
1418.770098944	144	21	61
1418.773451147	128	27	64
1418.824123702	128	39	64
1418.868166541	128	21	64
1418.885220303	128	25	64
1418.89136933	144	39	26
1418.89174476	144	27	28
1418.909211739	128	39	64
1418.936614698	144	21	62
1418.994877338	128	27	64
1419.079484288	128	21	64
1419.106102853	144	21	63
1419.156486414	144	55	109
1419.165653634	144	27	28
1419.199442589	128	21	64
1419.270516368	144	21	62
1419.305155428	128	55	64
1419.349491348	128	21	64
1419.394757288	128	27	64
1419.421088885	144	21	65
1419.51759418	128	21	64
1419.766587375	144	27	31
1419.813262926	144	55	101
1419.87226861	144	39	15
1419.922124904	128	39	64
1419.984353088	144	39	27
1419.991657876	128	27	64
1420.076645742	128	39	64
1420.079250487	144	39	10
1420.132055306	144	66	52
1420.216169679	128	66	64
1420.222734036	128	39	64
1420.22283853	144	39	32
1420.323848498	128	39	64
1420.347702811	144	39	15
1420.347948067	144	27	45
1420.42596029	128	39	64
1420.489007541	144	88	69
1420.497488019	144	39	27
1420.570906374	128	88	64
1420.580949494	128	39	64
1420.583810604	144	39	7
1420.619193288	144	100	59
1420.669661055	128	100	64
1420.676306776	128	39	64
1420.716954221	144	66	101
1420.719445003	128	27	64
1420.725598508	144	39	25
1420.760006569	144	100	58
1420.775001776	144	88	69
1420.775199113	128	39	64
1420.78248294	128	66	64
1420.821584642	144	39	10
1420.855322564	128	88	64
1420.855490913	128	100	64
1420.909766196	144	100	56
1420.910538054	128	39	64
1420.990931241	144	88	71
1421.001180721	144	39	15
1421.00505406	128	100	64
1421.028090442	144	27	59
1421.050399029	128	88	64
1421.065098878	128	39	64
1421.071099821	144	100	55
1421.081306558	128	27	64
1421.121764412	144	66	64
1421.15604479	128	100	64
1421.200419565	128	66	64
1421.222510494	144	100	56
1421.271119223	144	39	11
1421.29118586	144	88	72
1421.301254539	128	100	64
1421.333951635	128	88	64
1421.340645828	128	39	64
1421.358344691	144	100	58
1421.390811166	144	39	20
1421.457230323	128	39	64
1421.468544969	128	100	64
1421.483734498	144	66	79
1421.502004027	144	39	16
1421.524981037	144	100	59
1421.583785337	128	66	64
1421.591960758	128	39	64
1421.618653787	128	100	64
1421.627736133	144	39	22
1421.673900017	144	100	61
1421.697754398	128	39	64
1421.714402536	144	27	54
1421.728853622	128	27	64
1421.734579234	144	39	15
1421.769111831	128	100	64
1421.826711599	128	39	64
1421.833320108	144	66	64
1421.840700467	144	100	60
1421.849359949	144	39	19
1421.899657417	128	66	64
1421.926644402	128	39	64
1421.952324273	128	100	64
1421.972767942	144	39	14
1422.024839488	144	100	60
1422.058494147	128	39	64
1422.08182895	144	39	20
1422.1192745	128	100	64
1422.159267716	128	39	64
1422.204606088	144	27	55
1422.217364775	144	66	79
1422.220323965	144	39	14
1422.228841811	144	100	61
1422.260731429	144	21	59
1422.286615102	128	100	64
1422.299757294	128	66	64
1422.309824873	128	27	64
1422.311100628	128	39	64
1422.351117327	128	21	64
1422.371182169	144	100	60
1422.377444415	144	62	79
1422.3849584	144	39	14
1422.451831968	128	100	64
1422.460602171	144	21	60
1422.46477497	128	39	64
1422.538234319	144	100	61
1422.551640918	128	21	64
1422.60843101	144	21	60
1422.618383654	128	100	64
1422.632918094	144	66	65
1422.636331746	144	39	16
1422.676885984	128	39	64
1422.688506382	144	100	61
1422.718632701	128	66	64
1422.727262018	144	39	14
1422.758271229	128	21	64
1422.764801807	144	27	44
1422.772751535	144	21	60
1422.819172062	128	100	64
1422.83872093	128	27	64
1422.867487771	128	21	64
1422.874907728	128	39	64
1422.8751198	144	39	17
1422.875262176	144	100	61
1422.93991759	128	39	64
1422.954042618	144	21	62
1422.96408623	144	39	12
1423.002755676	128	100	64
1423.016063051	128	21	64
1423.030973343	128	62	64
1423.056801203	144	100	60
1423.107157341	128	39	64
1423.108032241	144	21	62
1423.109882616	144	39	15
1423.116312185	144	66	80
1423.169691019	128	100	64
1423.184949342	128	21	64
1423.192116813	128	39	64
1423.199297997	128	66	64
1423.216435912	144	39	11
1423.240324551	144	100	61
1423.253952909	144	21	62
1423.273592187	144	27	49
1423.31376761	128	27	64
1423.321099133	128	63	64
1423.354471396	128	100	64
1423.359732517	128	39	64
1423.360012723	144	39	16
1423.397228738	128	21	64
1423.410594822	128	39	64
1423.417246474	144	27	43
1423.424807599	144	100	60
1423.455959227	144	39	16
1423.456892801	144	21	65
1423.464319736	128	27	64
1423.482505346	144	66	63
1423.516202528	128	21	64
1423.547680772	144	27	47
1423.553288063	128	100	64
1423.559508866	128	39	64
1423.566599715	128	66	64
1423.579880186	144	63	72
1423.584117007	144	39	35
1423.58864487	128	27	64
1423.607362978	144	100	61
1423.659507269	144	21	67
1423.659646065	128	39	64
1423.675832205	144	27	48
1423.715595105	128	21	64
1423.727113207	128	55	64
1423.729631854	128	27	64
1423.73783276	128	100	64
1423.746611969	144	39	56
1423.791424244	144	27	48
1423.814360282	128	39	64
1423.860919741	128	27	64
1423.868401939	144	39	84
1423.873419635	144	100	62
1423.898922402	144	66	81
1423.9110026	144	27	48
1423.927263457	128	39	64
1423.963560678	128	27	64
1423.969068832	128	100	64
1423.972294871	144	39	58
1423.983240027	128	66	64
1424.010952388	144	62	90
1424.037168801	144	27	50
1424.038826412	144	100	62
1424.091257504	128	27	64
1424.131156674	128	39	64
1424.131339587	144	39	26
1424.153110346	144	27	55
1424.15396059	128	100	64
1424.175212162	128	39	64
1424.175306535	144	39	19
1424.196437597	128	27	64
1424.222334153	144	100	62
1424.249598011	144	66	66
1424.254359961	128	100	64
1424.279379227	144	27	59
1424.319639297	128	27	64
1424.333283533	128	66	64
1424.339621226	144	100	62
1424.384386561	144	27	59
1424.427636434	128	27	64
1424.436666691	128	39	64
1424.436764024	144	39	32
1424.453123638	128	100	64
1424.467029085	128	39	64
1424.511832126	144	39	45
1424.514723601	144	27	69
1424.522384775	144	100	62
1424.549966697	128	62	64
1424.565554911	128	27	64
1424.607712912	128	39	64
1424.653823544	128	100	64
1424.668281769	144	39	79
1424.69855907	144	66	80
1424.710957044	128	39	64
1424.757976399	144	100	63
1424.762901407	144	39	80
1424.837175876	128	100	64
1424.842230313	128	66	64
1424.859705678	128	39	64
1424.905265197	144	39	65
1424.956046306	144	100	57
1424.976520071	144	27	54
1424.979576072	144	25	19
1424.994250547	128	39	64
1424.997095325	144	39	29
1425.000890106	128	27	64
1425.03702308	128	100	64
1425.089142948	144	100	80
1425.100009415	144	66	66
1425.101704406	144	27	58
1425.133694812	128	27	64
1425.142273201	128	100	64
1425.142366308	144	100	51
1425.166045298	128	66	64
1425.173693158	128	39	64
1425.173790622	144	39	30
1425.202454414	144	27	59
1425.203498072	128	100	64
1425.211614057	128	39	64
1425.241764777	144	100	51
1425.254711627	128	27	64
1425.27277228	144	39	48
1425.307098217	128	100	64
1425.307195247	144	100	75
1425.317369573	144	88	110
1425.33069665	144	27	57
1425.357084756	128	39	64
1425.382311835	128	27	64
1425.38459227	128	88	64
1425.390266294	128	63	64
1425.422494268	128	100	64
1425.423749455	144	39	100
1425.427029271	144	100	51
1425.474600838	128	39	64
1425.474887632	144	27	60
1425.514365429	128	27	64
1425.515872561	144	66	82
1425.518159287	144	39	94
1425.524800681	128	100	64
1425.528833541	144	100	75
1425.583366962	128	66	64
1425.600913479	144	27	66
1425.606514649	128	100	64
1425.606608457	144	100	52
1425.634264541	128	27	64
1425.681394054	128	39	64
1425.690268416	128	100	64
1425.690370058	144	100	74
1425.692154035	144	27	67
1425.747867815	144	39	65
1425.749990754	128	27	64
1425.808238971	128	100	64
1425.808332415	144	100	52
1425.809596629	144	27	72
1425.850513689	144	97	27
1425.865841499	128	27	64
1425.871685494	128	97	64
1425.898184701	128	39	64
1425.911219142	128	100	64
1425.91560967	144	100	69
1425.915816521	144	66	63
1425.921251995	144	39	28
1425.939837579	144	27	70
1425.988151659	128	27	64
1425.994286445	128	66	64
1426.0040535	128	100	64
1426.028471727	144	100	54
1426.052899464	144	27	74
1426.065354245	128	39	64
1426.101679832	144	39	72
1426.108679695	128	27	64
1426.109621648	128	100	64
1426.114245137	144	100	73
1426.157309603	128	39	64
1426.171408173	144	27	79
1426.19098461	128	100	64
1426.191075327	144	100	58
1426.208827443	144	39	74
1426.220148288	128	27	64
1426.275438341	144	62	101
1426.275601864	128	62	64
1426.27660033	144	27	81
1426.291657376	128	100	64
1426.295101403	144	100	75
1426.295198324	128	100	64
1426.295231786	144	100	54
1426.307725929	128	39	64
1426.325206675	128	27	64
1426.347939546	144	39	125
1426.349261953	144	66	81
1426.38782929	144	27	83
1426.420694944	128	100	64
1426.431022485	128	39	64
1426.434067639	144	39	112
1426.449081597	128	66	64
1426.457496435	128	27	64
1426.476262992	144	88	114
1426.491730443	144	100	75
1426.521766296	144	27	80
1426.569997921	128	27	64
1426.598048665	128	39	64
1426.60419463	128	100	64
1426.62224923	144	39	89
1426.662625684	144	27	68
1426.674259439	128	27	64
1426.732645792	144	62	105
1426.766616841	144	66	67
1426.773810644	128	39	64
1426.774087533	144	39	28
1426.816284324	128	62	64
1426.832715654	128	66	64
1426.861489287	144	21	81
1426.873691349	128	39	64
1426.920355106	144	39	42
1426.945958992	144	100	84
1426.994848963	144	55	72
1427.010336227	128	39	64
1427.03141198	144	27	61
1427.033632325	144	39	27
1427.042715382	128	55	64
1427.061683882	128	100	64
1427.061780233	144	100	76
1427.068154665	128	27	64
1427.094200585	128	21	64
1427.103838344	128	100	64
1427.119911521	144	27	71
1427.132399694	144	66	82
1427.170500176	128	27	64
1427.173572659	144	100	87
1427.175616244	144	21	82
1427.191407859	128	39	64
1427.215662069	144	39	39
1427.220008398	144	62	106
1427.229009891	144	55	65
1427.231555892	144	97	83
1427.231687659	144	27	72
1427.241064221	128	66	64
1427.276230158	128	62	64
1427.282466312	128	27	64
1427.286792884	128	55	64
1427.309103177	128	100	64
1427.325031024	144	100	67
1427.331039461	128	97	64
1427.361795945	144	27	73
1427.369416763	128	39	64
1427.369513328	144	39	19
1427.430075243	128	100	64
1427.430169347	144	100	88
1427.433310149	128	27	64
1427.457639889	144	66	70
1427.492405649	144	27	76
1427.512099878	128	39	64
1427.52282395	144	39	43
1427.548183142	128	27	64
1427.5621475	128	100	64
1427.562363562	144	100	62
1427.564870476	144	55	58
1427.611721214	128	21	64
1427.62275136	144	27	78
1427.624499412	128	66	64
1427.653939276	128	55	64
1427.661973901	128	100	64
1427.662794297	144	100	88
1427.669850692	128	39	64
1427.670068004	144	39	23
1427.672691935	128	27	64
1427.678384168	144	21	83
1427.747015569	144	27	79
1427.756615473	128	39	64
1427.764806174	128	100	64
1427.764909638	144	100	60
1427.784990256	128	21	64
1427.792363782	128	27	64
1427.817745482	144	39	39
1427.824813408	144	21	83
1427.838967295	128	100	64
1427.865005867	144	27	79
1427.875976303	144	100	83
1427.894132185	144	66	86
1427.918552798	128	27	64
1427.941553085	128	100	64
1427.941648949	144	100	58
1427.953583943	128	66	64
1427.961527972	128	39	64
1427.961734291	144	39	24
1427.975444027	128	21	64
1427.997567555	144	27	78
1428.037413294	128	27	64
1428.05942493	128	100	64
1428.074462193	144	21	84
1428.093111309	144	100	83
1428.106577871	128	39	64
1428.106789042	144	39	53
1428.108929944	144	27	83
1428.112536735	128	88	64
1428.133252059	128	21	64
1428.16810247	128	27	64
1428.191295827	128	39	64
1428.220945149	144	21	87
1428.225225212	144	66	68
1428.226192575	128	100	64
1428.239394496	144	27	86
1428.251382621	144	39	62
1428.254819435	144	62	100
1428.292559659	128	62	64
1428.293746148	128	27	64
1428.327638026	128	39	64
1428.328231868	144	100	84
1428.332202029	128	66	64
1428.370320226	144	27	84
1428.405122974	144	39	124
1428.417808012	128	25	64
1428.422621706	128	27	64
1428.425877642	128	100	64
1428.493036068	144	100	85
1428.498023167	144	25	76
1428.520234214	144	27	74
1428.53004022	128	21	64
1428.542522653	128	25	64
1428.572957125	128	27	64
1428.589042963	144	21	85
1428.596633304	144	66	85
1428.609967323	128	100	64
1428.636819261	128	66	64
1428.671938108	128	39	64
1428.672030892	144	39	118
1428.697268211	144	100	86
1428.733697055	128	21	64
1428.742307013	128	39	64
1428.766099723	144	27	53
1428.776669337	128	100	64
1428.797526615	144	39	55
1428.806385315	128	27	64
1428.823175976	128	39	64
1428.823275544	144	39	30
1428.85927812	144	100	86
1428.907382338	144	66	70
1428.926355574	128	39	64
1428.952582384	128	66	64
1428.960081961	128	100	64
1428.984537454	144	39	36
1429.011986312	144	27	75
1429.024820926	144	100	87
1429.068206623	128	27	64
1429.127168043	128	100	64
1429.131679762	128	39	64
1429.131759271	144	39	19
1429.158125496	144	27	83
1429.205173028	128	27	64
1429.213720809	144	100	88
1429.214980541	144	66	92
1429.272296851	144	62	102
1429.281554599	144	27	90
1429.290600649	128	39	64
1429.292206599	128	62	64
1429.311198089	128	100	64
1429.334302266	128	66	64
1429.342088942	128	27	64
1429.374987674	144	100	88
1429.418164405	144	27	93
1429.424637663	144	63	107
1429.452007218	128	27	64
1429.471487214	144	39	29
1429.473688281	144	66	73
1429.475536205	128	39	64
1429.4935688	128	100	64
1429.499696443	128	63	64
1429.52730051	144	27	93
1429.55586874	144	25	70
1429.55892803	144	100	91
1429.568041372	128	27	64
1429.588679188	128	66	64
1429.61745849	144	27	92
1429.626427446	128	25	64
1429.663391877	128	100	64
1429.684615006	128	27	64
1429.726207919	144	100	90
1429.733478711	144	27	95
1429.761242097	144	63	105
1429.772105554	128	27	64
1429.796366998	144	66	91
1429.836850457	128	63	64
1429.844056351	128	100	64
1429.852052661	128	66	64
1429.924345174	144	63	105
1429.934380055	144	100	90
1429.995172895	128	63	64
1430.00398689	144	97	101
1430.007447295	128	97	64
1430.016598749	144	66	73
1430.026728991	128	100	64
1430.082196186	128	66	64
1430.083044625	144	63	110
1430.089030584	144	39	14
1430.11183171	128	39	64
1430.161902371	128	63	64
1430.225141422	144	69	94
1430.276913175	144	62	98
1430.283803213	128	69	64
1430.306850633	128	62	64
1430.317157634	144	66	96
1430.327383219	144	27	91
1430.35977738	128	27	64
1430.361114975	128	66	64
1430.401538323	144	69	90
1430.41610691	144	63	107
1430.436468715	144	27	90
1430.457104918	128	69	64
1430.489427978	128	27	64
1430.521479616	144	25	86
1430.533451422	144	66	77
1430.556270261	144	69	94
1430.583457581	144	27	96
1430.596901172	128	69	64
1430.60492824	128	66	64
1430.610809238	128	25	64
1430.622835908	128	27	64
1430.665858279	144	27	97
1430.673220549	144	69	96
1430.718170523	128	27	64
1430.722259881	128	69	64
1430.798583227	144	66	100
1430.812131894	144	69	95
1430.85142915	128	66	64
1430.885398764	128	63	64
1430.904931026	128	69	64
1430.972808126	144	39	5
1431.000639932	144	69	99
1431.046311601	128	69	64
1431.064951001	144	66	73
1431.11800271	128	66	64
1431.149358301	144	63	112
1431.252346128	128	63	64
1431.287099959	144	62	94
1431.336799208	128	62	64
1431.366739016	144	66	101
1431.474445692	144	100	81
1431.482980016	128	66	64
1431.497572056	144	27	88
1431.505652826	144	63	108
1431.506423557	144	25	89
1431.523406217	128	27	64
1431.560204895	144	66	70
1431.576676896	128	100	64
1431.579593011	144	27	82
1431.580209551	144	97	100
1431.58052342	128	97	64
1431.618882072	128	27	64
1431.651787684	128	25	64
1431.665905101	128	66	64
1431.667257632	144	27	87
1431.71887121	128	27	64
1431.746367779	144	27	1
1431.824768546	144	66	90
1431.901408421	128	66	64
1432.072641642	144	97	103
1432.114981304	128	97	64
1432.133490472	144	66	65
1432.216847223	128	66	64
1432.252597028	144	62	104
1432.296462647	128	62	64
1432.359156106	128	27	64
1432.359247249	144	27	90
1432.450991256	144	66	77
1432.462673037	128	27	64
1432.462757216	144	27	91
1432.489547936	144	25	90
1432.53363087	128	66	64
1432.650340054	128	25	64
1432.80634128	128	27	64
1432.816862881	144	66	65
1432.899221201	128	66	64
1433.093979115	144	100	71
1433.196573614	128	100	64
1433.216106157	144	66	81
1433.284092622	128	66	64
1433.284824596	144	62	104
1433.28514985	144	55	102
1433.317228617	128	62	64
1433.458324371	128	39	64
1433.466534045	144	27	106
1433.472329115	128	27	64
1433.534039972	144	27	105
1433.570841565	128	27	64
1433.632826013	144	66	65
1433.634899112	144	27	106
1433.674893141	128	27	64
1433.718047975	128	66	64
1433.771678623	144	25	88
1433.96597313	128	25	64
1434.100140566	144	27	87
1434.132730849	144	66	70
1434.135037978	128	27	64
1434.199228238	128	66	64
1434.334146838	144	62	99
1434.350267365	144	66	65
1434.375891938	144	27	111
1434.396257384	128	62	64
1434.405380923	128	27	64
1434.417578396	128	66	64
1434.489739587	144	21	78
1434.562186536	144	66	63
1434.602237279	128	66	64
1434.611850397	144	27	104
1434.679598317	128	27	64
1434.751035671	144	66	61
1434.767716696	128	66	64
1434.861254565	128	21	64
1434.865493953	144	27	98
1434.905676485	128	27	64
1434.911759186	144	66	61
1434.922678366	144	25	82
1434.952912314	128	66	64
1434.967804217	144	97	100
1434.996999265	128	97	64
1435.047616457	144	27	97
1435.097426784	144	66	63
1435.114066343	128	27	64
1435.135985223	128	66	64
1435.143164098	144	21	80
1435.160360474	144	69	95
1435.225008912	144	66	63
1435.281320108	128	66	64
1435.286947512	128	21	64
1435.290484576	144	27	98
1435.322499846	128	27	64
1435.406640439	144	27	95
1435.412536794	144	62	97
1435.426147911	144	66	63
1435.450556623	128	27	64
1435.468852974	128	66	64
1435.474735379	128	62	64
1435.498055807	144	27	97
1435.559419908	144	66	64
1435.559657855	128	27	64
1435.593646757	144	21	78
1435.640462553	128	66	64
1435.656640529	144	27	95
1435.66894771	128	21	64
1435.693468364	128	27	64
1435.697785284	144	66	64
1435.755310079	144	27	91
1435.765037719	128	66	64
1435.831557062	128	27	64
1435.863757828	144	66	65
1435.917430725	128	66	64
1436.009615053	128	69	64
1436.046436109	144	21	78
1436.060716614	144	66	64
1436.069174371	128	66	64
1436.118761717	128	21	64
1436.156488524	144	66	65
1436.236705138	128	66	64
1436.309578661	144	66	64
1436.336559277	144	97	44
1436.387328515	128	97	64
1436.403709649	128	66	64
1436.447303457	144	66	64
1436.454696866	144	62	81
1436.514508534	128	66	64
1436.55612119	128	62	64
1436.597421914	144	66	66
1436.620867541	128	63	64
1436.652211814	128	66	64
1436.796147598	144	66	66
1436.834318083	128	66	64
1436.862716206	144	21	75
1436.928052634	144	69	8
1436.930445542	144	66	66
1436.997903608	128	66	64
1437.141233457	144	66	65
1437.202190219	128	66	64
1437.215692192	144	27	17
1437.299893937	128	27	64
1437.350341795	144	66	65
1437.350694681	144	27	40
1437.361390505	128	21	64
1437.402913063	128	66	64
1437.447038895	144	21	75
1437.452057386	128	27	64
1437.502772934	144	62	69
1437.507697887	144	27	12
1437.517705791	128	69	64
1437.53648953	128	21	64
1437.547898498	128	62	64
1437.567813295	128	27	64
1437.568153807	144	27	36
1437.573968355	144	66	64
1437.618892288	128	27	64
1437.627317773	144	21	75
1437.62768609	144	27	10
1437.630840094	128	66	64
1437.661428618	128	27	64
1437.661524289	144	27	35
1437.759847169	128	27	64
1437.780767809	144	100	69
1437.826037398	144	27	11
1437.833016871	128	27	64
1437.846564499	144	66	63
1437.870052084	144	27	40
1437.878511618	128	21	64
1437.882976811	128	100	64
1437.899371486	128	27	64
1437.899462412	144	27	17
1437.92252742	144	21	75
1437.935051239	128	66	64
1437.970748287	128	27	64
1437.970843034	144	27	52
1438.017900805	128	21	64
1438.02424282	128	27	64
1438.024331938	144	27	29
1438.102865	128	27	64
1438.102957684	144	27	63
1438.123874469	144	66	63
1438.1471738	144	69	122
1438.164891378	128	27	64
1438.164982396	144	27	38
1438.214547198	128	66	64
1438.254790638	128	27	64
1438.305829917	144	27	71
1438.342573789	128	27	64
1438.354496198	144	27	44
1438.418018296	128	27	64
1438.418167599	144	27	74
1438.447911918	128	27	64
1438.447995407	144	27	46
1438.495656353	144	62	74
1438.500054304	144	66	63
1438.528844293	128	62	64
1438.534390728	128	27	64
1438.534485273	144	27	81
1438.566179489	128	66	64
1438.589167532	144	39	73
1438.606986269	128	27	64
1438.607081675	144	27	48
1438.609185447	128	39	64
1438.657028405	144	39	47
1438.694531265	128	27	64
1438.694615202	144	27	76
1438.710333094	128	39	64
1438.778151133	128	27	64
1438.778245803	144	27	49
1438.84844235	128	27	64
1438.848515461	144	27	79
1438.879434704	144	21	34
1438.934465635	128	21	64
1438.940795618	128	27	64
1438.940890785	144	27	41
1438.983241683	144	66	63
1439.048825587	128	27	64
1439.048918029	144	27	65
1439.049044997	128	66	64
1439.144073285	128	27	64
1439.144161064	144	27	32
1439.24790604	128	27	64
1439.317489012	144	27	59
1439.325785218	128	27	64
1439.325875614	144	27	29
1439.41746416	128	27	64
1439.417555217	144	27	57
1439.516033939	128	27	64
1439.516121994	144	27	30
1439.519067968	144	62	82
1439.578168969	128	62	64
1439.618098944	128	27	64
1439.627859733	144	21	25
1439.667347896	144	27	64
1439.671171084	144	39	108
1439.706210631	128	27	64
1439.706301955	144	27	41
1439.771994001	128	21	64
1439.779107691	128	39	64
1439.78266348	144	21	25
1439.784906644	128	27	64
1439.78497865	144	27	69
1439.884659368	128	27	64
1439.884732081	144	27	48
1439.943956704	128	21	64
1439.982826778	128	27	64
1439.982919484	144	27	70
1440.043184615	144	21	33
1440.085814045	128	27	64
1440.085903212	144	27	39
1440.101115189	128	21	64
1440.167031576	144	66	63
1440.23298774	128	66	64
1440.313178649	128	27	64
1440.51903967	144	62	79
1440.564581423	128	62	64
1440.592598067	144	63	41
1440.736498761	128	63	64
1440.756856838	144	27	70
1440.850859864	128	27	64
1440.850950043	144	27	41
1440.936829435	128	27	64
1440.96339376	144	27	74
1441.063526434	128	27	64
1441.063623272	144	27	44
1441.101036542	144	63	42
1441.132890109	128	27	64
1441.222777942	128	63	64
1441.422607795	144	63	85
1441.548447778	144	62	75
1441.554872	128	63	64
1441.627497786	128	62	64
1441.685641016	144	27	69
1441.806099398	128	27	64
1441.853476311	144	27	42
1441.887775725	128	27	64
1441.905948935	144	27	72
1441.978975054	128	27	64
1441.97907177	144	27	48
1442.042416058	128	27	64
1442.089138377	144	39	115
1442.091257729	128	39	64
1442.1023262	128	69	64
1442.386705154	144	27	74
1442.557559567	128	27	64
1442.608800541	144	62	72
1442.643625867	128	62	64
1442.786301451	144	27	70
1442.822665859	144	39	6
1442.838440742	144	63	92
1442.877155362	128	27	64
1442.893984625	128	39	64
1442.936224368	128	63	64
1443.158102518	144	69	120
1443.299916929	144	100	64
1443.385429432	128	100	64
1443.62298599	144	62	74
1443.669123778	128	62	64
1443.680208838	144	27	70
1443.790535908	128	27	64
1443.790627113	144	27	47
1444.009027419	128	27	64
1444.530133439	144	63	88
1444.58186789	128	63	64
1444.594232797	144	100	114
1444.61838766	128	100	64
1444.619882563	144	62	71
1444.675170632	128	62	64
1444.714630574	144	27	66
1444.759631427	128	27	64
1444.917249359	128	25	64
1445.089819536	144	25	86
1445.128521008	128	25	64
1445.431065662	144	21	25
1445.477831191	144	63	86
1445.522437962	128	21	64
1445.544765749	128	63	64
1445.571560032	144	27	71
1445.658883158	128	27	64
1445.660178236	144	62	73
1445.679270155	144	97	95
1445.683958335	128	69	64
1445.708157583	144	27	51
1445.710128817	128	62	64
1445.781691126	128	27	64
1445.796500993	128	97	64
1445.820135173	144	27	76
1445.940293244	128	27	64
1446.235734009	144	88	108
1446.243170022	128	55	64
1446.27400985	144	63	84
1446.323468039	144	69	100
1446.347606374	128	63	64
1446.613653273	144	21	25
1446.618529777	144	62	71
1446.653692245	128	21	64
1446.66827352	128	62	64
1446.753349473	144	27	77
1446.75501794	144	25	85
1446.774908658	128	25	64
1446.805183194	128	27	64
1447.002206705	144	97	87
1447.083906421	128	97	64
1447.152439728	144	63	85
1447.215451221	128	63	64
1447.471902283	144	100	99
1447.479126763	144	21	26
1447.519873156	128	21	64
1447.524396845	128	88	64
1447.53424977	128	100	64
1447.623714421	144	100	81
1447.64912957	144	62	73
1447.652731348	144	27	76
1447.666957439	128	100	64
1447.682595534	128	62	64
1447.756139668	128	27	64
1447.756238638	144	27	45
1448.057665515	144	97	80
1448.07903924	128	27	64
1448.111524447	128	97	64
1448.159425778	144	63	89
1448.212894952	144	21	31
1448.24597988	128	69	64
1448.246186452	128	63	64
1448.253689639	128	21	64
1448.388956568	144	25	84
1448.408889748	128	25	64
1448.672150873	144	62	80
1448.722619283	128	62	64
1448.764835086	144	21	36
1448.778918898	144	27	71
1448.804478997	128	21	64
1448.923161691	128	27	64
1449.023535007	128	55	64
1449.104939826	144	69	95
1449.174982243	144	63	86
1449.306410464	128	63	64
1449.364239565	144	21	34
1449.403188969	128	21	64
1449.662955561	144	27	75
1449.675332874	144	62	67
1449.718911535	128	62	64
1449.752118309	128	27	64
1449.752214231	144	27	48
1449.979072934	144	21	52
1450.03707409	128	21	64
1450.128660212	128	27	64
1450.224380006	144	63	92
1450.310028477	128	63	64
1450.706722157	144	62	73
1450.746785615	128	62	64
1450.779155113	144	21	35
1450.805469979	128	21	64
1450.836093801	144	27	66
1450.871959998	128	27	64
1451.13856069	144	25	84
1451.199357832	144	63	90
1451.285560941	128	25	64
1451.333235208	128	63	64
1451.389880302	144	39	118
1451.484491908	128	66	64
1451.491440888	128	39	64
1451.675942994	144	27	83
1451.691642009	144	62	71
1451.741516974	128	62	64
1451.743869512	128	27	64
1451.743942657	144	27	48
1451.822026191	128	69	64
1452.100747572	128	27	64
1452.205414	144	25	83
1452.208559505	144	63	88
1452.336361001	128	63	64
1452.35352662	144	69	104
1452.639479133	144	39	114
1452.670437569	144	27	73
1452.757736209	128	39	64
1452.758167865	144	62	71
1452.789360339	128	62	64
1452.839727411	144	97	117
1452.895601134	128	97	64
1452.944048091	128	27	64
1453.289110504	144	63	87
1453.401424525	128	25	64
1453.522695166	144	27	69
1453.575250285	128	63	64
1453.585250118	128	27	64
1453.761926605	144	62	76
1453.781783375	128	62	64
1454.071981162	144	39	110
1454.218683984	128	39	64
1454.294373524	144	63	100
1454.321202915	144	27	49
1454.445395586	128	27	64
1454.456866707	144	27	74
1454.476932457	128	63	64
1454.587551074	128	69	64
1454.776367341	144	62	67
1454.796851067	128	62	64
1454.837701234	128	27	64
1455.101133805	144	97	120
1455.210327784	128	97	64
1455.253331329	144	97	126
1455.278072173	144	63	95
1455.303407122	144	69	109
1455.355892624	128	97	64
1455.43125092	144	97	118
1455.49938209	128	97	64
1455.518871833	128	63	64
1455.535723176	144	97	115
1455.549904663	144	27	69
1455.610904942	128	97	64
1455.638054386	144	97	112
1455.717609444	128	97	64
1455.751007036	144	97	119
1455.769454419	144	62	73
1455.805618123	128	62	64
1455.828393946	128	27	64
1455.830495856	128	97	64
1455.874566152	144	97	123
1455.957091391	128	97	64
1455.993634136	144	97	127
1456.02918871	128	97	64
1456.055843887	144	25	82
1456.246934183	144	63	102
1456.368356703	128	25	64
1456.457582712	144	27	42
1456.505715847	144	39	127
1456.583478764	128	39	64
1456.682356539	128	27	64
1456.715753152	128	63	64
1456.754179748	144	62	76
1456.779608149	128	62	64
1457.031023192	128	69	64
1457.175451127	144	21	105
1457.248252115	144	63	109
1457.272031497	128	21	64
1457.396002554	144	27	69
1457.6104613	144	88	105
1457.698416186	128	27	64
1457.711098146	128	88	64
1457.722084423	144	62	80
1457.788935834	128	62	64
1457.824132922	128	63	64
1458.030762867	144	88	59
1458.087299961	128	88	64
1458.186116467	144	63	97
1458.438583762	144	27	61
1458.533715261	128	63	64
1458.622285955	144	25	81
1458.686682119	144	63	91
1458.725409321	144	62	72
1458.748343572	128	62	64
1458.7569689	144	39	59
1458.842151957	128	39	64
1458.84362063	128	27	64
1458.845660959	128	63	64
1458.88880086	144	100	52
1458.963482413	128	100	64
1458.973844362	144	63	87
1459.043139882	144	100	49
1459.145373083	128	100	64
1459.153670336	128	25	64
1459.183755208	128	63	64
1459.212419164	144	100	49
1459.266783914	144	27	47
1459.30308938	144	63	87
1459.325751207	128	100	64
1459.455978486	128	63	64
1459.46665633	144	100	56
1459.57789509	128	100	64
1459.626381727	144	88	104
1459.632294126	144	63	85
1459.700452713	144	100	56
1459.738252998	128	88	64
1459.794735744	128	100	64
1459.7971241	144	62	67
1459.809712047	128	62	64
1459.820469607	128	27	64
1459.824850462	128	63	64
1459.912514462	144	100	55
1459.974074745	128	100	64
1459.987385253	144	63	81
1460.079939178	144	100	55
1460.152781979	128	63	64
1460.163428404	144	88	55
1460.177267528	128	100	64
1460.220825755	128	88	64
1460.294498873	144	63	83
1460.332599784	144	100	57
1460.352292338	144	27	85
1460.415033233	144	21	55
1460.416101659	128	63	64
1460.422734673	128	100	64
1460.443091482	128	27	64
1460.487966217	128	21	64
1460.506545007	144	39	119
1460.619305723	144	63	81
1460.652869579	144	21	55
1460.720818227	144	62	76
1460.721599197	128	21	64
1460.756668134	128	62	64
1460.792720135	128	63	64
1460.92399845	144	63	78
1461.087837185	128	63	64
1461.144090558	144	25	81
1461.241893671	144	63	84
1461.320867067	144	27	99
1461.352174907	128	27	64
1461.372403343	128	63	64
1461.577461221	144	63	90
1461.578765447	144	88	102
1461.585844022	128	25	64
1461.65518757	144	100	48
1461.659519489	128	88	64
1461.727239169	128	63	64
1461.807273703	144	62	79
1461.839327951	128	62	64
1461.882579514	144	88	107
1461.884852656	144	63	92
1461.956265048	128	88	64
1462.032644674	128	63	64
1462.162342874	144	88	38
1462.215881611	144	27	87
1462.22628464	144	63	91
1462.253211549	128	27	64
1462.260571492	128	88	64
1462.343454133	128	63	64
1462.597524452	144	63	92
1462.612349418	144	47	64
1462.672519201	128	47	64
1462.744676451	128	63	64
1462.847470506	128	100	64
1462.888096107	144	47	65
1462.919974464	144	62	107
1462.933516607	144	63	93
1462.994449986	128	47	64
1463.01572265	128	62	64
1463.049623226	128	39	64
1463.05204391	128	63	64
1463.163033946	144	27	98
1463.217142953	144	63	89
1463.223266561	128	27	64
1463.229763415	144	47	65
1463.297279197	128	47	64
1463.313043897	128	63	64
1463.343204706	144	100	116
1463.479407433	144	47	67
1463.558736619	144	63	90
1463.567958691	128	47	64
1463.739996706	128	63	64
1463.828437052	144	47	67
1463.857678422	144	63	86
1463.894953533	128	47	64
1463.961755552	144	62	105
1463.978602352	144	88	101
1463.987086321	128	63	64
1463.994057946	128	62	64
1464.04157003	128	88	64
1464.047385677	128	100	64
1464.162404059	144	47	65
1464.169398975	144	27	100
1464.189053602	144	63	91
1464.222724099	128	27	64
1464.228486244	128	47	64
1464.282936331	128	63	64
1464.33357851	144	88	104
1464.424803065	128	88	64
1464.484097234	144	47	66
1464.53583531	144	63	86
1464.575297414	128	47	64
1464.584939658	144	88	58
1464.618786563	144	21	14
1464.657443366	128	21	64
1464.677564137	128	88	64
1464.71913883	128	63	64
1464.805900489	144	47	66
1464.823579814	144	25	78
1464.853139865	144	63	82
1464.903615428	144	62	102
1464.909065223	128	47	64
1464.917060224	144	52	56
1464.951417018	128	62	64
1464.967270598	128	25	64
1465.017131475	128	52	64
1465.017435932	128	63	64
1465.036520792	144	21	19
1465.174423951	144	63	83
1465.188021212	144	27	107
1465.199851136	144	47	66
1465.212864336	128	21	64
1465.251890214	128	27	64
1465.256358012	144	39	30
1465.288704947	128	47	64
1465.29129165	128	39	64
1465.312338143	128	63	64
1465.514486476	144	63	69
1465.532286763	144	47	66
1465.563711217	144	21	16
1465.614920228	128	47	64
1465.67874434	128	63	64
1465.805599704	144	39	25
1465.831927318	144	63	62
1465.83997024	144	25	77
1465.840970404	128	39	64
1465.841563591	144	47	65
1465.894489465	128	25	64
1465.897559531	144	62	107
1465.918332128	128	47	64
1465.958898281	128	62	64
1465.966270322	128	63	64
1465.991778776	144	39	109
1466.024736669	128	39	64
1466.153922774	144	63	59
1466.190414968	144	47	65
1466.222885176	144	27	104
1466.267956323	128	47	64
1466.273074214	128	63	64
1466.281524441	128	27	64
1466.529452177	144	63	48
1466.536622285	144	47	66
1466.565242828	128	21	64
1466.621080048	144	52	56
1466.62629087	128	47	64
1466.68937369	144	39	30
1466.689873656	128	63	64
1466.723473545	128	39	64
1466.842254823	128	52	64
1466.849849243	144	63	40
1466.871197837	144	47	66
1466.904592439	144	62	104
1466.905059043	144	25	77
1466.950411158	128	63	64
1466.950916405	128	62	64
1466.973472934	128	47	64
1466.977970032	128	25	64
1467.048305172	144	21	115
1467.074619523	128	21	64
1467.150854046	144	69	99
1467.174020163	144	63	38
1467.181756403	144	39	29
1467.229280015	144	27	95
1467.234972675	144	47	67
1467.240331163	128	39	64
1467.286526353	128	63	64
1467.311615812	128	47	64
1467.388940925	144	39	127
1467.389356335	128	27	64
1467.38941908	144	27	77
1467.412200246	128	39	64
1467.468712532	128	27	64
1467.521908528	144	63	29
1467.559870653	144	88	101
1467.560258814	144	47	66
1467.616109892	128	88	64
1467.637612054	128	63	64
1467.645729698	128	47	64
1467.833219039	144	63	21
1467.887850311	144	47	67
1467.904875802	144	25	78
1467.935482537	144	62	103
1467.976320512	128	62	64
1467.983246589	128	47	64
1467.992409335	128	63	64
1468.005481515	144	39	44
1468.019997084	144	88	102
1468.041891533	128	39	64
1468.05761866	128	25	64
1468.078220193	128	88	64
1468.13499835	144	27	94
1468.19458023	128	27	64
1468.203694114	144	63	35
1468.223205778	144	47	67
1468.268760498	144	88	53
1468.297996846	128	47	64
1468.333149841	128	63	64
1468.346774311	128	88	64
1468.395882906	144	100	16
1468.413721049	128	100	64
1468.518427243	144	63	48
1468.555567956	144	39	44
1468.589064108	144	47	67
1468.59114397	128	39	64
1468.638944673	128	63	64
1468.670498619	128	47	64
1468.688211078	144	100	16
1468.742873625	128	100	64
1468.756110046	144	39	122
1468.790738588	128	39	64
1468.935498733	144	63	62
1468.935618402	144	47	67
1468.941903048	144	100	28
1468.993010275	128	100	64
1468.993267479	128	47	64
1469.005605773	144	25	77
1469.030623462	144	62	94
1469.050058173	128	62	64
1469.066933353	128	63	64
1469.075809959	144	27	97
1469.126892045	128	27	64
1469.134509042	144	100	35
1469.18622846	128	25	64
1469.195138767	128	100	64
1469.239782792	144	63	65
1469.266478884	144	47	68
1469.318984096	144	100	51
1469.340046452	144	39	34
1469.374131487	128	47	64
1469.381528213	128	63	64
1469.389978339	128	39	64
1469.394309497	128	100	64
1469.457020994	144	52	52
1469.519590052	144	100	64
1469.576184495	128	100	64
1469.593337944	144	63	74
1469.619298353	144	47	68
1469.682776534	144	100	75
1469.691481098	128	63	64
1469.698424849	128	69	64
1469.703222497	128	47	64
1469.759203817	128	100	64
1469.814982723	144	39	34
1469.862241299	144	100	87
1469.867231036	144	21	34
1469.891876643	128	39	64
1469.893867758	144	63	78
1469.906381868	128	21	64
1469.925602766	128	100	64
1469.92593424	144	62	78
1469.951852161	144	47	68
1469.973020077	128	62	64
1469.99812704	128	63	64
1470.000412216	144	27	98
1470.031338289	144	100	101
1470.05385365	128	27	64
1470.054294789	144	39	127
1470.062358472	128	47	64
1470.069627321	144	21	36
1470.090491756	128	39	64
1470.095106293	128	100	64
1470.104103934	128	21	64
1470.171578235	144	63	89
1470.197671077	144	100	116
1470.197968326	144	47	71
1470.259987376	128	100	64
1470.269143927	144	21	36
1470.304239234	128	21	64
1470.326238387	128	47	64
1470.338876724	128	63	64
1470.345546588	144	100	124
1470.372598047	144	25	109
1470.409598846	128	100	64
1470.443933565	128	25	64
1470.452591156	144	21	36
1470.479941455	144	100	127
1470.480661297	144	69	101
1470.487570521	128	21	64
1470.527663162	128	100	64
1470.554506476	144	63	94
1470.573417284	144	47	70
1470.623228414	144	39	74
1470.672585827	128	47	64
1470.674715366	128	39	64
1470.700124485	144	88	102
1470.708029821	128	63	64
1470.714173011	144	100	114
1470.746703367	128	88	64
1470.793139702	128	100	64
1470.826682657	144	63	99
1470.860403589	144	27	96
1470.873444542	144	47	70
1470.89748608	144	100	115
1470.926246391	144	62	65
1470.945233616	128	63	64
1470.961234299	128	62	64
1470.961347975	128	47	64
1470.977376274	128	100	64
1470.983354928	128	27	64
1470.98343838	144	27	67
1471.080723252	144	100	101
1471.102632171	128	27	64
1471.102723585	144	27	91
1471.141579475	144	63	101
1471.143602069	128	100	64
1471.159486999	144	39	121
1471.159668327	128	39	64
1471.233408723	144	88	104
1471.246307007	128	63	64
1471.248613654	144	47	69
1471.264046789	144	100	87
1471.294110363	128	88	64
1471.340239569	128	47	64
1471.343995269	128	100	64
1471.362226432	144	63	103
1471.382304867	128	27	64
1471.447768416	144	100	75
1471.453978427	128	63	64
1471.47744629	144	47	70
1471.521069567	144	88	67
1471.52746709	128	100	64
1471.569772124	128	47	64
1471.578719966	128	88	64
1471.614384846	144	100	69
1471.617431422	144	63	102
1471.621070195	144	39	114
1471.656707106	128	39	64
1471.688408787	144	25	106
1471.711194958	128	100	64
1471.732156214	128	63	64
1471.806194307	144	62	78
1471.817312635	144	100	52
1471.846610124	128	62	64
1471.856578897	144	47	70
1471.869854229	144	63	99
1471.878644842	128	100	64
1471.884166399	128	25	64
1471.911109588	144	27	72
1471.948415302	128	47	64
1471.992888859	144	81	84
1472.000881872	144	100	35
1472.019821516	128	63	64
1472.077983053	128	100	64
1472.1372274	128	27	64
1472.139501933	144	39	115
1472.149723102	144	100	24
1472.153084732	144	63	95
1472.190008976	144	47	70
1472.19105271	128	39	64
1472.244675339	128	100	64
1472.291387216	128	63	64
1472.300002767	128	47	64
1472.434244048	144	63	86
1472.440403539	144	47	71
1472.510782077	128	47	64
1472.573013773	128	63	64
1472.672984983	144	39	20
1472.687648355	144	62	90
1472.727192292	128	39	64
1472.7351042	144	63	68
1472.743625337	128	62	64
1472.80874889	128	52	64
1472.814189975	144	47	70
1472.88525947	128	63	64
1472.901684959	128	47	64
1472.948725293	144	27	90
1473.02090952	128	27	64
1473.113333737	144	63	67
1473.198730592	128	69	64
1473.205983451	144	39	116
1473.217994737	128	63	64
1473.358260084	144	63	75
1473.446995402	144	21	124
1473.461340061	144	69	94
1473.4656734	128	63	64
1473.544280237	128	21	64
1473.683126885	144	62	80
1473.724289539	128	62	64
1473.727829749	144	63	86
1473.866117362	128	39	64
1473.903249013	128	63	64
1473.934565775	144	27	88
1474.012184489	128	27	64
1474.067237736	144	63	82
1474.095637482	128	81	64
1474.132294464	144	100	21
1474.187396715	128	63	64
1474.234546913	128	100	64
1474.289789455	144	25	105
1474.323431548	144	100	20
1474.363158467	144	63	85
1474.417989419	128	100	64
1474.468990772	128	25	64
1474.478373381	128	63	64
1474.484622168	144	100	19
1474.574640753	144	62	77
1474.583608062	128	100	64
1474.587883016	128	62	64
1474.635220877	144	100	19
1474.712251749	128	100	64
1474.712914075	144	63	91
1474.765746196	144	100	19
1474.817411631	144	27	92
1474.831546269	144	62	77
1474.861399604	128	63	64
1474.883813066	128	100	64
1474.897023634	128	62	64
1474.906371713	144	39	127
1474.951895755	144	100	18
1474.989472326	128	27	64
1475.050444152	128	100	64
1475.074763232	144	63	85
1475.103413844	144	100	18
1475.105379768	144	62	79
1475.15041227	128	39	64
1475.163202579	128	62	64
1475.184096535	128	63	64
1475.23479321	128	100	64
1475.320634777	144	100	18
1475.3508473	144	63	87
1475.417144858	128	100	64
1475.451764557	144	62	78
1475.454735755	128	63	64
1475.468925498	144	100	18
1475.482295799	144	21	29
1475.505913391	128	62	64
1475.540013813	128	21	64
1475.54368245	144	81	110
1475.639790078	144	39	13
1475.684143038	144	63	98
1475.693698162	128	39	64
1475.701990833	128	100	64
1475.740486517	144	25	105
1475.740779475	144	62	80
1475.765185575	144	27	93
1475.80752735	144	100	28
1475.807819813	128	62	64
1475.881053898	128	100	64
1475.913620797	128	27	64
1475.936071272	128	25	64
1475.943675284	128	63	64
1475.974199658	144	100	36
1476.092020282	144	62	85
1476.102265344	128	100	64
1476.170790126	128	62	64
1476.171341141	144	100	38
1476.285785574	128	100	64
1476.313740146	128	69	64
1476.339489691	144	39	13
1476.387859259	144	100	52
1476.393003492	128	39	64
1476.467698312	128	100	64
1476.503945467	144	62	78
1476.568064654	128	62	64
1476.571908289	144	100	68
1476.625117222	144	69	92
1476.631130044	128	100	64
1476.68605118	144	27	74
1476.701622569	144	100	79
1476.70937279	144	63	85
1476.724050283	128	27	64
1476.724141105	144	27	102
1476.764371092	128	100	64
1476.871856927	144	100	92
1476.877310377	144	97	28
1476.877529725	128	97	64
1476.916344618	128	100	64
1477.006254385	144	39	7
1477.007549277	144	97	29
1477.008850318	128	27	64
1477.022151804	144	100	103
1477.041448163	128	39	64
1477.089244245	128	97	64
1477.101533245	128	100	64
1477.153694927	144	100	114
1477.234576812	144	62	77
1477.235872431	144	97	36
1477.258586897	128	62	64
1477.26755223	128	100	64
1477.300351433	144	100	119
1477.366482331	128	97	64
1477.384667385	128	100	64
1477.42322628	144	39	127
1477.433343194	144	100	123
1477.465738938	144	97	46
1477.494351397	128	39	64
1477.513566274	128	100	64
1477.537778402	144	88	106
1477.54772187	128	97	64
1477.551329744	144	100	116
1477.648471503	144	97	58
1477.707981428	128	97	64
1477.72172754	144	25	95
1477.745604835	144	62	79
1477.768427367	128	63	64
1477.7685182	144	63	108
1477.814658977	144	27	68
1477.852812054	144	97	70
1477.853585393	128	100	64
1477.864359534	128	27	64
1477.864448788	144	27	102
1477.91205079	128	97	64
1477.919830418	144	100	89
1477.980901001	128	25	64
1477.981443422	128	100	64
1477.992006398	144	97	79
1478.005986622	144	39	11
1478.018970538	144	100	87
1478.067646027	128	39	64
1478.077338022	128	27	64
1478.113041606	128	97	64
1478.117582743	128	100	64
1478.154798108	144	100	67
1478.211450151	144	97	84
1478.231115933	128	100	64
1478.245985517	128	81	64
1478.29040316	128	97	64
1478.372568496	144	100	30
1478.413905598	144	97	96
1478.485992782	144	21	29
1478.493541959	128	21	64
1478.493926596	128	97	64
1478.522954754	144	39	127
1478.556787108	128	39	64
1478.598602155	144	97	108
1478.640415142	128	97	64
1478.646425697	144	27	83
1478.650224369	128	100	64
1478.673393902	128	88	64
1478.74281283	128	62	64
1478.745993511	144	97	112
1478.753455006	128	63	64
1478.758722647	144	63	92
1478.774177991	144	81	91
1478.792168711	144	100	7
1478.792409357	128	97	64
1478.846054842	128	27	64
1478.902992979	144	97	114
1478.945084606	144	62	79
1478.949078352	128	97	64
1478.954428538	128	100	64
1478.99295411	144	100	7
1479.003160231	128	62	64
1479.040878145	144	39	25
1479.049208129	144	21	27
1479.052500253	144	97	117
1479.074716434	144	88	83
1479.085872259	128	100	64
1479.098166522	128	97	64
1479.107070719	128	21	64
1479.107938225	128	39	64
1479.109637903	144	62	80
1479.152064981	128	88	64
1479.157067742	128	62	64
1479.192399724	144	100	39
1479.207255083	144	97	114
1479.225714495	128	97	64
1479.252299243	128	100	64
1479.253231957	144	62	81
1479.289361779	144	21	31
1479.302558337	128	62	64
1479.338587661	128	21	64
1479.392471113	144	62	80
1479.410679429	144	100	81
1479.421529502	144	25	99
1479.437231305	128	69	64
1479.447991193	128	62	64
1479.46857628	128	100	64
1479.489189142	144	21	32
1479.533753628	144	62	84
1479.536818751	144	100	105
1479.539467085	144	39	25
1479.556824377	128	21	64
1479.57322431	128	39	64
1479.584934041	144	27	88
1479.589368455	128	62	64
1479.600718991	144	69	95
1479.666844829	128	100	64
1479.676988828	144	62	85
1479.703410703	144	100	116
1479.726842522	128	63	64
1479.740582912	128	62	64
1479.765106428	128	100	64
1479.819853269	144	100	118
1479.819995361	128	25	64
1479.83205898	144	62	87
1479.832325234	144	63	100
1479.835652537	128	27	64
1479.856227672	144	39	127
1479.876606783	128	39	64
1479.885303708	128	62	64
1479.915193382	128	100	64
1479.937125719	128	63	64
1479.980306992	144	63	102
1479.998593242	144	62	85
1480.002030035	144	100	113
1480.043317746	128	62	64
1480.067168968	128	63	64
1480.116445568	128	100	64
1480.162040662	144	63	102
1480.163800363	144	62	82
1480.205140608	144	100	110
1480.221862095	144	39	27
1480.228650485	128	63	64
1480.228775542	128	62	64
1480.280517685	128	39	64
1480.299658914	144	63	103
1480.305241079	144	62	83
1480.350361851	128	100	64
1480.373695579	128	63	64
1480.385639918	128	62	64
1480.418207802	144	100	83
1480.44116018	144	63	104
1480.484805646	144	62	79
1480.522995884	144	39	26
1480.524837175	128	63	64
1480.543446441	128	39	64
1480.548471266	128	100	64
1480.559254838	128	62	64
1480.565656106	144	97	30
1480.56958121	144	27	82
1480.593153721	144	63	104
1480.640004275	144	62	81
1480.65225762	144	100	34
1480.652504547	128	97	64
1480.679918537	128	63	64
1480.707909057	128	62	64
1480.732485313	128	100	64
1480.783390426	144	97	40
1480.811993978	144	63	90
1480.815366138	128	97	64
1480.819312495	144	100	8
1480.819655086	144	62	82
1480.821797796	128	27	64
1480.877585821	128	62	64
1480.914977574	128	100	64
1480.957038876	144	97	44
1480.980690839	144	62	81
1480.983576568	128	63	64
1481.003220582	144	100	1
1481.037258804	128	62	64
1481.055711521	144	39	127
1481.058096767	128	97	64
1481.097120165	128	39	64
1481.098645781	128	100	64
1481.122199299	144	97	55
1481.156971898	144	25	77
1481.166458682	144	62	76
1481.169092086	144	100	2
1481.175985728	128	25	64
1481.2322877	128	62	64
1481.239487937	144	88	101
1481.249033385	128	100	64
1481.249378604	128	97	64
1481.249619219	144	25	78
1481.305689139	144	100	2
1481.30970416	128	25	64
1481.329449969	144	97	76
1481.374543642	128	97	64
1481.385892756	144	25	82
1481.387923976	144	62	72
1481.407543164	144	27	79
1481.411674116	128	62	64
1481.44292712	128	25	64
1481.444051887	128	27	64
1481.448839609	144	97	82
1481.518418453	144	25	86
1481.519437177	144	27	78
1481.531533302	128	69	64
1481.546277035	128	97	64
1481.557478433	128	100	64
1481.5733071	128	27	64
1481.57623229	128	25	64
1481.615664093	144	62	87
1481.622205781	144	97	91
1481.624180638	144	27	76
1481.635075098	144	25	91
1481.640486466	144	39	25
1481.645208959	128	62	64
1481.668986655	128	97	64
1481.679627715	128	25	64
1481.693229597	128	39	64
1481.766806826	144	25	100
1481.786457457	144	62	89
1481.812863624	128	25	64
1481.839784243	144	100	51
1481.846282122	128	62	64
1481.85081537	128	100	64
1481.878644908	128	27	64
1481.920391217	144	100	67
1481.94989384	128	100	64
1482.003388026	144	62	81
1482.042925307	128	62	64
1482.061738295	144	100	89
1482.168913192	144	62	84
1482.170535081	128	100	64
1482.215445161	144	39	127
1482.225900343	128	62	64
1482.277367397	144	100	97
1482.281448814	128	39	64
1482.334143326	144	27	52
1482.334342004	128	100	64
1482.351567458	128	27	64
1482.35977426	128	88	64
1482.373433766	144	62	78
1482.389388724	144	100	98
1482.425419254	128	62	64
1482.425611308	144	27	63
1482.450353056	128	100	64
1482.485241724	144	100	101
1482.595053164	144	62	83
1482.622843713	144	25	27
1482.629386423	128	27	64
1482.634422665	128	100	64
1482.638676066	128	62	64
1482.68993149	144	100	101
1482.748373265	144	27	60
1482.753959983	144	88	79
1482.783269688	128	100	64
1482.798191347	128	27	64
1482.79947933	144	62	83
1482.819913071	128	88	64
1482.83572142	144	63	92
1482.845352587	128	62	64
1482.871359872	144	100	100
1482.891796192	144	39	15
1482.904863227	144	27	64
1482.910223165	128	39	64
1482.934142896	128	100	64
1482.94333512	128	27	64
1483.005762679	144	62	73
1483.011108629	144	27	57
1483.046455482	128	62	64
1483.063530684	128	27	64
1483.066734542	144	21	124
1483.123980409	128	21	64
1483.131476062	144	27	57
1483.17391361	128	27	64
1483.210415359	144	62	73
1483.211721034	144	27	61
1483.260579596	128	62	64
1483.292196991	128	27	64
1483.42144414	144	69	92
1483.440669539	144	62	68
1483.455365064	144	39	127
1483.489609764	128	62	64
1483.544506644	128	39	64
1483.568796545	144	52	103
1483.570988135	128	25	64
1483.649976618	144	25	78
1483.723592521	144	62	72
1483.773906017	128	62	64
1483.79461646	128	25	64
1483.938692671	144	27	71
1484.018914541	128	27	64
1484.047788519	144	62	74
1484.06040491	128	62	64
1484.073189738	144	39	19
1484.127962321	128	39	64
1484.190124049	144	25	94
1484.373945547	144	39	24
1484.427155418	128	39	64
1484.436585702	128	25	64
1484.449347715	144	97	40
1484.473825789	128	97	64
1484.502472225	128	81	64
1484.709930713	144	81	92
1484.723460202	144	39	127
1484.761361464	128	39	64
1484.772011859	128	81	64
1484.796312209	144	27	96
1484.801289976	128	63	64
1484.847265279	144	97	53
1484.890729878	128	27	64
1484.98116247	128	97	64
1485.034068102	144	97	66
1485.065205435	144	63	53
1485.073488496	144	39	30
1485.117246563	128	97	64
1485.127351803	128	39	64
1485.206198887	144	97	67
1485.252618652	128	97	64
1485.287934504	144	97	72
1485.386392801	128	97	64
1485.386486246	144	97	83
1485.407417262	144	39	32
1485.441931878	128	39	64
1485.51614146	128	97	64
1485.601810705	144	27	96
1485.61633453	144	97	91
1485.690427084	128	97	64
1485.705937923	128	27	64
1485.706239229	128	69	64
1485.763628412	144	97	99
1485.791280326	128	97	64
1485.791366561	144	97	99
1485.860237641	128	97	64
1485.860327984	144	97	103
1485.906403015	128	97	64
1485.964815686	144	97	115
1485.989468504	144	39	127
1486.0287684	128	39	64
1486.046136781	128	97	64
1486.216529275	128	63	64
1486.25625592	144	69	108
1486.379989866	144	63	30
1486.590504118	144	25	91
1486.606591581	144	39	22
1486.657215409	128	39	64
1486.712480223	144	27	98
1486.798761746	128	27	64
1486.859684921	144	81	76
1486.907982643	144	62	81
1486.992241802	128	81	64
1487.568615917	144	27	98
1487.674704341	128	27	64
1487.792600185	128	52	64
1487.806575878	144	39	127
1487.806867784	128	63	64
1487.842082972	128	39	64
1487.979378973	144	63	68
1488.265131411	144	39	42
1488.323594152	128	39	64
1488.488024739	144	27	98
1488.596484198	128	27	64
1488.621773075	128	63	64
1488.653947432	128	69	64
1488.727931256	144	63	88
1488.789992744	144	100	16
1488.889701879	144	39	118
1488.923957639	128	39	64
1488.925859173	128	100	64
1488.968472423	144	21	62
1488.980890834	144	100	60
1489.107605346	128	100	64
1489.161677351	144	100	24
1489.206328895	144	69	94
1489.274513516	128	100	64
1489.307456138	144	100	62
1489.310407898	144	81	72
1489.357174886	144	39	79
1489.390220154	128	39	64
1489.410637942	128	100	64
1489.411860881	144	100	25
1489.442721644	144	27	68
1489.469687976	128	27	64
1489.525953163	128	100	64
1489.614935928	144	100	62
1489.672466698	128	100	64
1489.672565394	144	100	21
1489.736636892	128	100	64
1489.808756741	144	39	127
1489.859581519	128	39	64
1490.270164316	144	27	77
1490.273717797	144	39	81
1490.308146189	128	39	64
1490.418197663	128	27	64
1490.427119441	144	27	46
1490.496985347	128	27	64
1490.756334799	144	39	124
1490.773880579	144	100	114
1490.796688468	128	39	64
1490.859916778	128	100	64
1490.882630985	144	27	88
1490.926566244	128	27	64
1491.01614931	144	100	22
1491.051622521	128	21	64
1491.073377962	128	69	64
1491.177263893	128	100	64
1491.273913139	144	39	77
1491.29436271	128	39	64
1491.323651564	144	27	55
1491.345218537	128	81	64
1491.357460114	128	27	64
1491.403092763	128	63	64
1491.419025684	144	100	105
1491.514982867	128	100	64
1491.515078884	144	100	21
1491.552548032	144	63	104
1491.571543416	128	100	64
1491.645814601	144	100	22
1491.739276053	128	100	64
1491.755971149	144	39	115
1491.77960231	144	27	59
1491.790320627	128	39	64
1491.822664118	128	27	64
1491.865068857	144	69	96
1492.040718487	144	100	20
1492.067284956	128	62	64
1492.118965075	144	81	101
1492.160592683	128	100	64
1492.185023446	144	27	70
1492.190591565	128	27	64
1492.249051552	144	39	67
1492.28284291	144	62	90
1492.309650982	128	39	64
1492.333159871	144	27	52
1492.349435591	144	100	103
1492.372528451	128	27	64
1492.435003984	144	27	51
1492.481295072	128	100	64
1492.481479614	144	100	20
1492.48653597	128	27	64
1492.711110926	128	100	64
1492.762496481	144	39	69
1492.807062059	128	39	64
1492.899523037	144	100	101
1493.027469037	128	100	64
1493.080945575	144	100	22
1493.191782046	144	27	84
1493.209656265	128	100	64
1493.216186742	128	27	64
1493.229568255	144	100	100
1493.292740623	144	27	80
1493.305948557	144	39	67
1493.32700662	128	39	64
1493.344218528	128	100	64
1493.348653497	128	27	64
1493.38308542	144	100	22
1493.489521218	128	100	64
1493.526935385	144	100	94
1493.612471949	128	100	64
1493.612568212	144	100	27
1493.683428059	128	63	64
1493.692939624	128	100	64
1493.709186443	144	63	105
1493.734991107	128	69	64
1493.782884909	144	100	89
1493.806750819	144	39	64
1493.810947514	128	100	64
1493.811041843	144	100	29
1493.860639062	128	39	64
1493.911054275	128	100	64
1494.016611089	144	100	84
1494.029547289	128	100	64
1494.029644374	144	100	32
1494.114533841	128	81	64
1494.143319237	128	100	64
1494.183711311	144	27	110
1494.207577698	128	27	64
1494.294638209	144	27	106
1494.323606542	144	39	45
1494.347456386	128	27	64
1494.377670622	128	39	64
1494.419219606	144	81	59
1494.61281448	144	100	65
1494.708085404	128	100	64
1494.806551454	144	39	34
1494.834523449	144	100	61
1494.860572109	128	39	64
1494.895988503	144	69	96
1494.90894842	128	100	64
1494.963788004	128	62	64
1494.997372128	144	100	62
1495.0942347	128	100	64
1495.144751611	144	100	70
1495.243270904	128	100	64
1495.302785647	144	27	73
1495.322581382	128	27	64
1495.331137475	144	100	82
1495.356696944	144	39	29
1495.390498313	128	39	64
1495.417916377	144	52	102
1495.423808415	128	100	64
1495.494590876	144	100	91
1495.547430643	144	88	95
1495.628055666	128	100	64
1495.695542108	144	100	92
1495.7940065	128	81	64
1495.810835384	128	100	64
1495.863550892	144	100	93
1495.866462039	144	62	83
1495.994450317	128	100	64
1496.083873857	144	100	94
1496.123651576	144	39	27
1496.144637057	128	39	64
1496.177983683	128	100	64
1496.265304511	144	100	93
1496.273853612	144	27	77
1496.315730007	128	27	64
1496.378066611	128	100	64
1496.378496539	144	27	80
1496.447149103	128	27	64
1496.486025574	144	100	92
1496.557820923	128	63	64
1496.59484463	128	100	64
1496.66124665	144	100	92
1496.792906932	128	69	64
1496.796439415	128	100	64
1496.841143957	144	63	98
1496.865304235	144	100	93
1496.99644042	128	100	64
1497.085648855	144	100	93
1497.179187571	128	100	64
1497.265712822	144	100	93
1497.288196603	144	27	105
1497.313253862	128	27	64
1497.330996656	128	88	64
1497.363055913	128	100	64
1497.400933281	144	27	99
1497.428852364	144	100	93
1497.46644647	128	27	64
1497.50689283	144	39	23
1497.560604003	128	39	64
1497.623348485	144	81	99
1497.918317003	144	69	104
1497.93550083	128	62	64
1497.944217169	144	21	51
1498.110309873	144	62	83
1498.115624046	128	21	64
1498.130978527	128	100	64
1498.24173398	144	27	104
1498.263851846	128	27	64
1498.289173363	144	100	20
1498.335939011	144	27	98
1498.359056446	128	100	64
1498.395973492	128	27	64
1498.466595263	144	100	22
1498.495600156	144	97	66
1498.559847948	128	100	64
1498.561884813	128	97	64
1498.7890332	128	63	64
1498.790075162	144	39	38
1498.876338912	128	39	64
1499.099792098	144	97	80
1499.107970128	144	63	92
1499.13968204	144	39	91
1499.174030622	128	39	64
1499.230895312	128	97	64
1499.245091143	128	62	64
1499.268036729	144	27	104
1499.300194787	128	27	64
1499.374771122	144	27	97
1499.410464297	144	62	75
1499.434445432	128	27	64
1499.531610526	144	97	80
1499.65567847	128	97	64
1499.713985122	144	88	72
1499.737167341	128	88	64
1499.961750877	144	97	81
1500.017879266	128	81	64
1500.046572748	128	69	64
1500.079442405	128	97	64
1500.087444973	128	63	64
1500.203717667	144	27	94
1500.203837647	144	63	92
1500.229552104	128	27	64
1500.240174506	144	69	94
1500.271784973	128	69	64
1500.271875016	144	69	94
1500.286881404	144	27	91
1500.362460891	128	27	64
1500.468058599	144	97	77
1500.561541314	128	97	64
1500.572411419	128	62	64
1500.704981623	144	62	78
1500.803232345	144	27	79
1500.858718298	128	27	64
1500.978787571	144	97	79
1501.006727931	144	39	121
1501.080652053	128	39	64
1501.083201075	128	97	64
1501.214456812	128	63	64
1501.233616121	144	27	83
1501.257101915	144	63	94
1501.268458104	128	27	64
1501.512201398	144	100	60
1501.6016936	144	97	85
1501.632533357	128	100	64
1501.643607482	144	27	72
1501.685105411	128	27	64
1501.73339343	128	97	64
1501.734519775	128	63	64
1501.788756356	144	63	91
1501.944639362	128	62	64
1502.013946804	144	88	85
1502.022527532	144	27	77
1502.049036925	128	88	64
1502.068606677	144	62	78
1502.08850957	128	27	64
1502.204984168	128	69	64
1502.22091867	144	81	96
1502.265404243	144	97	90
1502.338139777	128	81	64
1502.346872422	128	97	64
1502.419877429	144	88	82
1502.429022687	144	27	74
1502.458769625	144	69	95
1502.477092292	128	88	64
1502.492756257	128	52	64
1502.517647312	128	27	64
1502.637247124	144	88	76
1502.660405681	128	88	64
1502.859000701	128	63	64
1502.880440289	144	27	73
1502.902815115	144	97	95
1502.913456499	128	27	64
1502.935944362	144	81	97
1502.956755159	144	39	91
1502.985815659	144	52	109
1502.998290621	128	97	64
1503.157559341	128	62	64
1503.301918423	144	62	75
1503.604638114	144	97	99
1503.734610258	128	97	64
1503.965618372	144	27	85
1504.001363255	128	27	64
1504.056246976	128	62	64
1504.14039207	144	88	100
1504.210040791	128	88	64
1504.238296795	144	62	77
1504.3350604	144	97	100
1504.414520336	144	100	53
1504.420816888	128	97	64
1504.452413933	128	69	64
1504.550277059	128	100	64
1504.704634452	144	88	79
1504.778026017	128	88	64
1504.855715966	144	27	82
1504.880936114	128	27	64
1504.95648239	144	27	81
1505.037848923	144	88	51
1505.040778929	144	69	98
1505.04181949	144	97	104
1505.071681717	128	27	64
1505.121494279	128	97	64
1505.131326598	128	88	64
1505.152345217	128	39	64
1505.557371376	144	39	87
1505.566825459	128	62	64
1505.783921295	144	62	80
1505.918662086	144	97	107
1506.01602879	144	27	42
1506.059079961	128	27	64
1506.503704408	128	97	64
1506.566900813	128	39	64
1506.829804627	144	27	25
1506.852720352	144	97	113
1506.866262639	128	27	64
1506.908225575	128	97	64
1506.939152207	144	27	21
1506.996715127	128	27	64
1507.09532069	144	100	56
1507.122117712	128	62	64
1507.260659354	128	69	64
1507.28553081	128	100	64
1507.323168526	144	62	78
1507.3514359	128	81	64
1507.469497116	144	27	21
1507.500065609	144	88	108
1507.500340056	128	27	64
1507.546575423	128	88	64
1507.562563578	144	27	21
1507.614466845	128	27	64
1507.743546664	144	27	23
1507.772532126	128	27	64
1507.876122294	128	52	64
1507.966117006	144	81	76
1508.029571802	144	27	19
1508.066103745	128	27	64
1508.119005946	144	69	97
1508.157026504	144	39	59
1508.430847703	144	100	75
1508.556752631	144	27	21
1508.604626199	128	27	64
1508.679963055	144	27	24
1508.702052014	128	100	64
1509.203102577	144	97	68
1509.321024348	144	63	84
1510.336126064	144	52	71
1510.370105172	128	52	64
1511.156109393	144	21	26
1511.351552747	128	21	64
1511.984976348	144	100	50
1512.020290041	128	100	64
1512.101392144	144	88	99
1512.115162519	128	88	64
1512.235759631	144	21	26
1512.379727895	128	21	64
1512.559713855	128	39	64
1512.623661286	128	62	64
1512.798273594	144	62	67
1512.888381733	128	81	64
1513.287143443	144	21	27
1513.311025609	128	27	64
1513.423612896	144	27	30
1513.4352888	128	21	64
1513.705716147	128	63	64
1513.908311212	144	39	9
1513.975919522	128	39	64
1514.016100002	144	63	41
1514.250140684	128	27	64
1514.39079589	144	39	8
1514.402739306	144	21	28
1514.444335046	128	39	64
1514.551907427	128	21	64
1514.588406765	144	27	38
1514.78536	144	52	47
1514.824051143	144	39	4
1514.892057766	128	39	64
1515.157387483	144	39	3
1515.225551719	128	39	64
1515.453548167	144	21	31
1515.618500345	128	21	64
1515.640478034	144	39	1
1515.708613705	128	39	64
1515.717178226	144	81	78
1516.056680182	144	39	1
1516.19994778	128	39	64
1516.57368535	144	39	1
1516.637489977	144	21	31
1516.657581468	128	39	64
1516.727630121	128	21	64
1517.004750428	128	62	64
1517.04074654	144	39	1
1517.144135909	128	39	64
1517.23461688	144	62	38
1517.515890495	144	39	1
1517.584311828	128	27	64
1517.668589139	128	39	64
1517.719678495	144	21	35
1517.801500715	128	63	64
1517.836666317	128	25	64
1517.885969807	128	21	64
1517.989340943	144	88	91
1518.056920276	144	39	1
1518.089643963	128	88	64
1518.142836933	128	39	64
1518.14314526	144	63	12
1518.788025027	144	21	35
1518.897205131	144	27	35
1518.951416424	128	21	64
1519.078623577	144	25	24
1519.104989511	144	100	66
1519.121824799	128	97	64
1519.121911536	144	97	1
1519.152954037	128	100	64
1519.808003196	128	81	64
1519.921350275	144	21	31
1520.064321522	128	21	64
1520.086249288	128	97	64
1520.098653297	144	97	42
1520.254865024	128	97	64
1520.254955488	144	97	38
1520.817215118	128	62	64
1520.980555241	144	62	38
1520.987786903	144	21	29
1521.152728723	128	21	64
1521.291772369	144	88	49
1521.355653389	128	88	64
1521.506311252	144	39	6
1521.535331125	128	97	64
1521.561114425	128	39	64
1521.565837054	128	62	64
1521.608986254	144	39	6
1521.763540959	144	62	44
1521.944272026	144	81	58
1521.954234932	128	27	64
1522.083454552	128	81	64
1522.171507791	144	21	26
1522.261992488	128	21	64
1522.553372062	128	25	64
1522.779247038	128	63	64
1522.972580596	144	63	7
1523.001022346	144	97	36
1523.016265578	128	52	64
1523.030698983	128	69	64
1523.100974363	144	81	104
1523.166558044	144	27	31
1523.175924352	128	39	64
1523.176023112	144	39	6
1523.219809805	128	81	64
1523.235668107	144	25	29
1523.271217695	144	21	28
1523.416024986	128	21	64
1523.575300442	128	63	64
1523.58731362	128	25	64
1523.633355888	128	97	64
1523.673087706	144	88	52
1523.682796945	144	63	15
1523.761228183	128	88	64
1523.87353558	144	97	47
1523.962643658	144	69	12
1524.243864293	128	63	64
1524.309471223	144	100	91
1524.410213861	128	100	64
1524.421235313	144	21	28
1524.431118947	144	63	19
1524.49501758	128	21	64
1524.556912879	144	25	31
1525.027393083	128	63	64
1525.128776709	144	63	30
1525.219540917	144	52	39
1525.926666596	144	21	28
1526.021858035	144	81	41
1526.104516793	128	21	64
1526.124799286	128	63	64
1526.202906411	128	81	64
1526.286646496	144	63	28
1526.5756188	128	39	64
1526.575717615	144	39	111
1526.746114159	128	69	64
1526.965574383	144	81	61
1526.990926569	128	63	64
1527.162255204	144	63	43
1527.162672455	128	81	64
1527.388750059	144	21	28
1527.536707835	128	21	64
1527.574154233	144	81	81
1527.700070293	128	63	64
1527.755084631	128	81	64
1527.756601349	128	39	64
1527.756676471	144	39	114
1528.161319141	144	81	99
1528.164234054	144	69	12
1528.311990675	144	100	52
1528.329368193	144	63	29
1528.372700355	128	100	64
1528.442865713	128	81	64
1528.643893963	144	88	21
1528.675733463	128	88	64
1528.992934564	128	27	64
1529.077759068	144	27	24
1529.106923194	144	21	28
1529.253775165	128	21	64
1529.261233887	128	62	64
1529.2776445	144	88	28
1529.307859234	128	88	64
1529.384326304	144	62	39
1529.86497879	128	62	64
1530.066296897	144	62	50
1530.730932585	128	27	64
1530.773192848	144	21	28
1530.936403552	128	21	64
1530.992259873	128	97	64
1530.99235073	144	97	74
1531.039602459	128	97	64
1531.039693637	144	97	77
1531.216159256	144	27	38
1531.287804191	128	25	64
1531.434454523	128	97	64
1531.434741198	144	97	72
1531.515169953	128	97	64
1532.321887127	144	21	24
1532.358716099	144	25	93
1532.359030549	128	25	64
1532.387635441	144	25	122
1532.466799279	128	21	64
1532.537536659	128	25	64
1532.569860299	144	100	99
1532.630242581	128	100	64
1532.827246347	128	52	64
1533.213698288	128	27	64
1533.444429732	144	27	39
1533.491316526	144	25	1
1533.513063675	128	27	64
1533.807228784	144	21	23
1533.935374722	128	69	64
1533.951184963	128	39	64
1533.972469378	128	21	64
1533.99987348	144	39	124
1534.428165868	144	27	54
1534.457983007	128	27	64
1535.037380981	144	97	75
1535.298232055	144	27	61
1535.323898713	128	27	64
1535.355804613	128	25	64
1535.380465427	144	21	24
1535.52381223	128	21	64
1535.854448618	144	81	90
1535.902963648	128	81	64
1536.056685146	144	81	91
1536.094494536	144	69	81
1536.100952413	128	81	64
1536.149431148	128	69	64
1536.228567319	144	27	60
1536.235166448	144	69	97
1536.274099086	128	27	64
1536.360904397	144	81	96
1536.364839859	128	69	64
1536.569295812	144	52	113
1536.598584232	128	52	64
1536.723234744	144	21	22
1536.870294619	128	21	64
1537.152004968	144	27	62
1537.196599504	128	27	64
1537.257436967	128	81	64
1537.341187993	144	100	88
1537.420002439	128	100	64
1537.48132527	144	81	81
1537.604710211	128	81	64
1537.661332058	128	62	64
1537.775647965	144	62	43
1537.83437934	144	81	79
1537.956085627	128	81	64
1538.09081609	144	27	61
1538.105295032	144	21	23
1538.122645306	128	27	64
1538.229682053	128	21	64
1538.303260025	144	81	55
1538.438767011	128	81	64
1538.784149417	144	81	54
1538.933701969	128	81	64
1538.969099669	144	27	57
1539.028347082	128	27	64
1539.365450111	128	97	64
1539.422635434	128	39	64
1539.422735528	144	39	8
1539.423327315	144	81	48
1539.428254024	144	21	24
1539.535711199	144	52	43
1539.573010639	128	21	64
1539.785632422	128	81	64
1539.909816621	144	27	55
1539.963022932	128	27	64
1540.286844945	144	81	41
1540.629372896	144	21	24
1540.681372122	128	81	64
1540.804895915	128	21	64
1540.871745185	144	27	57
1540.901917071	128	27	64
1540.970666824	144	81	40
1541.068745716	128	81	64
1541.178208634	144	81	41
1541.272626463	128	81	64
1541.352276901	144	81	35
1541.402481404	144	88	86
1541.477084738	128	81	64
1541.518727052	128	88	64
1541.578320036	144	81	35
1541.670154014	128	81	64
1541.807966869	144	21	25
1541.819614793	144	27	62
1541.854860969	128	27	64
1541.971433193	128	21	64
1542.341529994	144	25	3
1542.537513859	144	69	92
1542.594542848	144	100	72
1542.666737063	128	100	64
1542.775333737	144	27	61
1542.787785088	128	27	64
1542.92213377	144	21	25
1543.071246272	128	21	64
1543.17149345	128	25	64
1543.628890715	144	27	62
1543.673349965	128	27	64
1543.734329421	128	39	64
1543.825964884	144	25	15
1544.258676764	144	39	1
1544.291625703	128	39	64
1544.373377363	144	39	19
1544.447415409	128	39	64
1544.447506524	144	39	1
1544.502353865	144	27	64
1544.542904564	128	27	64
1544.617851612	128	39	64
1544.618066256	144	39	12
1544.775563024	128	39	64
1544.775661661	144	39	1
1544.876891061	128	39	64
1544.900341585	144	39	13
1545.071981068	128	39	64
1545.072184461	144	39	1
1545.151810556	128	39	64
1545.153233773	144	39	14
1545.191659358	144	21	24
1545.303675709	128	39	64
1545.303959249	144	39	3
1545.356841045	128	21	64
1545.393663708	128	39	64
1545.435519343	144	39	15
1545.49315906	144	27	63
1545.531598308	128	27	64
1545.532811995	128	39	64
1545.532889008	144	39	2
1545.677378569	128	39	64
1545.677587774	144	39	15
1545.820698091	128	39	64
1545.820795268	144	39	3
1545.893894735	128	39	64
1545.943456792	144	39	17
1546.087890076	128	39	64
1546.087982423	144	39	5
1546.162924621	128	39	64
1546.163981779	144	39	17
1546.307483882	128	39	64
1546.307579388	144	39	4
1546.369499317	128	25	64
1546.410408968	128	39	64
1546.434634764	144	39	20
1546.487384394	144	27	61
1546.512204851	128	27	64
1546.536694833	128	39	64
1546.536791279	144	39	7
1546.558833218	144	21	24
1546.578110819	128	39	64
1546.654310606	144	39	22
1546.708094309	144	81	119
1546.721728973	128	21	64
1546.734970395	128	39	64
1546.735067628	144	39	8
1546.826734166	128	39	64
1546.826884746	128	81	64
1546.886898156	144	39	22
1546.912273241	144	81	114
1547.03309013	128	39	64
1547.03335689	144	39	7
1547.051806585	144	25	22
1547.095464388	128	39	64
1547.142486687	144	39	19
1547.150113261	128	81	64
1547.256612242	128	39	64
1547.259297824	144	39	5
1547.327471773	144	88	86
1547.329265787	128	39	64
1547.382886478	144	39	18
1547.383888532	128	88	64
1547.422186191	144	27	62
1547.469931137	128	27	64
1547.519116784	144	81	71
1547.527759952	128	39	64
1547.528020031	144	39	5
1547.565067705	128	39	64
1547.621077391	144	39	19
1547.710081939	128	39	64
1547.770644216	144	88	83
1547.774264288	144	39	3
1547.808385363	128	39	64
1547.854520556	128	88	64
1547.864545872	144	39	18
1547.961935711	128	39	64
1547.981072788	144	39	3
1548.062180381	128	39	64
1548.122097783	144	39	19
1548.135107006	144	88	83
1548.209299757	128	39	64
1548.221979641	128	88	64
1548.257061399	144	39	6
1548.311667311	128	39	64
1548.373399368	144	39	24
1548.377807088	144	27	60
1548.392785882	128	62	64
1548.409539864	128	27	64
1548.426638158	144	88	82
1548.515652903	128	39	64
1548.515861942	144	39	10
1548.555272479	128	88	64
1548.557245741	128	81	64
1548.560172996	128	39	64
1548.640236679	144	39	25
1548.641256288	144	81	45
1548.735485213	128	39	64
1548.739082762	144	39	5
1548.826573189	128	39	64
1548.887553643	144	39	21
1549.032542158	128	39	64
1549.032824418	144	39	2
1549.128467474	128	39	64
1549.150245497	144	39	21
1549.302293553	128	39	64
1549.302556011	144	39	5
1549.32803513	144	27	60
1549.337271817	144	62	29
1549.344802096	128	39	64
1549.356130323	128	63	64
1549.358302201	128	27	64
1549.398289297	144	39	23
1549.477308719	128	39	64
1549.51306112	144	39	8
1549.549268852	144	100	82
1549.595641947	128	39	64
1549.604677219	128	100	64
1549.640241227	144	39	22
1549.729060662	128	39	64
1549.765377161	144	39	3
1549.781593161	128	69	64
1549.859318714	128	39	64
1549.906982928	144	39	13
1549.995030011	128	39	64
1550.021168673	144	39	1
1550.110141163	128	39	64
1550.168675931	144	39	10
1550.180228307	128	81	64
1550.250063004	128	39	64
1550.273404486	144	39	7
1550.277733064	144	27	60
1550.308932964	128	27	64
1550.345688447	128	39	64
1550.35485226	144	81	76
1550.405513684	144	39	27
1550.476305352	128	39	64
1550.500973909	144	39	19
1550.575831045	128	39	64
1550.605156879	128	25	64
1550.642365848	144	39	37
1550.671176936	144	63	41
1550.708597697	128	39	64
1550.759900349	144	39	31
1550.825958993	128	39	64
1550.867592354	144	39	48
1550.912924374	128	81	64
1551.002889783	144	81	46
1551.023630627	128	39	64
1551.023901371	144	39	44
1551.093659093	128	39	64
1551.149989138	144	39	73
1551.223220156	144	27	65
1551.22583357	128	39	64
1551.259839068	144	39	72
1551.272051344	128	27	64
1551.40314958	128	39	64
1551.403362075	144	39	70
1551.510270254	128	39	64
1551.556269873	144	39	18
1551.585219943	144	97	95
1551.585423744	128	97	64
1551.585690063	144	97	93
1551.585900666	128	97	64
1551.586116898	144	97	95
1551.699824269	128	39	64
1551.709889573	144	39	16
1551.76407758	128	62	64
1551.809209264	128	97	64
1551.817144392	128	39	64
1551.822342267	144	39	1
1551.888887444	144	62	37
1551.897053796	128	39	64
1551.944331267	144	39	25
1552.025759828	144	25	123
1552.031192367	128	39	64
1552.04935904	144	39	14
1552.098431077	128	25	64
1552.108526477	144	21	24
1552.137600637	144	25	75
1552.143117411	128	39	64
1552.143759066	144	27	67
1552.18106473	128	21	64
1552.189732694	144	39	42
1552.207997292	128	27	64
1552.245830862	128	39	64
1552.331796161	144	39	37
1552.357171168	128	39	64
1552.393097221	144	39	50
1552.464959477	144	88	60
1552.477152693	128	39	64
1552.477249132	144	39	56
1552.477524615	128	39	64
1552.498864727	128	81	64
1552.557791426	128	62	64
1552.567551418	144	39	24
1552.664485281	128	39	64
1552.664582001	144	39	22
1552.673266444	128	88	64
1552.711885005	128	52	64
1552.773639296	144	62	50
1552.834146029	128	39	64
1552.835443335	144	39	7
1552.924636969	128	39	64
1552.9705973	144	39	22
1553.044647044	128	39	64
1553.089100374	144	27	64
1553.101929153	128	25	64
1553.104964974	144	39	16
1553.132566023	128	27	64
1553.177383136	128	39	64
1553.203146241	144	39	19
1553.268294897	144	81	67
1553.277368757	128	39	64
1553.320965382	144	39	15
1553.3229923	144	88	80
1553.372636008	128	81	64
1553.391583879	128	39	64
1553.424092559	128	88	64
1553.4276403	144	81	66
1553.439535885	144	39	18
1553.497940166	128	39	64
1553.541950814	128	52	64
1553.558724093	144	39	15
1553.610809191	128	39	64
1553.692019826	144	39	19
1553.768036907	128	39	64
1553.779497907	144	39	14
1553.790097935	144	25	16
1553.841597365	128	39	64
1553.880707682	144	39	20
1554.023893109	128	39	64
1554.024109313	144	39	17
1554.07595268	128	39	64
1554.095246402	144	97	71
1554.103163861	144	27	66
1554.116568427	144	39	23
1554.146145229	128	97	64
1554.148499086	128	27	64
1554.180898577	128	39	64
1554.218188382	144	39	19
1554.224905825	144	65	104
1554.252186188	144	97	75
1554.310954927	128	39	64
1554.324960073	128	97	64
1554.37128613	144	39	25
1554.432101462	128	39	64
1554.492381003	144	39	20
1554.55923963	128	39	64
1554.617858533	144	39	24
1554.715089317	128	39	64
1554.741558565	144	39	17
1554.795734884	128	39	64
1554.843638031	144	39	24
1554.922799277	128	39	64
1554.976302786	144	39	21
1555.053249667	128	62	64
1555.068900418	128	39	64
1555.074417404	144	39	27
1555.14574156	128	39	64
1555.147542864	144	27	71
1555.189778071	128	27	64
1555.19180937	144	39	22
1555.202121761	144	62	48
1555.245805452	128	39	64
1555.299172233	144	39	25
1555.377219743	128	39	64
1555.409040009	144	39	23
1555.476367076	128	39	64
1555.517490554	144	100	76
1555.523491997	144	39	26
1555.590742045	128	100	64
1555.593220225	128	39	64
1555.623402262	144	39	23
1555.69165614	128	39	64
1555.751823807	144	39	25
1555.763447655	128	81	64
1555.814283946	128	39	64
1555.851862617	144	39	23
1555.9457476	128	39	64
1555.989928807	144	39	28
1556.045677141	128	39	64
1556.074219604	144	27	71
1556.103955802	144	39	29
1556.109791817	128	27	64
1556.148443846	144	97	32
1556.177150536	128	39	64
1556.229770047	144	39	29
1556.295235675	128	39	64
1556.332794966	144	39	27
1556.409801941	128	39	64
1556.451343629	144	39	29
1556.545642168	128	39	64
1556.581946096	144	39	29
1556.641757431	128	39	64
1556.681127273	144	81	18
1556.694538482	144	39	30
1556.767314395	128	39	64
1556.808517968	144	39	25
1556.876069734	128	39	64
1556.877971874	128	81	64
1556.927850762	144	39	27
1556.985047015	144	27	52
1557.000541964	128	39	64
1557.016675643	144	39	24
1557.034665971	128	27	64
1557.160487137	128	39	64
1557.173953218	144	39	26
1557.219919044	128	25	64
1557.247782116	128	39	64
1557.305053227	144	39	22
1557.306696977	144	81	23
1557.392700761	128	39	64
1557.420218648	144	39	23
1557.515646469	128	81	64
1557.565102415	128	39	64
1557.565288189	144	39	23
1557.646298129	128	39	64
1557.6570549	144	25	31
1557.682438081	144	39	25
1557.784869486	128	39	64
1557.799974253	144	39	19
1557.839751099	128	97	64
1557.896205055	128	39	64
1557.914744557	144	27	56
1557.941761124	144	39	23
1557.975766707	128	27	64
1558.040910875	144	81	25
1558.086166115	128	39	64
1558.086420217	144	39	14
1558.185906782	128	39	64
1558.189157103	144	39	19
1558.318200213	128	81	64
1558.332943713	128	39	64
1558.333156473	144	39	12
1558.34425492	144	88	65
1558.409921628	128	39	64
1558.47001425	144	39	17
1558.493588055	128	88	64
1558.554372599	128	39	64
1558.557428443	144	39	17
1558.639064797	128	63	64
1558.659607118	128	39	64
1558.683445672	144	39	23
1558.779357493	128	39	64
1558.840583729	144	39	14
1558.85242065	144	27	56
1558.884532036	128	27	64
1558.907673981	144	88	65
1558.929312138	128	39	64
1558.973222782	144	39	11
1559.044976905	128	39	64
1559.060118737	128	88	64
1559.090565373	144	39	12
1559.174698493	128	39	64
1559.205553476	144	39	15
1559.300425108	128	39	64
1559.332603819	144	88	67
1559.345063392	144	39	12
1559.401008887	144	81	42
1559.429293685	128	39	64
1559.461338341	128	88	64
1559.475088802	144	39	9
1559.566590757	128	81	64
1559.619058046	128	39	64
1559.619269617	144	39	10
1559.675011928	128	39	64
1559.705213459	128	25	64
1559.714612188	144	39	7
1559.781654211	144	69	87
1559.805871818	144	27	53
1559.812864621	128	39	64
1559.848551413	128	27	64
1559.856885354	144	39	7
1559.945864992	128	39	64
1559.969379606	144	39	8
1560.064201898	128	39	64
1560.106182832	144	39	13
1560.174842322	128	39	64
1560.222637862	144	39	12
1560.365674522	128	39	64
1560.365883378	144	39	14
1560.426351568	128	39	64
1560.426618885	144	25	50
1560.465351392	128	25	64
1560.469574976	144	100	81
1560.510044562	144	39	11
1560.542736996	128	100	64
1560.585371759	128	39	64
1560.600769901	144	39	9
1560.692891091	128	39	64
1560.723998502	144	97	79
1560.72912443	144	81	49
1560.740254243	144	39	9
1560.764057179	128	97	64
1560.765883018	144	27	48
1560.799030327	128	27	64
1560.878130039	128	81	64
1560.88242608	128	39	64
1560.882616363	144	39	13
1560.914618811	144	97	105
1560.941999035	128	97	64
1560.962351871	128	39	64
1560.98468253	144	39	9
1561.127330021	128	39	64
1561.127506066	144	39	11
1561.212547208	128	39	64
1561.257709401	144	39	13
1561.340599405	144	25	50
1561.397007163	128	25	64
1561.401394377	128	39	64
1561.401603593	144	39	18
1561.426813899	144	21	18
1561.479122498	128	39	64
1561.518218266	144	39	22
1561.610168816	144	81	59
1561.623158495	128	21	64
1561.662608037	128	39	64
1561.66284439	144	39	23
1561.745282723	128	39	64
1561.749135369	144	27	54
1561.7699095	128	27	64
1561.774989271	128	81	64
1561.804145088	144	39	32
1561.886708329	128	39	64
1561.896299567	144	63	52
1561.922895276	144	39	36
1562.002461865	128	65	64
1562.012138078	128	39	64
1562.054206964	144	39	42
1562.128763384	128	39	64
1562.17243603	144	39	49
1562.262198614	128	39	64
1562.303868764	144	39	54
1562.307443439	144	25	48
1562.363346557	128	25	64
1562.441469917	144	81	61
1562.44752133	128	39	64
1562.456314048	128	69	64
1562.457558721	144	39	64
1562.526461487	128	39	64
1562.54043455	128	81	64
1562.594354276	144	39	62
1562.647205885	144	27	49
1562.69227757	128	27	64
1562.714707618	128	39	64
1562.71910183	144	39	64
1562.751315054	144	97	33
1562.768936769	128	62	64
1562.863311513	128	39	64
1562.902931093	144	39	64
1562.936906393	144	62	35
1562.977826952	128	39	64
1563.026936368	144	39	64
1563.034352754	144	81	84
1563.109097503	144	25	48
1563.126886192	128	39	64
1563.139881401	128	81	64
1563.14860489	128	25	64
1563.149491112	144	39	60
1563.291777648	128	39	64
1563.291980944	144	39	54
1563.439494436	128	39	64
1563.439732287	144	39	52
1563.495562041	144	27	51
1563.497809702	144	65	90
1563.508947199	144	21	18
1563.52835096	128	27	64
1563.543191485	128	39	64
1563.545413743	144	81	86
1563.56778399	144	39	50
1563.595614416	128	81	64
1563.600503445	128	21	64
1563.711877357	128	39	64
1563.712083372	144	39	50
1563.780628009	144	21	18
1563.793427777	128	39	64
1563.839858042	144	39	55
1563.884880673	128	21	64
1563.94087178	144	81	93
1563.942723286	128	39	64
1563.967152384	144	39	59
1563.98828217	128	81	64
1564.026368849	144	25	50
1564.04650878	144	21	19
1564.055781135	128	62	64
1564.059600687	128	39	64
1564.06446041	128	25	64
1564.107056832	144	39	62
1564.13260539	128	21	64
1564.250434236	128	39	64
1564.250612096	144	39	61
1564.262640151	144	81	86
1564.326547265	128	39	64
1564.350637053	144	39	62
1564.356384378	128	81	64
1564.369144235	144	62	42
1564.370695333	144	27	49
1564.393679433	128	27	64
1564.44258902	128	39	64
1564.510453712	144	39	61
1564.592569149	128	39	64
1564.622874815	144	39	54
1564.627895357	144	81	90
1564.676170325	144	21	19
1564.732734267	128	21	64
1564.78875859	128	39	64
1564.788854555	144	39	50
1564.814949706	128	81	64
1564.859282265	144	25	50
1564.861947282	128	39	64
1564.899227206	128	25	64
1564.922385772	144	39	47
1565.009015587	128	97	64
1565.040265083	128	62	64
1565.046835591	144	81	77
1565.066546112	128	39	64
1565.087127309	144	39	42
1565.164088986	144	62	19
1565.166459874	144	27	41
1565.179423769	128	39	64
1565.187993611	144	29	53
1565.191953671	144	21	19
1565.215190129	128	27	64
1565.224778296	144	39	37
1565.247464413	128	81	64
1565.33704755	128	21	64
1565.384980527	128	39	64
1565.385187603	144	39	37
1565.459917797	128	39	64
1565.509847759	144	39	35
1565.52376101	144	81	75
1565.610071389	128	39	64
1565.656277207	144	39	38
1565.708173103	144	25	61
1565.724489814	128	62	64
1565.742688074	144	21	18
1565.750009022	128	39	64
1565.76337294	128	25	64
1565.789780967	144	39	43
1565.879317843	128	39	64
1565.885658189	144	62	77
1565.908734684	128	21	64
1565.924400432	144	39	46
1565.992132908	128	39	64
1566.019439738	144	39	44
1566.093473459	144	100	83
1566.145528001	128	100	64
1566.167378535	128	39	64
1566.167552171	144	39	41
1566.191060865	144	27	51
1566.220290874	128	27	64
1566.242268367	144	21	18
1566.310812617	128	39	64
1566.31954373	144	39	48
1566.408897116	128	21	64
1566.412347192	128	39	64
1566.442521866	128	62	64
1566.457458015	144	39	51
1566.55470007	128	65	64
1566.560063647	128	39	64
1566.583396449	144	39	55
1566.645732455	144	62	83
1566.713115061	144	21	18
1566.726249863	128	39	64
1566.72644707	144	39	59
1566.741420175	144	25	62
1566.78215178	128	25	64
1566.826511785	128	39	64
1566.857514619	128	21	64
1566.875527686	144	39	61
1566.962736729	128	39	64
1567.006753579	144	39	61
1567.066397811	144	27	56
1567.094760132	128	27	64
1567.095414553	128	39	64
1567.106566962	144	69	79
1567.141768127	144	39	60
1567.22930736	128	39	64
1567.258404608	144	21	19
1567.28767019	144	39	60
1567.299425729	128	21	64
1567.4315927	128	39	64
1567.431805453	144	39	58
1567.534077261	128	39	64
1567.534173187	144	39	62
1567.574741981	144	25	62
1567.615219611	128	25	64
1567.657222099	144	21	20
1567.684928227	128	81	64
1567.715307553	128	39	64
1567.715406404	144	39	60
1567.765285593	128	21	64
1567.909647259	128	39	64
1567.909746099	144	39	61
1567.941990464	144	27	49
1567.993308973	128	39	64
1568.003687256	128	27	64
1568.05861408	144	97	78
1568.066660758	144	39	59
1568.09879775	128	97	64
1568.162703964	144	97	108
1568.174544668	144	21	22
1568.210471614	128	39	64
1568.210672548	144	39	48
1568.246243477	128	97	64
1568.310878683	128	39	64
1568.319468356	128	21	64
1568.364868717	144	39	39
1568.476555443	144	25	66
1568.507800267	128	39	64
1568.517105611	128	25	64
1568.523319045	144	39	25
1568.649716422	144	81	5
1568.66675605	128	39	64
1568.681357378	144	39	21
1568.824401479	128	39	64
1568.840815125	144	39	14
1568.885571498	144	27	49
1568.919383436	128	27	64
1568.986833299	128	39	64
1568.987077223	144	39	8
1569.130856014	128	39	64
1569.140888871	144	39	15
1569.284152426	128	39	64
1569.298028912	144	39	13
1569.302463255	128	81	64
1569.441055014	144	25	74
1569.454185396	128	39	64
1569.454752464	144	39	23
1569.481705452	128	25	64
1569.529949919	128	39	64
1569.572622416	144	39	32
1569.646178221	128	39	64
1569.665606752	128	69	64
1569.7002951	144	39	50
1569.70918732	144	21	31
1569.796209959	128	39	64
1569.842280057	144	39	55
1569.852878126	128	21	64
1569.85552886	144	27	61
1569.876275805	128	27	64
1569.909678187	128	39	64
1569.963445951	144	39	59
1570.033147267	144	65	88
1570.061487815	128	39	64
1570.127174243	144	39	45
1570.179975853	144	97	29
1570.196385461	128	39	64
1570.22598257	144	21	35
1570.243509733	144	39	39
1570.283232923	128	21	64
1570.324433098	128	39	64
1570.354428863	144	39	22
1570.359504956	144	25	49
1570.399243039	128	25	64
1570.516467461	128	39	64
1570.516689702	144	39	14
1570.660576378	128	39	64
1570.670811277	144	39	14
1570.742733366	144	21	39
1570.762499098	128	39	64
1570.778107412	128	29	64
1570.794623184	144	27	61
1570.817345886	144	39	29
1570.819489836	128	27	64
1570.828059214	128	62	64
1570.833992733	128	21	64
1570.912940151	128	39	64
1570.958372769	144	39	39
1570.998088325	144	62	70
1571.060425334	128	39	64
1571.107510836	144	39	60
1571.210288254	128	39	64
1571.257225814	144	39	44
1571.258321072	144	100	76
1571.291407153	144	25	47
1571.331860729	128	100	64
1571.332856627	128	25	64
1571.360057461	128	39	64
1571.407353062	144	39	71
1571.551411921	128	39	64
1571.551674879	144	39	56
1571.643030775	128	39	64
1571.667019334	144	39	68
1571.694511612	144	27	59
1571.708371494	144	21	46
1571.74308618	128	27	64
1571.770999883	128	63	64
1571.800892466	128	21	64
1571.811329473	128	39	64
1571.900218646	144	39	47
1571.953434015	144	29	104
1571.993619415	128	39	64
1572.546592654	144	27	56
1572.612438052	128	27	64
1572.768906191	144	63	78
1572.785481356	144	81	127
1572.845182547	144	21	45
1572.926375818	144	25	57
1572.934576442	128	21	64
1572.980842072	128	25	64
1573.096470038	144	69	88
1573.1040157	128	65	64
1573.370748547	128	62	64
1573.378189473	144	25	104
1573.63301051	144	62	74
1573.872801349	128	25	64
1573.892006452	144	39	46
1573.892883213	128	39	64
1573.892963485	144	39	54
1573.979320746	128	39	64
1574.015531144	144	27	66
1574.141890271	144	39	45
1574.160624482	128	39	64
1574.160722368	144	39	50
1574.198095418	128	39	64
1574.340602774	144	39	50
1574.351647683	128	39	64
1574.35174448	144	39	48
1574.413528266	128	39	64
1574.516017681	144	39	51
1574.563530778	128	39	64
1574.563625139	144	39	47
1574.59242237	144	21	42
1574.629288024	128	39	64
1574.637169815	128	27	64
1574.716481728	144	39	52
1574.741621054	128	21	64
1574.745750557	128	39	64
1574.745825521	144	39	45
1574.782990676	144	27	65
1574.826620659	128	39	64
1574.837311626	128	27	64
1574.91656242	144	39	47
1574.951253812	128	39	64
1574.951349939	144	39	52
1575.043590979	128	39	64
1575.124953299	144	39	46
1575.158351786	128	39	64
1575.158453351	144	39	42
1575.26000732	128	39	64
1575.320669216	144	39	45
1575.368183022	128	39	64
1575.368275933	144	39	41
1575.511902645	128	39	64
1575.512125499	144	39	45
1575.512280228	144	21	43
1575.56759766	128	39	64
1575.567694978	144	39	46
1575.656849281	128	21	64
1575.722948362	144	27	75
1575.723105507	128	39	64
1575.723518308	144	39	44
1575.767268223	128	27	64
1575.793573691	128	39	64
1575.829778404	128	69	64
1575.855161354	144	39	48
1575.927788184	144	25	70
1575.938967124	128	39	64
1575.93906274	144	39	36
1576.010373193	128	39	64
1576.060226254	144	65	92
1576.228205268	144	39	42
1576.228886246	128	39	64
1576.228934427	144	39	39
1576.327779276	128	39	64
1576.407742309	144	39	45
1576.408585221	128	39	64
1576.408664185	144	39	38
1576.568850264	128	39	64
1576.597714287	144	39	38
1576.610005369	144	27	67
1576.627151456	144	21	45
1576.646090207	128	62	64
1576.646252753	128	39	64
1576.646340684	144	39	45
1576.653192087	128	27	64
1576.727371394	128	39	64
1576.776301257	128	21	64
1576.808291738	144	62	82
1576.906263336	144	39	53
1576.916346499	128	39	64
1576.916439084	144	39	55
1577.059826808	128	39	64
1577.087705824	144	39	51
1577.139517941	128	39	64
1577.139611995	144	39	56
1577.226582349	128	39	64
1577.29256939	144	39	56
1577.29270697	128	81	64
1577.295919928	128	39	64
1577.295998903	144	39	51
1577.394836013	128	29	64
1577.439836452	128	39	64
1577.64095567	144	39	47
1577.644507431	128	39	64
1577.644584098	144	39	37
1577.688242758	144	81	114
1577.710738079	128	39	64
1577.816420525	144	39	43
1577.850436851	128	39	64
1577.850529174	144	39	35
1577.904030838	128	63	64
1577.930190134	128	39	64
1578.032489281	144	39	34
1578.069642494	128	39	64
1578.069741111	144	39	42
1578.100378923	144	27	60
1578.141298608	128	27	64
1578.143256037	144	21	43
1578.213867056	128	39	64
1578.373664621	144	39	45
1578.39343112	128	21	64
1578.420981298	128	39	64
1578.421074196	144	39	47
1578.470633947	144	63	98
1578.509247098	144	29	66
1578.522539059	128	29	64
1578.56410573	128	39	64
1578.564282502	144	39	44
1578.632423644	144	69	81
1578.648561494	128	39	64
1578.651153465	144	39	49
1578.679319501	144	100	97
1578.751980338	128	100	64
1578.794745987	128	39	64
1578.794844518	144	39	43
1578.825753137	144	21	43
1578.83869374	128	25	64
1578.86019116	128	39	64
1578.892773134	128	65	64
1578.906876924	144	39	53
1578.91935063	128	62	64
1578.97552567	128	21	64
1578.985417771	128	39	64
1578.985515486	144	39	43
1579.033951848	144	27	71
1579.070656045	128	27	64
1579.130264657	128	39	64
1579.130446356	144	39	48
1579.208231905	128	39	64
1579.208327994	144	39	43
1579.256873311	144	88	105
1579.273000802	128	88	64
1579.339005214	144	62	78
1579.350950478	128	39	64
1579.351561878	144	39	52
1579.419426227	128	39	64
1579.419523979	144	39	47
1579.487634869	144	29	72
1579.510427169	128	39	64
1579.533840537	144	39	52
1579.539464553	128	29	64
1579.618443807	128	39	64
1579.618533471	144	39	50
1579.762206443	128	39	64
1579.789897491	144	39	61
1579.838074181	128	39	64
1579.838175698	144	39	54
1579.876811348	144	21	44
1579.915188129	144	27	76
1579.944305141	128	27	64
1579.967433462	128	21	64
1579.982381971	128	39	64
1580.00573306	144	39	65
1580.083464553	128	39	64
1580.083566659	144	39	61
1580.146341476	128	39	64
1580.167401122	144	21	43
1580.18772277	128	21	64
1580.227646033	144	39	67
1580.269189699	128	39	64
1580.269285821	144	39	62
1580.343401346	128	39	64
1580.395037399	128	63	64
1580.432154819	144	39	61
1580.487626603	144	88	54
1580.511179855	128	39	64
1580.511278394	144	39	35
1580.551447671	128	88	64
1580.592148803	128	39	64
1580.683375556	144	39	52
1580.759878865	128	39	64
1580.75998134	144	39	34
1580.812003193	144	27	76
1580.821206774	128	27	64
1580.843521809	128	39	64
1580.991094589	144	39	44
1581.066736322	144	63	111
1581.069589356	128	39	64
1581.069665842	144	39	33
1581.213829612	128	39	64
1581.214073248	144	39	52
1581.298233665	128	39	64
1581.298329502	144	39	38
1581.456105855	128	39	64
1581.456289135	144	39	60
1581.524403618	128	39	64
1581.527507453	144	39	52
1581.553890323	144	29	70
1581.610172831	128	29	64
1581.610325997	128	39	64
1581.658865202	144	39	63
1581.662572096	128	62	64
1581.670802855	144	27	76
1581.7054019	128	27	64
1581.746627281	128	39	64
1581.746728553	144	39	56
1581.799301476	128	81	64
1581.823427305	144	62	73
1581.826175366	128	39	64
1581.847778473	144	21	46
1581.869367806	144	39	68
1581.934639402	128	21	64
1581.952105725	128	39	64
1581.952199075	144	39	70
1581.971691616	144	88	48
1582.004144663	128	88	64
1582.02753457	128	39	64
1582.117341905	144	39	56
1582.260690509	128	39	64
1582.261699747	144	39	44
1582.326979035	128	39	64
1582.330236053	128	63	64
1582.375088454	144	39	50
1582.417599014	144	88	48
1582.471918705	128	88	64
1582.482995149	128	69	64
1582.50201771	144	65	91
1582.51816234	128	39	64
1582.518262012	144	39	38
1582.565882311	144	27	77
1582.590967354	128	27	64
1582.59845662	128	39	64
1582.600692096	144	39	45
1582.713370805	144	63	95
1582.756322761	128	39	64
1582.756551073	144	39	33
1582.865451557	128	39	64
1582.8655508	144	39	41
1583.013995251	128	39	64
1583.014094635	144	39	28
1583.027957567	144	25	50
1583.071710281	144	88	48
1583.094049039	144	21	40
1583.110869602	128	39	64
1583.11818995	128	21	64
1583.13469913	144	39	36
1583.138234968	128	88	64
1583.277776069	144	88	50
1583.278330057	128	39	64
1583.278381661	144	39	24
1583.342925012	128	62	64
1583.349062817	144	21	38
1583.356255391	128	88	64
1583.360093439	128	39	64
1583.381922389	144	39	28
1583.434717334	128	21	64
1583.474991532	144	27	77
1583.488418216	128	39	64
1583.488519257	144	39	17
1583.518718914	128	27	64
1583.54462753	144	62	80
1583.595057377	128	39	64
1583.617122494	144	21	37
1583.654584063	144	39	27
1583.665958066	128	21	64
1583.747828018	128	39	64
1583.747925302	144	39	21
1583.839956755	144	88	56
1583.891067118	128	39	64
1583.909460276	144	39	26
1583.923064505	128	88	64
1583.990900575	128	39	64
1583.990997572	144	39	31
1584.022119708	128	63	64
1584.093704164	128	39	64
1584.173627664	144	39	46
1584.221737436	128	97	64
1584.240120251	128	39	64
1584.240283339	144	39	48
1584.328173539	128	39	64
1584.345231751	144	88	56
1584.353931802	144	63	104
1584.447447037	144	27	74
1584.457173034	128	88	64
1584.471202008	144	39	67
1584.479764298	128	39	64
1584.479857388	144	39	57
1584.493622092	128	27	64
1584.560998985	128	39	64
1584.621340994	144	88	54
1584.702034479	128	88	64
1584.792870535	144	21	35
1584.885078746	128	21	64
1584.922911683	128	25	64
1585.08053749	128	62	64
1585.229287713	144	62	88
1585.323300332	144	88	54
1585.339399248	144	27	75
1585.387309791	128	88	64
1585.399911461	128	27	64
1585.810738968	144	21	34
1585.895081392	128	63	64
1585.901710895	128	21	64
1585.963655148	128	65	64
1586.099134579	144	69	83
1586.209828658	144	27	78
1586.272916638	128	27	64
1586.493487465	144	21	40
1586.635768406	128	81	64
1586.696343574	128	21	64
1586.732069416	144	29	80
1586.802672143	128	29	64
1586.805418491	128	62	64
1586.999362414	144	62	84
1587.099274788	144	100	101
1587.139918567	128	100	64
1587.185255216	144	27	77
1587.247317316	128	27	64
1587.918454347	144	63	89
1588.018259049	144	27	74
1588.106016709	128	27	64
1588.135601065	128	63	64
1588.26954361	144	63	84
1588.342998103	128	62	64
1588.417569316	128	63	64
1588.645153904	144	63	83
1588.687035104	144	62	89
1588.889827617	144	27	70
1588.912493003	144	21	44
1588.980317698	128	27	64
1588.990282929	144	39	82
1589.00293708	128	21	64
1589.150373979	144	21	43
1589.233799382	128	21	64
1589.321532885	144	21	43
1589.418002395	128	21	64
1589.437220103	144	29	60
1589.470902504	128	29	64
1589.565137657	144	65	90
1589.89061628	128	62	64
1589.958586053	144	27	76
1590.09314199	128	27	64
1590.248610745	144	62	99
1591.117092443	128	63	64
1591.120951257	144	29	70
1591.209235251	128	29	64
1591.303739858	144	63	52
1591.331114971	144	27	67
1591.733611898	128	62	64
1592.042281961	144	62	101
1592.165784037	128	27	64
1592.59510478	128	63	64
1592.862321845	128	25	64
1592.888150183	144	63	91
1592.913949044	144	21	43
1592.952193312	128	21	64
1593.645821512	128	62	64
1593.688627654	128	69	64
1593.800999448	144	62	58
1593.889242975	144	27	100
1593.912897722	128	27	64
1593.985259611	128	65	64
1594.435759375	128	39	64
1594.75171603	128	63	64
1594.751806011	144	63	110
1594.753798506	144	100	89
1594.826998961	144	27	73
1594.843049193	144	39	72
1594.84547407	128	100	64
1594.864289362	128	27	64
1595.434360781	128	62	64
1595.647171356	144	21	33
1595.704157643	144	27	36
1595.745502331	128	27	64
1595.772264843	144	62	57
1595.79101125	128	21	64
1596.580378362	144	21	28
1596.626003559	144	27	41
1596.63159679	128	27	64
1596.653158574	128	21	64
1596.70999011	128	63	64
1596.710080313	144	63	92
1597.452638319	128	63	64
1597.472565173	128	62	64
1597.472756112	144	27	48
1597.500867655	128	27	64
1597.528328333	144	21	34
1597.602345459	128	21	64
1597.684868707	144	62	50
1598.3714846	144	27	49
1598.394275264	144	63	30
1598.426266778	128	27	64
1598.430557541	144	21	30
1598.505660463	128	21	64
1598.76931124	144	47	14
1598.815645065	128	47	64
1599.170806585	128	62	64
1599.294127629	144	27	42
1599.295257396	144	21	28
1599.327025391	128	27	64
1599.341662529	144	62	47
1599.386647613	128	21	64
1599.460506513	128	39	64
1599.482169403	144	88	77
1599.544035311	144	76	31
1599.647796217	128	88	64
1600.057338004	128	63	64
1600.151869694	144	27	49
1600.188002338	128	27	64
1600.258590632	144	39	55
1600.280032301	144	21	29
1600.424851154	128	21	64
1600.439512572	144	29	8
1600.439656316	128	29	64
1600.439691521	144	29	12
1600.455279705	128	76	64
1600.457520598	144	100	50
1600.515154696	128	29	64
1600.518079014	144	29	8
1600.529811173	128	100	64
1600.576543964	128	29	64
1600.580166738	144	29	14
1600.642897996	128	29	64
1600.646643867	144	29	10
1600.70722495	128	29	64
1600.716240645	144	29	16
1600.762077494	128	29	64
1600.762173796	144	29	11
1600.821506365	128	29	64
1600.828787911	144	29	18
1600.835735148	128	62	64
1600.886794733	128	29	64
1600.887799991	144	29	12
1600.924167016	128	29	64
1600.951565312	144	29	16
1601.040049591	128	29	64
1601.042670615	144	29	9
1601.064428353	144	62	46
1601.079243955	128	29	64
1601.083631866	144	29	15
1601.140012207	128	29	64
1601.140108822	144	29	6
1601.143123681	144	76	36
1601.195916538	144	21	27
1601.245731848	144	27	41
1601.250516912	128	27	64
1601.270299973	128	21	64
1601.283041587	128	29	64
1601.283254846	144	29	8
1601.314071109	128	29	64
1601.332135673	144	29	24
1601.334551955	144	68	33
1601.419783489	128	29	64
1601.452284055	144	29	25
1601.539175679	128	29	64
1601.586146904	144	29	27
1601.619198283	128	29	64
1601.652073642	144	29	10
1601.722120095	128	29	64
1601.725968139	144	29	26
1601.772061323	128	29	64
1601.807880128	144	29	13
1601.893441161	128	29	64
1601.92435175	144	29	10
1601.955742932	128	29	64
1601.977025591	144	29	21
1602.023592377	128	29	64
1602.04816627	144	29	16
1602.072889139	128	29	64
1602.07602419	144	63	22
1602.093334907	144	27	42
1602.100032808	144	29	29
1602.12647887	128	27	64
1602.138302553	128	29	64
1602.139914551	128	76	64
1602.180684197	144	21	28
1602.187058311	144	29	13
1602.253401258	128	21	64
1602.276441115	128	29	64
1602.323747435	144	29	13
1602.402431419	128	29	64
1602.456094108	144	29	14
1602.544183227	128	29	64
1602.592254393	144	29	14
1602.659527637	128	29	64
1602.719944946	144	29	21
1602.785527812	128	29	64
1602.788290188	144	29	32
1602.81040115	128	29	64
1602.855296421	144	29	18
1602.917063043	128	62	64
1602.923116907	144	27	43
1602.933881871	128	29	64
1602.971172128	128	27	64
1602.98965302	144	29	18
1603.064856635	128	29	64
1603.065086024	144	21	31
1603.073024786	144	76	33
1603.092821884	144	62	49
1603.116976112	144	29	21
1603.136127269	128	21	64
1603.198704669	128	29	64
1603.203298756	144	29	28
1603.245675661	128	29	64
1603.252041262	144	29	16
1603.293228861	128	29	64
1603.301446136	144	29	26
1603.356341117	128	29	64
1603.376493541	128	68	64
1603.380460262	144	29	20
1603.567486163	128	29	64
1603.567581448	144	29	17
1603.611973942	128	29	64
1603.61714886	144	29	26
1603.693120357	128	29	64
1603.696285941	144	29	16
1603.723385608	128	29	64
1603.750700952	144	29	23
1603.839332787	128	29	64
1603.852194392	144	68	65
1603.866701589	144	29	17
1603.895503078	144	27	54
1603.92056845	128	29	64
1603.922839434	128	27	64
1603.944815913	144	29	26
1604.009355211	128	29	64
1604.012752976	144	29	20
1604.0211629	144	21	32
1604.060475754	144	97	90
1604.081586159	128	29	64
1604.090222912	144	29	31
1604.104212683	128	21	64
1604.119220513	128	29	64
1604.152677484	144	29	24
1604.188665716	128	76	64
1604.205330987	128	29	64
1604.2286277	144	29	28
1604.318794548	128	29	64
1604.321374626	144	29	18
1604.359176797	128	62	64
1604.377328577	128	29	64
1604.382622654	144	29	30
1604.444794587	128	29	64
1604.449895626	144	29	24
1604.550700251	128	29	64
1604.553416874	144	29	29
1604.596288983	144	62	45
1604.752812183	128	39	64
1604.801516363	128	29	64
1604.801776859	144	29	20
1604.834981288	128	29	64
1604.835721793	144	27	49
1604.867171062	128	27	64
1604.872944025	144	29	31
1604.92454851	128	29	64
1604.949343003	144	29	24
1604.989622565	128	29	64
1605.021439011	144	29	34
1605.046750642	144	21	33
1605.101765804	128	29	64
1605.103750799	128	21	64
1605.11297655	144	29	25
1605.135513334	128	29	64
1605.167892114	144	29	35
1605.224864464	128	29	64
1605.250498179	144	29	29
1605.314271925	128	29	64
1605.318378011	144	29	39
1605.39690723	128	29	64
1605.400507457	144	29	30
1605.472373263	128	29	64
1605.47822681	144	29	39
1605.547549025	128	29	64
1605.547644452	144	29	32
1605.592588307	128	29	64
1605.594928651	144	29	39
1605.695615684	128	29	64
1605.701068838	144	29	31
1605.766485432	128	29	64
1605.766587981	144	29	35
1605.784645616	144	27	49
1605.854685755	128	29	64
1605.858066023	144	29	28
1605.925320473	128	29	64
1605.932857501	144	29	34
1606.009394164	128	29	64
1606.013415164	144	29	29
1606.04225913	144	39	35
1606.080078192	144	21	32
1606.169209106	128	29	64
1606.169307594	144	29	26
1606.188045822	128	21	64
1606.206116433	128	62	64
1606.217835434	128	29	64
1606.218846491	128	39	64
1606.220702925	144	29	33
1606.294034826	144	76	45
1606.301894357	128	29	64
1606.301987049	144	29	26
1606.382554309	128	29	64
1606.38670214	144	29	30
1606.395102074	144	62	46
1606.419595569	128	29	64
1606.456672331	144	29	29
1606.522180701	128	29	64
1606.52887955	144	29	29
1606.584069259	128	68	64
1606.597868442	128	29	64
1606.597944151	144	29	21
1606.62378135	128	76	64
1606.641737922	144	39	27
1606.655775794	128	29	64
1606.65600239	128	97	64
1606.656070673	144	97	66
1606.681604316	144	29	27
1606.724861314	128	27	64
1606.744161173	128	29	64
1606.744255439	144	29	23
1606.792567564	144	76	28
1606.813578329	128	29	64
1606.817074246	144	29	28
1606.893828013	128	29	64
1606.896099262	144	29	23
1606.958057653	128	29	64
1606.96101759	144	29	28
1607.043651407	128	29	64
1607.043749441	144	29	20
1607.107827081	128	29	64
1607.139421957	144	29	30
1607.185787458	128	39	64
1607.196209364	144	21	32
1607.20926985	128	29	64
1607.212596273	144	29	19
1607.259645223	128	29	64
1607.262521321	144	29	28
1607.28762682	128	21	64
1607.347594018	128	29	64
1607.347690773	144	29	23
1607.388847339	128	29	64
1607.415091872	144	29	29
1607.47735584	128	29	64
1607.482638414	144	29	27
1607.508418321	144	39	28
1607.560125717	128	29	64
1607.564825475	144	29	30
1607.650468208	128	29	64
1607.653207516	144	29	26
1607.692018671	128	29	64
1607.695154795	144	29	33
1607.784857898	128	29	64
1607.787698559	144	29	27
1607.843720352	128	29	64
1607.848971699	144	29	36
1607.921980051	128	29	64
1607.925131501	144	29	30
1607.992348986	128	29	64
1607.995909244	144	29	33
1608.011708429	128	39	64
1608.060700466	128	29	64
1608.060794563	144	29	28
1608.21049191	128	29	64
1608.212907211	144	29	24
1608.259230104	128	29	64
1608.285134853	144	29	24
1608.287531416	128	62	64
1608.370452389	128	29	64
1608.373315654	144	29	19
1608.37360342	144	21	31
1608.408302394	128	29	64
1608.410756996	144	29	24
1608.442677652	144	39	27
1608.453654481	128	21	64
1608.480277834	128	29	64
1608.483554056	144	29	19
1608.522350229	128	29	64
1608.547379013	144	29	26
1608.60187444	128	29	64
1608.637284746	144	27	28
1608.638782664	144	29	18
1608.657086661	128	29	64
1608.683239208	128	27	64
1608.685609968	144	29	25
1608.685912592	128	63	64
1608.7520621	128	29	64
1608.791703005	144	29	18
1608.81612739	128	76	64
1608.842730326	128	29	64
1608.868591046	144	29	24
1608.8849602	128	29	64
1608.921738797	144	29	13
1608.941909592	128	29	64
1608.973282837	144	29	24
1608.996669387	144	68	76
1609.008504209	144	63	22
1609.0365138	128	29	64
1609.06296793	144	29	17
1609.073360814	128	63	64
1609.111319812	128	29	64
1609.117884006	144	29	28
1609.169786948	128	29	64
1609.177875617	144	63	20
1609.203640711	144	29	15
1609.210721885	144	76	37
1609.235814168	128	39	64
1609.2410438	128	29	64
1609.265389782	144	29	20
1609.276813781	128	63	64
1609.319186627	128	29	64
1609.354276014	144	29	15
1609.37401065	128	29	64
1609.394390463	144	63	14
1609.402237842	144	29	19
1609.450193618	128	63	64
1609.454482829	128	29	64
1609.478863566	144	29	14
1609.481318477	128	97	64
1609.506057021	144	27	18
1609.526296126	128	29	64
1609.551108827	144	29	18
1609.564159199	128	27	64
1609.565453525	144	21	29
1609.569239136	144	63	20
1609.636036907	128	29	64
1609.638944019	144	29	13
1609.641897398	128	29	64
1609.649160114	128	63	64
1609.673262312	144	29	24
1609.677640377	144	63	25
1609.7291392	128	29	64
1609.744920571	128	21	64
1609.74514918	128	63	64
1609.756619546	144	63	24
1609.775210463	144	29	21
1609.799598172	128	29	64
1609.829273637	128	63	64
1609.853635677	144	29	27
1609.86532341	144	63	27
1609.87180712	128	29	64
1609.902179053	144	29	20
1609.921329088	128	29	64
1609.946699364	128	63	64
1609.951021685	144	29	30
1609.95883639	144	63	24
1609.985749175	128	29	64
1610.020574052	144	29	22
1610.032592244	128	63	64
1610.041911234	128	29	64
1610.055217915	144	63	27
1610.086069211	144	29	26
1610.12604918	128	63	64
1610.136120631	144	63	26
1610.140344172	128	29	64
1610.164161245	144	29	21
1610.184726745	128	29	64
1610.207240861	128	63	64
1610.211016004	144	29	22
1610.246420912	144	63	31
1610.273036933	128	29	64
1610.30326897	144	29	21
1610.303534887	128	63	64
1610.316488283	144	63	31
1610.328475373	128	29	64
1610.345611091	144	27	21
1610.353030672	144	29	21
1610.370555071	128	27	64
1610.383717242	128	63	64
1610.4080864	144	63	31
1610.420488066	128	29	64
1610.449016022	144	29	14
1610.475989581	128	29	64
1610.492358158	128	63	64
1610.499757824	144	29	19
1610.504075611	144	63	33
1610.581363367	128	63	64
1610.589200333	144	63	34
1610.590681136	128	29	64
1610.649459586	144	29	18
1610.669476436	128	63	64
1610.680632852	144	63	36
1610.705894518	128	29	64
1610.730474299	144	29	10
1610.74884963	128	29	64
1610.752584615	128	63	64
1610.775214335	144	63	38
1610.782404912	144	29	16
1610.843059106	128	29	64
1610.857360647	128	63	64
1610.863095654	144	63	37
1610.865631118	144	29	7
1610.906718516	128	29	64
1610.929927531	128	63	64
1610.937995758	144	29	21
1610.954375753	144	63	39
1610.989108907	128	29	64
1611.015834681	144	29	10
1611.026174751	128	63	64
1611.035938566	128	29	64
1611.04356929	144	63	37
1611.067339332	144	29	18
1611.109251601	128	63	64
1611.143781766	144	63	41
1611.152653848	128	29	64
1611.152749102	144	29	14
1611.173345012	128	29	64
1611.183447161	144	62	67
1611.194837277	144	29	21
1611.213253116	128	63	64
1611.225889905	144	63	38
1611.259656339	128	62	64
1611.287228638	144	27	30
1611.294058504	128	29	64
1611.294609241	128	63	64
1611.295336767	128	27	64
1611.296651319	144	29	14
1611.33084791	144	63	43
1611.341179523	128	29	64
1611.363759016	144	29	19
1611.405003158	128	29	64
1611.406712687	128	63	64
1611.412827415	144	62	69
1611.415258853	144	63	42
1611.43405248	144	29	8
1611.468796186	128	29	64
1611.48117021	128	62	64
1611.484429785	128	63	64
1611.501808441	144	29	16
1611.509859114	144	63	45
1611.548429186	144	21	31
1611.555875561	128	29	64
1611.580526782	128	63	64
1611.581679707	144	29	13
1611.587325446	128	21	64
1611.596049755	144	62	70
1611.599486588	144	63	40
1611.604223531	128	29	64
1611.632975572	144	29	13
1611.661177167	128	63	64
1611.672957864	128	62	64
1611.711308714	144	63	38
1611.726393867	128	29	64
1611.729248723	144	29	8
1611.744053416	128	29	64
1611.760829065	144	29	14
1611.784434682	128	63	64
1611.794669937	144	63	35
1611.840083192	128	29	64
1611.840407737	128	63	64
1611.862093331	144	29	7
1611.887008398	144	63	36
1611.906807062	128	76	64
1611.90696239	128	29	64
1611.935915793	128	68	64
1611.970419779	144	29	19
1611.97069153	128	63	64
1611.98441543	128	27	64
1611.986714011	144	63	34
1611.993389387	128	29	64
1612.013654947	144	29	8
1612.029761096	128	63	64
1612.035685934	128	29	64
1612.053779663	144	63	40
1612.068380084	144	29	14
1612.138364516	128	63	64
1612.146254558	128	29	64
1612.148733802	144	29	8
1612.148981536	144	63	36
1612.172590608	128	29	64
1612.191900443	144	68	59
1612.218909959	128	63	64
1612.220141423	144	29	13
1612.24263189	144	63	38
1612.293582507	128	29	64
1612.297439851	144	29	9
1612.302446969	128	29	64
1612.33040329	128	63	64
1612.338826119	144	63	30
1612.354942256	144	29	14
1612.36488244	144	47	11
1612.385046246	128	29	64
1612.404759683	144	62	77
1612.413039112	128	63	64
1612.437878359	144	29	3
1612.444351587	144	63	40
1612.472066747	128	29	64
1612.495756521	144	29	22
1612.522519824	128	63	64
1612.526102794	144	76	34
1612.531229771	144	63	34
1612.539752795	128	29	64
1612.542407037	128	62	64
1612.562729079	144	29	9
1612.574201969	128	63	64
1612.606660433	128	29	64
1612.609080237	144	63	28
1612.630188165	144	29	18
1612.632086017	144	62	74
1612.685420382	128	63	64
1612.685491916	144	63	19
1612.764178586	128	63	64
1612.791174198	128	29	64
1612.799256611	144	63	36
1612.823717681	144	29	13
1612.868467884	128	29	64
1612.868562843	144	29	31
1612.879607129	128	62	64
1612.880608333	128	63	64
1612.8846966	144	63	34
1612.907838747	128	29	64
1612.943233713	128	63	64
1612.954793457	144	63	29
1612.95573965	144	29	21
1613.014393944	128	29	64
1613.014492928	144	29	32
1613.022265332	128	29	64
1613.031851133	144	62	74
1613.054457701	144	29	18
1613.069392946	128	62	64
1613.069499372	128	63	64
1613.072876763	144	63	15
1613.085908478	128	29	64
1613.086003432	144	29	16
1613.119362732	128	63	64
1613.12431366	128	29	64
1613.172062447	144	29	22
1613.221975216	144	63	14
1613.314033886	144	100	44
1613.314302717	128	29	64
1613.314429614	144	29	24
1613.325420569	144	62	54
1613.344405138	128	63	64
1613.356551046	128	29	64
1613.388850442	128	62	64
1613.403940199	144	29	19
1613.422509618	128	100	64
1613.435424908	128	29	64
1613.467336064	144	29	25
1613.475292061	128	97	64
1613.506327234	128	29	64
1613.532584361	144	62	44
1613.55544804	144	29	22
1613.57443677	128	29	64
1613.597644693	128	62	64
1613.605721428	144	29	25
1613.689409534	144	62	39
1613.699176837	128	29	64
1613.701377172	144	29	15
1613.757270858	128	29	64
1613.762477527	128	62	64
1613.775545238	144	29	19
1613.806394495	128	29	64
1613.835995706	144	29	7
1613.838319877	144	62	36
1613.870744923	128	29	64
1613.901707201	144	29	13
1613.930622251	128	62	64
1613.955665764	128	29	64
1613.969032766	128	68	64
1613.999928236	144	29	10
1614.006660997	128	76	64
1614.020010238	144	62	35
1614.029659351	144	100	52
1614.084898203	128	29	64
1614.09249372	128	62	64
1614.123663781	144	29	7
1614.139619858	128	100	64
1614.155690594	128	29	64
1614.184025946	144	29	22
1614.202241088	144	62	36
1614.234957693	128	29	64
1614.272818679	144	29	12
1614.283892112	128	62	64
1614.306327077	128	29	64
1614.350008482	144	29	18
1614.405768476	128	29	64
1614.41226941	144	62	37
1614.431882725	144	29	9
1614.452294934	128	29	64
1614.471883818	128	62	64
1614.482396468	144	21	31
1614.512388514	144	29	17
1614.53837279	128	21	64
1614.539238042	128	29	64
1614.562091209	144	29	12
1614.590571616	128	29	64
1614.611361739	144	62	37
1614.613665086	144	100	53
1614.6197703	144	29	16
1614.619913807	144	65	27
1614.688119641	128	62	64
1614.708955819	128	100	64
1614.804623566	144	62	38
1614.863941651	128	29	64
1614.875218306	144	29	10
1614.886539142	128	62	64
1614.909155281	128	29	64
1614.940227041	144	29	19
1614.996157462	144	62	39
1615.015735845	128	29	64
1615.039379227	144	29	6
1615.072087672	128	29	64
1615.085093948	128	62	64
1615.098270323	144	100	45
1615.100471138	144	29	11
1615.188857745	128	100	64
1615.190114792	128	29	64
1615.203579308	144	62	38
1615.222061106	144	29	7
1615.285308249	128	62	64
1615.293951961	128	29	64
1615.294166881	144	100	45
1615.303517655	144	63	28
1615.330191582	144	29	8
1615.37700908	128	29	64
1615.381017221	144	62	38
1615.387805716	144	29	11
1615.389855228	128	100	64
1615.4653154	128	29	64
1615.467901307	144	29	7
1615.47357906	144	100	45
1615.48321463	128	62	64
1615.494372093	144	76	33
1615.50596748	128	29	64
1615.535052309	144	29	12
1615.550256281	128	76	64
1615.555614389	128	100	64
1615.606614898	128	29	64
1615.626910388	144	62	40
1615.632785366	144	29	4
1615.637859516	144	100	44
1615.657048328	128	29	64
1615.687461192	144	29	15
1615.706762079	128	62	64
1615.738853817	128	100	64
1615.752891252	128	29	64
1615.778370479	144	29	3
1615.803878323	144	100	44
1615.807401229	144	62	41
1615.818382973	128	29	64
1615.883639897	144	29	13
1615.896240364	128	62	64
1615.926584813	128	29	64
1615.929037153	144	29	7
1615.940579846	128	100	64
1615.987558009	128	29	64
1615.990514926	144	29	14
1616.011706238	144	76	37
1616.023871532	144	62	41
1616.044375443	144	100	45
1616.049970416	128	76	64
1616.053192051	128	29	64
1616.069291722	128	100	64
1616.079166657	144	29	9
1616.104238866	144	100	45
1616.113597832	128	62	64
1616.127679288	128	29	64
1616.137648499	144	29	13
1616.201510224	128	100	64
1616.204848765	128	29	64
1616.231228756	144	62	39
1616.232222797	144	29	2
1616.272374183	128	29	64
1616.29016621	144	100	44
1616.300834282	144	29	21
1616.306081688	128	62	64
1616.351909223	128	29	64
1616.368252334	128	100	64
1616.389811306	144	29	9
1616.408315986	144	39	27
1616.421534021	128	29	64
1616.433346994	144	62	41
1616.44653424	144	29	17
1616.451029947	128	39	64
1616.453562153	144	39	12
1616.508143507	144	88	90
1616.515578331	128	39	64
1616.523885492	144	100	32
1616.527324789	128	62	64
1616.532896802	128	29	64
1616.53554571	144	29	16
1616.594991036	128	29	64
1616.600649385	144	39	33
1616.602191438	128	88	64
1616.618911992	128	100	64
1616.622944132	144	29	23
1616.639174535	144	62	41
1616.644414927	128	29	64
1616.659452201	128	39	64
1616.716529521	144	29	30
1616.737838511	144	100	26
1616.738229796	128	62	64
1616.7724106	128	29	64
1616.820467251	144	29	18
1616.83247529	144	21	33
1616.863213254	144	88	90
1616.863446307	144	62	41
1616.869578597	128	100	64
1616.927618555	144	76	33
1616.95010309	128	62	64
1616.955246388	128	88	64
1616.973836531	144	100	21
1616.97881115	128	21	64
1616.982362021	128	76	64
1616.983688665	128	29	64
1616.983758341	144	29	33
1617.06904329	128	100	64
1617.081008042	144	62	40
1617.086539734	128	29	64
1617.092745147	144	39	16
1617.136372738	144	29	21
1617.154812192	144	100	20
1617.154976037	128	62	64
1617.160328159	128	39	64
1617.18099252	128	29	64
1617.181090265	144	29	32
1617.221528461	144	39	34
1617.235538742	128	100	64
1617.239546283	128	29	64
1617.283709974	144	62	38
1617.284755993	144	29	26
1617.31166497	128	39	64
1617.311762326	144	39	27
1617.326858793	128	29	64
1617.326957883	144	29	36
1617.329584453	144	76	48
1617.367252305	128	76	64
1617.37191301	128	62	64
1617.426641115	128	29	64
1617.426736696	144	29	26
1617.455799056	128	39	64
1617.458096954	144	39	43
1617.464848367	128	39	64
1617.500454412	144	62	38
1617.529226844	128	29	64
1617.529327183	144	29	34
1617.586675109	128	29	64
1617.589297684	128	62	64
1617.646243258	144	29	27
1617.70730513	144	62	37
1617.708511117	128	29	64
1617.762553581	144	29	31
1617.796605097	128	62	64
1617.82426033	128	29	64
1617.842304048	144	39	26
1617.880314321	144	29	15
1617.911121033	128	39	64
1617.911947326	144	62	39
1617.936219533	128	29	64
1617.938451746	144	29	31
1617.971469743	144	39	38
1618.002740621	128	62	64
1618.033337303	128	29	64
1618.033437222	144	29	36
1618.072257559	128	29	64
1618.078357865	128	39	64
1618.080225822	144	39	29
1618.116402223	144	29	31
1618.129416474	144	62	39
1618.161196899	128	39	64
1618.169462948	144	76	19
1618.171770827	128	29	64
1618.198782233	144	39	54
1618.208321867	128	62	64
1618.21761586	144	29	22
1618.234336222	128	76	64
1618.259187369	128	39	64
1618.294942802	144	39	63
1618.328685146	128	39	64
1618.335593159	144	62	32
1618.356730039	144	68	51
1618.367833432	128	29	64
1618.3680169	144	29	30
1618.377587657	128	65	64
1618.402679004	128	29	64
1618.429285211	144	69	24
1618.440404139	144	29	32
1618.490543014	128	68	64
1618.512085141	128	29	64
1618.516053878	128	69	64
1618.516604564	144	29	28
1618.561463744	128	29	64
1618.58663492	144	29	35
1618.616698876	144	69	33
1618.621402905	128	29	64
1618.64684611	144	76	48
1618.652154351	144	29	25
1618.673118331	128	69	64
1618.683740939	128	76	64
1618.704496128	128	29	64
1618.729456659	144	69	39
1618.758258124	144	39	69
1618.775647357	144	29	29
1618.822690487	128	29	64
1618.849521776	144	29	39
1618.858699911	128	69	64
1618.903081949	128	39	64
1618.903296294	144	39	61
1618.933487152	128	29	64
1618.936855499	144	29	32
1618.981115299	128	39	64
1618.9932927	128	29	64
1618.997693945	144	29	40
1619.024885737	144	39	74
1619.046315216	128	29	64
1619.060929135	144	76	25
1619.063435422	144	29	32
1619.077365448	144	68	55
1619.101501751	128	76	64
1619.103403566	128	39	64
1619.103482862	144	39	64
1619.126076716	128	29	64
1619.143357385	128	68	64
1619.147264905	144	29	41
1619.163850592	128	39	64
1619.231127044	128	29	64
1619.235951799	144	29	36
1619.278148424	128	29	64
1619.304195289	144	29	37
1619.354671006	128	29	64
1619.3811447	144	29	29
1619.424830208	128	29	64
1619.451321118	144	29	42
1619.462514783	144	21	31
1619.504551403	128	29	64
1619.541731455	144	29	34
1619.577855238	128	29	64
1619.577955612	144	29	46
1619.586876436	128	62	64
1619.59303969	128	29	64
1619.616921109	144	29	43
1619.631330202	128	21	64
1619.654144139	128	29	64
1619.654245858	144	29	31
1619.679095868	144	100	102
1619.702664102	128	29	64
1619.725708165	144	39	50
1619.74032558	128	100	64
1619.751676326	144	29	36
1619.755968676	128	29	64
1619.756062572	144	29	30
1619.76490567	144	62	38
1619.780397462	128	39	64
1619.804036379	144	39	37
1619.805662427	128	29	64
1619.894365212	128	39	64
1619.941239315	144	39	57
1619.944998768	144	76	17
1619.946357441	144	29	24
1619.979289457	128	29	64
1619.999161244	128	76	64
1620.008320307	144	29	22
1620.022102989	128	39	64
1620.022197877	144	39	42
1620.037503517	128	29	64
1620.116189578	144	29	12
1620.129401091	128	39	64
1620.151470907	144	39	58
1620.160962819	144	76	39
1620.190564695	128	29	64
1620.190662251	144	29	28
1620.200569891	128	76	64
1620.212266932	128	29	64
1620.216474674	144	29	11
1620.245584911	128	39	64
1620.274424168	128	62	64
1620.289524295	128	29	64
1620.304163538	144	76	31
1620.347102608	144	29	7
1620.357189247	144	68	39
1620.365889169	128	76	64
1620.40280611	128	68	64
1620.432074638	128	29	64
1620.432174635	144	29	24
1620.434165334	128	29	64
1620.444909309	144	62	39
1620.470421719	144	29	10
1620.483664621	144	68	47
1620.510040555	144	88	63
1620.528641369	128	68	64
1620.535298625	128	62	64
1620.574021007	128	29	64
1620.597737453	144	29	6
1620.623144152	128	88	64
1620.62610575	144	39	37
1620.627001228	128	39	64
1620.627088308	144	39	44
1620.662687834	128	29	64
1620.662787162	144	29	18
1620.687583452	144	62	41
1620.728191976	128	29	64
1620.728285023	144	29	12
1620.728444107	128	39	64
1620.785585808	128	29	64
1620.799676969	128	62	64
1620.818414671	144	39	53
1620.844236163	128	39	64
1620.844331437	144	39	41
1620.862613986	144	77	63
1620.86488603	144	29	19
1620.867714428	128	29	64
1620.867793691	144	29	15
1620.906469991	128	29	64
1620.912869718	128	39	64
1620.919640045	128	63	64
1620.961168385	144	62	41
1620.965117688	144	68	64
1620.973344582	144	39	48
1620.985074	144	29	11
1621.007550215	128	29	64
1621.007649297	144	29	22
1621.009792674	128	68	64
1621.022692403	128	29	64
1621.049092331	128	62	64
1621.059515863	128	39	64
1621.059615261	144	39	37
1621.063152555	144	68	67
1621.093310511	144	29	11
1621.136459294	128	68	64
1621.159039287	128	29	64
1621.159133609	144	29	14
1621.170080199	128	29	64
1621.187316052	144	62	43
1621.241214659	128	39	64
1621.241311661	144	39	43
1621.267946648	144	29	15
1621.283660323	128	62	64
1621.290149864	128	29	64
1621.292587206	144	29	19
1621.3636804	128	29	64
1621.36377416	144	29	16
1621.392597927	144	62	41
1621.405682999	128	29	64
1621.411726075	128	39	64
1621.411821524	144	39	29
1621.460552876	128	76	64
1621.463054452	144	29	16
1621.473539697	128	62	64
1621.477749769	128	39	64
1621.525980719	128	29	64
1621.538696373	144	39	46
1621.571280134	144	29	11
1621.596797849	128	39	64
1621.599607396	144	62	44
1621.647241502	128	29	64
1621.649833892	144	29	18
1621.677926483	128	62	64
1621.728475771	128	29	64
1621.728569771	144	29	21
1621.752691817	128	29	64
1621.771497168	144	62	44
1621.810668342	144	29	19
1621.831754596	144	21	28
1621.847738894	128	62	64
1621.859273483	144	63	32
1621.870614009	128	29	64
1621.912116026	128	63	64
1621.959719315	144	62	42
1621.96496999	144	29	24
1621.9679862	128	29	64
1621.96806638	144	29	12
1621.980196897	128	21	64
1622.006203717	144	63	31
1622.008297548	144	88	67
1622.021621968	128	62	64
1622.069358197	128	63	64
1622.11183423	144	62	40
1622.133269178	128	29	64
1622.133365068	144	29	16
1622.137816902	128	88	64
1622.15529348	128	29	64
1622.157979576	144	63	33
1622.176413464	144	29	16
1622.178676031	128	62	64
1622.209302154	128	63	64
1622.243438747	144	88	68
1622.252454853	128	29	64
1622.252552961	144	29	25
1622.258052761	128	29	64
1622.267762706	144	62	39
1622.287893617	144	63	30
1622.30392052	144	29	20
1622.322087718	128	62	64
1622.337974186	128	29	64
1622.338069118	144	29	19
1622.349451126	128	63	64
1622.354491289	128	88	64
1622.379131701	128	29	64
1622.420779908	144	62	35
1622.432874257	144	63	29
1622.446057934	144	29	23
1622.449212368	128	29	64
1622.44928776	144	29	20
1622.473981534	128	62	64
1622.501440623	128	63	64
1622.511970868	128	29	64
1622.561361358	144	29	20
1622.586685863	144	63	37
1622.5871334	144	62	36
1622.620818341	128	29	64
1622.62091766	144	29	29
1622.641293963	128	29	64
1622.641683899	128	62	64
1622.670774673	128	63	64
1622.671768002	144	29	22
1622.753485208	128	29	64
1622.754407877	144	63	45
1622.754555407	144	62	42
1622.808948826	128	62	64
1622.819330407	144	29	14
1622.82726945	128	63	64
1622.893502706	128	29	64
1622.912785354	144	62	46
1622.918846001	144	63	45
1622.92395403	144	29	15
1622.938538225	128	77	64
1622.959572812	128	62	64
1622.973387702	128	63	64
1623.006381418	128	29	64
1623.054096666	144	29	12
1623.058126286	144	63	38
1623.063258508	144	62	43
1623.092640384	128	29	64
1623.09273477	144	29	23
1623.127580842	128	29	64
1623.130145074	128	63	64
1623.134392572	128	62	64
1623.179022085	144	29	21
1623.212867554	128	29	64
1623.212965439	144	29	23
1623.218015628	144	62	41
1623.259298992	128	29	64
1623.285075993	128	62	64
1623.334236956	144	63	39
1623.356045392	144	29	25
1623.35823552	128	29	64
1623.358310764	144	29	21
1623.371469246	144	62	42
1623.391243517	128	29	64
1623.411813136	128	63	64
1623.426144541	144	63	35
1623.437715049	128	62	64
1623.437910531	144	29	19
1623.487747438	128	63	64
1623.493788478	128	29	64
1623.493882961	144	29	22
1623.503698819	128	29	64
1623.506831623	144	63	39
1623.55308363	144	62	43
1623.559611217	144	29	16
1623.6045238	128	63	64
1623.60871458	144	63	36
1623.613216522	144	68	80
1623.613315572	128	68	64
1623.634377527	128	29	64
1623.634472898	144	29	27
1623.643192596	128	62	64
1623.676816382	128	63	64
1623.777788605	128	29	64
1623.779451551	144	63	36
1623.796249473	144	62	44
1623.817170794	144	29	20
1623.85083507	128	63	64
1623.863682054	128	29	64
1623.863776347	144	29	25
1623.874108121	128	62	64
1623.885681316	144	63	26
1623.90771648	128	29	64
1623.957895595	144	29	23
1623.970979302	128	63	64
1623.982888987	144	63	28
1623.993813225	128	29	64
1623.993907268	144	29	26
1624.021899839	128	29	64
1624.048603372	144	21	25
1624.054997071	128	63	64
1624.078978507	144	29	24
1624.080836654	144	62	49
1624.089269475	128	21	64
1624.098654661	144	63	49
1624.119405755	128	62	64
1624.122582732	128	29	64
1624.122693268	144	29	27
1624.164656359	144	77	75
1624.170841321	128	29	64
1624.176572115	128	63	64
1624.184636279	144	63	42
1624.229163082	128	63	64
1624.248088566	144	29	24
1624.25118676	128	29	64
1624.251265252	144	29	16
1624.252524468	144	63	35
1624.344388231	128	63	64
1624.346207004	144	62	54
1624.353004696	144	63	27
1624.398565511	128	63	64
1624.41115308	128	62	64
1624.417427129	144	93	47
1624.427967886	128	29	64
1624.431629409	144	63	40
1624.452605494	128	93	64
1624.466252583	144	29	14
1624.502999952	128	63	64
1624.510669052	128	29	64
1624.510773448	144	29	26
1624.511110109	144	93	43
1624.516296361	144	63	31
1624.561732816	128	93	64
1624.575271102	128	63	64
1624.62065904	144	62	56
1624.629815737	144	93	30
1624.637501376	128	93	64
1624.651795613	128	29	64
1624.651892536	144	29	19
1624.652729828	128	29	64
1624.694523582	128	62	64
1624.716980492	144	29	16
1624.7734757	128	29	64
1624.773570712	144	29	28
1624.862730471	128	29	64
1624.862807499	144	29	23
1624.893720043	144	62	58
1624.925530245	128	29	64
1624.961649358	128	62	64
1625.006781026	144	68	102
1625.007002194	144	29	30
1625.008467475	128	29	64
1625.008543553	144	29	25
1625.055578465	128	29	64
1625.114408764	128	47	64
1625.117132641	144	62	58
1625.118556977	144	29	26
1625.12109919	128	29	64
1625.121182958	144	29	22
1625.172650615	128	29	64
1625.184428818	128	62	64
1625.229908571	144	29	27
1625.262078116	128	29	64
1625.262173424	144	29	26
1625.31870994	128	29	64
1625.33532479	144	62	56
1625.37626001	144	29	15
1625.403329013	128	62	64
1625.428881707	128	29	64
1625.474957707	144	29	19
1625.510048064	144	93	23
1625.517649597	128	93	64
1625.541323889	144	62	55
1625.593708951	128	29	64
1625.593803591	144	29	16
1625.609277754	128	62	64
1625.618301475	144	93	23
1625.660596155	128	93	64
1625.677676158	128	29	64
1625.709961223	144	93	24
1625.754475689	144	29	27
1625.761625095	144	62	55
1625.763012669	128	93	64
1625.785863307	128	29	64
1625.785964558	144	29	17
1625.80924247	144	88	70
1625.815565378	144	100	85
1625.815816854	144	21	33
1625.825402428	128	62	64
1625.826002706	144	93	25
1625.869624307	128	93	64
1625.876648756	144	39	43
1625.878584468	128	39	64
1625.90602436	128	21	64
1625.910158228	128	100	64
1625.910671669	128	88	64
1625.91361024	144	39	62
1625.960584486	128	39	64
1625.963501787	144	93	26
1625.983731191	128	93	64
1625.993282937	144	62	52
1626.014615224	144	88	70
1626.035033154	144	39	56
1626.051406767	128	29	64
1626.051500721	144	29	17
1626.062999841	128	62	64
1626.066153301	144	93	24
1626.10227089	128	39	64
1626.1051458	144	39	52
1626.124906421	128	88	64
1626.125879179	128	93	64
1626.16447201	128	39	64
1626.193954909	144	93	21
1626.235693396	128	93	64
1626.2400527	144	39	57
1626.242123469	144	62	51
1626.289764613	128	62	64
1626.305350572	128	39	64
1626.305440812	144	39	39
1626.321912291	144	93	25
1626.363415752	128	39	64
1626.443794305	128	93	64
1626.450475219	144	39	42
1626.460360785	144	93	27
1626.460607373	128	93	64
1626.46851735	144	62	52
1626.483317129	144	93	32
1626.519165666	128	62	64
1626.525811686	128	39	64
1626.525908583	144	39	42
1626.561012129	128	39	64
1626.562444251	128	93	64
1626.637719726	144	93	34
1626.681644056	128	93	64
1626.685785815	144	62	53
1626.708501659	144	39	43
1626.712671579	128	39	64
1626.712751799	144	39	41
1626.75386644	128	62	64
1626.77812246	128	39	64
1626.921001159	144	62	55
1626.930138515	144	39	42
1626.930315163	128	39	64
1626.930350345	144	39	45
1626.96854375	128	62	64
1627.054342915	144	63	49
1627.074309941	128	39	64
1627.134357313	144	39	70
1627.144968876	128	63	64
1627.152189882	144	62	53
1627.197921399	128	39	64
1627.215267089	128	62	64
1627.21544142	144	63	51
1627.301878781	144	39	46
1627.318382983	128	63	64
1627.335593625	128	39	64
1627.335693063	144	39	52
1627.37851234	144	62	51
1627.40062149	128	39	64
1627.424152395	144	63	49
1627.443923525	128	62	64
1627.495374694	128	68	64
1627.543476528	144	39	45
1627.543622471	128	63	64
1627.552486017	128	77	64
1627.56600716	128	39	64
1627.591425181	144	93	45
1627.61183574	144	62	49
1627.622164843	144	39	31
1627.625376506	144	63	49
1627.64274987	128	93	64
1627.672187236	128	62	64
1627.710941756	128	39	64
1627.735017805	128	63	64
1627.73934236	144	93	47
1627.745904292	144	39	47
1627.780614917	128	39	64
1627.790580852	128	93	64
1627.841907236	144	62	50
1627.845605977	144	63	48
1627.855742968	144	93	46
1627.867475442	144	39	38
1627.905315992	128	62	64
1627.91346791	128	93	64
1627.945129848	128	63	64
1627.968709433	128	39	64
1627.971635876	144	93	48
1627.972746563	144	39	46
1628.014845621	128	39	64
1628.028537851	144	63	47
1628.029643702	128	93	64
1628.059741238	144	62	50
1628.084772855	144	39	39
1628.127392711	128	62	64
1628.147720433	128	63	64
1628.159608429	128	39	64
1628.184924749	144	39	43
1628.189798231	144	68	44
1628.22985359	128	39	64
1628.241201573	144	63	48
1628.266071565	144	62	51
1628.306878764	144	39	42
1628.338389396	128	63	64
1628.343519579	128	62	64
1628.364349883	144	21	36
1628.376213118	128	39	64
1628.390541059	128	68	64
1628.407146261	128	21	64
1628.40737882	144	39	44
1628.452804728	144	63	49
1628.463784702	128	39	64
1628.478269074	144	77	78
1628.479658875	144	100	2
1628.49668756	144	62	49
1628.518487578	144	39	41
1628.562933204	128	63	64
1628.577175834	128	62	64
1628.597296261	128	39	64
1628.622415608	144	39	44
1628.648937308	128	100	64
1628.663647441	128	39	64
1628.671968241	144	63	51
1628.730855717	144	62	50
1628.741817178	144	39	37
1628.763485145	144	93	48
1628.775832322	128	63	64
1628.802334531	128	93	64
1628.807816868	128	62	64
1628.828942458	128	39	64
1628.832284926	144	39	39
1628.859530285	128	39	64
1628.860109112	144	93	47
1628.882875124	144	63	50
1628.913783719	128	93	64
1628.938007276	144	39	47
1628.946546515	144	62	52
1628.978608061	128	63	64
1628.99335064	128	39	64
1629.001450366	144	93	46
1629.017583396	144	39	40
1629.035155381	128	62	64
1629.04183743	128	93	64
1629.045323509	128	39	64
1629.091076575	144	93	48
1629.092895624	144	63	50
1629.146823134	128	93	64
1629.174889769	128	63	64
1629.176198474	144	62	51
1629.185789739	144	100	2
1629.196491844	144	93	44
1629.244635771	128	62	64
1629.258272491	128	93	64
1629.306680515	144	63	50
1629.390956457	128	63	64
1629.396888453	144	62	50
1629.460519205	128	62	64
1629.519516062	144	63	51
1629.615348029	144	62	50
1629.621349022	128	63	64
1629.679145585	128	62	64
1629.697194733	128	100	64
1629.743095263	144	39	27
1629.762142461	144	63	51
1629.83063595	128	39	64
1629.849705287	128	63	64
1629.851549143	144	62	46
1629.903884355	144	39	61
1629.922990029	128	62	64
1629.993022875	144	63	52
1629.999953481	128	39	64
1630.000140517	144	39	41
1630.045941832	128	39	64
1630.090831033	144	62	47
1630.091124967	128	63	64
1630.130359575	144	93	56
1630.15418699	128	62	64
1630.167062302	144	39	73
1630.16978861	128	93	64
1630.169862087	144	93	23
1630.203538474	128	39	64
1630.224088858	144	39	44
1630.233771691	144	63	52
1630.264897639	128	93	64
1630.296848128	128	39	64
1630.301319955	144	93	46
1630.321147512	144	62	46
1630.324082915	128	63	64
1630.355728763	144	39	70
1630.381526705	128	93	64
1630.381617149	144	93	18
1630.387844702	128	62	64
1630.448226391	128	39	64
1630.449866546	144	39	36
1630.456630374	128	93	64
1630.468586616	144	93	38
1630.491543817	144	63	50
1630.550459675	128	93	64
1630.552044976	128	39	64
1630.554594463	144	62	45
1630.571238289	144	93	19
1630.596600248	128	63	64
1630.616743052	144	39	57
1630.624069228	128	93	64
1630.62773109	128	62	64
1630.676333404	128	39	64
1630.710924356	144	39	26
1630.743026093	144	63	49
1630.778420326	128	39	64
1630.795296087	144	62	46
1630.850364124	128	62	64
1630.857284327	144	39	46
1630.878022292	128	63	64
1630.947914249	128	39	64
1630.950814713	144	39	21
1630.978953611	128	29	64
1631.014439418	144	62	43
1631.03046037	128	39	64
1631.032823222	144	63	48
1631.093851395	128	62	64
1631.09695195	144	93	43
1631.162073346	128	93	64
1631.17525708	144	39	48
1631.199623973	144	93	17
1631.207563184	128	93	64
1631.214496054	128	39	64
1631.233351897	144	39	27
1631.256857787	144	62	48
1631.280719406	128	39	64
1631.330560649	128	62	64
1631.359445614	128	63	64
1631.367768761	144	39	42
1631.36882732	128	77	64
1631.464627376	128	39	64
1631.468101876	144	39	26
1631.515185771	144	62	47
1631.540854201	128	39	64
1631.594074805	128	62	64
1631.603133671	144	39	28
1631.604222427	144	93	13
1631.62093562	144	29	14
1631.638083232	128	93	64
1631.650456149	128	29	64
1631.667640822	128	39	64
1631.667737573	144	39	42
1631.673995685	128	39	64
1631.681585303	144	29	15
1631.720775521	144	39	11
1631.756578865	144	77	81
1631.772934015	128	29	64
1631.784601593	144	63	49
1631.819032991	128	39	64
1631.819270597	144	29	14
1631.822156849	144	39	27
1631.896021501	128	29	64
1631.897032018	144	62	45
1631.913821986	128	39	64
1631.913920607	144	39	38
1631.942676107	144	93	14
1631.966236224	144	29	12
1631.968436213	128	39	64
1631.971816708	144	39	18
1631.995195687	128	93	64
1632.029550445	128	29	64
1632.032400727	128	62	64
1632.033000965	144	29	18
1632.061387712	128	39	64
1632.070330221	144	93	17
1632.108535935	128	93	64
1632.109434887	128	29	64
1632.109514084	144	29	12
1632.122634478	144	39	31
1632.137409235	128	63	64
1632.175363969	128	29	64
1632.181383342	128	39	64
1632.199039036	144	93	20
1632.207888683	144	29	16
1632.224073173	144	39	27
1632.245168544	128	93	64
1632.260456431	128	29	64
1632.285108889	144	29	11
1632.302013209	128	29	64
1632.314677571	144	93	25
1632.334444484	144	29	19
1632.355917619	128	93	64
1632.367302479	128	39	64
1632.367483396	144	39	38
1632.387543484	128	29	64
1632.410189848	128	39	64
1632.410289889	144	39	53
1632.423035453	144	62	47
1632.428146771	144	29	13
1632.443343188	144	93	32
1632.450198347	128	39	64
1632.450291121	144	39	30
1632.482974559	128	93	64
1632.498464658	144	63	48
1632.506618044	128	29	64
1632.511713678	128	62	64
1632.5373338	144	29	14
1632.561883426	144	93	35
1632.593019179	128	39	64
1632.593231685	144	39	36
1632.596271959	128	29	64
1632.61254393	128	93	64
1632.624740713	144	29	22
1632.635121084	128	39	64
1632.63521899	144	39	55
1632.682784073	128	29	64
1632.682887007	144	29	19
1632.688989717	144	93	34
1632.700802935	128	39	64
1632.703331252	144	39	29
1632.70998768	128	29	64
1632.729052574	128	93	64
1632.733700752	144	29	24
1632.804858608	144	93	36
1632.814691677	128	29	64
1632.818604432	144	29	23
1632.83344412	128	93	64
1632.846011491	128	39	64
1632.846374838	144	39	33
1632.877599833	128	29	64
1632.879689899	128	39	64
1632.87976964	144	39	52
1632.894180959	144	29	26
1632.907941028	144	93	37
1632.924084602	128	29	64
1632.924179809	144	29	22
1632.952509259	128	39	64
1632.952602223	144	39	30
1632.952889674	128	93	64
1632.969301298	128	63	64
1632.98699184	128	29	64
1633.030897966	144	29	25
1633.035501753	144	93	40
1633.054520343	128	29	64
1633.054615268	144	29	22
1633.068883509	128	93	64
1633.095846365	144	68	51
1633.095984804	128	39	64
1633.096093287	144	39	34
1633.106332134	128	29	64
1633.140959941	144	93	42
1633.144512924	144	29	26
1633.152823085	128	39	64
1633.152914162	144	39	52
1633.179129673	128	93	64
1633.200248853	128	39	64
1633.204413512	128	29	64
1633.226492477	144	39	31
1633.242425112	144	93	50
1633.281509072	144	29	25
1633.285466479	128	93	64
1633.285947121	144	62	48
1633.320910266	144	93	53
1633.327576452	128	39	64
1633.327674112	144	39	32
1633.338901816	128	29	64
1633.368457801	128	62	64
1633.368842008	144	29	21
1633.370091104	128	93	64
1633.399314457	128	39	64
1633.399413325	144	39	49
1633.43254	128	29	64
1633.434573855	144	29	26
1633.434869432	144	93	53
1633.468771238	128	39	64
1633.470215633	128	29	64
1633.474594445	144	39	23
1633.494430247	144	29	22
1633.494680337	128	93	64
1633.540344021	144	93	58
1633.561402014	128	39	64
1633.577870147	128	29	64
1633.591218037	128	93	64
1633.608155004	144	39	27
1633.625765013	144	29	24
1633.643399279	144	93	59
1633.667248482	128	39	64
1633.667345708	144	39	44
1633.686964904	128	93	64
1633.702604025	128	29	64
1633.705272859	144	29	27
1633.726061025	128	39	64
1633.72777773	144	39	23
1633.751990023	128	29	64
1633.790241856	144	63	47
1633.790465842	144	29	21
1633.846845259	128	29	64
1633.871035243	128	39	64
1633.871293832	144	39	28
1633.917215288	128	39	64
1633.917312074	144	39	46
1633.937203636	144	29	20
1633.9694966	128	29	64
1633.983282576	128	39	64
1634.001510372	144	29	22
1634.002896407	144	39	24
1634.034439035	144	62	52
1634.056546015	128	29	64
1634.079557795	128	62	64
1634.082052066	144	29	18
1634.097441966	128	39	64
1634.140273056	128	29	64
1634.15573505	144	39	31
1634.168923067	144	29	24
1634.189045235	128	29	64
1634.218713148	128	39	64
1634.218814572	144	39	48
1634.226242598	128	39	64
1634.23671326	144	29	14
1634.26288202	144	39	27
1634.285034467	128	63	64
1634.300669539	128	29	64
1634.366135683	128	39	64
1634.366232479	144	39	52
1634.383665069	144	29	13
1634.416306462	128	77	64
1634.44843783	128	39	64
1634.448530696	144	39	33
1634.469447489	128	29	64
1634.527801548	144	29	13
1634.596112775	144	62	50
1634.599333733	128	29	64
1634.601501961	128	39	64
1634.610629307	144	29	21
1634.625397089	144	39	28
1634.684598181	128	29	64
1634.684691276	144	29	13
1634.721272036	128	68	64
1634.726352159	144	77	81
1634.745278463	128	29	64
1634.747515137	144	29	22
1634.794804578	128	39	64
1634.794898685	144	39	49
1634.801092674	128	39	64
1634.801186956	144	39	31
1634.824583411	128	29	64
1634.847591801	144	29	13
1634.881183145	144	93	27
1634.907069065	128	29	64
1634.909189799	128	93	64
1634.945472887	144	68	81
1634.945742109	128	62	64
1634.968426634	144	29	12
1634.968664685	128	39	64
1634.989522218	144	93	27
1634.991762563	144	39	28
1635.04231198	128	93	64
1635.044518334	128	29	64
1635.048736851	128	39	64
1635.096021204	144	63	48
1635.110923215	144	29	13
1635.115599104	144	39	33
1635.133413288	144	93	26
1635.163533582	128	93	64
1635.17095146	128	29	64
1635.197113619	128	39	64
1635.197207215	144	39	47
1635.212485379	144	29	16
1635.235800056	128	29	64
1635.2609253	144	93	29
1635.267987341	144	29	12
1635.30137562	128	93	64
1635.3506808	128	29	64
1635.351577921	128	39	64
1635.351657361	144	39	35
1635.353198558	144	29	21
1635.37605731	128	29	64
1635.38895001	144	93	33
1635.404368624	144	29	10
1635.427260449	128	93	64
1635.483598522	144	88	67
1635.487320069	128	29	64
1635.498372483	144	62	51
1635.502354033	128	39	64
1635.511953485	128	88	64
1635.522463544	144	93	36
1635.528416954	128	63	64
1635.549689282	128	93	64
1635.565274879	144	29	16
1635.630092567	128	29	64
1635.634596489	144	93	42
1635.644817929	144	39	32
1635.665171125	128	68	64
1635.665746591	128	93	64
1635.698040141	144	29	14
1635.727194524	128	39	64
1635.727289411	144	39	53
1635.74941825	144	93	47
1635.77991395	128	39	64
1635.78000672	144	39	41
1635.788326876	128	29	64
1635.790650737	128	93	64
1635.839779998	144	93	48
1635.843755157	144	29	15
1635.858693264	144	68	79
1635.914411232	128	93	64
1635.938285306	128	29	64
1635.938880095	128	62	64
1635.941276292	144	29	19
1635.966336744	144	63	47
1635.968067855	128	39	64
1635.974626423	144	93	52
1635.98922304	128	29	64
1635.990927631	144	29	12
1636.025801452	128	29	64
1636.025995892	128	93	64
1636.036137739	144	21	12
1636.043985644	128	68	64
1636.052191967	144	29	15
1636.099481092	144	93	57
1636.111773776	144	39	37
1636.13620857	128	29	64
1636.139333589	144	29	12
1636.141000976	128	93	64
1636.169476071	128	29	64
1636.182798208	128	39	64
1636.182890598	144	39	55
1636.20179479	144	29	11
1636.218078982	144	93	65
1636.221887168	128	21	64
1636.253712813	128	93	64
1636.272342056	128	39	64
1636.2724388	144	39	42
1636.280942561	128	29	64
1636.284641528	144	29	12
1636.315956706	144	93	69
1636.353333976	128	29	64
1636.35682072	144	29	14
1636.378143795	128	93	64
1636.413528955	144	62	50
1636.42255062	128	29	64
1636.435362074	128	63	64
1636.436526875	128	39	64
1636.438638264	144	93	77
1636.450209601	144	29	7
1636.474031617	128	93	64
1636.509260785	128	29	64
1636.510918609	144	93	85
1636.550066811	144	68	74
1636.566746939	128	93	64
1636.579809758	144	39	33
1636.595013813	144	59	39
1636.597983652	144	29	13
1636.648518344	128	39	64
1636.648612731	144	39	53
1636.649423963	128	59	64
1636.65727618	128	29	64
1636.661051572	144	29	12
1636.716794522	128	39	64
1636.716884361	144	39	43
1636.724720426	128	29	64
1636.748906475	144	29	9
1636.8098261	128	29	64
1636.88387545	144	63	46
1636.899837126	144	29	9
1636.90182219	128	39	64
1636.933963157	128	62	64
1636.976427371	128	29	64
1636.979905997	144	29	14
1636.9837999	144	39	34
1637.035637508	128	29	64
1637.052950392	128	77	64
1637.072921075	144	29	5
1637.130307954	128	29	64
1637.140404922	128	39	64
1637.140501043	144	39	53
1637.172018697	144	100	1
1637.201876473	128	68	64
1637.202928661	144	29	4
1637.221256496	128	39	64
1637.221353102	144	39	45
1637.277993602	128	29	64
1637.300909858	144	29	12
1637.313722635	144	77	77
1637.336813933	144	59	61
1637.357221975	144	62	51
1637.372471019	128	63	64
1637.403057755	128	39	64
1637.489201884	144	68	59
1637.511065262	128	29	64
1637.512041588	144	29	2
1637.556071246	128	59	64
1637.572932615	128	29	64
1637.600520665	144	21	19
1637.605302946	144	39	42
1637.663434588	144	29	10
1637.684621908	128	39	64
1637.684719479	144	39	49
1637.707060698	128	29	64
1637.733382415	144	29	17
1637.736187413	128	39	64
1637.736267917	144	39	33
1637.771459272	144	63	48
1637.781451797	128	21	64
1637.804000888	128	29	64
1637.806618831	144	29	18
1637.819815758	128	62	64
1637.838062862	128	29	64
1637.886968431	144	29	17
1637.935564613	128	39	64
1637.972735502	128	29	64
1638.00465372	144	29	14
1638.060115044	128	29	64
1638.081086547	128	68	64
1638.093239529	144	39	43
1638.113787739	144	29	17
1638.155069341	128	29	64
1638.1630911	144	93	10
1638.163575726	128	39	64
1638.163618705	144	39	51
1638.181204254	144	29	16
1638.190938247	128	93	64
1638.211358177	144	68	67
1638.230685959	128	63	64
1638.236315316	128	39	64
1638.236411359	144	39	34
1638.244903165	128	29	64
1638.245001973	144	29	24
1638.249832956	144	62	54
1638.250615827	144	93	10
1638.290247253	128	29	64
1638.296143715	128	93	64
1638.306589817	128	68	64
1638.334725545	144	29	17
1638.379426153	144	93	15
1638.400480652	144	68	70
1638.401920125	128	39	64
1638.404148083	128	29	64
1638.41356331	144	21	19
1638.429189576	144	29	19
1638.441257801	128	93	64
1638.457230861	128	21	64
1638.458998367	128	68	64
1638.460576953	128	29	64
1638.482536253	144	29	25
1638.539142467	128	29	64
1638.541812281	144	93	19
1638.544389695	144	39	40
1638.548049041	144	68	69
1638.567374799	128	93	64
1638.578463232	144	29	25
1638.592038032	144	63	50
1638.622565758	128	29	64
1638.625341706	144	29	26
1638.630374455	128	39	64
1638.630450714	144	39	47
1638.651418282	144	93	27
1638.68528982	128	39	64
1638.685388995	144	39	33
1638.690622544	128	93	64
1638.711167352	128	29	64
1638.711269644	144	29	32
1638.733108686	128	62	64
1638.75574767	128	29	64
1638.779703858	144	93	35
1638.808682678	128	93	64
1638.813245571	144	59	59
1638.834710828	144	29	32
1638.869109566	128	39	64
1638.872661734	128	29	64
1638.886507811	144	93	42
1638.916838718	144	29	18
1638.922842544	128	93	64
1638.986473114	128	29	64
1639.009921699	144	93	48
1639.021932834	128	100	64
1639.036843723	128	63	64
1639.041625282	144	29	21
1639.051652698	128	93	64
1639.057386894	128	59	64
1639.0905066	128	29	64
1639.108303841	144	62	56
1639.113364032	144	29	26
1639.129258557	144	93	55
1639.169582936	128	93	64
1639.197426829	128	29	64
1639.197527787	144	29	33
1639.220813833	128	29	64
1639.22961141	144	93	63
1639.275895063	128	93	64
1639.30461253	144	29	29
1639.336872428	128	29	64
1639.336966678	144	29	34
1639.351604471	144	93	69
1639.391871423	128	93	64
1639.465338003	144	63	52
1639.46776707	128	68	64
1639.511073197	128	29	64
1639.512916124	144	29	23
1639.553230354	144	93	80
1639.58634754	128	29	64
1639.586439854	144	29	29
1639.596663723	128	62	64
1639.608386324	128	93	64
1639.610314103	128	77	64
1639.669598711	144	93	87
1639.680863889	128	29	64
1639.680957156	144	29	34
1639.686133229	144	58	23
1639.710165309	128	93	64
1639.71754126	144	21	25
1639.739821631	128	58	64
1639.74226295	128	29	64
1639.806005499	144	29	33
1639.808228789	128	29	64
1639.808305645	144	29	34
1639.826906367	128	63	64
1639.832003914	144	68	72
1639.839773398	144	77	78
1639.897662307	128	21	64
1639.959586295	128	29	64
1639.959683316	144	29	34
1639.962823849	144	62	58
1640.016536899	128	29	64
1640.046523191	144	29	30
1640.1932058	144	59	49
1640.254783554	128	29	64
1640.254961142	144	29	24
1640.255124924	128	29	64
1640.279632588	144	29	24
1640.354012266	128	29	64
1640.354425925	144	58	36
1640.405470836	128	62	64
1640.411027023	144	100	121
1640.418257615	144	29	26
1640.455002079	128	58	64
1640.458330087	128	29	64
1640.4584095	144	29	31
1640.507581264	128	59	64
1640.565437272	128	29	64
1640.565537284	144	29	41
1640.603315765	128	100	64
1640.619341491	128	29	64
1640.680984957	144	29	41
1640.756383245	128	29	64
1640.794003466	144	63	61
1640.803309503	144	29	31
1640.836131286	144	93	42
1640.855842911	128	29	64
1640.861022179	128	63	64
1640.872050442	128	93	64
1640.884805648	144	29	35
1640.94922424	144	93	33
1640.952865201	144	62	60
1640.955582785	144	63	63
1640.980081161	128	29	64
1640.980174428	144	29	36
1640.983506655	144	21	34
1640.987806378	128	93	64
1641.003386401	128	29	64
1641.013884589	128	63	64
1641.020804951	128	68	64
1641.028379808	144	93	34
1641.052947258	144	29	40
1641.074391708	128	21	64
1641.076383119	128	29	64
1641.076459624	144	29	41
1641.076744416	128	93	64
1641.098779671	144	63	63
1641.123078702	128	29	64
1641.123717385	144	100	82
1641.157473232	128	63	64
1641.16405625	144	21	32
1641.181755942	144	29	41
1641.185924253	128	29	64
1641.18600156	144	29	41
1641.234976436	144	68	82
1641.241307224	144	63	67
1641.25305686	128	29	64
1641.253209369	128	100	64
1641.261860713	144	59	58
1641.296979628	144	29	42
1641.312577743	128	63	64
1641.315153516	128	21	64
1641.361969366	144	21	31
1641.399576553	144	63	74
1641.426215834	144	39	29
1641.439887984	128	29	64
1641.439983259	144	29	35
1641.455621304	128	59	64
1641.456098746	128	21	64
1641.464791175	128	63	64
1641.507222357	128	39	64
1641.507322447	144	39	46
1641.509416739	128	62	64
1641.515073648	128	39	64
1641.515111508	144	39	38
1641.521642318	128	29	64
1641.523908155	144	63	77
1641.528679024	144	21	31
1641.548768573	144	29	39
1641.568514673	144	58	43
1641.568732197	128	58	64
1641.574743517	128	21	64
1641.597084236	128	63	64
1641.636258212	128	29	64
1641.636353132	144	29	35
1641.648531277	144	62	60
1641.668652664	144	63	77
1641.686880483	128	39	64
1641.702280948	128	29	64
1641.715226404	128	62	64
1641.736448087	144	29	37
1641.749783511	128	63	64
1641.789306009	144	62	60
1641.791686782	144	58	44
1641.794593511	144	93	34
1641.796080538	144	63	69
1641.798616969	128	93	64
1641.827434196	128	29	64
1641.827533606	144	29	31
1641.853766812	144	93	29
1641.859219368	144	39	36
1641.86289228	128	58	64
1641.866149987	128	62	64
1641.881653572	128	63	64
1641.892050357	128	93	64
1641.927810458	128	39	64
1641.927907268	144	39	55
1641.947500489	144	100	74
1641.954786058	144	62	66
1641.971245653	128	29	64
1641.971423049	144	29	39
1641.979570653	144	93	35
1642.018179499	128	62	64
1642.019835928	128	39	64
1642.019915894	144	39	47
1642.044759017	128	93	64
1642.061675387	144	93	35
1642.077760566	144	59	54
1642.097152856	128	93	64
1642.103915119	128	100	64
1642.115126721	128	29	64
1642.115222219	144	29	31
1642.120141585	144	62	65
1642.124702209	128	77	64
1642.151615486	144	100	81
1642.156558267	128	29	64
1642.184371213	128	62	64
1642.186552673	128	39	64
1642.246341363	144	29	42
1642.276420567	144	62	66
1642.283842345	144	39	39
1642.324266173	128	59	64
1642.337120193	128	100	64
1642.354352841	128	62	64
1642.375294263	144	77	71
1642.389647672	128	29	64
1642.389743849	144	29	36
1642.403643742	144	100	79
1642.417377453	128	68	64
1642.428058864	128	39	64
1642.428158742	144	39	60
1642.467828141	128	39	64
1642.467931312	144	39	52
1642.470190604	128	29	64
1642.49624249	144	29	44
1642.523554415	144	58	54
1642.535162492	144	63	64
1642.53567546	128	100	64
1642.58783268	128	63	64
1642.629654313	128	58	64
1642.636497274	128	39	64
1642.651460716	128	29	64
1642.65155698	144	29	37
1642.659209425	144	63	59
1642.719231428	144	39	38
1642.720229918	128	29	64
1642.745739919	144	29	42
1642.746037413	128	63	64
1642.771037404	144	68	83
1642.799722967	144	63	59
1642.822601109	128	39	64
1642.822695554	144	39	62
1642.864307943	128	39	64
1642.864403222	144	39	51
1642.882873779	128	63	64
1642.952053946	128	29	64
1642.952310261	144	29	36
1642.956828992	144	63	61
1642.962158423	144	59	54
1643.0058294	144	93	27
1643.030169336	128	29	64
1643.03188969	128	63	64
1643.033013146	144	29	37
1643.053431018	128	39	64
1643.053724845	144	62	66
1643.054324057	128	93	64
1643.088534368	128	62	64
1643.094548123	144	63	67
1643.125934595	144	58	56
1643.128959304	144	39	48
1643.129283405	144	93	29
1643.166981719	144	21	36
1643.168947925	128	93	64
1643.174922755	128	21	64
1643.175272767	128	63	64
1643.176645611	128	29	64
1643.176720462	144	29	30
1643.188309959	144	62	66
1643.228535696	128	39	64
1643.228626664	144	39	66
1643.228982322	144	93	35
1643.235999943	144	63	70
1643.239047897	128	58	64
1643.239389341	128	62	64
1643.240899996	128	59	64
1643.275644927	128	93	64
1643.297792993	128	63	64
1643.314433784	128	39	64
1643.314530131	144	39	57
1643.352102184	144	93	44
1643.355260976	144	62	65
1643.374724794	144	88	51
1643.392257155	128	93	64
1643.40703477	128	62	64
1643.455024535	128	29	64
1643.455120037	144	29	33
1643.455363876	128	88	64
1643.50351038	128	39	64
1643.510922874	144	62	67
1643.521611634	128	68	64
1643.574608175	144	88	52
1643.585915844	128	62	64
1643.617423036	128	88	64
1643.620360882	128	29	64
1643.620755075	144	29	35
1643.644987884	144	59	54
1643.655636392	144	62	71
1643.659823008	144	39	46
1643.674804584	144	93	50
1643.697004943	128	29	64
1643.697098379	144	29	30
1643.71029718	144	58	64
1643.714724874	128	93	64
1643.72805083	128	39	64
1643.728144442	144	39	66
1643.734859589	144	21	37
1643.74361276	128	62	64
1643.744834319	128	21	64
1643.76177514	144	68	64
1643.790239871	144	93	45
1643.802896692	128	39	64
1643.802995313	144	39	59
1643.830961556	128	58	64
1643.836168137	128	93	64
1643.83635978	144	62	72
1643.84116325	128	29	64
1643.842014408	144	29	32
1643.906124719	128	59	64
1643.908298936	128	62	64
1643.921444697	144	93	56
1643.949342519	128	29	64
1643.949436492	144	29	29
1643.949654861	128	93	64
1643.985947194	128	39	64
1643.997797666	144	62	73
1644.00513857	144	63	71
1644.022415034	144	93	55
1644.038429341	128	29	64
1644.064414712	128	93	64
1644.066555884	128	62	64
1644.066700407	128	63	64
1644.085933834	144	29	34
1644.126332124	144	93	62
1644.130571207	144	39	49
1644.139206428	144	63	69
1644.164239764	144	62	76
1644.178968258	128	93	64
1644.184619919	128	29	64
1644.184729979	144	29	30
1644.194337165	128	39	64
1644.194436641	144	39	65
1644.212256812	128	63	64
1644.241013222	128	62	64
1644.267256537	128	39	64
1644.267355339	144	39	57
1644.278916729	144	59	51
1644.27916154	144	58	71
1644.295293902	144	63	56
1644.346315521	144	62	75
1644.366369821	144	21	39
1644.369028758	128	29	64
1644.369180539	144	29	33
1644.369364404	128	58	64
1644.375443025	128	63	64
1644.404271896	144	88	62
1644.406935022	128	21	64
1644.41060257	128	62	64
1644.441067749	144	63	54
1644.452995005	128	39	64
1644.469223711	128	88	64
1644.524580721	144	62	73
1644.533511487	128	63	64
1644.555269893	128	29	64
1644.555360906	144	29	27
1644.557596983	128	59	64
1644.589764189	128	62	64
1644.604671868	144	63	80
1644.608087536	144	39	45
1644.643961495	144	93	56
1644.677385916	128	39	64
1644.677481106	144	39	65
1644.677814307	128	93	64
1644.679623295	144	62	73
1644.68290768	128	63	64
1644.710144733	144	88	69
1644.736033899	128	88	64
1644.745811539	128	29	64
1644.746800663	144	29	32
1644.750430991	128	39	64
1644.75050935	144	39	55
1644.761612377	144	93	56
1644.763866847	128	62	64
1644.783079761	144	63	61
1644.804454302	128	93	64
1644.838740392	144	62	73
1644.842489615	144	58	76
1644.862370528	144	59	51
1644.862752678	128	63	64
1644.891951635	144	93	60
1644.925602212	128	62	64
1644.93216861	128	93	64
1644.935643279	144	21	39
1644.936138018	128	39	64
1644.939482043	128	58	64
1644.945120378	144	63	44
1644.964070142	128	21	64
1644.995707664	128	29	64
1644.995968921	144	29	31
1645.011914441	144	62	71
1645.01301022	128	77	64
1645.0219268	144	93	63
1645.022918911	128	63	64
1645.045943288	128	93	64
1645.09101964	128	59	64
1645.092375276	144	39	40
1645.092673046	128	62	64
1645.109511062	144	63	73
1645.145894384	128	29	64
1645.162177826	128	39	64
1645.162272684	144	39	61
1645.168114414	144	62	72
1645.175239841	128	63	64
1645.207544042	144	63	60
1645.211506047	144	29	31
1645.248226849	128	39	64
1645.248322262	144	39	51
1645.250557733	128	62	64
1645.303360488	128	63	64
1645.311512771	144	63	47
1645.332831279	144	62	70
1645.369317176	128	63	64
1645.387410042	144	58	83
1645.394728202	144	63	73
1645.400800086	144	21	41
1645.412441489	128	62	64
1645.438450309	128	39	64
1645.452573444	128	29	64
1645.452674206	144	29	27
1645.457565494	128	21	64
1645.463090809	144	77	81
1645.46892687	128	58	64
1645.469048441	128	63	64
1645.477682554	144	59	44
1645.482694069	144	63	75
1645.524660366	144	62	69
1645.535653753	128	63	64
1645.54664236	144	63	71
1645.556522689	144	88	65
1645.577390821	128	88	64
1645.605695175	128	62	64
1645.609430476	144	39	43
1645.630107898	128	63	64
1645.637968926	144	63	54
1645.642171465	128	29	64
1645.642625743	144	29	33
1645.686691913	128	39	64
1645.686784132	144	39	62
1645.700934279	128	63	64
1645.712290349	144	63	71
1645.724533897	128	59	64
1645.747567146	144	62	65
1645.770710396	128	39	64
1645.770807423	144	39	49
1645.785799651	128	63	64
1645.79801868	128	62	64
1645.799211722	144	63	82
1645.810100323	144	88	73
1645.837666781	128	29	64
1645.837765419	144	29	29
1645.853503072	128	88	64
1645.857356148	144	21	48
1645.858736188	128	63	64
1645.891220898	144	63	76
1645.891356264	128	21	64
1645.894067308	144	93	46
1645.91693063	128	93	64
1645.924635295	144	62	59
1645.949030988	128	63	64
1645.966848337	144	63	45
1645.968932118	128	39	64
1645.974676409	144	58	93
1645.986414872	128	62	64
1646.000801023	144	93	46
1646.019262698	128	29	64
1646.019534358	144	29	37
1646.036801188	128	63	64
1646.045467459	144	63	37
1646.045627458	128	58	64
1646.045737822	144	58	1
1646.047717704	128	93	64
1646.0683575	144	39	42
1646.078323857	144	59	42
1646.082785751	128	58	64
1646.089849596	128	29	64
1646.103002905	144	62	48
1646.130041233	128	63	64
1646.130687278	144	93	51
1646.142296744	144	63	63
1646.170211767	128	39	64
1646.170310328	144	39	60
1646.171469137	128	62	64
1646.180048224	128	93	64
1646.213781329	128	63	64
1646.222473777	144	93	59
1646.248778937	144	63	79
1646.255261462	144	29	37
1646.270645035	128	39	64
1646.270736894	144	39	48
1646.278272099	128	93	64
1646.295543013	144	62	40
1646.305296099	128	63	64
1646.307741384	128	59	64
1646.315671922	144	63	65
1646.350602411	144	93	63
1646.38395371	128	93	64
1646.387655364	128	63	64
1646.39426723	144	21	50
1646.399369714	144	63	48
1646.414682286	128	29	64
1646.419678243	128	39	64
1646.448935963	128	62	64
1646.473019584	128	21	64
1646.483630618	128	63	64
1646.495928026	144	29	41
1646.506185138	144	63	49
1646.544125785	144	58	99
1646.554015002	128	29	64
1646.554482204	144	62	32
1646.568486992	128	63	64
1646.571218121	144	88	74
1646.592929481	144	39	56
1646.595258885	128	58	64
1646.595333442	144	58	1
1646.601995429	144	63	75
1646.610748392	144	59	46
1646.616541816	128	58	64
1646.619588388	128	88	64
1646.651620761	128	62	64
1646.673498355	128	63	64
1646.676318056	128	39	64
1646.676398798	144	39	79
1646.689845867	144	63	77
1646.731319225	128	63	64
1646.735355248	128	39	64
1646.735453293	144	39	57
1646.770729703	144	29	39
1646.770993456	144	62	29
1646.778595984	144	63	56
1646.805476381	128	29	64
1646.826565687	144	88	86
1646.859762341	128	63	64
1646.874318333	144	63	39
1646.890921043	128	59	64
1646.905160864	128	88	64
1646.936423243	128	39	64
1646.945329205	128	63	64
1646.981455179	144	63	68
1646.986823459	144	29	38
1647.034013825	144	21	52
1647.040185512	128	62	64
1647.053634452	128	63	64
1647.065875022	144	63	80
1647.073330703	128	29	64
1647.074677893	128	21	64
1647.108962432	144	39	77
1647.122315814	128	63	64
1647.126906118	144	58	104
1647.158533478	144	63	65
1647.183581265	144	93	55
1647.194316885	128	58	64
1647.19440866	144	58	1
1647.196438517	144	62	34
1647.212252576	144	59	52
1647.217200858	128	93	64
1647.21775377	128	58	64
1647.221983375	144	29	36
1647.238916284	128	63	64
1647.252599304	128	39	64
1647.25269526	144	39	96
1647.252843031	128	39	64
1647.252883017	144	39	74
1647.253190681	144	63	42
1647.274040221	128	29	64
1647.30505857	144	93	60
1647.343347817	128	63	64
1647.349949119	144	63	58
1647.352476919	128	93	64
1647.421788987	144	93	68
1647.429941035	128	63	64
1647.442326728	144	63	74
1647.453110652	128	39	64
1647.465187417	128	93	64
1647.474738185	128	59	64
1647.487158141	144	29	42
1647.512697916	128	63	64
1647.538600346	128	29	64
1647.540920309	144	93	80
1647.551302588	144	63	67
1647.555471758	144	21	55
1647.579383855	128	93	64
1647.624650383	128	21	64
1647.633255259	128	63	64
1647.639577796	144	88	82
1647.643157519	144	63	45
1647.659259263	144	39	102
1647.684959589	128	88	64
1647.699871494	128	39	64
1647.699970486	144	39	113
1647.705933662	128	77	64
1647.71810012	144	58	105
1647.724865138	128	63	64
1647.751249192	144	63	77
1647.758626468	128	58	64
1647.758721608	144	58	1
1647.781560613	128	39	64
1647.781655028	144	39	91
1647.794331159	144	59	87
1647.805149138	144	29	36
1647.818629255	128	58	64
1647.820102977	128	63	64
1647.838671721	128	29	64
1647.84471441	144	63	97
1647.852489053	144	77	87
1647.920711112	128	63	64
1647.945032552	144	88	100
1647.951062534	144	63	79
1647.952971076	128	39	64
1647.982828738	144	29	41
1648.00057774	128	88	64
1648.011961902	128	63	64
1648.046683738	144	63	46
1648.054189261	128	29	64
1648.067588278	144	93	61
1648.098659195	128	93	64
1648.108926503	128	59	64
1648.116296256	128	63	64
1648.141615622	144	63	59
1648.171253494	144	39	100
1648.172655881	144	93	66
1648.192316626	144	21	51
1648.211462672	128	93	64
1648.224614024	128	63	64
1648.237470007	128	39	64
1648.237564931	144	39	114
1648.241666923	128	21	64
1648.248511202	144	63	87
1648.253565475	144	29	48
1648.253694535	128	29	64
1648.288087093	144	58	92
1648.2883701	144	93	74
1648.315955745	128	39	64
1648.316055518	144	39	91
1648.318260021	128	63	64
1648.34218301	128	58	64
1648.342274764	144	58	1
1648.349417162	128	93	64
1648.353468116	144	63	85
1648.37454962	128	58	64
1648.412059413	144	93	78
1648.413019978	144	59	97
1648.41684878	128	63	64
1648.447649873	144	63	52
1648.459467352	128	93	64
1648.488361621	144	29	48
1648.503103555	128	39	64
1648.5185708	128	63	64
1648.518705594	128	29	64
1648.530424753	144	63	54
1648.574873937	128	62	64
1648.579043428	128	77	64
1648.614715922	128	63	64
1648.648892	144	63	79
1648.69139723	128	59	64
1648.699971415	144	21	58
1648.720968085	128	63	64
1648.748771694	144	63	93
1648.756038229	144	88	65
1648.75987052	144	39	63
1648.760292477	128	21	64
1648.787797049	144	62	122
1648.81892883	128	63	64
1648.821092367	128	88	64
1648.837828119	144	63	65
1648.853785506	128	39	64
1648.853885562	144	39	81
1648.865932869	144	93	70
1648.868078112	144	58	74
1648.890018874	128	93	64
1648.920460326	128	63	64
1648.921850367	128	39	64
1648.921935029	144	39	64
1648.927763368	144	77	89
1648.929411306	144	59	107
1648.933157096	144	63	55
1648.962066504	128	58	64
1648.977199944	144	93	70
1649.017650035	128	93	64
1649.037872465	144	29	43
1649.094726512	144	88	94
1649.095709205	144	93	81
1649.102882287	128	39	64
1649.124307813	128	29	64
1649.148814992	128	93	64
1649.151833612	128	88	64
1649.164016989	128	63	64
1649.181294252	144	63	79
1649.197568249	144	93	86
1649.244233248	128	63	64
1649.253642825	144	63	56
1649.258159653	128	93	64
1649.276109352	144	39	43
1649.289510903	128	59	64
1649.315304357	144	93	90
1649.336062772	128	63	64
1649.348192175	144	63	56
1649.354423691	128	39	64
1649.354520476	144	39	61
1649.356009364	144	21	51
1649.365266841	128	93	64
1649.423172473	128	21	64
1649.434387416	128	39	64
1649.434479643	144	39	53
1649.455260278	128	63	64
1649.466878658	144	63	75
1649.504389685	144	58	73
1649.537180367	144	29	38
1649.545388757	144	59	102
1649.550013732	128	63	64
1649.58074861	128	58	64
1649.584660388	144	63	75
1649.603524925	128	39	64
1649.669064505	128	63	64
1649.679817896	144	63	46
1649.690642542	144	93	68
1649.714135287	128	93	64
1649.747593761	144	39	37
1649.778834999	128	29	64
1649.796498658	128	63	64
1649.807447036	144	93	80
1649.822961131	144	63	75
1649.828767485	128	39	64
1649.828861059	144	39	57
1649.850028528	128	93	64
1649.869089506	144	88	75
1649.91252018	144	93	91
1649.918290344	128	39	64
1649.918392206	144	39	53
1649.921181604	128	63	64
1649.928066026	144	63	91
1649.950850855	128	77	64
1649.955046156	128	93	64
1649.95885609	128	88	64
1649.967373511	144	21	58
1649.998130094	128	63	64
1650.001993747	128	68	64
1650.010840744	144	63	73
1650.024443805	128	59	64
1650.03913615	144	93	92
1650.05870315	128	21	64
1650.080684492	128	93	64
1650.086445176	128	39	64
1650.122014557	144	29	40
1650.133111959	128	63	64
1650.141088055	144	63	50
1650.146218478	144	93	87
1650.162511124	144	58	72
1650.174148721	128	93	64
1650.211637007	144	88	100
1650.225385937	128	63	64
1650.233638251	144	47	77
1650.246430862	128	58	64
1650.246813012	144	77	91
1650.248365134	144	63	87
1650.267761814	128	88	64
1650.274693574	144	39	38
1650.293343212	144	59	92
1650.343111141	128	63	64
1650.355033255	144	63	93
1650.363048138	128	39	64
1650.363147711	144	39	61
1650.402748833	144	93	82
1650.426608681	128	63	64
1650.42900418	128	29	64
1650.432332149	128	93	64
1650.446002551	128	39	64
1650.446098455	144	39	52
1650.448169401	144	63	69
1650.491873866	144	93	94
1650.545651046	128	63	64
1650.554079314	128	93	64
1650.555241812	144	63	43
1650.590511282	128	39	64
1650.634645716	144	93	81
1650.650564804	128	63	64
1650.663249692	128	93	64
1650.674540951	144	63	81
1650.683839224	144	21	65
1650.741429461	128	59	64
1650.757897131	128	63	64
1650.758280488	128	21	64
1650.769533187	144	63	92
1650.792733153	144	39	34
1650.828076256	144	93	71
1650.831708807	128	39	64
1650.831783825	144	39	54
1650.854470776	128	63	64
1650.854697719	144	29	42
1650.864582353	144	63	71
1650.871888779	128	93	64
1650.932455192	144	93	81
1650.971616152	128	63	64
1650.979912732	128	39	64
1650.980004888	144	39	45
1650.984653799	144	58	63
1650.994402479	144	63	51
1650.998269653	128	93	64
1651.048705066	128	58	64
1651.063491066	128	39	64
1651.08121307	144	59	92
1651.088535473	128	63	64
1651.113636752	144	63	90
1651.12328052	144	88	74
1651.128919247	128	47	64
1651.151286516	128	77	64
1651.153182947	128	88	64
1651.197587022	128	63	64
1651.220245604	144	63	83
1651.268342849	144	39	34
1651.279092295	128	29	64
1651.286147336	144	21	54
1651.321785411	144	93	61
1651.324476674	128	21	64
1651.353507681	128	93	64
1651.380335006	128	39	64
1651.380433725	144	39	60
1651.434359851	144	93	60
1651.449256655	128	63	64
1651.459216875	144	63	67
1651.47060379	128	39	64
1651.470701294	144	39	55
1651.479915375	144	88	103
1651.488750536	128	93	64
1651.516706821	128	63	64
1651.52227208	128	88	64
1651.55226022	144	63	94
1651.563697684	144	93	75
1651.618451018	128	63	64
1651.618715289	128	93	64
1651.620490739	144	29	43
1651.63669255	128	39	64
1651.645127092	144	63	69
1651.662521067	144	93	95
1651.710201916	144	47	80
1651.733681301	128	93	64
1651.736693381	144	77	89
1651.750327805	128	63	64
1651.769727113	144	63	61
1651.822396921	144	58	58
1651.846661591	128	63	64
1651.876169529	144	39	42
1651.882842683	144	63	83
1651.907570988	144	21	62
1651.914812913	128	39	64
1651.9149229	144	39	71
1651.916574604	128	58	64
1651.924924785	128	59	64
1651.978136048	128	21	64
1652.013718097	128	39	64
1652.013810665	144	39	66
1652.044422386	144	93	39
1652.068997981	144	59	74
1652.077475695	128	93	64
1652.10274812	128	39	64
1652.102846322	144	39	60
1652.124267468	128	63	64
1652.229173049	128	29	64
1652.248240449	128	39	64
1652.407688291	144	88	78
1652.42784114	144	39	31
1652.470388435	144	29	56
1652.471679966	128	88	64
1652.483829869	144	21	59
1652.504627253	128	39	64
1652.504727977	144	39	55
1652.542050188	128	21	64
1652.586733017	128	39	64
1652.586829838	144	39	47
1652.62556449	128	59	64
1652.63635166	144	58	58
1652.646592932	144	93	60
1652.705723795	128	93	64
1652.731090835	128	39	64
1652.732962401	128	58	64
1652.746816802	144	88	109
1652.787900004	128	88	64
1652.826060487	144	59	71
1652.893267411	144	39	27
1652.939667078	144	63	49
1652.951377975	128	39	64
1652.951471726	144	39	56
1652.994892588	128	47	64
1653.031857886	128	39	64
1653.031955906	144	39	47
1653.078748951	128	77	64
1653.103040458	144	21	61
1653.112258494	128	29	64
1653.169728065	144	93	62
1653.174758145	128	21	64
1653.176341412	128	39	64
1653.215617927	128	93	64
1653.343947112	144	39	24
1653.382456564	128	39	64
1653.382554815	144	39	54
1653.403563083	144	29	52
1653.433861378	144	47	77
1653.434352558	128	59	64
1653.44922881	144	77	90
1653.452322398	128	39	64
1653.452397921	144	39	46
1653.537550015	144	58	50
1653.5629845	128	39	64
1653.585553464	128	63	64
1653.594998861	144	59	63
1653.642380217	128	58	64
1653.735773868	144	39	27
1653.739921826	144	63	91
1653.799883091	144	21	63
1653.835985431	128	39	64
1653.83608734	144	39	53
1653.875097344	144	93	64
1653.881927382	128	93	64
1653.944942643	128	21	64
1653.987133382	128	39	64
1654.22648295	144	39	27
1654.256018703	128	63	64
1654.266086595	128	39	64
1654.26617918	144	39	55
1654.3478562	128	39	64
1654.347949267	144	39	51
1654.358276457	128	59	64
1654.405424076	144	93	64
1654.434135765	144	21	64
1654.441984302	128	93	64
1654.472992773	144	58	48
1654.49211784	128	21	64
1654.520254781	128	39	64
1654.578968572	128	58	64
1654.612749094	144	59	58
1654.650920408	144	63	120
1654.676296758	128	47	64
1654.69418574	144	39	29
1654.712841237	128	29	64
1654.741888428	128	77	64
1654.76970729	128	39	64
1654.769796672	144	39	62
1654.815597014	128	39	64
1654.81569546	144	39	56
1654.950906551	144	93	64
1654.986716337	128	39	64
1654.990655353	128	93	64
1655.004196224	144	21	66
1655.059080653	128	21	64
1655.176134875	144	39	23
1655.179193485	128	63	64
1655.246963345	128	39	64
1655.247060077	144	39	60
1655.30120111	128	39	64
1655.301294137	144	39	56
1655.373776847	128	59	64
1655.38393983	144	93	62
1655.41878637	128	93	64
1655.440728772	144	58	47
1655.453650478	128	39	64
1655.478697738	144	77	87
1655.513984753	144	47	79
1655.521673277	144	29	63
1655.534070408	128	58	64
1655.592715892	144	63	124
1655.597958511	144	59	53
1655.64271163	144	39	20
1655.691928354	144	21	72
1655.720470356	128	39	64
1655.720567938	144	39	59
1655.724714764	128	21	64
1655.785871205	128	39	64
1655.785964802	144	39	51
1655.927600236	144	93	61
1655.970656089	128	39	64
1655.97603331	128	93	64
1656.114229645	128	63	64
1656.176593071	144	39	56
1656.199634155	128	39	64
1656.199733967	144	39	35
1656.235255195	144	21	68
1656.277325232	128	21	64
1656.374023598	144	93	57
1656.375276788	128	59	64
1656.41978518	128	39	64
1656.422175744	128	93	64
1656.437541378	144	59	53
1656.529184532	144	63	122
1656.61875266	144	58	48
1656.618966312	128	58	64
1656.643232807	144	39	62
1656.787852811	128	39	64
1656.787950778	144	39	70
1656.788088872	128	39	64
1656.788126197	144	39	46
1656.834122662	144	21	65
1656.879952726	144	93	56
1656.892784816	128	21	64
1656.902745554	128	47	64
1656.940496581	128	93	64
1656.941656858	128	59	64
1656.943661213	128	77	64
1656.95346052	128	39	64
1657.104575639	128	63	64
1657.109946715	144	39	60
1657.129786809	128	39	64
1657.129884628	144	39	37
1657.195205533	128	39	64
1657.209955728	144	68	74
1657.283637134	144	93	51
1657.28579421	144	39	45
1657.308328999	128	62	64
1657.331126026	128	93	64
1657.414809456	144	47	81
1657.435373973	128	39	64
1657.435672654	144	39	26
1657.444414386	144	77	88
1657.458744605	144	62	104
1657.501374325	144	21	67
1657.543294892	128	21	64
1657.564665399	144	63	113
1657.582358173	128	39	64
1657.582619366	144	39	64
1657.634145405	144	21	66
1657.673089097	144	93	44
1657.678726391	128	39	64
1657.680031561	144	59	68
1657.691044579	128	21	64
1657.70303466	144	39	25
1657.722757854	128	39	64
1657.798238259	128	93	64
1657.851643455	144	39	47
1657.944614826	128	39	64
1658.150777032	144	21	62
1658.159170155	144	39	51
1658.199653098	128	39	64
1658.199751319	144	39	62
1658.209491014	128	21	64
1658.261097926	144	93	44
1658.275742583	128	39	64
1658.278550481	144	39	30
1658.307715091	128	93	64
1658.333194365	144	58	30
1658.396445403	144	93	47
1658.402889244	128	58	64
1658.453048426	128	39	64
1658.493470329	144	39	47
1658.495920013	128	39	64
1658.495996889	144	39	39
1658.577585051	128	39	64
1658.577683622	144	39	15
1658.709548581	128	93	64
1658.721593627	128	39	64
1658.74032414	128	47	64
1658.740549334	144	21	61
1658.745219013	144	39	55
1658.807834172	128	39	64
1658.807933987	144	39	62
1658.808291411	128	21	64
1658.849611029	128	39	64
1658.871731547	144	39	36
1658.927064309	144	93	68
1658.953389189	144	58	54
1658.954394164	128	93	64
1659.015632672	128	39	64
1659.029588328	144	39	37
1659.029842956	144	93	61
1659.057148506	128	58	64
1659.070781581	128	39	64
1659.070877049	144	39	34
1659.112602596	128	93	64
1659.137347656	128	39	64
1659.145436167	144	39	9
1659.150225074	144	93	58
1659.211316421	128	39	64
1659.218089814	128	77	64
1659.2599539	128	93	64
1659.299902054	144	93	64
1659.301103506	144	21	62
1659.305559832	144	39	52
1659.338215061	128	93	64
1659.340625891	128	39	64
1659.340708051	144	39	55
1659.362593388	128	29	64
1659.392811661	128	21	64
1659.39416317	128	39	64
1659.421645156	144	58	62
1659.425570307	144	39	21
1659.477048582	128	39	64
1659.497490647	144	65	69
1659.518052189	128	58	64
1659.540345065	144	39	47
1659.563924292	128	39	64
1659.56401798	144	39	46
1659.573329874	144	21	63
1659.624322954	128	21	64
1659.644776794	128	39	64
1659.644878333	144	39	15
1659.802627435	128	39	64
1659.80601416	144	39	53
1659.808248023	128	39	64
1659.808323147	144	39	49
1659.865484682	144	58	67
1659.880502138	128	39	64
1659.939670935	144	39	55
1659.960917243	128	58	64
1660.082862961	128	39	64
1660.083041034	144	39	63
1660.122922912	128	39	64
1660.123016121	144	39	49
1660.186721672	144	21	59
1660.201295811	128	39	64
1660.201390127	144	39	18
1660.208686692	128	59	64
1660.225549067	128	21	64
1660.236634257	144	93	71
1660.274019027	128	93	64
1660.288276434	144	59	52
1660.294806058	128	39	64
1660.325420732	144	58	72
1660.34265572	144	39	60
1660.346603439	144	93	72
1660.404578144	128	58	64
1660.413351942	128	93	64
1660.417381208	128	39	64
1660.417479263	144	39	68
1660.435928321	128	39	64
1660.462519579	144	39	41
1660.467014572	144	69	70
1660.470653776	144	93	71
1660.489786589	128	59	64
1660.50394768	128	93	64
1660.548118756	128	39	64
1660.594690099	144	39	44
1660.63715375	128	39	64
1660.63725537	144	39	43
1660.710723775	144	59	54
1660.822458095	128	29	64
1660.849890153	128	39	64
1660.850234834	144	58	74
1660.851762205	144	39	40
1660.854176106	128	59	64
1660.871279552	144	21	63
1660.906077962	128	39	64
1660.90617412	144	39	51
1660.907713901	128	21	64
1660.945327313	128	58	64
1661.103116253	128	39	64
1661.138813184	144	39	48
1661.145660276	144	88	95
1661.183909444	128	39	64
1661.184009069	144	39	44
1661.191735709	128	88	64
1661.235599481	128	39	64
1661.235694499	144	39	12
1661.256877131	144	93	71
1661.260806415	128	93	64
1661.298251221	128	65	64
1661.331910104	128	39	64
1661.349321352	144	93	69
1661.360731161	144	58	80
1661.395992522	144	39	65
1661.399808305	128	39	64
1661.399887064	144	39	63
1661.405521148	128	93	64
1661.454901379	144	93	68
1661.458998017	128	58	64
1661.460112161	128	39	64
1661.463000331	144	59	51
1661.488879131	144	39	39
1661.535317632	144	21	64
1661.542696193	128	93	64
1661.593184973	128	21	64
1661.624542083	128	59	64
1661.631811823	128	39	64
1661.633860346	144	47	70
1661.643902739	144	39	66
1661.646646028	128	39	64
1661.64672314	144	39	60
1661.744633174	128	39	64
1661.755116437	128	62	64
1661.76869572	144	39	35
1661.843192	128	69	64
1661.846585421	128	39	64
1661.863786567	128	68	64
1661.917759209	144	39	55
1661.979046793	128	39	64
1661.979144365	144	39	67
1662.018082862	128	39	64
1662.018362229	144	58	86
1662.02037932	144	39	35
1662.085151669	144	21	67
1662.094706688	128	39	64
1662.126725089	128	21	64
1662.12849509	128	58	64
1662.128571591	144	58	1
1662.147695301	128	58	64
1662.154436475	144	39	56
1662.164420596	144	93	70
1662.206155878	128	93	64
1662.222060679	128	39	64
1662.222160061	144	39	67
1662.25219321	144	93	67
1662.268163854	128	47	64
1662.283537956	128	39	64
1662.312320694	144	39	32
1662.314628544	128	93	64
1662.328946757	144	59	53
1662.339945623	144	93	69
1662.367440552	128	39	64
1662.424312437	144	77	58
1662.443190895	144	39	52
1662.516011406	128	39	64
1662.516088474	144	39	55
1662.528693496	128	39	64
1662.583809011	144	39	17
1662.617727172	128	39	64
1662.665846344	128	93	64
1662.66979633	144	21	53
1662.691479299	128	59	64
1662.743507402	128	21	64
1662.789283682	128	77	64
1662.838465832	144	58	97
1662.846170238	144	39	15
1662.846340226	128	39	64
1662.846376186	144	39	46
1662.946111832	128	39	64
1662.94876304	128	58	64
1662.948845738	144	58	1
1663.01673604	144	39	49
1663.016838093	128	39	64
1663.016874935	144	39	42
1663.023336796	128	58	64
1663.131025501	128	39	64
1663.131120406	144	39	14
1663.2003782	144	93	66
1663.248166224	128	93	64
1663.260115476	144	65	78
1663.276939357	144	59	47
1663.283357002	128	39	64
1663.283451308	144	39	39
1663.301601428	144	21	39
1663.324689273	144	93	66
1663.335757202	128	39	64
1663.35995979	128	21	64
1663.392923507	128	93	64
1663.447165433	128	65	64
1663.491686675	128	59	64
1663.679984345	144	62	62
1663.709411185	144	39	34
1663.710696077	144	69	69
1663.800635589	128	39	64
1663.800734151	144	39	55
1663.934025396	128	69	64
1663.96313606	128	39	64
1663.963233422	144	39	47
1663.999215214	128	63	64
1663.999754972	128	39	64
1664.021402149	144	39	32
1664.071079261	144	47	75
1664.165253566	144	93	63
1664.207059599	128	39	64
1664.207152078	144	39	52
1664.207259045	128	93	64
1664.233028159	128	39	64
1664.233129801	144	39	59
1664.254230367	144	21	27
1664.275925545	144	93	63
1664.281795286	128	47	64
1664.292674492	128	21	64
1664.295055719	144	59	67
1664.303304997	128	39	64
1664.303398518	144	39	34
1664.335357373	128	59	64
1664.473748705	128	93	64
1664.537220694	144	77	70
1664.553484108	128	39	64
1664.707715203	128	77	64
1664.726756679	144	39	22
1664.73094808	144	68	124
1664.769127629	128	39	64
1664.769227841	144	39	51
1664.843981838	128	68	64
1664.865807327	128	39	64
1664.865905284	144	39	46
1664.943421722	144	93	64
1664.982604528	144	65	71
1664.989754512	128	93	64
1665.042320185	128	39	64
1665.066774322	144	93	67
1665.079028069	144	59	34
1665.101545789	144	39	27
1665.103924273	144	21	23
1665.128228497	128	65	64
1665.133803561	128	59	64
1665.134125548	128	93	64
1665.146008042	128	21	64
1665.170710056	144	93	68
1665.247235333	128	39	64
1665.247327292	144	39	51
1665.261344626	128	93	64
1665.292490318	128	39	64
1665.292584156	144	39	45
1665.300780747	144	93	66
1665.346024094	144	69	70
1665.34765475	128	93	64
1665.387214218	144	68	108
1665.520232068	128	39	64
1665.570403254	128	69	64
1665.837875796	144	47	71
1665.978459526	144	59	48
1666.0338217	128	59	64
1666.034184976	128	47	64
1666.054948311	144	93	75
1666.130177003	128	62	64
1666.194291917	144	39	50
1666.203415601	128	39	64
1666.203513717	144	39	23
1666.230163463	144	63	47
1666.273802596	144	77	78
1666.295032673	144	62	64
1666.336657467	144	21	15
1666.36136353	128	21	64
1666.375420485	128	39	64
1666.375515934	144	39	50
1666.381916175	128	62	64
1666.43816043	128	39	64
1666.438256075	144	39	52
1666.474458658	128	77	64
1666.522934291	144	62	68
1666.529228431	128	39	64
1666.529327285	144	39	26
1666.611647868	128	62	64
1666.653529713	128	93	64
1666.673572577	128	39	64
1666.673671625	144	39	56
1666.69651694	144	65	86
1666.734448725	128	39	64
1666.734549802	144	39	60
1666.740888854	144	62	72
1666.768393248	128	39	64
1666.796135686	128	62	64
1666.882657833	128	65	64
1666.96077599	144	58	58
1666.981753438	144	93	72
1667.032705964	128	93	64
1667.055159409	128	100	64
1667.063948819	128	63	64
1667.120033248	144	69	101
1667.135902499	144	39	31
1667.13741348	144	59	57
1667.27960121	128	39	64
1667.279814336	144	39	58
1667.32447813	128	59	64
1667.414940366	128	69	64
1667.424783361	128	39	64
1667.424876036	144	39	61
1667.429093856	144	63	73
1667.567266004	128	39	64
1667.567363597	144	39	60
1667.583264447	144	47	67
1667.628440556	128	39	64
1667.654947542	144	39	37
1667.717434235	128	39	64
1667.797387595	128	68	64
1667.802112889	144	88	81
1667.815955872	128	47	64
1667.843641309	128	88	64
1667.910008356	144	93	70
1667.943362019	128	93	64
1667.961483997	144	59	56
1668.060083833	144	39	60
1668.100086884	144	93	61
1668.104975763	144	77	77
1668.128474126	128	93	64
1668.155194796	144	43	81
1668.182229836	144	68	76
1668.202084486	128	59	64
1668.203972796	128	39	64
1668.204223424	144	39	33
1668.28487193	128	77	64
1668.34162824	128	68	64
1668.365384844	128	39	64
1668.378085312	144	39	57
1668.411676462	144	93	52
1668.454651828	128	93	64
1668.467502253	128	39	64
1668.469919575	144	39	31
1668.550743053	144	65	68
1668.615232801	128	39	64
1668.628740124	144	39	61
1668.713212728	144	59	48
1668.714751919	128	39	64
1668.714833766	144	39	37
1668.761640453	128	65	64
1668.778596194	128	39	64
1668.96627949	144	69	88
1669.019104896	144	68	29
1669.083555861	144	93	69
1669.110790868	144	39	17
1669.196465134	128	39	64
1669.241594734	128	69	64
1669.257459098	144	39	60
1669.285205058	144	47	75
1669.402165386	128	39	64
1669.402548548	144	39	29
1669.50308759	128	39	64
1669.541085781	144	39	69
1669.581328046	128	47	64
1669.621033654	128	39	64
1669.623671103	144	39	48
1669.719525758	128	39	64
1669.816319372	128	68	64
1670.060442635	144	39	39
1670.17073469	128	39	64
1670.207947615	144	39	74
1670.362068669	128	39	64
1670.362286615	144	39	57
1670.466457022	128	39	64
1670.486941378	144	39	90
1670.586840845	128	39	64
1670.586938129	144	39	66
1670.778398213	128	39	64
1671.109069857	128	59	64
1671.163299527	144	39	32
1671.17615098	128	39	64
1671.176251508	144	39	53
1671.313050023	144	59	52
1671.321139196	128	39	64
1671.336797766	144	39	31
1671.351784001	128	59	64
1671.419188197	144	68	73
1671.443382403	128	39	64
1671.47682576	128	68	64
1671.488189316	144	39	51
1671.548556029	144	68	46
1671.565350932	144	77	71
1671.590903576	128	39	64
1671.593858417	144	39	28
1671.741941099	128	39	64
1671.74203568	144	39	52
1671.757611638	128	68	64
1671.777436026	144	68	92
1671.797218289	128	39	64
1671.802518489	128	77	64
1671.811055091	128	68	64
1671.995305181	144	59	79
1672.028270587	144	65	62
1672.035149474	128	59	64
1672.159066245	144	39	18
1672.18705349	128	65	64
1672.246250672	128	39	64
1672.29101878	144	62	85
1672.292609449	144	39	41
1672.330009435	144	69	80
1672.436864453	128	39	64
1672.437048634	144	39	18
1672.512932145	128	39	64
1672.558288543	144	39	42
1672.567341108	128	69	64
1672.589114752	144	68	63
1672.678103826	128	68	64
1672.70288621	128	39	64
1672.704063718	144	39	20
1672.760689768	144	47	65
1672.76368517	128	39	64
1672.808422197	144	39	47
1672.872408621	128	93	64
1672.898011955	128	39	64
1673.02221937	144	21	97
1673.030231237	128	21	64
1673.117518782	144	21	97
1673.211038801	128	21	64
1673.213261665	144	59	102
1673.24983071	144	39	23
1673.251733426	128	59	64
1673.329947055	144	93	78
1673.371633865	144	68	89
1673.40207553	128	39	64
1673.410230304	144	39	53
1673.443776177	144	59	58
1673.510834388	128	68	64
1673.527314585	144	68	70
1673.591568676	128	39	64
1673.5918457	144	39	33
1673.608543131	128	59	64
1673.695717244	128	39	64
1673.719252014	144	39	57
1673.896138494	128	39	64
1673.896852574	144	39	35
1673.93260099	128	62	64
1673.961659165	128	39	64
1674.276610117	144	39	18
1674.346529743	128	58	64
1674.404025863	144	88	78
1674.420170382	128	39	64
1674.420415364	144	39	44
1674.469008213	128	88	64
1674.571070299	128	93	64
1674.596469771	128	39	64
1674.596827966	144	39	23
1674.67956408	128	39	64
1674.683053397	128	47	64
1674.714103487	128	63	64
1674.78705084	144	39	47
1674.849623982	144	77	63
1674.85765881	128	39	64
1674.860999421	144	39	29
1674.870566229	144	21	100
1674.910798049	128	21	64
1674.965240122	128	39	64
1675.015191994	144	21	101
1675.03577776	128	77	64
1675.049131998	144	63	27
1675.093743208	128	21	64
1675.157431882	128	68	64
1675.250065601	144	65	67
1675.428250358	128	65	64
1675.437747457	144	93	78
1675.496803826	128	93	64
1675.532567862	144	69	82
1675.612875508	128	63	64
1675.660435575	144	68	127
1675.744998133	128	69	64
1675.873802276	128	68	64
1675.893895815	144	39	21
1675.913864424	128	39	64
1675.949750458	144	47	70
1676.112120693	144	21	42
1676.144589045	128	47	64
1676.16127728	128	21	64
1676.27255846	144	77	66
1676.427894258	144	68	105
1676.457610823	128	77	64
1676.680785306	144	58	72
1676.701136538	144	65	74
1676.846006906	144	59	79
1676.853885043	128	68	64
1676.879810067	128	65	64
1676.917051953	128	59	64
1676.917378217	144	69	61
1677.152012732	128	69	64
1677.397468785	144	47	69
1677.580929426	144	93	80
1677.593132352	144	39	123
1677.604559754	128	93	64
1677.637141903	128	47	64
1677.674047343	128	39	64
1677.679704502	144	93	82
1677.720867802	128	93	64
1677.794071282	144	77	63
1677.796258591	144	93	93
1677.823579458	128	93	64
1677.87367555	144	93	101
1677.912882536	144	59	82
1677.935428075	128	93	64
1677.966321379	128	77	64
1678.153522608	144	65	73
1678.359966994	128	59	64
1678.361611285	128	65	64
1678.48148433	144	69	60
1678.64859468	128	69	64
1678.710499068	144	39	23
1678.783508361	144	93	102
1678.81711137	128	93	64
1678.823077616	144	93	69
1678.855091782	128	39	64
1678.866572746	128	93	64
1678.892856228	144	93	101
1678.932452512	128	93	64
1678.932546456	144	93	73
1678.979965666	128	93	64
1679.063193187	144	59	77
1679.342058731	128	59	64
1679.447097076	128	43	64
1679.52942058	144	59	35
1679.600719645	128	59	64
1679.893452681	144	39	20
1680.677651283	144	93	78
1680.694952711	128	93	64
1680.773424692	144	68	93
1680.908663816	128	68	64
1680.991924555	144	68	98
1681.077678195	144	59	38
1681.163269293	128	68	64
1681.218181318	144	68	96
1682.686799077	128	58	64
1682.865158202	144	62	19
1683.13028738	144	93	90
1683.150885698	128	93	64
1683.227214972	144	93	88
1683.26737342	128	93	64
1683.2842421	128	43	64
1683.318238795	144	93	88
1683.331782867	128	39	64
1683.378478606	128	93	64
1683.633066888	128	62	64
1683.824059448	144	62	49
1685.711107566	144	39	19
1685.961061793	144	88	76
1686.036728986	128	88	64
1686.092320916	128	59	64
1686.493713473	144	93	25
1686.544249521	128	93	64
1686.720733825	128	39	64
1687.030249289	144	59	21
1687.047784298	144	63	37
1687.2817639	144	93	23
1687.294208021	128	93	64
1687.790397744	144	93	24
1687.895731291	128	62	64
1687.946314138	144	65	101
1688.443124651	128	93	64
1688.927242735	144	39	12
1689.128278367	128	59	64
1689.230579295	144	93	31
1689.240265767	144	59	18
1689.26357826	128	68	64
1689.280413207	128	93	64
1689.302645249	128	59	64
1689.55096898	144	62	77
1689.686890844	144	68	95
1689.706600453	144	58	48
1689.802832502	144	93	33
1690.02116254	128	39	64
1690.02870077	144	59	23
1690.069261856	128	59	64
1690.144953178	144	88	110
1690.24369441	128	88	64
1690.577135915	144	39	6
1690.577663461	144	88	90
1690.614190687	144	59	24
1690.654988002	128	88	64
1690.842498936	128	59	64
1690.850331299	144	88	68
1690.883251023	128	93	64
1690.959628181	128	88	64
1691.03114337	144	93	37
1691.113653484	128	93	64
1691.225255047	144	93	37
1691.237261667	128	39	64
1691.261248881	144	88	53
1691.283168051	128	93	64
1691.296201461	144	59	23
1691.340431964	144	25	48
1691.359900479	128	88	64
1691.39070197	144	93	38
1691.432117273	128	93	64
1691.554160417	144	88	48
1691.560274866	144	93	40
1691.587384507	128	93	64
1691.66758825	144	93	38
1691.677621423	128	88	64
1691.713714345	128	93	64
1691.791080117	144	93	37
1691.817189862	144	88	43
1691.844675827	128	93	64
1691.894475793	144	39	1
1692.046524456	128	88	64
1692.469986422	128	39	64
1692.943847441	144	39	13
1693.497010845	128	39	64
1693.55929405	128	65	64
1693.70046236	128	63	64
1693.893864563	144	39	3
1694.458903179	128	39	64
1694.474472286	144	63	23
1694.737548527	144	93	36
1694.79856329	128	93	64
1694.937956265	144	93	36
1695.008210872	128	93	64
1695.118055343	144	93	35
1695.381049658	128	93	64
1695.486256791	128	62	64
1695.650945528	144	62	75
1695.798433789	144	39	1
1695.997734779	144	88	123
1696.043734668	128	88	64
1696.075189379	128	59	64
1696.286464531	128	39	64
1696.420303705	144	88	105
1696.526949508	128	88	64
1696.596995968	144	59	32
1696.659675637	144	39	22
1696.704165223	128	59	64
1696.896643594	144	88	91
1696.99714931	128	88	64
1697.087627597	128	39	64
1697.163278829	144	59	43
1697.234522676	128	59	64
1697.395692826	144	88	76
1697.531358661	128	88	64
1697.78596611	144	88	65
1697.931961322	128	88	64
1698.10446906	144	88	51
1698.191089815	144	59	50
1698.198267291	128	88	64
1698.369362097	144	40	122
1698.417508211	128	40	64
1698.69362407	144	39	41
1699.059375078	128	59	64
1699.11442849	128	25	64
1699.138584345	144	59	36
1699.203366065	128	59	64
1699.257232469	128	58	64
1699.257328192	144	58	57
1699.28301835	144	93	25
1699.29650352	128	39	64
1699.311996033	128	58	64
1699.312088543	144	58	72
1699.335630378	128	93	64
1699.406885686	144	25	111
1699.480362912	128	25	64
1699.487720809	144	93	24
1699.538862489	128	93	64
1699.593987008	144	39	50
1699.638942558	144	93	25
1699.709148921	128	93	64
1699.767662412	128	58	64
1699.768779808	144	58	76
1699.784123451	144	93	25
1699.845775517	144	59	21
1699.845929765	128	93	64
1699.910377833	144	93	24
1699.979753019	128	93	64
1700.049646912	144	93	24
1700.072898535	128	58	64
1700.119586422	128	93	64
1700.194463884	144	93	26
1700.246206236	128	93	64
1700.336137585	144	93	25
1700.354206371	128	39	64
1700.376426714	144	40	97
1700.450899702	128	40	64
1700.627253968	144	39	50
1700.918702769	128	93	64
1701.370569683	128	39	64
1701.545060293	128	63	64
1701.66962598	128	93	64
1701.787271891	144	39	47
1701.979176221	144	25	111
1702.047502855	128	25	64
1702.504042953	128	39	64
1702.810391368	144	39	10
1702.886581481	144	40	91
1702.94595454	128	40	64
1703.27639769	128	62	64
1703.498885747	128	39	64
1703.726899361	144	39	58
1703.759417379	128	59	64
1704.303276755	128	39	64
1704.356755569	144	25	107
1704.441767056	128	25	64
1704.560719475	144	39	6
1704.93789254	128	39	64
1705.126305755	144	39	60
1705.302263833	144	40	80
1705.363031507	128	68	64
1705.366049191	128	40	64
1705.487643121	128	39	64
1705.777008327	144	39	7
1705.786714225	144	62	53
1705.837876457	144	25	86
1705.926350384	128	25	64
1706.221212428	128	39	64
1706.410619036	144	39	62
1706.414703797	144	63	97
1706.494315808	128	63	64
1706.906022237	144	25	39
1706.987618801	128	39	64
1707.160881869	144	39	81
1707.291055917	144	88	95
1707.33498179	128	88	64
1707.712487599	144	59	121
1707.733364761	128	59	64
1707.754074144	128	39	64
1707.879059234	128	62	64
1707.8859304	144	88	85
1707.977225702	144	39	56
1707.998492912	128	88	64
1708.051526172	144	62	74
1708.162453493	128	62	64
1708.231350994	128	25	64
1708.298642633	144	62	81
1708.342825015	144	88	83
1708.39076222	128	62	64
1708.397507846	128	88	64
1708.519682714	128	39	64
1708.554208184	144	62	81
1708.556811718	144	25	105
1708.609706485	128	25	64
1708.642298283	128	62	64
1708.705298567	144	88	73
1708.726786249	144	39	39
1708.835010563	144	62	79
1708.872620378	128	88	64
1708.930886358	144	59	16
1709.337575153	128	39	64
1709.353788232	144	88	55
1709.403179043	144	39	27
1709.453700956	128	88	64
1709.858856203	144	88	36
1709.955360578	128	88	64
1710.186228989	144	63	100
1710.272710568	128	63	64
1710.342124142	128	39	64
1710.342221168	144	39	127
1710.403844293	144	40	87
1710.434670101	128	59	64
1710.466560157	128	40	64
1710.689669691	144	25	110
1710.719333109	128	25	64
1710.85968349	128	39	64
1710.859780683	144	39	127
1711.220666896	144	91	41
1711.253721407	128	91	64
1711.559157053	128	68	64
1711.708590521	144	91	36
1711.779113325	128	91	64
1711.888738865	144	91	37
1711.941821155	128	91	64
1712.02068164	144	91	38
1712.121379041	128	91	64
1712.184007755	144	91	40
1712.731179452	144	59	56
1712.737368569	128	59	64
1712.772845653	144	59	93
1712.837000158	128	59	64
1713.416453041	128	62	64
1713.464527333	144	62	86
1713.602965505	128	62	64
1713.741961941	144	62	88
1714.092006623	144	21	7
1714.115554691	144	59	87
1714.153211314	128	59	64
1714.176267899	144	59	115
1714.253057674	128	59	64
1714.289686743	128	21	64
1714.866221254	128	91	64
1715.042531082	144	21	7
1715.141447793	144	58	127
1715.223280705	128	21	64
1715.570133096	144	91	51
1715.67198095	144	25	109
1715.755650565	128	25	64
1715.88271318	144	59	93
1715.882975183	128	59	64
1715.924996682	144	59	53
1716.041590223	144	88	39
1716.042844391	144	21	12
1716.098878547	128	21	64
1716.141264476	128	88	64
1716.278534642	144	88	76
1716.324441145	128	59	64
1716.355864407	128	88	64
1716.483634183	128	91	64
1716.649522633	128	62	64
1716.697547337	144	59	67
1716.716739315	128	59	64
1716.7616636	144	62	65
1716.860332258	144	91	49
1717.147136341	144	21	17
1717.290025526	128	21	64
1717.339431175	128	91	64
1717.350251148	128	39	64
1717.400971249	144	91	66
1717.420847926	128	91	64
1717.564029882	144	59	34
1717.795065349	128	58	64
1717.870350606	144	39	123
1717.939168157	144	25	46
1718.045039438	144	91	52
1718.052202062	128	91	64
1718.125929012	144	21	21
1718.165557223	144	91	54
1718.244596169	128	91	64
1718.273342401	128	21	64
1718.33631929	144	91	53
1718.360022332	128	91	64
1718.552996443	144	91	60
1718.591762098	128	91	64
1718.707457916	128	62	64
1718.859937019	128	59	64
1719.162573955	144	21	24
1719.356316773	128	21	64
1719.827713074	144	91	56
1719.835846083	128	91	64
1719.863222904	144	40	85
1719.882509908	128	40	64
1719.964972825	144	91	55
1719.983591523	128	91	64
1720.063527613	144	21	25
1720.082455005	144	91	56
1720.098037977	128	25	64
1720.136657864	128	91	64
1720.238605658	144	91	54
1720.242770102	128	21	64
1720.277285641	128	91	64
1720.322977835	144	91	54
1720.37657614	128	91	64
1720.400099987	144	40	108
1720.408188062	144	25	111
1720.423941237	144	91	55
1720.440627813	128	40	64
1720.458478848	128	25	64
1720.466512661	128	91	64
1720.504727226	144	91	59
1720.5757236	128	91	64
1720.580962424	144	58	123
1720.621901492	144	91	64
1720.760258042	128	91	64
1721.074922461	144	21	25
1721.225008868	128	21	64
1721.325492919	144	91	58
1721.326759765	128	91	64
1721.409768719	144	91	58
1721.439356863	128	91	64
1721.513468915	144	91	65
1721.553525165	128	91	64
1721.605693892	144	91	68
1721.653596045	128	91	64
1722.17068451	144	21	27
1722.250938638	144	62	64
1722.35765857	128	21	64
1722.759967894	144	40	109
1722.899494571	144	59	17
1723.241911439	144	21	28
1723.243696006	144	91	53
1723.274072043	144	25	59
1723.288639302	128	91	64
1723.386516597	128	21	64
1724.249970862	144	21	30
1724.371368582	128	39	64
1724.437491952	128	21	64
1724.443153936	144	91	39
1724.460571835	128	91	64
1724.469530159	144	108	124
1724.480382868	128	62	64
1724.541239711	144	91	40
1724.583805984	128	91	64
1724.594566489	128	108	64
1724.655204204	144	91	41
1724.694570414	144	108	127
1724.699069789	128	91	64
1724.759003338	144	91	44
1724.796139519	128	108	64
1724.815866857	128	91	64
1724.845126947	128	58	64
1724.868404239	144	91	57
1724.916211808	128	91	64
1724.916499243	144	108	118
1724.965513531	144	91	73
1725.010727311	128	108	64
1725.025496124	128	91	64
1725.090280955	144	91	89
1725.127867171	144	108	127
1725.137943075	128	91	64
1725.200173705	144	91	86
1725.228824383	128	108	64
1725.25914517	128	91	64
1725.281035528	144	21	29
1725.312475575	144	91	70
1725.349079272	144	108	118
1725.379931841	128	91	64
1725.44478896	128	108	64
1725.45534919	144	91	59
1725.457910384	128	21	64
1725.484684641	128	91	64
1725.511281953	144	39	127
1725.547343614	144	91	63
1725.591581793	128	91	64
1725.592800135	144	108	111
1725.649954821	128	108	64
1725.650054373	144	108	1
1725.662159072	144	91	75
1725.717868286	128	91	64
1725.789140742	144	91	79
1725.814036909	128	108	64
1725.814137302	144	108	127
1725.829290791	128	91	64
1725.841548688	144	58	84
1725.883728586	128	58	64
1725.930895555	144	91	84
1725.973349463	128	91	64
1726.052049778	144	91	86
1726.053202029	128	108	64
1726.053282963	144	108	127
1726.093679703	128	91	64
1726.179395226	144	91	86
1726.217239445	128	91	64
1726.29331268	128	108	64
1726.293413703	144	108	125
1726.294099861	144	91	89
1726.334396856	144	58	71
1726.354188943	128	91	64
1726.406067538	128	58	64
1726.410956266	144	91	89
1726.421435429	144	21	30
1726.46247899	128	91	64
1726.532958054	128	108	64
1726.533054694	144	108	127
1726.553768429	144	91	94
1726.590098406	128	91	64
1726.613143415	128	21	64
1726.614732974	128	40	64
1726.6786978	144	91	98
1726.731189187	128	91	64
1726.742185883	128	108	64
1726.74228358	144	108	125
1726.779979276	144	58	60
1726.808371143	144	91	99
1726.815880137	128	25	64
1726.860164246	128	91	64
1726.867310401	128	58	64
1726.941387191	144	91	103
1726.965438889	128	108	64
1726.965537772	144	108	113
1726.983773586	128	91	64
1727.08243392	144	91	102
1727.1297853	128	91	64
1727.19060314	128	108	64
1727.190702858	144	108	111
1727.206218561	144	91	100
1727.251733835	128	91	64
1727.272758535	144	58	54
1727.326734264	128	58	64
1727.363283177	144	91	104
1727.396788744	128	108	64
1727.396893012	144	108	114
1727.407894111	128	91	64
1727.49126116	144	91	103
1727.531626667	128	91	64
1727.62138209	128	108	64
1727.621483081	144	108	106
1727.690172384	144	91	88
1727.698204466	128	91	64
1727.743820267	144	58	44
1727.758372019	144	25	99
1727.825732657	144	91	82
1727.829732442	128	108	64
1727.829812475	144	108	114
1727.84775482	128	58	64
1727.859077433	128	91	64
1727.860593394	128	25	64
1727.941226961	144	91	79
1728.006313823	128	91	64
1728.021511106	128	108	64
1728.021615141	144	108	113
1728.055340992	144	62	66
1728.073286342	144	91	76
1728.116076092	128	62	64
1728.125079685	128	91	64
1728.17793263	144	25	99
1728.230517822	144	58	35
1728.244856714	128	108	64
1728.244953647	144	108	124
1728.260606781	128	25	64
1728.333080381	128	58	64
1728.433522497	128	108	64
1728.433620467	144	108	107
1728.548720796	144	91	66
1728.568118682	128	91	64
1728.60918415	128	108	64
1728.60928338	144	108	101
1728.625466639	144	25	97
1728.626393904	128	59	64
1728.639573116	144	62	72
1728.678541697	128	25	64
1728.697004631	144	91	63
1728.698929182	128	62	64
1728.72624558	128	91	64
1728.761420192	144	58	28
1728.8041355	128	108	64
1728.804237073	144	108	102
1728.826003153	144	91	60
1728.838630979	128	58	64
1728.864027321	144	59	61
1728.864703536	128	91	64
1728.920172895	128	59	64
1728.990283896	144	91	62
1728.997069294	128	108	64
1728.997164996	144	108	111
1729.046504395	128	91	64
1729.139670144	144	25	94
1729.161496475	144	91	60
1729.174263652	128	108	64
1729.174366433	144	108	113
1729.186085532	144	58	41
1729.203694321	128	91	64
1729.222232141	128	25	64
1729.269893494	128	58	64
1729.366644147	128	108	64
1729.366745538	144	108	105
1729.409864142	144	59	59
1729.467465378	128	59	64
1729.541609639	128	108	64
1729.541692816	144	108	111
1729.623855487	144	25	96
1729.625647261	144	58	50
1729.683787093	128	58	64
1729.689917351	128	25	64
1729.733281485	128	108	64
1729.733379353	144	108	112
1729.871179487	144	58	54
1729.92209213	128	58	64
1729.925234734	128	108	64
1729.925338977	144	108	111
1730.00641999	144	91	61
1730.027885372	144	58	58
1730.032728694	128	91	64
1730.036641449	144	62	72
1730.076978013	128	62	64
1730.100942219	128	58	64
1730.106230765	144	25	94
1730.117339108	128	108	64
1730.117429236	144	108	106
1730.143127095	144	91	61
1730.178297913	128	91	64
1730.190427844	128	25	64
1730.214321641	144	58	62
1730.283749159	128	58	64
1730.293798883	128	108	64
1730.293905335	144	108	108
1730.419311551	144	58	73
1730.486671196	128	108	64
1730.486767267	144	108	118
1730.498717859	128	58	64
1730.507608151	144	91	65
1730.513718053	128	91	64
1730.525860208	144	62	74
1730.573289801	144	25	96
1730.591244469	128	62	64
1730.635134845	144	58	79
1730.656963304	128	25	64
1730.679301142	128	108	64
1730.679403911	144	108	111
1730.69052068	128	58	64
1730.72719236	144	91	62
1730.769949967	128	91	64
1730.847907743	144	58	85
1730.854663746	128	108	64
1730.854764067	144	108	104
1730.94940795	144	88	72
1730.987553628	144	91	62
1730.998049531	128	88	64
1731.03006476	128	108	64
1731.030161899	144	108	114
1731.030447507	128	91	64
1731.053531434	144	62	75
1731.05609232	144	25	97
1731.114696304	128	62	64
1731.139400949	144	91	63
1731.147339664	144	59	88
1731.163451539	128	59	64
1731.190742747	128	108	64
1731.190845579	144	108	105
1731.195747617	128	91	64
1731.199759761	128	25	64
1731.258325397	144	59	90
1731.283719636	144	91	65
1731.306023509	128	59	64
1731.339117195	128	91	64
1731.40254865	144	59	92
1731.44298425	144	62	79
1731.443527566	128	59	64
1731.463604852	144	91	67
1731.49173972	128	58	64
1731.492018458	144	58	88
1731.492249774	128	58	64
1731.492538668	144	58	97
1731.492730387	128	58	64
1731.492955952	144	58	98
1731.514527749	128	91	64
1731.532240759	128	62	64
1731.53924657	144	25	96
1731.546666896	144	59	95
1731.563003959	128	108	64
1731.563100821	144	108	100
1731.574632392	128	59	64
1731.585797886	144	40	91
1731.603627188	144	91	66
1731.614530916	144	88	96
1731.62379688	128	25	64
1731.637540081	128	39	64
1731.657890528	128	91	64
1731.661856785	128	88	64
1731.674580011	144	59	101
1731.715631784	128	58	64
1731.715953024	144	58	101
1731.717879045	128	108	64
1731.717954653	144	108	105
1731.727684234	128	59	64
1731.737586972	128	58	64
1731.760198983	144	91	64
1731.797948785	144	59	103
1731.818422794	128	91	64
1731.853869804	128	59	64
1731.878021843	128	108	64
1731.878122978	144	108	111
1731.882965292	144	58	78
1731.898917625	144	62	80
1731.926705112	144	59	108
1731.987021301	128	59	64
1731.992073812	128	58	64
1731.998213144	128	62	64
1732.007371572	144	25	94
1732.038329983	128	108	64
1732.03843493	144	108	116
1732.05655003	144	59	110
1732.090628448	128	25	64
1732.120368664	128	59	64
1732.139880386	144	63	95
1732.159948425	144	88	105
1732.166571863	144	58	72
1732.178653714	144	39	127
1732.18541081	144	91	55
1732.205662592	144	59	115
1732.205930234	128	58	64
1732.214065981	128	108	64
1732.214163735	144	108	107
1732.215554323	128	88	64
1732.241784108	128	91	64
1732.249596836	128	63	64
1732.256504061	128	59	64
1732.340128978	144	59	117
1732.344336895	144	62	85
1732.350767343	144	91	53
1732.365278639	144	58	60
1732.403561188	128	59	64
1732.40393133	128	91	64
1732.406777481	128	108	64
1732.406856984	144	108	122
1732.433712711	128	62	64
1732.455738333	128	58	64
1732.483584991	144	91	53
1732.490204553	144	59	120
1732.505604895	144	25	94
1732.536971628	128	59	64
1732.567191583	144	58	56
1732.568852343	128	91	64
1732.598162248	128	108	64
1732.598270778	144	108	108
1732.618851145	144	91	53
1732.62537599	144	59	125
1732.649871997	128	25	64
1732.651776272	128	58	64
1732.667268929	128	59	64
1732.681695915	144	88	109
1732.702922174	128	91	64
1732.727740373	128	88	64
1732.756646866	144	91	54
1732.756854208	144	59	126
1732.781047408	144	62	83
1732.790239698	128	108	64
1732.790341338	144	108	96
1732.809854353	144	58	46
1732.820713411	128	59	64
1732.860149009	128	62	64
1732.875773969	128	58	64
1732.892390251	144	59	127
1732.909167837	128	91	64
1732.954510634	128	59	64
1732.961689434	144	62	81
1732.985347416	128	108	64
1732.985443804	144	108	101
1732.98850937	144	91	55
1733.011249878	144	25	99
1733.011578394	144	58	43
1733.023920138	144	59	127
1733.042176045	128	62	64
1733.044924555	128	91	64
1733.082220445	128	58	64
1733.086872524	128	59	64
1733.090901435	128	25	64
1733.115185669	144	62	83
1733.130887767	144	91	58
1733.157571658	144	59	127
1733.169437256	144	88	106
1733.17389888	128	108	64
1733.173992814	144	108	92
1733.17924209	128	62	64
1733.179332755	144	62	65
1733.191616429	128	91	64
1733.215925638	144	58	37
1733.220733273	128	59	64
1733.230564403	128	88	64
1733.242734346	128	62	64
1733.257219794	144	63	93
1733.270092248	144	62	94
1733.27634999	144	91	63
1733.305083525	128	58	64
1733.306090578	144	59	127
1733.312601064	128	91	64
1733.342269557	128	62	64
1733.34236938	144	62	65
1733.350240686	128	108	64
1733.350335588	144	108	108
1733.351633744	128	59	64
1733.356713154	128	63	64
1733.40116765	144	91	68
1733.40209095	128	62	64
1733.437426643	144	58	35
1733.440426257	144	59	127
1733.44985233	144	62	101
1733.450155346	128	91	64
1733.474805188	144	25	94
1733.50340485	128	59	64
1733.504066288	128	58	64
1733.515286256	144	91	71
1733.525105136	128	62	64
1733.53633408	144	62	74
1733.557286629	128	25	64
1733.558148862	128	108	64
1733.558233874	144	108	99
1733.571996041	128	91	64
1733.574054593	144	59	127
1733.576147733	128	62	64
1733.604165766	128	39	64
1733.631879561	144	62	105
1733.636915753	128	59	64
1733.661000764	144	58	32
1733.671485739	144	91	73
1733.695713726	128	62	64
1733.695826413	144	62	79
1733.700108909	144	88	103
1733.706909406	144	59	127
1733.720542082	128	108	64
1733.720636486	144	108	103
1733.731496629	128	91	64
1733.744561957	128	88	64
1733.746919224	128	62	64
1733.770336384	128	59	64
1733.782251362	128	58	64
1733.803042806	144	91	75
1733.818132705	144	62	98
1733.853513139	128	91	64
1733.85580208	144	59	127
1733.862631306	128	62	64
1733.862722036	144	62	73
1733.910172363	128	108	64
1733.910273291	144	108	116
1733.920273612	128	59	64
1733.923512706	144	25	96
1733.927005244	128	62	64
1733.952799593	144	91	82
1733.964292885	144	58	30
1733.975378385	144	62	111
1733.99202498	144	59	127
1734.008161736	128	91	64
1734.009496992	128	25	64
1734.044215668	128	62	64
1734.044310934	144	62	95
1734.053581509	128	59	64
1734.065698804	128	58	64
1734.09462243	144	39	124
1734.094987242	144	91	78
1734.102388903	128	62	64
1734.119352462	128	108	64
1734.119449072	144	108	126
1734.123934608	144	59	127
1734.134888209	128	91	64
1734.150214985	144	62	76
1734.163258106	144	21	27
1734.185442888	128	62	64
1734.186834066	128	59	64
1734.200502389	144	88	117
1734.226309819	144	91	73
1734.240198138	144	62	124
1734.240486949	128	62	64
1734.240553717	144	62	108
1734.244460826	128	88	64
1734.253955927	144	58	29
1734.273124814	144	59	127
1734.275601778	128	62	64
1734.275676464	144	62	81
1734.311560765	128	108	64
1734.311662003	144	108	125
1734.312886322	128	91	64
1734.316936704	128	21	64
1734.333666277	128	58	64
1734.336986386	128	59	64
1734.36493705	128	62	64
1734.373937764	144	62	121
1734.389028507	144	25	93
1734.424914063	144	59	127
1734.455313273	128	62	64
1734.455405851	144	62	99
1734.467229018	128	59	64
1734.473992881	128	25	64
1734.487312034	128	108	64
1734.487417186	144	108	123
1734.505835906	128	62	64
1734.505932925	144	62	77
1734.556654182	144	59	127
1734.57227521	144	58	51
1734.582717902	128	62	64
1734.59881391	144	62	112
1734.600445824	128	59	64
1734.636054469	128	58	64
1734.64956705	128	62	64
1734.649670199	144	62	96
1734.677925533	128	108	64
1734.678022759	144	108	125
1734.69068943	144	59	127
1734.725051036	128	62	64
1734.725144708	144	62	70
1734.732818846	144	63	92
1734.734969781	128	59	64
1734.763234767	144	88	109
1734.771407443	128	39	64
1734.79856101	128	62	64
1734.809494194	128	88	64
1734.823310013	144	59	127
1734.831944441	144	62	107
1734.841179153	128	63	64
1734.8699238	128	108	64
1734.870022851	144	108	120
1734.873787602	144	25	99
1734.881387959	128	62	64
1734.881485775	144	62	90
1734.884211686	128	59	64
1734.891394818	144	21	28
1734.956268597	144	59	126
1734.967158298	128	62	64
1734.973785419	128	25	64
1734.986021835	144	62	67
1735.020881063	128	59	64
1735.021237045	128	62	64
1735.031345592	144	62	99
1735.057714804	128	21	64
1735.061876375	128	108	64
1735.061986005	144	108	116
1735.099842455	128	62	64
1735.099935273	144	62	85
1735.106473081	144	59	127
1735.150392487	128	59	64
1735.161528296	128	62	64
1735.161620688	144	62	66
1735.166928352	144	91	56
1735.185781219	144	58	66
1735.194980615	144	39	127
1735.198591959	128	91	64
1735.2207228	128	58	64
1735.22425413	128	62	64
1735.240315039	144	59	127
1735.242720083	144	91	59
1735.249951596	144	62	97
1735.253675221	128	108	64
1735.253757014	144	108	118
1735.303834529	128	59	64
1735.307047973	128	91	64
1735.315509357	128	62	64
1735.315608856	144	62	86
1735.36897528	128	62	64
1735.369065751	144	62	65
1735.372395727	144	25	101
1735.389110446	144	59	127
1735.422515388	144	91	57
1735.430773803	128	108	64
1735.430875538	144	108	114
1735.438475075	128	59	64
1735.438729629	128	62	64
1735.457339642	128	25	64
1735.467034149	144	62	101
1735.486362205	128	91	64
1735.531620114	128	62	64
1735.531714451	144	62	94
1735.538907136	144	59	127
1735.583614967	128	59	64
1735.58701982	128	62	64
1735.58709467	144	62	80
1735.591144138	144	91	65
1735.623419547	128	108	64
1735.623513351	144	108	105
1735.648750346	128	91	64
1735.656820522	128	62	64
1735.671743294	144	62	114
1735.67331829	144	59	127
1735.717305886	128	59	64
1735.723033411	144	91	68
1735.739981151	128	62	64
1735.740072323	144	62	92
1735.758415118	144	63	94
1735.772177408	144	58	72
1735.783743294	128	58	64
1735.799513156	128	91	64
1735.813926376	128	108	64
1735.814025094	144	108	113
1735.81731774	128	62	64
1735.817402356	144	62	77
1735.854719781	144	25	101
1735.861156081	144	59	127
1735.861720734	144	91	64
1735.866899757	128	59	64
1735.867264471	128	63	64
1735.888132317	128	39	64
1735.895034618	128	62	64
1735.895125475	144	62	104
1735.911508521	128	91	64
1735.956812633	128	25	64
1735.957706111	144	59	127
1735.96346499	128	62	64
1735.963725333	144	62	86
1735.975849936	144	21	93
1736.001664447	128	59	64
1736.006262866	128	108	64
1736.00636004	144	108	119
1736.017736426	128	21	64
1736.038851777	128	62	64
1736.038941682	144	62	68
1736.08966697	144	59	127
1736.109250864	144	91	62
1736.140543093	128	62	64
1736.140814086	144	62	114
1736.154054409	128	59	64
1736.159764339	128	91	64
1736.166668581	144	21	96
1736.197742823	128	108	64
1736.197846716	144	108	111
1736.216187588	128	62	64
1736.216281578	144	62	92
1736.229865267	144	91	59
1736.232212118	128	21	64
1736.24119609	144	59	127
1736.261591527	144	39	117
1736.283613241	128	59	64
1736.292469143	128	91	64
1736.293273371	128	62	64
1736.311988208	144	25	97
1736.333104254	144	58	72
1736.335346396	144	62	92
1736.336552823	128	62	64
1736.336624077	144	62	71
1736.360186141	128	108	64
1736.360284685	144	108	124
1736.364863657	144	91	63
1736.370391233	128	62	64
1736.370486866	144	62	119
1736.373309235	144	59	127
1736.373645788	128	58	64
1736.407463365	128	91	64
1736.437254665	128	59	64
1736.461724494	128	62	64
1736.461810662	144	62	100
1736.465282721	128	25	64
1736.494464851	144	91	73
1736.49684348	128	62	64
1736.496935186	144	62	76
1736.523202059	144	59	127
1736.535096897	128	108	64
1736.535197788	144	108	125
1736.54811351	128	91	64
1736.56734633	128	59	64
1736.576826378	128	62	64
1736.6205489	144	91	71
1736.648120997	144	62	109
1736.657031093	144	59	127
1736.676661754	128	91	64
1736.709943791	128	108	64
1736.710041622	144	108	125
1736.720822598	128	59	64
1736.726956097	128	62	64
1736.727054179	144	62	94
1736.757514952	128	62	64
1736.757609068	144	62	61
1736.775611107	144	91	58
1736.80671335	144	59	127
1736.81395435	144	25	97
1736.814947639	144	63	94
1736.816286411	128	62	64
1736.835153644	128	91	64
1736.8514339	128	59	64
1736.853560698	128	39	64
1736.870107472	128	108	64
1736.870204645	144	108	125
1736.89487776	144	91	58
1736.911176187	128	25	64
1736.915854665	144	62	96
1736.923861226	144	59	127
1736.937612482	128	63	64
1736.947763966	128	91	64
1736.952165428	144	58	74
1736.972246022	128	62	64
1736.972346851	144	62	67
1736.972683226	128	62	64
1736.97273119	144	62	89
1737.01320417	144	91	65
1737.013370552	128	108	64
1737.013416952	144	108	127
1737.017172211	128	58	64
1737.021275108	128	62	64
1737.050499928	128	91	64
1737.099715863	144	62	101
1737.111277947	144	91	68
1737.147597533	128	59	64
1737.147860954	144	59	121
1737.161109396	128	62	64
1737.161200921	144	62	87
1737.169379366	128	91	64
1737.173461217	128	62	64
1737.206603458	128	59	64
1737.206698602	144	59	118
1737.2295509	144	91	73
1737.25614742	144	25	97
1737.2851869	128	91	64
1737.287370682	128	59	64
1737.287505943	144	59	127
1737.300958081	144	62	112
1737.311589669	144	39	121
1737.332940517	144	91	82
1737.372898884	128	59	64
1737.372995163	144	59	110
1737.384444514	128	62	64
1737.384536337	144	62	91
1737.384648651	128	91	64
1737.386536332	128	108	64
1737.386671655	144	108	119
1737.4003046	128	25	64
1737.43466535	128	62	64
1737.434762931	144	62	72
1737.438202328	128	59	64
1737.438281997	144	59	127
1737.445798917	144	91	92
1737.48677263	128	59	64
1737.486871089	144	59	107
1737.498940939	128	91	64
1737.505706068	128	62	64
1737.532494923	144	58	77
1737.542005651	128	108	64
1737.542107324	144	108	125
1737.557070691	128	59	64
1737.557933417	144	59	127
1737.560792806	144	62	100
1737.577409941	144	91	97
1737.58856867	128	58	64
1737.611304301	128	62	64
1737.611395264	144	62	84
1737.633883195	128	91	64
1737.638765151	128	59	64
1737.638867487	144	59	104
1737.650927218	128	108	64
1737.651024737	144	108	127
1737.686930597	128	59	64
1737.689300873	144	59	127
1737.701991008	128	62	64
1737.702150744	144	91	98
1737.722176583	144	25	100
1737.740552054	144	62	63
1737.740856641	128	62	64
1737.740894471	144	62	85
1737.742981124	128	59	64
1737.743065111	144	59	104
1737.745759285	128	91	64
1737.767361388	128	62	64
1737.807519436	128	25	64
1737.80883656	144	91	91
1737.81397646	144	21	99
1737.821455268	144	62	111
1737.823682545	128	59	64
1737.823761915	144	59	127
1737.85922301	128	91	64
1737.8744465	128	62	64
1737.87453818	144	62	97
1737.877057601	128	59	64
1737.877140729	144	59	105
1737.924460862	144	91	87
1737.932793273	144	63	98
1737.934111833	128	21	64
1737.938072185	128	39	64
1737.954203568	128	59	64
1737.959296938	144	59	127
1737.961364938	128	62	64
1737.970916869	144	88	97
1737.983447909	128	91	64
1737.994727347	144	62	73
1737.995091444	128	62	64
1737.995136372	144	62	98
1738.015636554	128	88	64
1738.021631619	128	59	64
1738.040395621	144	59	104
1738.04523786	128	63	64
1738.049365656	128	62	64
1738.074165214	144	62	110
1738.074430792	128	108	64
1738.0745719	144	108	127
1738.099281055	128	59	64
1738.09937102	144	59	127
1738.099652827	144	58	75
1738.112172959	144	21	99
1738.125570435	128	58	64
1738.152619101	128	59	64
1738.168540896	128	62	64
1738.168637529	144	62	92
1738.177443409	144	59	103
1738.190880544	144	25	102
1738.212483834	128	62	64
1738.212575666	144	62	71
1738.241369392	128	59	64
1738.241471375	144	59	127
1738.245542761	128	108	64
1738.245626676	144	108	127
1738.259390215	128	21	64
1738.278510044	128	62	64
1738.303482152	128	59	64
1738.318237234	144	62	107
1738.325141953	144	59	101
1738.342391207	144	91	70
1738.344648113	144	39	127
1738.348470524	128	25	64
1738.374293331	128	62	64
1738.374386703	144	62	89
1738.379295861	128	91	64
1738.389713655	128	59	64
1738.38981532	144	59	127
1738.406921708	128	108	64
1738.407025858	144	108	127
1738.457337065	128	59	64
1738.46353067	144	59	102
1738.469047815	128	62	64
1738.469142993	144	62	69
1738.470416808	144	91	78
1738.508959287	128	91	64
1738.539704578	128	59	64
1738.544864048	144	59	127
1738.552843981	128	62	64
1738.566944693	128	108	64
1738.567046673	144	108	122
1738.574975806	144	91	78
1738.581240021	144	58	73
1738.582580874	144	62	107
1738.6039261	128	59	64
1738.621773469	128	91	64
1738.622083424	144	59	100
1738.635814472	128	62	64
1738.635906334	144	62	82
1738.638065469	128	58	64
1738.650348764	144	91	58
1738.655570284	144	25	101
1738.689302092	128	59	64
1738.689402281	144	59	127
1738.691956228	128	62	64
1738.69204804	144	62	59
1738.726014514	128	108	64
1738.726116289	144	108	121
1738.737838554	128	91	64
1738.741073919	128	25	64
1738.768436088	144	88	98
1738.769248246	128	59	64
1738.789357237	144	59	102
1738.805301693	128	62	64
1738.812217353	144	62	114
1738.816434714	144	91	78
1738.8228968	128	59	64
1738.822998386	144	59	127
1738.832366852	128	88	64
1738.859440101	128	91	64
1738.87713044	128	62	64
1738.877227907	144	62	87
1738.887001914	128	108	64
1738.887105649	144	108	119
1738.902714392	128	59	64
1738.939262487	144	88	98
1738.941974082	144	59	102
1738.944913777	128	62	64
1738.945232819	144	91	87
1738.953952048	128	39	64
1738.982456289	128	88	64
1738.982709071	144	62	87
1738.984102826	128	62	64
1738.984180233	144	62	63
1738.987106584	128	91	64
1738.993106446	128	59	64
1738.993207727	144	59	127
1739.039578487	128	62	64
1739.042011417	144	58	74
1739.047992048	128	108	64
1739.04808991	144	108	122
1739.054418369	128	59	64
1739.06055325	144	91	68
1739.063069567	144	62	97
1739.092264954	144	59	101
1739.106006992	144	25	104
1739.112133773	128	58	64
1739.116619658	128	91	64
1739.141106444	128	59	64
1739.141210071	144	59	127
1739.141670687	128	62	64
1739.14174943	144	62	77
1739.17925027	144	91	91
1739.20426153	128	59	64
1739.205562979	128	108	64
1739.205639875	144	108	110
1739.206670473	128	25	64
1739.212819858	128	62	64
1739.212912635	144	62	55
1739.217646987	128	91	64
1739.243515921	144	59	102
1739.299340099	144	91	98
1739.302606542	128	62	64
1739.308937161	128	59	64
1739.310804065	144	59	127
1739.33813241	144	62	97
1739.350141247	128	91	64
1739.366003836	128	108	64
1739.366101073	144	108	111
1739.368899973	128	59	64
1739.393676618	144	59	100
1739.409753017	144	63	98
1739.409983763	144	91	85
1739.410242509	128	62	64
1739.410292478	144	62	79
1739.411441796	144	39	121
1739.457133601	128	59	64
1739.461315325	144	59	127
1739.46650362	128	62	64
1739.466598914	144	62	55
1739.466685526	128	91	64
1739.520340413	128	59	64
1739.527134942	144	91	94
1739.527275342	128	63	64
1739.535315535	144	58	74
1739.542659356	128	108	64
1739.542759287	144	108	108
1739.57434621	144	25	100
1739.574910993	144	59	101
1739.577496417	128	62	64
1739.57941374	128	91	64
1739.595168883	128	58	64
1739.624272015	128	59	64
1739.627938421	144	59	127
1739.628583692	144	62	83
1739.66978167	144	91	82
1739.68762605	128	59	64
1739.718045026	128	108	64
1739.718146131	144	108	119
1739.718345328	128	25	64
1739.718496822	128	62	64
1739.721114169	128	91	64
1739.722491949	144	62	64
1739.725991798	144	59	100
1739.785014502	144	91	63
1739.792096371	128	59	64
1739.793694113	144	59	127
1739.808258809	128	62	64
1739.808357832	144	62	84
1739.851842122	128	91	64
1739.853922754	128	59	64
1739.879256587	128	108	64
1739.879358252	144	108	116
1739.893013596	144	59	99
1739.899996043	128	62	64
1739.900087829	144	62	60
1739.918494469	144	91	88
1739.940208209	128	59	64
1739.942729883	144	59	127
1739.966244172	128	91	64
1739.974503547	128	62	64
1739.987880527	128	39	64
1739.994645888	144	25	100
1740.003780733	128	59	64
1740.019029436	144	88	107
1740.021910943	144	58	74
1740.042232253	144	59	100
1740.05441607	128	108	64
1740.054508506	144	108	105
1740.05490831	144	62	83
1740.075846739	128	58	64
1740.090380804	128	25	64
1740.09185081	128	59	64
1740.09533912	144	59	127
1740.105152133	128	88	64
1740.121135895	144	91	100
1740.13106711	144	21	100
1740.142701895	128	62	64
1740.142796243	144	62	57
1740.153734204	128	59	64
1740.192613921	144	59	101
1740.192875231	128	91	64
1740.193020218	144	91	79
1740.198831449	128	108	64
1740.198930131	144	108	108
1740.199112178	128	21	64
1740.229889221	128	62	64
1740.239637367	128	59	64
1740.243432992	144	59	127
1740.244932695	144	62	97
1740.248326604	128	91	64
1740.304223997	128	59	64
1740.333059225	144	91	98
1740.333155274	128	62	64
1740.333191596	144	62	78
1740.340055642	144	25	100
1740.342071	144	59	100
1740.342519467	128	108	64
1740.342569181	144	108	116
1740.35129513	128	91	64
1740.367439661	144	91	64
1740.390035303	128	59	64
1740.393089195	144	59	127
1740.399959529	128	62	64
1740.400051608	144	62	59
1740.407590872	144	88	91
1740.418028843	128	91	64
1740.429474678	144	91	106
1740.448027839	144	21	102
1740.4647456	128	88	64
1740.468980683	128	59	64
1740.483097284	128	25	64
1740.488264974	128	108	64
1740.488401319	144	108	109
1740.488747001	128	91	64
1740.489949459	144	59	99
1740.504746358	128	62	64
1740.506528266	144	58	70
1740.514102221	144	62	88
1740.532885133	128	21	64
1740.533333757	144	91	118
1740.562005596	128	59	64
1740.563499487	144	59	127
1740.574604461	128	58	64
1740.578010752	144	39	124
1740.605698001	128	62	64
1740.605789862	144	62	60
1740.619348579	128	91	64
1740.620589722	128	59	64
1740.646493878	128	108	64
1740.646595253	144	108	103
1740.657444798	128	39	64
1740.658002178	144	91	84
1740.658138245	144	59	101
1740.661034817	128	91	64
1740.691675243	128	62	64
1740.707439201	128	59	64
1740.709863552	144	59	127
1740.734126741	144	62	93
1740.756875872	144	25	102
1740.770759747	128	59	64
1740.789462937	128	40	64
1740.81722587	128	62	64
1740.817320768	144	62	79
1740.838400172	144	88	64
1740.840974846	144	59	102
1740.85648382	128	59	64
1740.876112856	144	59	127
1740.90114099	128	25	64
1740.9064643	128	62	64
1740.906574492	144	62	60
1740.920007289	128	88	64
1740.937464916	128	59	64
1740.959398612	144	59	105
1740.967586563	128	108	64
1740.967687162	144	108	99
1741.004923141	128	62	64
1741.015715364	144	62	88
1741.023425738	128	59	64
1741.028193433	144	59	127
1741.030948774	144	58	70
1741.087642329	128	59	64
1741.097681303	144	91	97
1741.106294067	128	62	64
1741.106443107	128	108	64
1741.106518135	144	108	98
1741.108697927	128	58	64
1741.126240503	144	59	106
1741.140404867	144	25	102
1741.14436287	144	39	127
1741.148141932	128	91	64
1741.148215897	144	91	73
1741.18142017	144	62	61
1741.188481502	128	59	64
1741.192722467	144	59	127
1741.213376285	128	39	64
1741.219237091	128	62	64
1741.219333282	128	91	64
1741.234136262	144	91	91
1741.23797174	128	108	64
1741.238071266	144	108	93
1741.254073202	128	59	64
1741.273945414	144	62	90
1741.274139331	144	59	103
1741.283988302	128	25	64
1741.295323393	128	62	64
1741.29542037	144	62	61
1741.308910857	128	91	64
1741.33932276	128	62	64
1741.342607324	128	59	64
1741.342708273	144	59	127
1741.349966718	144	91	89
1741.351141037	144	88	95
1741.357912451	144	63	103
1741.368122347	128	91	64
1741.379928377	144	91	85
1741.380951321	128	108	64
1741.381035119	144	108	97
1741.387658328	144	62	63
1741.406948735	128	59	64
1741.411403295	144	59	104
1741.415466052	128	88	64
1741.439802511	128	91	64
1741.439857326	144	91	78
1741.441622724	128	62	64
1741.441699504	144	62	86
1741.441955282	128	62	64
1741.442000079	144	62	108
1741.446486429	128	62	64
1741.460551647	128	63	64
1741.470520741	128	59	64
1741.51354536	128	91	64
1741.513646404	144	91	102
1741.526039341	128	108	64
1741.526145917	144	108	99
1741.540860524	144	25	99
1741.543873401	144	62	112
1741.553650698	128	91	64
1741.572797908	144	59	103
1741.591442738	128	62	64
1741.591536342	144	62	70
1741.591777833	128	62	64
1741.591816529	144	62	94
1741.599815349	128	62	64
1741.649359131	144	58	72
1741.669774974	128	108	64
1741.669873746	144	108	99
1741.670397275	144	62	90
1741.685763761	128	25	64
1741.695011764	144	39	126
1741.70057204	128	58	64
1741.727120963	128	62	64
1741.727219077	144	62	109
1741.729134468	128	62	64
1741.729312691	144	62	68
1741.745670538	128	62	64
1741.772369979	144	88	76
1741.810522025	144	62	109
1741.814186884	128	108	64
1741.814271792	144	108	96
1741.853743079	128	88	64
1741.85688089	144	91	63
1741.863398273	128	62	64
1741.863491177	144	62	63
1741.863889196	128	62	64
1741.863948182	144	62	89
1741.883574618	128	62	64
1741.941221196	144	25	102
1741.959079083	128	108	64
1741.959174884	144	108	96
1741.963891859	144	62	56
1742.006487602	128	62	64
1742.0065794	144	62	82
1742.006827422	128	62	64
1742.006877785	144	62	100
1742.010358075	128	91	64
1742.041829667	128	62	64
1742.050092316	144	91	65
1742.074178885	128	59	64
1742.077551834	128	91	64
1742.085724741	128	25	64
1742.102748678	128	108	64
1742.102850772	144	108	97
1742.106569759	144	91	83
1742.107938219	144	88	67
1742.158927403	144	62	63
1742.168892857	128	91	64
1742.168982608	144	91	70
1742.183766549	144	58	73
1742.203837192	128	88	64
1742.207565753	128	62	64
1742.207645442	144	62	90
1742.207875589	128	62	64
1742.207921568	144	62	105
1742.22961552	128	58	64
1742.247847597	128	108	64
1742.247950108	144	108	100
1742.248504752	128	62	64
1742.248587591	128	91	64
1742.286865378	144	91	82
1742.296301342	128	91	64
1742.319462675	144	91	75
1742.339616554	144	25	102
1742.35078334	144	21	100
1742.388642745	144	62	101
1742.399773246	128	91	64
1742.406593929	128	108	64
1742.406696319	144	108	98
1742.415585867	144	59	108
1742.419700568	128	21	64
1742.439291224	128	62	64
1742.439387413	144	62	67
1742.43966937	128	62	64
1742.439718576	144	62	87
1742.446395839	144	91	94
1742.448935223	128	91	64
1742.468354275	144	91	91
1742.488382507	144	63	102
1742.49239283	128	59	64
1742.498304121	128	25	64
1742.512734821	128	91	64
1742.51282781	144	91	103
1742.5211049	128	39	64
1742.539009722	144	88	94
1742.550371722	128	108	64
1742.550470364	144	108	95
1742.55591961	144	59	112
1742.564499313	128	88	64
1742.569502026	128	91	64
1742.571415029	128	62	64
1742.587322502	128	63	64
1742.594853365	144	91	67
1742.621594873	128	59	64
1742.629710063	144	59	127
1742.669849809	128	91	64
1742.679012664	144	91	99
1742.684964561	128	59	64
1742.694118318	128	108	64
1742.694222395	144	108	89
1742.71685609	128	91	64
1742.722907994	144	59	111
1742.727997791	144	39	127
1742.73949842	144	91	98
1742.74065843	144	25	104
1742.75986726	144	21	101
1742.760308653	144	62	106
1742.782614405	128	39	64
1742.785948571	128	59	64
1742.798690879	128	91	64
1742.798786835	144	91	102
1742.825051945	128	62	64
1742.825144984	144	62	81
1742.825391588	128	62	64
1742.825435097	144	62	101
1742.834215092	128	21	64
1742.838500635	144	59	111
1742.840128035	128	25	64
1742.85276397	128	91	64
1742.852858406	144	91	86
1742.875740186	144	88	102
1742.901869313	128	108	64
1742.901974973	144	108	100
1742.921494779	128	88	64
1742.927298103	144	58	70
1742.937352578	128	91	64
1742.964139837	144	91	111
1742.983886523	128	58	64
1742.989949653	128	91	64
1743.003543828	144	91	101
1743.024097481	128	62	64
1743.068264922	128	91	64
1743.068355879	144	91	101
1743.070418325	144	40	19
1743.0778907	128	108	64
1743.077986541	144	108	99
1743.158094488	128	91	64
1743.186080741	144	91	92
1743.188356242	144	62	102
1743.198835083	128	91	64
1743.214448458	128	59	64
1743.214766689	128	59	64
1743.22334789	144	91	105
1743.24168371	128	62	64
1743.241777467	144	62	93
1743.242083309	128	62	64
1743.242132849	144	62	76
1743.253981042	128	108	64
1743.25408215	144	108	97
1743.274250207	144	25	108
1743.30154645	144	88	115
1743.304732581	128	91	64
1743.318080671	144	91	80
1743.367132876	128	88	64
1743.373471377	128	91	64
1743.418393543	144	63	104
1743.420626621	144	91	101
1743.420978357	128	91	64
1743.429474294	128	25	64
1743.429631224	128	108	64
1743.429697309	144	108	97
1743.430032906	144	91	90
1743.466386612	144	58	61
1743.482458988	128	62	64
1743.4865387	128	91	64
1743.486611468	144	91	102
1743.518856624	128	58	64
1743.527934294	144	39	125
1743.547799342	128	63	64
1743.555969434	128	91	64
1743.573649823	128	108	64
1743.573751824	144	108	102
1743.582783972	128	39	64
1743.624160338	144	91	93
1743.648139238	144	62	98
1743.687122066	128	91	64
1743.708946638	128	62	64
1743.709037246	144	62	70
1743.709261935	128	62	64
1743.709306759	144	62	90
1743.718502481	128	108	64
1743.718601125	144	108	94
1743.722681895	144	91	69
1743.763343374	144	39	127
1743.770428771	144	88	117
1743.804259899	128	91	64
1743.830396444	128	39	64
1743.833736068	128	88	64
1743.846294717	144	91	97
1743.846488876	128	91	64
1743.862598281	128	108	64
1743.862700475	144	108	90
1743.876270478	144	25	102
1743.891871009	128	62	64
1743.903577959	144	91	89
1743.982326576	128	91	64
1743.99034085	128	108	64
1743.990445864	144	108	90
1744.021109401	128	25	64
1744.098163769	144	62	101
1744.135636513	128	108	64
1744.135736121	144	108	92
1744.181744442	128	62	64
1744.181831106	144	62	78
1744.182062705	128	62	64
1744.182106108	144	62	96
1744.193750889	144	88	76
1744.278354518	128	108	64
1744.278456017	144	108	90
1744.320547406	128	88	64
1744.336585584	144	21	101
1744.349222522	144	63	102
1744.371174041	128	62	64
1744.403251206	128	21	64
1744.422577357	128	108	64
1744.422683001	144	108	88
1744.43993513	144	25	106
1744.463336109	128	63	64
1744.507634945	144	91	111
1744.573106787	144	62	93
1744.581654147	128	108	64
1744.581759345	144	108	82
1744.593646503	128	91	64
1744.601330453	128	25	64
1744.626301001	128	62	64
1744.626398769	144	62	97
1744.626713254	128	62	64
1744.626763355	144	62	76
1744.644124118	144	88	54
1744.654050457	144	91	101
1744.660702892	144	39	125
1744.700551595	128	88	64
1744.712722306	128	108	64
1744.712825075	144	108	88
1744.729385021	128	91	64
1744.729478892	144	91	108
1744.758017631	128	91	64
1744.75995612	128	39	64
1744.807630182	144	58	72
1744.812785768	144	91	102
1744.829132566	128	62	64
1744.855865199	128	58	64
1744.862936654	144	88	45
1744.866712393	144	21	100
1744.869541492	128	108	64
1744.869622338	144	108	85
1744.915657267	128	91	64
1744.951687805	128	21	64
1744.955248251	128	88	64
1744.990351315	144	25	107
1744.99808093	128	108	64
1744.99818024	144	108	85
1745.022670234	144	62	77
1745.059701016	144	88	38
1745.067361673	128	62	64
1745.067455864	144	62	96
1745.067666038	128	62	64
1745.067735586	144	62	106
1745.116771896	128	88	64
1745.125401782	128	108	64
1745.125500462	144	108	85
1745.134526372	128	25	64
1745.148935881	144	91	108
1745.195726934	128	91	64
1745.255920424	144	91	109
1745.267522462	144	63	100
1745.268993263	128	108	64
1745.269087933	144	108	81
1745.278823456	128	62	64
1745.306178945	128	91	64
1745.350573972	144	91	110
1745.382490399	144	58	76
1745.397646786	128	91	64
1745.397986606	128	63	64
1745.408565437	128	40	64
1745.413653279	128	108	64
1745.413769918	144	108	76
1745.476778201	144	62	94
1745.486391517	128	58	64
1745.506219261	128	62	64
1745.506315477	144	62	75
1745.506516352	144	25	107
1745.509389286	128	62	64
1745.509465317	144	62	117
1745.531295333	144	40	115
1745.573116073	128	108	64
1745.573213395	144	108	93
1745.594825515	144	39	123
1745.607278747	128	25	64
1745.61688735	128	39	64
1745.717160468	128	108	64
1745.717258354	144	108	112
1745.732933952	128	62	64
1745.847064978	128	108	64
1745.847162626	144	108	119
1745.881626359	144	58	77
1745.923077935	144	62	98
1745.937726172	144	91	94
1745.989428824	128	108	64
1745.989531982	144	108	115
1746.032260355	128	91	64
1746.107793751	144	25	106
1746.116910134	144	91	104
1746.120347144	128	108	64
1746.120426532	144	108	114
1746.145659697	144	63	99
1746.156321227	128	91	64
1746.183254195	128	25	64
1746.195546781	144	91	109
1746.212322792	128	62	64
1746.246848877	128	108	64
1746.246944233	144	108	117
1746.258699369	128	63	64
1746.323652595	128	91	64
1746.374175309	128	108	64
1746.374273707	144	108	124
1746.423841308	144	62	98
1746.461065244	144	39	127
1746.481954246	128	58	64
1746.501052192	128	108	64
1746.50115569	144	108	125
1746.516083901	128	39	64
1746.593087024	128	40	64
1746.606565861	144	25	111
1746.630013583	128	108	64
1746.630115327	144	108	122
1746.688755426	128	62	64
1746.705938618	144	58	71
1746.70617245	128	58	64
1746.707347443	128	25	64
1746.773311448	128	108	64
1746.773417679	144	108	115
1746.777678531	144	21	99
1746.90938626	144	62	73
1746.916868042	128	108	64
1746.916962888	144	108	106
1746.925722662	128	21	64
1747.031889191	144	58	76
1747.038071415	144	63	97
1747.056238656	128	108	64
1747.056335887	144	108	112
1747.096399224	144	91	88
1747.109409675	128	58	64
1747.121064885	128	91	64
1747.123454574	144	25	110
1747.145186246	144	39	125
1747.16411059	128	63	64
1747.176378948	128	39	64
1747.193810764	144	91	92
1747.205170752	128	108	64
1747.205268209	144	108	113
1747.230965545	128	91	64
1747.233683776	128	62	64
1747.267474511	128	25	64
1747.27237856	144	91	105
1747.34406539	144	21	104
1747.348585356	128	108	64
1747.348665819	144	108	122
1747.372191969	128	91	64
1747.416348462	144	91	111
1747.423995854	144	62	82
1747.501113615	128	91	64
1747.508979193	128	108	64
1747.509077948	144	108	125
1747.525769498	128	21	64
1747.568131388	144	58	68
1747.586854995	144	91	113
1747.61992491	128	58	64
1747.622811006	128	91	64
1747.681649954	128	108	64
1747.681747395	144	108	125
1747.695644543	144	91	107
1747.706984202	144	25	108
1747.741711875	128	91	64
1747.757855077	128	62	64
1747.807048492	128	25	64
1747.810166172	144	91	112
1747.830278965	128	108	64
1747.830381843	144	108	120
1747.882232287	128	91	64
1747.884019507	144	62	113
1747.914757841	144	91	111
1747.932252046	144	63	98
1747.989175271	128	108	64
1747.989269565	144	108	117
1748.009758149	128	91	64
1748.009851838	144	91	39
1748.026901396	144	58	77
1748.0435073	128	91	64
1748.077878821	128	58	64
1748.090300282	128	63	64
1748.116897009	128	108	64
1748.117000486	144	108	115
1748.205400101	128	62	64
1748.240605801	144	25	108
1748.246598008	128	108	64
1748.246700713	144	108	112
1748.340941717	128	25	64
1748.341571097	144	91	92
1748.361943962	144	39	127
1748.372532689	128	91	64
1748.38266214	128	39	64
1748.414177407	144	62	99
1748.421115562	128	108	64
1748.421218473	144	108	124
1748.433459607	144	91	92
1748.480572733	128	91	64
1748.493808717	144	58	68
1748.535964309	128	58	64
1748.564791548	144	91	91
1748.607518485	128	91	64
1748.656375814	144	91	91
1748.661167617	128	108	64
1748.661283901	144	108	116
1748.724869791	144	25	107
1748.726579397	128	91	64
1748.759940686	128	62	64
1748.823382472	128	25	64
1748.823775329	144	63	97
1748.924191391	144	62	72
1748.942225115	144	58	76
1748.965824556	128	63	64
1748.993686753	128	58	64
1749.140909602	144	91	84
1749.147039361	128	108	64
1749.147141572	144	108	126
1749.153780502	128	91	64
1749.189533081	144	25	109
1749.21443886	144	91	78
1749.251077674	128	62	64
1749.265544928	128	91	64
1749.290540375	128	25	64
1749.325654035	144	21	100
1749.412257409	144	62	89
1749.509124174	128	21	64
1749.624540456	144	25	110
1749.640422139	144	91	81
1749.657303096	128	91	64
1749.706110929	128	108	64
1749.706215161	144	108	127
1749.723807152	128	25	64
1749.727300398	128	62	64
1749.735150163	144	91	83
1749.788459428	128	91	64
1749.790351922	144	63	97
1749.812212764	144	39	127
1749.844688374	128	39	64
1749.878750967	144	62	60
1749.929328512	144	21	100
1749.935642783	128	63	64
1749.956368399	128	62	64
1750.034427599	144	91	85
1750.055002296	144	62	53
1750.055289522	128	91	64
1750.073340493	144	25	109
1750.09147972	128	21	64
1750.119488989	128	62	64
1750.133802545	144	91	91
1750.174173016	128	25	64
1750.197240903	128	91	64
1750.210701411	144	62	55
1750.282082853	128	108	64
1750.282181989	144	108	116
1750.294770722	128	62	64
1750.375733505	144	62	54
1750.446158559	144	91	98
1750.473060511	128	62	64
1750.477494995	128	91	64
1750.490394845	144	25	113
1750.529744676	144	62	52
1750.53338101	144	91	104
1750.574960201	144	58	48
1750.588459668	128	91	64
1750.622642406	128	62	64
1750.634524848	128	25	64
1750.638594146	128	58	64
1750.698048907	144	62	52
1750.752584784	144	63	97
1750.775630314	128	62	64
1750.840145905	144	62	51
1750.872471479	128	63	64
1750.878191273	144	91	110
1750.887471192	128	91	64
1750.91549972	128	62	64
1750.926255208	144	25	108
1750.926844758	144	58	77
1750.961907824	128	58	64
1751.00933323	144	62	54
1751.034007569	128	108	64
1751.034106371	144	108	111
1751.069995213	128	62	64
1751.070768692	128	25	64
1751.111583126	144	39	127
1751.143780794	144	91	110
1751.145667333	144	62	63
1751.162004509	128	39	64
1751.172201727	128	91	64
1751.220876576	128	62	64
1751.244893001	144	58	83
1751.289909846	128	58	64
1751.291500327	144	62	71
1751.323717966	144	91	115
1751.353387826	128	62	64
1751.361429746	128	91	64
1751.390086733	144	25	111
1751.39464144	144	39	122
1751.44354266	144	62	70
1751.451770725	128	39	64
1751.490621238	128	25	64
1751.495398468	128	62	64
1751.527565617	144	58	70
1751.53368087	144	91	109
1751.559113937	144	62	69
1751.559209726	128	91	64
1751.596344974	128	58	64
1751.614828258	128	62	64
1751.630799609	144	63	98
1751.682500397	144	62	77
1751.735923451	128	62	64
1751.736491455	144	91	114
1751.782646751	128	91	64
1751.792685564	128	63	64
1751.805570631	144	58	88
1751.813282578	128	108	64
1751.81338202	144	108	110
1751.819310283	144	62	78
1751.834460012	144	25	112
1751.840124868	128	58	64
1751.853084818	128	62	64
1751.886347493	144	21	104
1751.941701398	144	62	87
1751.983499851	144	91	110
1751.997742008	128	25	64
1752.001949187	128	62	64
1752.026166587	128	91	64
1752.083693806	144	58	93
1752.09209184	128	21	64
1752.098674921	144	62	87
1752.117332764	128	58	64
1752.150191591	128	62	64
1752.240576145	144	62	87
1752.29213575	128	62	64
1752.307311023	144	25	110
1752.366018109	144	62	94
1752.367582372	144	58	65
1752.407585869	128	25	64
1752.419963617	128	58	64
1752.429300194	128	62	64
1752.478531843	144	21	97
1752.495417586	144	39	126
1752.511477724	144	62	89
1752.545436404	128	39	64
1752.549141062	128	62	64
1752.554199106	128	108	64
1752.554296502	144	108	96
1752.565528335	144	63	98
1752.636418751	144	62	80
1752.644108047	128	21	64
1752.680493504	128	62	64
1752.681412393	144	58	85
1752.698600438	128	63	64
1752.739900889	128	58	64
1752.772862756	144	25	111
1752.794326967	144	62	75
1752.832741524	128	62	64
1752.909151463	144	62	86
1752.916760697	128	25	64
1752.957463179	128	62	64
1752.957651019	144	58	99
1752.995402519	144	39	125
1753.009636389	128	58	64
1753.04736962	144	62	93
1753.112013108	128	62	64
1753.215066004	144	62	102
1753.218829359	144	91	90
1753.246232865	128	91	64
1753.254510832	128	62	64
1753.257494177	144	25	108
1753.31576898	144	58	72
1753.321047482	144	91	95
1753.338799859	128	108	64
1753.338897401	144	108	101
1753.353368831	128	91	64
1753.353944472	144	62	115
1753.357054065	128	58	64
1753.40093722	128	25	64
1753.418734655	128	62	64
1753.498587475	144	62	110
1753.502996969	144	63	97
1753.555335065	128	62	64
1753.600913554	144	58	91
1753.637507725	128	39	64
1753.637837199	144	62	107
1753.653579773	128	58	64
1753.653940963	128	63	64
1753.689974087	144	25	105
1753.692490385	128	62	64
1753.770780024	144	39	127
1753.792727604	144	62	113
1753.810025284	128	25	64
1753.849114291	128	62	64
1753.906063112	144	58	101
1753.925027467	144	62	127
1753.951242842	128	58	64
1753.992082686	128	62	64
1754.073973211	128	108	64
1754.074075016	144	108	90
1754.094792905	144	91	83
1754.100488814	144	62	127
1754.108013615	128	91	64
1754.121796884	128	39	64
1754.122926049	144	25	106
1754.156842837	128	62	64
1754.194943993	144	91	78
1754.22402097	128	25	64
1754.234585424	128	91	64
1754.243211699	144	62	127
1754.260206895	144	58	75
1754.271712766	144	91	81
1754.303564314	128	62	64
1754.308477802	128	58	64
1754.326694321	128	91	64
1754.345184506	144	39	127
1754.395522097	144	62	118
1754.417162276	144	63	97
1754.451456902	128	62	64
1754.517546536	128	63	64
1754.565639884	144	62	101
1754.590945016	144	25	106
1754.598560001	144	63	95
1754.613366129	144	58	91
1754.617625524	128	62	64
1754.633774455	144	21	101
1754.638016487	128	39	64
1754.659565464	128	58	64
1754.704089277	128	63	64
1754.715846904	144	62	89
1754.748183041	128	25	64
1754.757447114	128	21	64
1754.767615759	128	62	64
1754.784579321	144	63	95
1754.826118777	128	108	64
1754.82621778	144	108	101
1754.831275631	144	91	92
1754.831565729	128	91	64
1754.87833337	144	39	127
1754.88166344	128	63	64
1754.884683372	144	62	70
1754.896895313	144	58	101
1754.925782886	144	91	99
1754.936814433	128	62	64
1754.956565564	128	91	64
1754.960601567	128	58	64
1754.963010077	144	63	95
1754.998331717	144	91	108
1755.023809761	144	62	50
1755.034061163	128	63	64
1755.0404045	144	25	106
1755.053497033	128	91	64
1755.093433875	128	62	64
1755.123487121	128	39	64
1755.142119491	144	63	95
1755.184197744	128	25	64
1755.20481329	144	62	29
1755.233466691	128	63	64
1755.24577639	144	58	73
1755.261624442	128	62	64
1755.278273606	144	21	102
1755.301758095	128	58	64
1755.338130687	144	62	12
1755.347323307	128	108	64
1755.415412563	128	62	64
1755.427057303	128	21	64
1755.445551277	144	39	127
1755.452609923	144	63	95
1755.502547939	144	62	11
1755.556811943	144	25	75
1755.559387414	144	58	97
1755.564381311	128	62	64
1755.572690319	128	63	64
1755.619694067	128	58	64
1755.62208031	128	39	64
1755.668001362	144	62	26
1755.683694517	144	91	98
1755.690968222	128	91	64
1755.717268853	144	108	64
1755.730775167	144	63	96
1755.731034247	128	62	64
1755.770660221	144	91	104
1755.813185351	128	108	64
1755.824762303	128	91	64
1755.83426153	144	62	38
1755.871792945	128	63	64
1755.873394542	144	58	97
1755.885591719	128	62	64
1755.917467944	128	58	64
1755.937251764	144	91	105
1755.961825617	144	39	127
1755.963253528	128	91	64
1756.000349928	144	62	51
1756.043884436	144	63	96
1756.0758965	128	62	64
1756.09912944	128	25	64
1756.14028766	128	39	64
1756.154354521	144	62	61
1756.156188075	144	58	91
1756.180571646	128	63	64
1756.213858416	128	58	64
1756.220103767	128	62	64
1756.273358337	144	25	66
1756.298547812	144	62	75
1756.311519769	144	91	97
1756.344036178	128	91	64
1756.362854946	128	62	64
1756.369634571	144	63	97
1756.426609503	144	108	110
1756.454466956	144	62	88
1756.454774283	144	91	92
1756.469005269	144	58	93
1756.478164673	144	39	127
1756.501178883	128	62	64
1756.508098954	128	91	64
1756.510520316	128	63	64
1756.534709615	128	58	64
1756.581302331	128	39	64
1756.590602125	128	108	64
1756.603679695	144	62	100
1756.645986855	144	63	97
1756.660908122	128	62	64
1756.740276579	144	91	98
1756.762161203	144	62	115
1756.7738534	128	63	64
1756.794113472	128	91	64
1756.823960624	128	62	64
1756.83349823	128	25	64
1756.849124203	144	58	88
1756.914083024	144	62	122
1756.919047291	128	58	64
1756.931530932	144	63	98
1756.977716205	128	62	64
1756.993629532	144	39	127
1757.01278363	144	91	87
1757.040552963	144	25	76
1757.040868685	144	62	126
1757.059721585	128	91	64
1757.063157955	128	39	64
1757.068094077	128	63	64
1757.102542302	144	21	99
1757.11410947	144	108	108
1757.134955107	128	62	64
1757.211596977	144	62	127
1757.219111948	128	21	64
1757.234754118	144	63	98
1757.27372788	128	62	64
1757.278411778	128	108	64
1757.284960298	144	58	88
1757.36197729	128	58	64
1757.374826332	144	62	120
1757.390876277	128	63	64
1757.423355647	144	91	94
1757.439056875	128	62	64
1757.454430629	128	91	64
1757.495313569	144	39	123
1757.531936914	144	62	118
1757.53205661	144	91	93
1757.549081292	128	39	64
1757.563942057	144	63	99
1757.567660436	128	91	64
1757.583122438	128	25	64
1757.598576671	128	62	64
1757.68298569	128	63	64
1757.695644042	144	62	115
1757.712995936	144	21	98
1757.737737683	144	108	122
1757.76401245	144	22	4
1757.764379805	128	62	64
1757.780878815	144	25	76
1757.786884271	128	22	64
1757.826599881	144	58	88
1757.855193696	144	63	99
1757.877357519	144	62	94
1757.877552959	144	22	13
1757.877722386	128	21	64
1757.886766242	128	108	64
1757.887678334	144	91	87
1757.900576313	128	58	64
1757.924650433	128	91	64
1757.931052243	128	62	64
1757.935353736	128	22	64
1757.964026765	128	63	64
1757.99801521	144	22	28
1758.010951893	144	39	118
1758.014360756	144	63	99
1758.029693917	144	62	81
1758.038946895	128	22	64
1758.086311015	128	62	64
1758.135039088	128	63	64
1758.14046905	144	22	42
1758.153825668	144	91	84
1758.15698602	128	39	64
1758.174261532	128	22	64
1758.179876729	128	91	64
1758.183426428	144	62	65
1758.210439946	144	63	98
1758.251337377	128	62	64
1758.257410368	144	22	55
1758.304562133	128	63	64
1758.321338334	128	22	64
1758.337335996	144	62	50
1758.344014449	128	25	64
1758.353635188	144	58	87
1758.405345173	128	62	64
1758.419765234	144	63	98
1758.425357575	144	91	85
1758.437189804	144	108	122
1758.439441057	128	58	64
1758.455352514	128	91	64
1758.464508263	144	22	68
1758.464643699	128	22	64
1758.482272786	128	63	64
1758.495121398	144	62	36
1758.524399115	144	22	80
1758.548313946	144	63	98
1758.562269759	144	39	122
1758.567942627	128	22	64
1758.574673189	144	25	72
1758.57865505	128	62	64
1758.605271916	144	91	87
1758.631580464	128	91	64
1758.647339358	128	39	64
1758.654321785	128	108	64
1758.654671581	128	63	64
1758.658049139	144	62	36
1758.659855782	144	22	91
1758.701186862	128	22	64
1758.720594621	144	91	87
1758.729588255	128	62	64
1758.736595005	144	63	99
1758.758191368	128	91	64
1758.791207027	144	22	102
1758.827845246	144	62	35
1758.83776281	128	22	64
1758.839870952	144	91	96
1758.864553757	128	63	64
1758.876332333	128	91	64
1758.908742963	128	62	64
1758.909060926	144	22	115
1758.917601871	144	63	99
1758.922938326	144	58	86
1758.956683069	144	91	102
1758.969133745	128	22	64
1758.976201729	128	58	64
1758.992353272	144	62	27
1759.011128356	128	91	64
1759.032015411	128	63	64
1759.042762051	144	22	119
1759.068619997	128	62	64
1759.069237264	144	91	103
1759.102434228	128	22	64
1759.102821195	144	63	99
1759.118590048	128	91	64
1759.145090925	144	39	121
1759.149191337	128	25	64
1759.165338196	144	62	28
1759.171065938	144	91	105
1759.17721966	144	22	122
1759.177504678	144	108	122
1759.195233658	128	39	64
1759.211151496	128	62	64
1759.227774947	128	63	64
1759.232233964	128	91	64
1759.236240436	128	22	64
1759.281307793	144	63	99
1759.301584537	144	91	109
1759.311409238	144	22	123
1759.33843934	144	62	31
1759.349887075	128	91	64
1759.357198434	144	25	74
1759.358433641	128	108	64
1759.369089802	128	22	64
1759.399293521	128	63	64
1759.402287053	128	62	64
1759.415028966	144	91	111
1759.442272156	144	22	127
1759.458758828	128	91	64
1759.49274239	144	58	88
1759.502591572	128	22	64
1759.50477272	144	62	30
1759.538964162	144	91	114
1759.558854064	128	58	64
1759.570903545	128	62	64
1759.577586166	144	22	127
1759.58277877	128	91	64
1759.63750827	128	22	64
1759.659834905	144	91	111
1759.678899169	144	62	45
1759.708835436	144	22	127
1759.710516915	128	91	64
1759.727514647	128	62	64
1759.791645004	144	91	113
1759.798292113	128	22	64
1759.829735752	128	91	64
1759.839674546	144	62	71
1759.858232636	144	22	127
1759.890532375	128	62	64
1759.90619305	144	91	110
1759.930954286	128	22	64
1759.960200903	128	91	64
1759.980348262	144	62	85
1759.991807901	144	108	119
1759.998807813	128	25	64
1760.008301597	144	22	127
1760.034317566	144	58	85
1760.036630257	144	91	114
1760.048491567	128	62	64
1760.07122678	128	22	64
1760.075170749	128	91	64
1760.102591506	128	58	64
1760.122883204	144	62	96
1760.145694105	144	22	127
1760.150812858	144	91	115
1760.158913873	128	108	64
1760.200880359	128	91	64
1760.20098913	128	62	64
1760.219976318	128	22	64
1760.264899741	144	62	98
1760.274510235	144	22	127
1760.278810053	144	91	117
1760.289633033	144	25	71
1760.318246172	128	91	64
1760.328141595	128	62	64
1760.354479942	128	22	64
1760.380303795	144	62	112
1760.408205879	144	22	127
1760.42616338	144	63	99
1760.445375993	128	62	64
1760.487912884	128	22	64
1760.496487	144	62	119
1760.501984815	128	63	64
1760.544068793	144	22	127
1760.571553494	128	62	64
1760.590172623	144	58	86
1760.597570139	144	63	99
1760.622872594	144	62	124
1760.634262977	144	108	121
1760.636148421	128	22	64
1760.655552827	128	58	64
1760.683540213	128	63	64
1760.692418283	144	22	127
1760.70599275	128	62	64
1760.740289349	144	62	127
1760.772179096	128	22	64
1760.775742067	144	63	98
1760.815475867	128	108	64
1760.826713758	144	22	127
1760.831611038	128	62	64
1760.863029973	144	62	127
1760.86318435	128	63	64
1760.887987157	128	25	64
1760.904661425	128	22	64
1760.917363637	144	63	98
1760.958541722	144	22	127
1760.960416988	128	62	64
1761.006313194	128	63	64
1761.018304147	144	62	127
1761.038023332	128	22	64
1761.083892016	128	62	64
1761.091788437	144	25	68
1761.122613203	144	91	69
1761.126017128	144	22	127
1761.146788294	128	91	64
1761.167803513	128	22	64
1761.176913021	144	62	117
1761.232279336	128	62	64
1761.317301498	144	108	125
1761.330090235	144	62	103
1761.38753235	128	62	64
1761.470056669	144	62	91
1761.499777603	128	108	64
1761.512178163	144	58	82
1761.512373326	128	58	64
1761.538216434	128	62	64
1761.541279644	144	91	61
1761.580067054	128	91	64
1761.632356864	128	25	64
1761.650420356	144	62	81
1761.680197101	144	22	118
1761.718123832	128	62	64
1761.721194666	128	22	64
1761.736627083	144	58	84
1761.800243069	128	58	64
1761.8276093	144	91	63
1761.857240473	144	25	63
1761.857497487	144	62	70
1761.877509292	128	91	64
1761.900838427	144	21	98
1761.920011034	128	62	64
1761.990250888	144	91	61
1762.017169201	128	91	64
1762.028655205	144	39	118
1762.061929981	128	39	64
1762.069096401	144	108	113
1762.076000948	144	62	65
1762.08829655	128	21	64
1762.091586448	144	91	72
1762.135096712	128	91	64
1762.139862757	128	62	64
1762.169086554	144	91	79
1762.221616533	128	91	64
1762.237932633	128	108	64
1762.27670692	144	91	83
1762.304967936	144	62	59
1762.328244755	128	91	64
1762.330551171	144	22	111
1762.354315966	144	58	84
1762.389956592	128	62	64
1762.427630152	144	39	121
1762.450376426	128	58	64
1762.482530655	128	39	64
1762.498590349	128	25	64
1762.566561063	144	62	38
1762.577034934	144	39	124
1762.627676148	128	22	64
1762.640288015	128	62	64
1762.649854039	128	39	64
1762.690314348	144	25	76
1762.856676537	144	108	118
1762.871089876	144	62	32
1762.953103324	128	62	64
1762.995214922	144	39	120
1763.015228799	144	58	81
1763.021973841	128	108	64
1763.029068318	128	39	64
1763.065412899	144	91	35
1763.109083369	128	91	64
1763.186578871	144	91	37
1763.230588665	128	91	64
1763.248966777	144	62	25
1763.289474566	144	91	40
1763.332328995	144	22	115
1763.344089868	128	62	64
1763.351777918	128	91	64
1763.352696552	128	25	64
1763.524840744	144	25	76
1763.528951405	144	108	127
1763.636265684	128	58	64
1763.637687924	144	62	53
1763.709257882	128	108	64
1763.738121585	128	62	64
1763.762233701	144	91	58
1763.827916899	128	91	64
1763.95485635	144	39	118
1763.975669485	144	91	36
1764.012860224	128	39	64
1764.016539484	128	91	64
1764.067607461	144	62	81
1764.105374281	144	91	78
1764.185255474	144	108	108
1764.273731723	128	91	64
1764.302163852	144	91	41
1764.366105126	128	108	64
1764.415390695	128	25	64
1764.461629647	128	91	64
1764.461723784	144	91	81
1764.63570382	128	91	64
1764.64441047	144	91	46
1764.713447273	144	58	79
1764.726137037	128	58	64
1764.726605469	128	91	64
1764.726672731	144	91	92
1764.82172508	144	58	81
1764.844199305	144	108	116
1764.85089995	128	91	64
1764.868253846	128	58	64
1764.89272705	144	91	62
1764.894266992	144	63	88
1764.89498413	144	39	119
1764.929585703	128	39	64
1764.962005461	128	91	64
1764.96210476	144	91	89
1765.024685202	144	39	126
1765.034219136	128	91	64
1765.034311014	144	91	64
1765.037481248	128	108	64
1765.09690752	128	39	64
1765.13016235	128	91	64
1765.130254933	144	91	104
1765.1902749	144	25	74
1765.220222423	128	91	64
1765.220315972	144	91	69
1765.281687055	128	91	64
1765.28177856	144	91	99
1765.355887087	128	91	64
1765.478596384	144	39	83
1765.532695231	128	39	64
1765.587581779	144	108	113
1765.775266036	128	108	64
1765.962614203	128	22	64
1766.181986767	128	25	64
1766.347155822	144	108	105
1766.361699879	144	39	127
1766.395931103	128	39	64
1766.510045989	128	108	64
1766.645943709	144	39	62
1766.678725709	128	39	64
1766.724795157	144	25	77
1766.729718047	144	91	103
1766.823824351	128	62	64
1766.829921895	128	91	64
1766.877348674	144	91	67
1766.895101713	128	91	64
1766.895192909	144	91	102
1766.967389282	144	22	70
1766.97308246	128	91	64
1766.984653642	144	91	73
1766.986369078	128	91	64
1767.0057359	128	22	64
1767.11346727	144	108	120
1767.154984805	144	62	81
1767.295003067	128	108	64
1767.388327268	144	58	49
1767.394902821	144	39	126
1767.426223591	128	58	64
1767.429606143	128	39	64
1767.578986411	144	39	89
1767.599681474	128	39	64
1767.703043669	144	39	39
1767.797167382	128	39	64
1767.802231098	144	108	113
1767.818957266	128	63	64
1767.865996465	144	22	111
1767.920122252	128	22	64
1767.944747794	144	39	96
1767.965571632	128	108	64
1767.965844537	128	39	64
1768.520982282	144	108	114
1768.578231712	144	39	117
1768.632431571	128	39	64
1768.648739068	144	22	111
1768.687971203	128	22	64
1768.690010033	144	91	39
1768.690255897	128	91	64
1768.717584756	128	108	64
1768.727763551	144	39	100
1768.801876851	144	91	41
1768.830760802	128	91	64
1768.904744566	144	91	40
1768.963252941	128	91	64
1768.96389375	128	39	64
1769.020768013	144	91	36
1769.054061403	144	39	17
1769.079379059	128	91	64
1769.099842658	128	39	64
1769.151275226	144	91	39
1769.201871094	128	91	64
1769.224082639	144	58	36
1769.25732634	144	108	112
1769.281245642	128	58	64
1769.29347199	144	91	40
1769.313795236	144	22	110
1769.348906525	128	91	64
1769.354673333	128	22	64
1769.453764273	128	108	64
1769.702201504	144	91	42
1769.73689021	128	91	64
1769.813186855	144	91	41
1769.861179552	144	58	55
1769.865506641	128	91	64
1769.89511514	144	39	127
1769.929614494	128	39	64
1769.929719691	144	39	127
1769.931305046	144	21	14
1769.936972394	128	58	64
1769.953796001	144	91	41
1769.976848088	128	39	64
1769.976944472	144	39	90
1769.982025425	144	22	109
1769.998916181	128	25	64
1770.009464792	128	91	64
1770.037079132	128	22	64
1770.073581064	144	108	111
1770.081911251	144	91	38
1770.129349614	128	21	64
1770.14497533	128	91	64
1770.178503821	128	39	64
1770.178604315	144	39	87
1770.178734095	128	39	64
1770.178782592	144	39	82
1770.215494263	144	91	41
1770.223393213	128	108	64
1770.267871403	128	91	64
1770.325075358	128	39	64
1770.325174698	144	39	11
1770.340251265	144	91	40
1770.34088291	144	25	79
1770.386407461	128	39	64
1770.399839063	128	91	64
1770.446798083	128	62	64
1770.456394921	144	91	40
1770.52258425	128	91	64
1770.551281532	144	58	62
1770.592997229	128	58	64
1770.601636309	144	91	47
1770.649355363	128	91	64
1770.741597744	144	91	52
1770.782708253	144	22	109
1770.794320862	128	91	64
1770.825459945	144	108	105
1770.83698016	128	22	64
1770.842746792	144	62	60
1770.870059189	144	91	57
1770.926573927	128	91	64
1770.974042233	128	108	64
1770.986577738	144	91	69
1771.025491684	128	91	64
1771.193384893	144	58	57
1771.244080404	128	58	64
1771.312560495	144	39	15
1771.370554919	128	39	64
1771.370656476	144	39	78
1771.400022381	128	39	64
1771.400124003	144	39	103
1771.555077261	128	39	64
1771.592693067	144	108	123
1771.628651592	144	58	65
1771.64360423	128	58	64
1771.650545206	144	22	110
1771.689009717	128	22	64
1771.748191376	128	25	64
1771.748812597	144	91	39
1771.758571144	128	108	64
1771.781308836	128	91	64
1771.883384898	144	91	42
1771.917317619	128	91	64
1771.972765252	144	91	48
1772.030806506	128	91	64
1772.075351993	144	91	57
1772.091533051	144	25	81
1772.151862062	128	91	64
1772.162069358	144	58	56
1772.206535997	144	91	64
1772.210344772	128	58	64
1772.228998906	144	39	22
1772.254345011	128	91	64
1772.263693949	128	39	64
1772.26379602	144	39	80
1772.340941259	128	39	64
1772.341038391	144	39	112
1772.361770247	144	108	114
1772.381747272	144	22	110
1772.436898497	128	22	64
1772.513322216	128	39	64
1772.541716927	128	108	64
1772.58647121	144	21	12
1772.752298117	128	21	64
1772.810846084	144	58	61
1772.853977774	128	58	64
1772.958850401	144	91	53
1773.005133332	128	91	64
1773.062567191	144	39	25
1773.065670505	144	108	105
1773.072676926	144	91	57
1773.104188075	128	39	64
1773.10428517	144	39	83
1773.108646139	128	91	64
1773.165630265	144	22	107
1773.185637783	144	91	61
1773.205619131	128	22	64
1773.217154865	128	39	64
1773.217254546	144	39	116
1773.236438851	128	91	64
1773.277797198	128	108	64
1773.280372829	144	91	68
1773.314587494	128	39	64
1773.325801745	128	91	64
1773.368649065	144	91	79
1773.440804959	128	91	64
1773.553554491	144	58	61
1773.623675157	128	58	64
1773.778728353	144	39	29
1773.851719243	128	39	64
1773.851822145	144	39	87
1773.898473789	144	22	106
1773.954313282	128	22	64
1773.969341656	144	91	30
1773.987804856	144	108	124
1773.988050252	128	39	64
1773.988102896	144	39	121
1773.988809111	128	91	64
1774.080676958	144	91	37
1774.135588946	128	91	64
1774.155603137	128	39	64
1774.173574528	128	108	64
1774.209668173	144	91	55
1774.260324357	128	91	64
1774.27716724	144	88	88
1774.323500846	144	91	74
1774.33122728	128	88	64
1774.33991051	144	58	60
1774.376975586	128	91	64
1774.392140711	128	58	64
1774.416780138	144	91	95
1774.54524008	144	39	121
1774.545525261	128	91	64
1774.660313548	128	39	64
1774.660414808	144	39	97
1774.700670453	128	39	64
1774.700771751	144	39	51
1774.707787013	144	22	105
1774.715293322	128	25	64
1774.744725308	144	108	115
1774.787639863	128	22	64
1774.905562571	128	39	64
1774.925470208	128	108	64
1775.143409896	144	58	64
1775.188535908	128	58	64
1775.284319352	144	91	26
1775.305469912	128	91	64
1775.379905895	144	39	119
1775.39059433	144	91	29
1775.417932632	128	39	64
1775.418033431	144	39	101
1775.442852324	128	91	64
1775.471285041	144	88	70
1775.501203772	128	39	64
1775.50130122	144	39	56
1775.507940955	144	91	36
1775.528571858	144	108	113
1775.549164507	144	22	104
1775.556323001	128	88	64
1775.556707828	128	91	64
1775.589277826	128	22	64
1775.59118032	144	25	84
1775.615113941	144	91	40
1775.669591783	128	91	64
1775.68857878	128	39	64
1775.708834616	128	108	64
1775.809661447	144	88	79
1775.88843636	128	88	64
1775.947784672	144	21	19
1776.113154475	128	21	64
1776.19568178	144	39	121
1776.243724935	128	39	64
1776.243825049	144	39	104
1776.312151313	144	108	119
1776.340405091	128	39	64
1776.340506656	144	39	56
1776.349722501	144	22	106
1776.38801469	128	22	64
1776.432665732	128	25	64
1776.511364347	128	108	64
1776.543219488	144	91	20
1776.553024776	144	58	59
1776.553227125	128	58	64
1776.580769235	128	91	64
1776.622075693	128	39	64
1776.742285422	144	25	85
1776.777621018	144	58	64
1776.792763171	128	58	64
1776.833552864	144	91	31
1776.892196859	128	91	64
1777.002507795	144	91	51
1777.039726631	128	62	64
1777.042380747	128	91	64
1777.042473191	144	91	94
1777.051866819	128	91	64
1777.06218779	144	39	37
1777.132016465	144	22	105
1777.160364015	144	91	85
1777.187045562	128	22	64
1777.192717666	144	108	115
1777.204115126	128	91	64
1777.205327564	128	39	64
1777.205409394	144	39	96
1777.285799147	144	91	76
1777.286129883	128	39	64
1777.286178982	144	39	120
1777.33231043	144	62	49
1777.335616091	128	91	64
1777.374591787	128	108	64
1777.39044749	144	91	75
1777.443748757	128	91	64
1777.45504338	128	39	64
1777.489539455	144	91	49
1777.54078272	128	91	64
1777.540880862	144	91	78
1777.547978743	128	91	64
1777.633842298	144	58	65
1777.68830452	128	58	64
1777.71593791	128	25	64
1777.754862199	144	88	90
1777.841158282	128	88	64
1777.916453988	144	22	103
1777.960390105	144	108	114
1777.987449206	128	22	64
1778.012363003	144	39	21
1778.041176023	144	25	87
1778.064492137	128	39	64
1778.064588002	144	39	86
1778.214293953	128	39	64
1778.214390711	144	39	110
1778.320535179	128	108	64
1778.357798215	128	39	64
1778.419323185	144	91	79
1778.472378586	144	88	43
1778.490144829	128	91	64
1778.512098918	144	58	68
1778.537358931	144	91	28
1778.558540188	128	88	64
1778.56171377	128	58	64
1778.571476157	128	91	64
1778.61715788	144	91	64
1778.641550654	128	91	64
1778.695540967	144	91	25
1778.695826644	128	91	64
1778.695869562	144	91	72
1778.732829075	144	21	24
1778.737839014	128	91	64
1778.749919056	128	62	64
1778.750134328	144	91	31
1778.766422029	144	22	105
1778.81055877	128	91	64
1778.820589188	128	22	64
1778.846991824	144	108	111
1778.882603886	128	25	64
1778.924558773	144	88	38
1778.978018184	144	62	64
1778.979671828	144	39	33
1779.006536257	128	108	64
1779.037519714	128	39	64
1779.037618262	144	39	81
1779.039608757	128	88	64
1779.182614732	128	39	64
1779.182712988	144	39	104
1779.208301385	144	25	89
1779.218118991	144	91	99
1779.279035217	128	91	64
1779.350360701	144	91	99
1779.356996981	144	58	68
1779.371885072	144	88	26
1779.385933294	128	58	64
1779.388458117	128	39	64
1779.391561467	128	91	64
1779.410015293	144	91	79
1779.456378133	128	88	64
1779.474840621	128	91	64
1779.512421445	144	91	114
1779.552453875	144	63	104
1779.564084775	128	91	64
1779.564398893	144	91	86
1779.567975815	128	91	64
1779.573806436	128	21	64
1779.632365263	144	22	107
1779.654002416	144	108	112
1779.738153423	128	22	64
1779.739738233	144	88	75
1779.800582063	128	88	64
1779.841753488	128	108	64
1779.995738017	144	39	41
1780.001477101	128	39	64
1780.001580069	144	39	90
1780.116472673	144	58	61
1780.146071037	144	91	80
1780.164456797	128	39	64
1780.164557698	144	39	95
1780.17366838	128	58	64
1780.174658607	128	39	64
1780.174741868	144	39	114
1780.18721007	128	91	64
1780.232542928	128	25	64
1780.252087145	144	91	82
1780.296873483	128	91	64
1780.335776404	144	91	92
1780.372490269	128	39	64
1780.382251508	128	91	64
1780.408890274	144	108	114
1780.466971263	144	22	105
1780.49204659	144	25	89
1780.555344251	128	22	64
1780.629452736	128	108	64
1780.673377004	144	88	89
1780.735580388	128	88	64
1780.842453071	144	88	91
1780.918458543	128	88	64
1780.931831154	144	58	66
1780.979866304	128	63	64
1780.990938094	128	58	64
1781.116159975	144	91	83
1781.126622518	128	91	64
1781.166020181	144	21	24
1781.191985037	144	91	87
1781.202855502	128	62	64
1781.234490571	144	22	104
1781.239017784	128	91	64
1781.272771425	144	108	114
1781.295977797	144	91	91
1781.341976111	128	91	64
1781.346581926	128	21	64
1781.379301085	128	22	64
1781.398491936	128	25	64
1781.667114799	144	25	90
1781.687208293	144	62	66
1781.767571156	144	58	66
1781.776236606	144	63	114
1781.846722749	128	58	64
1782.078884417	144	39	28
1782.181918811	144	22	104
1782.248033873	128	39	64
1782.248346771	144	39	121
1782.32418611	128	108	64
1782.32439107	144	108	116
1782.327590018	128	22	64
1782.331637149	128	39	64
1782.347997083	128	108	64
1782.425163443	128	63	64
1782.674677019	144	58	66
1782.739738222	128	58	64
1782.813868595	144	91	61
1782.830184083	128	91	64
1782.8820717	128	25	64
1782.888310932	144	91	62
1782.895133282	144	63	127
1782.924662806	128	91	64
1782.974746339	144	91	70
1782.983358895	144	108	114
1783.011703738	128	91	64
1783.07176395	128	62	64
1783.078177264	144	39	123
1783.181408425	128	108	64
1783.221379693	144	62	67
1783.221574269	128	39	64
1783.233481604	144	39	55
1783.334172129	128	39	64
1783.381773072	144	22	50
1783.505968931	128	40	64
1783.509358756	144	25	88
1783.536020068	128	63	64
1783.5515597	144	58	65
1783.638735808	128	58	64
1783.691581837	144	88	96
1783.723070818	128	88	64
1783.794588094	144	108	110
1783.879099009	144	39	125
1783.996293614	128	108	64
1784.023890555	128	39	64
1784.024131463	144	39	91
1784.098432042	128	39	64
1784.122349201	144	39	119
1784.180280589	144	63	127
1784.272621122	128	39	64
1784.290492006	144	91	76
1784.323631101	128	91	64
1784.3623084	128	22	64
1784.381263073	144	91	82
1784.408416516	128	91	64
1784.416284295	128	25	64
1784.416722563	144	58	63
1784.490467342	128	58	64
1784.624777576	144	21	29
1784.656468017	144	25	87
1784.664118683	144	108	106
1784.847705349	128	21	64
1784.86297837	128	108	64
1784.912338933	144	39	121
1784.981055685	128	39	64
1785.027891359	144	39	96
1785.076716664	128	63	64
1785.096030899	128	39	64
1785.11505827	144	22	127
1785.170606658	128	22	64
1785.175615435	144	39	115
1785.264211348	128	39	64
1785.279871913	128	62	64
1785.294769297	144	58	64
1785.379405814	128	58	64
1785.414833116	144	62	71
1785.46442013	144	108	110
1785.660264534	128	108	64
1785.759826071	144	63	73
1785.879008349	144	39	94
1785.929731417	128	39	64
1785.947254222	144	22	123
1785.959826277	144	39	114
1786.004385554	128	22	64
1786.066239009	128	39	64
1786.189865367	144	58	73
1786.245507055	128	58	64
1786.296142018	144	108	118
1786.475870688	128	108	64
1786.579122327	144	39	90
1786.629950587	128	63	64
1786.63952684	128	39	64
1786.639627255	144	39	111
1786.731337784	144	22	119
1786.735382976	144	91	82
1786.772383593	128	22	64
1786.772622614	128	91	64
1786.784793144	128	39	64
1786.831727148	144	91	78
1786.873788158	128	91	64
1786.909224821	144	63	110
1786.929803481	144	91	85
1786.983789326	128	91	64
1787.082579912	144	58	78
1787.096936347	144	108	111
1787.146399538	128	58	64
1787.268728747	128	108	64
1787.499363875	144	22	124
1787.538818076	128	22	64
1787.639138399	128	62	64
1787.729004122	144	39	95
1787.804233647	144	62	65
1787.80598262	128	39	64
1787.809540065	144	39	90
1787.900012279	128	39	64
1787.901938498	144	21	28
1787.927758376	144	108	108
1787.990007689	128	21	64
1788.019886045	144	58	70
1788.061139071	128	58	64
1788.077101618	128	108	64
1788.310965128	144	22	126
1788.349591902	144	91	84
1788.352356799	128	22	64
1788.380559532	128	91	64
1788.457849914	144	91	86
1788.511163444	128	91	64
1788.547393101	144	91	88
1788.614283055	128	91	64
1788.715084065	144	91	93
1788.727100726	144	108	100
1788.760741981	128	91	64
1788.82699121	144	58	69
1788.876902914	128	58	64
1788.90775274	128	108	64
1788.916169145	128	63	64
1789.137620739	144	39	92
1789.167720528	144	22	119
1789.18566564	128	22	64
1789.211886409	128	39	64
1789.211983681	144	39	115
1789.238612056	144	63	119
1789.265811497	128	25	64
1789.296571249	128	39	64
1789.639044286	144	108	99
1789.672287437	144	58	64
1789.689329492	128	58	64
1789.803290244	128	108	64
1790.065764483	144	22	116
1790.105453842	128	22	64
1790.334863818	128	25	64
1790.477702287	144	108	99
1790.532917714	144	58	62
1790.586040913	128	62	64
1790.625813582	128	58	64
1790.662439762	128	108	64
1790.679206897	144	39	85
1790.737912798	128	39	64
1790.738018466	144	39	121
1790.796964961	144	62	61
1790.813228526	128	39	64
1790.886266553	128	63	64
1790.932622617	144	22	115
1790.951912896	128	22	64
1791.03739797	144	91	91
1791.090049283	128	91	64
1791.311925584	144	108	108
1791.4514205	128	108	64
1791.552224171	144	63	121
1791.749474287	144	22	112
1791.769731355	128	22	64
1791.797451182	144	58	64
1791.809223277	128	58	64
1791.845914401	144	39	88
1791.904924567	128	39	64
1791.905022347	144	39	114
1791.982052986	128	39	64
1792.006751568	144	108	108
1792.202353121	128	108	64
1792.548640223	144	22	115
1792.571978533	128	62	64
1792.58934513	128	22	64
1792.85374598	144	108	114
1792.856108456	144	62	63
1792.96212403	144	91	75
1793.015087321	144	58	65
1793.032155666	128	91	64
1793.050460314	128	108	64
1793.064008751	128	58	64
1793.179070319	144	39	85
1793.250208245	128	39	64
1793.28394604	144	22	113
1793.322992014	128	22	64
1793.328221246	144	39	117
1793.43100041	128	39	64
1793.65005326	128	63	64
1793.744193962	144	108	107
1793.946328035	128	108	64
1794.04228413	144	58	67
1794.108836998	128	58	64
1794.184185373	144	22	111
1794.201821209	128	22	64
1794.517480666	144	108	109
1794.549924756	144	91	88
1794.610746897	128	91	64
1794.728496549	144	39	126
1794.762133231	128	108	64
1794.814927652	128	39	64
1794.966373068	144	22	111
1794.985434102	128	22	64
1795.112840977	144	58	66
1795.128635189	144	39	90
1795.141225912	128	58	64
1795.197308666	128	39	64
1795.414583499	144	108	91
1795.444726451	128	62	64
1795.602181212	144	62	73
1795.611096531	128	108	64
1795.918120591	144	22	111
1795.935738213	128	22	64
1796.06941986	128	62	64
1796.149687946	144	108	102
1796.303014487	144	91	62
1796.307790884	144	62	73
1796.345773805	128	108	64
1796.359173704	144	58	65
1796.367843727	128	91	64
1796.428347144	128	58	64
1796.495679142	144	39	81
1796.566810831	128	39	64
1796.591324316	144	39	123
1796.598799601	144	22	110
1796.638990119	128	22	64
1796.682126864	128	39	64
1796.869248811	144	108	121
1797.049514354	128	108	64
1797.33181483	144	58	64
1797.350063173	144	22	93
1797.389032818	128	22	64
1797.412396204	128	58	64
1797.605447404	144	108	117
1797.770283929	128	108	64
1798.085251585	144	22	80
1798.122300958	128	22	64
1798.453448777	144	108	110
1798.590956554	144	58	65
1798.602534812	128	108	64
1798.640592677	128	58	64
1798.833403	144	22	74
1798.862899323	144	39	127
1798.872642081	128	22	64
1798.899034864	128	39	64
1799.061295994	144	39	127
1799.15241971	128	39	64
1799.172199077	144	108	123
1799.40169317	128	108	64
1799.552173607	144	91	94
1799.755770578	144	58	66
1799.7892593	128	91	64
1799.810036112	128	58	64
1799.825060793	144	22	71
1799.905132543	128	22	64
1799.955962346	144	108	112
1800.191433893	128	108	64
1800.429330414	144	39	86
1800.515280145	128	39	64
1800.815277404	144	58	63
1800.83921891	144	108	108
1800.879310782	128	58	64
1800.882553926	144	22	62
1800.954462196	128	22	64
1801.023313483	128	108	64
1801.562440007	144	39	117
1801.648671717	128	39	64
1801.667852542	144	108	104
1801.848030588	128	108	64
1802.027218047	144	58	62
1802.058515195	144	22	63
1802.074796085	128	58	64
1802.138579431	128	22	64
1802.160265506	144	91	22
1802.463021968	144	108	114
1802.647928106	128	108	64
1802.679313696	144	39	106
1802.764724112	128	39	64
1802.78726726	144	88	90
1802.857294552	128	88	64
1802.928679262	144	39	114
1802.997505121	128	39	64
1803.235002088	144	108	112
1803.379551004	144	58	65
1803.416941406	144	22	59
1803.431223268	128	58	64
1803.448100087	128	108	64
1803.473453762	128	22	64
1803.517099155	128	91	64
1803.852023609	144	91	24
1803.907599836	128	91	64
1803.977591691	144	91	24
1804.028102703	128	91	64
1804.080414179	144	91	26
1804.117672497	144	108	100
1804.133450443	128	91	64
1804.150842609	144	39	85
1804.184124513	144	91	28
1804.215547776	128	39	64
1804.245469131	144	39	116
1804.261574037	128	91	64
1804.276089671	144	91	28
1804.312744668	128	108	64
1804.348521557	128	39	64
1804.872877548	144	58	59
1804.883146877	144	108	106
1804.891434241	144	63	115
1804.916160332	128	58	64
1804.959311669	144	22	46
1805.038115134	128	63	64
1805.102982827	128	22	64
1805.127887976	128	108	64
1805.524982436	128	62	64
1805.624988254	128	91	64
1805.749038443	144	62	77
1805.810838145	144	108	109
1805.862020887	144	39	120
1805.946629837	128	39	64
1805.988171093	144	39	122
1806.073514002	128	108	64
1806.082037967	128	39	64
1806.386728522	144	22	44
1806.4720657	128	22	64
1806.621448094	144	63	116
1806.644124282	144	58	60
1806.717200903	144	108	102
1806.743649315	144	97	76
1806.777093367	128	63	64
1806.951285551	128	108	64
1807.166768924	128	58	64
1807.446171643	144	39	85
1807.495191593	144	91	32
1807.50011208	128	39	64
1807.60337009	144	108	101
1807.683887028	128	97	64
1807.832501032	128	108	64
1808.189832793	128	91	64
1808.314819117	144	58	67
1808.330707944	144	63	115
1808.418129888	144	108	105
1808.428271752	144	91	33
1808.458810601	128	63	64
1808.489450493	128	91	64
1808.542612646	128	58	64
1808.598387067	128	108	64
1808.921630735	144	91	31
1808.977290657	128	91	64
1808.985994678	144	22	30
1808.996229477	144	39	80
1809.023083948	128	22	64
1809.082214234	128	39	64
1809.158904213	144	39	122
1809.246541952	128	62	64
1809.287803559	144	91	34
1809.306316979	144	108	109
1809.315742149	128	39	64
1809.495574098	128	108	64
1809.664148901	144	88	99
1809.753970148	128	88	64
1809.889339171	128	91	64
1809.973484753	144	58	67
1810.058667388	128	58	64
1810.0688777	144	63	106
1810.122313958	144	62	65
1810.129140695	144	108	111
1810.183390623	144	91	33
1810.190692183	128	63	64
1810.246580859	128	91	64
1810.326314574	128	108	64
1810.505431768	144	88	89
1810.558410414	144	91	33
1810.590842461	128	91	64
1810.591081027	128	88	64
1810.663618765	144	39	80
1810.71651274	128	39	64
1810.915601924	144	91	40
1810.955845168	128	91	64
1810.992774668	144	97	93
1810.998500216	144	108	109
1811.183182667	128	108	64
1811.439254244	144	88	83
1811.504886573	128	88	64
1811.611599154	144	88	89
1811.686099216	128	88	64
1811.81082156	144	63	97
1811.843221938	144	58	66
1811.864071308	128	58	64
1811.869932634	144	91	48
1811.895484746	128	91	64
1811.920643605	144	108	115
1811.947265256	128	63	64
1812.111661616	144	39	95
1812.117780803	128	108	64
1812.181387351	128	39	64
1812.203975081	144	91	52
1812.249016392	128	91	64
1812.329004253	144	88	81
1812.423316859	128	88	64
1812.652224237	144	88	97
1812.684472534	128	88	64
1812.695936466	144	91	47
1812.701394679	128	62	64
1812.703993512	144	108	110
1812.743820222	128	91	64
1812.884594417	128	108	64
1813.022051187	144	88	77
1813.032554119	144	22	106
1813.105674902	128	88	64
1813.176899859	128	22	64
1813.504495609	144	108	111
1813.536459884	144	62	69
1813.544040501	144	63	93
1813.562000373	144	58	66
1813.604456015	128	58	64
1813.618250901	144	91	48
1813.652023632	128	91	64
1813.673889054	128	63	64
1813.700826864	128	108	64
1813.892975811	144	88	107
1813.896157119	144	39	102
1813.954569506	128	88	64
1814.04104385	128	39	64
1814.095635234	144	88	74
1814.134084073	128	97	64
1814.170172338	128	88	64
1814.369342791	144	108	125
1814.567618435	128	108	64
1815.062422557	144	58	66
1815.107178295	128	58	64
1815.135954867	144	108	109
1815.379888025	128	108	64
1815.629670687	144	39	80
1815.732254403	128	39	64
1815.999892075	144	108	119
1816.14180653	144	91	44
1816.182615368	128	91	64
1816.228530482	128	108	64
1816.492643251	144	88	94
1816.522896534	128	88	64
1816.746321148	144	58	68
1816.816130012	144	108	113
1816.873016121	144	97	110
1816.892386298	144	63	92
1817.017223336	128	97	64
1817.047630389	128	63	64
1817.062739919	128	108	64
1817.079999997	144	39	87
1817.148585404	128	39	64
1817.157526587	144	63	92
1817.290840261	144	88	106
1817.298759872	128	63	64
1817.35501203	128	88	64
1817.442912743	144	97	111
1817.46387925	144	88	89
1817.518350184	128	97	64
1817.557714309	128	88	64
1817.647347927	144	108	100
1817.684410498	144	63	92
1817.860881305	128	108	64
1818.008848831	144	97	111
1818.075570363	128	97	64
1818.168161295	128	22	64
1818.222449878	128	63	64
1818.488603414	144	63	93
1818.538042114	144	108	108
1818.603115515	128	62	64
1818.657769493	128	63	64
1818.659874694	144	97	112
1818.724857402	128	108	64
1818.725655191	128	97	64
1818.777432191	144	63	92
1818.855596798	144	39	94
1818.996731242	128	63	64
1819.000477817	128	39	64
1819.229385079	144	97	107
1819.292998438	128	97	64
1819.3030256	144	63	93
1819.369875486	144	108	102
1819.445876785	144	62	78
1819.571370309	128	108	64
1819.837620251	144	97	107
1819.883027024	128	63	64
1819.898069256	128	97	64
1820.208343726	144	108	98
1820.21158884	144	63	94
1820.38231272	128	63	64
1820.403736498	128	108	64
1820.430217624	144	39	87
1820.441939669	144	97	110
1820.489639454	144	63	92
1820.509437342	128	97	64
1820.515488739	128	39	64
1820.676355198	128	63	64
1820.760546481	128	58	64
1821.011861968	144	63	92
1821.034959687	144	91	47
1821.041276516	144	97	109
1821.049769107	128	91	64
1821.110212491	128	97	64
1821.110474323	144	88	62
1821.133427808	128	88	64
1821.142926015	144	91	49
1821.16749702	128	91	64
1821.279440846	144	91	50
1821.315555556	128	91	64
1821.368630487	144	91	49
1821.436027771	128	91	64
1821.513668141	144	91	53
1821.54128938	128	63	64
1821.56572692	128	91	64
1821.608194365	144	97	107
1821.628408677	144	91	55
1821.662531799	128	97	64
1821.680233536	128	91	64
1821.758880402	144	91	60
1821.807732693	128	91	64
1821.86217787	144	63	93
1821.875233456	144	91	61
1821.934794758	128	91	64
1821.980286952	144	39	86
1821.990475504	144	91	64
1822.00798625	144	58	64
1822.008226374	128	63	64
1822.045128174	128	91	64
1822.04765281	128	58	64
1822.065086641	128	39	64
1822.104055557	144	91	67
1822.126389095	144	63	93
1822.144783639	128	91	64
1822.157851545	144	97	107
1822.194834681	144	88	55
1822.219564715	144	91	71
1822.219718228	144	108	109
1822.225627582	128	97	64
1822.260658103	128	91	64
1822.325745723	128	108	64
1822.327935361	128	88	64
1822.339857657	144	91	75
1822.370280287	128	63	64
1822.376547458	128	91	64
1822.425517325	144	108	97
1822.464192361	144	91	78
1822.51218009	128	91	64
1822.603730837	128	108	64
1822.690624324	144	63	91
1822.756123074	128	62	64
1822.79111193	144	97	107
1822.840431462	128	97	64
1822.917994244	144	62	74
1822.935916734	144	58	64
1822.976050745	128	58	64
1823.068356956	144	106	62
1823.071055025	144	91	56
1823.088112717	128	91	64
1823.123093504	128	106	64
1823.171624863	144	91	55
1823.207728774	128	91	64
1823.27416105	128	63	64
1823.298478275	144	91	58
1823.326103425	128	91	64
1823.359206089	144	97	107
1823.426614787	128	97	64
1823.434309739	144	91	57
1823.442560658	128	91	64
1823.527752496	144	91	53
1823.57113047	128	91	64
1823.600813499	144	63	90
1823.601035367	144	39	84
1823.641178709	144	108	105
1823.642015979	144	91	50
1823.664725834	128	39	64
1823.701882836	128	91	64
1823.779693512	128	108	64
1823.833886607	144	58	72
1823.840191201	128	63	64
1823.880085928	128	58	64
1823.897004037	144	108	116
1823.909598044	144	63	90
1824.034495593	144	106	84
1824.057343224	128	106	64
1824.066375622	128	108	64
1824.130222341	128	63	64
1825.062963157	144	39	75
1825.135235677	128	39	64
1825.282130245	144	58	81
1825.309507419	144	108	112
1825.324153215	128	58	64
1825.460790267	128	108	64
1825.531363667	144	91	42
1825.575941509	128	91	64
1825.632211865	144	108	96
1825.734538433	144	106	78
1825.753779822	128	106	64
1825.810273354	128	108	64
1826.045651231	128	62	64
1826.190750598	144	62	83
1826.208223109	144	91	43
1826.241461953	128	91	64
1826.555676599	144	91	47
1826.644799904	128	91	64
1826.679848888	144	39	81
1826.76635083	128	39	64
1826.918520741	144	58	97
1826.92639064	144	108	101
1826.962724104	128	58	64
1827.059189587	128	108	64
1827.127922261	144	97	64
1827.176999616	128	97	64
1827.303502156	144	108	93
1827.41862178	144	91	49
1827.478640318	128	91	64
1827.507247522	128	108	64
1827.644151262	144	97	64
1827.718277008	144	106	83
1827.729669928	128	97	64
1827.737502366	128	106	64
1827.941807991	144	91	50
1828.011520603	128	91	64
1828.144030653	144	97	65
1828.209696271	128	97	64
1828.230557996	144	39	81
1828.316207842	128	39	64
1828.350300167	144	91	49
1828.455349463	128	91	64
1828.643317813	144	97	67
1828.708799184	128	97	64
1828.732511897	144	108	90
1828.798379174	144	91	50
1828.850150315	128	91	64
1828.863875431	144	58	83
1828.898440122	128	108	64
1828.948105715	128	58	64
1829.011265726	144	91	51
1829.041197862	128	91	64
1829.142370206	144	91	52
1829.175102213	144	108	93
1829.193155152	144	97	66
1829.203614044	128	91	64
1829.287833731	128	97	64
1829.297115417	144	91	50
1829.304335489	128	62	64
1829.350246047	128	108	64
1829.355561964	128	91	64
1829.43575208	144	91	50
1829.480521582	144	62	78
1829.489253798	128	91	64
1829.58319291	144	91	47
1829.635299118	128	91	64
1829.751697815	144	106	78
1829.780370846	144	39	82
1829.806012261	128	106	64
1829.882795521	128	39	64
1830.589659869	144	108	78
1830.737235236	128	108	64
1830.903316083	128	91	64
1831.127552304	144	108	84
1831.24988945	128	108	64
1831.33067983	144	39	84
1831.416723168	128	39	64
1831.511050046	144	108	90
1831.74319022	128	108	64
1831.785704926	144	106	52
1831.872736344	128	106	64
1831.930510825	144	108	92
1832.023076558	128	108	64
1832.123664209	144	63	50
1832.230066983	144	108	90
1832.391354177	128	108	64
1832.616142323	144	108	100
1832.737115441	128	108	64
1832.833279619	128	62	64
1832.834833099	144	106	52
1832.895401406	144	39	83
1832.908248492	128	106	64
1832.959734351	144	58	49
1832.966038856	144	108	94
1833.011449996	144	62	80
1833.040798228	128	39	64
1833.089155274	144	21	26
1833.104084212	128	108	64
1833.161335336	128	21	64
1833.301873316	144	108	95
1833.441478745	128	108	64
1833.549951667	144	106	54
1833.606870634	128	106	64
1833.655313989	144	108	91
1833.755730413	128	108	64
1833.814795209	144	21	30
1833.909898096	144	108	87
1833.911224011	128	21	64
1834.002027419	144	106	62
1834.013527445	128	108	64
1834.020669689	128	106	64
1834.118055416	144	108	92
1834.17928696	128	108	64
1834.276534274	144	97	54
1834.278340965	144	108	90
1834.332899254	128	63	64
1834.333518409	128	108	64
1834.343030213	128	97	64
1834.384457374	144	106	66
1834.424901206	128	106	64
1834.439555765	144	108	91
1834.486109855	128	108	64
1834.508601068	144	97	55
1834.536646397	144	21	37
1834.54223899	128	97	64
1834.582192345	144	108	91
1834.626484447	128	108	64
1834.639987557	144	97	54
1834.680783029	128	21	64
1834.683706204	144	63	78
1834.710721097	128	97	64
1834.72746718	144	108	89
1834.729514633	144	39	85
1834.734505748	144	106	65
1834.77456996	128	108	64
1834.789191943	128	106	64
1834.832991886	128	39	64
1834.84955032	144	108	90
1834.860780734	144	97	57
1834.901459749	128	108	64
1834.925875827	128	97	64
1834.983078605	144	108	89
1835.028994458	128	108	64
1835.035627378	144	106	70
1835.070452463	144	97	57
1835.075491213	128	106	64
1835.112036223	128	97	64
1835.12609666	144	108	88
1835.169470727	128	108	64
1835.259789395	144	97	59
1835.270200014	144	108	81
1835.285291485	144	106	75
1835.312488519	128	97	64
1835.317097452	128	108	64
1835.324366096	128	106	64
1835.39929485	144	108	84
1835.4433495	128	108	64
1835.45992246	144	97	57
1835.487106796	144	21	40
1835.500815828	144	106	74
1835.512319174	128	97	64
1835.540838218	128	106	64
1835.541795494	144	108	85
1835.5929087	128	108	64
1835.65152289	128	21	64
1835.660616115	144	97	59
1835.669468712	144	108	85
1835.712579953	128	97	64
1835.713851535	128	108	64
1835.717717183	144	106	78
1835.797801462	144	108	83
1835.806499594	128	106	64
1835.842267103	128	108	64
1835.87783842	144	106	60
1835.892256805	144	97	60
1835.892741338	128	62	64
1835.942126023	144	108	84
1835.945527139	128	97	64
1835.963836546	128	63	64
1835.993836709	128	108	64
1836.021915289	128	106	64
1836.030420302	144	62	79
1836.04518866	144	106	89
1836.070027801	144	108	77
1836.112226465	128	108	64
1836.126227778	144	97	61
1836.130359415	128	106	64
1836.133134744	144	106	49
1836.171892692	128	62	64
1836.179116974	128	97	64
1836.195760589	128	106	64
1836.199247423	144	106	89
1836.214787409	144	108	86
1836.270171844	128	108	64
1836.272435841	128	106	64
1836.2978397	144	106	52
1836.311998205	144	62	79
1836.338079795	144	21	41
1836.341745568	128	106	64
1836.363533707	144	63	56
1836.365677238	144	106	95
1836.374629527	144	108	86
1836.407289508	128	106	64
1836.427873767	144	106	54
1836.430848149	128	108	64
1836.471239619	128	106	64
1836.499472313	144	106	99
1836.519585745	128	21	64
1836.541112337	128	106	64
1836.565523438	144	108	93
1836.574930215	128	58	64
1836.575116491	144	58	88
1836.578783811	144	106	55
1836.605151825	128	106	64
1836.626828261	128	108	64
1836.647240084	144	106	99
1836.696245321	128	106	64
1836.700272035	144	106	55
1836.713640441	144	39	109
1836.738674448	128	106	64
1836.740643239	144	108	91
1836.778527594	144	106	97
1836.796833855	128	108	64
1836.799870247	128	39	64
1836.840480367	128	106	64
1836.861703551	144	106	53
1836.901387845	144	108	99
1836.90338971	128	106	64
1836.931086943	144	106	95
1836.943843408	128	108	64
1836.972970606	128	58	64
1836.973060005	144	58	91
1837.009592987	128	106	64
1837.014016002	144	106	53
1837.056931155	128	106	64
1837.061440446	144	108	103
1837.081931342	144	106	98
1837.108863768	128	108	64
1837.140743351	128	106	64
1837.159410178	144	106	53
1837.159638879	144	21	40
1837.206566991	144	108	106
1837.206738205	128	106	64
1837.245175741	144	106	98
1837.290553166	128	106	64
1837.298854798	128	108	64
1837.327082883	144	106	54
1837.335733053	128	21	64
1837.357722532	128	106	64
1837.383824621	144	108	105
1837.394674856	144	106	99
1837.440890932	128	106	64
1837.463040751	144	106	56
1837.47653282	128	108	64
1837.490811219	128	106	64
1837.522174655	128	58	64
1837.522272436	144	58	97
1837.545104255	144	106	102
1837.569677614	144	108	114
1837.5986255	128	106	64
1837.602195138	144	106	58
1837.658687237	128	106	64
1837.666286879	128	108	64
1837.695056622	144	106	101
1837.76242327	128	106	64
1837.768534525	144	108	120
1837.768889747	144	106	56
1837.826386908	128	106	64
1837.828327561	144	106	91
1837.863797176	128	108	64
1837.890579534	128	106	64
1837.912312549	144	106	51
1837.957071435	128	106	64
1837.971025811	144	21	40
1837.977508513	144	106	89
1838.037086322	144	108	119
1838.040607726	128	106	64
1838.061646896	144	106	55
1838.104070602	128	58	64
1838.10416082	144	58	97
1838.104475861	128	106	64
1838.12453011	128	63	64
1838.130513109	144	106	97
1838.168974953	128	21	64
1838.190251529	128	106	64
1838.192638234	128	108	64
1838.23058574	144	106	62
1838.253836598	128	106	64
1838.295600382	144	63	80
1838.29578532	144	106	100
1838.340359442	128	106	64
1838.378581244	144	106	64
1838.40906706	128	106	64
1838.437147266	144	108	113
1838.44686813	144	106	105
1838.503789583	128	106	64
1838.5322792	144	106	68
1838.573601065	128	106	64
1838.591826957	128	108	64
1838.609973375	144	106	107
1838.672012181	128	106	64
1838.697631571	144	106	67
1838.757134886	128	106	64
1838.779571501	144	106	104
1838.813253632	144	39	86
1838.840419156	128	106	64
1838.859551118	144	106	69
1838.922417508	144	21	42
1838.923381997	128	106	64
1838.945162993	144	106	106
1838.957567556	128	39	64
1838.970377201	144	108	113
1838.976889705	128	58	64
1838.976979927	144	58	69
1839.00713755	128	106	64
1839.045193244	144	106	70
1839.090764718	128	106	64
1839.103222178	128	21	64
1839.111530804	144	106	106
1839.167899512	128	108	64
1839.173883591	128	106	64
1839.212534349	144	106	68
1839.259577349	128	106	64
1839.262053589	144	106	105
1839.323385003	128	106	64
1839.361564541	144	106	69
1839.406955108	128	106	64
1839.427867454	144	106	106
1839.461241404	144	108	118
1839.485073346	128	58	64
1839.48516417	144	58	69
1839.490308721	128	106	64
1839.511473935	144	106	70
1839.573705711	128	106	64
1839.594890635	144	106	108
1839.637563306	144	21	49
1839.661756203	128	106	64
1839.662821228	128	108	64
1839.663912331	144	106	65
1839.723823276	128	106	64
1839.743665102	144	106	104
1839.787577363	128	106	64
1839.816203212	144	106	62
1839.853104454	128	21	64
1839.874185182	128	106	64
1839.979033292	128	63	64
1839.994480889	144	108	102
1840.109144939	144	63	64
1840.177283805	144	106	63
1840.257024276	128	106	64
1840.34188747	128	108	64
1840.416924744	144	106	102
1840.506724252	128	106	64
1840.560225752	144	97	63
1840.722195333	144	39	85
1840.740881372	144	21	47
1840.745278731	144	106	99
1840.897901359	128	106	64
1840.907176628	128	39	64
1840.936546742	128	21	64
1841.134753507	144	106	101
1841.223744799	128	106	64
1841.455112754	144	35	50
1841.464526019	128	35	64
1841.590024508	144	35	50
1841.610102396	128	58	64
1841.610151368	144	58	70
1841.621049315	144	21	48
1841.647732656	128	35	64
1841.695910461	144	35	51
1841.734747368	144	106	96
1841.742774511	128	106	64
1841.758685279	128	35	64
1841.771287617	128	58	64
1841.771381312	144	58	69
1841.820110574	128	21	64
1841.850290923	144	35	50
1841.875081909	128	58	64
1841.875177343	144	58	69
1841.923408046	128	35	64
1841.967248948	128	58	64
1841.967343541	144	58	69
1841.967527526	144	35	49
1842.067830621	128	35	64
1842.157553634	128	63	64
1842.221121754	144	35	51
1842.305957409	144	63	81
1842.61248589	128	35	64
1842.629542707	144	39	85
1842.668648205	144	106	38
1842.699462699	144	35	54
1842.703528593	144	108	98
1842.770028834	128	35	64
1842.77362648	128	39	64
1842.814429478	128	106	64
1842.865808714	144	35	55
1842.954666026	144	21	48
1843.136773416	128	21	64
1843.164321819	128	62	64
1843.183352565	128	108	64
1843.218011568	128	35	64
1843.349943585	144	62	89
1843.476176755	144	106	18
1843.872415459	144	21	48
1844.013848274	128	106	64
1844.144335715	128	63	64
1844.155190944	128	21	64
1844.355728892	128	62	64
1844.450962659	144	35	41
1844.487554574	128	35	64
1844.517862038	144	106	21
1844.51906735	144	62	82
1844.57495241	144	35	37
1844.635700843	128	35	64
1844.663226991	144	35	39
1844.82561429	144	108	93
1844.945891432	144	39	84
1845.156477095	128	39	64
1845.171067425	128	35	64
1845.240059377	128	106	64
1845.398349702	128	108	64
1845.408522325	144	21	44
1845.50408824	144	106	33
1845.515803917	128	21	64
1845.914109904	128	106	64
1845.937271067	144	35	49
1845.979090554	128	35	64
1846.061729517	144	35	48
1846.126941036	128	35	64
1846.184749302	144	106	41
1846.193037989	144	35	47
1846.28744442	128	35	64
1846.329267258	144	35	45
1846.60394345	144	21	47
1846.667238327	128	106	64
1846.696081462	128	21	64
1847.169213859	144	106	41
1847.204912813	144	108	104
1847.238267998	144	39	85
1847.328149282	128	58	64
1847.328246808	144	58	70
1847.38085259	128	35	64
1847.391605053	128	58	64
1847.391700896	144	58	69
1847.498881961	128	58	64
1847.498984316	144	58	70
1847.667190047	128	58	64
1847.667282318	144	58	69
1847.716382031	128	108	64
1847.80496326	144	21	51
1847.900683611	128	97	64
1847.97014924	128	21	64
1847.998694438	128	58	64
1847.998788043	144	58	69
1848.030371218	128	58	64
1848.030466067	144	58	81
1848.179639807	128	58	64
1848.179879924	144	58	68
1848.399108183	144	35	48
1848.434790063	128	35	64
1848.587435872	128	58	64
1848.587533341	144	58	70
1848.827492334	144	35	48
1848.876450541	144	97	126
1848.898714002	128	35	64
1848.929325739	128	97	64
1849.105019102	144	21	47
1849.160109205	128	58	64
1849.160201764	144	58	70
1849.170449342	144	35	46
1849.219398967	144	108	107
1849.247397632	128	21	64
1849.315721957	128	58	64
1849.315813146	144	58	70
1849.406371645	144	63	61
1849.413849462	128	58	64
1849.41394142	144	58	72
1849.456535197	128	106	64
1849.471560993	128	39	64
1849.650607118	128	35	64
1849.660316712	128	62	64
1849.74764473	128	58	64
1849.747737175	144	58	70
1849.766615322	144	39	120
1849.818271475	144	106	51
1849.834673549	128	58	64
1849.834776099	144	58	74
1849.835121796	144	62	49
1849.849379368	128	39	64
1849.908209695	128	106	64
1850.03344442	128	58	64
1850.03353956	144	58	72
1850.135794828	128	108	64
1850.474752002	144	21	44
1850.571520959	128	58	64
1850.571617467	144	58	72
1850.620213669	128	21	64
1851.014508664	144	35	55
1851.055795833	128	35	64
1851.412254184	144	35	53
1851.458439871	128	35	64
1851.621277406	144	21	44
1851.736903072	144	108	94
1851.842803033	144	35	53
1851.962127923	144	97	115
1851.997120906	128	97	64
1852.413806071	144	39	55
1852.457593959	128	35	64
1852.469024915	144	106	111
1852.474911861	128	106	64
1853.178186222	128	58	64
1853.178278384	144	58	80
1853.808282498	128	58	64
1853.808380974	144	58	84
1853.890996684	128	58	64
1853.891092872	144	58	72
1853.963481228	128	58	64
1853.963571225	144	58	72
1854.051867464	144	35	41
1854.12570447	128	35	64
1854.561931519	144	35	40
1854.575598166	144	97	119
1854.615306857	128	97	64
1854.867291371	128	63	64
1855.061356481	128	35	64
1855.156482124	128	39	64
1855.311167986	144	106	112
1855.374446789	128	106	64
1855.947328037	144	63	37
1855.971942489	128	58	64
1855.972033526	144	58	72
1856.178225668	144	39	54
1856.230963479	128	58	64
1856.498009665	144	35	46
1856.550449987	128	35	64
1856.966576921	144	58	77
1857.001037359	144	35	43
1857.501705975	144	106	64
1857.523000505	128	21	64
1858.988058229	128	35	64
1859.39711722	144	35	42
1859.441986099	128	35	64
1859.517503799	144	35	38
1859.571261398	128	35	64
1859.635289271	144	35	40
1859.700044173	128	35	64
1859.762563667	144	35	46
1859.837576531	128	35	64
1859.867273298	144	35	47
1860.222620606	128	35	64
1860.447434092	128	62	64
1860.524082172	144	21	43
1860.728327781	144	62	52
1860.817511036	128	108	64
1861.12752516	144	35	69
1861.314694628	128	106	64
1862.074238058	128	39	64
1862.322198262	144	108	40
1862.418511123	144	106	16
1862.476889866	128	108	64
1862.727026199	128	35	64
1862.802136309	128	62	64
1863.002682667	144	62	73
1863.013541045	144	39	127
1863.026801349	144	97	64
1863.400465712	144	108	52
1863.501928017	128	108	64
1864.391608169	144	108	61
1864.43571882	128	58	64
1864.435809142	144	58	40
1864.526669522	128	108	64
1865.192164297	128	63	64
1865.474267533	144	108	64
1865.614379386	128	108	64
1865.615295086	144	63	26
1866.5467481	128	58	64
1866.547308053	144	58	52
1866.615628765	144	108	60
1866.780766891	128	108	64
1867.099067296	128	58	64
1867.576744074	144	58	44
1867.771902261	128	58	64
1867.858771708	144	108	62
1868.02952481	128	108	64
1868.451463138	144	58	53
1868.560467871	128	58	64
1869.013352861	144	108	61
1869.148178636	128	106	64
1869.217120038	128	108	64
1869.428298458	144	58	106
1869.511882562	128	58	64
1869.718707422	144	106	1
1869.863105249	128	106	64
1869.880199143	144	106	3
1870.039637301	144	108	51
1870.114843659	128	106	64
1870.16158749	144	106	5
1870.224797001	128	106	64
1870.226884843	144	35	30
1870.285372384	128	108	64
1870.298097865	144	106	7
1870.376549527	128	106	64
1870.427971521	144	106	7
1870.66486882	128	106	64
1870.712917817	144	106	8
1870.775523478	128	106	64
1870.860890537	144	106	8
1870.925041783	128	106	64
1870.994611198	144	106	8
1871.090357735	128	106	64
1871.147024663	144	106	10
1871.189532442	144	108	56
1871.224624818	128	106	64
1871.277199308	144	106	12
1871.356871576	128	108	64
1871.373532606	128	106	64
1871.415211599	144	106	12
1871.491945341	128	106	64
1871.561800087	144	106	14
1871.640198117	128	106	64
1871.713234	144	106	16
1871.789904412	128	106	64
1871.93395025	144	106	17
1871.94028276	128	106	64
1872.014171669	144	106	21
1872.091541902	128	106	64
1872.163308336	144	106	23
1872.240696632	128	106	64
1872.295783493	144	106	24
1872.312187969	144	108	59
1872.374996926	128	106	64
1872.445533383	144	106	26
1872.464358504	128	108	64
1872.539981739	128	106	64
1873.184156786	144	106	17
1873.258133876	128	106	64
1873.320476611	144	108	54
1873.468695096	128	108	64
1874.069914576	144	106	24
1874.213661097	128	106	64
1874.439655799	144	108	53
1874.573725216	128	108	64
1874.854861854	144	106	26
1875.048961905	128	106	64
1875.182855138	144	58	50
1875.213703766	128	58	64
1875.46483824	144	108	47
1875.612967248	128	108	64
1875.935103582	144	106	17
1876.133102076	128	106	64
1876.504221186	144	108	47
1876.685283389	128	108	64
1877.051966748	144	106	21
1877.083066159	128	58	64
1877.15711431	128	106	64
1877.489962719	144	108	43
1877.525270552	128	39	64
1877.64488939	128	108	64
1878.0468461	144	39	13
1878.449676457	144	108	41
1878.478033037	128	63	64
1878.60826883	128	108	64
1878.691201487	128	39	64
1878.983050045	144	39	30
1879.425560266	144	108	45
1879.557305688	128	39	64
1879.564771229	128	108	64
1879.848140435	144	39	45
1880.168046895	128	21	64
1880.425314875	128	39	64
1880.581328111	144	108	47
1880.680662157	144	39	62
1880.732417731	128	108	64
1880.966319589	128	35	64
1881.883382984	128	62	64
1882.102677193	144	108	44
1882.267759682	128	108	64
1883.508381298	128	63	64
1883.543156883	144	108	36
1883.671042885	128	108	64
1885.290783243	128	39	64
1885.589957237	144	108	46
1885.739070807	128	108	64
1886.459225583	128	39	64
1886.93342394	144	108	42
1887.050769491	128	108	64
1888.063924253	144	108	46
1888.250283014	128	108	64
1890.451947859	144	108	44
1890.55215854	128	97	64
1890.571280702	144	62	49
1890.622759558	128	108	64
1891.339297922	128	62	64
1891.516117319	144	62	50
1892.105122461	144	108	70
1892.430924193	128	108	64
1893.432907437	128	62	64
1893.558847683	144	62	58
1893.773793847	128	62	64
1895.215727426	144	67	38
1895.300947928	128	67	64
1895.650054133	144	67	102
1896.124862223	128	67	64
1896.470935994	144	67	23
1896.891899776	128	67	64
1896.987381956	128	21	64
1897.073639957	144	67	112
1897.492744839	128	67	64
1897.936668886	144	47	16
1898.001814118	128	47	64
1898.031224341	128	67	64
1898.189324025	144	108	96
1898.344618594	128	108	64
1898.500154669	144	47	3
1898.510642356	144	108	102
1898.581825287	128	47	64
1898.613675059	128	108	64
1898.718897632	144	108	107
1898.819051976	128	108	64
1898.915167089	144	108	109
1898.968138271	128	108	64
1899.068960632	144	108	106
1899.127662205	128	108	64
1899.2302041	144	108	106
1899.279442623	128	108	64
1899.373499582	144	108	111
1899.422578811	128	108	64
1899.503025324	144	108	108
1899.565342948	128	108	64
1899.646197654	144	108	106
1899.680234554	144	69	61
1899.696780001	128	108	64
1899.736631807	128	69	64
1899.789207577	144	108	102
1899.839318491	128	108	64
1899.907259198	144	69	63
1899.918555355	144	108	93
1899.963971678	128	108	64
1900.004852563	128	69	64
1900.045723209	144	108	93
1900.093588062	128	108	64
1900.148949867	144	69	79
1900.169807902	144	108	88
1900.233182949	128	69	64
1900.265096679	128	108	64
1900.310993439	144	69	80
1900.379195188	128	69	64
1900.476854966	144	108	90
1900.580660684	128	108	64
1900.663732656	144	77	71
1900.697926246	128	77	64
1901.144463048	144	65	66
1901.191492293	128	65	64
1901.66742726	144	69	90
1901.729196946	128	69	64
1902.200296406	144	77	94
1902.227646497	128	77	64
1902.665185909	144	69	108
1902.714048153	128	69	64
1903.150650982	144	65	100
1903.176406321	128	65	64
1904.394054522	144	108	32
1904.514449529	128	108	64
1919.792610867	128	88	64
1930.473355844	144	108	84
1930.766295461	128	108	64
1933.870586914	144	108	107
1934.067383784	128	108	64
1934.40510617	144	106	23
1934.567572534	128	106	64
1934.614117415	144	106	47
1934.677477388	128	106	64
1934.746540432	144	106	66
1934.81060586	128	106	64
1934.866180547	144	106	78
1934.910510597	128	106	64
1934.979011236	144	106	90
1935.025092168	128	106	64
1935.537541943	144	106	41
1935.57670398	128	106	64
1935.615780473	144	106	50
1935.673075041	128	106	64
1935.763700404	144	106	59
1935.810571082	128	106	64
1935.896591582	144	106	72
1935.927091578	128	106	64
1935.996330639	144	106	81
1936.040720852	128	106	64
1936.620781868	144	106	103
1936.640243634	128	106	64
1937.987855714	144	108	91
1938.166059127	128	108	64
1938.739933661	144	108	99
1938.885909978	128	108	64
1941.787048409	144	106	45
1941.826586071	128	106	64
1942.187826962	144	106	61
1942.350203726	128	106	64
1954.178142669	144	108	86
1954.315125017	128	108	64
1954.770498819	144	64	52
1954.811482043	128	64	64
1955.308961619	144	64	34
1955.835563735	128	64	64
1956.526216787	144	64	63
1956.526483374	128	64	64
1957.428047711	144	108	70
1957.530895355	128	108	64
1958.600958527	128	97	64
1958.653227953	144	108	77
1958.747970007	128	108	64
1959.111758301	144	29	8
1959.132252898	144	108	82
1959.18452961	128	29	64
1959.251790641	128	108	64
1959.537618108	144	106	61
1959.592982744	128	106	64
1959.711675749	144	108	116
1959.753573002	144	106	67
1959.7942066	128	106	64
1959.812671334	144	29	4
1959.81424942	128	108	64
1959.880936358	144	106	89
1959.927102458	128	29	64
1959.960655744	128	106	64
1960.029786747	144	106	100
1960.094612092	128	106	64
1960.142699537	144	108	123
1960.239264798	128	108	64
1960.391441161	144	29	49
1960.471244944	144	108	120
1960.579503888	128	108	64
1960.823580372	144	108	111
1960.949267761	128	108	64
1961.207420376	144	108	108
1961.348686426	128	108	64
1961.563271948	128	29	64
1961.652005019	144	64	64
1961.677394475	144	108	107
1961.764810604	128	108	64
1962.14056598	144	108	105
1962.275702567	128	108	64
1962.384288704	144	29	64
1962.569655466	128	64	64
1962.733017085	144	108	100
1962.882490952	128	108	64
1963.00269168	128	29	64
1963.291949602	144	108	95
1963.335385224	144	29	108
1963.442331593	128	108	64
1963.789389805	144	108	87
1963.822592648	128	29	64
1963.95408763	128	108	64
1964.270307175	144	108	81
1964.273919622	144	29	31
1964.387733164	128	108	64
1964.665773465	128	29	64
1964.814345522	144	108	88
1964.879192808	128	108	64
1965.203233889	144	29	109
1965.294100042	144	108	76
1965.413029835	128	108	64
1965.848128832	144	108	88
1965.970541894	128	108	64
1966.256354859	128	29	64
1966.333701892	144	108	68
1966.451919989	128	108	64
1966.830680111	144	108	111
1966.933612973	128	108	64
1967.316266507	144	64	107
1967.363946171	128	64	64
1967.368095945	144	108	105
1967.507039123	128	108	64
1967.885391755	144	108	99
1968.006661914	128	108	64
1968.028897701	144	64	18
1968.059065515	128	64	64
1968.441503181	144	108	95
1968.533740931	144	64	26
1968.550051089	128	108	64
1968.621023585	128	64	64
1969.028879561	144	64	13
1969.055012237	144	108	99
1969.171607838	128	108	64
1969.598177009	144	108	105
1969.71725558	128	108	64
1970.13005677	128	64	64
1970.299279269	144	64	55
1970.375239511	128	64	64
1970.411014417	144	108	93
1970.548607037	128	108	64
1970.616864081	128	29	64
1970.652247247	144	64	56
1970.720360661	128	64	64
1971.296051189	144	108	99
1971.429503377	128	108	64
1972.078826263	144	108	96
1972.197016354	128	108	64
1972.688705287	144	108	110
1972.819836495	128	108	64
1973.769837616	144	108	98
1973.90806493	128	108	64
1974.607351748	144	108	100
1974.75628692	128	108	64
1975.391089315	144	108	93
1975.542139011	128	108	64
1976.351787591	144	108	89
1976.486436676	128	108	64
1977.375425613	144	108	96
1977.55644932	128	108	64
1978.399538505	144	108	111
1978.857418026	128	108	64
1979.131888409	144	108	99
1979.317137564	128	108	64
1979.578703479	144	108	99
1979.781050869	128	108	64
1980.316265177	144	108	98
1980.553130095	128	108	64
1980.763294444	144	108	96
1980.983153432	128	108	64
1981.226951018	144	108	98
1981.42866925	128	108	64
1981.722209724	144	108	105
1981.972678791	128	108	64
1982.463732613	144	108	101
1982.495797154	144	57	13
1982.59771272	128	108	64
1982.917152184	128	57	64
1983.311722752	144	57	74
1983.343736866	144	108	87
1983.371951781	128	57	64
1983.540860858	128	108	64
1983.979692785	144	108	84
1984.001494325	144	57	58
1984.043542264	128	57	64
1984.180702548	128	108	64
1984.384029401	144	57	80
1984.444898341	128	57	64
1984.986232222	144	108	80
1985.124781384	128	108	64
1985.430429207	144	108	80
1985.634796782	128	108	64
1985.831764546	144	106	63
1985.873403644	144	57	38
1985.894472363	128	106	64
1985.950953376	128	57	64
1985.951082709	144	57	67
1985.951314268	144	106	72
1986.011090857	128	106	64
1986.013170328	128	57	64
1986.013247083	144	57	53
1986.106951673	128	57	64
1986.153863055	144	57	85
1986.183598561	128	57	64
1986.190110518	144	57	71
1986.23942399	128	57	64
1986.260192536	144	57	58
1986.332682831	144	108	76
1986.375987176	128	57	64
1986.37608633	144	57	70
1986.46304123	128	57	64
1986.463141545	144	57	49
1986.523697071	128	57	64
1986.532435458	128	108	64
1986.543492421	144	57	60
1986.576269577	128	57	64
1986.576372643	144	57	83
1986.641206775	128	57	64
1986.661094345	144	57	52
1986.710273777	128	57	64
1986.710371506	144	57	59
1986.729222801	128	57	64
1986.729323031	144	57	88
1986.789676726	128	57	64
1986.810854765	144	108	78
1987.108168112	128	108	64
1987.320191243	144	72	74
1987.389273896	144	106	68
1987.396435947	128	106	64
1987.483061271	144	106	72
1987.545453989	128	106	64
1987.599765542	144	106	74
1987.658692918	128	106	64
1987.670985648	144	108	90
1987.733879779	144	106	78
1987.780451723	128	106	64
1987.845922618	128	108	64
1987.850318547	144	106	82
1987.895614813	128	106	64
1988.076127121	128	72	64
1988.173490151	144	108	83
1988.324372151	128	108	64
1988.348680074	144	72	52
1988.380554198	144	64	54
1988.415188371	128	72	64
1988.423247472	128	64	64
1988.522450938	144	106	78
1988.561822176	128	106	64
1988.638444921	144	72	58
1988.648258073	144	106	78
1988.711678671	128	106	64
1988.769664253	144	64	55
1988.783815379	144	106	77
1988.799486662	128	64	64
1988.825045003	128	106	64
1988.914866155	144	106	81
1988.960089462	128	106	64
1989.035231293	144	106	82
1989.075120552	144	64	56
1989.080500343	128	106	64
1989.140661804	128	64	64
1989.290231965	144	106	115
1989.308089125	128	106	64
1989.559411235	128	72	64
1989.586978473	144	106	116
1989.595267802	128	106	64
1989.611993723	144	57	2
1989.650928999	128	57	64
1990.004605029	144	108	81
1990.119612894	144	57	12
1990.180156755	128	57	64
1990.244471261	128	108	64
1990.364521255	144	72	63
1990.687365242	144	57	74
1990.748203265	128	57	64
1991.269982414	144	57	90
1991.281360674	128	72	64
1991.381542136	128	57	64
1991.977262254	144	57	5
1991.991947661	144	72	65
1992.030116793	128	57	64
1992.371157642	144	57	1
1992.417296225	128	57	64
1992.570797445	144	57	9
1992.628990963	128	57	64
1992.751013202	144	57	10
1992.794736873	128	57	64
1992.807040385	128	108	64
1992.869834196	144	64	61
1992.896441599	128	72	64
1992.897174301	144	57	13
1992.945659357	128	57	64
1992.998277711	144	57	15
1993.044597576	128	57	64
1993.719030411	144	72	68
1994.132157189	144	57	121
1994.233746703	128	57	64
1994.60602039	144	57	82
1994.660909574	128	64	64
1994.713919144	128	72	64
1995.168037516	128	57	64
1995.284784825	144	64	47
1995.457810991	144	72	74
1995.512910364	144	57	24
1995.795040536	128	64	64
1995.867645791	128	57	64
1996.524603444	128	72	64
1997.244749137	144	72	112
1997.733529406	144	57	101
1997.80248472	128	57	64
1998.291260772	144	57	75
1998.335560464	128	57	64
1998.52673285	128	72	64
1998.787725476	144	57	37
1998.816984664	144	72	21
1998.867940288	128	57	64
1999.146480493	144	57	1
1999.214942213	128	57	64
1999.350973649	128	72	64
1999.374765469	144	57	1
1999.453559051	128	57	64
1999.573707813	144	72	36
1999.590261195	144	57	2
1999.648531771	128	57	64
1999.722418741	128	72	64
1999.774042944	144	57	15
1999.831580715	128	57	64
1999.882706433	144	72	40
1999.93899303	144	57	26
1999.975760567	128	72	64
1999.997011697	128	57	64
2000.10275458	144	72	53
2000.106052567	144	57	42
2000.165050299	128	57	64
2000.197798857	128	72	64
2000.271963522	144	57	65
2000.315673378	128	57	64
2000.338312126	144	72	65
2000.425593033	144	57	82
2000.42962246	128	72	64
2000.467786355	128	57	64
2000.544608202	144	72	73
2000.590222034	144	57	108
2000.610707295	128	72	64
2000.614264364	128	57	64
2000.72619384	144	57	127
2000.730873835	144	72	76
2000.767414915	128	57	64
2000.784185872	128	72	64
2000.836260782	144	57	127
2000.883036041	128	57	64
2000.889370476	144	72	77
2000.946609989	128	72	64
2002.401178499	144	57	89
2002.439985625	128	57	64
2002.488885941	144	64	1
2002.68474957	128	64	64
2003.924747127	144	64	5
2004.101690295	128	64	64
2004.55901164	144	64	30
2004.772045316	128	64	64
2005.498127866	144	64	54
2005.593270521	144	96	49
2005.610166985	128	64	64
2005.898870536	144	64	86
2006.026136097	128	64	64
2006.075792364	128	96	64
2006.212723088	144	64	103
2006.329471616	128	64	64
2006.531000636	144	64	127
2006.627328522	128	64	64
2007.279603193	144	96	95
2007.362720583	144	64	27
2007.482683958	128	64	64
2007.492043474	128	96	64
2007.902431343	144	96	89
2008.084842321	128	96	64
2008.445848697	144	64	106
2008.566571086	128	64	64
2009.066577347	144	96	55
2009.188428845	128	96	64
2009.578270575	144	96	55
2009.70561158	144	64	1
2009.763730386	128	96	64
2009.788415651	128	64	64
2010.783547015	144	96	70
2010.96409866	128	96	64
2011.189329324	144	64	1
2011.421784545	144	96	65
2011.603851809	128	96	64
2012.253091382	128	64	64
2012.305076771	144	57	4
2012.429310598	128	57	64
2012.607043919	144	96	64
2012.741685436	128	96	64
2013.16302389	144	96	67
2013.172107889	144	57	5
2013.219136149	144	72	1
2013.30989928	128	64	64
2013.332060551	128	96	64
2013.463080261	128	72	64
2014.040978847	144	72	38
2014.061841945	128	57	64
2014.262040811	144	57	2
2014.270080583	144	96	76
2014.404159625	128	96	64
2014.428128589	128	72	64
2014.476255145	128	57	64
2014.878639961	144	96	83
2015.025172882	144	57	113
2015.059165229	128	96	64
2015.092082275	128	57	64
2015.392543398	144	72	48
2015.998015524	128	72	64
2016.159407803	144	96	66
2016.278717055	128	96	64
2016.799402852	144	96	76
2016.948209901	128	96	64
2017.870565455	144	96	58
2017.987433898	128	96	64
2018.478154195	144	96	65
2018.627431988	128	96	64
2019.885917504	144	96	67
2020.002810564	128	96	64
2020.47943293	144	96	63
2020.628288222	128	96	64
2031.470379504	128	96	64
2033.859677902	144	67	15
2034.020820872	128	67	64
2034.208896842	144	67	23
2034.352695507	128	67	64
2034.479262856	144	67	30
2034.581271343	128	67	64
2034.665009799	128	57	64
2034.66995787	144	67	39
2034.771986561	128	67	64
2034.882401568	144	67	41
2034.979256232	128	67	64
2035.048496938	144	67	45
2035.136555137	128	67	64
2035.46874223	144	67	43
2036.044496354	128	67	64
2037.242707644	144	67	67
2037.790331896	128	67	64
2039.674167	144	106	67
2039.713490024	128	106	64
2040.106818994	144	106	67
2040.2505106630001	128	106	64
2040.261883662	144	67	69
2040.304551035	128	67	64
2040.641216915	144	106	122
2040.712148446	128	106	64
2040.800285231	144	67	63
2041.38445673	128	67	64
2041.400302635	144	106	89
2041.505517936	144	67	65
2041.596865284	128	67	64
2041.831329444	144	67	64
2041.909491813	128	67	64
2041.977355007	144	72	59
2042.273124005	144	67	65
2042.503970164	128	106	64
2042.657492133	144	106	95
2042.728811185	128	106	64
2042.757667864	128	67	64
2043.190527184	144	67	63
2043.29695033	128	67	64
2043.407985762	144	67	63
2043.473246301	128	72	64
2043.481302077	128	67	64
2043.599731871	144	67	63
2043.699159039	128	67	64
2043.747911892	144	106	61
2043.828223206	144	72	56
2043.828373857	128	106	64
2043.841412771	144	67	63
2044.107643709	144	106	68
2044.162245602	128	106	64
2044.490305383	144	106	82
2044.77427457	128	72	64
2045.090310652	128	67	64
2045.153748046	128	106	64
2047.692692049	144	72	38
2048.736305646	128	72	64
2055.273476485	144	40	24
2055.317071668	128	40	64
2055.740243245	144	40	28
2055.833693711	128	40	64
2056.074263268	144	40	30
2056.316748851	128	40	64
2056.478633029	144	40	106
2056.545594523	128	40	64
2056.724191199	144	40	104
2056.778220991	128	40	64
2056.956576804	144	40	112
2057.111483974	144	72	67
2057.270064745	128	40	64
2057.539448438	144	40	35
2057.559931184	144	67	56
2057.612434	128	40	64
2057.823493035	144	40	39
2057.879998097	128	40	64
2058.073191678	144	40	52
2058.128606452	128	40	64
2058.302748521	144	40	59
2058.329841405	128	67	64
2058.361540166	128	40	64
2058.537020506	144	40	102
2058.595472413	128	40	64
2058.643661198	144	67	69
2058.807144115	144	40	100
2059.071688813	128	67	64
2059.567052725	128	72	64
2059.937246013	128	40	64
2060.101092105	144	67	85
2060.395854735	128	67	64
2061.977229807	128	40	64
2065.721222451	144	67	62
2066.339319772	144	106	35
2066.369994827	144	72	1
2066.429676501	128	106	64
2066.574839431	144	106	36
2066.62953793	128	106	64
2066.991045205	128	67	64
2067.140345153	128	72	64
2067.259410699	144	106	71
2067.329652835	128	106	64
2067.448952082	144	72	27
2067.646978203	128	72	64
2067.672979389	144	106	79
2067.854354508	128	106	64
2067.876227733	144	72	37
2067.962500837	128	72	64
2068.041658317	144	106	87
2068.306314039	144	72	55
2068.449396655	128	72	64
2068.486861595	128	106	64
2068.534629107	144	106	74
2068.606709394	144	72	46
2068.678710818	128	106	64
2068.739143784	128	72	64
2068.823222519	144	72	46
2068.924433242	128	72	64
2069.024561236	144	72	32
2069.088580213	128	72	64
2069.197881176	144	72	30
2069.262489982	128	72	64
2069.352838287	144	72	27
2069.44761208	128	72	64
2069.547964763	144	72	32
2069.649392895	128	72	64
2069.762276747	144	72	34
2069.837087242	128	72	64
2069.939845547	144	72	37
2070.037821677	128	72	64
2070.157255856	144	72	42
2070.228211964	128	72	64
2070.339373585	144	72	47
2070.452740864	128	72	64
2070.548157579	144	72	48
2070.646175702	128	72	64
2072.700220597	144	67	65
2073.465326092	128	67	64
2082.904409679	144	88	25
2082.948763343	128	88	64
2083.302198092	144	88	19
2083.564710805	128	88	64
2083.805417711	144	88	109
2083.877512433	128	88	64
2084.161862912	144	88	108
2084.192634758	128	88	64
2084.504478177	144	88	78
2084.577703593	128	88	64
2084.737047432	144	88	73
2084.792594157	128	88	64
2084.955101521	144	88	66
2085.031122163	128	88	64
2085.185607141	144	88	64
2085.211193666	128	88	64
2085.289858795	144	67	56
2085.385705959	144	88	54
2085.430598916	128	88	64
2085.603304081	144	88	54
2085.66019876	128	88	64
2085.803352114	144	88	55
2086.401265704	128	88	64
2086.782861669	128	67	64
2087.74703467	144	88	53
2087.815551874	128	88	64
2087.986647256	144	88	54
2088.045883078	128	88	64
2088.156279338	144	88	59
2088.212340812	128	88	64
2088.319550844	144	88	53
2088.377534272	128	88	64
2088.498302567	144	88	61
2088.562085323	128	88	64
2088.76026708	144	67	60
2088.814318272	128	67	64
2088.884943693	144	67	57
2088.981741094	128	67	64
2089.034683368	144	67	56
2089.129772168	128	67	64
2089.564284421	144	88	83
2089.613095388	128	88	64
2090.947937726	144	88	94
2090.987860248	128	88	64
2090.987963297	144	88	102
2091.056482441	128	88	64
2091.056577902	144	88	63
2091.11262039	128	88	64
2091.15021782	144	88	89
2091.202203265	128	88	64
2091.202297897	144	88	104
2091.263704188	128	88	64
2091.268081059	144	88	63
2091.32907068	128	88	64
2091.331958813	144	88	86
2091.395697097	128	88	64
2091.395800115	144	88	103
2091.46603802	128	88	64
2091.469786133	144	88	54
2091.528992459	128	88	64
2091.568438129	144	88	67
2091.6277748	128	88	64
2091.978505507	144	88	48
2092.059038309	128	88	64
2092.059281363	144	88	71
2092.114773834	128	88	64
2092.114872906	144	88	45
2092.179658939	128	88	64
2092.198559102	144	88	61
2092.282595455	128	88	64
2092.574935811	144	88	89
2092.648635699	128	88	64
2092.651307892	144	88	61
2092.697283514	128	88	64
2092.719632969	144	88	74
2092.778332821	128	88	64
2092.798638913	144	88	54
2092.845468682	128	88	64
2092.863832468	144	88	75
2092.912969675	128	88	64
2092.947773194	144	88	48
2092.99613686	128	88	64
2093.01460944	144	88	64
2093.078541182	128	88	64
2093.098470021	144	88	45
2093.147889323	128	88	64
2093.182628728	144	88	63
2093.231191171	128	88	64
2093.283077817	144	88	38
2093.312523765	128	88	64
2093.330885238	144	88	52
2093.379030015	128	88	64
2093.432306385	144	88	32
2093.481402686	128	88	64
2093.500812686	144	88	58
2093.561997532	128	88	64
2093.581316003	144	88	42
2093.630138034	128	88	64
2093.647303337	144	88	63
2093.712347001	128	88	64
2093.751480975	144	88	39
2093.81335268	128	88	64
2093.831929635	144	88	63
2093.895977742	128	88	64
2093.914772452	144	88	39
2093.964273764	128	88	64
2093.981113566	144	88	65
2094.062564527	128	88	64
2094.082257156	144	88	45
2094.147144663	128	88	64
2094.152377532	144	88	59
2094.212532039	128	88	64
2094.25054379	144	88	47
2094.2980811	128	88	64
2094.317680831	144	88	65
2094.362593756	128	88	64
2094.401256896	144	88	41
2094.450263985	128	88	64
2094.466767445	144	88	75
2094.529499951	128	88	64
2095.218878254	144	88	65
2095.24022413	128	88	64
2095.355801325	144	88	63
2095.381987309	128	88	64
2095.476613791	144	88	66
2095.532478344	128	88	64
2095.602165575	144	88	63
2095.647252107	128	88	64
2095.755859055	144	88	66
2095.799781722	128	88	64
2095.906495274	144	88	69
2095.932169957	128	88	64
2096.502852836	144	67	45
2096.553221354	128	67	64
2096.993230918	144	67	43
2097.532214137	128	67	64
2097.821500806	144	67	93
2098.166553604	128	67	64
2098.352589025	144	67	54
2098.587330172	128	67	64
2098.850315787	144	88	15
2098.890097793	128	88	64
2099.419331086	144	88	75
2099.471967355	128	88	64
2105.488183317	144	88	80
2105.524708753	128	88	64
2105.971335555	144	88	19
2106.040044228	128	88	64
2106.363729326	144	88	19
2106.443451228	128	88	64
2106.648278759	144	88	38
2106.727169899	128	88	64
2106.898652595	144	88	57
2106.953609644	128	88	64
2107.098113278	144	88	76
2107.154702534	128	88	64
2107.297394511	144	88	91
2107.354464647	128	88	64
2107.513294801	144	88	113
2107.571210459	128	88	64
2108.131599317	144	88	127
2108.172313416	128	88	64
2109.443692049	144	88	127
2110.12542925	128	88	64
2111.760103981	144	88	27
2111.808862262	128	88	64
2117.06679183	144	88	19
2117.166377605	128	88	64
2117.523958577	144	88	57
2117.631696081	128	88	64
2118.962566435	144	88	67
2119.050215239	128	88	64
2125.802236456	144	88	59
2125.831706685	128	88	64
2126.34079561	144	88	51
2126.416170599	128	88	64
2126.490340489	144	88	43
2126.568127923	128	88	64
2126.601734137	144	88	47
2126.718258962	128	88	64
2126.966379549	144	88	45
2126.997581578	128	88	64
2127.389301868	144	88	41
2127.537654957	128	88	64
2127.84953855	144	88	46
2128.420924872	128	88	64
2128.900943492	144	88	31
2129.522029448	128	88	64
2130.133909328	144	88	45
2130.822696041	128	88	64
2134.668823715	144	88	26
2134.693966904	128	88	64
2134.743757846	144	88	29
2134.802809353	128	88	64
2134.958481077	144	88	35
2135.004087593	128	88	64
2135.141822409	144	88	34
2135.168947835	128	88	64
2135.341396573	144	88	40
2135.389662657	128	88	64
2135.524869075	144	88	38
2135.573826489	128	88	64
2135.708076497	144	88	36
2135.768721063	128	88	64
2135.871895109	144	88	36
2135.935839397	128	88	64
2136.437142458	144	88	29
2136.894901614	128	88	64
2137.397005783	144	88	15
2138.12831257	128	88	64
2138.823283368	144	88	54
2139.611882163	128	88	64
2140.590816003	144	88	99
2141.44853595	128	88	64
2179.206025443	128	106	64
2186.976318908	128	72	64
2187.991376212	144	88	63
2188.268965034	128	88	64
2188.786921093	144	88	50
2189.22236118	128	88	64
2189.574289465	144	88	66
2189.969507107	128	88	64
2190.768017887	144	88	48
2191.236818695	128	88	64
2191.700851469	144	88	94
2191.920682807	128	88	64
2193.485097888	144	88	61
2193.554965533	128	88	64
2193.576450366	144	88	86
2193.605057012	128	88	64
2193.605155352	144	88	57
2193.750187296	128	88	64
2193.922752641	144	88	57
2193.988675883	128	88	64
2193.988777605	144	88	74
2194.051550872	128	88	64
2194.051652553	144	88	45
2194.132509204	128	88	64
2194.442429241	144	88	39
2194.50436841	128	88	64
2194.760126755	144	88	65
2194.817990919	128	88	64
2196.036918411	144	88	75
2196.106101833	128	88	64
2196.244417943	144	88	63
2196.316926518	128	88	64
2196.845361066	144	88	65
2196.956569235	128	88	64
2197.622046707	144	88	80
2198.004996432	128	88	64
2198.446755638	144	88	75
2198.861871854	128	88	64
2199.26354364	144	88	86
2199.391005172	128	88	64
2199.663033816	144	88	95
2199.791013374	128	88	64
2200.08342074	144	88	88
2200.608142856	128	88	64
2213.349150933	144	88	82
2213.6814917	128	88	64
2228.957534601	144	88	73
2229.002121561	128	88	64
2229.141759926	144	88	76
2229.202827083	128	88	64
2231.557581812	144	88	104
2237.648576729	128	88	64
2240.534152034	144	88	70
2241.88489142	144	108	127
2241.975481833	128	88	64
2242.215115356	128	108	64
2242.611124536	144	108	126
2242.839648975	128	108	64
2243.490261013	144	108	127
2243.703153021	128	108	64
2244.211244202	144	108	122
2244.392373479	128	108	64
2245.100905692	144	108	118
2245.223668891	128	108	64
2245.853880595	144	108	116
2246.108779534	128	108	64
2246.654811593	144	108	127
2246.808019721	128	108	64
2247.491531089	144	108	126
2247.641037158	128	108	64
2248.371342664	144	108	124
2248.536898138	128	108	64
2249.20507415	144	108	125
2249.384347724	128	108	64
2250.019444548	144	108	127
2250.184915488	128	108	64
2250.803336564	144	108	119
2251.005865227	128	108	64
2251.669196524	144	108	125
2251.880815128	128	108	64
2252.435727366	144	108	127
2252.6804037	128	108	64
2253.267659132	144	108	127
2253.514251434	128	108	64
2254.231366136	144	108	122
2254.325517724	128	108	64
2255.02838525	144	108	116
2255.241462964	128	108	64
2255.728468646	144	108	116
2255.91309909	128	108	64
2256.191384081	144	108	124
2256.311563427	128	108	64
2256.395204038	144	108	117
2256.508367047	128	108	64
2256.870339085	144	108	127
2257.160854622	128	108	64
2257.668230787	144	108	114
2257.898467443	128	108	64
2258.332294858	128	62	64
2258.513431344	144	108	118
2258.729834684	128	108	64
2259.285290268	144	108	119
2260.693026154	128	108	64
2260.693207085	144	108	123
2260.693443049	128	108	64
2260.94823251	144	108	115
2261.228700717	128	108	64
2261.698526633	144	108	127
2261.882412257	128	108	64
2262.357180079	144	108	118
2262.57249483	128	108	64
2263.190260783	144	108	117
2263.585693535	128	108	64
2264.117328531	144	108	120
2264.47962344	128	108	64
2264.930900111	144	108	115
2265.372470704	128	108	64
2265.712607937	144	108	110
2266.323319489	128	108	64
2266.496035603	144	108	124
2267.105072752	128	108	64
2267.410024739	144	108	115
2269.434222695	128	108	64
2269.434401188	144	108	117
2269.434508984	128	108	64
2269.434848362	144	108	114
2270.209059082	128	108	64
2270.209230285	144	108	127
2270.20933898	128	108	64
2270.629989445	144	108	120
2270.931209814	128	108	64
2271.503498183	144	108	120
2271.849632041	128	108	64
2272.33614082	144	108	116
2273.230320976	128	108	64
2273.28239794	144	108	114
2273.677479594	128	108	64
2274.19222709	144	108	127
2274.489566198	128	108	64
2275.075950793	144	108	121
2275.503127842	128	108	64
2275.955322492	144	108	123
2276.469458143	128	108	64
2276.931486323	144	108	123
2277.393291857	128	108	64
2277.453881212	144	67	67
2277.821312327	128	67	64
2277.846666813	144	108	119
2278.335967952	128	108	64
2278.751081033	144	108	122
2279.247984558	128	108	64
2279.613411193	144	108	123
2279.768921417	144	67	25
2280.172921471	128	108	64
2280.367073378	144	108	123
2280.489972073	128	108	64
2281.09491604	128	67	64
2281.314671915	144	108	124
2281.671697169	128	108	64
2282.225508981	144	108	122
2282.712796426	128	108	64
2283.154952512	144	108	127
2283.276113376	128	108	64
2283.407551601	144	108	126
2283.543438453	128	108	64
2284.005907332	144	108	125
2284.168950967	128	108	64
2284.266563325	144	108	122
2284.439309874	128	108	64
2284.845003767	144	108	125
2285.035372994	128	108	64
2285.260206681	144	108	123
2285.488488452	128	108	64
2285.930923825	144	108	117
2286.092726571	128	108	64
2286.273114927	144	108	118
2286.479343538	128	108	64
2286.89527789	144	108	116
2287.079529527	128	108	64
2287.313468253	144	108	123
2287.511242299	128	108	64
2287.890193458	144	108	120
2288.089443284	128	108	64
2288.286811554	144	108	119
2288.506411408	128	108	64
2288.980121465	144	108	122
2289.175854808	128	108	64
2289.969136928	144	108	122
2290.347338877	128	108	64
2296.020007179	144	67	88
2296.203950555	128	67	64
2298.281711	128	67	64
2326.983062509	128	88	64
2330.327933187	128	35	64
2349.43746578	144	47	50
2349.489776814	128	47	64
2375.357026684	128	108	64
