time	action	midinote	velocity
0.777908158	144	30	52
0.9324827290000001	128	30	64
1.049665571	144	95	73
1.079949224	144	25	97
1.095257715	144	98	73
1.110195199	128	98	64
1.121286393	144	65	1
1.151634286	128	95	64
1.16712299	128	25	64
1.206251589	128	65	64
1.339553027	144	62	77
1.346187929	144	34	55
1.387328492	144	104	83
1.477339288	128	62	64
1.4898720540000001	128	34	64
1.4988964820000001	128	104	64
1.8239894410000002	144	99	68
1.8356294960000001	144	25	47
1.8595614710000001	144	62	78
1.8984280560000002	144	103	37
1.900043874	128	25	64
1.920421122	128	99	64
1.937273537	144	67	88
1.9915868190000001	128	103	64
1.994461813	128	67	64
2.007323768	128	62	64
2.024923859	144	65	1
2.040395338	144	34	56
2.084225964	144	95	58
2.118311947	144	21	18
2.168038274	128	95	64
2.173955718	128	21	64
2.192228105	128	65	64
2.206954659	128	34	64
2.3050592930000002	144	93	79
2.334894146	128	93	64
2.375433327	144	28	61
2.414457657	144	21	62
2.432341762	128	28	64
2.435682292	144	62	79
2.488598547	144	104	69
2.5052249509999998	128	21	64
2.541529777	128	62	64
2.556595938	128	104	64
2.557013872	144	98	65
2.561309992	144	99	79
2.568770916	144	25	92
2.612897754	128	98	64
2.625419671	128	25	64
2.664827127	144	34	53
2.712573626	144	89	55
2.712992734	144	103	47
2.7582317080000003	128	99	64
2.781537456	144	60	73
2.8074799720000003	128	34	64
2.808163813	128	103	64
2.808949005	144	93	82
2.833176505	128	60	64
2.854755233	144	104	69
2.876625621	144	25	76
2.920305912	128	25	64
2.9357737200000003	144	105	48
2.962613407	128	104	64
2.969539595	144	46	76
3.010184364	144	62	81
3.010400717	144	21	58
3.016729906	144	98	49
3.026003454	144	104	64
3.036828347	144	83	62
3.051756361	128	21	64
3.083445893	128	83	64
3.085280573	128	105	64
3.096402946	128	93	64
3.117386107	144	24	89
3.135051581	128	24	64
3.137903512	128	62	64
3.139826926	128	104	64
3.155228501	128	98	64
3.2274579230000002	128	46	64
3.243784913	144	37	65
3.257315362	144	72	68
3.291114243	144	73	30
3.331869101	128	73	64
3.355109476	128	89	64
3.371010851	128	72	64
3.372902557	144	43	63
3.395436781	144	58	42
3.400916215	144	79	65
3.4197603069999998	128	43	64
3.459906473	144	99	75
3.468449344	128	99	64
3.480518476	144	108	26
3.489298897	144	48	65
3.517960746	128	108	64
3.532606507	144	21	35
3.5400855570000003	144	95	65
3.542266773	128	58	64
3.550113601	144	76	76
3.551131114	128	95	64
3.555071455	128	79	64
3.558594626	144	98	44
3.558954237	128	76	64
3.584707033	128	37	64
3.600691548	128	21	64
3.615175996	144	65	53
3.633596457	144	62	82
3.661507788	144	89	86
3.663914455	144	103	21
3.692033228	144	32	56
3.701472623	128	65	64
3.703701638	144	30	49
3.704368982	128	62	64
3.70820472	128	98	64
3.7162817280000002	144	37	59
3.730748459	128	37	64
3.731330687	144	100	58
3.769040531	144	93	80
3.808546624	144	37	51
3.8199872360000002	128	100	64
3.831600624	128	30	64
3.849527803	144	21	34
3.852046285	128	32	64
3.8536565080000003	128	37	64
3.9142705820000003	128	21	64
3.917426368	128	48	64
3.983066348	144	84	57
3.993737514	128	84	64
3.995183049	144	99	71
3.9988915240000003	144	37	67
4.008818023	144	98	46
4.043610252	144	79	63
4.078339859	128	37	64
4.088888234	128	89	64
4.117358635	144	88	65
4.122287625	128	98	64
4.135080705	128	79	64
4.147761734	128	88	64
4.156892432	128	99	64
4.166270829	144	67	80
4.194273942	128	67	64
4.19683444	144	37	63
4.215900259	144	62	82
4.230447767	144	75	86
4.244310928	128	103	64
4.245281312	144	28	65
4.260496847	128	37	64
4.267242873	144	105	51
4.269822356	128	75	64
4.273227838	144	92	6
4.278126914	144	26	38
4.288337358	144	83	5
4.3183290450000005	144	58	16
4.318738469	128	92	64
4.321308764	144	67	82
4.324980515	128	62	64
4.341728901	128	28	64
4.342157917	128	83	64
4.363601035	144	37	30
4.377865186	144	98	30
4.379210521	128	67	64
4.385869796	128	93	64
4.387634829	144	89	123
4.391306094	144	46	61
4.399809336	128	26	64
4.406419644	128	37	64
4.437428591	128	105	64
4.463199621	128	98	64
4.479238388	144	100	10
4.483217967	128	89	64
4.497811792	144	95	55
4.499317414	144	37	40
4.520462995	144	101	52
4.544873474	128	37	64
4.569328444	144	40	38
4.56945032	128	101	64
4.57377246	128	95	64
4.5875947660000005	144	104	88
4.592116263	144	89	127
4.623113467	144	43	72
4.632290037	144	90	7
4.635043617	128	89	64
4.635134449	128	46	64
4.643611363	128	43	64
4.665923081	128	40	64
4.673127587	144	41	48
4.674386707	144	103	70
4.698372011	144	69	52
4.72236445	144	79	61
4.735126352	128	90	64
4.74964899	128	69	64
4.760453269	144	99	65
4.7664631150000005	128	103	64
4.774388382	128	41	64
4.776502393	128	104	64
4.785191878	128	79	64
4.814174353	128	58	64
4.830582927	144	98	36
4.85983388	144	62	82
4.863036879	144	24	89
4.876761661	128	99	64
4.881896612	144	32	68
4.900886114	144	108	40
4.903409946	144	37	2
4.944459804	128	108	64
4.951134848	128	37	64
4.958787442	144	92	34
4.961341728	144	34	50
4.972281178	128	32	64
4.990756968	128	62	64
4.9986855210000005	144	68	66
5.014322578	128	92	64
5.022901205	144	37	2
5.02986008	128	24	64
5.032107503	128	34	64
5.042169529	144	88	64
5.063367913	144	38	71
5.083665637	128	68	64
5.086347552	128	37	64
5.088776743	144	108	43
5.102420519	128	100	64
5.108633338	144	48	73
5.111167169	144	23	51
5.11173859	128	88	64
5.116596401	144	104	84
5.123080689	128	108	64
5.136980467	144	96	79
5.168626906	144	37	4
5.199525649	144	73	66
5.200014733	128	38	64
5.229098807	128	104	64
5.232401211	128	96	64
5.2397120600000004	144	26	68
5.260455876	128	37	64
5.2685601	144	21	1
5.273691485	144	108	41
5.280003305	128	48	64
5.293813935	128	108	64
5.30028477	144	37	6
5.308778331	144	79	60
5.312995765	128	98	64
5.319300603	144	90	7
5.320886729	144	65	30
5.3230572800000004	128	73	64
5.328008349	128	26	64
5.353304846	128	65	64
5.370950745	144	34	54
5.372661995	128	37	64
5.406938496	144	43	69
5.41462751	128	79	64
5.419192281	144	32	68
5.429846449	144	83	105
5.44683125	128	43	64
5.449889453	128	90	64
5.450318243	144	108	37
5.461968165	144	37	4
5.4659177	128	34	64
5.469873684	128	108	64
5.48880752	128	83	64
5.495199211	144	107	67
5.497961261	144	55	75
5.510299864	128	37	64
5.532724477	144	62	82
5.550268506	144	31	48
5.569719571	144	100	72
5.570427766	144	34	53
5.587649594	128	31	64
5.588402442	128	55	64
5.599503905	144	95	53
5.599626491	128	107	64
5.602070251	128	21	64
5.6210286830000005	128	95	64
5.633779037	144	105	52
5.636576659	144	98	61
5.6411806349999996	144	79	63
5.645294559	144	88	57
5.656035181	144	37	63
5.656910315	128	62	64
5.695278776	128	88	64
5.701453433	128	100	64
5.702782286	128	37	64
5.709847971	144	25	74
5.713887691	128	34	64
5.724758606	144	64	32
5.72585504	128	79	64
5.760503821	144	38	71
5.760816486	128	23	64
5.765875574	128	25	64
5.768415695	144	90	8
5.769536697	128	64	64
5.802381745	128	105	64
5.825220932	144	37	46
5.846889764	144	67	75
5.84765387	128	37	64
5.876017741	144	65	1
5.883465336	128	90	64
5.914078671	128	67	64
5.95310674	144	37	16
5.9537519230000004	144	68	61
6.009348967	128	37	64
6.033618104	144	40	34
6.037567815	128	32	64
6.037813825	144	32	68
6.047378608	128	68	64
6.111577143	144	21	43
6.118061418	144	90	6
6.125637369	128	40	64
6.144843058	144	62	84
6.148966725	144	37	31
6.15449116	144	82	65
6.156003482	128	21	64
6.181478157	144	79	69
6.196635445	128	37	64
6.206545469	144	104	85
6.209529462	144	103	76
6.216640084	144	91	53
6.251892104	128	79	64
6.262353798	128	104	64
6.26257145	128	103	64
6.266112936	144	95	63
6.267640337	128	90	64
6.275270281	128	62	64
6.27911888	144	24	25
6.287016404	128	91	64
6.290556855	128	95	64
6.307758054	144	37	57
6.320531161	128	82	64
6.322016709	144	40	41
6.32459736	128	40	64
6.345496517	128	37	64
6.352697294	128	65	64
6.372659737	144	75	62
6.426327977	144	105	50
6.429723163	144	23	44
6.430097683	144	64	60
6.431184231	144	103	78
6.43671494	128	24	64
6.43791516	144	37	94
6.441225656	128	64	64
6.447564282	128	38	64
6.473693448	128	75	64
6.474093028	128	37	64
6.481909102	128	98	64
6.496870516	144	95	73
6.526641613	128	103	64
6.531665934	144	96	50
6.531857762	144	22	77
6.5375370329999996	144	31	38
6.54788459	144	25	70
6.548424475	128	105	64
6.570370569	128	95	64
6.574797615	144	88	3
6.609722142	128	32	64
6.614047252	144	41	43
6.627935706	144	100	58
6.659745267	144	79	71
6.660466432	128	88	64
6.6621142330000005	128	31	64
6.668464001	144	26	79
6.685480538	128	100	64
6.700575156	128	79	64
6.70750889	144	38	70
6.712976047	144	45	86
6.723251414	128	41	64
6.748729708	128	26	64
6.774749547	128	22	64
6.779506245	144	71	56
6.780251379	144	50	1
6.792985278	128	23	64
6.805086394	128	50	64
6.831123412	144	103	77
6.849792656	144	62	83
6.881860591	128	71	64
6.909307033	144	26	64
6.917073855	128	103	64
6.93062561	144	98	42
6.935846026	128	45	64
6.943104052	144	80	68
6.945219754	144	104	82
6.949507927	144	24	10
6.964495019	128	96	64
6.973854267	128	62	64
6.9874608480000004	128	80	64
7.007890987	144	79	73
7.008343321	128	26	64
7.034114689	144	103	78
7.036739767	144	41	45
7.042995207	128	104	64
7.066796009	128	79	64
7.087562305	144	108	11
7.09479949	144	21	33
7.105103484	128	24	64
7.114038032	144	26	60
7.117250476	128	38	64
7.125310409	144	65	1
7.140389204	144	100	62
7.142080215	128	103	64
7.143376044	128	41	64
7.173600417	144	78	7
7.18264115	144	32	68
7.185711406	128	98	64
7.187154361	128	21	64
7.193289275	144	23	61
7.194904783	144	85	71
7.196677094	128	26	64
7.201626032	128	32	64
7.21080055	128	100	64
7.2729156790000005	128	78	64
7.294492909	128	85	64
7.301393648	144	103	78
7.306114368	144	41	46
7.308845618	128	65	64
7.313761098	144	95	91
7.314679217	128	23	64
7.324352138	144	100	62
7.343096306	144	27	98
7.344253183	144	34	54
7.350644713	128	108	64
7.38379585	144	29	62
7.384417527	128	95	64
7.401148253	128	41	64
7.402702483	128	100	64
7.410751525	128	27	64
7.415259325	128	103	64
7.419639189	128	29	64
7.431072334	144	98	66
7.434311662	128	34	64
7.435859093	144	42	72
7.445548906	144	64	1
7.454806261	128	64	64
7.457798549	144	58	6
7.466418006	144	79	74
7.486099285	144	100	62
7.486262355	128	79	64
7.494852089	144	62	80
7.506324459	144	102	36
7.520257805	144	26	36
7.541053533	144	97	61
7.5414490700000005	144	68	56
7.541611919	144	23	56
7.547411122	144	45	63
7.55603063	128	98	64
7.558042964	144	83	108
7.5641875160000005	128	100	64
7.569956515	144	41	46
7.572996417	128	58	64
7.580050643	128	42	64
7.587936807	128	26	64
7.588438715	144	90	7
7.589143033	128	83	64
7.595573845	128	102	64
7.607297867	128	62	64
7.616685784	128	68	64
7.619882686	128	97	64
7.620403995	144	89	29
7.624317708	128	45	64
7.650093462	128	23	64
7.660742902	144	100	61
7.663310399	128	41	64
7.668609454	144	83	109
7.674653345	128	25	64
7.68380632	144	32	68
7.692228375	144	58	7
7.693887043	144	38	71
7.716170978	128	100	64
7.717948274	128	90	64
7.733440951	128	83	64
7.779776877	144	41	45
7.796618015	128	32	64
7.79960919	144	83	109
7.8125971849999996	144	88	31
7.823349545	128	58	64
7.831250847	144	79	75
7.871868775	144	73	110
7.877783753	128	83	64
7.880830141	144	92	103
7.881058278	128	88	64
7.886144879	128	41	64
7.88827715	144	76	100
7.901060068	144	69	68
7.906774218	144	104	77
7.924931111	144	27	69
7.927068724	128	69	64
7.929966627	128	79	64
7.943624161	144	46	127
7.950552652	144	83	108
7.962295529	144	58	9
7.969743297	144	100	62
7.977143341	144	41	45
7.977962405	128	100	64
8.002483853	144	67	77
8.002840027	144	100	62
8.00450899	128	83	64
8.00734949	128	67	64
8.00918118	128	104	64
8.011047654	128	76	64
8.012605751	128	27	64
8.031283247	128	73	64
8.072639988	144	30	43
8.076252489	144	83	110
8.077692558	128	41	64
8.080159581	144	67	71
8.085369482	128	100	64
8.094439786	144	104	78
8.105663522	128	30	64
8.139229505	128	58	64
8.144349529	128	67	64
8.163548333	144	25	65
8.175337453	128	104	64
8.191760822	128	83	64
8.209301079	144	104	78
8.215049896	144	67	71
8.216722688	144	62	78
8.219872001	144	30	51
8.233296581	128	92	64
8.274369132	144	79	74
8.2786275	128	67	64
8.299419821	128	30	64
8.311888306	144	95	103
8.319844918	128	79	64
8.330017855	128	104	64
8.344855052	128	95	64
8.357329259	128	62	64
8.382409192	144	104	80
8.385208733	144	30	56
8.395601535	128	46	64
8.438484517	144	68	52
8.445932743	144	95	108
8.454182159	144	21	39
8.468385775	144	79	74
8.469091723	128	30	64
8.476147998	144	82	52
8.479980391	128	104	64
8.510934395	128	68	64
8.525225509	144	49	56
8.526869507	128	95	64
8.531131684	144	30	63
8.531829436	144	32	68
8.542288105	128	38	64
8.54659643	128	79	64
8.573933739	144	103	66
8.574217027	128	82	64
8.587546168	144	60	78
8.598618757	128	49	64
8.607055714	144	33	51
8.612023957	144	34	54
8.616179005	128	30	64
8.638279386	128	32	64
8.639279317	128	103	64
8.639570792	144	79	73
8.651669092	128	33	64
8.653077888	144	61	1
8.664251363	144	53	61
8.681957496	128	34	64
8.683544115	144	30	65
8.689161907999999	144	98	53
8.718025258	128	79	64
8.73281614	128	60	64
8.744516595	128	30	64
8.756202701	128	98	64
8.756829895	128	21	64
8.762272125	144	103	67
8.788018487	144	102	47
8.795418044	144	79	74
8.807464882	144	95	72
8.80992527	144	27	79
8.811458899	128	95	64
8.830400856	144	34	53
8.844785679	144	65	48
8.847559362	128	103	64
8.860366106	144	62	77
8.864742995	144	98	55
8.868309095	128	79	64
8.868506249	128	65	64
8.870761077000001	128	102	64
8.880990438	128	89	64
8.88171101	128	34	64
8.883710755	144	48	62
8.90226519	144	108	53
8.909155732	128	53	64
8.916024921	144	46	127
8.921997109	144	43	62
8.931427545	144	103	68
8.933320124	144	104	102
8.933843837	128	61	64
8.935035421	128	108	64
8.938331748	144	79	74
8.938484756	144	36	55
8.94295714	128	43	64
8.944405845	144	42	78
8.956739611	144	34	51
8.967168627	128	98	64
8.970860691	144	88	41
8.978192485000001	144	45	60
8.978895963	144	65	45
8.992824779	128	62	64
9.000885295	128	79	64
9.00290947	128	88	64
9.009248806	144	78	44
9.011215564	128	103	64
9.025066662	128	104	64
9.047562325	144	107	70
9.047858349	128	45	64
9.049661887	128	34	64
9.050673287	128	78	64
9.051663414	128	65	64
9.053637782	128	27	64
9.062748325	128	36	64
9.070638561	144	84	52
9.070747998	128	46	64
9.071208295	144	79	74
9.074887448	144	98	55
9.082163424	144	106	46
9.098778601	128	42	64
9.102195657	144	103	67
9.102625836	144	55	127
9.105045734	144	39	5
9.131687265	128	107	64
9.132245704	144	32	68
9.13298103	144	76	84
9.136524904	144	34	54
9.150746199	128	79	64
9.151062572	144	38	72
9.155249766	144	65	43
9.16132766	128	98	64
9.180926035	128	103	64
9.191015672	128	39	64
9.195589405	128	76	64
9.212504597	128	55	64
9.231162367	128	32	64
9.232159452	128	65	64
9.234433115	144	64	36
9.242632565	144	79	73
9.257347558	144	75	64
9.270058563	144	78	44
9.272138739	144	103	66
9.272627547	128	75	64
9.276621668	144	98	57
9.277849414	128	34	64
9.285494012000001	128	78	64
9.305066118	144	42	77
9.317820808	128	79	64
9.32144057	144	65	42
9.364324708	128	103	64
9.373176264	128	98	64
9.375197471	128	42	64
9.38379843	128	65	64
9.388519301	144	79	73
9.403896051	144	60	62
9.405070186	144	28	8
9.422329241	128	84	64
9.430088098	144	78	43
9.434629186	128	64	64
9.461790076	128	78	64
9.464869925	144	84	36
9.465799155	144	103	66
9.466846694000001	128	79	64
9.470025463	144	91	52
9.471579089	144	65	40
9.505056642	144	79	73
9.509160502	144	98	56
9.509466033	144	63	59
9.521675818	128	48	64
9.526713406	144	70	33
9.533567471	128	65	64
9.540160225	144	30	65
9.547431332	128	60	64
9.547624804	128	103	64
9.547975556	144	68	52
9.551960025	144	92	52
9.552446105	144	42	77
9.565574332	128	91	64
9.584534483	128	79	64
9.592496781	128	98	64
9.598605291	144	46	127
9.608280736	128	63	64
9.615636816	144	65	40
9.616846062	144	78	41
9.617276865000001	128	30	64
9.620291265	128	106	64
9.622877524	128	68	64
9.623288738	128	84	64
9.625478036	128	42	64
9.62746262	144	104	76
9.636351126	144	33	51
9.638973547	128	78	64
9.653955327	144	103	67
9.654616795	144	79	72
9.658184396	144	82	67
9.66622842	128	65	64
9.695675135	128	70	64
9.699175303	128	92	64
9.700945692	144	101	26
9.708152587	128	104	64
9.71999468	128	33	64
9.721744259	128	46	64
9.734458848	128	79	64
9.736047147	144	65	40
9.737839397	144	61	7
9.738522756	144	44	50
9.745202397	144	27	88
9.75225949	128	103	64
9.753715997	144	78	40
9.756671397	128	82	64
9.75794751	128	101	64
9.768975105	144	42	76
9.797070158	128	78	64
9.804732428	144	79	72
9.81733963	144	104	76
9.827025792	128	61	64
9.834084977	128	44	64
9.834222163	144	103	65
9.850521123	128	79	64
9.859046696	128	42	64
9.866210989	144	82	62
9.866371625	144	75	68
9.870140237	144	23	63
9.877216768	128	65	64
9.884391704	144	62	78
9.890739686	128	75	64
9.894717831	144	102	42
9.895101289	144	37	95
9.903560527	144	79	71
9.907407582	128	25	64
9.914382486000001	144	74	69
9.914563448000001	128	104	64
9.921578725	144	65	37
9.925432546	144	100	53
9.938379233	128	103	64
9.941429572	128	82	64
9.966105138	144	42	76
9.966445375	128	23	64
9.980602515	128	27	64
9.985823784	144	21	51
9.986148991	128	74	64
9.988813046	144	99	56
9.997685	128	102	64
9.999641493	128	79	64
10.000998116	128	65	64
10.010773718	128	100	64
10.025114863	128	62	64
10.027864563	144	89	117
10.035265708	144	103	64
10.044926597	144	82	63
10.045065763	128	21	64
10.050072388	144	104	82
10.052607395	144	23	63
10.05839436	128	42	64
10.072123859	144	65	37
10.083428395	144	88	41
10.086589046	144	67	59
10.088219579	144	74	68
10.089670212	144	83	106
10.095732531	128	82	64
10.096323341	144	76	100
10.11853631	128	23	64
10.130908347	128	83	64
10.137550063	128	103	64
10.141896152	144	79	72
10.145972268	144	46	127
10.146156554	144	61	1
10.149958062	128	88	64
10.154240449	128	74	64
10.15821223	128	28	64
10.163772283	128	104	64
10.165433055	128	99	64
10.166736251	128	65	64
10.181216439	128	76	64
10.182947612	128	79	64
10.185948532	144	84	50
10.199661887	144	105	103
10.206390425	144	45	54
10.206624212	144	23	61
10.209873304	128	38	64
10.219505438	144	42	77
10.221590759	128	61	64
10.223693972	144	22	81
10.238965759	144	79	71
10.240583977	144	82	64
10.24242169	128	82	64
10.248156025	128	46	64
10.256117064	144	74	68
10.258143837	144	65	36
10.262249311	144	87	127
10.272681754	144	98	50
10.275642021	144	61	1
10.289445876	144	48	67
10.292102116	128	42	64
10.297293765	128	67	64
10.308730321	144	26	71
10.316065581	128	79	64
10.319403077	128	45	64
10.320769372	128	105	64
10.324481142	144	106	46
10.329728558	144	34	52
10.342911772	144	82	63
10.349806813	128	65	64
10.353080221999999	128	74	64
10.367751472	128	87	64
10.368918592	144	91	54
10.375578244	144	100	55
10.386510953	144	79	71
10.392085851000001	128	84	64
10.405360719	144	65	36
10.405604329	144	71	51
10.407798889	128	82	64
10.408176887	144	40	34
10.409010146	128	91	64
10.41588844	128	98	64
10.42241524	128	26	64
10.432026078	128	34	64
10.439194205	144	63	6
10.449071086	144	74	67
10.466400576	128	79	64
10.467650935	128	106	64
10.471314323	144	52	46
10.47893097	128	100	64
10.499959968	128	65	64
10.519191514	128	40	64
10.519766562000001	144	79	71
10.526283948	144	98	58
10.526937865	128	98	64
10.530182106	128	74	64
10.53499228	128	63	64
10.539521774	128	71	64
10.547120084	128	22	64
10.547635855	144	72	109
10.549085373	144	50	1
10.551911247	144	32	60
10.564419629	144	75	62
10.571132345	144	65	34
10.582488721	128	32	64
10.589789144000001	144	85	63
10.595895747	128	52	64
10.600393835	128	79	64
10.615158375	144	24	58
10.624261313	128	75	64
10.630754536	128	50	64
10.632523613	144	74	67
10.635531641	144	46	127
10.635653851	144	98	57
10.666578363	128	65	64
10.676718399	128	37	64
10.68951922	128	85	64
10.690645107	144	99	52
10.691310275	144	79	71
10.709718629	144	75	71
10.724043862	128	72	64
10.724536878	128	74	64
10.741341494	144	84	60
10.741960663	144	65	33
10.74889512	128	98	64
10.74998862	128	46	64
10.751256805	128	79	64
10.755385867	128	75	64
10.758981341	144	37	99
10.763445794	144	98	67
10.770179314	144	64	24
10.77306948	128	64	64
10.775057367	128	24	64
10.776929203	144	26	65
10.78247118	128	37	64
10.800488506	144	62	77
10.805616115	144	107	64
10.815964848	144	49	55
10.818342084	144	74	68
10.830138763	128	98	64
10.835197336	128	65	64
10.837704984	144	79	69
10.840565437	144	75	73
10.842253813	144	104	72
10.842510798	144	32	63
10.858671436	128	107	64
10.862358941	144	36	63
10.864749244	128	99	64
10.865205697	128	61	64
10.883626527	128	49	64
10.885355515	128	26	64
10.901485622	128	32	64
10.904521544	128	75	64
10.906102179	144	65	34
10.911695421	128	74	64
10.919783481	128	23	64
10.921271586	128	62	64
10.930710683000001	128	84	64
10.933488492	144	46	127
10.933611566	128	79	64
10.936222165	144	67	99
10.953461034	144	60	66
10.955010892	144	98	59
10.967765208	144	56	92
10.971489847	144	21	51
10.972265904	144	100	56
10.98378334	128	65	64
10.986095574	144	95	54
10.993869779	144	75	75
11.000246158	128	95	64
11.013636343	128	36	64
11.023905542	144	79	70
11.030714351	128	48	64
11.031959643	144	74	68
11.038962496	128	75	64
11.039186692	144	51	54
11.042568213	128	60	64
11.045974984	128	46	64
11.047237516	128	98	64
11.047519702	128	56	64
11.048680323	128	21	64
11.050962519	128	100	64
11.053030386	144	83	103
11.064010703	144	26	60
11.078195163	144	39	64
11.092603057	144	92	115
11.09447663	128	83	64
11.102078419	144	107	66
11.104740002	144	84	58
11.111998022	128	74	64
11.116926701	128	79	64
11.118978107	144	108	54
11.138455641	144	56	93
11.140094384	128	51	64
11.144613233	144	44	55
11.146852367	144	95	62
11.148524451	144	98	55
11.151852016	128	26	64
11.163989439	128	104	64
11.170250637	128	39	64
11.170474994	144	46	127
11.17393509	144	82	58
11.175187532	128	108	64
11.181435804	144	75	76
11.181814796	128	107	64
11.189633323	128	75	64
11.193082795	128	95	64
11.205041183	128	67	64
11.208039467	144	79	68
11.220186255	144	60	64
11.226887202	144	74	67
11.230080271	128	82	64
11.232527497	128	84	64
11.232764265	128	44	64
11.237302821	128	98	64
11.239341274	128	56	64
11.252504247	144	28	126
11.26087837	128	46	64
11.28376748	128	79	64
11.290427814	144	75	77
11.292608874999999	128	74	64
11.29299602	144	61	77
11.293780456	144	95	63
11.303253496	144	73	87
11.307158142	144	24	52
11.307443079	144	30	76
11.307628675	144	26	58
11.307954329	128	28	64
11.313730128	128	60	64
11.319580379	144	84	58
11.323816473	128	92	64
11.334145677	128	95	64
11.335638878	144	103	51
11.344884776	128	75	64
11.347352944	144	45	57
11.348856748	144	40	35
11.356517482	144	98	52
11.36759987	144	56	85
11.371934671	144	79	68
11.377594788	144	70	37
11.389044649	128	26	64
11.396813481	144	46	127
11.398870944	144	100	56
11.407488935	128	84	64
11.410510856	128	73	64
11.423882108	144	75	78
11.43254387	128	30	64
11.433015956	144	82	58
11.435343239	128	45	64
11.435886352	128	103	64
11.447412994	128	98	64
11.450778057	128	79	64
11.453034275	128	24	64
11.453538182	128	40	64
11.45517831	128	56	64
11.466204022	128	70	64
11.471105388	128	75	64
11.48072243	144	84	57
11.490540091	128	82	64
11.492334831	144	73	91
11.493286415	128	100	64
11.494099348	144	95	72
11.500827115	144	23	57
11.501000607	128	46	64
11.503126909	128	95	64
11.506038958	144	79	68
11.519087333	144	96	82
11.523873291	144	26	60
11.535279642	128	96	64
11.54571517	144	60	66
11.571665523	144	98	47
11.572231407	128	73	64
11.576177274	144	40	39
11.576517717	144	75	81
11.579841491	144	56	80
11.585259743	128	84	64
11.587029834	144	34	44
11.59115523	144	82	58
11.600644794	128	79	64
11.606941648	144	46	127
11.60966744	128	23	64
11.613185577	128	89	64
11.619073314	128	98	64
11.619142504	144	98	55
11.622753097	128	75	64
11.623638268	144	78	67
11.624605222	144	105	83
11.633694065	144	83	105
11.63696239	128	26	64
11.642788569	144	73	89
11.665176295	144	84	55
11.670110415	128	56	64
11.670704548	144	64	1
11.67128039	144	79	66
11.67204445	128	40	64
11.672562894	128	82	64
11.682088532	128	83	64
11.683194799	128	34	64
11.683299196	128	78	64
11.683790291	128	64	64
11.687867806	128	98	64
11.690255654	144	104	86
11.706302752	144	37	60
11.70819709	144	75	81
11.709895343	144	23	57
11.711994043	128	46	64
11.717689012	128	60	64
11.723889037	128	73	64
11.733720449	144	40	41
11.742261518	144	55	66
11.750336069	144	62	77
11.75083446	128	79	64
11.754194237	128	75	64
11.755141972	144	63	2
11.757885772	128	37	64
11.767933318	128	84	64
11.769146734	144	28	127
11.769331991	144	26	61
11.770508274	144	34	46
11.777258362	144	73	90
11.787427895	144	43	62
11.789080317	128	26	64
11.796114098	128	104	64
11.796501256	144	100	57
11.800793965	144	98	60
11.804486037	144	56	70
11.808245772	128	28	64
11.815255013	128	55	64
11.821470379	144	79	68
11.823533671	144	84	54
11.829847114	128	98	64
11.837045729	144	46	127
11.844092194	144	75	86
11.845245745	128	23	64
11.845610992	128	40	64
11.848551204	128	63	64
11.854612724	128	61	64
11.854720329	128	73	64
11.86595134	128	34	64
11.884227256	128	79	64
11.886941081	144	23	58
11.887821606	144	83	104
11.891411232	128	62	64
11.892130553	128	100	64
11.89662555	128	43	64
11.898445925	128	56	64
11.898777378	144	37	67
11.90599197	128	75	64
11.91676502	128	105	64
11.930542257	128	83	64
11.933765581	144	103	57
11.938457845	128	84	64
11.942856504	144	88	37
11.947627834	128	46	64
11.947731058	128	37	64
11.955586455	144	79	66
11.957974576	144	98	60
11.972695198	144	34	47
11.993753394	144	75	87
12.000443567	128	23	64
12.009166704	144	56	71
12.014670521	128	34	64
12.015313069	128	98	64
12.015389343	144	98	46
12.025477956	144	92	116
12.027701249	144	46	127
12.029299465	144	74	22
12.033337314	128	103	64
12.034332648	128	79	64
12.046968634	128	74	64
12.050287913	144	52	49
12.050509397	144	37	67
12.054419493	128	75	64
12.072268702	144	23	55
12.072593023	144	51	56
12.073785037	128	98	64
12.089132722	128	88	64
12.097399424	128	56	64
12.104358759	128	37	64
12.106545541	144	88	36
12.107687532	144	22	72
12.122570149	144	79	67
12.132177825	144	32	71
12.140821591	128	46	64
12.141745722	144	98	63
12.14300968	144	75	86
12.154135375	128	32	64
12.160593371	144	34	48
12.163880168	128	57	64
12.173038262	144	99	59
12.173176734	128	79	64
12.173275376	128	92	64
12.177623284	144	31	27
12.181292085	128	88	64
12.189683145	128	51	64
12.197134989	144	74	19
12.197844124	128	52	64
12.20003012	144	56	74
12.202186006	144	37	65
12.204555953	128	75	64
12.21546011	144	76	93
12.220631434	144	60	66
12.229724055	128	74	64
12.236443134	144	46	127
12.237498759	144	79	64
12.247622651	128	34	64
12.249725748	128	98	64
12.25485282	128	31	64
12.264400578	144	88	35
12.27499344	128	99	64
12.280015532	144	78	67
12.280262399	144	64	1
12.28212158	128	37	64
12.28585061	128	64	64
12.291652437	144	32	71
12.293668825	144	75	87
12.294005033	128	56	64
12.306262157	144	71	55
12.306482506	128	32	64
12.307232966	144	98	48
12.307408361	128	98	64
12.309883453	128	76	64
12.319902518	144	34	49
12.323405213000001	128	88	64
12.325506418	128	60	64
12.329043772	128	78	64
12.332943951	128	46	64
12.333898261	128	79	64
12.334338056	144	100	56
12.354880026	128	75	64
12.358376802	144	39	71
12.362029112	128	71	64
12.377528802	144	74	19
12.38027399	144	56	70
12.384674683	144	88	35
12.388073725	128	22	64
12.398481484	144	98	63
12.398700772	128	98	64
12.403638247	144	98	47
12.406747532	144	79	66
12.41419356	144	46	127
12.425469705	144	75	89
12.426548496	144	105	86
12.427359925	128	74	64
12.432882188	144	21	54
12.434485515	144	61	120
12.435433336	144	95	56
12.436409321	144	32	71
12.438186677000001	128	39	64
12.445394255	144	84	53
12.449756185	128	88	64
12.461910112	128	34	64
12.464572462	144	37	56
12.466399545	128	21	64
12.472380676	128	56	64
12.47252088	128	75	64
12.481290853	144	108	56
12.483896978	128	79	64
12.49857727	144	88	35
12.500452095	128	46	64
12.501931969	128	32	64
12.512723108	128	84	64
12.512816352	128	98	64
12.512871012	144	98	62
12.518705154	128	37	64
12.534997771	128	98	64
12.554820375	144	79	66
12.557886354	144	43	57
12.560224388	128	108	64
12.568964029	144	96	59
12.5731217	144	74	18
12.573481885	128	88	64
12.57570674	144	75	89
12.577717337	144	21	55
12.59368137	144	92	113
12.593901319	144	98	47
12.606447569	144	84	52
12.613561791	128	43	64
12.617300013	128	96	64
12.617704931	144	76	91
12.622370283	128	75	64
12.624608007	128	74	64
12.628117057	144	88	35
12.630400453	128	105	64
12.634408472	128	79	64
12.636806659	128	21	64
12.644687181	144	103	15
12.644906654	144	37	49
12.651301192	144	44	35
12.654460843	144	41	28
12.664393789	128	92	64
12.665898876	144	27	81
12.686790888	144	104	78
12.688817849	128	37	64
12.691120397	128	98	64
12.691163734	144	98	65
12.691328017	128	44	64
12.692615547	128	76	64
12.697535219	128	98	64
12.698545476	128	84	64
12.70532618	144	79	67
12.70673499	144	75	86
12.710994749	128	88	64
12.739471248000001	144	21	56
12.739933038	144	44	33
12.746823516	144	74	17
12.751658319	144	88	35
12.754140553	128	75	64
12.754550677	128	103	64
12.755309596	144	24	50
12.765230477	144	37	49
12.767060613	144	69	49
12.774575466	128	21	64
12.775571898	128	104	64
12.776162206	144	98	63
12.776477223	144	84	52
12.783821016000001	128	79	64
12.788942126	128	69	64
12.823502342	128	74	64
12.825435227	128	98	64
12.825488815	144	98	47
12.829809043000001	128	88	64
12.83155224	128	37	64
12.839638873	144	79	66
12.85448083	144	64	1
12.856080894	128	84	64
12.858702976	144	75	85
12.86093627	128	44	64
12.872252774	144	21	56
12.876685136	144	88	34
12.878705791	144	48	63
12.887869984	128	98	64
12.89514126	128	27	64
12.901554283	144	104	82
12.904743365	128	24	64
12.907089449	128	75	64
12.916209615	144	98	63
12.916606638	128	79	64
12.92200538	128	21	64
12.927546095	144	74	17
12.932613596	128	88	64
12.933004452	144	84	51
12.949537116	144	82	66
12.957214714	144	103	31
12.958040447	144	90	7
12.961344012	128	98	64
12.970165818	144	79	67
12.975888936	128	104	64
12.977093134	128	82	64
12.979245678	144	60	65
12.988130889	128	48	64
12.992403595	144	75	87
12.99259395	144	88	34
12.994427119000001	144	98	47
12.997959583	144	101	80
13.014756313	144	63	59
13.018699763	144	21	57
13.030257776	128	84	64
13.038483941	128	75	64
13.039913733	128	23	64
13.044597122	144	107	63
13.046298388	128	88	64
13.049864113	128	100	64
13.062818497	144	104	81
13.066609493	128	79	64
13.069350176	144	42	64
13.075937115	128	21	64
13.076989622	128	60	64
13.078039681	144	65	40
13.083423645	128	90	64
13.087192004	128	98	64
13.087250952	144	98	64
13.091494786	128	101	64
13.098458935	128	103	64
13.101670149	128	65	64
13.105025594	128	98	64
13.10566803	128	107	64
13.108648158	144	75	89
13.109684241	144	92	113
13.111251022	128	42	64
13.111775998	128	63	64
13.117075829	128	64	64
13.125278027	144	88	33
13.137751125	128	75	64
13.142950806	128	104	64
13.149757777	128	92	64
13.166938907	128	88	64
13.167078932	144	86	44
13.171561506	144	79	69
13.175137375	144	21	60
13.189742417	128	61	64
13.192155275	144	82	68
13.200692408	144	101	80
13.207269721	144	103	39
13.221461572	144	33	55
13.226480472	144	107	65
13.233281508	128	21	64
13.234543802	144	88	33
13.238096897	144	90	17
13.244236185	144	26	97
13.250915067	128	79	64
13.268800893	128	41	64
13.269195712	128	86	64
13.273894194	128	82	64
13.281461965	128	101	64
13.2877771	128	107	64
13.30095759	144	46	127
13.302828623	128	88	64
13.303912456	128	33	64
13.321265704	128	103	64
13.326359654	144	79	71
13.327391392	144	36	14
13.337436716	128	90	64
13.34123828	144	31	91
13.342416995	128	26	64
13.345825087	144	21	61
13.367178514	144	69	47
13.368204271	144	88	32
13.369937605	144	86	37
13.372235358	144	32	78
13.380630097	128	69	64
13.385406169	128	31	64
13.386277856	144	101	81
13.388258455	128	21	64
13.392824173	128	46	64
13.409214725	128	88	64
13.417249675	128	79	64
13.431845197	144	33	53
13.432889357	128	36	64
13.44402435	144	72	107
13.449914224	128	86	64
13.467796967	144	21	60
13.474575686	144	59	60
13.477121153	128	72	64
13.479353741	128	101	64
13.479825339	144	88	32
13.480540363	128	32	64
13.48937113	144	53	61
13.491633437	144	79	74
13.494531446	144	34	43
13.498258844	144	26	83
13.504950008	144	90	12
13.506236563	128	33	64
13.51923218	144	46	127
13.519966717	128	21	64
13.543581937999999	128	88	64
13.548602903	144	40	15
13.556890155	144	72	105
13.57710178	144	101	82
13.584108092	128	79	64
13.596456963	144	86	37
13.601129685	128	26	64
13.605707749	128	46	64
13.614135266	144	88	30
13.616079216	128	34	64
13.619510838	144	21	62
13.620676683	128	72	64
13.621015964	128	90	64
13.625940659	128	59	64
13.627872143	144	33	54
13.630109750999999	144	60	65
13.651711507	128	88	64
13.655003335	144	79	77
13.657973594	128	40	64
13.672453034	128	21	64
13.679163089	128	101	64
13.685334012	144	36	15
13.687826998	144	46	127
13.688673595000001	144	72	103
13.691708337	128	86	64
13.698560507	144	100	12
13.701701088	144	41	112
13.702731643	144	26	76
13.712796252	128	53	64
13.716259386	128	33	64
13.733893569	128	79	64
13.737762364	144	86	44
13.751681494	128	72	64
13.758034365	144	21	62
13.764073888	128	36	64
13.775451925	144	101	83
13.784555279	128	60	64
13.788953589	128	46	64
13.789095145	144	108	57
13.791296123	144	103	45
13.797909345	128	26	64
13.798168108	128	86	64
13.798271196	144	84	55
13.804831043	144	79	80
13.810441103	144	38	71
13.828683861	144	33	53
13.837057571	144	72	104
13.837288769	128	21	64
13.841615623	144	27	88
13.858984183	128	103	64
13.859629476	128	84	64
13.866233836	128	108	64
13.878651775	128	101	64
13.879197544	144	46	127
13.884512447	128	27	64
13.884631571	128	72	64
13.900066249	144	64	3
13.90162289	128	79	64
13.910760072	128	64	64
13.912526734	144	21	61
13.925133468	144	86	53
13.925261778	128	33	64
13.927051625	144	62	77
13.930587862	144	66	35
13.939779105	144	26	66
13.959216239	128	46	64
13.962942888	144	84	53
13.964485611	144	85	68
13.976054612	144	79	92
13.980139039	144	103	46
13.980574461	128	21	64
13.993191465	144	105	113
13.999172443	128	86	64
14.008563948	128	66	64
14.009537806	128	74	64
14.013657433	144	108	61
14.021794839	128	85	64
14.03006115	144	37	127
14.032150743	128	26	64
14.037555645	144	36	20
14.038722086	144	33	53
14.051341518	128	79	64
14.051794003	128	84	64
14.053356261	144	72	103
14.053456295	128	72	64
14.05627457	144	58	31
14.060754278	128	108	64
14.066656048	144	21	60
14.06713424	144	27	85
14.081147843	128	103	64
14.081512056	144	46	127
14.082159461	128	37	64
14.087734165	144	74	17
14.088472735	128	62	64
14.099245395	144	99	56
14.107133102	144	43	53
14.122868533	144	84	52
14.123455793	144	104	81
14.126020071	128	21	64
14.126544781	144	79	98
14.12677487	128	33	64
14.130668492	128	27	64
14.136817269	128	105	64
14.144118065	128	58	64
14.15085691	144	86	64
14.152637469	128	36	64
14.167003289	144	85	71
14.171016137	128	99	64
14.177170469	128	74	64
14.181524444	128	46	64
14.184312819	144	26	55
14.199629958	128	85	64
14.200010215	144	37	124
14.2003415	144	98	59
14.20158594	144	21	60
14.207140804	144	103	49
14.216299118	128	86	64
14.222730706	128	84	64
14.223385201	144	105	111
14.231111923	128	104	64
14.232211455	144	108	60
14.253979751	128	37	64
14.25635777	128	98	64
14.260227879	144	61	1
14.264436644	144	58	30
14.27115753	128	26	64
14.27444682	144	24	51
14.279765599	144	74	20
14.286469376	128	108	64
14.288291447	128	21	64
14.303589046	128	79	64
14.321666624	128	103	64
14.32253576	144	42	73
14.334209003	144	104	84
14.339465888	144	27	80
14.343418664	144	85	74
14.352435787	128	100	64
14.355982927	144	98	61
14.356624399	128	85	64
14.356823398	144	36	21
14.356966949	144	87	72
14.35853539	128	58	64
14.362359978	128	74	64
14.369141586	144	37	125
14.394636193	128	27	64
14.39859004	144	21	59
14.400142287	144	86	70
14.404637692	128	37	64
14.40666707	144	30	60
14.408505102	128	104	64
14.408721179	128	42	64
14.408846248	128	61	64
14.426718334	144	52	49
14.426977275	144	79	102
14.43026951	128	21	64
14.431196157	128	30	64
14.437890794	128	24	64
14.440688227	128	98	64
14.441080853	144	108	60
14.445129164	144	58	32
14.446199463	128	86	64
14.447799608	128	87	64
14.45280144	128	79	64
14.453400927	144	54	61
14.460030979	128	41	64
14.462797481	144	74	20
14.465836678	128	36	64
14.474081062	144	26	36
14.47921582	128	108	64
14.480636481	144	37	127
14.488501389	144	34	51
14.496256674	144	104	82
14.507992955	128	52	64
14.518488581	144	98	61
14.522095575	144	30	62
14.52579464	128	54	64
14.529320613	128	37	64
14.53645314	128	26	64
14.541242212	128	58	64
14.542135983	144	79	107
14.546191865	128	74	64
14.552141184	144	25	65
14.582652863	128	30	64
14.586666073	144	31	106
14.594783817	128	98	64
14.597825529	128	104	64
14.601265749	128	105	64
14.606452803	128	25	64
14.607214494	144	44	13
14.617087567	144	27	87
14.626317211	144	108	59
14.629083627	144	58	32
14.632033426	144	32	70
14.634010172	128	79	64
14.640484644	128	34	64
14.64350572	144	37	127
14.650011351	144	74	24
14.65519319	144	36	21
14.661351461	128	31	64
14.662231565	144	105	111
14.663020472	128	108	64
14.666631138	144	30	63
14.670018744	128	43	64
14.675890769	144	98	61
14.690609359	128	27	64
14.695624568	128	37	64
14.698461144	128	32	64
14.698630952	128	30	64
14.708333422	144	79	111
14.708470433	128	58	64
14.711401536	128	36	64
14.727238891	128	74	64
14.74673231	144	75	83
14.74964601	144	82	67
14.757158719	128	75	64
14.776596111	128	98	64
14.784325303	128	79	64
14.793417849	144	58	33
14.810096911	144	37	122
14.815146068	144	103	50
14.815530601	128	105	64
14.82274898	144	79	114
14.823096492	144	74	24
14.847756864	144	75	86
14.853654071	128	37	64
14.856968728	144	98	61
14.857860337	128	82	64
14.871874731	128	75	64
14.87419822	144	100	50
14.885479713	144	56	45
14.892357261	128	58	64
14.899751363	128	74	64
14.90108511	144	46	127
14.917557868	128	79	64
14.918974291	144	105	111
14.922303136	128	103	64
14.928748425	144	87	50
14.955388843	144	61	1
14.955669637	128	98	64
14.961748176	144	75	93
14.96769406	128	56	64
14.971108086000001	144	37	125
14.973360727	144	69	76
14.980866072	128	37	64
14.988610747	144	36	19
14.992143438	144	74	25
15.001699868	128	46	64
15.007069511	128	75	64
15.00856632	144	79	117
15.013603026	144	98	62
15.024201969	128	87	64
15.028304789	144	64	1
15.03315561	128	36	64
15.038094088	144	22	77
15.047404936	128	64	64
15.055261962	144	45	48
15.059951735	128	61	64
15.068474004	128	79	64
15.06907307	128	105	64
15.083454677	128	98	64
15.093155152	144	75	88
15.095030258	128	74	64
15.107116083	144	46	127
15.114390248	128	22	64
15.122974049	144	61	1
15.123953731	128	69	64
15.136534985	144	37	122
15.13800077	144	79	121
15.139765299	128	75	64
15.140320778	144	29	9
15.147898978	128	37	64
15.157789864	144	41	37
15.163703397999999	144	86	61
15.165823309	128	45	64
15.17291711	144	98	64
15.173874611	144	27	93
15.177816247	144	74	26
15.186761036	128	100	64
15.197301754	128	44	64
15.199633666	144	76	96
15.211575136	128	27	64
15.216647199	128	61	64
15.217536222	128	79	64
15.227896073	144	45	77
15.243411803	144	75	73
15.246760468	128	46	64
15.248047807	128	29	64
15.254798342	128	74	64
15.256982793	144	103	47
15.257167695	144	104	86
15.262456495	128	45	64
15.26839273	144	37	122
15.276582815	144	27	95
15.288239894	128	75	64
15.290098906	128	86	64
15.294618475	144	45	50
15.295868198	128	76	64
15.301000875	144	61	1
15.305579337	144	56	49
15.307005309000001	128	37	64
15.308996657	144	79	120
15.327423476	128	104	64
15.335497611	144	74	26
15.337685123	144	86	58
15.342952383	128	27	64
15.368281036	128	56	64
15.372528114	144	31	67
15.372718016	128	45	64
15.376330669	144	75	72
15.380591504	128	103	64
15.384319859	128	79	64
15.395718997	144	37	122
15.399025402	144	62	76
15.422133373	128	75	64
15.436182623	144	56	50
15.438159663	128	74	64
15.445261032	128	37	64
15.448673747	128	86	64
15.454698359	144	79	124
15.462235152	144	46	127
15.475461236	128	46	64
15.476751271	128	98	64
15.477463465	144	98	64
15.479577089	128	98	64
15.479747383	144	98	56
15.487253433	144	27	92
15.490853399	144	45	50
15.494774118	128	31	64
15.509160702	128	62	64
15.511031191	144	75	76
15.526220497	128	56	64
15.527103518	144	74	25
15.527224602	144	37	123
15.533569206	144	86	56
15.533688777	128	45	64
15.534127211	128	79	64
15.538457278	128	27	64
15.556829171	128	75	64
15.557962824	144	76	95
15.564070231	144	45	76
15.573363639	128	37	64
15.579254406	144	46	127
15.595217276	144	56	56
15.608735191000001	144	64	1
15.615028967	128	86	64
15.619311441	128	64	64
15.621799621000001	128	74	64
15.621982714	144	79	122
15.626375021	144	75	108
15.630274965	128	45	64
15.644038476	128	76	64
15.647827244	144	99	56
15.650237322	128	56	64
15.66119066	144	27	87
15.662885041	144	45	48
15.682720492	144	74	23
15.686512525	144	87	61
15.687461659	128	75	64
15.699285545	128	45	64
15.701611394	128	79	64
15.701884695	128	27	64
15.702986762	128	46	64
15.707194541	144	56	55
15.711436907	128	98	64
15.712036773	144	32	67
15.721992269	128	87	64
15.727927916	144	45	76
15.740313878	144	98	63
15.752983646	144	67	127
15.7575737	144	79	123
15.767640033	128	56	64
15.767951089	128	41	64
15.776903526	144	75	68
15.777347649	128	45	64
15.781540853	128	67	64
15.797704474	128	74	64
15.798616277	144	56	55
15.813496083	144	103	47
15.814916032	144	45	49
15.81573991	144	34	48
15.816177899	144	27	87
15.816616352	144	33	58
15.819949956	128	32	64
15.82235377	128	75	64
15.823452303	128	99	64
15.842344013	128	45	64
15.85102553	128	79	64
15.857595301	144	87	74
15.85955618	128	27	64
15.874997908000001	128	56	64
15.875181817	144	75	70
15.891936957	144	45	77
15.899555717	128	34	64
15.899969749	128	98	64
15.900093354	144	56	52
15.903896794	128	87	64
15.904399334	128	75	64
15.91248055	128	103	64
15.921169427	144	101	125
15.921858405	128	33	64
15.938782557	144	79	123
15.947436815	128	45	64
15.96140844	144	90	17
15.964706486	144	27	84
15.981016675	144	45	49
15.981319971	128	56	64
15.988311733	144	34	49
15.991977129	128	101	64
15.994045596	144	87	77
16.001230163	128	79	64
16.009316796	144	75	104
16.009714845	128	45	64
16.011801641	144	103	47
16.013331582	144	56	49
16.013942147	128	27	64
16.038102038	128	75	64
16.03857792	144	74	106
16.042903921	128	74	64
16.049993018	128	87	64
16.065432422	144	45	79
16.06792705	128	56	64
16.076718079	144	86	47
16.088398275	144	24	49
16.09055218	144	79	124
16.094996997	128	45	64
16.102761823	144	56	50
16.104015655	144	101	121
16.106108942	128	90	64
16.111480072	128	103	64
16.126175154	144	27	85
16.130182074	128	34	64
16.13203249	144	45	51
16.132171463	144	50	1
16.142703255	144	87	78
16.167078769	144	99	55
16.167237248	128	79	64
16.167464974	144	52	52
16.167627446	128	27	64
16.168718121	128	45	64
16.169697944	128	99	64
16.170579003	144	74	111
16.171619653	128	101	64
16.177464688	144	65	29
16.179227919	144	75	66
16.17949067	128	75	64
16.182592437	128	86	64
16.18549401	128	65	64
16.186765767	144	34	50
16.187294447	144	42	77
16.195509552	128	87	64
16.196752745	144	59	88
16.200506436	128	50	64
16.203217753	144	98	55
16.203979083	144	103	48
16.206224044	128	42	64
16.211637354	128	74	64
16.218044945	144	45	79
16.222845729	128	24	64
16.223576064	128	52	64
16.246549254	144	64	30
16.247742927	144	42	77
16.251318664	144	86	34
16.251558604	128	64	64
16.256176563	144	79	123
16.260354495	128	56	64
16.262539688	144	75	84
16.26430034	144	27	83
16.26569169	128	34	64
16.276781841000002	144	65	23
16.277204908	128	45	64
16.278379092	128	98	64
16.289017232	144	87	82
16.291439685	144	45	53
16.292347125	144	101	121
16.298337062	128	103	64
16.301675848	128	27	64
16.30568561	128	75	64
16.317618242	144	56	52
16.33044612	128	87	64
16.334603903	128	79	64
16.334792657	128	45	64
16.342817154	144	99	56
16.350322795	144	62	78
16.350635628	128	65	64
16.354981144	144	34	49
16.358896246	144	74	114
16.359012238	128	86	64
16.364289997	144	29	60
16.366157315	128	38	64
16.380867896	128	101	64
16.381316089	144	27	83
16.386581388	128	99	64
16.390562519	128	42	64
16.390910657	144	79	126
16.392178824	144	75	89
16.398189482	128	61	64
16.404220114	128	74	64
16.407778852	128	59	64
16.409911475	128	29	64
16.422667628	144	87	82
16.438149213	128	75	64
16.442276027	128	27	64
16.449626779	128	34	64
16.454191226	144	32	67
16.454382582	128	62	64
16.483365604	128	79	64
16.493397947	128	87	64
16.494645782	144	65	18
16.498195394	144	74	114
16.499030976	144	84	47
16.517972123	128	65	64
16.519341547	144	99	56
16.520022592	144	59	87
16.526236584	144	75	89
16.538300286	144	34	49
16.538671702	144	41	1
16.539136899	144	62	78
16.549579682	144	68	54
16.56695573	128	84	64
16.568349792	144	27	81
16.568565871	144	42	76
16.569233472	144	87	83
16.572242764	144	79	124
16.573390794	128	75	64
16.579971546	128	74	64
16.588315175	144	65	18
16.593492714	144	89	96
16.605774412	128	27	64
16.607145795	128	68	64
16.615250281	128	89	64
16.625483868	128	87	64
16.628224529	128	32	64
16.632516537	128	59	64
16.632920773	128	34	64
16.641287286	128	62	64
16.642780173	128	42	64
16.647739252	144	64	33
16.648191229	144	103	49
16.650999003	128	79	64
16.653722878	128	64	64
16.65655255	144	84	46
16.659056386	144	75	90
16.65942106	144	86	56
16.667737953	128	65	64
16.68074465	144	59	81
16.685599376	144	26	99
16.689067081	144	74	20
16.693528638	128	99	64
16.693714755	144	99	56
16.706513148	128	75	64
16.706790228	144	79	125
16.7211252	144	27	83
16.722479577	144	62	78
16.727526269	128	84	64
16.727940513	144	87	84
16.729172143	128	74	64
16.732809939	144	89	103
16.733709002	144	46	127
16.736494067	128	103	64
16.739141421	144	65	17
16.739264339	128	59	64
16.742106696	128	46	64
16.757506298	128	89	64
16.75827969	128	86	64
16.768592868	128	27	64
16.774950193	128	87	64
16.792947583	144	75	89
16.804302617	128	62	64
16.809699014	128	26	64
16.8148529	144	36	50
16.826834719	144	84	46
16.838751966	128	75	64
16.840736979	128	56	64
16.843477433	144	59	79
16.849316264	128	79	64
16.852150782	144	74	19
16.859156064	144	29	56
16.865131922	144	87	83
16.867786079	128	99	64
16.870242339	144	94	93
16.873486761	144	27	84
16.883750274	128	65	64
16.890434575	144	99	57
16.898648696	144	89	110
16.903157294	128	59	64
16.905320578	144	79	126
16.910885835	144	62	79
16.911144922	128	89	64
16.914290081	144	46	127
16.919571546	128	87	64
16.919833947	128	84	64
16.920015307	128	27	64
16.921493726	144	65	18
16.922618726	128	74	64
16.925332903	144	75	86
16.945454211	128	46	64
16.950485356	128	36	64
16.959103529	144	64	40
16.964701716	128	64	64
16.969159781000002	128	29	64
16.971583566	128	75	64
16.973092422	144	26	87
16.984635963	128	79	64
16.986927232	128	95	64
16.99719394	144	59	75
17.001613478	144	84	45
17.007973739	128	62	64
17.008759241	144	55	81
17.009048124	128	94	64
17.011605418	144	103	53
17.013033253	144	74	113
17.01815648	128	65	64
17.026042351	144	27	84
17.035692613	144	89	110
17.043494875	128	99	64
17.051725341	128	59	64
17.051881873	128	89	64
17.054641877	144	79	127
17.055103412	128	26	64
17.072341189	144	62	79
17.079044722	144	92	114
17.080460357	128	27	64
17.089173088	144	36	47
17.090568987	128	84	64
17.092948718	144	65	21
17.093742337	144	46	127
17.093848443	128	74	64
17.098210768	128	41	64
17.101653434	128	92	64
17.108249513	144	59	73
17.11013015	144	69	69
17.113668162	144	75	85
17.113973395	128	75	64
17.11807259	128	79	64
17.121199556	144	21	68
17.137286996	128	46	64
17.144178949	128	103	64
17.145499312	144	37	124
17.147477763	128	36	64
17.147937056	144	26	83
17.165323334	144	89	112
17.173623096	128	21	64
17.174293841	128	62	64
17.177365506	144	33	57
17.177655738	144	84	46
17.183813223	128	37	64
17.18455057	128	65	64
17.187227407	144	79	126
17.201850596	128	89	64
17.204197026	128	59	64
17.212995783	144	75	86
17.232210198	144	103	53
17.232607153	144	74	112
17.242802252	144	65	19
17.244358784	144	64	42
17.250568604	128	64	64
17.253385267	128	26	64
17.257205527	128	75	64
17.258098967	144	59	69
17.258412463	144	76	90
17.261596442	128	84	64
17.262741173	128	33	64
17.26639781	144	85	70
17.267658304	128	79	64
17.268216152	144	36	45
17.269577502	128	85	64
17.275579675	144	92	110
17.301615892	128	74	64
17.302169625	144	89	113
17.312751732	144	46	127
17.313657721	144	62	79
17.319127261	128	59	64
17.31982595	128	92	64
17.321741511	144	21	66
17.328913466	144	37	116
17.329483695	144	26	80
17.334918295	128	65	64
17.3384402	128	46	64
17.339066048	128	89	64
17.343177942	144	75	85
17.345113851	128	103	64
17.349464269	128	36	64
17.356995776	144	50	1
17.358117266	144	79	124
17.361151595	128	62	64
17.361811622	144	39	51
17.365599385	128	37	64
17.368829584	144	86	56
17.378556947	144	59	67
17.38902444	128	75	64
17.39186552	144	61	1
17.394830611	128	21	64
17.397099422	144	108	60
17.404400243	144	74	113
17.404874183	144	65	21
17.417780086	128	79	64
17.428343257	128	76	64
17.428850628	128	50	64
17.431240497	128	108	64
17.435939602	128	26	64
17.440286701	144	62	80
17.441162137	128	61	64
17.449458517	144	89	111
17.455530262	128	39	64
17.456636219	144	36	43
17.459070535	128	86	64
17.464667615	128	59	64
17.476616461	144	92	105
17.478038829	144	34	48
17.481176063	128	74	64
17.488313621	144	79	122
17.488597563	128	89	64
17.489341902	144	76	89
17.490220946	144	64	60
17.490469597	144	37	113
17.492442526	144	75	87
17.50135819	128	65	64
17.502621152	144	26	72
17.509686611	144	107	70
17.510767536	144	59	63
17.51601882	128	92	64
17.518541177	144	82	61
17.518803128000002	144	60	73
17.519486769	128	62	64
17.521180234	128	75	64
17.530459283	128	37	64
17.538009767	144	61	1
17.558006694	144	74	20
17.558165034	144	50	1
17.558467358	144	86	57
17.562004855	144	32	74
17.56239543	144	108	58
17.562845498	128	107	64
17.567773885	128	36	64
17.571818581	144	65	23
17.57779259	128	76	64
17.585075874	128	34	64
17.590378474	144	85	73
17.595268771	144	89	110
17.59995579	128	108	64
17.607513478	128	82	64
17.609004377	128	74	64
17.612634803	128	50	64
17.613342053	128	59	64
17.615335448	128	64	64
17.619669038	128	61	64
17.627339791	144	62	81
17.630575552	144	21	67
17.636143016	128	79	64
17.636556616	128	89	64
17.643662801	128	86	64
17.65394242	128	85	64
17.6544136	144	37	114
17.655283245	144	36	43
17.662431179	128	60	64
17.662648029	144	59	63
17.663597614	144	75	85
17.668080045	128	65	64
17.672752813	128	75	64
17.677399248	128	37	64
17.694687176	128	21	64
17.698659565	144	107	69
17.702947546	144	61	6
17.706565897	144	37	1
17.711590166	128	36	64
17.712802882	144	108	56
17.714359129	128	59	64
17.719007667	144	68	56
17.719406451	144	74	20
17.724327608	128	62	64
17.725104944	144	86	56
17.725607762	144	50	1
17.728728563	144	90	16
17.735604644	144	89	104
17.738653313	144	65	21
17.749406042	128	108	64
17.755382721	144	105	109
17.757236823	128	107	64
17.758828135	128	37	64
17.763909482	144	59	59
17.768276186	144	82	59
17.771200931	128	74	64
17.776013865	144	75	88
17.777719452	128	61	64
17.779531807	144	103	11
17.786537536	128	89	64
17.78853293	128	68	64
17.790809229	128	50	64
17.792067689	128	82	64
17.805023513000002	128	75	64
17.805797388	144	37	121
17.816744185	128	86	64
17.817113757	128	65	64
17.827612061	144	62	81
17.830121737	144	47	59
17.834624132000002	144	108	64
17.840040096	128	59	64
17.841120849	144	41	127
17.842326746	128	37	64
17.850734748	144	52	50
17.853060652	144	36	43
17.853665556	144	107	70
17.85379247	144	37	7
17.854347369	128	26	64
17.856047949	128	90	64
17.872030399	144	33	53
17.875158057	128	108	64
17.87627916	144	98	68
17.876491903	128	98	64
17.876916267	144	74	20
17.877660563	144	89	104
17.887093457	144	65	20
17.888301969	144	46	127
17.892299622	144	61	15
17.892564925	144	86	53
17.897569236	128	37	64
17.903065094	144	50	1
17.9066945	128	47	64
17.920575309	144	59	55
17.921000965	128	62	64
17.926635992	128	52	64
17.928297988	128	107	64
17.934289357	128	105	64
17.93477072	144	39	58
17.938321983	144	82	57
17.940395927	128	89	64
17.942006261	128	74	64
17.944298545	128	61	64
17.949738789	128	36	64
17.954021933	144	75	86
17.956236015	128	75	64
17.957794979	144	90	27
17.963443813	128	50	64
17.967710973	144	26	59
17.969430073	144	37	125
17.972692205	128	82	64
17.974110682	128	59	64
17.975252495	128	86	64
17.983998178	128	65	64
17.984214203	144	74	112
17.984387565	128	33	64
17.987114561	128	46	64
18.003746454	128	39	64
18.008283373	128	37	64
18.008355392	144	37	30
18.024934604	128	37	64
18.027292754	144	62	82
18.028187548	144	56	92
18.037011395	144	89	110
18.040398048	144	65	21
18.042714649	144	59	56
18.045213102	128	26	64
18.056312337	128	90	64
18.056858891	144	37	65
18.061823713	128	74	64
18.067526184	144	21	65
18.071508195	144	50	1
18.075238507	128	89	64
18.080119588	144	99	57
18.088414316	144	61	32
18.092813684	144	46	127
18.099787847	144	75	83
18.102119444	128	56	64
18.102175544	144	56	61
18.105296137	128	75	64
18.106003342	128	32	64
18.110821201	144	39	58
18.114438168	128	37	64
18.122166408	128	59	64
18.122741883	144	64	54
18.124799955	128	62	64
18.129444209	128	21	64
18.129670022	128	61	64
18.134323111	128	64	64
18.134647198	128	65	64
18.142659056	144	101	121
18.143868812	128	50	64
18.146980219	128	56	64
18.147039536	144	56	26
18.149710182	144	82	58
18.15458492	144	37	121
18.154727611	128	37	64
18.15718559	144	90	29
18.158304641	144	74	113
18.162225517	144	47	52
18.162663324	144	60	82
18.168325585	144	37	36
18.171956625	128	82	64
18.172397391	144	106	47
18.172638617	144	89	111
18.177453698	128	37	64
18.187313359	128	39	64
18.193893961	144	59	55
18.204712201	128	46	64
18.206624819	144	62	81
18.208405725	144	65	23
18.213530305	144	75	83
18.223990703	128	89	64
18.229601653	128	47	64
18.234004491	144	61	52
18.240435315	128	74	64
18.246484199	128	56	64
18.257325309	144	50	1
18.257524093	128	75	64
18.261135528	144	97	1
18.262045768	128	101	64
18.262648477	144	48	63
18.266392968	144	37	33
18.268553288	128	69	64
18.273711822	128	90	64
18.274327183	128	59	64
18.275297946	128	60	64
18.276254684	144	73	57
18.278145556	144	82	60
18.279344454	128	106	64
18.284000283	144	46	127
18.290213244	128	61	64
18.295297505	144	56	92
18.300858178	128	65	64
18.3039791	128	62	64
18.304471376	128	37	64
18.304683037	144	37	118
18.306166878	144	86	45
18.306576963	128	50	64
18.307911189	128	56	64
18.307950405	144	56	44
18.308288871	128	37	64
18.321853564	144	59	57
18.324266267	144	37	71
18.328736099	144	74	113
18.329102704	144	89	111
18.334951827	144	87	61
18.339988116	128	82	64
18.343705776	128	48	64
18.361080749	144	75	79
18.367637657	144	61	65
18.372473562	144	101	124
18.373913238	144	90	31
18.380233623	128	89	64
18.380930224	128	37	64
18.381763351	128	97	64
18.388987187	128	75	64
18.390949439	144	62	83
18.392115163	128	56	64
18.39931268	128	86	64
18.400391238	128	46	64
18.407011012	144	37	36
18.409378816	128	74	64
18.427446267	128	59	64
18.428065947	144	56	55
18.433311172	128	37	64
18.433880849	144	50	1
18.439249412	128	56	64
18.439296367	144	56	35
18.441835869	144	37	120
18.443330217	144	105	109
18.443586513	144	82	60
18.448339137	128	61	64
18.454274841	144	70	1
18.455753291	128	37	64
18.457882845	128	90	64
18.458465439	128	41	64
18.470861053	128	62	64
18.471726975	144	37	73
18.472995952	144	47	51
18.481656525000002	144	59	55
18.482924323	128	101	64
18.489107926	144	74	113
18.489347047	144	46	127
18.493519255	144	89	102
18.500535763	128	37	64
18.505353081	128	82	64
18.507530897	128	50	64
18.516579441	128	56	64
18.521679826	144	56	93
18.535086507	144	75	84
18.535208938	128	75	64
18.536405476	128	89	64
18.546742668	144	101	126
18.549989969	128	59	64
18.567445688	128	74	64
18.567507246	128	47	64
18.570444999	144	37	35
18.570624707	128	37	64
18.572870459	144	62	82
18.574580692	128	56	64
18.574633775	144	56	30
18.601163526	144	50	1
18.602361007	128	46	64
18.606917096	128	87	64
18.612079381	128	105	64
18.617424086	128	101	64
18.632420998	144	59	57
18.633916692	128	103	64
18.639560647	144	37	70
18.642109877	128	37	64
18.652344087	144	82	59
18.653748291	144	89	97
18.655176761	144	105	108
18.655506131	144	67	127
18.664493997	128	56	64
18.664567626	144	56	31
18.668790389	144	23	66
18.669699351	128	50	64
18.671389261	128	62	64
18.673222066	128	82	64
18.675710651	144	37	33
18.685086191	144	46	127
18.689799259	128	67	64
18.696038703	128	59	64
18.704573687	128	89	64
18.710385337	144	86	39
18.710702985	128	37	64
18.723071035	128	56	64
18.723137452	144	56	62
18.726867444	144	74	42
18.735953691	144	37	69
18.750740697	144	67	127
18.756568274	144	62	83
18.757790684	144	43	63
18.760909319	128	74	64
18.761059452	144	59	56
18.764627178	128	37	64
18.77290065	144	37	36
18.777756542	144	82	58
18.778296036	144	76	84
18.778543347	128	76	64
18.782023323	128	105	64
18.783099447	144	50	1
18.783588568	128	43	64
18.784402619	128	46	64
18.785783259	144	103	115
18.793574615	128	86	64
18.801811998	144	76	90
18.811315133	128	37	64
18.823661468	144	34	46
18.828792348	128	67	64
18.840962859	128	82	64
18.847848623	144	94	56
18.853830249	144	21	65
18.854183687	128	59	64
18.854481618	128	62	64
18.854957972	144	89	121
18.855191264	128	56	64
18.856817966	128	50	64
18.859820435	128	76	64
18.869210289	144	56	99
18.884104063	144	43	61
18.888578036	144	64	56
18.893515306	144	74	41
18.896209789	128	64	64
18.900857603	144	86	43
18.910651520000002	144	59	56
18.912295301	144	36	55
18.915600388	144	67	127
18.916896598	128	56	64
18.916933441	144	56	31
18.923266418	128	21	64
18.924843597	144	98	67
18.930132505	128	43	64
18.933994337	128	103	64
18.935967934	144	68	56
18.945587378	144	42	86
18.948444281	144	82	58
18.951261623	144	105	107
18.956816256	128	74	64
18.957732439	144	62	84
18.957951659	128	89	64
18.958434057	128	94	64
18.962445893	128	98	64
18.965403354	128	36	64
18.96571755	144	50	1
18.967065524	128	105	64
18.968249927	128	34	64
18.976144232	128	42	64
18.97795116	128	86	64
18.978774507	128	67	64
18.994176373	144	47	2
19.007312185	128	68	64
19.008319999	128	82	64
19.010209564	144	76	88
19.010432288	128	59	64
19.013503572	128	56	64
19.013551805	144	56	58
19.013942342	144	89	69
19.0152464	144	43	62
19.025478281	144	103	118
19.034193945	128	62	64
19.03431502	128	50	64
19.03734652	144	78	64
19.03857409	128	76	64
19.050195136	144	67	127
19.050556762	144	74	40
19.052567378	128	89	64
19.065052038	144	59	58
19.080828005	128	43	64
19.083701547	144	86	46
19.101663329	128	78	64
19.112154362	128	67	64
19.113633436	144	48	63
19.119297904	144	62	85
19.122524969	144	105	104
19.127420246	128	56	64
19.12925578	128	74	64
19.138982813	128	59	64
19.140559701	144	89	90
19.146690581	144	50	1
19.151051502	128	103	64
19.152528241	144	42	86
19.152854104	128	86	64
19.15326695	144	82	58
19.166048041	128	89	64
19.182259565	144	43	61
19.182948942	144	56	94
19.190511316	128	82	64
19.1939974	128	42	64
19.205004687	144	89	55
19.214075006	128	50	64
19.218887756	128	62	64
19.220048009	144	103	123
19.222445925	128	48	64
19.226172211	144	52	52
19.228546502	128	43	64
19.229351773	144	76	86
19.229536626	128	76	64
19.230736471	144	74	39
19.231507925	144	59	52
19.249440245	128	89	64
19.27391927	144	44	57
19.27587828	128	59	64
19.289879812	128	105	64
19.291465399	144	76	87
19.293936618	144	37	42
19.294587735	144	42	84
19.295734911	128	74	64
19.303588184	144	89	90
19.308066074	144	84	52
19.30837107	144	82	57
19.318037227	144	43	61
19.320601186	144	62	85
19.33682347	128	103	64
19.342461355	128	52	64
19.342796761	128	37	64
19.349328954	144	46	127
19.349855382	128	89	64
19.353235348	128	56	64
19.357586842	144	59	53
19.359668931	128	42	64
19.361708775	144	30	12
19.367508644	144	74	117
19.374969826	128	82	64
19.380269551	128	43	64
19.380767071	128	44	64
19.381205054	144	89	55
19.384681416	144	104	71
19.388868715	144	103	123
19.393379394	128	74	64
19.403998171	144	56	63
19.409253057	144	86	52
19.420256031	128	62	64
19.42465945	128	89	64
19.430811686	144	37	49
19.445623864	128	104	64
19.445992906	128	46	64
19.447012988	128	59	64
19.449838694	144	43	61
19.449962848	128	76	64
19.450346345	144	76	84
19.4630919	128	70	64
19.470050498	144	89	92
19.474626294	128	23	64
19.476435004	128	99	64
19.484241668	128	37	64
19.497107289	144	74	118
19.498478089	144	59	53
19.502469097	144	42	83
19.508175067	128	103	64
19.513806746	128	89	64
19.515157152	144	21	63
19.51637259	128	76	64
19.519732431	144	82	57
19.520207207	128	86	64
19.523210476	144	62	85
19.52892878	128	43	64
19.533749288	128	56	64
19.533820231	144	56	95
19.543092366	128	42	64
19.543438348	128	47	64
19.549046912	144	46	127
19.554029313	144	27	84
19.555887215	128	82	64
19.556221335	144	89	59
19.562813339	128	74	64
19.565142893	144	103	122
19.570768841	128	27	64
19.582780145	144	40	43
19.585767311	144	45	55
19.597826065	144	83	28
19.598732313	128	89	64
19.601701751	128	59	64
19.602573063	128	21	64
19.604342049	128	62	64
19.605319912	144	98	69
19.60710468	144	36	56
19.616886957	144	43	60
19.633136291	144	89	99
19.635094287	128	46	64
19.635940647	144	74	31
19.644952444	144	42	82
19.662569698	144	82	57
19.668069889	128	83	64
19.669758326	144	27	89
19.670069307	144	76	83
19.670372106	128	76	64
19.673720541	128	103	64
19.680281437	128	43	64
19.680569729	128	40	64
19.687740671	128	89	64
19.689030549	144	23	56
19.695105034	144	108	53
19.697778211	128	74	64
19.704637401	128	56	64
19.704708524	144	56	64
19.706187905	144	62	87
19.70966631	128	42	64
19.714300813	128	36	64
19.714377043	128	98	64
19.724576816	128	82	64
19.725948865	144	89	67
19.729448189	144	46	127
19.731044401	128	108	64
19.733515396	128	27	64
19.742139535	144	105	107
19.742435984	144	74	119
19.752167554	144	47	93
19.753691947	128	89	64
19.766171369	144	43	60
19.793671233	128	56	64
19.800657282	144	89	104
19.808088568	128	74	64
19.816211344	144	22	87
19.819828884	128	62	64
19.82169028	144	27	90
19.824264246	128	46	64
19.82512064	144	25	63
19.827155480000002	144	42	79
19.830276268	128	43	64
19.832509217	128	47	64
19.85266698	144	36	54
19.858538731	128	105	64
19.859213212	144	82	56
19.861989472	144	32	61
19.862179618	128	32	64
19.863799125	144	74	32
19.867174051	128	89	64
19.868881049	144	43	59
19.869730856	144	100	50
19.872606902	144	56	64
19.875392034	128	25	64
19.876032347	128	42	64
19.88588968	128	27	64
19.888895125	144	76	84
19.889097691	128	76	64
19.907177826	144	62	87
19.907815431	144	89	70
19.914133097	128	74	64
19.916533507	144	46	127
19.918539278	128	56	64
19.918617375	144	56	91
19.923004917	128	82	64
19.926788656	144	103	117
19.933251272	128	36	64
19.938596405	144	76	83
19.938997782	144	51	3
19.943298363	144	58	45
19.944527922	128	89	64
19.95681922	144	74	119
19.960568997	144	105	106
19.963243754	128	43	64
19.969104482	144	47	95
19.971047207	144	101	15
19.97160398	144	89	106
19.978126373	144	42	71
19.986906358	144	64	57
19.994466008	144	34	48
19.995464649	128	64	64
20.003675589	128	62	64
20.012446694	144	70	6
20.013825145	144	86	52
20.015507063	128	46	64
20.029932825	128	89	64
20.036192888	128	105	64
20.039886879	144	48	64
20.042726771	128	47	64
20.043134124	128	42	64
20.047593733	128	74	64
20.057859058	128	58	64
20.058834207	144	94	98
20.059522114	128	101	64
20.067462447	144	82	55
20.067870699	128	94	64
20.069423776	144	89	71
20.069600268	144	36	52
20.080885334	128	51	64
20.088658878	144	74	33
20.089246292	144	62	87
20.091686391	144	26	28
20.094836061	128	89	64
20.095883986	128	103	64
20.098109802	128	76	64
20.099253073	128	34	64
20.107249521	128	82	64
20.108988162	144	46	127
20.109541554	128	86	64
20.121702166	128	56	64
20.121787973	144	56	59
20.12537144	128	74	64
20.137067688	144	76	81
20.1375698	144	105	105
20.146908057	128	36	64
20.14956753	144	89	107
20.154562309	128	23	64
20.164576893	144	58	43
20.164856099	128	48	64
20.167061627	144	47	103
20.168764017	144	74	120
20.180371284	128	26	64
20.184071039	144	103	121
20.186077552	128	62	64
20.186495766	128	45	64
20.187388586	144	42	72
20.190477009	128	46	64
20.195321468	144	39	104
20.204867465	128	89	64
20.207869554	128	100	64
20.208486996	128	42	64
20.235160088	128	74	64
20.237869723	128	105	64
20.242040776	144	82	55
20.243299243	144	89	71
20.244302769	128	47	64
20.257588122	128	58	64
20.267537735	128	89	64
20.271445194000002	128	39	64
20.272891898	144	62	88
20.275355964	144	74	33
20.295650633	144	51	1
20.300096472	128	82	64
20.300268646	128	74	64
20.300336784	128	103	64
20.312810402	128	56	64
20.312890587	144	56	91
20.313560928	144	89	105
20.318356002	128	76	64
20.319384309	144	76	75
20.319610484000002	144	36	51
20.32342245	144	105	105
20.338948828	144	26	32
20.343644482	144	58	46
20.354682278	128	62	64
20.360210417	144	61	103
20.364865802	144	57	32
20.368041804	128	57	64
20.370446295	128	89	64
20.375121045	144	40	39
20.377931351	128	76	64
20.379116205	144	68	55
20.38081784	128	36	64
20.396051959	144	47	121
20.406941196	144	89	70
20.408708053	144	74	33
20.414961563	128	55	64
20.417296219	128	51	64
20.418143334	144	99	58
20.422869281	128	105	64
20.423183742	128	58	64
20.42447648	128	26	64
20.431642342	128	89	64
20.437605723	128	68	64
20.445612375	128	61	64
20.451384277	144	82	55
20.456948254	144	62	87
20.466149262	128	40	64
20.474144643	128	74	64
20.47422503	144	74	121
20.478093079	128	47	64
20.483268463	144	21	63
20.488575287	128	84	64
20.491064011	128	82	64
20.493889944	128	56	64
20.493957011	144	56	68
20.509875559	144	105	104
20.512734439	128	74	64
20.514347747	144	58	45
20.516239951	144	64	57
20.519960056	144	93	100
20.525674268	128	64	64
20.530151648	144	108	53
20.532922281	128	21	64
20.535407579	128	62	64
20.537478745	144	76	74
20.557652368	128	108	64
20.564951387	144	100	48
20.565699940000002	128	76	64
20.571783968	144	40	38
20.589155468	144	79	2
20.589753305	144	47	127
20.591239864	128	58	64
20.605499549	128	105	64
20.608520614	144	82	56
20.619069386	144	74	34
20.62075245	144	62	87
20.624659402	128	79	64
20.624808699	128	30	64
20.637332442	128	93	64
20.644608597	128	40	64
20.657964568	128	74	64
20.658055176	144	74	122
20.669453662	144	21	64
20.669721321	144	61	109
20.6735162	128	47	64
20.673652965	128	82	64
20.692320356	144	105	105
20.69775099	128	74	64
20.706672094	128	21	64
20.708004644	144	104	74
20.715411584	144	86	60
20.720261133	128	62	64
20.72237179	128	100	64
20.724010829	144	58	45
20.725170109	144	30	120
20.727687704	144	79	2
20.73135135	144	26	38
20.737489921	144	29	61
20.737862928	144	37	127
20.745751761	144	40	40
20.758026	128	56	64
20.758377863	144	76	72
20.758540195	128	76	64
20.761523032	128	37	64
20.779374606	128	104	64
20.781285963	144	74	35
20.789018201	128	105	64
20.793658288	128	61	64
20.794000163	128	29	64
20.799800384	128	86	64
20.803689182	128	79	64
20.808628145	144	47	126
20.809751312	144	51	1
20.818486208	144	82	56
20.818834803	128	74	64
20.818873849	144	74	122
20.827338363	128	26	64
20.829158504	128	40	64
20.8324898	144	84	55
20.840357075	128	30	64
20.843194542	144	21	65
20.847520846000002	144	76	74
20.849206736	144	103	30
20.870053329	144	86	52
20.871171722	128	74	64
20.872426369	144	79	7
20.873746129	144	105	104
20.874390828	128	82	64
20.88202881	128	47	64
20.891305983	144	37	121
20.892910557	128	21	64
20.893895526	128	58	64
20.901452901	144	104	73
20.909472296	144	30	116
20.90964723	128	70	64
20.910581263	144	40	41
20.915751918	128	51	64
20.93480388	128	37	64
20.943091617	128	86	64
20.949476931	128	73	64
20.95237956	128	79	64
20.954386925	128	105	64
20.959700813	144	24	58
20.968542869	128	76	64
20.975820274	128	104	64
20.980172209	144	45	57
20.982305374	128	40	64
20.989957745	128	103	64
20.999063286	144	26	47
21.005410868	144	47	127
21.006390722	128	30	64
21.019865375	144	82	56
21.022396256	144	51	1
21.032392511	144	74	123
21.04366756	144	105	105
21.055303284	144	37	112
21.058081789	144	92	110
21.058767614	144	90	45
21.059143338	144	86	43
21.079687737	128	82	64
21.080191865	144	103	28
21.082051522	144	55	84
21.085115105	128	26	64
21.089078621	128	24	64
21.094315159	128	92	64
21.09633701	128	86	64
21.096537608	144	79	6
21.100118772	128	47	64
21.100586897	144	40	39
21.110756984	128	37	64
21.111302578	144	34	48
21.111898896	128	74	64
21.113688349	128	51	64
21.116843785	144	72	112
21.116983908	128	72	64
21.12073708	128	105	64
21.121427696	144	100	48
21.151660259	128	79	64
21.157155434	128	90	64
21.178655064	144	39	41
21.20481515	128	103	64
21.204909453	128	40	64
21.208281202	144	51	1
21.211466625	144	86	52
21.214264748	144	37	115
21.216020739	144	74	124
21.222377262	144	79	5
21.223212224	144	47	125
21.223680578	144	82	56
21.224516215	144	26	57
21.235073828	144	92	112
21.256857616	128	34	64
21.260043242	128	37	64
21.265837677	144	89	67
21.266017051	128	92	64
21.270623863	128	100	64
21.273263406	128	82	64
21.275553591	144	101	13
21.275731241	128	101	64
21.287763177	144	72	113
21.287961431	128	72	64
21.288312162	144	40	41
21.298203864	128	74	64
21.302176785	128	79	64
21.306923246	144	103	19
21.307012283	128	26	64
21.307703174	128	51	64
21.308609358	144	72	110
21.308991923	144	90	42
21.313801284	128	89	64
21.319174866	128	47	64
21.334036137	128	86	64
21.355922609	144	30	118
21.356397277	144	89	99
21.370791697	128	90	64
21.375867937	144	79	7
21.383005682	144	74	123
21.387237811	128	40	64
21.391833196	128	89	64
21.392072813	144	82	57
21.39221055	144	37	120
21.40632368	144	47	123
21.408694249	144	51	1
21.410908255	144	26	64
21.420298485	128	103	64
21.429306646	128	37	64
21.434433794	144	89	59
21.43790212	144	92	112
21.444072935	144	93	95
21.447121948	128	92	64
21.452515873	128	79	64
21.457670026	128	72	64
21.457927027	144	72	109
21.458253472	144	40	42
21.459712341	144	86	68
21.462850284	128	26	64
21.47204909	128	89	64
21.473504562	128	82	64
21.474760367000002	128	86	64
21.476355616	144	107	87
21.477508252	128	99	64
21.484632998	128	74	64
21.490703659	128	30	64
21.503095185	128	47	64
21.505488195	128	72	64
21.505932422	128	51	64
21.506275728	144	95	64
21.515938614	144	89	96
21.52222766	144	79	9
21.522654515	144	37	127
21.525405349	144	90	43
21.525697613	144	103	14
21.531029837	144	75	64
21.537548001	128	75	64
21.539972453	128	45	64
21.541121804	128	95	64
21.545627558	144	74	124
21.547347175	144	33	63
21.548891462	144	108	62
21.5523131	128	93	64
21.557169808	128	108	64
21.557968372	144	30	118
21.565077661	144	62	79
21.566359927	128	89	64
21.569450015	128	40	64
21.57304633	128	107	64
21.574444704	128	37	64
21.576155522	144	57	113
21.582345285	144	26	70
21.58741655	128	90	64
21.588479716	144	92	115
21.591715491	128	57	64
21.594424559	128	33	64
21.60185532	144	51	1
21.602196852	128	79	64
21.607226103	144	89	57
21.615476147	128	26	64
21.615826279	128	92	64
21.619121582	144	82	57
21.627654377	144	72	110
21.627778693	128	72	64
21.631449653	144	40	41
21.639838041	128	89	64
21.648550903	128	74	64
21.651119583	128	103	64
21.658535134	144	79	10
21.663194467	144	64	45
21.672704768	128	64	64
21.673837762	128	82	64
21.674036897	144	72	110
21.675429095	128	62	64
21.676329034	144	89	96
21.681134924	144	76	89
21.682595625	144	27	91
21.688100863	128	39	64
21.689485122	128	30	64
21.6905714	144	37	127
21.693815266	128	51	64
21.702925	144	59	64
21.713668521	144	86	71
21.725599351	128	27	64
21.726647685	128	37	64
21.729919828	144	103	13
21.735088558	128	79	64
21.737927143	144	26	90
21.738151211	128	89	64
21.740734873	144	33	61
21.741916973	144	74	127
21.742334376	128	40	64
21.761208612	128	86	64
21.764918802	128	59	64
21.768014245	144	21	65
21.776077264	144	70	31
21.783774908	144	89	59
21.78420641	144	51	1
21.787908212	128	26	64
21.788305901	144	79	15
21.798816763	128	72	64
21.808199054	128	89	64
21.810122962	144	100	48
21.820725921	144	40	42
21.82542548	144	72	108
21.830321586	128	33	64
21.837070878	128	21	64
21.839443777	144	37	127
21.842939882	128	103	64
21.84932356	144	27	87
21.849440424	128	74	64
21.849706129	144	89	96
21.855930877	144	59	58
21.869133056	128	79	64
21.869232567	128	51	64
21.869853341	144	42	48
21.879844017	128	37	64
21.895736868	128	27	64
21.899907121	128	89	64
21.909241686	144	86	65
21.909828747	144	103	12
21.915353171	128	40	64
21.918291567	128	59	64
21.921180948	144	75	71
21.921969012	144	74	127
21.929253915	128	75	64
21.938911712	144	47	118
21.939581351	144	98	72
21.939902076	144	89	56
21.940454175	144	33	58
21.949179464	128	84	64
21.959748372	144	61	124
21.967557512	128	72	64
21.975352198	128	100	64
21.976080231	144	51	1
21.97969946	128	89	64
21.98150112	144	37	127
21.988617105	128	98	64
21.99895623	144	27	80
22.006275793	144	40	43
22.007566851	128	74	64
22.009528399	144	59	59
22.012748264	128	103	64
22.014007054	128	47	64
22.023961502	144	89	95
22.029888998	128	37	64
22.034611417	128	86	64
22.034712134	128	33	64
22.065807417	128	32	64
22.075426747	128	27	64
22.075517698	144	101	44
22.075662864	144	103	15
22.075749732	128	59	64
22.075804661	128	51	64
22.077460891	128	89	64
22.083447995	128	101	64
22.091102757	144	64	45
22.097657444	128	76	64
22.102451422	128	42	64
22.114485315	144	86	62
22.114604472	144	89	56
22.116445273	144	92	115
22.117992514	128	64	64
22.139936548	144	33	58
22.140285473	144	59	59
22.14120323	144	64	46
22.141377234	128	64	64
22.141638235	144	27	83
22.145516429	144	37	127
22.145929903	144	25	62
22.14745957	144	51	1
22.153905151	128	89	64
22.155954948	128	40	64
22.156736248	144	74	28
22.170471242	128	103	64
22.173927587	144	47	116
22.175495499	128	59	64
22.194967282	128	37	64
22.198400751	144	40	44
22.198839276	144	89	96
22.203255407	128	86	64
22.20352897	128	27	64
22.20949757	144	79	126
22.216608264	128	25	64
22.229531449	144	108	65
22.229844491	144	101	52
22.232939983	128	74	64
22.23907107	144	67	127
22.244220538	128	47	64
22.245302524	128	33	64
22.250395818	144	103	19
22.255249168	128	89	64
22.256534363	128	67	64
22.266182444000002	144	59	60
22.267730486	128	51	64
22.2848468	128	101	64
22.28583912	128	108	64
22.286330157	144	75	45
22.288606019	144	89	57
22.29131151	128	92	64
22.296291683	144	37	127
22.30039285	144	21	63
22.302925405	128	79	64
22.303196573	128	40	64
22.304277957	144	98	69
22.308008539	128	75	64
22.309319467	144	86	64
22.317539513	144	92	112
22.325871571	144	25	61
22.328351193	128	89	64
22.336527491	144	60	69
22.336689592	144	67	127
22.341491435000002	144	74	30
22.349262574	144	33	57
22.353833692	128	37	64
22.362163867	128	103	64
22.365348108	128	25	64
22.365514718	144	45	52
22.36631141	128	21	64
22.367587317999998	128	59	64
22.3679304	144	89	95
22.368544714	144	47	117
22.372104471	128	98	64
22.376548685	128	86	64
22.379258114	128	67	64
22.383771171	144	51	1
22.390095854	144	101	73
22.392354886	144	79	127
22.392956182	128	60	64
22.393551629	144	40	44
22.39484764	144	62	79
22.395200879	144	34	51
22.404385829	128	74	64
22.406747397	128	89	64
22.416945069	128	51	64
22.417764517	144	59	59
22.429991481	128	101	64
22.431988711	144	103	28
22.439322309	128	47	64
22.441864376	144	106	64
22.445709954	128	33	64
22.447664238	144	89	57
22.451827196	128	79	64
22.457801561	144	93	89
22.462465864	144	37	127
22.464835897	144	67	127
22.465778948	128	92	64
22.472477494	128	45	64
22.478511186	144	39	75
22.48048683	128	59	64
22.487489848	144	86	66
22.492987389	144	92	112
22.498923435000002	144	64	47
22.499337591	128	34	64
22.502443139	144	25	62
22.503781795	128	70	64
22.504237824	128	64	64
22.508486676	128	40	64
22.508815406	128	62	64
22.509583633	144	74	30
22.510362288	128	37	64
22.512676945	128	67	64
22.515099713	144	101	93
22.515808026	128	89	64
22.515964066	144	21	62
22.517960269	144	53	63
22.52431383	128	86	64
22.53362729	128	103	64
22.534158616	128	55	64
22.537115343	144	51	1
22.538090379	144	79	127
22.538649431	144	47	117
22.54957427	144	33	56
22.555214324	144	89	95
22.55671464	128	25	64
22.563625611	144	59	61
22.573036285	144	34	52
22.573531772	128	21	64
22.57835255	128	101	64
22.582184976	144	107	87
22.585834042	128	93	64
22.585917865	128	89	64
22.587523269000002	128	39	64
22.592270495	128	74	64
22.601947041	144	103	36
22.608844458	144	100	48
22.618786297	128	79	64
22.62261596	128	47	64
22.625845357	144	37	127
22.627670277	128	33	64
22.628022796	128	59	64
22.631900076	144	40	44
22.633929368	144	89	55
22.637022662	144	25	61
22.642507873	128	92	64
22.644879486	144	102	53
22.649634924	128	51	64
22.652584865	144	101	109
22.656782941	128	102	64
22.659410954	128	107	64
22.661087444	128	53	64
22.663229744	128	37	64
22.669753841	128	40	64
22.675873441	144	70	103
22.681853611	144	85	51
22.684302018	144	59	59
22.689597941	128	25	64
22.689869476	144	79	127
22.693934133	128	100	64
22.701918631	128	89	64
22.702843575	128	103	64
22.704060726	128	101	64
22.704795092	144	75	72
22.710918586	144	51	1
22.714055114	144	21	61
22.717435234	128	34	64
22.720628292	128	106	64
22.725451839	128	75	64
22.730997964	144	39	75
22.745297945	144	99	55
22.747020227	144	47	115
22.755249312	144	34	52
22.755531293	144	37	127
22.763692256	128	21	64
22.764388712	144	98	72
22.767975354	128	79	64
22.770932551	144	78	103
22.771699078	144	25	61
22.776876972	144	101	127
22.777697318	128	59	64
22.783525519	144	103	42
22.791407652	144	64	48
22.797245649	128	64	64
22.801777085	144	86	72
22.801929305	128	86	64
22.808802952	128	37	64
22.820531205	128	39	64
22.822565132	128	51	64
22.826444989	144	59	56
22.829161414	128	47	64
22.829906318	128	85	64
22.837364765	144	79	127
22.8378552	144	45	49
22.841140129	144	42	86
22.849087764	128	34	64
22.852419439	128	70	64
22.863261903	144	83	104
22.871874299	128	25	64
22.87259302	144	21	60
22.874020151	128	22	64
22.875986593	128	98	64
22.890482551	128	103	64
22.892917438	128	42	64
22.895770836	128	59	64
22.903503835	144	34	52
22.910769959	128	83	64
22.918482186	128	45	64
22.918679566	128	79	64
22.926542024	144	102	47
22.927999918	144	47	115
22.941767756	128	21	64
22.942002263	144	51	1
22.948150614	144	25	62
22.950489324	144	76	88
22.955028484	128	101	64
22.965773204	144	103	51
22.97227356	144	59	55
22.972548273	144	79	127
23.002291452	144	86	80
23.002723526	128	25	64
23.013301733	128	47	64
23.019046058	144	101	100
23.021989206	144	26	41
23.026767769	128	76	64
23.035936941	128	51	64
23.042819807	128	59	64
23.043667629	144	33	64
23.045265404	128	103	64
23.047942449	128	61	64
23.054850029	128	34	64
23.061385983	128	102	64
23.066921954	128	86	64
23.067334284	128	79	64
23.070634644	128	101	64
23.075554126	144	64	47
23.084660446	128	64	64
23.086104799	144	34	52
23.090590413	144	21	64
23.095561509	144	27	70
23.098664905	144	47	116
23.102135845	144	98	53
23.111679659	128	26	64
23.123945791	144	103	57
23.124146199	144	70	116
23.125798175	144	59	55
23.13431605	128	27	64
23.137518072	144	79	127
23.145915188	128	33	64
23.147915095	144	51	2
23.152482136	128	21	64
23.156094086	144	101	72
23.168656735	144	100	49
23.183060845	128	47	64
23.184740272	128	59	64
23.193281819	128	98	64
23.201131298	128	79	64
23.214143628	144	86	66
23.214984061	128	103	64
23.221703356	128	101	64
23.227681221	128	34	64
23.242157314	144	59	53
23.246613191	144	74	63
23.266368047	144	27	69
23.267886189	144	34	52
23.268113108	144	98	71
23.26941786	128	100	64
23.27050257	144	105	78
23.270809584	144	101	54
23.275177783	128	51	64
23.284889979	128	86	64
23.288699364	144	79	127
23.30104411	128	59	64
23.301703212	128	27	64
23.306912664	144	103	67
23.335124902	144	62	84
23.337433652	144	51	2
23.342167554	128	98	64
23.343851469	144	56	95
23.363446471	128	34	64
23.36752575	128	79	64
23.367844257	144	64	47
23.372881879	128	64	64
23.373879261	128	56	64
23.37394732	144	56	94
23.379081052	144	33	47
23.384300908	144	59	53
23.386233674	144	86	58
23.390407366	128	105	64
23.396736425	128	103	64
23.42893852	144	34	52
23.437724471	144	79	127
23.442799649	128	62	64
23.443416467	128	59	64
23.445190885	128	51	64
23.446280477	144	98	52
23.446848494	144	37	124
23.46353953	128	86	64
23.47630654	128	33	64
23.480437109	144	27	64
23.486086804	144	108	29
23.488173717	144	103	76
23.501681611	128	79	64
23.507065511	144	76	92
23.507143302	128	37	64
23.50924914	144	93	94
23.511666188	144	59	49
23.52512679	128	98	64
23.525200257	144	98	72
23.526497473	128	98	64
23.530875113	128	34	64
23.535800651	144	26	32
23.543780191	128	27	64
23.552023196	144	86	49
23.578037288	128	101	64
23.582461424	128	56	64
23.582543204	144	56	111
23.5868521	144	34	52
23.589628688	128	103	64
23.594221154	144	51	2
23.595781695	128	59	64
23.604296941	128	76	64
23.605613992	144	79	127
23.619846993	128	78	64
23.62736802	128	93	64
23.627626224	128	86	64
23.636104859	128	26	64
23.651416335	128	79	64
23.669118273	144	107	90
23.670180999	144	103	85
23.674691339	144	98	71
23.674872729	144	64	51
23.679174747	144	25	65
23.681791849	128	64	64
23.681914741	144	101	52
23.688169806	128	101	64
23.697054642	144	76	95
23.704730295	128	51	64
23.708698555	128	74	64
23.709725468	144	102	45
23.7120303	128	98	64
23.714854744	128	34	64
23.725078	144	57	13
23.740525009	128	56	64
23.742348544	144	98	54
23.750019774000002	128	107	64
23.75524399	144	79	127
23.770487263	144	34	52
23.77125147	128	25	64
23.776997026	128	98	64
23.777337676	144	56	101
23.783873685	144	101	73
23.785383443	128	103	64
23.788715818	128	76	64
23.818088879	128	79	64
23.821187316	128	102	64
23.82506178	128	101	64
23.841515610000002	144	44	80
23.841906831	128	56	64
23.848488242	144	107	88
23.852483036	144	56	36
23.854035305	144	103	94
23.868285161	144	26	29
23.870826492	144	51	3
23.891630453	144	76	96
23.897269401	128	107	64
23.898181505	144	101	98
23.898277406	128	56	64
23.912314794	128	34	64
23.921454482	144	37	125
23.958517132	128	26	64
23.960057445	144	79	127
23.96120126	144	58	53
23.965027413	128	108	64
23.965159092	128	103	64
23.972583886	128	44	64
23.974255365	128	37	64
23.978462177	144	53	64
23.97864974	144	107	88
23.980094581	128	51	64
23.981683952	144	84	48
23.982974141	128	76	64
23.983931212	128	79	64
23.985323145	144	34	53
23.997197994	144	98	54
24.012039295	144	62	82
24.037132668	144	60	74
24.044489573	144	56	43
24.048354789	144	103	102
24.063655999	128	34	64
24.068049987	128	107	64
24.069127055	128	101	64
24.070361128	144	25	59
24.070683273	144	79	127
24.078566096	128	98	64
24.080558945	128	58	64
24.081322478	144	26	36
24.091205875	144	54	50
24.092088087	144	37	123
24.098022294	128	54	64
24.108203318	128	62	64
24.110491609	128	56	64
24.1132905	128	70	64
24.120802797	128	53	64
24.126960067	128	60	64
24.134362895	128	79	64
24.134601446	128	84	64
24.140242259	128	37	64
24.140648444	144	101	121
24.141004674	144	24	59
24.15888164	128	103	64
24.164617383	128	26	64
24.166112281	144	51	3
24.175934954	144	63	75
24.177627089	144	74	53
24.182343558	128	25	64
24.19691049	128	101	64
24.211634842	144	62	83
24.213619015	144	56	36
24.226720014	144	33	51
24.237359937	144	79	127
24.237992435	144	103	110
24.262639516	128	24	64
24.267173911	144	101	117
24.267957962	144	78	107
24.270931677	128	51	64
24.271702061	144	37	127
24.27729352	128	74	64
24.277389711	144	26	46
24.279311464	144	98	54
24.279524479	128	33	64
24.282788366	128	56	64
24.283888266	128	63	64
24.286015013	128	79	64
24.287231126000002	128	62	64
24.321804931	128	37	64
24.322701731	144	104	75
24.32346332	128	101	64
24.333447553	144	94	101
24.34054768	128	103	64
24.343217316	144	25	66
24.348469349	128	26	64
24.360887938	144	56	45
24.37299812	144	62	83
24.375414376	128	98	64
24.392276924	144	101	93
24.394022349	144	86	58
24.396830318	144	37	127
24.40925672	144	103	114
24.409562378	128	99	64
24.419339995	144	58	50
24.427783152	144	74	53
24.428140861	144	79	127
24.428865038	144	33	48
24.440818008	128	56	64
24.449402079	128	37	64
24.449697807	128	25	64
24.451022116	128	79	64
24.453926651	128	62	64
24.459565523	128	101	64
24.46556484	128	57	64
24.467647922	144	64	3
24.474279426	128	64	64
24.476761328	128	74	64
24.484325745	128	94	64
24.499680772	128	33	64
24.509961288	144	98	70
24.518905626	144	101	70
24.529841489	144	56	47
24.531031863	128	58	64
24.53894939	144	79	127
24.540280934	144	47	123
24.540420207	144	95	62
24.544848808	144	62	83
24.545928854	128	103	64
24.564376712	128	95	64
24.580978751	128	101	64
24.584593057	128	56	64
24.586271677	144	26	73
24.60137183	128	98	64
24.601437735	144	98	52
24.603689448	128	79	64
24.612425543	144	74	52
24.616029989	144	93	91
24.620104113	144	103	117
24.620294917	128	62	64
24.626530589	128	47	64
24.629853487	128	104	64
24.636912624	144	58	47
24.640157349	144	100	49
24.644699907	144	101	60
24.658563416	144	69	69
24.662823875	128	26	64
24.679150669	128	74	64
24.681455301	128	98	64
24.687664019	144	79	127
24.69065808	144	23	55
24.697361463	128	78	64
24.707560638	144	62	84
24.708994235	144	40	39
24.710557349	144	56	43
24.711491625	128	58	64
24.714074765	128	69	64
24.719930846	144	61	95
24.720213803	128	101	64
24.720701048	128	100	64
24.726647756	128	103	64
24.74947595	144	27	63
24.751060357	128	79	64
24.756505662	128	93	64
24.770217528	128	56	64
24.773315512	144	98	70
24.778711781	144	101	45
24.791188749	144	108	62
24.792495946	128	98	64
24.792527914	144	98	53
24.805629726	144	83	63
24.806556375	144	37	123
24.808216889	144	74	52
24.808857743	128	62	64
24.813669905	128	61	64
24.817572873	144	103	121
24.8188615	144	58	45
24.822304118	128	40	64
24.829439692	128	27	64
24.841886096	128	23	64
24.843843615	128	101	64
24.856208707	144	79	127
24.859321525	128	37	64
24.859567474	128	108	64
24.869275899	144	56	28
24.879110046	128	98	64
24.885862869	144	101	38
24.890197153	144	62	85
24.89102668	144	26	97
24.892678601	128	74	64
24.908647293	144	23	58
24.910589152	144	54	64
24.913928089	128	56	64
24.918447039	128	79	64
24.922061762	144	33	64
24.923360968	128	86	64
24.932642794	144	27	63
24.934503341	128	54	64
24.934698427	128	103	64
24.947310302	128	58	64
24.950728426	128	101	64
24.964967295	128	26	64
24.980045498	144	102	36
24.983207304	144	74	51
24.992988336	128	62	64
24.994981718	128	83	64
25.001437486	144	103	126
25.003767921	128	27	64
25.011313292	128	23	64
25.011780914	144	100	49
25.015567504	144	56	34
25.017177538	128	33	64
25.027425094	144	79	127
25.06299712	128	74	64
25.071320761	144	57	106
25.072220566	128	56	64
25.072977221	144	62	86
25.078535344	128	57	64
25.085366843	128	79	64
25.091965847	128	102	64
25.098821742	144	23	59
25.107928928	144	95	65
25.113690724	128	100	64
25.116307934	128	103	64
25.120471056	144	27	59
25.132518752	128	95	64
25.151000042	144	98	69
25.155225297	128	62	64
25.158531707	128	27	64
25.160509204	144	47	126
25.161557641	144	56	37
25.161871166	144	74	51
25.165881965	144	85	61
25.172730575	144	79	127
25.180601952	144	78	74
25.187570187	144	58	44
25.204093331	128	85	64
25.206563034	144	103	125
25.206945437	128	56	64
25.208147663	128	23	64
25.234740649	128	79	64
25.235306441	128	98	64
25.239867315	144	62	87
25.24723631	128	74	64
25.251596839	144	95	63
25.258977784	128	47	64
25.267499888	144	23	59
25.27846755	144	34	50
25.282268897	128	95	64
25.298098082	128	58	64
25.298405185	144	56	39
25.32102291	128	103	64
25.324672654	144	38	74
25.340034312	144	79	127
25.341798471	128	62	64
25.345145802	144	83	57
25.346938468	144	98	69
25.362966687	144	33	52
25.385463762	128	34	64
25.388257544	128	56	64
25.392041673	128	98	64
25.396031371	144	69	71
25.400396141	144	103	126
25.401043524	128	79	64
25.411943541	144	56	42
25.440894312	144	95	65
25.445182162000002	144	62	87
25.456403445	128	33	64
25.479361012	144	86	31
25.481142265	128	95	64
25.483028788	128	56	64
25.501723935	128	69	64
25.502299517	128	62	64
25.506178264	144	79	127
25.514533059	128	103	64
25.522337938	144	100	50
25.529618229	144	74	118
25.543280096	144	37	123
25.548953542	144	53	68
25.568026019	144	101	14
25.568456073	128	79	64
25.568686783	144	56	45
25.57350437	144	62	88
25.58424637	144	103	127
25.597232587	128	37	64
25.621349975	128	100	64
25.626596328	128	53	64
25.626970991	128	56	64
25.62968719	128	74	64
25.632293659	144	33	47
25.67695276	144	57	105
25.677217584	128	57	64
25.678182302	128	103	64
25.679644281	144	26	96
25.680934435	128	101	64
25.682361109	144	24	54
25.685074492	144	44	58
25.692407702	144	56	43
25.708547907	128	62	64
25.709644905	128	33	64
25.711820159	144	79	127
25.717337349	144	95	68
25.72928729	128	83	64
25.734047798	144	22	79
25.73456968	128	79	64
25.736363902	128	78	64
25.742216784	128	95	64
25.760789249	128	56	64
25.761033544	144	62	88
25.770494053	128	26	64
25.791683169	144	58	43
25.795074159	144	56	38
25.802976807	144	54	43
25.808824215	128	44	64
25.816511433	128	24	64
25.823349109	144	70	1
25.858126367	128	62	64
25.86054947	128	56	64
25.86981287	128	54	64
25.883500899	144	79	127
25.895460379	144	81	50
25.909254918	144	95	69
25.915031883	128	70	64
25.916157767	128	58	64
25.917855079	128	79	64
25.920189777	144	26	72
25.924982741	144	62	89
25.925382943	144	101	12
25.950718835	144	99	55
25.959423282	144	68	75
25.972964245	128	95	64
25.994288499	128	81	64
26.004852081	144	37	120
26.005743669	144	79	127
26.009836145	144	29	60
26.01876011	128	101	64
26.020385344	144	47	126
26.020579837	128	62	64
26.023037344	144	89	56
26.032120617	128	26	64
26.044851897	128	99	64
26.049474215	128	37	64
26.049816179	144	33	44
26.053236161	144	76	104
26.064511884	144	74	65
26.067982219	128	79	64
26.068369466	144	100	51
26.075558221	128	29	64
26.087051905	128	47	64
26.104131188	144	101	12
26.112280456	144	98	70
26.114208081	128	74	64
26.122328853	128	22	64
26.126842419	128	33	64
26.138034338	144	58	43
26.138195066	128	23	64
26.138302501	144	26	63
26.179628076	128	76	64
26.18949478	144	79	127
26.19237022	144	69	72
26.19524886	144	34	49
26.196575116	128	101	64
26.198237302	144	99	53
26.202455596	128	38	64
26.20683842	128	98	64
26.219992012	128	26	64
26.238283959	128	99	64
26.252433413	128	79	64
26.262530719	128	86	64
26.265891644	144	30	120
26.278275819	128	69	64
26.280354069	144	101	13
26.293784579	144	33	46
26.294941557	128	58	64
26.302554572	144	107	112
26.318639047	144	92	111
26.339873539	144	26	56
26.348241409	128	33	64
26.350589388	128	34	64
26.357881091	144	99	52
26.359032125	144	79	127
26.363977184	144	70	1
26.365354437	128	101	64
26.374001542	128	30	64
26.381357041	144	97	42
26.38753063	128	92	64
26.392573001	144	67	127
26.420370259	128	79	64
26.421379497	128	99	64
26.421765768	128	26	64
26.421891411	144	98	71
26.431739476	128	67	64
26.446093073	128	107	64
26.448779252	128	70	64
26.45161334	144	101	13
26.483285718	128	97	64
26.483916868	144	33	44
26.484743792	144	92	114
26.511079319	128	98	64
26.523033622	144	83	56
26.523263497	144	79	127
26.524686278	144	30	111
26.534182659	128	92	64
26.535724043	128	101	64
26.552888884	144	25	67
26.557317174	128	33	64
26.5579203	144	99	53
26.562944253	144	44	74
26.565641675	144	26	48
26.584557459	128	79	64
26.592132184	144	70	1
26.597269587	128	83	64
26.605454483	128	25	64
26.612117033	144	78	72
26.61519128	128	44	64
26.6167929	144	47	127
26.617503313	144	62	81
26.626067431	144	101	14
26.650629713	144	98	71
26.655220538000002	128	30	64
26.663970321	128	70	64
26.680447536	144	57	115
26.686777039	128	100	64
26.700463969	128	26	64
26.706874720000002	128	62	64
26.708111969	128	47	64
26.711510404	128	101	64
26.723861334	128	98	64
26.726053488	144	79	127
26.741898475	144	44	75
26.744744133	144	83	65
26.756781714	128	79	64
26.756982645	144	108	63
26.757105009	144	70	1
26.772117058	144	69	73
26.773786475	144	30	113
26.784839934	144	101	14
26.790323731	144	95	70
26.803114509	144	35	72
26.803712461	144	86	46
26.8092194	128	108	64
26.818383933	144	74	62
26.824627783	144	40	15
26.825284883	144	37	125
26.832711687	128	44	64
26.83764278	144	79	127
26.849585336	144	76	104
26.849700519	128	70	64
26.86377375	128	69	64
26.87995528	128	101	64
26.880483351	128	37	64
26.895614721	144	98	70
26.903051826	128	74	64
26.903779291	144	33	57
26.916274224	144	44	73
26.918763774	128	79	64
26.91978344	128	35	64
26.930792298	144	38	80
26.943812817	144	70	1
26.945407825	128	40	64
26.955265787000002	128	30	64
26.961070756	128	86	64
26.962281718	144	101	14
26.964071524	128	98	64
26.975542567	128	76	64
26.976132008	144	94	99
26.986199063	144	26	43
26.997731772	144	86	48
27.00171216	128	44	64
27.005828078	128	33	64
27.006293839	144	79	127
27.020795022	144	74	61
27.026424953	128	94	64
27.043214018	128	70	64
27.044984193	144	53	67
27.058263004	144	98	51
27.066987572	144	21	66
27.068885952	144	44	74
27.072849729	128	26	64
27.074482583	144	30	114
27.07493164	128	86	64
27.078171375	128	101	64
27.080411451	144	61	108
27.084282627	128	79	64
27.087361308	144	27	59
27.087563752	128	61	64
27.091184242	128	74	64
27.099995874	144	108	66
27.111681225	144	107	40
27.118768101	144	61	108
27.122752289	128	27	64
27.136413268	128	108	64
27.154506678	144	79	126
27.158543379	144	106	51
27.163482856	144	86	49
27.169603919	128	21	64
27.175727196	128	98	64
27.175781291	144	98	72
27.17871116	128	98	64
27.182423919	128	44	64
27.190470018	144	47	127
27.19496938	128	53	64
27.207618577	144	22	84
27.222492824	144	74	59
27.232638482	144	82	45
27.234338434	128	79	64
27.246562971	128	86	64
27.248297262	128	107	64
27.252298081	144	37	123
27.253674048	144	44	73
27.254032702	144	27	61
27.255924156	128	30	64
27.259025428	128	61	64
27.263514897	144	26	29
27.269500862	128	47	64
27.281531554	144	103	2
27.293125322	144	98	71
27.299665772	128	74	64
27.302854669	144	33	37
27.304150458	128	27	64
27.307592927	128	82	64
27.317079581	128	37	64
27.321190445	144	79	127
27.330267799	128	106	64
27.333746565	128	26	64
27.335366686	128	57	64
27.341250729	144	100	41
27.342321068	128	89	64
27.345091439	144	62	75
27.346242344	128	44	64
27.353344014	144	86	50
27.361653258	144	101	91
27.370669919	144	34	46
27.374677103	128	98	64
27.391098269	144	30	114
27.394370615	144	44	74
27.399644987	144	27	60
27.401188749	128	79	64
27.407698393	128	103	64
27.408985752	144	74	58
27.410552427	144	108	69
27.411035996	144	58	46
27.418339501	128	33	64
27.429894393	128	100	64
27.434573368	128	83	64
27.437559891	144	37	122
27.441903967000002	128	62	64
27.450558403	144	103	3
27.452739641	144	70	127
27.453598618	128	86	64
27.454583763	128	108	64
27.455743379	128	44	64
27.461722369	144	51	56
27.476332244	128	101	64
27.483503476	144	73	55
27.487470944000002	128	37	64
27.487770716	144	79	127
27.491968079	128	74	64
27.497263398	128	51	64
27.497446536	144	98	52
27.497751015	128	27	64
27.514031714	128	34	64
27.518456748	128	103	64
27.520392746	144	26	65
27.536730243	144	86	53
27.540402514	144	103	8
27.54555585	128	78	64
27.554777457	144	34	47
27.562810961	128	38	64
27.567714425	128	79	64
27.576305086	128	70	64
27.581531929	128	58	64
27.593795462	144	74	58
27.59385721	128	98	64
27.594070712	144	40	29
27.606401026	128	30	64
27.606847035	144	107	8
27.609653066	128	103	64
27.609952139	128	95	64
27.619144527	144	37	120
27.629134161	128	86	64
27.637907575	144	79	127
27.642109546	144	69	64
27.650165241	128	37	64
27.660851943	128	26	64
27.676285497	128	74	64
27.697289239	128	34	64
27.699679605	144	103	11
27.703588124	128	40	64
27.705177426	144	89	57
27.718268872	128	79	64
27.722348769	144	34	47
27.735302947	144	86	58
27.745106505	128	107	64
27.745620388	144	30	112
27.74714263	144	37	120
27.767237481	144	21	59
27.778122504	144	74	58
27.786293694	144	26	70
27.790686165	128	103	64
27.795362986	128	37	64
27.797777891	128	86	64
27.799933061	144	58	43
27.824576222	144	79	127
27.829733728	144	41	57
27.830201157	128	73	64
27.832817945	128	34	64
27.841827327	128	69	64
27.853811047	144	101	116
27.856426811	144	94	102
27.86331603	128	74	64
27.869982035	144	103	13
27.872607871	128	21	64
27.884153024	128	26	64
27.884960865	128	79	64
27.890444334	144	34	47
27.891056246	144	85	59
27.894852524	128	94	64
27.901323872	144	59	58
27.90429334	144	56	83
27.909125747	144	82	50
27.911686069	144	38	79
27.921250116	128	58	64
27.937002339	144	86	28
27.940116246	144	47	127
27.948444149	144	62	79
27.960657563	128	30	64
27.961097327	128	103	64
27.969796725	144	25	68
27.976905122	144	74	58
27.978685067	128	101	64
27.989163332	128	85	64
28.008819636	128	38	64
28.015977159	144	94	104
28.018338934	128	86	64
28.028949178	144	78	79
28.032895827	128	59	64
28.033133659	144	79	127
28.033335877	128	34	64
28.035087323	128	47	64
28.036670961	128	25	64
28.03989168	144	103	15
28.041913557	128	56	64
28.056408445	128	94	64
28.058895221	128	74	64
28.066447592	128	82	64
28.068544246	128	79	64
28.072480089	144	34	47
28.075554624	128	62	64
28.082382291	144	27	64
28.090398846	144	58	43
28.110622257	128	58	64
28.114688986	128	27	64
28.123059101	144	59	52
28.133887154	144	37	114
28.153439838	128	103	64
28.154229745	144	94	103
28.156750187	144	26	75
28.159055759	144	74	57
28.165826701	128	34	64
28.173216569	144	79	127
28.180622442	128	94	64
28.202131342	128	37	64
28.210728921	144	57	100
28.219839786	144	86	17
28.225321118	128	74	64
28.226964498	128	59	64
28.227085684	144	100	50
28.228620597	128	26	64
28.255665735	144	34	47
28.255905753	144	103	28
28.257317549	128	100	64
28.261030184	144	58	39
28.267723771	144	101	127
28.268583354	128	79	64
28.274424786	144	59	55
28.282099274	144	94	102
28.306362426	144	107	120
28.310552868	128	99	64
28.311283971	128	86	64
28.312006906	144	108	67
28.321625185	128	94	64
28.335890312	144	42	115
28.344419359	128	59	64
28.349667014	128	34	64
28.365094665	128	108	64
28.366093786	144	30	74
28.368020368	128	101	64
28.37034641	128	103	64
28.376524366	144	79	127
28.377780748	144	86	7
28.388737312	144	38	82
28.391171611	128	42	64
28.402091654	144	26	72
28.404975787	128	41	64
28.419294892	144	34	48
28.419682811	144	94	103
28.421728744	144	95	67
28.423471082	144	59	52
28.426083697	144	82	50
28.430163412	128	58	64
28.430635427	128	89	64
28.437216619	128	38	64
28.450916538	128	107	64
28.458091925	128	94	64
28.460841697	144	103	33
28.46525355	144	27	65
28.465363664	144	100	50
28.465561696	128	26	64
28.469498573	128	86	64
28.47448092	144	83	107
28.4794753	144	47	127
28.494873909	144	62	81
28.502113751	128	83	64
28.502169599	128	59	64
28.522512272	144	67	127
28.522968547	128	78	64
28.52359836	128	82	64
28.525415371	128	27	64
28.526670448	128	95	64
28.52710631	144	38	77
28.540425512	144	53	68
28.541764858	128	100	64
28.543500554	128	67	64
28.550450731	144	94	100
28.55987598	144	56	75
28.562356601	128	103	64
28.562863505	128	34	64
28.564913975	144	70	114
28.57894092	144	86	22
28.592716797	128	94	64
28.601778896	128	38	64
28.603936475	128	70	64
28.608142445	144	83	107
28.620632797	128	47	64
28.621863834	128	62	64
28.626546035	144	27	65
28.629547642	144	58	37
28.645428269	128	83	64
28.653405536	144	103	44
28.655581632	144	100	49
28.65676187	128	27	64
28.66301998	128	56	64
28.664723286	144	38	83
28.668657811	128	86	64
28.670932444	128	53	64
28.701098397	144	108	70
28.704849694	144	94	97
28.7089335	144	86	47
28.730664286	128	94	64
28.73217157	144	59	52
28.735103927	128	57	64
28.735624176	144	83	105
28.742170546	144	26	43
28.742488141	128	38	64
28.744756781	128	100	64
28.749058168	128	108	64
28.75117241	128	22	64
28.76110099	144	27	67
28.764700331	128	86	64
28.767181118	128	103	64
28.776790973	128	79	64
28.782686996	128	83	64
28.796720231	128	58	64
28.796959023	144	21	56
28.797243879	128	27	64
28.811115253	128	59	64
28.817250083	144	38	79
28.823358394	144	94	99
28.841777865	144	85	60
28.846467795	144	103	54
28.851940653	144	106	50
28.861983867	144	59	50
28.865104586	144	37	123
28.866427907	144	100	49
28.869837774	144	86	63
28.870422059	128	94	64
28.874027615	128	38	64
28.883904707	128	26	64
28.886432947	144	83	107
28.888652949	128	21	64
28.898526997	128	86	64
28.907417426	144	89	59
28.912882035	128	59	64
28.915881559	128	68	64
28.922380891	128	85	64
28.923239789	144	32	19
28.923496638	128	32	64
28.929530194	128	83	64
28.941902851000002	128	37	64
28.949294478	144	38	76
28.949381285	128	100	64
28.950768493	128	103	64
28.962746982	144	94	98
28.967928014	144	79	127
28.99233183	128	94	64
29.003344023	128	79	64
29.007779495	128	38	64
29.016388152	144	86	92
29.026250399	144	83	112
29.029346573	144	59	56
29.034486175	128	83	64
29.037627033	144	27	67
29.049173204	144	78	77
29.050283147	144	47	127
29.051515447	144	103	61
29.067916404	144	56	69
29.072295579	144	38	83
29.075513822	128	27	64
29.089409477	144	69	77
29.101426082	144	62	82
29.113456362	144	108	70
29.114807619	144	101	125
29.137229147	128	106	64
29.141525015	128	38	64
29.144593377	128	108	64
29.146141682	128	86	64
29.152434894	128	103	64
29.1628723	128	59	64
29.177597171	144	27	70
29.182491043	128	47	64
29.183136887	128	56	64
29.188045326	144	82	47
29.207136723	144	100	49
29.220868863	144	26	59
29.222271897	128	101	64
29.222384632	144	103	68
29.224826529	144	75	52
29.227601184	128	62	64
29.237524763	144	59	53
29.247635189	128	69	64
29.249467078	128	27	64
29.257411554	128	100	64
29.269796157000002	144	90	38
29.279835967	144	51	46
29.2799839	144	58	41
29.290802879	128	82	64
29.291775485	128	75	64
29.310278637	144	95	1
29.322937362	144	37	120
29.323517849	144	101	124
29.324810444	128	59	64
29.335585845	128	103	64
29.340398596	144	27	69
29.359987573	128	26	64
29.364957804	128	90	64
29.379475657	128	58	64
29.383453931	144	100	49
29.384441305	128	37	64
29.388694549	144	59	56
29.389399953	128	27	64
29.394743712	144	79	127
29.41635408	128	95	64
29.437835966	144	103	77
29.438240354	128	101	64
29.457154874	128	100	64
29.471583563	128	79	64
29.475814692	128	59	64
29.510534714	144	27	65
29.527801696	144	59	53
29.539570643	128	103	64
29.545342225	128	78	64
29.545581992	144	101	124
29.558425002	128	89	64
29.571766921	128	27	64
29.581768601	144	100	49
29.582317351	144	85	62
29.598857241	128	59	64
29.599306658	144	82	48
29.61553614	144	47	121
29.615858745	128	85	64
29.622805494	144	56	72
29.630661203	144	103	88
29.639486176	144	106	49
29.642572847	128	100	64
29.657436163	128	101	64
29.670939974	144	58	39
29.672523367	144	75	56
29.674003978000002	128	82	64
29.689823008	144	27	66
29.691302376	128	75	64
29.696967529	144	59	58
29.70672683	144	57	94
29.716475829	144	73	99
29.721208966	128	103	64
29.726143611	128	56	64
29.73802774	128	27	64
29.746681547	144	21	59
29.746885818	128	30	64
29.756558069	128	47	64
29.78475434	144	101	123
29.785075362	128	59	64
29.797495146	144	26	33
29.797676733	144	75	50
29.800174694	144	92	114
29.812197992	144	103	93
29.84073487	128	75	64
29.843433203	144	79	127
29.850485548	144	27	65
29.854779597	128	92	64
29.865840497	128	51	64
29.866146167	128	106	64
29.868652293	144	43	78
29.871171649	144	34	48
29.883301902	128	21	64
29.88377237	128	58	64
29.897947912	144	35	72
29.899035113	128	101	64
29.908283746	144	95	2
29.911209835	128	27	64
29.913411418	128	103	64
29.919950825	128	79	64
29.942697501	128	26	64
29.945204242	128	95	64
29.948983659	144	90	35
29.95198955	144	39	77
29.970969278	144	27	64
29.979023615	144	25	68
29.979160319000002	144	32	18
29.983844784	144	75	52
29.990220661	128	75	64
30.005326025	144	67	127
30.005654607	144	101	123
30.008817165	128	27	64
30.00956861	144	92	112
30.024903785	144	103	105
30.025421284	128	34	64
30.031493358	128	67	64
30.045137724	128	35	64
30.04573201	128	90	64
30.049460206	128	92	64
30.0613039	144	108	67
30.068786554	128	25	64
30.075981747	144	78	67
30.079949291	128	57	64
30.080160787	144	62	22
30.083715182	144	82	50
30.104611151	144	95	2
30.107907462	144	59	51
30.111235765	144	56	90
30.116443701	128	108	64
30.119839131	128	95	64
30.120410386	144	53	68
30.130284159	128	103	64
30.133051639	144	75	56
30.133913341	128	101	64
30.134112322	144	30	68
30.137295265	128	43	64
30.139190492	128	75	64
30.139999686	128	82	64
30.140641414	144	89	63
30.159489579	144	90	33
30.193292056	144	92	110
30.205389301	144	85	60
30.21070432	144	103	113
30.228143798	144	75	59
30.232821993	128	92	64
30.238050548	128	56	64
30.244914018	144	27	61
30.24889473	128	53	64
30.259756575	128	90	64
30.270708968	128	85	64
30.27427977	128	75	64
30.295110929	144	80	67
30.310738102	128	27	64
30.311434962	128	103	64
30.326134354	144	47	124
30.330791633	128	47	64
30.350846769	144	79	127
30.379787636	144	90	33
30.395529955	144	75	57
30.403422024	128	79	64
30.403838323	144	103	117
30.422575963	128	75	64
30.424459255	128	80	64
30.436962932	144	27	62
30.45523533	144	76	103
30.466206621	128	32	64
30.475067367	128	90	64
30.475435354	128	73	64
30.495065737	128	30	64
30.510558584	128	27	64
30.513343626	128	103	64
30.524461943	144	108	69
30.527905109	128	78	64
30.535174572	144	56	68
30.554635872	144	49	46
30.558993761	128	108	64
30.564897779	144	75	59
30.565777646	128	39	64
30.574349015	128	75	64
30.592322494	144	107	109
30.601254087	128	49	64
30.608612751	128	76	64
30.609704312	144	103	119
30.613276415	144	90	27
30.629943596	144	98	55
30.642904622	128	62	64
30.643311607	144	80	64
30.643417718	128	80	64
30.650423289	144	37	1
30.658309348	128	98	64
30.675499934	128	90	64
30.678244146	144	75	60
30.687075512	144	80	64
30.691389383	128	107	64
30.70144505	128	37	64
30.708270632	128	56	64
30.708660405	128	103	64
30.724892359000002	128	75	64
30.730616434	144	21	58
30.747545463	144	30	64
30.751438544	128	80	64
30.768670875	144	37	1
30.794179075	144	79	127
30.813924125	144	90	25
30.824142189	128	37	64
30.824514693	144	103	119
30.825443734	144	56	93
30.828380646	144	75	63
30.835107402	144	80	65
30.836213725	128	79	64
30.83638618	144	101	1
30.848461418	144	47	123
30.85954051	144	98	69
30.859794099	128	98	64
30.867885995	144	95	17
30.868459643	144	62	98
30.874338487	128	75	64
30.877435538	128	21	64
30.890989951	144	82	52
30.89703514	128	90	64
30.907241831	144	107	68
30.916366971	128	89	64
30.921041779	144	86	60
30.927455595	128	103	64
30.929422627	128	80	64
30.933957524	144	26	42
30.934527876	128	101	64
30.939754136	144	98	69
30.948982295	144	85	69
30.964715977	128	95	64
30.973437396	144	108	69
30.975175454	128	62	64
30.978761761	144	75	63
30.97994643	128	26	64
30.989105432	128	85	64
30.990602123	128	82	64
30.992022829	128	47	64
30.99238937	128	107	64
31.002739908	128	86	64
31.006764929	128	75	64
31.013753678	144	51	4
31.028894272	144	103	120
31.032855606	144	57	67
31.03605453	128	108	64
31.041529411	144	37	1
31.053375853	144	101	10
31.084288493	144	78	69
31.087415375	144	86	59
31.100383646	128	56	64
31.107274068	128	103	64
31.110941413	128	37	64
31.12405195	128	101	64
31.137312157	144	82	50
31.137924342	144	107	52
31.151025601	144	80	67
31.156204666	144	75	60
31.156633347	128	75	64
31.166674033	128	51	64
31.17136459	144	26	59
31.180612199	144	37	1
31.187071866	128	86	64
31.192653705	128	82	64
31.199786199	128	98	64
31.20075867	144	98	68
31.201460348	128	80	64
31.202293091	144	101	16
31.221261945	144	103	122
31.221585472	128	107	64
31.244384563	128	26	64
31.274586347	144	49	51
31.274739201	128	37	64
31.274947507	128	57	64
31.276032897	128	101	64
31.278786403	144	62	108
31.281689758	144	75	57
31.288052237	144	86	58
31.292677364	128	30	64
31.298389324	144	80	67
31.313320967	144	39	79
31.323845119	128	103	64
31.324159735	128	75	64
31.349778714	144	82	51
31.350367782	128	49	64
31.352003315	144	107	22
31.358814667	144	101	20
31.360023712	128	80	64
31.372174444	128	39	64
31.386834183	128	86	64
31.388622597	144	47	124
31.390573029	128	82	64
31.395736303	144	108	70
31.406340974	144	26	88
31.409032467	128	62	64
31.423328848	128	101	64
31.424486591	128	98	64
31.42502842	144	98	70
31.425194349	128	98	64
31.44435289	128	107	64
31.449623861	144	103	120
31.451679894	144	79	16
31.45192846	128	108	64
31.45527883	144	80	68
31.46232254	144	89	65
31.464780938	144	30	66
31.47212867	128	26	64
31.494388031	128	78	64
31.496301698	144	86	56
31.515332644	144	75	57
31.515518112	144	39	83
31.517256434	128	103	64
31.526990442	144	101	31
31.537990892	128	79	64
31.539464477	144	82	50
31.545399537	144	98	59
31.549268991	128	80	64
31.554833287	128	47	64
31.55682954	128	75	64
31.570886149	128	39	64
31.581528091	128	86	64
31.590888532	128	101	64
31.608068832	128	82	64
31.609596226	128	59	64
31.61919756	144	80	69
31.630289439	144	103	121
31.632003466	144	26	110
31.633608739	144	54	48
31.636344888	144	24	59
31.643826896	144	73	29
31.659790851	144	39	79
31.66162253	144	68	72
31.665096336	128	98	64
31.672336162	144	86	55
31.67281799	144	94	45
31.678083724	144	53	70
31.678656706	144	62	111
31.68445898	144	45	44
31.694772061	144	101	49
31.696347091	128	80	64
31.698341748	128	26	64
31.703479141	128	94	64
31.70630915	128	54	64
31.712997035	128	103	64
31.737111746	128	39	64
31.739529468	144	75	56
31.770520747	128	86	64
31.774645718	144	80	68
31.775831501	128	75	64
31.779828868	128	101	64
31.780327458	128	30	64
31.783991055	144	82	52
31.792109295	128	53	64
31.801201922	128	45	64
31.801521708	144	103	121
31.806989706	144	94	48
31.811427443	144	98	67
31.818804964	128	24	64
31.82376309	128	82	64
31.826030418	128	62	64
31.839853171	144	86	63
31.866275213	128	80	64
31.868226882000002	144	99	50
31.868521275	128	94	64
31.873434486	144	101	56
31.882223727	128	98	64
31.883576326	128	86	64
31.893780468	128	103	64
31.918237245	144	79	9
31.92360834	144	51	1
31.931785284	144	21	53
31.94286473	144	94	48
31.947253873	144	80	69
31.947745408	144	30	64
31.959461309	128	101	64
31.96463661	144	75	60
31.981129393	144	76	102
32.001897883	128	80	64
32.003808685	144	50	1
32.004124703	144	103	121
32.00920399	128	75	64
32.014648715	144	98	67
32.02316989	128	94	64
32.037958546	128	21	64
32.051591795	144	101	65
32.075342996	128	98	64
32.078397538	144	94	47
32.079400878	144	62	110
32.07956023	144	34	48
32.08405403	128	51	64
32.084517433	144	32	69
32.107723175	144	78	74
32.119379851	144	86	71
32.120982024	128	103	64
32.122430754	128	76	64
32.138274783	128	101	64
32.142550905	128	94	64
32.14845686	128	89	64
32.149708981	128	34	64
32.161860659	144	25	69
32.16698662	144	82	51
32.197064268	144	98	71
32.200065137	128	68	64
32.205148119	128	62	64
32.208870875	128	32	64
32.224113403	144	103	121
32.229420928	128	30	64
32.230382292	144	101	63
32.230517414	128	25	64
32.235376483	128	86	64
32.24088716	128	82	64
32.256879939	144	75	60
32.258899764	144	26	58
32.275418695	128	98	64
32.276027365	128	75	64
32.278308881	144	45	45
32.280903055	144	47	118
32.301431079	128	103	64
32.317229829	128	101	64
32.329273901	144	57	68
32.33475352	144	64	83
32.338077959	128	57	64
32.341227255	128	64	64
32.347066647	144	98	61
32.347195274	128	50	64
32.347456472	144	57	70
32.350595478	128	26	64
32.355028861	128	47	64
32.361632162	128	57	64
32.376177696	128	45	64
32.378726501	144	88	27
32.400164742	144	101	57
32.422812996	144	67	15
32.428917168	144	62	98
32.435361437	144	49	53
32.441374456	144	47	120
32.451113763	128	98	64
32.454485616	128	67	64
32.462211483	128	88	64
32.49176544	128	101	64
32.513404253	128	47	64
32.51813458	128	78	64
32.521176119	144	75	54
32.528555438	128	49	64
32.530196336	144	100	50
32.541652488	128	75	64
32.574488627	128	100	64
32.577492398	128	62	64
32.593517525	144	103	122
32.602022187	144	82	50
32.612431689	144	95	75
32.613579916	144	47	120
32.642490098	144	98	63
32.656142899	128	82	64
32.663269863	144	100	49
32.681865719	128	103	64
32.689062377	128	47	64
32.721409964	144	106	46
32.733482532	128	100	64
32.734129342	128	95	64
32.747061839	144	47	122
32.747163148	144	51	1
32.75233284	128	98	64
32.769248394	128	73	64
32.77735101	128	99	64
32.78160272	144	86	64
32.785168288	144	26	55
32.795947064	144	62	85
32.80110288	128	26	64
32.812302736	144	100	49
32.816614559	144	82	51
32.823060261	144	75	55
32.833208617	128	47	64
32.841120806	128	75	64
32.857100194	128	82	64
32.866003155	144	80	76
32.87096495	144	108	74
32.874950387	128	100	64
32.875256486	144	57	76
32.885047957	128	86	64
32.886601012	128	57	64
32.897988339	144	98	71
32.898157183	144	50	1
32.900861781	128	51	64
32.915233093	128	79	64
32.91846772	144	47	120
32.919054272	128	98	64
32.934576775	128	108	64
32.941692175	144	89	68
32.942848049	128	62	64
32.94824341	144	100	48
32.954007697	144	101	45
32.958785818	144	103	125
32.963304375	144	51	1
32.963686279	144	86	58
32.963825095	128	80	64
32.994768452	128	47	64
33.031375877	128	100	64
33.048945354	128	106	64
33.05012528	144	82	51
33.054302621	128	86	64
33.05529743	128	103	64
33.07767073	144	47	121
33.083408953	128	51	64
33.083712876	144	98	72
33.084837858	144	78	76
33.103315286	144	54	45
33.106116684	128	82	64
33.11274911	128	54	64
33.127906965	128	98	64
33.128401966	144	100	47
33.142759586	144	86	58
33.153416804	128	47	64
33.179476094	144	62	72
33.194649459	144	29	61
33.205640246	128	100	64
33.214633722	144	75	57
33.215369763	128	50	64
33.216168658	144	53	69
33.230412448	128	86	64
33.23669178	144	47	124
33.246611953	144	98	70
33.259048292	144	100	44
33.262485047	128	29	64
33.271323924	144	59	61
33.275827689	128	75	64
33.283691024	144	86	60
33.301773018	128	98	64
33.310815541	128	62	64
33.32774676	128	47	64
33.328031567	144	64	123
33.333903165	144	107	100
33.343070719	128	64	64
33.345924378	128	100	64
33.353046756	144	79	125
33.355193375	128	86	64
33.357545437	128	53	64
33.375357121	144	103	127
33.37879034	144	34	49
33.384748254	144	26	63
33.407754382	144	47	123
33.409646981	144	76	102
33.411063068	144	21	62
33.411486233	144	100	43
33.41690542	128	101	64
33.421206208	128	107	64
33.422886561	144	86	61
33.425577769	144	98	63
33.43140309	144	57	84
33.43181426	144	41	62
33.437886137	128	79	64
33.444273033	128	57	64
33.446432255	128	26	64
33.462877993	128	103	64
33.465098433	128	41	64
33.467303999	128	86	64
33.473217181	144	80	78
33.473489106	128	100	64
33.480427962	128	47	64
33.484152199	144	82	52
33.4854619	128	21	64
33.503399481	144	28	109
33.522971026	128	34	64
33.526606482	144	86	61
33.529821506	128	98	64
33.530887065	128	76	64
33.540497277	128	82	64
33.540845733	128	28	64
33.545449586	128	78	64
33.545608126	144	62	61
33.563433858	144	100	40
33.56362218	128	80	64
33.567424859	144	47	122
33.578757934	128	89	64
33.589857778	128	86	64
33.590977911	144	57	102
33.592459906	144	41	70
33.60907588	128	100	64
33.622565464	144	75	57
33.623894466	128	41	64
33.651940533	128	47	64
33.66155052	144	69	74
33.673964889	128	75	64
33.692336963	128	62	64
33.697180728	144	86	62
33.701602119	144	42	107
33.710994632	128	57	64
33.716246252	144	100	39
33.720016827	128	86	64
33.731491574	128	100	64
33.732519164	144	41	76
33.738062682	144	47	125
33.749028695	128	69	64
33.75385167	128	41	64
33.760994125	144	98	63
33.765555814	144	64	127
33.770339989	144	100	39
33.773328776	144	80	78
33.775205421	128	42	64
33.783375734	128	64	64
33.799477998	144	107	98
33.803334818	144	79	127
33.81102646	128	47	64
33.821707499	144	103	124
33.841981942	128	98	64
33.844053772	128	100	64
33.852776224	128	79	64
33.872363309	144	100	40
33.872912829	144	41	76
33.879318375	144	26	50
33.884373407	128	107	64
33.888551417	144	58	52
33.894352657	128	26	64
33.895760403	128	41	64
33.904447229	144	108	67
33.9071216	128	80	64
33.912031104	144	62	50
33.912959357	128	100	64
33.920009686	144	86	75
33.921683508	144	47	122
33.928514886	128	103	64
33.932791536	128	108	64
33.932932506	144	80	79
33.989006123	128	86	64
33.994025159	128	47	64
34.002062472	144	90	120
34.016380533	128	80	64
34.016759301	144	41	73
34.019278917	144	30	72
34.030426038	144	64	127
34.034407623	128	58	64
34.035556171	144	28	109
34.037517346	128	41	64
34.037599228	128	64	64
34.042643987	128	62	64
34.056935246	144	75	62
34.068231426	144	98	74
34.075569573	144	101	77
34.084303682	144	73	117
34.093155182	128	75	64
34.100895488	144	86	71
34.102835806	144	70	127
34.107836792	128	28	64
34.123768955	144	78	84
34.130188518	144	80	78
34.131027192	128	90	64
34.135997567	128	98	64
34.144644919	144	41	74
34.163466018	128	30	64
34.174983273	128	41	64
34.177701074	128	86	64
34.178394268	128	80	64
34.20130116	144	79	127
34.210345856	144	24	56
34.218809166	144	62	28
34.233614255	144	57	69
34.249489272	144	30	70
34.252265488	128	79	64
34.262977174	144	108	72
34.263346017	128	70	64
34.269271003	144	80	79
34.276101886	144	41	73
34.276402826	128	57	64
34.283809913	144	86	52
34.284080576	144	44	78
34.284676534	144	64	127
34.285345772	128	108	64
34.288027665	128	41	64
34.292660312	128	64	64
34.294775567	144	26	35
34.303656636	128	24	64
34.308488405	128	86	64
34.31936289	144	107	95
34.323689375	144	98	70
34.343264279	128	62	64
34.343679055	144	32	80
34.345004721	128	78	64
34.350021546	144	82	55
34.373076478	128	98	64
34.373807518	128	44	64
34.384351278	144	41	74
34.389769113	128	82	64
34.393651021	128	107	64
34.399680415	144	58	47
34.401209524	128	26	64
34.407072609	128	80	64
34.408918902	128	41	64
34.414117007	128	30	64
34.422415018	144	75	64
34.431059939	144	80	80
34.436165773	144	28	107
34.448327158	144	89	63
34.456837449	128	75	64
34.457730489	144	84	47
34.474251843	128	80	64
34.496977986	144	41	71
34.498748924	144	85	41
34.508446669	128	28	64
34.513245803	144	62	59
34.515308701	144	107	95
34.518488137	128	41	64
34.519443924	128	58	64
34.533870435	144	30	73
34.535770115	144	42	109
34.550520352	144	82	53
34.558405024	144	94	93
34.559391442	128	32	64
34.560540372	144	64	127
34.567795804	128	64	64
34.567984702	128	101	64
34.572094157	128	85	64
34.576355613	128	42	64
34.579203265	128	94	64
34.579530633	144	98	64
34.588199072	128	107	64
34.590226116	144	67	127
34.591312103	128	82	64
34.594027204	144	80	83
34.600135412	144	41	71
34.625325966	144	58	42
34.625817435	128	41	64
34.63545303	144	57	78
34.638309269	144	34	51
34.657822105	128	98	64
34.659265524	128	62	64
34.660363625	144	79	127
34.685153743	128	80	64
34.689974511	128	57	64
34.690322468	144	21	57
34.704891924	128	58	64
34.71352189	144	94	106
34.7226278	144	41	71
34.74381558	144	61	1
34.747455313	128	30	64
34.747754799	128	34	64
34.748558774	128	94	64
34.754868212	128	79	64
34.755277697	128	67	64
34.759570389	144	82	53
34.76163819	128	41	64
34.784154199	128	21	64
34.789719301	144	107	96
34.803026558	144	80	83
34.804352644	144	32	80
34.824015116	128	82	64
34.832469781	144	90	118
34.838666860000004	144	34	52
34.841844135	144	26	80
34.84220445	144	58	42
34.850870056	128	80	64
34.851706463	144	94	103
34.856036341	144	75	56
34.859768867	144	53	70
34.861031622	128	59	64
34.872968312	128	107	64
34.873614479	144	41	70
34.874907909	128	94	64
34.893107384	128	75	64
34.895695035	144	62	81
34.906830305	128	26	64
34.916418216	128	34	64
34.922869893	128	84	64
34.929303916	144	76	102
34.934999675	128	73	64
34.935734557	144	79	127
34.937139951	144	100	70
34.9373293	128	100	64
34.937510365	144	100	82
34.946056915	128	32	64
34.948113893	128	90	64
34.951872095	144	98	64
34.970909201	128	58	64
34.971021989	128	79	64
34.971283988	144	47	115
34.978861877	144	80	81
34.980139659	144	94	102
34.988471871	128	53	64
34.992131873	144	34	51
34.99973315	144	82	54
35.005072169	128	94	64
35.006710039	128	61	64
35.015623844	144	64	50
35.021971703	128	64	64
35.022628153	128	100	64
35.027594871	144	28	107
35.033876138	128	98	64
35.038831053	128	80	64
35.039997482	128	82	64
35.041054117	128	76	64
35.043764458	128	62	64
35.046480161	128	41	64
35.053214643	128	47	64
35.066867289	128	34	64
35.067818562	144	78	92
35.104577558	144	67	127
35.111460858	144	86	60
35.127163255	128	28	64
35.12979588	144	24	50
35.135040531	144	79	127
35.137529483	144	41	58
35.144098892	144	47	118
35.148086955	144	95	59
35.154693998	144	34	50
35.161725759	128	41	64
35.17507047	144	58	40
35.176364475	144	59	45
35.180082923	144	80	81
35.18306644	144	46	127
35.184433552	144	98	74
35.185987044	128	79	64
35.202713776	128	89	64
35.207800086	144	82	54
35.216063681	144	85	60
35.217589712	128	47	64
35.220142327	128	98	64
35.233290441	128	80	64
35.238966298	128	95	64
35.245233627	128	67	64
35.2473097	144	100	70
35.247525903	128	100	64
35.247568006	144	100	80
35.247764995	128	100	64
35.248014137	144	100	70
35.248214395	128	100	64
35.249328595	144	71	64
35.249531928	128	34	64
35.255514969000004	144	51	16
35.25993306	128	82	64
35.264542676	128	46	64
35.264816073	144	72	11
35.265145465	144	76	101
35.266254736	128	59	64
35.266472318	144	41	58
35.270926892	128	85	64
35.27302664	128	41	64
35.282565283	128	24	64
35.289625004	144	100	81
35.328404858	144	79	127
35.336775386	128	58	64
35.33694477	128	78	64
35.34116452	144	47	115
35.348443909	144	41	61
35.363565517	144	80	84
35.365026886	144	95	60
35.36815512	144	59	38
35.369950704	128	41	64
35.370531467	128	79	64
35.374891956	128	76	64
35.380782166	144	46	127
35.392979368	144	57	79
35.394422588	144	62	92
35.397871368	144	107	97
35.399846154	144	28	105
35.4073613	128	80	64
35.413457689	144	85	69
35.417258885	128	95	64
35.428815298	144	42	99
35.435571425	128	57	64
35.436899436	128	47	64
35.437245195	128	59	64
35.441849727	128	85	64
35.453513757	144	101	110
35.455103606	144	41	53
35.455459749	128	28	64
35.461136948000004	128	41	64
35.46443289	144	26	35
35.474087003	144	79	127
35.47864688	128	71	64
35.480961551	128	107	64
35.484622837	128	46	64
35.497316274	128	51	64
35.50374651	128	86	64
35.508818148	128	42	64
35.515511395	144	64	8
35.517267618	144	59	39
35.521215058	128	64	64
35.521688139	144	40	37
35.524692722	144	70	125
35.53784238	144	80	90
35.542728775	128	62	64
35.546308742	128	26	64
35.552008213	128	79	64
35.556901977	144	41	62
35.572544469	144	47	119
35.576387516	128	41	64
35.577651927	128	59	64
35.578218813	144	46	126
35.584313235	144	85	73
35.599159781	144	82	53
35.599505601	128	80	64
35.604441536	128	85	64
35.633253045000004	144	86	69
35.637649716	144	57	78
35.638610883	128	40	64
35.64076307	144	79	127
35.655901365	128	47	64
35.656575384	128	82	64
35.658890392	144	105	74
35.66666411	128	46	64
35.668255038	128	70	64
35.676016121	144	59	37
35.67741774	128	57	64
35.683437488	144	41	67
35.690482611	128	41	64
35.696756131	128	100	64
35.697231522	144	100	67
35.697518454	128	100	64
35.697696896	144	100	79
35.697841176	128	100	64
35.697971992	144	100	65
35.698119806	128	100	64
35.711242508	144	67	127
35.713429277	144	80	94
35.716999358	144	100	82
35.717466344	128	86	64
35.719374423	128	79	64
35.74004652	128	59	64
35.746053124	144	85	71
35.747859798	144	46	127
35.755706751	128	85	64
35.764333509	128	100	64
35.769699823	144	86	69
35.770886394	128	80	64
35.774818419	144	58	44
35.791643649	144	41	69
35.792387669	144	62	99
35.806545062	144	59	37
35.829699296	144	79	127
35.830084118	128	41	64
35.849545111	128	67	64
35.850978098	128	46	64
35.87184435	144	85	65
35.898902085	128	59	64
35.902687066	128	79	64
35.908909022	144	107	97
35.917838521	128	58	64
35.920412968	144	87	127
35.937161099	144	59	36
35.937451383	128	85	64
35.943958019	128	62	64
35.972027824	128	86	64
35.986291088	128	107	64
35.986743279	144	41	71
36.007145898	144	79	127
36.009506201	144	26	60
36.014182714	144	28	112
36.01849638	128	59	64
36.020022359	128	41	64
36.026813932	128	101	64
36.038612541	144	85	65
36.052149614	144	84	51
36.055317596	128	72	64
36.060060347	144	82	53
36.060637459	144	100	64
36.060855349	128	100	64
36.061497149	144	100	83
36.061605618	128	100	64
36.061710037	144	100	65
36.06522869	144	86	65
36.08399915	144	51	13
36.086328826	128	79	64
36.086517806	128	26	64
36.088824733	144	57	84
36.093318733	128	100	64
36.093393405	144	100	83
36.104425478	128	85	64
36.106735016	128	82	64
36.10871796	128	28	64
36.109642169	144	59	40
36.113637724	144	23	78
36.122548879	144	58	43
36.127102278	144	33	71
36.129993348	144	80	99
36.131222687	128	86	64
36.13888448	144	50	1
36.161340705	144	86	65
36.163282272000004	128	59	64
36.177788882	144	79	127
36.181164331	128	80	64
36.188167263	144	78	81
36.213089772000004	144	62	108
36.221447548	128	33	64
36.231324748	128	86	64
36.246575976	144	85	66
36.250932907	144	47	114
36.252617755	128	79	64
36.26259882	144	59	45
36.272329325	128	85	64
36.28755558	128	58	64
36.290789862	144	27	69
36.291223222	128	27	64
36.300918894	144	80	99
36.326207185	128	62	64
36.335504968	128	87	64
36.351748364	128	47	64
36.356712774	144	86	60
36.359407527	128	86	64
36.360046456	144	106	43
36.363249453	128	59	64
36.3718885	144	85	62
36.383460417	144	46	127
36.385240647	128	80	64
36.395201337	144	107	97
36.400429486	144	79	127
36.408995378	128	78	64
36.409769979000004	144	59	46
36.419935434	144	108	78
36.421173419	128	85	64
36.425843093	144	64	1
36.431558513	128	64	64
36.435075605	144	82	50
36.435417168	128	79	64
36.442480331	144	53	70
36.460146638	144	27	71
36.46109435	128	107	64
36.481442237	128	50	64
36.48518919	128	46	64
36.485855754	128	27	64
36.496517902	144	34	46
36.497145718	128	100	64
36.497301543	128	108	64
36.497407882	144	100	65
36.497562547	128	100	64
36.497754904	144	100	82
36.498047251	128	100	64
36.498238606	144	100	67
36.49839378	128	100	64
36.501455007	144	100	82
36.502424057	144	103	11
36.502602174	144	28	117
36.512921125	128	59	64
36.520488427000004	128	53	64
36.524683027	128	82	64
36.5250116	144	36	62
36.528834469	144	80	97
36.53328962	128	84	64
36.533531531	144	84	51
36.533719505	128	84	64
36.564495246	144	46	127
36.567758185	144	26	91
36.571757726	128	100	64
36.572530532	144	99	58
36.575306669	128	28	64
36.5766577	144	86	60
36.578919487	144	62	114
36.579088017	144	85	63
36.579286042	144	107	97
36.579987272	128	80	64
36.583901051	144	79	127
36.591522888	128	85	64
36.596797149	144	40	44
36.616203036	144	27	70
36.620543936	128	79	64
36.621946209	128	103	64
36.624094641	128	106	64
36.632195196	144	22	89
36.640485981	128	34	64
36.643459482	128	36	64
36.65077143	128	107	64
36.650833846	128	26	64
36.653059864	128	46	64
36.658297708	144	31	85
36.681502054	144	59	51
36.687564276	128	31	64
36.690101155	144	80	98
36.690286033	128	86	64
36.693227698	128	27	64
36.708468607	128	40	64
36.712790708	144	103	15
36.716818906	128	22	64
36.720499561	144	74	125
36.728090582	144	79	127
36.742048064	128	59	64
36.742212078	144	46	127
36.742396955	144	59	49
36.742979365	128	62	64
36.748409736	128	99	64
36.780914602	128	80	64
36.787475344	144	107	100
36.78972391	144	86	58
36.790513408	144	27	70
36.791821388	128	103	64
36.802954068	128	79	64
36.82223612	128	74	64
36.841326961	128	46	64
36.843600159	128	59	64
36.843670108	128	27	64
36.848358114	128	107	64
36.867971647	144	101	70
36.873760373	144	103	22
36.87707864	128	23	64
36.882214641	128	86	64
36.89053296	144	79	127
36.895260791	144	24	49
36.899021187	144	80	97
36.908899323	144	64	7
36.912568381	144	28	120
36.916452631	128	64	64
36.941770498	144	100	67
36.942042655	128	100	64
36.942236003	144	100	82
36.942414387	128	100	64
36.942768134	144	100	66
36.942913356	128	100	64
36.943074616	144	100	83
36.944107287	144	59	47
36.948194285	144	86	59
36.955874954	144	22	89
36.967660572	144	27	69
36.969450853	128	79	64
36.972953941	128	103	64
36.990582564	128	59	64
36.992208874	128	100	64
36.992668835	144	21	60
36.997262544	128	22	64
37.00611922	128	80	64
37.00720399	128	28	64
37.015315946	128	27	64
37.024562781	128	24	64
37.026643179	144	100	66
37.046025852	144	62	115
37.048694148	128	86	64
37.057196916	144	79	127
37.0642766	128	21	64
37.064456914	144	59	43
37.06582612	128	101	64
37.07547115	144	78	79
37.077905699	144	103	35
37.082859788	144	22	90
37.102786979	144	86	59
37.120746439	128	79	64
37.134585875	144	27	68
37.146938924	144	23	76
37.152874522	128	59	64
37.157653354	128	103	64
37.158671147	144	64	9
37.158853459	128	64	64
37.164550234000004	128	22	64
37.179834955	128	27	64
37.206305641	128	23	64
37.207891429	144	59	43
37.210647742	144	91	69
37.214157191	128	86	64
37.221111475	144	47	112
37.223899856	144	79	127
37.231468057	144	74	127
37.244586405	128	78	64
37.24897064	144	35	11
37.257801675	128	91	64
37.277788219	128	100	64
37.278247917	144	100	82
37.278472339	128	100	64
37.278682545	144	100	66
37.291654048	144	103	54
37.292005821	128	47	64
37.298488063	128	100	64
37.30278741	128	79	64
37.304531581	128	59	64
37.308197893	144	27	68
37.314471374	144	46	127
37.319938627	144	100	82
37.349867982	144	23	72
37.359902591	128	35	64
37.360147149	128	27	64
37.373415482	144	36	60
37.382492899	128	103	64
37.392677354	144	39	57
37.399310779	128	23	64
37.402258103	144	92	115
37.417166926	144	64	13
37.422702719	128	64	64
37.424862367	128	36	64
37.425795078	128	100	64
37.428603401	128	46	64
37.444025498	144	100	66
37.452554429	128	92	64
37.466389925	144	76	101
37.470597063	144	27	68
37.471363162	128	39	64
37.476130767	144	61	27
37.47914248	144	28	122
37.482417676	144	23	74
37.48528812	144	103	72
37.530828505	128	100	64
37.530982296	144	46	127
37.550648085	144	100	82
37.560606408	144	79	127
37.562905323	128	27	64
37.563273449	128	23	64
37.566818376	144	36	51
37.575504066	128	28	64
37.57666525	128	103	64
37.583975819	144	56	95
37.584661267	128	100	64
37.590875478	128	76	64
37.597305171	144	86	80
37.607013743	128	36	64
37.626148481	144	23	68
37.631997156	144	101	73
37.633602942	128	46	64
37.6394057	128	79	64
37.642592257	144	27	66
37.656237642	128	86	64
37.667109286	128	57	64
37.678959246	144	26	68
37.690134009	144	103	85
37.696355508	144	36	54
37.698810841	144	31	82
37.703083447	128	56	64
37.708620346000004	128	26	64
37.714486651	128	27	64
37.716839101	128	51	64
37.725464968	128	101	64
37.734679822	144	46	127
37.739212114	144	24	47
37.754822179	128	31	64
37.757169582	144	34	48
37.768034609	144	80	104
37.7793545	128	62	64
37.78264295	128	103	64
37.783627574	144	22	92
37.810051465	144	27	66
37.812147653	144	50	97
37.822246075	128	80	64
37.822760974	128	46	64
37.826596187	128	24	64
37.827420306	128	36	64
37.829148843	144	28	119
37.849106999	128	34	64
37.854227969	128	27	64
37.869353949	144	92	111
37.874483403	144	26	65
37.879029614	144	36	48
37.890245141	144	30	71
37.896473009	144	46	127
37.897958398	128	22	64
37.909135221	128	28	64
37.91739668	144	103	103
37.91777893	128	74	64
37.920025005	144	99	62
37.938786018	128	36	64
37.949026062	128	92	64
37.950611321	144	76	100
37.954425712	128	26	64
37.956045141	128	99	64
37.982478258	144	24	48
38.006136028	128	46	64
38.020813193	128	103	64
38.025290598	144	47	112
38.043576525	128	76	64
38.045406564	144	27	63
38.057751863	144	26	77
38.080695969	128	24	64
38.097772295	144	99	62
38.106121394	128	27	64
38.117026791	144	82	52
38.118338686	144	64	11
38.126838347	128	64	64
38.139982158	128	99	64
38.143930626	128	47	64
38.145705966	144	103	107
38.149304567	144	24	50
38.151077053	128	26	64
38.161204823	144	37	118
38.168212308	144	22	92
38.186645205	128	23	64
38.199650985	128	105	64
38.203011769	144	106	38
38.215095656	128	37	64
38.223955988	128	82	64
38.236868955	128	103	64
38.242531497	144	99	60
38.264682244	128	22	64
38.265224667	144	74	123
38.272909398	128	24	64
38.27371837	144	80	99
38.285881302	144	62	85
38.289996317	128	99	64
38.317440174	144	49	72
38.333007184	144	86	66
38.335219812	128	80	64
38.336503057	144	21	63
38.336732092	128	74	64
38.343865943	128	49	64
38.345065086	144	24	51
38.349555182	144	22	91
38.349791404	144	23	74
38.359512922	144	92	106
38.362743445	144	103	112
38.397449042	144	99	60
38.400303562	128	92	64
38.407498051	128	50	64
38.414867674	144	26	55
38.431796777	128	22	64
38.43206793	144	74	127
38.434975558	128	86	64
38.435668351	144	28	120
38.438646503	128	21	64
38.439559713	128	99	64
38.440842314	128	103	64
38.448494056	144	46	127
38.480228193	128	24	64
38.481527846	128	106	64
38.482463196	128	74	64
38.48346693	128	30	64
38.500764904	128	26	64
38.505993139	144	47	114
38.507788981	128	28	64
38.517607	144	87	127
38.536448295	144	92	105
38.546958609	144	57	90
38.547393444	144	99	62
38.549781894	128	57	64
38.550844524	144	24	50
38.551817494	128	46	64
38.554166763	144	103	114
38.570094845	128	61	64
38.576757828	144	56	117
38.577665911	128	62	64
38.587181406	128	99	64
38.59419908	144	64	1
38.595273367	128	47	64
38.599595229	128	92	64
38.600361328	128	64	64
38.60424116	144	44	51
38.611069719	144	74	127
38.621631404	144	26	51
38.623286853	144	86	41
38.623729135	128	103	64
38.642344686	144	46	127
38.645872872	128	74	64
38.674397333	144	98	64
38.690036078	128	24	64
38.697070301	144	99	64
38.708029286	144	78	81
38.710017799	144	68	64
38.716034583	128	26	64
38.71690785	128	44	64
38.71766842	144	30	72
38.719433812	128	56	64
38.721257166	144	80	100
38.721906438	128	99	64
38.722385291	128	86	64
38.733623203	144	36	49
38.739290114	128	46	64
38.74056233	144	37	120
38.742274382	128	98	64
38.746357605	144	74	127
38.748214791	144	103	116
38.757309148	144	24	48
38.776791678	144	92	99
38.778521106	144	26	69
38.77970732	128	37	64
38.793089778	128	80	64
38.798080154	128	74	64
38.804958438	128	36	64
38.808051604	144	99	64
38.813108701	128	68	64
38.816550363	128	92	64
38.832883019	128	103	64
38.855469431	128	99	64
38.856095801	144	51	111
38.860671185	128	78	64
38.865215483	144	86	66
38.881267269	128	24	64
38.883942072	128	26	64
38.894390089	144	46	127
38.896770093	144	98	65
38.897295019	144	34	52
38.899703425	144	37	116
38.911707257	144	28	116
38.912612364	144	36	48
38.916828949	144	74	124
38.934623656	128	98	64
38.934818571	144	103	118
38.937679288	144	88	55
38.946877029	128	74	64
38.949507061	128	51	64
38.955175793	128	37	64
38.969001373	144	24	49
38.97172943	128	36	64
38.97883714	144	26	71
38.984855048	128	86	64
38.997961752	128	34	64
38.998618687	128	46	64
39.008211649	128	28	64
39.019740539	128	88	64
39.032882572	128	103	64
39.050369814	144	22	90
39.054201636	144	74	121
39.056417919	128	26	64
39.060388086	144	62	82
39.063358768	128	30	64
39.070148321	128	24	64
39.08625833	144	51	110
39.096927632	144	36	44
39.107103839	144	86	55
39.10866578	128	74	64
39.123134479	144	37	122
39.134364539	144	103	119
39.137815127	144	80	107
39.140340854	128	36	64
39.141199547	144	24	48
39.147916802	128	22	64
39.148285528	144	98	65
39.165871295	128	37	64
39.174267875	144	32	78
39.175177577	144	46	127
39.178735203	128	51	64
39.190761518	128	80	64
39.192677538	144	26	54
39.192777496	144	74	121
39.211689381	144	94	98
39.212427013	128	98	64
39.213118475	128	103	64
39.213742332	144	44	80
39.214466563	144	56	112
39.219511909	128	23	64
39.232171724	128	86	64
39.246018693	144	21	65
39.246185644	144	36	45
39.267940366	128	24	64
39.275759935	144	49	68
39.27641595	144	108	72
39.284640565	128	46	64
39.285734083	144	50	88
39.291489029	128	26	64
39.29768973	144	80	113
39.299704243	128	74	64
39.30067692	144	47	115
39.300817884	144	51	110
39.301414936	128	44	64
39.316343718	128	108	64
39.32593613	128	32	64
39.335632586	144	92	102
39.339906679	128	56	64
39.348643567	144	103	118
39.353791275	128	80	64
39.359119524	144	74	119
39.360286625	128	36	64
39.361529455	144	101	29
39.367686895	128	49	64
39.370719716	128	103	64
39.374850201	128	51	64
39.390263403	128	47	64
39.393782104	144	28	115
39.393933003	128	21	64
39.399660002	128	92	64
39.404725807	144	30	68
39.416937257	128	74	64
39.425916702	128	62	64
39.437404035	144	80	113
39.452189342	144	86	87
39.475120251	128	28	64
39.482947967	144	51	110
39.48806546	128	101	64
39.491028835	144	22	90
39.498885112	144	47	115
39.507140914	144	78	81
39.523458497	128	86	64
39.525389512	128	94	64
39.535509975	128	80	64
39.558772163	128	51	64
39.559704061	144	62	84
39.560182167	144	37	113
39.565009633	128	22	64
39.576509312	144	26	51
39.582113658	144	64	2
39.582312104	128	64	64
39.595820682	128	47	64
39.609559902	128	37	64
39.631161988	144	57	100
39.631463678	128	57	64
39.650274744	144	22	88
39.660627206	128	26	64
39.695245855	144	97	12
39.705858402	144	51	107
39.706634767	144	76	99
39.710194475	144	21	59
39.714179721	144	98	70
39.714371718	128	98	64
39.721329704	128	78	64
39.732303543	128	22	64
39.733367685	128	30	64
39.738080926	144	32	80
39.753455406	128	51	64
39.758051277	144	92	104
39.769222881	128	21	64
39.799432259	128	92	64
39.812201259	144	83	56
39.818828976	144	26	39
39.821204973	144	41	80
39.833317036	128	76	64
39.838775446	144	46	127
39.83982906	128	97	64
39.848208531	128	87	64
39.852002415	128	41	64
39.858779417	128	32	64
39.868610103	144	51	108
39.87327642	144	80	111
39.880438378	128	26	64
39.882489641	144	21	59
39.891881148	144	23	72
39.893851602	144	88	53
39.894929685	128	50	64
39.905336691	144	91	67
39.921759788	128	46	64
39.925941193	128	91	64
39.927564866	128	21	64
39.956860696	128	51	64
39.960970037	128	88	64
39.969718252	128	80	64
39.971000932	144	108	83
39.987976871	144	86	67
40.009803554	144	91	62
40.017443295	144	36	39
40.02190904	144	29	61
40.026235174	144	47	116
40.038336091	128	108	64
40.045048425	144	28	109
40.052909168	144	21	60
40.063220605	144	46	127
40.063628409	144	56	112
40.067379893	144	80	112
40.073733477	128	86	64
40.075394683	144	76	99
40.075530551	128	91	64
40.078699507	128	21	64
40.079392634	128	36	64
40.086006348	144	74	127
40.09570234	144	51	109
40.105479522	128	29	64
40.122460954	144	61	27
40.130413285	128	47	64
40.135558511	128	74	64
40.142082645	128	28	64
40.147620007	144	91	63
40.153017191	128	46	64
40.162701314	128	80	64
40.188800278	128	76	64
40.18895016	144	37	116
40.19879752	128	91	64
40.203801754	144	107	102
40.204116524	128	51	64
40.208009204	144	21	61
40.211716049	128	23	64
40.226647361	144	92	107
40.231104112	144	75	45
40.231317141	144	47	117
40.236816472	144	80	117
40.239568763	128	37	64
40.240543417	128	56	64
40.241266392	128	21	64
40.266158104	128	92	64
40.266895977	144	22	92
40.276302025	144	91	72
40.277584085	128	75	64
40.282102627	128	107	64
40.286307942	144	101	127
40.309060551	128	62	64
40.316996167	144	36	35
40.321885459	128	80	64
40.323488231	144	49	29
40.329765168	128	91	64
40.330225602	144	46	127
40.340379822	144	32	75
40.341369067	128	47	64
40.347980361	144	75	50
40.354580781	144	21	60
40.375428021	128	36	64
40.390356168	128	75	64
40.390976249	128	21	64
40.401798549	128	101	64
40.402799493	144	28	107
40.406912005	144	91	67
40.415848262	128	49	64
40.418696647	144	78	80
40.420165322	144	42	87
40.427325245	144	41	83
40.43495411	144	51	107
40.443722113	144	92	104
40.444123902	128	46	64
40.451834968	128	32	64
40.457564802	128	28	64
40.45846095	128	22	64
40.460291179	128	42	64
40.466322797	128	91	64
40.4754463	128	41	64
40.477209937	144	106	36
40.480169945	128	78	64
40.482979581	128	92	64
40.485118038	144	74	125
40.490449782	128	83	64
40.506384499	144	30	85
40.5082573	144	21	61
40.512916443	128	74	64
40.533376965	144	75	44
40.533674294	128	51	64
40.538669717	144	101	127
40.541175792	128	75	64
40.548387992	144	95	57
40.54898459	144	37	119
40.553018949	144	91	69
40.561865172	144	42	83
40.584775011	144	36	37
40.585889644	128	21	64
40.601797597	128	37	64
40.605557699	144	107	96
40.605983249	144	100	80
40.607247249	128	91	64
40.611307284	128	95	64
40.624654973	128	100	64
40.624887395	144	92	101
40.627454458	144	75	50
40.627994442	144	41	84
40.631358255	128	101	64
40.639734799	128	36	64
40.642181257	128	42	64
40.649712653	144	94	105
40.65557044	128	106	64
40.666296173	128	92	64
40.671260682	144	23	72
40.671354722	144	103	112
40.673781036	128	75	64
40.676690023	144	74	126
40.677538383	128	41	64
40.682924531	144	57	1
40.686101544	128	107	64
40.696631463	128	74	64
40.697717007	144	42	83
40.709553031	144	91	68
40.715486895	144	106	38
40.726813256	144	101	127
40.746977568	128	103	64
40.750108735	128	30	64
40.761003797	128	91	64
40.762492003	144	34	35
40.767556192	128	57	64
40.792343346	128	42	64
40.810792277	144	41	84
40.812552593	144	22	89
40.812675967	128	22	64
40.815337029	128	106	64
40.816735158	144	75	48
40.820763577	128	94	64
40.821908997	144	80	12
40.823698794	128	34	64
40.825567869	144	92	103
40.825846134	128	75	64
40.829523928	144	34	36
40.831746553	128	101	64
40.841227621	144	74	123
40.848424866	128	92	64
40.848821338	144	22	87
40.850675207	144	47	115
40.855841835	144	91	65
40.861502659	128	74	64
40.862648515000004	144	42	81
40.864403834	128	41	64
40.905033749	144	103	117
40.908367687	128	91	64
40.912152231	144	100	81
40.915764447	144	106	40
40.919077145	144	30	80
40.923680291	128	80	64
40.925504325	128	47	64
40.926497421	128	42	64
40.929179296	144	75	52
40.930666885	128	22	64
40.935878523	144	101	127
40.936870638	128	34	64
40.936901398	144	34	38
40.945403785	144	49	18
40.958169165	144	51	108
40.969699036	144	74	119
40.976009796	128	75	64
40.984280254	144	36	37
40.985997236	128	103	64
40.993612727	128	100	64
41.002135258	144	91	69
41.008555779	144	41	84
41.016645797	128	34	64
41.025348671	144	80	13
41.028569587	144	42	83
41.029496667	128	74	64
41.03135264	144	46	127
41.041000237	128	36	64
41.043330703	144	62	87
41.04726978	128	51	64
41.049555456	144	47	116
41.052675747	128	101	64
41.05534981	128	49	64
41.05742423	128	106	64
41.061115836	128	41	64
41.061248959	144	24	52
41.06170705	128	91	64
41.066990249	128	30	64
41.071026306	144	34	37
41.078684379	144	75	52
41.088718323	144	107	98
41.093819498	128	42	64
41.115570308	144	106	42
41.121076856	128	80	64
41.121409627	128	34	64
41.12148332	144	34	38
41.123609149	128	46	64
41.12559701	128	75	64
41.125871923	144	103	116
41.129685363	128	23	64
41.130296109	144	101	127
41.135753842	144	28	107
41.149338386	128	47	64
41.157747833	144	74	121
41.159464058	128	107	64
41.178751748	128	24	64
41.184044863	144	41	83
41.189751839	144	91	73
41.190622685	128	28	64
41.194685297	144	42	81
41.196434861	128	74	64
41.200042956	128	34	64
41.204666796	144	80	19
41.213462764	128	103	64
41.223304448	128	41	64
41.229074306	144	75	51
41.23110386	128	101	64
41.232122789	128	106	64
41.236691645	128	91	64
41.239739505	144	34	36
41.241867983	128	62	64
41.242208707	144	46	127
41.254048316	128	34	64
41.254142345	144	34	37
41.254941473	144	26	38
41.255629983	144	24	50
41.270863916	144	107	96
41.274862662	128	42	64
41.27543496	128	75	64
41.298313975	128	80	64
41.315078648	144	91	71
41.31601726	144	106	42
41.317638438	144	30	88
41.318172939	144	74	118
41.32719901	128	107	64
41.331636644	144	37	116
41.335446313	144	101	127
41.337348154	144	103	117
41.337986476	128	46	64
41.345614833	144	42	81
41.350493924	128	26	64
41.356783062	144	41	83
41.35793081	128	74	64
41.362177113	144	75	47
41.37407919	128	24	64
41.379752193	144	60	82
41.382367527	128	91	64
41.39048325	144	80	22
41.406578431	128	34	64
41.406821453	144	34	38
41.408853121	128	75	64
41.409776272	128	42	64
41.411499997	128	41	64
41.415232033	128	103	64
41.419738701	144	90	2
41.421007956	144	22	84
41.422903442	128	37	64
41.425101311	144	100	82
41.431468939	144	68	59
41.43863458	128	101	64
41.4426057	144	107	97
41.448303424	144	24	49
41.44981772	128	100	64
41.450433344	144	85	53
41.450612485	128	80	64
41.454204738	144	23	73
41.455214862	128	34	64
41.45524923	144	34	36
41.45734416	128	106	64
41.457564047	128	85	64
41.460411016	128	60	64
41.461388557	144	51	112
41.473931715	144	95	65
41.476878046	144	91	70
41.480477259	128	107	64
41.496203771	144	75	48
41.500101577	144	78	84
41.51507792	144	106	41
41.517100405	128	30	64
41.523417498	144	101	127
41.525146468	144	46	127
41.52621577	128	95	64
41.539344036	128	91	64
41.540776698	144	103	117
41.543445289	144	76	98
41.549178055	144	37	117
41.551090155	128	68	64
41.551490447	128	90	64
41.555450215	144	42	80
41.555950111	128	51	64
41.556012882	128	24	64
41.557451653	128	78	64
41.557913408	128	75	64
41.573665956	128	42	64
41.574279014	144	41	85
41.585589701	144	80	56
41.590748345	128	37	64
41.597611226	128	22	64
41.60292468	128	46	64
41.608545707	144	32	73
41.612053574	128	34	64
41.612448441	144	34	41
41.616760681	144	85	65
41.624575161	144	91	74
41.630642685	128	41	64
41.630822952	128	103	64
41.634782235	144	24	49
41.636067116	144	28	104
41.638946179	128	101	64
41.64605881	144	75	43
41.646393265	144	107	97
41.647292123	128	85	64
41.656933708	128	106	64
41.661259956	144	95	62
41.671342434	128	34	64
41.671403576	144	34	38
41.676073466	144	98	72
41.677701741999996	144	42	76
41.685400059	128	95	64
41.685490928	128	76	64
41.687364362	128	80	64
41.69072292	128	28	64
41.691291727	128	75	64
41.6917856	128	91	64
41.711193768	144	62	87
41.711578717	144	37	119
41.715106834	144	106	41
41.715953666	128	107	64
41.724147454	144	101	126
41.736988425	128	98	64
41.738873552	128	34	64
41.738946317	144	34	41
41.74337391	128	42	64
41.747248614	128	37	64
41.756070853	128	24	64
41.756260533	144	86	52
41.757682838	144	103	117
41.771197677	144	47	118
41.771901656	144	80	80
41.774880469	144	41	84
41.787706315	144	91	73
41.790123801	144	85	75
41.790245839	128	85	64
41.794558543	144	75	43
41.798017908	144	46	127
41.79828685	128	106	64
41.799645152	144	22	82
41.805479136	144	95	62
41.816406568	128	34	64
41.826754577	128	95	64
41.827171727	128	41	64
41.828007052	128	101	64
41.82976553	144	24	51
41.833886898	128	80	64
41.836779488	128	103	64
41.838870121	128	47	64
41.841003254	128	75	64
41.855881092	128	86	64
41.85780475	128	91	64
41.874462057	144	37	120
41.8792991	144	98	71
41.884705589	144	42	77
41.891498501	128	42	64
41.895729449	128	46	64
41.899887312	144	106	42
41.904503822	144	34	41
41.908761914	128	37	64
41.919434753	144	21	63
41.924907786	128	34	64
41.924950117	144	34	41
41.925339091	144	49	113
41.935812586	128	98	64
41.943640253	144	91	73
41.945823055	144	85	72
41.947948655	144	76	98
41.949850343	144	103	118
41.95043805	128	22	64
41.950577071	128	24	64
41.952896412	144	80	119
41.955740387	144	95	64
41.962355076	144	47	117
41.967515928	128	23	64
41.971587168	128	85	64
41.976524774	128	95	64
41.981663919	128	106	64
41.983616089	144	75	43
41.983912041	128	75	64
41.987957829	144	22	82
41.991197593	128	21	64
41.993297224	128	49	64
41.998048244	128	80	64
42.016911044	128	91	64
42.017161041	128	34	64
42.021614275	144	68	60
42.022709329	144	24	51
42.032376185	128	103	64
42.033054439	144	98	61
42.035598991	144	42	79
42.035868632	144	80	127
42.046674524	128	76	64
42.058890667	128	47	64
42.076925706	128	42	64
42.078393985	144	75	42
42.081013125	144	36	36
42.087584564	144	95	62
42.096899041	144	37	123
42.108821878	144	91	74
42.117518549	144	49	116
42.122532372	144	85	72
42.12320853	128	24	64
42.126128857	128	75	64
42.127081632	128	95	64
42.127775939	128	22	64
42.131435273	128	80	64
42.139565881	128	37	64
42.143859184	128	36	64
42.14647228	128	98	64
42.146530577	144	98	74
42.152477858	128	98	64
42.162236983	144	28	104
42.162578463	144	74	121
42.162759095	128	49	64
42.171814189	128	85	64
42.172026568	144	26	66
42.175426278	128	91	64
42.176791865	144	103	119
42.177564636	144	42	76
42.196082219	128	74	64
42.197478202	128	62	64
42.197874207	144	24	51
42.207058547	144	80	110
42.215128706	144	95	59
42.228265149	144	75	42
42.233611238	144	86	62
42.243888261	128	42	64
42.251035016	128	24	64
42.25275063	128	95	64
42.257134262	128	28	64
42.267715606	128	103	64
42.272227735	144	91	76
42.275098185	128	75	64
42.280706223	144	36	37
42.280983432	128	26	64
42.287251601	144	100	73
42.289283644	144	85	66
42.302323366	144	37	123
42.303137644	144	74	124
42.315794215	128	80	64
42.319171079	144	46	127
42.325522178	128	36	64
42.329621507	144	95	59
42.330134156	144	24	52
42.33534077	144	103	118
42.338354822	128	85	64
42.341491172	128	91	64
42.344218632	128	37	64
42.344332595	144	42	78
42.362098484	128	100	64
42.367368766	128	74	64
42.367939514	128	86	64
42.377391239	128	95	64
42.377890813	144	75	46
42.385375558	144	57	1
42.386500967	128	68	64
42.390602725	128	42	64
42.395770936	144	73	35
42.412458851	128	57	64
42.41951236	144	106	40
42.420098278	144	91	74
42.424925596	144	57	1
42.425189681	128	75	64
42.425331727	128	57	64
42.43104841	128	46	64
42.434914411	144	80	50
42.438514714	128	103	64
42.445082083	128	24	64
42.45681605	144	74	125
42.458787308	144	26	61
42.477004934	144	37	122
42.480060908	144	36	32
42.480845811	128	91	64
42.493872398	128	73	64
42.507077697	144	86	55
42.517346973	128	106	64
42.52388337	144	94	102
42.525784073	128	36	64
42.527150246	128	26	64
42.528203105	144	75	43
42.528545368	128	37	64
42.529490093	128	80	64
42.532817233	144	46	127
42.537613824	128	74	64
42.540710033	144	103	119
42.543642058	144	95	54
42.548676906	144	36	32
42.576165978	128	75	64
42.577122741	144	43	71
42.582654373	144	91	71
42.586058631	128	95	64
42.589050991	144	50	67
42.58983501	128	86	64
42.602808822	144	106	43
42.620833803	144	80	51
42.624664602	128	36	64
42.629764716	128	43	64
42.63415834	128	103	64
42.637285439	144	37	120
42.643978836	128	91	64
42.64608723	128	46	64
42.647754986	144	74	125
42.656044675	144	22	81
42.656179008	128	22	64
42.67413628	144	30	70
42.679557018	144	75	42
42.690293433	144	86	57
42.693288352	128	37	64
42.694668255	144	26	50
42.712997369	128	74	64
42.715196323	128	94	64
42.717967206	128	106	64
42.719422601	128	80	64
42.725977324	128	75	64
42.735253449	144	103	118
42.74650832	144	91	76
42.75304098	128	26	64
42.769265225	144	106	46
42.769463887	128	86	64
42.782325662	144	46	127
42.785275649	128	30	64
42.790742089	128	103	64
42.805765371	128	91	64
42.818791447	144	80	97
42.828878328	144	75	40
42.844810281	144	108	79
42.852124391	128	50	64
42.852641232	144	26	48
42.867243945	128	106	64
42.869008411	144	28	102
42.874044401	144	90	53
42.875936939	128	75	64
42.882418195	128	46	64
42.882753165	128	108	64
42.914696949	128	80	64
42.93288829	144	22	79
42.941031428	128	28	64
42.970224647	144	106	44
42.971612552	128	90	64
42.973981372	128	26	64
42.989461141	144	80	89
43.020321401	144	75	29
43.024724966	128	75	64
43.031063884	128	22	64
43.035564077	144	37	1
43.049667624	144	49	19
43.049902717	128	106	64
43.051355542	128	80	64
43.058884332	144	26	53
43.091526419	144	30	77
43.09322151	144	33	70
43.099997561	128	37	64
43.107678898	144	90	50
43.11086138	144	68	57
43.117625809	144	106	46
43.119146836	128	49	64
43.133797031	144	22	81
43.149695414	144	75	30
43.153865175	128	26	64
43.16429312	128	30	64
43.169074261	144	80	70
43.173507067	144	83	52
43.186901181	128	90	64
43.191431635	128	75	64
43.195228073	144	28	102
43.214951057	128	22	64
43.216110251	128	106	64
43.222480453	144	108	82
43.228384422	128	33	64
43.231929574	128	80	64
43.240979533	144	37	1
43.250899449	144	76	97
43.275555756	128	28	64
43.285390406	144	106	47
43.291886355	144	101	127
43.292212436	128	37	64
43.298777136	144	75	30
43.303718845	144	30	73
43.305498317	144	90	51
43.314462061	144	80	90
43.335315602	144	103	100
43.337526939	144	24	56
43.342021972	128	75	64
43.346613526	128	30	64
43.354201777	144	34	40
43.362222025	144	46	127
43.366625474	128	90	64
43.366892404	144	36	33
43.368833378	144	100	72
43.370053573	128	101	64
43.372182654	144	86	73
43.383440263	128	106	64
43.383688157	128	108	64
43.386821872	128	86	64
43.402189185	144	62	57
43.40578386	128	76	64
43.410678237	128	36	64
43.411229347	128	80	64
43.435336933	144	30	77
43.435688129	144	37	1
43.438354441	128	103	64
43.441040379	128	100	64
43.450347063	128	24	64
43.470658114	144	90	51
43.475817734	144	101	127
43.477255937	128	37	64
43.479131675	128	32	64
43.482593695	128	46	64
43.485235518	144	103	109
43.497291038	128	30	64
43.503632986	128	34	64
43.505461186	144	57	52
43.520495772	128	57	64
43.532535158	144	24	56
43.535644441	144	36	32
43.540513002	144	107	88
43.55384851	144	49	1
43.562482437	144	59	75
43.566474533	128	90	64
43.56956999	128	101	64
43.573464513	128	62	64
43.586685533	128	103	64
43.591771449	128	36	64
43.609486928	144	37	4
43.609823046	144	46	127
43.611884198	128	49	64
43.618467694	128	107	64
43.639598553	144	76	96
43.642466129	128	24	64
43.654452091	144	101	125
43.655832014	144	74	5
43.664255037	128	37	64
43.666505486	144	22	86
43.668474274	144	43	58
43.687281959	144	103	108
43.697198619	144	36	30
43.702600988	128	74	64
43.706201985	128	61	64
43.711591701	144	104	81
43.712803064	144	90	51
43.714905763	128	46	64
43.715307869	128	59	64
43.71716249	144	24	55
43.729185832	144	41	107
43.737679356	144	30	70
43.740682324	128	36	64
43.742081455	144	108	83
43.7457018	128	76	64
43.74815156	128	90	64
43.748303714	128	101	64
43.757033352	128	103	64
43.764876553	128	22	64
43.784204332	128	104	64
43.812090549	144	101	124
43.820761201	128	30	64
43.826588756	144	36	29
43.836865916	144	100	72
43.838065004	128	24	64
43.850236356	144	75	39
43.853817044	144	90	52
43.860952376	144	59	63
43.862341637	144	46	127
43.874235262	128	36	64
43.888814805	144	104	86
43.890684719	128	100	64
43.893439812	128	75	64
43.904193649	128	43	64
43.904562813	128	101	64
43.915445781	128	90	64
43.917026283	144	24	57
43.92228788	128	108	64
43.936064514	144	28	101
43.942334533	144	26	52
43.948411869	128	104	64
43.967568021	144	86	78
43.970231617	128	59	64
43.975437139	128	83	64
43.983906168	144	75	44
43.98435546	144	74	5
43.985748535	128	46	64
43.990835672	144	101	125
43.991051424	128	28	64
44.031939396	128	74	64
44.034814086	144	104	84
44.041835574	128	75	64
44.042804305	128	24	64
44.066460967	128	86	64
44.085266505	128	101	64
44.107497855	128	104	64
44.110587144	144	103	86
44.112431098	144	22	84
44.134851236	144	46	127
44.149622143	144	75	41
44.157749997	144	100	73
44.16387011	128	22	64
44.165916357	144	104	82
44.168877214	144	49	54
44.182507549	144	69	66
44.192741393	128	75	64
44.193072895	144	51	120
44.198964798	144	74	6
44.209099472	128	100	64
44.218222572	144	37	121
44.234931648	128	74	64
44.240397223	128	49	64
44.240717328	128	103	64
44.240789919	144	103	71
44.244786539	128	46	64
44.250133676	128	37	64
44.25846986	144	86	71
44.267909149	128	104	64
44.269435779	144	22	84
44.285624797	128	41	64
44.318634702	144	77	43
44.337146654	144	75	41
44.337769921	128	69	64
44.342208007	128	75	64
44.347795517	128	22	64
44.351714341	144	104	80
44.354317657	144	74	7
44.365897205	128	86	64
44.37526392	128	103	64
44.387227753	144	103	89
44.39528892	144	37	121
44.410201295	144	67	127
44.425074929	128	74	64
44.430022532	144	75	44
44.430431844	128	104	64
44.43518275	128	37	64
44.438890336	128	77	64
44.454592312	128	67	64
44.45823	128	75	64
44.468124776	144	89	27
44.469149401	128	89	64
44.495254187	144	28	101
44.499530095	144	63	62
44.500582549	144	86	61
44.501319647	144	104	82
44.501503152	144	72	113
44.506606871	144	95	55
44.510183879	144	74	11
44.533304017	128	63	64
44.552410907	144	35	51
44.554593454	128	72	64
44.555530503	144	100	69
44.569595401	144	36	31
44.570293335	144	94	101
44.57444799	128	74	64
44.58030188	128	104	64
44.591870171	128	28	64
44.599077651	144	67	127
44.600357935	128	100	64
44.601093441	144	47	122
44.602722107	128	103	64
44.609133719	128	86	64
44.619253628	128	95	64
44.625596754	128	67	64
44.629985371000004	128	68	64
44.631980707	128	35	64
44.638821033	144	46	127
44.659325705	128	47	64
44.681097476	128	36	64
44.705553986	144	104	80
44.709840785	128	26	64
44.71937403	144	67	127
44.726418935	144	74	15
44.745211097	144	89	114
44.745956964	144	36	29
44.748136329	128	46	64
44.757625365	144	24	50
44.757932816	144	43	54
44.763707069	128	74	64
44.766073689	128	67	64
44.769446514	128	24	64
44.779388151	128	57	64
44.791666422	128	94	64
44.795908437	144	103	96
44.798851883	128	104	64
44.809859295	128	36	64
44.816463838	144	85	78
44.819194269	144	24	51
44.833611557	144	22	83
44.855419977	144	74	14
44.855515056	144	27	63
44.856129084	128	27	64
44.856382486	128	43	64
44.856798492	128	85	64
44.859527053	144	32	111
44.868600159	144	67	127
44.872840919	144	72	114
44.889925545	128	103	64
44.893120124	144	90	54
44.895351976	144	46	127
44.912288392	144	36	30
44.914657915	144	73	33
44.916360314	128	67	64
44.922887912	128	72	64
44.93159847	128	22	64
44.936525773	128	24	64
44.960963405	128	36	64
44.961856689	144	41	121
44.967386462	144	47	120
44.967937026	128	90	64
44.97720445	144	108	97
44.979283798	144	27	63
44.9907518	128	32	64
44.996819635	144	24	50
44.997238197	144	76	95
45.001747282	144	67	127
45.011714178	128	27	64
45.014641574	128	46	64
45.020585833	144	72	114
45.024338131	128	51	64
45.024435828	128	47	64
45.032245902	144	36	30
45.033643759	144	37	122
45.035018308	144	28	100
45.053766014	144	100	68
45.059511424	128	108	64
45.065146533	128	67	64
45.073907207	128	72	64
45.074238712	128	74	64
45.086943558	128	37	64
45.101516037	128	76	64
45.10711919	128	28	64
45.11358029	144	103	102
45.133621913	144	67	127
45.134192096	128	24	64
45.135878639	144	27	64
45.158291565	128	36	64
45.166608739	128	100	64
45.166726123	128	27	64
45.169145939	144	99	86
45.170309867	144	72	114
45.188979378	144	74	13
45.191496984	128	103	64
45.198959098	128	67	64
45.201788247	144	37	118
45.222822912	128	72	64
45.254080072	128	37	64
45.254174228	128	74	64
45.266483007	144	22	84
45.26870305	144	56	119
45.268959858	144	58	45
45.279591601	144	27	64
45.289313594	144	24	49
45.301417677	144	67	127
45.302312767	144	46	127
45.302928822	128	46	64
45.310774722	144	76	94
45.324561111	144	47	118
45.329117228	128	27	64
45.331862086	128	67	64
45.351905999	144	62	79
45.35488474	144	74	11
45.363784899	128	22	64
45.396902971	144	37	122
45.400847124	128	74	64
45.405022786	128	24	64
45.411585056	144	68	54
45.419771014	144	103	59
45.422371055	144	27	64
45.425432056	128	58	64
45.435479049	128	76	64
45.449866049	144	22	84
45.450061816	128	56	64
45.451235152	144	37	51
45.453682224	144	50	120
45.463400797	128	27	64
45.500737534	144	85	65
45.523767163	128	103	64
45.530020391	128	22	64
45.531607729	144	58	44
45.539210785	144	74	3
45.539789126	128	85	64
45.545447204	144	56	125
45.55149688	144	27	63
45.553854044	128	50	64
45.572353131	128	27	64
45.573235338	128	68	64
45.580045529	128	74	64
45.587501105	144	72	114
45.617765031	128	72	64
45.62375612	144	23	39
45.643176503	144	98	77
45.648402182	144	86	68
45.659268621	128	58	64
45.671227191	128	56	64
45.674173712	144	48	68
45.687832465	144	27	61
45.692210461	144	74	1
45.711082372	128	62	64
45.724938937	144	45	41
45.726239303	128	47	64
45.726341414	128	37	64
45.729954967	128	74	64
45.752544109	144	28	104
45.761534666	144	106	38
45.769468592	128	27	64
45.773470949	128	86	64
45.793233721	128	48	64
45.805958232	144	56	123
45.806179079	144	74	2
45.807776298	128	28	64
45.808445731	128	98	64
45.821880508	144	37	118
45.832148771	144	58	44
45.832985392	144	103	53
45.834684029	128	106	64
45.854518804	144	27	60
45.868976945	144	86	70
45.876607911	128	74	64
45.876775035	128	37	64
45.88646155	144	98	76
45.906189529	128	56	64
45.906573547	144	53	65
45.923226131	128	27	64
45.931217814	128	103	64
45.931462134	144	36	29
45.933135575	144	106	42
45.947432598	144	44	71
45.949405954	128	86	64
45.960441644	144	66	107
45.964838366	144	46	127
45.966680294	144	74	3
45.975603958	128	58	64
45.986892085	128	46	64
46.002085593	144	68	56
46.005595521	128	44	64
46.009937904	144	79	124
46.012844143	128	89	64
46.020727191	144	27	60
46.02465156	128	98	64
46.02505838	128	36	64
46.033046194	144	56	120
46.04028655	144	22	86
46.044795485	144	21	64
46.046805839	128	53	64
46.047666447	144	34	37
46.054537727	128	79	64
46.059989213	128	74	64
46.068624448	144	28	112
46.077968771	144	103	55
46.086064122	128	68	64
46.088850724	128	106	64
46.092370538	128	27	64
46.096896289	144	62	68
46.097060378	128	22	64
46.106558442	128	21	64
46.115726918	144	106	42
46.125657888	144	104	80
46.127133696	144	25	56
46.127357842	144	36	28
46.129198982	128	66	64
46.131376978	144	94	107
46.133988069	144	85	70
46.136131501	128	23	64
46.137043631	144	46	127
46.141116931	128	28	64
46.150444408	128	34	64
46.154789106	144	74	3
46.163507585	144	58	43
46.165560475	144	86	59
46.167057948	128	56	64
46.179664923	144	27	60
46.180773576	144	91	73
46.182153804	128	103	64
46.183374855	128	104	64
46.190352692	128	85	64
46.192141054	128	36	64
46.209060474	128	74	64
46.215734708	128	106	64
46.234531619	128	25	64
46.237395632	144	75	40
46.249306391	128	75	64
46.25050241	128	86	64
46.251299147	144	104	79
46.257527108	128	27	64
46.258163063	144	56	127
46.267056756	128	46	64
46.275024792	144	44	78
46.282207469	144	36	27
46.291300271	128	45	64
46.293674413	144	74	9
46.301376609	128	91	64
46.30400572	128	94	64
46.308057846	128	44	64
46.314688389	128	104	64
46.32543601	144	103	55
46.33123644	144	100	60
46.333353746	144	75	47
46.335763147	144	27	60
46.337088856	144	95	52
46.341606429	128	36	64
46.343592924	128	62	64
46.344598891	144	72	112
46.3514837	144	50	20
46.359431536	128	75	64
46.361692287	128	74	64
46.38939491	128	27	64
46.395927983	128	100	64
46.397648335	128	56	64
46.399454537	144	46	127
46.403283624	128	72	64
46.405713351	144	104	75
46.40970859	128	103	64
46.438890316	144	56	125
46.449730054	144	36	24
46.4502482	144	75	50
46.466543408	144	23	46
46.466717432	128	104	64
46.468209231	128	50	64
46.473127162	144	22	86
46.473453477	128	95	64
46.476091733	128	36	64
46.476255307	144	74	25
46.477233781	144	27	59
46.479770659	144	48	67
46.485232721	128	41	64
46.488269041	128	46	64
46.493395345	128	75	64
46.500048293	144	44	84
46.523659892	144	26	100
46.527654945	128	74	64
46.531223992	128	22	64
46.542246095	144	103	52
46.566267699	128	27	64
46.571633309	128	56	64
46.572420683	144	101	118
46.577136611	128	44	64
46.582299408	144	75	58
46.588843986	144	108	102
46.592599796	128	23	64
46.60700693	128	48	64
46.610581081	128	103	64
46.624978103	128	75	64
46.627598007	144	100	59
46.633905027	128	101	64
46.642511533	144	27	59
46.644829144	144	74	39
46.661701905	128	108	64
46.664509268	144	56	114
46.674619998	144	22	86
46.686944940000004	144	28	113
46.698574312	144	79	126
46.70091043	128	74	64
46.701011355	144	44	84
46.709795432	128	58	64
46.713839537	128	22	64
46.721542586	128	27	64
46.729656034	144	59	68
46.7354117	144	103	58
46.738330665	128	44	64
46.739981900000004	144	101	120
46.751341529	128	100	64
46.754340671	128	79	64
46.75726917	144	72	114
46.757619999	128	28	64
46.76396995	144	85	76
46.768381637	144	75	53
46.774162818	128	75	64
46.790891104	144	86	52
46.794720879	144	27	58
46.796982615	144	60	77
46.806800184	128	85	64
46.807236809	144	74	60
46.814895423	128	103	64
46.82246621	128	101	64
46.825656096	144	90	64
46.842795051	144	82	56
46.847372605	128	60	64
46.859417629	128	74	64
46.872505563	144	58	38
46.872998868	128	27	64
46.87399074	128	59	64
46.879935625	144	75	55
46.903695945	128	72	64
46.905570489	144	103	68
46.907960344	128	90	64
46.923031079	128	86	64
46.924468785	128	75	64
46.927979965	144	101	122
46.935915666	144	23	47
46.938393451	144	21	64
46.946977389	144	60	73
46.964680327	144	59	62
46.974168557	144	74	75
46.987072357	144	62	76
46.994535634	128	82	64
46.998521703	128	103	64
47.000272928	144	86	53
47.004509396	144	50	8
47.009214414	128	101	64
47.012059013	128	99	64
47.012333255	128	74	64
47.027607335	128	60	64
47.029820966	144	75	50
47.030123278	144	46	127
47.047126537	128	56	64
47.057159583	128	21	64
47.057529449	144	43	59
47.05892132	128	75	64
47.075972452	128	59	64
47.080504131	144	100	65
47.087856326	144	103	81
47.087972722	128	86	64
47.097195602	144	60	69
47.104961321	144	101	123
47.128542834	128	62	64
47.130391397	128	43	64
47.131190553	144	74	94
47.141626646	144	39	52
47.159147712	128	60	64
47.166553569	144	59	61
47.169246653	128	100	64
47.171765473	128	50	64
47.178127237	128	103	64
47.183987598	128	74	64
47.200378526	144	86	55
47.202060703	144	75	55
47.208538838	128	101	64
47.208766808	128	75	64
47.212411742	128	46	64
47.225119949	144	53	67
47.23663847	144	22	86
47.238016177	128	86	64
47.248235693	128	22	64
47.251960258	144	28	122
47.25916182	144	63	67
47.262862085	128	26	64
47.267197778	144	60	69
47.268790017	128	59	64
47.283894208	144	44	63
47.285466883	144	74	110
47.298575848	144	101	124
47.303188525	128	63	64
47.313102541	144	75	50
47.31456109	128	60	64
47.324008793	128	28	64
47.326310006	144	103	102
47.331899752	144	59	66
47.333955713	128	53	64
47.336744894	128	44	64
47.344041884	144	46	127
47.344227011	144	80	47
47.346791918	128	74	64
47.35810484	128	75	64
47.366984944	128	46	64
47.374004341	128	39	64
47.393204798	144	85	70
47.396539906	144	60	67
47.398313877	128	101	64
47.408496627	128	103	64
47.410334771	144	86	60
47.412089795	144	41	112
47.415929234000004	128	59	64
47.43746946	144	44	60
47.44083677	128	85	64
47.442449233	128	80	64
47.443255321	128	60	64
47.445580183	144	74	122
47.44749379	144	62	78
47.455070987	128	86	64
47.460081255	128	58	64
47.461884577	144	75	51
47.462928903	144	36	30
47.4808894	128	41	64
47.483066275	144	101	124
47.489031434	144	59	65
47.4975745	128	44	64
47.497963208	144	60	69
47.499025283	144	24	55
47.500091222	128	74	64
47.50060424	144	100	65
47.503158201	144	80	47
47.511109517	128	75	64
47.5121135	128	36	64
47.532668044	128	59	64
47.54646925	144	34	43
47.555982156	128	62	64
47.567740573	144	46	127
47.567825042	128	100	64
47.56922259	128	101	64
47.577807213	128	60	64
47.590589774	144	44	64
47.595036188	144	103	52
47.596244569	128	80	64
47.613730723	144	75	49
47.614631819	144	58	36
47.615109789	144	76	97
47.616528514	144	59	65
47.627308194	128	46	64
47.628598082	144	86	63
47.63325665	128	34	64
47.643086831	144	22	86
47.644547734	128	44	64
47.645868698	144	60	69
47.647924266	144	74	119
47.660478166	128	75	64
47.663628651	144	101	125
47.666179727	144	91	72
47.675782075	144	80	48
47.680373182	144	79	127
47.681119804	128	24	64
47.682370284	144	65	36
47.693284361	128	59	64
47.69961523	128	86	64
47.701680748	128	74	64
47.707475158	144	41	112
47.724849569	128	79	64
47.726322585	128	60	64
47.726750259	128	103	64
47.734605286	144	44	69
47.737258641	128	80	64
47.741954596	128	76	64
47.746232233	128	23	64
47.752318071	144	28	122
47.755760101	128	65	64
47.764602933	144	75	50
47.775065949	144	90	60
47.775658936	128	101	64
47.775816141	128	41	64
47.778688173	144	21	66
47.787009256	144	59	63
47.797293161	144	62	91
47.797596525	144	60	71
47.805106457	144	74	104
47.807566112	128	28	64
47.808870179	128	75	64
47.814661793	128	44	64
47.817283283	144	86	61
47.818976187	128	22	64
47.819171993	144	22	89
47.822565226	128	21	64
47.841858271	144	100	65
47.850143538	144	103	77
47.860087631	128	74	64
47.863773253	144	24	53
47.868013921	128	90	64
47.87675369	128	60	64
47.87692584	128	59	64
47.884186557	128	24	64
47.886238705	144	44	64
47.894207617	128	62	64
47.894788035	128	91	64
47.902657423	128	86	64
47.904847382	144	36	29
47.915171523	144	75	47
47.930640073	144	59	61
47.935431799	128	103	64
47.936120562	144	21	65
47.936874612	128	100	64
47.958725713	128	75	64
47.961912775	128	44	64
47.994166912	128	21	64
47.99521713	128	22	64
47.995902186	144	85	77
47.997963315	144	39	50
48.014065936	144	74	82
48.016260063	128	36	64
48.026055251	128	74	64
48.028361487	144	44	65
48.028485485	128	59	64
48.029099828	144	63	68
48.045061253	144	24	51
48.05475383	144	41	112
48.0627954	144	75	44
48.066987558	144	50	10
48.074819776	128	85	64
48.07823314	144	103	117
48.08666316	128	63	64
48.094627505	128	44	64
48.102004134	144	59	60
48.10271127	144	46	127
48.107882002	128	75	64
48.119653117	128	41	64
48.127448802	144	27	59
48.136772161	144	62	100
48.161006798	128	58	64
48.165149144	128	39	64
48.182313432	128	103	64
48.183969405	144	44	63
48.185497459	128	59	64
48.189977825	128	46	64
48.207964232	128	27	64
48.212450351	144	75	50
48.217369349	144	63	68
48.218162323	128	50	64
48.227490112	128	24	64
48.230999592	128	44	64
48.234881437	144	86	88
48.259386776	128	62	64
48.260770433	144	24	51
48.268541616	144	23	47
48.274868277	128	75	64
48.284483807	128	73	64
48.303825153	144	74	32
48.306534933	144	44	71
48.312707328	128	74	64
48.320832663	144	106	39
48.322670046	128	63	64
48.32288411	128	86	64
48.324430259	144	80	48
48.33342317	144	58	35
48.340479214	144	69	68
48.355575736	128	44	64
48.356876468	144	26	83
48.370189743	144	46	127
48.374059782	144	22	89
48.380324583	144	75	49
48.383491131	128	80	64
48.384982362	144	29	66
48.397771825	144	41	111
48.403877236	144	51	8
48.411778337	128	24	64
48.428474371	128	75	64
48.433128053	128	106	64
48.436175931	144	74	10
48.44562169	128	74	64
48.44934598	128	26	64
48.460140226	128	58	64
48.460497408	144	103	81
48.461102219	144	44	72
48.467891474	128	29	64
48.472011095	128	41	64
48.473048452	128	46	64
48.495714051	144	80	50
48.497321648	144	62	111
48.497589526	128	44	64
48.500236947	128	69	64
48.511047054	128	51	64
48.512965378	144	75	53
48.522011566	144	36	27
48.522492276	128	23	64
48.524702462	128	22	64
48.541906086	144	27	58
48.549869706	144	106	41
48.553952973	128	80	64
48.557773217	144	100	65
48.561626606	144	47	121
48.566243975	128	27	64
48.572000078	144	86	56
48.575100865	128	75	64
48.576149844	144	74	1
48.582396125	144	58	36
48.583121839	128	103	64
48.58349969	144	50	11
48.626027285	128	36	64
48.630169802	144	79	123
48.631320165	144	46	127
48.632826732	128	106	64
48.637491168	144	80	51
48.640104649	144	90	58
48.640755557	128	47	64
48.647838158	128	100	64
48.655556579	128	58	64
48.674585202	128	86	64
48.679579052	144	75	52
48.70252284	128	74	64
48.72297349	128	79	64
48.725390694	128	75	64
48.733427898	128	46	64
48.739059563	128	90	64
48.739859148	144	107	89
48.740179652	128	80	64
48.763492073	144	58	34
48.764888422	144	103	61
48.774811934	144	47	121
48.774968744	144	24	51
48.790215512	144	106	43
48.79213233	128	50	64
48.794746192	128	24	64
48.803855027	144	41	109
48.80975948	128	107	64
48.818371195	144	21	62
48.830155665	144	51	7
48.833345203	144	74	14
48.842157094	128	58	64
48.855955722	128	47	64
48.873579849	144	46	127
48.877058901	128	41	64
48.877702892	128	103	64
48.877990394	144	22	83
48.878242457	144	91	78
48.879841322	128	74	64
48.882212971	128	106	64
48.897946733	144	49	70
48.90300379	128	21	64
48.90798267	144	59	56
48.910222849	144	85	64
48.920093247	144	107	88
48.945545558	144	86	35
48.949584692	128	51	64
48.959413463	128	107	64
48.962758189	144	27	57
48.96673364	144	106	43
48.967674535	144	39	102
48.970263724	144	76	96
48.970770088	128	46	64
48.979131056	128	86	64
48.979620398	144	47	121
48.982846331	144	58	35
48.986924588	128	49	64
49.006609633	144	74	39
49.009678389	128	85	64
49.01179252	128	59	64
49.014644956	128	91	64
49.055135633	128	22	64
49.055323714	144	22	83
49.055496895	128	27	64
49.05558332	144	53	62
49.055666421	128	47	64
49.055761503	128	74	64
49.059647644	144	23	47
49.05978547	144	103	110
49.065753559	128	106	64
49.071829362	144	59	55
49.074271801	128	39	64
49.077389656	128	58	64
49.082105205	144	107	89
49.119044191	144	36	26
49.121511687	144	86	41
49.123673619	144	32	67
49.139243671	128	76	64
49.145764041	144	93	102
49.149238078	144	47	120
49.151957653	128	103	64
49.15257567	144	106	43
49.153175057	128	107	64
49.159835474	128	23	64
49.163542821	128	59	64
49.165388005	144	74	67
49.191498627	128	74	64
49.192434246	128	53	64
49.197560004	128	93	64
49.212510986	144	41	107
49.212647351	128	36	64
49.217404502	144	100	66
49.218690998	144	51	1
49.229525904	128	47	64
49.231296362	128	22	64
49.241455054	144	107	90
49.241814261	144	59	49
49.248239152	128	106	64
49.255069245	144	23	47
49.261834135	128	86	64
49.269577778	128	100	64
49.278942455	144	80	82
49.28375555	128	107	64
49.285308499	128	41	64
49.294335975	128	32	64
49.301695664	144	74	89
49.312212085	144	103	117
49.321559715	144	47	119
49.332540933	144	106	42
49.332670134	128	59	64
49.333423369	144	43	52
49.352628666	144	86	51
49.362889439	144	69	67
49.373681594	128	80	64
49.374735193	128	74	64
49.377737656	128	43	64
49.384143653	128	23	64
49.395785209	144	63	52
49.396148398	144	46	127
49.400031988	144	59	51
49.402420627	128	47	64
49.404822217	128	103	64
49.409794818	144	44	63
49.414947276	128	106	64
49.423287783	144	27	60
49.431691114	128	86	64
49.463103463	144	74	113
49.466534133	144	47	120
49.471592829	128	27	64
49.473556155	144	80	88
49.490858223000004	128	59	64
49.493189948	128	44	64
49.495436017	144	100	66
49.497370438	128	46	64
49.514293326	128	74	64
49.526872808	128	47	64
49.526945103	128	63	64
49.544154769	128	100	64
49.553508264	144	44	61
49.555692852	144	59	48
49.556643196	144	90	59
49.564538375	128	80	64
49.575684625	144	86	54
49.581480688	128	62	64
49.583519106	144	22	80
49.591814952	144	75	55
49.593057637	144	41	106
49.606224936	144	27	61
49.606845458	144	74	113
49.62529518	144	47	120
49.62803845	128	75	64
49.633019611	144	93	95
49.638126028	128	44	64
49.640026872	128	59	64
49.646062488	144	80	93
49.650004571	144	26	77
49.65610679	128	90	64
49.663254667	128	74	64
49.665180491	128	22	64
49.667175006	144	46	127
49.667411786	144	100	66
49.674807514	128	86	64
49.688228288	128	27	64
49.688550164	128	47	64
49.69149285	128	93	64
49.699500694	128	41	64
49.704065818	144	63	56
49.705840921000004	144	44	66
49.71334441	128	69	64
49.728014223	144	62	32
49.731354834	144	59	47
49.734704496	128	100	64
49.736167673	144	27	61
49.740144256	128	80	64
49.74612896	128	26	64
49.764904175	128	46	64
49.76545113	128	44	64
49.767823052	128	63	64
49.798975475	128	59	64
49.806709985	144	74	90
49.810174997	144	86	71
49.823803325	144	80	99
49.831389845	128	27	64
49.832143535	128	74	64
49.84309854	144	44	71
49.847787578	144	100	65
49.862781209	144	59	42
49.87761265	128	44	64
49.890314624	128	86	64
49.900063344	144	108	32
49.917343953	128	80	64
49.917532228	128	100	64
49.927027718	144	46	127
49.935779637	144	32	69
49.937690826	144	74	57
49.937993913	128	108	64
49.963004651	128	59	64
49.970172112	144	41	106
50.002758355	128	74	64
50.004099564	144	60	98
50.01660771	128	46	64
50.019152438	144	23	46
50.024388266	144	22	84
50.025571307	144	86	53
50.027988698	144	89	49
50.032559534	144	80	97
50.035202272	144	100	65
50.048458202	128	32	64
50.049684032	128	41	64
50.076015755	144	82	61
50.076794734	128	60	64
50.085419597	144	108	38
50.087397412	128	86	64
50.097350513	128	100	64
50.097805036	128	22	64
50.108962943	144	103	123
50.113901442	144	44	75
50.122525975	144	50	11
50.12623529	144	91	74
50.129271708	128	80	64
50.133741299	144	74	23
50.138458631	128	108	64
50.14252087	144	94	104
50.146262322	128	89	64
50.157943455	128	82	64
50.158247481	128	74	64
50.160130872	128	44	64
50.167376807	128	51	64
50.170102754	144	93	106
50.178971198	144	28	120
50.189810426	144	95	61
50.197818308	128	103	64
50.200215899	144	22	81
50.210146642	144	46	127
50.210463102	128	93	64
50.225685854	144	100	65
50.2268583	128	91	64
50.245632221	144	76	95
50.255093599	144	74	14
50.260042034	144	86	54
50.269153793	144	108	50
50.26998331	144	44	69
50.2816584	128	22	64
50.284004011	128	100	64
50.286253951	144	103	127
50.286422811	128	95	64
50.29539302	128	94	64
50.303369769	144	82	60
50.311212788	128	74	64
50.324474387	128	108	64
50.324767067	144	41	107
50.326658437	128	46	64
50.32677731	128	86	64
50.33059636	144	75	47
50.331563354	144	93	111
50.336520134	128	76	64
50.33981154	128	44	64
50.34107791	128	28	64
50.353856145	144	21	68
50.36042881	144	28	103
50.36215014	128	75	64
50.364562049	144	36	20
50.367598072	128	103	64
50.373825074	128	82	64
50.381963622	128	93	64
50.388333473	144	100	65
50.395905074	144	107	90
50.413232637	144	44	68
50.415170974	128	36	64
50.419531491	128	21	64
50.428765992	128	41	64
50.437327371	144	63	56
50.437448499	144	108	58
50.449883909	128	107	64
50.452448648	144	74	31
50.457383444	144	90	62
50.457789209	144	103	124
50.469423523	144	86	60
50.471507932	128	63	64
50.47519475	128	100	64
50.477067721	128	74	64
50.482980838	144	32	70
50.484559901	128	108	64
50.485942414	128	44	64
50.487086314	144	93	114
50.517110421	128	86	64
50.521015209	144	36	22
50.539258265	128	103	64
50.541240077	128	28	64
50.541663984	128	93	64
50.544828693	144	64	1
50.550977393	128	50	64
50.551053214	128	64	64
50.553684807	144	44	67
50.556656053	128	90	64
50.560480469	144	28	119
50.562755553	144	107	85
50.563178203	128	62	64
50.57179419	144	100	64
50.579631639	128	23	64
50.591378006	144	82	60
50.597280487	144	108	66
50.5987997	128	36	64
50.599582706	144	63	59
50.607732442	128	32	64
50.620547665	128	107	64
50.624026466	144	74	43
50.637109818	128	44	64
50.640476116	128	82	64
50.653384796	128	35	64
50.662748958	128	108	64
50.662839263	128	74	64
50.663042685	128	100	64
50.668719057	144	93	105
50.674541174	128	63	64
50.691128594	128	28	64
50.703975624	144	44	64
50.708887423	144	22	88
50.710870161	144	28	102
50.717603511	144	107	87
50.724968991	144	59	82
50.735080378	144	108	72
50.735211722	128	93	64
50.748509368	144	62	100
50.750892925	144	36	18
50.762653192	144	74	67
50.764066343	144	95	55
50.769437001	144	100	64
50.772121306	128	44	64
50.784842588000004	128	108	64
50.785158718	128	107	64
50.796869428	128	95	64
50.797479054	128	22	64
50.798274596	128	36	64
50.801129726	144	51	12
50.803456113	144	46	127
50.807286342	128	28	64
50.810360556	144	86	80
50.813879154	128	74	64
50.845610353	144	44	68
50.846860819	128	100	64
50.856610966	128	59	64
50.877142446	128	86	64
50.880096599	144	28	121
50.887952621	144	53	64
50.891855507	144	76	96
50.896608765	144	24	55
50.912277963	144	34	52
50.922401231	128	44	64
50.933934931	144	26	66
50.937111171	144	108	89
50.939446303	144	59	87
50.943268738	144	74	75
50.955147824	144	89	65
50.958446224	128	28	64
50.967689253	144	82	57
50.967942519	144	100	64
50.969859142	144	95	54
50.978042502	144	28	102
50.979945268	128	74	64
50.981808637	128	76	64
50.987286583	128	108	64
50.990848148	128	53	64
50.992149854	144	103	89
50.993907844	144	44	68
50.994127451	128	62	64
50.999236856	128	34	64
51.009822356	144	86	80
51.02355721	128	26	64
51.023785616	128	59	64
51.028530094	144	104	81
51.029481149	128	46	64
51.034928552	128	89	64
51.040397896	128	24	64
51.04216776	128	82	64
51.047547045	128	100	64
51.048336651	128	103	64
51.057483061	128	28	64
51.071485207	144	80	96
51.076456304	128	44	64
51.077529077	144	74	88
51.088081937	128	86	64
51.091840751	144	75	48
51.092224186	144	108	97
51.100511971	128	95	64
51.111908267	128	75	64
51.114750755	144	28	125
51.116899686	144	59	78
51.130885946	128	108	64
51.131171482	144	62	100
51.136444127	128	104	64
51.140276744	144	21	59
51.147583518	144	44	63
51.153479999	144	100	64
51.153595	128	74	64
51.163440952	128	80	64
51.163795154	144	106	38
51.164622316	144	22	87
51.176789246	128	59	64
51.201640578	144	24	56
51.202990901	144	95	51
51.20455035	144	23	42
51.206230244	128	62	64
51.22180068	144	26	58
51.22418333	128	28	64
51.22683771	128	100	64
51.22746109	144	74	101
51.231056869	128	44	64
51.249246368	128	22	64
51.25812174	128	21	64
51.260387471	144	108	107
51.268286754	144	80	92
51.268563067	144	66	98
51.26878683	144	59	77
51.2805841	144	93	106
51.282658032	128	74	64
51.292937678	144	62	100
51.295909226	128	95	64
51.298794544	144	69	65
51.301294483	128	26	64
51.303660247	144	44	62
51.306375072	128	106	64
51.308214441	144	64	1
51.316445159	128	64	64
51.323747436	128	80	64
51.325793782	128	108	64
51.330337065	144	47	124
51.33103285	128	59	64
51.331155682	144	50	46
51.335776472	128	93	64
51.336839197	128	24	64
51.340330024	144	37	68
51.345345172	128	37	64
51.349650874	144	22	88
51.353304277	144	100	64
51.366375287	144	106	39
51.368787823	144	85	54
