time	action	midinote	velocity
1.206713562	144	74	44
1.266157044	128	74	64
1.767008384	144	74	75
1.80387561	128	74	64
3.200409168	144	74	46
3.240384623	128	74	64
4.268960282	144	74	45
4.323003368	128	74	64
5.482313852	144	74	83
5.5211353	128	74	64
11.564045358	144	74	28
11.594882839	128	74	64
32.698267484	144	74	88
32.699882835	128	74	64
34.226976698	144	74	58
34.231279348	128	74	64
34.919430039	144	74	68
34.959997737	128	74	64
35.99879197	144	74	80
36.044771177	128	74	64
36.505287955	144	74	33
36.566574449	128	74	64
36.919138295	144	74	76
36.933285404	128	74	64
37.083267101	144	74	73
37.131361321	128	74	64
37.229740215	144	74	95
37.289099117	128	74	64
37.405433729	144	74	80
37.42334668	128	74	64
39.971657414	144	74	4
40.022377511	128	74	64
40.519408497	144	74	7
40.586652941	128	74	64
40.900312778	144	74	3
40.989600645	128	74	64
41.132126383	144	74	18
41.173611969	128	74	64
41.353885669	144	74	19
41.387398868	128	74	64
41.516743225	144	74	20
41.609194258	128	74	64
41.778159901	144	74	20
41.815186	128	74	64
41.962326796	144	74	21
42.051725392	128	74	64
42.127909474	144	74	23
42.203629895	128	74	64
42.320430763	144	74	24
42.366759076	128	74	64
42.432031684	144	74	27
42.502276941	128	74	64
42.560052596	144	74	28
42.664703107	128	74	64
42.769338707	144	74	26
42.816597656	128	74	64
42.898535703	144	74	30
42.964771226	128	74	64
42.999137029	144	74	35
43.089073178	128	74	64
43.196041186	144	74	35
43.291764584	128	74	64
43.367133372	144	74	37
43.440534241	128	74	64
43.524449195	144	74	36
43.624381227	128	74	64
68.438399378	144	97	18
68.472718045	128	97	64
68.935030874	144	97	25
68.988828531	128	97	64
69.288681888	144	97	35
69.372268158	128	97	64
69.479824068	144	97	48
69.631084218	128	97	64
69.692747951	144	97	58
69.788351355	128	97	64
69.932539699	144	97	76
69.95678005	128	97	64
70.120905642	144	97	101
70.121059732	128	97	64
72.33522562	144	97	60
73.913364055	144	74	31
74.008237324	128	74	64
74.247309635	128	97	64
74.405143447	144	74	54
74.485310385	128	74	64
74.599858957	144	74	56
74.663032312	128	74	64
74.779226018	144	74	65
74.844794934	128	74	64
74.884882736	144	97	85
74.954785621	144	74	67
75.034378336	128	74	64
75.084126148	144	74	70
75.763778578	128	97	64
76.139757661	128	74	64
76.18955272	144	74	75
76.260620388	128	74	64
76.395100949	144	97	81
76.832272343	128	97	64
77.271550391	144	97	79
77.580454797	128	97	64
77.658319021	144	74	41
77.828192972	128	74	64
78.165633654	144	74	43
80.943281919	128	74	64
81.223753795	144	74	38
81.388758947	128	74	64
81.787632603	144	74	40
81.843943183	128	74	64
82.281265745	144	74	43
82.36822602	128	74	64
82.805486498	144	74	44
82.930835517	128	74	64
83.316878354	144	74	43
83.466215618	128	74	64
83.546031344	144	74	42
83.68696053	128	74	64
84.775480751	144	74	38
84.856909973	128	74	64
85.356701587	144	74	46
85.476205778	128	74	64
85.923983495	144	74	47
86.010703244	128	74	64
86.458143837	144	74	47
86.585041946	128	74	64
86.77519181	144	74	47
86.871064298	128	74	64
87.369080344	144	74	50
87.465738195	128	74	64
87.900058252	144	74	50
87.984900637	128	74	64
88.435623893	144	74	51
88.549561777	128	74	64
89.020297631	144	74	50
89.110950048	128	74	64
89.352514345	144	74	50
89.474812781	128	74	64
93.053000579	144	97	65
93.077664988	144	74	39
93.077904225	128	74	64
93.430661509	144	74	31
93.460832642	128	74	64
93.779971505	128	97	64
93.928846168	144	74	52
93.954455054	128	74	64
94.104853217	144	97	105
94.346445312	144	74	53
94.377698624	128	74	64
94.681159098	128	97	64
94.988730645	144	97	1
95.133493303	128	97	64
95.321574225	144	97	12
95.4959004	128	97	64
95.65454685	144	97	25
95.799042914	128	97	64
95.898825801	144	97	42
96.047942589	128	97	64
96.112188438	144	97	49
96.264878044	128	97	64
96.344624414	144	97	67
96.489545385	128	97	64
96.564032781	144	97	80
96.656989917	128	97	64
97.104313911	144	97	14
97.206759847	128	97	64
97.403834366	144	97	37
97.489517594	128	97	64
97.566651438	144	97	41
97.710703126	128	97	64
97.748808515	144	97	44
97.896748201	128	97	64
97.927451916	144	97	42
98.081521395	128	97	64
98.178503764	144	97	21
98.847670272	128	97	64
99.021278355	144	97	4
99.213364926	128	97	64
99.265062297	144	97	8
99.414505517	128	97	64
99.49426099	144	97	29
99.664463318	128	97	64
99.72752945	144	97	36
99.872336256	128	97	64
99.961674122	144	97	53
100.056738848	128	97	64
100.418996319	144	97	1
100.523205265	128	97	64
100.768454153	144	97	1
100.914728192	128	97	64
101.039470234	144	97	1
101.122273323	128	97	64
101.230129481	144	97	1
101.323772543	128	97	64
101.50420509	144	97	1
101.572976709	128	97	64
101.717466848	144	97	1
101.756196623	128	97	64
101.901115093	144	97	1
101.955903561	128	97	64
102.100789069	144	97	1
102.139673752	128	97	64
102.247550346	144	97	1
102.308164344	128	97	64
102.412573706	144	97	1
102.490561091	128	97	64
102.577746898	144	97	1
102.673356083	128	97	64
102.760316537	144	97	1
102.903669298	128	97	64
102.943367324	144	97	1
103.280367379	128	97	64
103.360509471	144	97	1
103.564677581	128	97	64
103.719233534	144	97	1
104.664644649	128	97	64
105.26169013	144	97	88
105.515423322	128	97	64
106.035866594	144	97	1
106.181697168	128	97	64
106.37776678	144	97	17
106.441857904	128	97	64
131.323172034	144	97	1
131.355781226	128	97	64
131.917227871	144	97	1
132.008206216	128	97	64
141.601042792	128	97	64
151.324513332	144	23	72
152.972243038	128	23	64
157.920620398	144	23	32
159.437680522	128	23	64
163.695825447	144	23	90
165.649267146	128	23	64
167.007024263	144	23	18
167.164504429	128	23	64
167.554646294	144	23	26
167.625687353	128	23	64
167.837191835	144	23	26
167.891300059	128	23	64
168.039848209	144	23	30
168.131108084	128	23	64
168.214166418	144	23	30
168.313419598	128	23	64
168.396519845	144	23	29
168.491765769	128	23	64
168.599687708	144	23	26
168.675837642	128	23	64
168.778815592	144	23	28
168.875599483	128	23	64
168.979908184	144	23	32
169.058977045	128	23	64
169.220660686	144	23	29
169.299116031	128	23	64
169.45281532	144	23	33
169.508429673	128	23	64
169.672067419	144	23	29
169.711552868	128	23	64
169.869542028	144	23	30
169.959074004	128	23	64
170.178982227	144	23	25
170.242239444	128	23	64
170.345221145	144	23	19
170.427970318	128	23	64
170.513819147	144	23	13
170.59097248	128	23	64
170.735786475	144	23	13
170.775326516	128	23	64
170.882822586	144	23	16
171.091063748	128	23	64
171.440825375	144	23	92
171.494018232	128	23	64
171.637317039	144	23	100
171.708360523	128	23	64
224.209882901	128	23	64
226.797923843	128	74	64
1013.539672052	128	91	64
1079.552524711	128	31	64
1304.754501404	128	26	64
4.982790056	144	31	9
5.551981256	144	39	40
8.617226207	128	31	64
10.165021738	144	31	16
10.960441906	128	31	64
11.214964183	144	31	120
11.275104459	128	31	64
13.561316406	144	31	49
13.61560378	128	31	64
13.759507489	144	31	61
13.825765075	128	31	64
13.900782627	144	31	66
13.992982938	128	31	64
14.194534808	144	31	72
14.258452376	128	31	64
14.457499319	144	31	69
14.525664905	128	31	64
14.813645792	144	31	8
14.875099092	128	31	64
14.979940185	144	26	12
15.119087357	128	39	64
15.390018061	128	26	64
15.8252506	144	26	35
17.271731122	144	31	114
17.424804352	128	31	64
17.629925921	144	31	115
17.821698186	128	26	64
17.885573324	128	39	64
17.938606278	144	26	57
17.979788776	128	26	64
18.338216649	144	46	49
18.381020555	128	46	64
18.937956726	144	46	53
19.002339638	128	46	64
19.059890768	144	26	113
19.112092338	128	26	64
19.522499397	144	46	54
19.560519902	128	46	64
20.025639448	128	31	64
20.101112491	144	46	56
20.164435315	128	46	64
20.699393188	144	46	55
20.743255877	128	46	64
21.313957938	144	46	52
21.396856461	128	46	64
22.01863057	144	46	46
22.089120806	128	46	64
22.791836474	144	46	47
22.864473084	128	46	64
23.250977793	144	31	16
23.277809512	128	31	64
23.392947018	144	26	7
23.721258531	144	46	43
24.254843914	144	31	24
24.26504049	128	31	64
24.753772438	128	26	64
24.83414002	144	26	53
24.898645665	128	26	64
25.509293121	144	26	67
25.548446699	128	26	64
27.823210327	144	26	33
27.995478937	144	31	47
28.001799502	128	31	64
28.265632875	144	31	48
28.31107646	128	31	64
28.853937791	144	31	50
28.894411186	128	31	64
29.180219253	144	31	50
29.244403078	128	31	64
29.514953245	144	31	50
29.543806587	128	31	64
29.790478797	144	31	49
29.843209721	128	31	64
30.119165419	144	31	49
30.142871866	128	31	64
30.395822069	144	31	48
30.44357031	128	31	64
30.730271169	144	31	47
30.778067945	128	31	64
30.981334869	144	31	48
31.06572948	128	31	64
31.312943146	144	31	48
31.361264914	128	31	64
31.629790322	144	31	47
31.680349826	128	31	64
31.916696485	144	31	47
31.995095076	128	31	64
32.231166828	144	31	46
32.277893087	128	31	64
32.458955679	144	31	44
32.56135301	128	31	64
32.776410562	144	31	44
32.862225713	128	31	64
33.01046625	144	31	44
33.077354326	128	31	64
33.437360598	144	31	47
33.705087057	128	31	64
33.787515274	144	31	45
33.862073921	128	31	64
33.995129623	128	46	64
34.115957805	144	31	43
34.161287858	128	31	64
34.481931624	144	31	45
34.821813631	128	31	64
35.045039656	144	108	25
35.172165149	144	31	38
35.213223087	128	31	64
35.467739582	144	31	41
35.512864227	128	31	64
35.835775326	144	31	41
35.861897152	128	31	64
36.204213846	128	108	64
36.33743409	128	26	64
36.377335102	144	40	58
36.426771721	128	40	64
36.52141673	144	31	40
36.547393519	128	31	64
36.962625979	144	108	35
37.054926829	144	31	38
37.175988071	128	31	64
38.021343527	144	31	43
38.047240039	128	31	64
39.070817468	144	31	45
39.130598072	128	31	64
39.426662407	144	26	61
39.571530476	128	26	64
39.612715581	144	40	80
39.758194411	128	40	64
40.472495627	128	108	64
40.54498202	144	108	36
41.796152909	144	26	60
42.137365143	128	26	64
42.572110823	144	31	51
42.597137194	128	31	64
42.640784946	144	46	35
42.713908402	128	46	64
42.759699189	144	26	20
43.410225855	144	46	37
43.491654446	128	46	64
43.514622684	128	108	64
43.5302383	144	31	50
43.613680134	128	31	64
44.261338632	144	46	38
44.273227443	144	31	51
44.314261451	128	31	64
44.328393877	128	46	64
44.363374143	144	46	40
44.43283048	128	46	64
45.15399446	144	46	39
45.250145053	128	46	64
45.264075736	128	26	64
45.409436383	144	31	55
45.432335797	128	31	64
45.644253752	144	31	54
45.680562205	128	31	64
46.038047056	144	46	40
46.156075599	128	46	64
46.927519712	144	46	42
46.929383337	144	108	113
47.023578685	128	46	64
47.335408106	144	31	4
47.69748077	144	46	44
47.784800817	128	46	64
48.253529844	128	31	64
48.282015409	144	40	62
48.304118238	128	40	64
48.554475503	144	46	44
48.614779665	128	46	64
49.428281401	144	46	46
49.496669713	128	46	64
50.026376817	144	26	38
50.027989985	128	26	64
50.449134291	128	108	64
50.52487101	144	31	41
50.532630204	128	31	64
50.592791763	144	26	119
50.593134291	128	26	64
51.314802415	144	40	60
51.38394929	128	40	64
51.545481293	144	26	53
52.52302127	144	31	1
53.167116228	128	31	64
53.421357977	144	31	98
53.4987721	128	31	64
54.216167988	144	40	63
54.287865914	128	40	64
54.455190227	144	31	46
54.482541078	128	31	64
55.223708478	144	31	40
55.265473145	128	31	64
55.678490542	144	31	40
55.699202823	128	31	64
56.015603932	128	108	64
56.1155787	144	31	37
56.196030992	128	31	64
57.422919389	128	26	64
58.611617224	144	61	12
58.663632851	128	61	64
59.127796038	144	26	51
59.145964514	128	26	64
59.226655996	144	61	8
59.28589789	128	61	64
59.512163769	144	61	33
59.561264807	128	61	64
59.76318017	144	61	33
59.838249392	128	61	64
59.946528258	144	61	35
60.005192714	128	61	64
60.012387503	144	40	59
60.047723663	128	40	64
60.05866909	144	46	42
60.124532266	128	46	64
60.156256565	144	61	50
60.204326461	128	61	64
60.344331589	144	61	53
60.371168411	128	61	64
60.491040257	144	61	50
60.538696821	128	61	64
60.648804216	144	61	45
60.704978671	128	61	64
60.810020702	144	61	42
60.855298219	128	61	64
60.893183211	144	61	70
60.922130196	128	61	64
60.958800868	144	61	44
61.006513978	128	61	64
61.026420588	144	26	18
61.031211065	144	61	72
61.087513423	128	61	64
61.142596033	144	61	44
61.17189149	128	61	64
61.210088704	144	61	71
61.256478282	128	61	64
61.265584832	128	26	64
61.309294686	144	61	42
61.354965549	128	61	64
61.374747098	144	61	71
61.424150889	128	61	64
61.458029608	144	61	45
61.505101794	128	61	64
61.557866989	144	61	69
61.57180499	128	61	64
61.608655256	144	61	45
61.671162203	128	61	64
61.707987002	144	61	65
61.755108531	128	61	64
61.75863354	144	26	38
61.782690978	144	46	47
61.791905104	144	61	46
61.839315129	128	61	64
61.843474913	128	46	64
61.891051283	144	61	71
61.904843921	128	26	64
61.907752509	144	31	43
61.938339561	128	61	64
61.950632516	128	31	64
61.97676256	144	61	47
62.023409699	128	61	64
62.042279556	144	61	76
62.088680545	128	61	64
62.142472304	144	61	47
62.189024121	128	61	64
62.207974119	144	61	74
62.255895299	128	61	64
62.277034215	144	26	57
62.299466584	128	26	64
62.308312567	144	61	46
62.355024509	128	61	64
62.375025647	144	61	74
62.397678439	144	31	37
62.435362176	128	31	64
62.437512084	128	61	64
62.458264158	144	61	45
62.505510852	128	61	64
62.524893505	144	61	70
62.57270358	128	61	64
62.624740584	144	31	54
62.624904402	144	61	46
62.651709448	144	40	65
62.672641949	128	61	64
62.680031989	128	31	64
62.732423713	128	40	64
62.917285581	144	31	59
62.981435725	128	31	64
63.177422254	144	26	31
63.196022161	128	26	64
63.285219788	144	26	33
63.298749708	144	61	60
63.329100762	128	26	64
63.343319436	128	61	64
63.405730983	144	26	35
63.466215631	128	26	64
63.521060069	144	26	37
63.552006085	144	46	43
63.578728823	128	46	64
63.581098175	128	26	64
63.654409764	144	26	38
63.716221413	128	26	64
63.788437217	144	26	39
63.849677442	128	26	64
63.921390435	144	61	62
63.922235369	144	26	42
63.939370083	144	31	5
63.961377604	128	61	64
63.983224755	128	26	64
64.055508387	144	26	46
64.098841841	128	26	64
64.185750566	144	26	53
64.229567503	128	26	64
64.308443559	128	31	64
64.318801841	144	26	57
64.362604219	128	26	64
64.451805509	144	26	63
64.499263417	128	26	64
64.585097395	144	26	65
64.629150944	128	26	64
64.643998131	144	53	19
64.656658486	128	53	64
64.705586025	144	26	70
64.749253789	128	26	64
65.124595026	144	53	4
65.162946293	128	53	64
65.169189241	144	61	127
65.212709701	128	61	64
65.265725317	144	40	68
65.334568299	128	40	64
65.677215294	144	26	45
65.695734883	128	26	64
65.754548833	144	26	64
65.766879737	144	53	36
65.793723966	128	53	64
65.799108475	128	26	64
66.288643562	144	61	1
66.3775103	128	61	64
66.524091291	144	53	60
66.562910254	128	53	64
66.629172167	144	61	1
66.695128585	128	61	64
66.708130418	144	53	56
66.746074187	128	53	64
66.776934276	144	61	2
66.841529349	128	61	64
66.848819614	144	53	57
66.912539018	128	53	64
66.978629866	144	61	1
67.024867581	128	61	64
67.044335844	144	61	20
67.074429235	144	53	55
67.092068188	128	53	64
67.107565592	128	61	64
67.163661671	144	61	1
67.207599423	128	61	64
67.240522587	144	53	54
67.261974218	144	61	17
67.279362237	128	53	64
67.291493477	128	61	64
67.311908699	144	61	1
67.316619936	144	31	75
67.374603548	128	31	64
67.375014868	128	61	64
67.414545417	144	61	21
67.469241799	144	31	76
67.527493117	128	61	64
67.531646195	128	31	64
67.535472237	144	61	33
67.609798618	128	61	64
67.619263804	144	31	76
67.63127615	144	61	28
67.699287177	128	31	64
67.778853917	128	61	64
67.778926928	144	61	36
67.793788422	144	26	44
67.825572553	128	61	64
67.840294653	144	53	54
67.893919243	128	53	64
67.980075999	144	61	49
68.02490905	128	61	64
68.038850822	144	53	53
68.062414051	128	53	64
68.063450207	144	61	79
68.109215885	128	61	64
68.166170572	144	53	53
68.178366901	144	61	60
68.209443083	128	61	64
68.244786264	128	53	64
68.262531313	144	61	96
68.292564228	128	61	64
68.348470867	144	61	72
68.359102075	128	61	64
68.390619401	144	53	52
68.412299008	128	53	64
68.414524358	144	61	110
68.459381563	128	61	64
68.479779606	144	61	95
68.516386704	144	53	51
68.525904582	128	61	64
68.56381978	144	61	127
68.592046696	128	61	64
68.594504177	128	53	64
68.630576992	144	61	102
68.675180048	128	61	64
68.694879528	144	61	125
68.758498175	128	61	64
68.802411473	144	61	84
68.924588247	128	61	64
68.978521243	144	61	58
69.025888296	128	61	64
69.045607362	144	61	83
69.092408609	144	53	49
69.108416194	128	61	64
69.147143576	144	61	46
69.161651398	128	53	64
69.192406134	128	61	64
69.249863598	144	53	47
69.314084911	144	61	29
69.328128701	128	53	64
69.36089027	128	61	64
69.382608245	144	61	51
69.417599513	144	53	46
69.476408847	128	61	64
69.479934282	144	46	127
69.494161572	128	53	64
69.498233742	144	61	17
69.512735064	128	46	64
69.564355818	128	61	64
69.564430101	144	61	43
69.583823623	144	53	46
69.642976214	128	61	64
69.660464013	128	53	64
69.684860164	144	61	1
69.744909891	128	61	64
69.797310365	144	61	22
69.804714618	144	53	46
69.842564897	128	61	64
69.843776191	128	53	64
69.879662712	144	61	1
69.911576637	128	61	64
69.995743939	144	61	1
69.999019599	144	40	64
70.028138927	128	61	64
70.084894571	128	40	64
70.162124236	144	61	1
70.244270449	128	61	64
70.306449253	144	53	50
70.360693693	128	53	64
70.395731946	144	34	61
70.449341863	144	53	51
70.464732635	128	34	64
70.528126199	128	53	64
70.530155913	144	34	63
70.602230577	128	34	64
70.616373592	144	53	51
70.666222178	144	34	70
70.711008397	128	53	64
70.719549496	128	34	64
70.781592303	144	53	49
70.7976063	144	34	82
70.878831419	128	53	64
70.947921545	144	46	127
70.955977516	128	34	64
70.965580086	144	53	48
70.991071632	144	34	106
71.012021742	128	46	64
71.044639474	128	53	64
71.168384601	144	61	17
71.197478235	128	61	64
71.262385228	144	61	41
71.293532183	128	61	64
71.330774057	144	61	31
71.392925976	128	61	64
71.429572247	144	61	44
71.476827032	128	61	64
71.54069887	144	53	44
71.545850502	144	61	32
71.560089751	128	61	64
71.593842826	128	53	64
71.5973698	144	61	61
71.643885722	128	61	64
71.698201106	144	61	54
71.698800078	144	53	46
71.707679051	144	31	35
71.727889422	128	61	64
71.749438558	128	31	64
71.777775897	128	53	64
71.798137835	144	61	70
71.860914988	128	61	64
71.865918965	144	53	46
71.914368475	144	61	56
71.944532936	128	53	64
71.944801214	128	61	64
71.997190225	144	61	68
72.014787384	144	53	46
72.043843833	128	61	64
72.094845889	128	53	64
72.096933084	144	61	52
72.144244715	128	61	64
72.182366676	144	53	47
72.196850855	144	61	70
72.217048761	144	46	22
72.227282092	128	61	64
72.260985916	128	53	64
72.280928707	144	61	43
72.310922874	128	46	64
72.313303411	128	61	64
72.364762265	144	61	63
72.378399052	128	61	64
72.463773977	144	61	42
72.476936015	128	61	64
72.514877764	144	61	67
72.562649713	128	61	64
72.615227632	144	61	43
72.662780006	128	61	64
72.699402973	144	61	66
72.727294925	128	61	64
72.757612127	144	53	47
72.765908845	144	61	40
72.776731644	144	31	44
72.797549244	128	61	64
72.797644293	144	61	68
72.817587209	128	31	64
72.833836747	144	46	75
72.835226421	128	53	64
72.877397176	128	61	64
72.915794811	144	53	48
72.9183939	144	31	41
72.925214403	128	46	64
72.980941668	128	31	64
73.011313373	128	53	64
73.068684903	144	53	47
73.080606625	144	61	41
73.08658615	144	31	39
73.144755963	128	61	64
73.153808206	144	61	69
73.165267939	128	31	64
73.16845456	128	53	64
73.227427644	128	61	64
73.234547325	144	53	47
73.280986566	144	61	41
73.327914663	128	53	64
73.345076731	128	61	64
73.353603431	144	61	70
73.410958277	128	61	64
73.411841429	144	53	47
73.426496435	128	53	64
73.465510808	144	61	37
73.514020929	128	61	64
73.565428655	144	61	68
73.578377255	128	61	64
73.631996924	144	61	42
73.678710155	128	61	64
73.73394561	144	61	61
73.778999921	128	61	64
73.832395148	144	61	40
73.859699394	144	31	34
73.878391476	128	61	64
73.884615369	128	31	64
73.885630882	144	61	67
73.960955444	128	61	64
73.971301066	144	53	49
74.016602083	144	61	37
74.04208542	128	53	64
74.045048319	128	61	64
74.113037995	144	53	50
74.131230569	144	31	37
74.201593866	128	31	64
74.212588443	128	53	64
74.281932005	144	53	48
74.33013719	144	46	127
74.378376377	128	53	64
74.396857947	144	31	38
74.399037338	144	40	56
74.402929135	128	46	64
74.417011046	128	40	64
74.431752866	128	31	64
74.43411099	144	53	49
74.528280696	128	53	64
74.600872209	144	53	48
74.677951339	128	53	64
74.705295471	144	31	36
74.764685768	128	31	64
74.850362138	144	61	36
74.91632082	128	61	64
74.987996456	144	61	63
75.013302095	128	61	64
75.01813681	144	31	33
75.032467025	144	40	38
75.047966212	128	31	64
75.083981572	144	61	45
75.131169151	128	61	64
75.135572514	128	40	64
75.181382707	144	61	67
75.205270404	128	34	64
75.208487732	144	53	48
75.228212548	128	61	64
75.277479502	128	53	64
75.281408494	144	61	42
75.297132259	144	31	34
75.323374096	144	34	96
75.345208061	128	61	64
75.349251111	128	31	64
75.366120814	144	61	71
75.366673869	144	53	48
75.412876319	128	61	64
75.444922214	128	53	64
75.466827251	144	61	43
75.517540942	144	53	47
75.52919698	128	61	64
75.54953482	144	61	71
75.59513086	128	53	64
75.59570426	128	61	64
75.649581698	144	61	42
75.665028303	144	53	48
75.695621465	128	61	64
75.733964596	144	61	72
75.761219901	144	46	96
75.76133522	128	53	64
75.779083728	128	61	64
75.833209184	144	61	41
75.849367861	144	53	48
75.857151763	128	46	64
75.880564231	128	61	64
75.917166293	144	61	72
75.928288601	128	53	64
75.958163986	144	31	32
75.965318751	128	61	64
75.985122835	144	53	48
75.999822003	128	31	64
76.031282334	144	61	41
76.06171798	128	53	64
76.079959368	128	61	64
76.132860438	144	61	73
76.179357372	128	61	64
76.216349691	144	61	45
76.232845322	144	40	49
76.252439205	144	31	31
76.278459708	128	61	64
76.2987712	128	31	64
76.301831516	144	61	75
76.302054246	128	40	64
76.355853684	128	34	64
76.362091815	128	61	64
76.380940549	144	34	57
76.382118524	144	61	42
76.445991366	128	61	64
76.484113565	144	61	75
76.546487489	128	61	64
76.573738262	144	53	49
76.601048423	144	61	38
76.627710043	128	53	64
76.646822172	128	61	64
76.700727323	144	61	68
76.729813367	128	61	64
76.732038832	144	53	49
76.783388095	144	61	37
76.811385566	128	53	64
76.846627474	128	61	64
76.881665589	144	53	50
76.920138522	144	61	64
76.94648507	128	61	64
76.979946193	128	53	64
76.991333448	144	31	31
77.000774777	144	40	80
77.050367768	144	53	49
77.050808093	128	31	64
77.069335415	128	40	64
77.128131655	128	53	64
77.166401615	128	26	64
77.198814842	144	53	50
77.230213074	144	46	67
77.230828036	128	46	64
77.255443008	144	26	73
77.270347343	128	26	64
77.294410607	128	53	64
77.6101577	144	61	72
77.631846623	128	61	64
77.644012362	144	31	34
77.682788262	128	31	64
77.694056204	144	61	47
77.747429318	128	61	64
77.787542902	144	61	70
77.804818619	128	34	64
77.847015883	128	61	64
77.867786639	144	61	45
77.878774444	144	34	28
77.940129996	144	53	51
77.946788353	128	61	64
77.952743775	144	61	78
77.979414362	128	53	64
77.981935884	128	34	64
78.00807751	144	31	33
78.013290808	128	61	64
78.035122429	144	61	48
78.048619682	128	31	64
78.066791413	144	53	52
78.070965067	144	34	27
78.09451338	144	26	115
78.0995066	144	40	31
78.130387803	128	61	64
78.148641133	128	26	64
78.161079242	128	53	64
78.170560156	128	40	64
78.218019201	128	34	64
78.233795443	144	53	52
78.260224888	144	34	28
78.328042565	128	53	64
78.384427068	144	53	51
78.405472536	128	34	64
78.477313285	128	53	64
78.549061536	144	53	51
78.612787429	128	53	64
78.614896387	144	46	52
78.659992363	128	46	64
78.698550651	144	53	50
78.713634448	144	34	61
78.761767949	128	53	64
78.777894078	144	61	74
78.850868142	128	61	64
79.290510954	144	53	51
79.343810414	128	53	64
79.432150497	144	53	52
79.450481852	144	40	84
79.511247171	128	53	64
79.520803113	128	40	64
79.598704354	144	53	51
79.662388511	128	53	64
79.748825755	144	53	51
79.755054338	128	61	64
79.827373167	128	53	64
79.864719164	128	34	64
79.915148612	144	53	51
79.978833456	128	53	64
80.01286377	144	34	97
80.097453824	144	46	38
80.196050922	128	46	64
80.444789362	144	26	101
80.463418631	128	26	64
80.675060979	144	53	51
80.714120839	128	53	64
80.800771357	144	53	52
80.894729949	128	53	64
80.964755661	144	53	52
81.061396773	128	53	64
81.131915175	144	53	50
81.195928016	128	53	64
81.268961336	144	53	51
81.344943186	128	53	64
81.358524158	144	46	64
81.42768628	128	46	64
81.823515788	128	34	64
81.973069029	144	53	51
81.999506315	144	40	21
82.027136599	144	31	47
82.027333505	128	53	64
82.041360833	128	40	64
82.067637373	128	31	64
82.118500737	144	53	51
82.194742076	128	53	64
82.283787719	144	53	50
82.331420107	144	31	46
82.36131265	128	53	64
82.382446812	128	31	64
82.435904849	144	53	50
82.492907569	128	53	64
82.582832	144	40	23
82.58301927	144	53	50
82.625396406	128	53	64
82.656725649	144	31	44
82.669878759	128	40	64
82.715335171	128	31	64
82.934002354	144	40	33
82.948272968	144	31	42
82.999384566	128	31	64
83.001023483	128	40	64
83.268666073	144	31	42
83.273912391	144	53	51
83.317590915	128	31	64
83.327418424	128	53	64
83.416487347	144	53	51
83.49561074	128	53	64
83.505639945	144	103	71
83.548115777	144	31	41
83.568203874	144	53	51
83.569404077	144	40	27
83.59853609	128	103	64
83.633598664	128	40	64
83.634002664	128	31	64
83.644890187	128	53	64
83.741340265	144	53	50
83.781679125	128	53	64
83.86468949	144	31	41
83.949530825	128	31	64
84.006807764	144	53	51
84.028842658	128	53	64
84.181400058	144	31	59
84.235346178	144	46	37
84.267773162	128	31	64
84.554780624	144	31	74
84.61666797	128	31	64
84.693807799	144	26	104
84.748212468	128	26	64
84.840957069	144	53	53
84.848006491	144	31	74
84.879959152	128	53	64
84.916590444	128	31	64
84.954996278	144	53	53
85.044330386	128	53	64
85.064791674	144	34	35
85.109452668	144	53	54
85.197626703	128	53	64
85.272580097	144	53	52
85.346585119	128	53	64
85.434581908	144	53	52
85.511157401	128	53	64
85.551277315	144	40	45
85.596984286	144	26	67
85.652975262	128	40	64
86.12602376	144	31	76
86.184991921	128	31	64
86.467840229	144	31	75
86.517786853	128	31	64
86.604131752	144	31	74
86.682844983	128	31	64
86.765130947	128	34	64
86.765207693	144	34	83
86.770022461	144	31	74
86.832773724	128	31	64
86.892761744	144	40	57
86.924068475	144	31	73
86.949047393	128	31	64
87.025659214	128	34	64
87.044127477	128	40	64
87.090521122	128	26	64
87.168660703	144	31	73
87.218440525	128	31	64
87.279183635	144	38	36
87.311975453	128	38	64
87.363190569	144	38	62
87.404485898	128	38	64
87.473444485	144	38	41
87.50202057	128	38	64
87.55885426	144	38	63
87.5788815	144	26	93
87.602639939	128	38	64
87.656995387	144	38	35
87.659020523	128	46	64
87.701901263	128	38	64
87.77156409	144	38	61
87.805543025	128	38	64
87.808551359	144	46	63
87.840177823	144	38	39
87.87134495	128	46	64
87.886997527	128	38	64
87.93733158	144	38	60
87.985388499	128	38	64
88.000692347	144	40	77
88.054439183	144	38	36
88.085503002	128	38	64
88.086649333	128	40	64
88.122910523	128	26	64
88.139615425	144	38	68
88.201976934	128	38	64
88.217965834	144	53	51
88.234956393	128	53	64
88.235235707	144	53	51
88.238163808	128	53	64
88.242259126	144	53	52
88.268315567	128	53	64
88.272868201	144	38	47
88.274839108	144	53	51
88.288722485	128	53	64
88.295782888	144	53	51
88.30931955	128	53	64
88.31537206	144	53	77
88.319456427	128	38	64
88.333055643	128	53	64
88.346353953	144	53	75
88.356976505	128	53	64
88.363201001	144	53	71
88.373211102	144	38	82
88.373615993	128	53	64
88.380756951	144	53	60
88.385573368	128	38	64
88.392978658	128	53	64
88.4799603	144	38	59
88.504091136	128	38	64
88.568571176	144	38	89
88.603173235	128	38	64
88.655717273	144	38	62
88.702910871	128	38	64
88.716183271	144	103	59
88.754582061	144	38	94
88.785809647	128	38	64
88.813322657	128	103	64
88.838429457	144	38	68
88.886054636	128	38	64
88.937975478	144	38	90
88.94639194	144	26	23
88.985513337	144	53	48
89.00171879	128	38	64
89.02228413	144	38	60
89.027960848	128	53	64
89.085652413	128	38	64
89.099123053	144	46	35
89.124778296	144	38	80
89.134302017	144	40	30
89.171578253	144	53	48
89.179071063	128	53	64
89.186028288	128	38	64
89.201527243	128	40	64
89.224251027	144	38	52
89.286380343	144	53	50
89.286965632	128	38	64
89.346721943	128	53	64
89.434823301	144	53	52
89.49580568	128	53	64
89.583096141	144	53	52
89.645002285	128	53	64
89.709730161	144	31	70
89.71048713	144	38	51
89.736280815	128	31	64
89.739523795	128	38	64
89.808812817	144	31	68
89.883919752	128	31	64
89.973011216	144	31	66
90.037842734	144	69	36
90.04886851	128	31	64
90.088865168	128	69	64
90.136001021	144	31	66
90.162404244	144	38	34
90.215491713	128	31	64
90.223427611	128	38	64
90.258492998	144	53	50
90.295698821	128	53	64
90.360396241	144	69	34
90.361176588	144	31	67
90.419538705	128	69	64
90.43677849	128	31	64
90.438537006	144	53	49
90.462566843	128	53	64
90.542205655	144	69	35
90.565209589	144	53	47
90.617151846	128	69	64
90.631063664	128	53	64
90.68237992	144	38	37
90.708912373	144	69	34
90.718971936	144	53	48
90.760875676	128	38	64
90.779120326	128	53	64
90.788001063	128	69	64
90.924130781	144	53	48
90.942230118	128	53	64
91.001437898	128	34	64
91.088328263	144	69	34
91.17768411	144	38	26
91.23453119	128	69	64
91.255587717	128	38	64
91.411823257	144	38	25
91.485543032	144	40	84
91.522692741	128	38	64
91.533239301	144	69	34
91.540098827	128	21	64
91.546459677	128	40	64
91.591937231	144	53	54
91.628487059	144	38	32
91.630516311	128	53	64
91.722850686	128	38	64
91.773017152	144	53	52
91.79565261	128	53	64
91.801141386	144	40	44
91.881184463	128	40	64
91.939752777	144	53	51
91.945163392	128	53	64
91.958268446	144	38	31
92.00569591	128	38	64
92.092782012	144	53	51
92.11183019	128	53	64
92.190359609	144	38	35
92.223081489	128	69	64
92.256400159	144	53	50
92.279684736	128	53	64
92.289367956	128	38	64
92.370200979	144	40	42
92.446278364	144	38	40
92.4709205	128	40	64
92.524583563	128	38	64
92.582312438	144	69	31
92.66148864	144	103	57
92.684811939	144	38	40
92.738388779	128	38	64
92.751461418	128	46	64
92.851721874	128	103	64
92.878603728	144	31	70
92.879083634	144	38	41
92.883889876	144	40	99
92.887493221	128	31	64
92.917041524	144	46	62
92.956316536	128	40	64
92.956713749	128	38	64
92.974782748	144	31	71
92.98431601	128	46	64
93.019005842	128	31	64
93.026509159	144	53	54
93.043842464	128	53	64
93.108021538	144	31	68
93.133590027	144	38	42
93.151263695	128	31	64
93.172928997	128	38	64
93.188796757	144	53	51
93.213813379	128	53	64
93.270196535	128	69	64
93.320988051	144	53	50
93.324232075	144	38	38
93.385944225	128	53	64
93.387337195	128	38	64
93.468334276	144	53	51
93.509734273	128	53	64
93.541727758	144	46	35
93.558504315	144	38	41
93.639264549	128	38	64
93.659077664	144	53	51
93.677713852	128	53	64
93.813000739	144	38	35
93.923944969	128	38	64
94.043732916	144	31	59
94.054115252	128	31	64
94.098925677	144	38	34
94.142726776	144	31	63
94.187091675	128	31	64
94.206875548	128	38	64
94.331933462	144	31	62
94.334346867	128	31	64
94.38993527	144	53	51
94.429252923	128	53	64
94.485778801	144	31	57
94.485968664	128	31	64
94.5330934	144	53	50
94.59703962	128	53	64
94.6275709	144	38	31
94.631283009	144	31	55
94.649866183	128	31	64
94.676225291	128	38	64
94.698435356	144	53	50
94.742482084	128	53	64
94.889141465	144	53	50
94.909397894	128	53	64
94.960159223	144	38	27
95.010505848	128	38	64
95.07323666	144	53	51
95.112245029	128	53	64
95.164213425	144	38	23
95.25625478	128	38	64
95.33346528	144	69	72
95.394750401	144	31	64
95.400575501	128	31	64
95.40650374	128	69	64
95.493179015	144	31	64
95.534354595	128	31	64
95.577621725	144	38	25
95.626268772	128	38	64
95.679460334	144	31	67
95.698216941	128	31	64
95.773125735	144	53	55
95.785021888	144	31	65
95.813260827	128	53	64
95.816721642	144	69	61
95.856027454	144	103	127
95.884290926	128	31	64
95.909398013	128	103	64
95.916664268	144	53	54
95.942113418	128	26	64
95.970077448	144	31	78
95.979870081	128	53	64
95.989132317	144	26	68
96.014095505	144	38	25
96.015900305	128	31	64
96.016646553	128	26	64
96.087545628	144	53	53
96.146293965	128	53	64
96.250736052	144	53	53
96.312874069	128	53	64
96.423139248	128	69	64
96.457569636	144	53	54
96.495865022	128	53	64
96.577510802	144	26	87
96.617089299	128	26	64
96.69639374	144	31	82
96.703027982	128	31	64
96.773514609	144	31	80
96.775940479	128	46	64
96.832782433	128	31	64
96.882435974	144	69	44
96.922396705	144	31	80
96.931127046	128	38	64
96.965611959	128	31	64
97.070253182	144	31	77
97.072305345	128	69	64
97.115951887	128	31	64
97.140891349	144	53	54
97.160191517	128	53	64
97.195611093	144	38	33
97.219840749	144	31	72
97.265917692	128	31	64
97.307378251	144	53	54
97.325464481	128	38	64
97.325624084	128	53	64
97.367720309	144	46	30
97.447068184	128	46	64
97.449663405	144	53	53
97.492187164	128	53	64
97.515591271	144	69	45
97.540683766	144	46	29
97.637369539	144	53	53
97.652335615	144	38	35
97.655599495	128	69	64
97.662723287	128	53	64
97.726215166	128	38	64
97.76632637	144	53	54
97.829149345	128	53	64
97.879984976	128	46	64
97.921777479	144	31	78
97.922256829	128	31	64
97.925124156	144	38	43
97.996566394	144	46	29
97.996822461	128	46	64
98.008658818	128	38	64
98.016906609	144	69	86
98.110394622	144	46	27
98.153822148	128	46	64
98.205266307	144	46	27
98.292297812	128	46	64
98.530530844	144	46	31
98.53078829	128	46	64
98.558288204	144	53	53
98.593559193	144	46	32
98.59644236	128	53	64
98.606000695	128	69	64
98.666272998	144	31	69
98.699275512	128	31	64
98.699664431	144	53	53
98.762503026	128	53	64
98.866002	144	53	53
98.90961166	128	53	64
98.922888029	128	46	64
98.923148584	144	46	32
98.923332124	128	46	64
98.923519535	144	46	31
99.02183384	128	46	64
99.032689961	144	53	52
99.058725593	144	46	32
99.079706691	128	53	64
99.125271613	128	46	64
99.182926471	144	53	53
99.210894971	144	46	32
99.225563333	128	53	64
99.286073447	128	46	64
99.35079223	144	46	32
99.388087528	128	46	64
99.491779238	144	46	32
99.541773313	128	46	64
99.598153461	144	31	66
99.62288839	128	31	64
99.639553555	144	46	33
99.685891113	128	46	64
99.753360913	144	40	40
99.75374998	144	46	33
99.82095812	128	40	64
99.847336252	128	46	64
99.895331835	144	46	34
99.940306671	128	46	64
99.954398645	144	31	62
99.954686111	128	31	64
100.025436991	144	46	33
100.069664479	128	46	64
100.152350851	144	103	22
100.152814927	144	46	32
100.169759691	144	40	112
100.206288239	128	103	64
100.231120129	128	46	64
100.250014965	144	69	4
100.250533009	144	46	32
100.254474203	128	40	64
100.255134949	144	31	64
100.270955921	128	38	64
100.352591424	128	69	64
100.406587513	128	46	64
100.406783346	144	46	33
100.458178406	128	46	64
100.524779119	144	46	32
100.584462889	128	46	64
100.625647493	128	31	64
100.763588513	144	46	34
100.764600458	128	46	64
100.833420301	144	46	33
100.911671023	144	31	64
100.917577922	128	46	64
100.981355324	144	46	34
100.983680892	144	69	4
101.001137218	144	40	60
101.014427668	144	80	29
101.019804	128	31	64
101.04921524	128	46	64
101.055316254	128	40	64
101.112105203	144	26	58
101.112870426	144	46	33
101.123790847	128	69	64
101.1674757	128	46	64
101.220708888	144	31	64
101.225745334	144	46	33
101.274292583	128	46	64
101.274522138	144	46	33
101.350052085	128	46	64
101.357034155	128	26	64
101.450513754	144	69	1
101.539990511	128	69	64
101.616721102	144	46	35
101.616957227	128	46	64
101.616995808	144	46	17
101.656456631	128	46	64
101.753309714	144	40	64
101.804595519	128	40	64
101.843558382	144	46	37
101.85060161	144	69	10
101.873697326	128	80	64
101.902873917	128	69	64
101.945082974	128	31	64
101.955977963	144	80	38
102.028251947	128	46	64
102.028533638	144	46	18
102.02871728	128	46	64
102.093234703	144	46	38
102.108977872	144	103	13
102.13124495	128	103	64
102.159299631	144	103	32
102.214904535	128	103	64
102.259748674	144	103	16
102.262590309	144	31	65
102.26776553	144	69	46
102.27870277	144	26	53
102.326796388	128	103	64
102.352530821	128	46	64
102.35259451	144	46	19
102.406031779	128	80	64
102.435101492	128	46	64
102.435355302	144	46	39
102.435521283	128	46	64
102.435713853	144	46	19
102.436397075	128	46	64
102.452784862	144	103	16
102.479115872	144	80	53
102.483351545	128	103	64
102.509123141	144	46	39
102.545386788	144	103	33
102.573102932	128	103	64
102.624345876	144	103	17
102.645354753	128	31	64
102.662249862	128	46	64
102.662540968	144	46	20
102.668620852	128	103	64
102.688754149	144	103	35
102.737451604	128	103	64
102.765517561	128	46	64
102.792829153	144	103	18
102.793974189	144	46	37
102.899872576	128	103	64
102.911668361	128	46	64
102.911732353	144	46	19
102.956005697	144	103	35
102.956462292	128	80	64
102.958022973	128	26	64
102.961068095	144	31	70
102.988939996	128	103	64
103.015354039	128	46	64
103.040271769	144	80	51
103.044578694	144	103	20
103.046489896	144	46	38
103.084836286	128	103	64
103.119851991	144	103	36
103.147405564	128	103	64
103.156302662	144	40	55
103.169084199	128	46	64
103.169182044	144	46	20
103.185475302	128	80	64
103.19535341	144	80	54
103.217848694	144	103	21
103.236739228	128	46	64
103.237882983	128	40	64
103.264639816	128	80	64
103.265535376	128	103	64
103.273264032	144	53	56
103.287021007	144	46	39
103.290435472	144	103	40
103.312288773	128	53	64
103.320017821	128	103	64
103.360098946	144	80	61
103.378106281	128	31	64
103.379991511	128	46	64
103.380044563	144	46	19
103.383361402	144	40	50
103.38663419	144	103	24
103.418013205	128	80	64
103.420512129	128	40	64
103.429049843	144	53	57
103.432450245	128	103	64
103.457594933	144	103	39
103.479368229	128	53	64
103.486976709	128	103	64
103.490416613	144	40	51
103.505861432	144	80	59
103.569825841	128	40	64
103.573627523	144	103	26
103.58329499	144	53	57
103.585857981	128	80	64
103.625632645	128	53	64
103.631856671	128	103	64
103.633251696	144	31	70
103.655500003	128	46	64
103.657251182	144	46	37
103.657477305	128	46	64
103.657729869	144	46	18
103.657896915	128	46	64
103.660220908	144	80	59
103.667724532	128	31	64
103.679918907	144	46	38
103.717769492	144	103	27
103.750553167	128	103	64
103.761542227	144	26	33
103.770027554	144	53	56
103.772646702	144	103	45
103.775582412	128	53	64
103.787434202	128	46	64
103.803237793	128	103	64
103.807032768	128	80	64
103.830282023	144	46	18
103.844099965	144	80	59
103.849794691	128	46	64
103.889007635	144	103	44
103.92001976	144	53	57
103.932985389	128	103	64
103.945849887	128	53	64
103.97384096	144	103	28
103.977773949	144	31	67
103.989188546	128	80	64
103.995388201	144	80	57
103.997308227	144	46	18
104.018138577	128	103	64
104.058410831	128	46	64
104.058712098	144	103	44
104.085654947	128	80	64
104.102987852	128	103	64
104.154711614	144	80	58
104.159225845	144	46	19
104.162337124	144	103	27
104.199399188	128	103	64
104.245255238	128	31	64
104.254975152	144	103	43
104.256166577	128	69	64
104.294987092	128	46	64
104.295304555	144	46	19
104.29846864	128	103	64
104.339882371	144	103	29
104.398600762	128	46	64
104.404870146	128	103	64
104.423537284	144	103	44
104.439960365	128	80	64
104.475756266	144	80	59
104.482208176	144	53	55
104.48296866	128	103	64
104.498662946	144	46	20
104.522369826	144	103	33
104.535360891	128	80	64
104.545662021	128	53	64
104.566399942	128	46	64
104.575923855	128	103	64
104.60942074	144	103	49
104.620855451	144	40	49
104.624948511	144	80	59
104.625277413	144	46	20
104.648815042	144	53	56
104.649131981	128	103	64
104.653260107	128	46	64
104.708086858	144	103	40
104.712310293	128	53	64
104.732311787	128	40	64
104.750170644	128	103	64
104.787053481	144	103	58
104.798480376	144	53	56
104.815029081	144	40	47
104.820462706	144	46	22
104.837968722	128	103	64
104.844287403	128	53	64
104.857701819	128	80	64
104.899461133	144	103	50
104.910971373	144	80	61
104.939716453	128	103	64
104.948956055	144	53	56
104.959560646	128	40	64
104.973872939	144	103	67
104.980690378	144	40	53
104.983533902	128	80	64
104.992122062	128	53	64
104.999668102	128	26	64
105.015555933	128	103	64
105.062654132	144	80	59
105.069059845	128	40	64
105.069309597	144	103	60
105.100012716	144	53	57
105.103015353	128	103	64
105.142591324	128	53	64
105.14996938	128	80	64
105.154453695	144	103	81
105.15632236	128	46	64
105.156507947	144	46	41
105.160135453	128	46	64
105.160181977	144	46	38
105.19163412	128	103	64
105.245350437	144	80	59
105.259622739	144	103	77
105.298200515	128	80	64
105.298911046	128	103	64
105.348494426	144	69	88
105.356466146	144	80	59
105.432678319	144	103	91
105.440038079	128	69	64
105.468992133	128	103	64
105.501256365	128	80	64
105.509587528	144	103	108
105.512562621	144	80	59
105.597577072	128	103	64
105.615790933	128	80	64
105.62925268	144	103	99
105.661783147	144	80	59
105.669818349	128	103	64
105.723406247	144	103	113
105.752439879	128	80	64
105.770774671	128	103	64
105.816929472	144	103	97
105.821545804	144	80	59
105.855221943	128	103	64
105.855537192	144	53	56
105.876420967	128	53	64
105.928630766	144	103	85
105.954279745	128	46	64
105.954327916	144	46	25
105.960502669	128	103	64
105.968344644	144	40	69
106.005561584	144	103	63
106.024947212	144	53	56
106.0429236	128	53	64
106.044112737	144	31	73
106.051615076	128	103	64
106.055266386	128	40	64
106.103219728	128	31	64
106.10794413	144	103	53
106.124708428	144	40	58
106.156783946	128	103	64
106.184143313	144	69	54
106.186632135	144	53	56
106.188864866	144	103	36
106.191835452	144	31	76
106.192847527	128	53	64
106.235249503	128	69	64
106.236870434	128	103	64
106.250239251	128	31	64
106.268565702	128	40	64
106.279027015	144	103	40
106.283045977	144	53	56
106.292444171	128	46	64
106.317996177	128	103	64
106.328444491	144	26	4
106.341612594	144	31	79
106.345837562	128	53	64
106.375593816	144	103	23
106.383010894	128	26	64
106.401678856	128	31	64
106.417078694	144	40	84
106.417271764	128	103	64
106.433405991	144	53	57
106.43934532	144	26	4
106.458839391	144	103	34
106.469845254	128	40	64
106.491023623	144	31	80
106.496294093	128	53	64
106.497600606	128	26	64
106.514422299	128	103	64
106.533930158	144	69	58
106.544799145	128	69	64
106.550106558	128	31	64
106.556468584	144	40	69
106.572632551	144	103	26
106.587545994	144	26	6
106.630416754	128	26	64
106.700924203	128	103	64
106.701216957	128	40	64
106.71995566	144	26	11
106.748090738	144	103	40
106.748562689	144	31	78
106.763513115	128	26	64
106.783893953	144	69	65
106.794737259	128	69	64
106.797502486	128	103	64
106.806459311	128	80	64
106.822378278	144	26	13
106.861969209	144	103	56
106.88355528700001	128	26	64
106.890190928	128	103	64
106.943478769	144	103	50
106.95531968	144	26	20
106.98248842	128	103	64
107.000254657	144	69	64
107.017419519	128	26	64
107.026442375	144	103	62
107.056803679	128	69	64
107.064416984	128	103	64
107.088778666	144	26	25
107.12190466	144	103	53
107.133360823	128	31	64
107.150449439	128	103	64
107.150633596	128	26	64
107.173514835	144	53	55
107.174234333	144	103	64
107.192636644	128	53	64
107.223431957	144	26	29
107.246214618	128	103	64
107.265315687	128	26	64
107.312427146	144	103	59
107.315422318	144	80	123
107.339747238	144	26	33
107.340276096	144	53	55
107.344942013	128	103	64
107.358937538	128	53	64
107.373812245	144	103	75
107.398784524	128	26	64
107.405824021	128	103	64
107.434125397	144	69	60
107.450121195	144	53	55
107.45336503	128	69	64
107.472269343	144	26	38
107.473473366	144	103	64
107.504032575	128	103	64
107.512461332	128	53	64
107.524167815	144	103	79
107.533771846	128	26	64
107.585139324	128	103	64
107.605198624	144	26	43
107.616553712	144	53	56
107.655823001	144	103	68
107.658872471	128	53	64
107.667408305	128	26	64
107.681410256	128	103	64
107.72260139	144	26	51
107.742783623	144	103	85
107.773911857	128	103	64
107.801060703	128	26	64
107.802643587	144	40	47
107.807421385	144	53	56
107.826541049	128	53	64
107.843189279	144	103	76
107.857035631	144	26	59
107.866670547	128	103	64
107.888922188	128	40	64
107.893797317	144	103	96
107.915377744	128	26	64
107.934213556	128	103	64
107.97327521	144	26	66
108.005797742	144	103	84
108.052006199	128	26	64
108.063786592	128	103	64
108.085624339	144	40	33
108.123125963	144	26	74
108.184404161	128	26	64
108.189359958	128	40	64
108.203896351	144	103	93
108.254713514	144	26	82
108.257147337	128	103	64
108.25723402	144	103	112
108.259095426	144	40	42
108.261149795	128	103	64
108.261186557	144	103	112
108.312123302	128	103	64
108.317250016	128	26	64
108.355328643	128	40	64
108.387686579	144	103	99
108.388780446	144	26	88
108.417807501	128	103	64
108.450857977	128	26	64
108.470456916	144	103	119
108.49855693	128	103	64
108.522295678	144	26	92
108.539629502	144	53	54
108.558775925	144	103	104
108.558929829	128	53	64
108.584079425	128	26	64
108.598396705	128	103	64
108.669080915	128	80	64
108.66968362	144	26	97
108.671348313	144	103	120
108.706088964	144	53	56
108.713503063	128	26	64
108.716471996	128	103	64
108.725698234	128	53	64
108.750967828	144	31	79
108.751351602	144	103	97
108.813686846	128	103	64
108.832920742	144	53	56
108.878220641	128	53	64
108.878502361	144	103	94
108.935390171	128	103	64
108.973174754	144	103	70
108.981956103	144	53	56
109.028042242	128	53	64
109.041052744	128	103	64
109.090292778	144	103	67
109.116980753	128	31	64
109.145381097	128	103	64
109.171797213	144	103	48
109.173142666	144	53	56
109.19604852	128	53	64
109.230285773	128	103	64
109.245044833	144	26	3
109.284059069	128	26	64
109.311440061	144	103	43
109.339970198	144	26	9
109.352734877	144	91	47
109.36327444	128	103	64
109.40175649	128	26	64
109.403256406	128	91	64
109.408101815	144	103	26
109.452391282	128	103	64
109.486656568	144	26	22
109.533724451	144	103	33
109.550754648	128	26	64
109.567623516	128	103	64
109.604521254	144	103	21
109.622642117	144	26	37
109.63420825	144	46	74
109.639790058	128	80	64
109.650616222	144	91	68
109.652552198	128	103	64
109.684201263	128	26	64
109.69390037	128	46	64
109.710217487	144	103	28
109.714626567	128	91	64
109.747631621	128	103	64
109.755821064	144	26	50
109.789270112	144	103	11
109.817824965	128	26	64
109.833520541	144	53	57
109.852942799	128	103	64
109.870789247	144	91	65
109.877122333	128	53	64
109.888617057	144	26	61
109.926255739	144	103	17
109.948500122	128	91	64
109.952973046	128	26	64
109.964484924	128	103	64
110.005752079	144	103	3
110.022263047	144	53	59
110.036530212	144	26	74
110.062647399	128	53	64
110.069490624	128	103	64
110.081360664	128	26	64
110.141690572	144	103	23
110.149096048	144	53	58
110.166702472	128	103	64
110.170376113	144	26	85
110.212600053	128	53	64
110.219179716	128	26	64
110.221894608	144	103	8
110.269427606	128	103	64
110.299313836	144	53	58
110.3030321	144	26	94
110.343642986	128	53	64
110.354726654	144	103	25
110.36859469	144	91	58
110.36876753600001	128	26	64
110.402450754	128	103	64
110.420106212	128	91	64
110.428136516	144	103	10
110.451993708	144	53	60
110.471259221	144	26	109
110.487299059	128	103	64
110.492220634	128	53	64
110.500451357	128	26	64
110.565306887	144	103	22
110.56719538	144	69	58
110.586789589	144	26	115
110.601888164	128	103	64
110.60370628	128	69	64
110.609446676	144	46	60
110.637085825	144	103	8
110.650613536	128	26	64
110.673973738	128	46	64
110.681330757	128	103	64
110.70298247	144	91	66
110.710344565	144	26	123
110.747750231	128	91	64
110.764166937	128	26	64
110.770238235	144	103	21
110.798896843	128	103	64
110.858395882	144	103	9
110.881127556	128	103	64
110.973569495	144	103	24
110.999817743	128	103	64
111.0014879	144	91	65
111.014790594	128	91	64
111.039152527	144	103	12
111.070902467	144	40	68
111.086464342	128	103	64
111.156279032	128	40	64
111.15708308	144	103	24
111.165163952	144	91	58
111.173843063	128	91	64
111.191062314	144	53	56
111.201817408	128	103	64
111.204599312	144	91	84
111.219777174	128	91	64
111.219859173	144	91	81
111.229402182	128	53	64
111.239474208	144	103	12
111.264350611	128	91	64
111.287444332	128	103	64
111.333753732	144	91	48
111.362430087	144	103	25
111.380735404	128	91	64
111.390002955	144	53	57
111.395793609	128	53	64
111.399036694	128	103	64
111.417729926	144	91	70
111.419261188	144	103	14
111.465699101	128	91	64
111.470436144	144	31	75
111.496683322	128	103	64
111.499212514	144	53	57
111.518196284	144	91	43
111.546232437	128	53	64
111.555653713	144	103	30
111.563837333	128	91	64
111.59855522	128	103	64
111.617545809	144	91	54
111.636236331	144	103	21
111.647153549	128	91	64
111.65385513	144	53	59
111.69249305	128	53	64
111.69669897200001	128	103	64
111.701197536	144	91	36
111.713296233	144	46	75
111.740776344	128	46	64
111.745492259	144	26	4
111.747833198	128	91	64
111.75615811	144	103	40
111.777443555	128	31	64
111.784539398	128	26	64
111.785484032	144	91	58
111.802723582	128	103	64
111.831765205	128	91	64
111.832892582	144	103	31
111.841230577	144	53	60
111.858781806	128	53	64
111.867349253	144	91	42
111.871960291	144	26	7
111.884816287	128	103	64
111.913999518	128	26	64
111.931562067	128	91	64
111.944019561	144	103	47
111.980179571	128	103	64
112.004010083	144	26	7
112.022572325	144	103	39
112.04705681	128	26	64
112.06464102	128	103	64
112.139674046	144	31	112
112.140150893	144	26	15
112.15213405	144	103	57
112.181900811	128	26	64
112.18292306	128	103	64
112.22229945	144	103	48
112.237227588	144	91	74
112.263100253	128	103	64
112.271742284	144	26	21
112.287300337	144	69	72
112.317978994	144	103	65
112.322248464	128	91	64
112.334694914	128	26	64
112.335699615	128	69	64
112.365433677	128	103	64
112.405798704	144	103	57
112.406646665	144	26	26
112.463413906	128	103	64
112.467339472	128	26	64
112.476801594	128	31	64
112.528093715	144	103	74
112.539376368	144	26	32
112.540838796	144	53	60
112.56332362	128	103	64
112.601380207	128	26	64
112.619567369	144	40	62
112.622483161	144	103	66
112.636606516	144	91	75
112.66268509	128	103	64
112.673584201	144	26	45
112.70195576	128	91	64
112.703656765	144	103	83
112.713569097	128	53	64
112.714233538	144	53	59
112.730165086	128	53	64
112.730915738	128	26	64
112.742552595	144	46	92
112.763893243	128	103	64
112.790106459	128	40	64
112.819928383	144	26	56
112.820609573	128	46	64
112.824358235	144	103	76
112.83206516	144	53	60
112.878616364	128	103	64
112.88390296	128	26	64
112.895794936	128	53	64
112.916971196	144	103	96
112.956853684	144	26	63
112.976822432	144	91	76
112.98093242	128	103	64
112.981540212	144	53	60
113.018025685	128	26	64
113.045924828	128	53	64
113.0504316	128	91	64
113.070056567	144	103	90
113.088942085	144	26	70
113.102356831	128	103	64
113.150331348	128	26	64
113.163802649	144	103	107
113.18971144	144	53	61
113.205533903	144	31	26
113.212978988	128	53	64
113.222478847	144	26	80
113.24522502	128	103	64
113.245304093	144	103	100
113.253674969	128	31	64
113.283803576	128	26	64
113.356037058	144	26	87
113.35918998	128	103	64
113.417725007	128	26	64
113.420224696	144	103	89
113.48892658	144	26	97
113.50045945	128	103	64
113.503489375	144	91	127
113.524485074	144	31	24
113.535522336	128	91	64
113.551205126	128	26	64
113.602965416	128	31	64
113.637374517	144	26	122
113.667495263	128	26	64
113.732504092	144	46	99
113.801915991	128	46	64
113.808695126	144	103	22
113.820925738	144	31	23
113.851041637	128	103	64
113.851106167	144	103	12
113.87223721	144	69	54
113.885337011	128	31	64
113.894641427	128	103	64
113.92386386	144	53	60
113.936813441	128	69	64
113.945571758	128	53	64
113.97245911	144	91	125
114.006945692	144	103	9
114.019298794	128	91	64
114.030000422	128	103	64
114.065406819	144	53	60
114.112379158	128	53	64
114.163052023	144	31	12
114.163517116	144	103	11
114.231241235	128	103	64
114.254899282	144	103	23
114.259910056	144	53	61
114.277410654	128	53	64
114.38541081	144	53	60
114.403616322	128	103	64
114.417146835	144	103	10
114.421789788	144	91	125
114.445901643	128	53	64
114.469743952	128	91	64
114.47844311	128	103	64
114.496121622	128	31	64
114.534376314	144	46	117
114.549794776	144	53	61
114.553371823	144	103	21
114.593396741	128	53	64
114.596325198	128	103	64
114.617096779	144	69	45
114.619847864	128	46	64
114.624809506	144	103	11
114.681743112	128	103	64
114.724405964	128	69	64
114.741677325	144	103	21
114.805533868	144	31	44
114.813162972	128	103	64
114.841696138	144	103	11
114.85419933	144	40	61
114.870295068	144	91	120
114.889094263	128	91	64
114.897473912	128	103	64
114.904113854	128	31	64
114.966670286	144	103	22
114.998045163	128	40	64
115.012161924	128	103	64
115.021739011	144	26	18
115.056181267	144	103	12
115.067130424	128	26	64
115.08176678	128	103	64
115.124463576	144	26	18
115.151564979	144	103	22
115.155640404	144	31	46
115.201608808	128	26	64
115.213944597	128	103	64
115.218475811	128	31	64
115.239227399	144	103	13
115.256401657	144	26	23
115.295590744	128	103	64
115.314338097	144	91	122
115.321195292	144	53	61
115.323752169	128	91	64
115.334013562	128	26	64
115.344447603	128	53	64
115.354154467	144	103	24
115.406739847	144	26	26
115.413627914	128	103	64
115.452554125	144	53	61
115.462412106	144	46	126
115.467759174	128	26	64
115.470791238	144	103	14
115.493169147	128	53	64
115.501410148	144	69	40
115.518026902	128	103	64
115.539165557	144	26	28
115.545063495	144	31	62
115.570522674	144	103	28
115.574171067	128	46	64
115.601411205	144	53	62
115.616114658	128	26	64
115.628898768	128	103	64
115.66249059	128	53	64
115.66519015	144	103	22
115.673613374	144	26	34
115.713952696	128	103	64
115.749795914	144	53	62
115.750800337	128	26	64
115.754018532	144	91	127
115.769068845	128	91	64
115.802190308	144	103	34
115.81238911	128	53	64
115.822357851	144	26	39
115.836318788	128	103	64
115.84409821	128	31	64
115.884159276	128	26	64
115.891280429	144	103	24
115.916196833	144	53	62
115.918591596	128	103	64
115.955607406	144	26	45
115.960781202	128	53	64
115.984607773	144	103	35
116.018300763	128	26	64
116.070426511	128	103	64
116.093919976	144	103	26
116.104267496	144	26	52
116.133489962	144	31	86
116.146968821	128	103	64
116.148080993	128	26	64
116.185062538	128	31	64
116.214559006	144	103	40
116.220990313	144	91	127
116.239346505	128	91	64
116.255652758	144	26	60
116.281606599	128	103	64
116.298547812	128	26	64
116.301938065	144	103	32
116.322905993	144	46	127
116.363386794	128	103	64
116.386863087	144	26	67
116.428557946	128	46	64
116.434497726	128	26	64
116.439713341	144	103	46
116.481267478	128	103	64
116.482319321	144	31	80
116.516909279	144	103	37
116.520635036	144	26	71
116.571865446	128	31	64
116.583610779	128	103	64
116.583936618	128	26	64
116.622993528	144	53	60
116.63285511	144	103	50
116.654284763	144	91	126
116.662505909	128	53	64
116.670535174	144	26	81
116.679779688	128	103	64
116.688071663	128	91	64
116.713842032	128	26	64
116.714415012	144	103	41
116.766449213	144	53	60
116.772671488	144	31	66
116.782587689	128	103	64
116.804048442	144	26	87
116.831965942	128	53	64
116.83749388	144	103	53
116.867640103	128	26	64
116.881202168	128	103	64
116.918923307	144	103	44
116.933676558	144	53	60
116.953585751	144	26	95
116.976151415	128	53	64
116.978266282	128	103	64
116.985521377	144	40	85
116.998020388	128	26	64
117.03909592	144	103	55
117.066104751	144	53	60
117.086998541	144	26	110
117.088689845	128	40	64
117.098585571	128	103	64
117.10079694	128	31	64
117.107442596	144	91	126
117.114880259	128	91	64
117.120235825	144	103	46
117.129285918	128	53	64
117.150743597	128	26	64
117.179321105	128	103	64
117.216097385	144	53	61
117.222175272	144	26	114
117.265664569	128	26	64
117.269782394	144	103	61
117.285069421	128	53	64
117.315901829	128	103	64
117.352953067	144	103	53
117.39982719	128	103	64
117.499065081	144	103	72
117.538524663	144	91	122
117.571062519	128	91	64
117.640896244	128	69	64
117.658722798	128	103	64
117.719224823	144	103	82
117.762572908	128	103	64
117.799105156	144	103	73
117.845354749	128	103	64
117.9200942	144	103	90
117.975267522	144	53	60
117.980651999	128	103	64
118.000260872	144	103	80
118.013345969	128	53	64
118.029715492	144	91	114
118.038785559	128	91	64
118.062868316	128	103	64
118.157669523	144	53	61
118.160591832	144	103	101
118.175770524	128	53	64
118.199742148	128	103	64
118.219469163	144	103	94
118.246242697	128	103	64
118.31586796	144	103	106
118.320364067	144	53	61
118.345738753	128	53	64
118.362212684	128	103	64
118.408153969	144	103	96
118.432526609	144	53	62
118.447325072	128	103	64
118.487068674	144	103	105
118.492497773	144	91	127
118.496061123	128	53	64
118.553320428	128	91	64
118.553939392	128	103	64
118.582295388	144	103	94
118.598556416	144	53	63
118.633392493	128	103	64
118.642825388	128	53	64
118.669633742	144	103	98
118.728271392	128	103	64
118.762199877	144	26	4
118.771618324	144	103	74
118.800769643	128	26	64
118.829147201	128	103	64
118.873361407	144	103	69
118.886273947	144	46	127
118.887114036	144	26	8
118.965863106	128	103	64
118.966285586	128	26	64
119.012015322	144	103	36
119.023500877	144	91	127
119.023790302	144	26	11
119.054284245	128	91	64
119.078078583	128	103	64
119.08504256	128	26	64
119.118574788	144	103	37
119.152621333	144	91	11
119.155461995	144	26	16
119.199272495	128	26	64
119.202672679	128	91	64
119.244319708	128	103	64
119.250982115	144	69	124
119.269222195	144	103	14
119.305613213	128	69	64
119.330260361	128	103	64
119.343933809	144	26	24
119.347546035	128	26	64
119.369081764	144	40	84
119.378248898	144	99	21
119.412353529	128	40	64
119.426123496	144	53	62
119.426312352	128	53	64
119.438290927	144	26	29
119.447025336	144	103	18
119.460910922	144	69	127
119.479991741	128	103	64
119.500613605	128	26	64
119.513183607	144	31	48
119.520685036	144	103	8
119.54273976	128	69	64
119.55355966	128	31	64
119.562674529	128	103	64
119.572404928	144	26	35
119.573119636	144	53	63
119.57420236	144	91	118
119.592203279	128	53	64
119.634956575	128	26	64
119.635139731	128	91	64
119.668161716	144	103	17
119.706015755	144	26	45
119.712707788	128	103	64
119.737609549	144	53	63
119.742504236	128	53	64
119.749172664	144	91	16
119.750315505	144	103	6
119.767722256	128	26	64
119.799673501	128	103	64
119.803447316	128	91	64
119.87082168	128	99	64
119.889413593	144	53	63
119.902033842	144	103	15
119.910416341	144	26	53
119.91124288	128	53	64
119.914653454	128	26	64
119.962929612	128	103	64
120.00643313	144	26	61
120.0268147	144	103	7
120.04760009	128	26	64
120.049875641	128	103	64
120.054494424	144	53	63
120.05931617	128	53	64
120.09912442	144	99	27
120.1398313	144	91	100
120.148078624	144	103	15
120.15089609	144	69	122
120.171796893	128	91	64
120.19206352	144	26	71
120.197085977	128	103	64
120.197308852	128	26	64
120.204236895	144	31	51
120.251606231	144	103	7
120.262689581	144	91	32
120.28183262	128	69	64
120.287060789	144	26	82
120.320079453	128	91	64
120.33107868	128	26	64
120.381291125	128	103	64
120.436697478	144	103	19
120.475044388	144	26	93
120.480449491	128	26	64
120.496481556	128	103	64
120.529866875	128	31	64
120.55279495	144	103	8
120.583984427	128	103	64
120.625253284	144	26	102
120.630450201	128	26	64
120.636080441	144	69	73
120.685380891	144	103	18
120.722301992	144	26	109
120.723363299	144	91	20
120.724467599	128	69	64
120.763857382	128	103	64
120.76410087	128	26	64
120.772192191	128	91	64
120.828533915	144	103	8
120.842509082	144	53	63
120.857294206	128	103	64
120.859277779	128	53	64
120.862333479	144	31	64
120.890944559	128	31	64
120.89749209	144	91	30
120.908063923	144	26	116
120.914040528	128	26	64
120.935793026	144	40	65
120.954158819	128	91	64
120.958302373	144	103	16
120.967259552	144	53	63
121.008148818	144	26	123
121.012840605	128	103	64
121.029404209	128	53	64
121.066509733	128	26	64
121.068984219	144	69	35
121.08002406	128	40	64
121.084970459	144	103	7
121.089295987	128	69	64
121.097614395	144	91	38
121.121050872	128	103	64
121.13645349	128	91	64
121.171040596	144	103	19
121.173811202	144	53	64
121.192304595	128	53	64
121.208123179	144	31	70
121.21357446	144	26	127
121.217985041	128	103	64
121.218484052	128	26	64
121.235516876	128	31	64
121.300280694	144	103	7
121.30378985	144	26	127
121.33051752	128	103	64
121.331330765	144	91	42
121.337352979	144	53	64
121.347413102	128	26	64
121.357901991	128	99	64
121.362787823	128	53	64
121.371942132	128	91	64
121.385321109	144	69	22
121.435921023	128	69	64
121.43654467	144	26	127
121.479760676	144	103	8
121.501142965	128	26	64
121.506847677	144	31	62
121.507069419	144	53	64
121.525632232	128	53	64
121.550870501	128	103	64
121.581183943	144	91	43
121.587445484	144	26	127
121.605080925	128	91	64
121.651458693	128	26	64
121.685798459	144	103	9
121.732384095	128	103	64
121.751812348	144	69	34
121.781979388	144	91	69
121.804320771	128	91	64
121.821834825	144	99	37
121.822004489	128	69	64
121.89922006	128	99	64
121.96459718	144	91	80
121.979935792	128	31	64
122.004997777	128	91	64
122.0453864	144	99	37
122.064322005	128	99	64
122.118832009	144	69	48
122.165113114	144	91	84
122.168853444	128	69	64
122.189565593	128	91	64
122.218718446	144	99	37
122.233825022	128	99	64
122.24547505	144	31	54
122.252999816	128	31	64
122.314016379	144	99	37
122.351419872	144	91	83
122.370814711	128	91	64
122.380820554	128	99	64
122.449947571	144	99	38
122.515519894	128	99	64
122.61372584	144	99	39
122.668471342	128	99	64
122.679196075	144	69	12
122.707817336	144	91	89
122.74093424	128	91	64
122.756733799	144	99	39
122.75905438	128	69	64
122.803567847	128	99	64
122.882590268	144	91	104
122.948046868	144	99	44
122.952504459	144	69	13
122.955936357	128	91	64
122.980718179	128	99	64
122.986509147	128	69	64
123.030644924	144	91	104
123.088393253	128	91	64
123.126128478	144	99	43
123.131296492	144	69	15
123.153048598	128	69	64
123.156384974	144	103	127
123.168961973	128	99	64
123.211696805	128	103	64
123.334433047	144	69	41
123.37817755	128	69	64
123.525999205	144	91	93
123.557025372	128	91	64
123.568461998	144	69	55
123.608421699	128	69	64
123.682520934	144	91	94
123.740887313	128	91	64
123.8184578	144	69	52
123.829822281	144	91	92
123.872812517	144	103	127
123.90455765	128	91	64
123.907575421	128	69	64
123.91766869	128	103	64
123.975202683	144	91	92
124.056168796	128	91	64
124.068539648	144	69	20
124.137020712	128	69	64
124.435033197	144	69	32
124.505015765	128	69	64
124.562492339	144	103	127
124.611180947	128	103	64
124.659174809	144	91	86
124.665941752	144	69	54
124.709697302	128	91	64
124.737673898	128	69	64
124.761937952	144	26	125
124.768100875	128	26	64
124.801780588	144	91	82
124.872461715	128	91	64
124.901974096	144	69	63
124.963311295	144	91	87
124.992005804	128	69	64
125.0386938	128	91	64
125.202282853	144	69	89
125.271346519	128	69	64
125.29564102	144	103	127
125.361744816	128	103	64
125.402005789	144	31	67
125.405503487	128	31	64
125.450723405	144	91	62
125.462857074	144	26	104
125.477157638	128	91	64
125.478044807	144	31	63
125.481817796	128	26	64
125.536500745	128	31	64
125.595631036	144	91	68
125.622682591	144	31	66
125.658444292	128	91	64
125.703424232	128	31	64
125.718395713	144	69	31
125.762665364	144	91	74
125.771552254	128	69	64
125.825556445	128	91	64
125.962632557	144	91	87
125.962874389	144	69	10
126.025923985	128	91	64
126.053005464	144	103	127
126.05759655	128	69	64
126.099298998	128	103	64
126.218564383	144	69	35
126.26120927	128	46	64
126.288691056	128	69	64
126.462913742	144	69	55
126.504846583	128	69	64
126.50917735	144	91	62
126.52855913	128	91	64
126.581365798	144	91	75
126.623971755	128	91	64
126.66059669	144	91	72
126.707696554	128	91	64
126.744566978	144	91	91
126.779116577	144	26	27
126.785783481	144	69	116
126.78877055	128	91	64
126.842804429	144	91	69
126.873281677	128	91	64
126.873649127	128	69	64
126.925816979	144	91	87
126.93838116	128	91	64
126.942535156	128	53	64
127.009175845	144	91	68
127.057039593	128	91	64
127.111961611	144	91	80
127.122021064	128	91	64
127.194364596	144	91	65
127.223542265	128	91	64
127.261943027	144	91	89
127.307369495	128	91	64
127.36316952	144	91	69
127.386433975	144	69	16
127.406881488	128	91	64
127.425613015	144	91	92
127.475899988	128	69	64
127.488853863	128	91	64
127.527241125	144	91	73
127.589630562	128	91	64
127.609197078	144	91	93
127.628893811	144	69	5
127.656133675	128	91	64
127.67512756	144	91	78
127.725729467	128	69	64
127.738810249	128	91	64
127.776523644	144	91	89
127.805934862	128	91	64
127.821837849	144	69	1
127.903803646	128	69	64
127.935678006	144	91	99
127.975179395	144	69	5
127.977082889	128	91	64
128.063250113	144	91	79
128.073157083	128	91	64
128.074333161	128	69	64
128.112847865	144	91	104
128.147810126	144	31	69
128.157976154	128	91	64
128.169570297	144	69	7
128.211627958	144	91	77
128.222022814	128	69	64
128.239654952	128	91	64
128.256115108	144	40	122
128.292157967	144	69	8
128.297174883	144	91	106
128.309332634	128	40	64
128.322887974	128	91	64
128.363005686	144	91	87
128.376429018	144	40	89
128.392272161	128	69	64
128.408046616	128	91	64
128.429424836	128	31	64
128.458712087	144	69	17
128.460295141	144	91	106
128.508244507	128	91	64
128.520722499	128	40	64
128.521290827	144	40	116
128.545107196	144	91	93
128.557061636	128	69	64
128.58955821	128	91	64
128.621618417	128	40	64
128.625681813	144	40	88
128.626528566	144	91	115
128.646255796	144	69	17
128.689423937	128	91	64
128.720321413	128	69	64
128.726652864	144	91	93
128.728584895	128	40	64
128.728634479	144	40	119
128.780564438	144	99	16
128.789715931	128	91	64
128.812377264	144	69	21
128.813154509	144	31	62
128.821860507	128	40	64
128.827617167	144	91	111
128.839309433	128	31	64
128.858561935	144	40	82
128.872629061	128	91	64
128.891502687	128	69	64
128.910315667	144	91	93
128.937601748	128	40	64
128.956229815	128	91	64
128.958286827	144	40	118
128.978935223	144	69	24
128.992304797	144	91	112
129.041102777	128	91	64
129.041619469	128	40	64
129.043622013	144	40	84
129.05837579	128	69	64
129.094174775	144	91	88
129.103948693	128	40	64
129.12366817	144	40	119
129.139368013	144	31	55
129.139685689	128	91	64
129.145625074	144	69	29
129.178622136	144	91	106
129.205125516	128	40	64
129.228919928	144	40	87
129.230815711	128	91	64
129.231121886	128	69	64
129.242667675	128	40	64
129.242761186	144	40	119
129.260024025	144	91	88
129.303625095	128	40	64
129.329420445	144	69	36
129.339350637	128	91	64
129.360416548	144	91	106
129.426269509	128	69	64
129.439974163	128	91	64
129.446124046	144	91	80
129.457067339	128	99	64
129.512935142	144	69	42
129.526686063	128	91	64
129.526749716	144	91	103
129.591570919	128	91	64
129.597164508	128	31	64
129.599495743	144	91	82
129.624606739	128	69	64
129.658146958	128	91	64
129.769128548	144	69	43
129.875817406	128	69	64
130.002937082	144	69	50
130.029034897	144	91	112
130.113673941	128	91	64
130.120602659	144	40	109
130.126052378	128	69	64
130.178241972	128	40	64
130.183975527	144	91	91
130.196093062	144	40	78
130.225459305	128	91	64
130.271475203	128	40	64
130.29312152	144	40	112
130.339856798	128	40	64
130.360072757	144	40	76
130.439054851	128	40	64
130.441727505	144	40	112
130.503853201	128	40	64
130.586433379	144	69	7
130.696587252	144	91	102
130.701652062	144	103	127
130.728683133	128	91	64
130.749662145	144	91	89
130.757899142	128	103	64
130.842003311	128	91	64
131.186828453	144	40	114
131.272127438	128	40	64
131.27781439	144	40	82
131.282364539	144	91	111
131.297251477	128	91	64
131.31974835	144	91	95
131.340496378	128	40	64
131.340593843	144	40	111
131.392422408	128	91	64
131.407526504	128	40	64
131.410616604	144	40	84
131.427609309	144	103	127
131.460567637	128	40	64
131.460645675	144	40	111
131.472664077	128	103	64
131.48717529	128	40	64
131.563244935	144	31	5
131.725759994	128	69	64
131.89531625	144	91	90
131.942908214	128	91	64
131.950691209	144	91	68
131.978714828	144	69	23
132.013940382	144	99	89
132.014121412	128	99	64
132.025076414	128	91	64
132.081520402	128	31	64
132.110378238	144	103	127
132.111961908	144	99	117
132.135442721	128	99	64
132.184177027	128	103	64
132.227062555	144	99	97
132.274761232	128	99	64
132.316278222	144	99	53
132.507200702	128	99	64
132.589615721	144	99	94
132.596631427	144	91	91
132.628503194	128	91	64
132.638685234	144	91	68
132.673773839	144	31	38
132.70514448	128	31	64
132.711701958	128	91	64
132.74303906	144	103	127
132.79978725	128	103	64
132.823272255	128	99	64
132.84932928	144	99	67
132.918152127	128	99	64
132.938143914	144	99	46
132.971177174	128	99	64
132.973997083	144	99	96
133.04560625	128	99	64
133.048617067	144	99	62
133.083933476	144	46	35
133.114135651	128	99	64
133.117922585	144	99	106
133.153581544	128	99	64
133.153654135	144	99	43
133.172385585	128	46	64
133.225220286	128	99	64
133.229927554	144	99	77
133.264894737	144	91	92
133.289286727	128	99	64
133.298866444	128	91	64
133.298949111	144	91	69
133.308723367	144	99	55
133.325812898	128	69	64
133.359901194	128	91	64
133.382692617	128	99	64
133.411676477	144	99	74
133.450962082	128	99	64
133.477767453	144	103	127
133.498106638	144	99	110
133.532661349	128	103	64
133.547823489	144	46	27
133.554200119	128	99	64
133.558297253	144	99	59
133.562004912	128	46	64
133.588747729	128	99	64
133.613063064	144	99	93
133.637776392	128	99	64
133.67985531	144	99	58
133.681906818	144	46	34
133.703632962	128	99	64
133.730059469	144	99	105
133.781933645	128	99	64
133.817306904	144	91	99
133.845761416	128	46	64
133.851046729	128	91	64
133.851092596	144	91	77
133.862233792	144	99	106
133.895582527	128	91	64
133.89851743	128	99	64
133.93044553	144	99	64
133.937952782	144	46	29
133.952599844	128	99	64
134.015394283	144	99	97
134.042145185	128	46	64
134.053245133	128	99	64
134.072240355	144	99	64
134.100161254	128	99	64
134.130512734	144	99	110
134.167947717	128	99	64
134.194864467	144	99	76
134.214918523	128	99	64
134.232214531	144	46	37
134.254744509	144	40	1
134.264573614	144	99	123
134.269959971	128	46	64
134.294036079	144	91	95
134.319150152	128	91	64
134.319216046	144	91	77
134.319577787	128	99	64
134.350299709	144	99	87
134.370186286	128	99	64
134.391260904	128	91	64
134.39551413	144	99	116
134.460238651	128	99	64
134.461290251	144	46	37
134.464546166	144	99	95
134.481164248	144	31	59
134.489257131	128	46	64
134.498298835	128	99	64
134.536853409	128	31	64
134.552387432	144	99	127
134.587167657	128	99	64
134.605395909	144	99	115
134.651890171	128	99	64
134.672768896	144	99	107
134.676932054	144	46	40
134.704009511	144	31	62
134.732938085	144	91	79
134.734102519	128	46	64
134.735487856	128	99	64
134.754021239	128	31	64
134.766847882	144	99	63
134.787705641	128	99	64
134.812454013	128	91	64
134.823854112	144	91	78
134.830726722	144	99	95
134.885703665	128	99	64
134.908297714	144	99	93
134.977713307	128	91	64
134.985950879	128	99	64
134.989751656	144	99	127
135.014773602	128	40	64
135.014931688	128	99	64
135.045262429	144	31	66
135.066971317	144	91	89
135.070017843	144	99	108
135.082834152	144	46	38
135.100989676	128	99	64
135.126633691	144	99	111
135.129865993	128	91	64
135.156318582	128	46	64
135.16672909	144	91	76
135.190466049	128	99	64
135.194412245	144	99	74
135.21995956	128	99	64
135.227646733	128	91	64
135.265107651	144	99	99
135.282749776	144	91	94
135.297027858	144	46	38
135.302607631	128	99	64
135.309814802	128	91	64
135.332922801	128	46	64
135.340539411	128	26	64
135.349183152	144	99	77
135.366283741	144	91	68
135.371658959	128	99	64
135.394273589	128	91	64
135.396306016	144	99	127
135.415361541	128	31	64
135.447537951	128	99	64
135.464362182	144	91	83
135.483323761	144	99	92
135.493976725	128	91	64
135.49577781	144	26	98
135.516245525	128	99	64
135.533399151	144	91	62
135.534961339	128	26	64
135.57026297	144	99	104
135.594495755	128	91	64
135.601775401	128	99	64
135.621673657	144	46	35
135.624782945	144	99	30
135.63495097	144	91	75
135.660009318	128	91	64
135.667654583	128	46	64
135.669497564	128	99	64
135.695914422	144	31	70
135.71384358	144	91	56
135.714997559	144	99	64
135.747948615	128	99	64
135.759599114	128	91	64
135.783219894	144	99	17
135.796207027	144	91	78
135.803863223	144	40	2
135.83516471	128	99	64
135.84273411	128	91	64
135.862900016	144	99	100
135.873789469	128	40	64
135.903138254	144	46	34
135.911429401	144	91	57
135.943009349	128	91	64
135.943805978	128	99	64
135.946934831	144	26	115
135.947124224	144	99	25
135.963886777	128	46	64
135.996200901	144	91	77
136.026867834	128	91	64
136.048864203	128	26	64
136.049215119	128	99	64
136.065720644	128	31	64
136.123054718	144	91	56
136.143907175	128	91	64
136.181329018	144	91	76
136.1928364	144	99	35
136.2026981	144	46	31
136.210166477	128	91	64
136.249592093	128	99	64
136.253445804	128	46	64
136.266397877	144	91	55
136.296956366	144	99	114
136.328717886	128	91	64
136.366309046	144	91	71
136.392397961	128	99	64
136.392457327	144	99	28
136.427526007	128	91	64
136.44801312	144	91	54
136.464805623	128	99	64
136.469106322	144	99	127
136.510108983	128	91	64
136.549489435	144	91	68
136.573969053	144	46	34
136.594954031	128	91	64
136.612711211	128	99	64
136.61276915	144	99	28
136.621305494	128	46	64
136.632195101	144	91	48
136.636948039	144	69	75
136.641481509	128	99	64
136.641583579	144	99	127
136.674301515	144	31	65
136.688475703	128	69	64
136.694015784	128	91	64
136.73278463	144	91	64
136.772572701	128	31	64
136.777933571	128	91	64
136.792775277	128	99	64
136.793147815	144	99	31
136.81504313	144	91	50
136.835378034	128	99	64
136.877525467	128	91	64
136.897086261	144	99	122
136.898559659	144	91	73
136.960202254	128	91	64
136.968998706	144	46	34
136.971277125	144	31	65
136.98586648	128	99	64
136.985927222	144	99	31
136.998392688	144	91	54
137.060969957	128	91	64
137.061777643	128	46	64
137.101014404	144	91	80
137.127758515	128	91	64
137.166538201	128	99	64
137.167199351	144	91	62
137.227555499	128	91	64
137.236389771	144	69	71
137.247830585	144	91	81
137.255978467	144	99	117
137.327184938	128	91	64
137.34735047	128	31	64
137.365408062	144	91	55
137.408802189	144	46	35
137.412066062	128	91	64
137.430578222	144	91	79
137.440071191	128	99	64
137.459529624	128	69	64
137.473986938	128	46	64
137.493746486	128	91	64
137.532090553	144	91	51
137.594306438	128	91	64
137.630064942	144	31	64
137.647572495	144	91	72
137.677722146	128	91	64
137.713765007	144	99	27
137.733419961	144	91	54
137.769090179	128	99	64
137.777975305	128	91	64
137.789754154	144	99	99
137.828120633	144	46	37
137.833699982	144	91	76
137.844140731	128	91	64
137.850030745	128	99	64
137.885313049	144	91	52
137.887674235	128	46	64
137.944546458	128	91	64
137.96451182	144	91	76
137.981400562	128	31	64
137.994492616	144	99	71
137.994732453	128	99	64
138.016307381	144	99	5
138.027982938	128	91	64
138.040651919	128	99	64
138.069572165	144	91	53
138.088299002	144	99	58
138.098306798	144	103	127
138.129550157	144	26	50
138.138071837	128	99	64
138.141013991	144	99	6
138.145291375	128	91	64
138.152627359	144	91	76
138.169780414	128	99	64
138.180841838	128	103	64
138.189242496	144	46	37
138.228403225	128	91	64
138.255114768	144	99	14
138.27130038	144	91	42
138.279195732	128	46	64
138.307840281	128	99	64
138.308167196	128	26	64
138.344154482	128	91	64
138.482454616	144	91	75
138.546283322	144	46	34
138.546997995	128	91	64
138.565210747	144	99	30
138.565798314	144	91	52
138.619466336	128	99	64
138.62842696	128	91	64
138.641559945	128	46	64
138.715690772	144	91	67
138.815537703	144	103	127
138.829591359	128	91	64
138.845938508	144	46	35
138.856849098	144	91	56
138.887134315	128	103	64
138.896595316	144	26	49
138.89694069	128	91	64
138.903177382	128	46	64
138.934267856	144	91	37
138.947727502	144	99	24
138.978089802	128	91	64
138.999565593	144	91	58
139.033571015	128	99	64
139.077390485	128	91	64
139.115508974	144	91	37
139.177432342	128	91	64
139.216318991	144	99	24
139.230956207	144	91	55
139.240537746	128	26	64
139.242993065	144	46	37
139.244659688	128	91	64
139.256691171	128	46	64
139.268957806	128	99	64
139.282248926	144	91	40
139.315974948	128	91	64
139.316079374	144	91	62
139.373699492	144	99	23
139.39517731	128	91	64
139.471066649	144	91	47
139.474397959	128	91	64
139.474445469	144	91	70
139.481916414	144	31	71
139.519164887	128	99	64
139.540619073	144	103	127
139.544989305	128	91	64
139.559331844	144	99	23
139.597353246	128	103	64
139.616322933	144	91	47
139.646639785	128	31	64
139.655351792	144	46	37
139.66232258	128	91	64
139.683408006	144	91	67
139.704782735	128	46	64
139.745620472	128	91	64
139.815476601	128	99	64
139.833390405	144	91	47
139.862941101	128	91	64
139.876488886	144	99	23
139.883309883	144	91	64
139.929166709	128	91	64
139.966721337	144	91	51
139.969893546	128	99	64
139.995851799	128	91	64
140.031767248	144	46	38
140.047425618	144	99	21
140.049005612	144	91	83
140.101292967	128	99	64
140.131580324	128	46	64
140.190151626	144	99	18
140.210867354	128	91	64
140.248672681	144	91	80
140.248883704	128	99	64
140.312013176	128	91	64
140.320723744	144	103	127
140.348848496	144	91	62
140.367525237	128	103	64
140.412043839	128	91	64
140.465231573	144	91	87
140.495851725	128	91	64
140.502381944	144	46	39
140.56434568	144	26	67
140.566443904	144	91	70
140.576604815	128	26	64
140.58961518	128	46	64
140.595581158	128	91	64
140.635551569	144	91	92
140.680802971	128	91	64
140.717397549	144	91	66
140.733471772	128	69	64
140.762366128	128	91	64
140.799189604	144	91	88
140.846046978	128	91	64
140.899887678	144	91	68
140.921799886	144	26	113
140.935386377	128	26	64
140.962621432	128	91	64
140.968579233	144	91	88
140.976686263	144	46	42
141.029025126	128	91	64
141.072263878	128	46	64
141.085450805	144	91	61
141.130741716	144	103	127
141.132303853	128	91	64
141.167844126	144	91	82
141.16951415	128	103	64
141.216202883	128	91	64
141.250864354	144	91	64
141.312898265	128	91	64
141.332979682	144	91	83
141.432505982	128	91	64
141.432580937	144	91	64
141.50421463	144	46	44
141.552813525	128	46	64
141.599028594	128	91	64
141.670450503	144	91	84
141.697999456	128	91	64
141.763507624	144	91	67
141.797788076	128	91	64
141.821878424	144	46	39
141.866098403	144	91	79
141.878835069	128	91	64
141.92595132	128	99	64
141.939687066	128	46	64
141.948883222	144	91	64
141.980453564	128	91	64
142.005403651	144	46	45
142.038333515	144	91	83
142.072769499	128	46	64
142.081627766	128	91	64
142.148859178	144	91	60
142.212721974	128	91	64
142.232336375	144	91	75
142.279894388	128	91	64
142.315665641	144	91	59
142.398530199	128	91	64
142.398615009	144	91	83
142.451768907	144	46	45
142.481423891	128	91	64
142.506056741	128	46	64
142.533536114	144	91	95
142.597695782	128	91	64
142.650217259	144	91	64
142.713873086	128	91	64
142.723464834	144	46	42
142.783120471	144	91	83
142.819293846	128	46	64
142.846399372	128	91	64
142.887101402	144	91	74
142.9135244	128	91	64
142.916041317	144	46	45
142.926900244	144	51	58
142.981116673	128	51	64
143.001370735	144	91	89
143.016040936	128	46	64
143.0162702	128	91	64
143.085158977	144	91	70
143.0982558	128	91	64
143.257996728	144	46	39
143.263123547	144	26	44
143.297432316	144	91	83
143.318642724	128	46	64
143.331504981	128	91	64
143.371175281	144	91	98
143.449629235	128	91	64
143.473316088	144	46	44
143.489464756	144	91	81
143.535913355	128	91	64
143.535985717	144	91	107
143.542681224	128	46	64
143.643222238	128	26	64
143.646927897	128	91	64
143.689529956	144	91	84
143.747626769	128	91	64
143.760601599	144	46	42
143.78552521	144	91	89
143.814103048	128	91	64
143.929108976	128	46	64
143.95501954	144	91	95
143.965606681	128	91	64
143.989747122	144	103	127
144.014468388	144	46	46
144.035487528	144	91	79
144.038884381	128	103	64
144.060021062	128	46	64
144.165322426	128	91	64
144.1780711	144	103	127
144.209971835	144	91	78
144.235270173	128	103	64
144.281225859	128	91	64
144.300513527	144	91	96
144.380385508	128	91	64
144.400954381	144	91	75
144.440654442	144	46	46
144.480437777	128	91	64
144.487099641	128	46	64
144.519723236	144	91	96
144.547864547	128	91	64
144.58498818	144	91	78
144.61990211	128	91	64
144.619968185	144	91	104
144.69743012	128	91	64
144.786368139	144	91	74
144.833024712	128	91	64
144.853688784	144	91	97
144.909340911	144	46	45
144.916577566	128	91	64
144.916648698	144	91	61
144.963478461	128	46	64
144.981001935	128	91	64
145.050566027	144	46	46
145.108840277	128	46	64
145.473759439	144	91	64
145.497347272	128	91	64
145.569750818	144	46	45
145.619282075	128	46	64
146.043344925	144	46	45
146.117875201	128	46	64
146.191144712	128	51	64
146.217560846	144	46	47
146.303346733	128	46	64
146.396608125	144	26	43
146.877772306	144	91	76
146.878874775	144	46	44
146.900907153	128	91	64
146.922098624	128	46	64
147.05583152	144	91	71
147.066062766	128	91	64
147.099779392	144	103	127
147.14970994	128	103	64
147.219866943	144	103	127
147.299404286	128	103	64
147.445547452	144	46	46
147.48995227	128	46	64
147.597448879	144	46	47
147.674403717	128	46	64
147.763269169	144	46	42
147.79010123	144	91	70
147.803121332	128	91	64
147.842276861	128	46	64
147.873871439	144	91	75
147.938348364	128	91	64
148.028925258	144	91	80
148.068229293	128	91	64
148.418860575	144	46	45
148.454297653	128	46	64
148.648321036	128	26	64
148.648390533	144	26	103
148.700391362	128	26	64
148.724114262	144	91	69
148.74869635	128	91	64
148.809819429	144	91	79
148.870061533	128	91	64
148.954504649	144	91	77
149.011157169	144	46	45
149.035029672	128	91	64
149.042805185	128	46	64
149.056941518	128	40	64
149.109264929	144	91	79
149.153349011	128	91	64
149.162982546	144	26	111
149.189856334	128	26	64
149.19039339	144	46	45
149.211375536	128	46	64
149.68773473	144	91	73
149.739346545	128	91	64
149.798201746	144	103	105
149.812139252	144	91	69
149.867569828	128	91	64
149.880665657	128	103	64
149.957280841	144	103	105
149.959160236	144	91	70
149.993922817	144	46	44
150.018399447	128	91	64
150.041774817	128	46	64
150.042363103	128	103	64
150.109677061	144	91	74
150.18889882	128	91	64
150.39459459	144	26	15
150.43591394	144	22	111
150.566704713	144	46	45
150.58293525	128	46	64
150.723321718	144	46	46
150.755109568	144	91	84
150.787513501	128	91	64
150.804560726	128	46	64
150.867500831	144	31	74
150.9318429	144	91	85
150.98717944	128	91	64
151.064824353	128	31	64
151.079681599	144	91	87
151.135631602	128	91	64
151.229544475	144	91	79
151.303730236	128	91	64
152.040735509	144	91	50
152.051609554	128	91	64
152.168595649	144	91	52
152.174966362	128	91	64
152.417708219	144	91	61
152.427677248	128	91	64
152.518721079	144	91	65
152.622455517	128	91	64
152.933589671	144	31	73
152.991179594	128	26	64
153.07206595	144	26	43
153.101329769	128	26	64
153.19513165	144	103	87
153.220401965	144	91	64
153.231243466	128	91	64
153.255566848	144	91	59
153.273686238	128	103	64
153.282411964	128	31	64
153.320066061	128	91	64
153.345602171	144	103	86
153.439228089	128	103	64
153.462314263	144	91	71
153.521075053	128	91	64
153.607065815	144	91	52
153.685985025	128	91	64
153.791163992	144	103	87
153.864970648	128	103	64
153.946055235	144	26	60
153.951695285	128	26	64
153.995574338	144	103	87
154.075033893	128	103	64
154.166601783	144	91	61
154.208789208	128	91	64
154.278147627	144	91	46
154.322221746	128	91	64
154.406073203	144	91	60
154.423485069	128	91	64
154.42356069	144	91	71
154.469859873	128	91	64
154.523984912	144	91	46
154.602685857	128	91	64
154.682056001	144	31	64
154.72344994	128	31	64
155.064236607	144	31	61
155.3158358	144	91	63
155.361867497	128	91	64
155.408837017	144	91	70
155.433303684	128	31	64
155.454334425	128	91	64
155.493665823	144	91	67
155.529788051	144	26	84
155.536423847	128	91	64
155.54919268	128	26	64
155.590459509	144	91	83
155.669888897	128	91	64
155.841901826	128	22	64
156.067828434	144	103	87
156.100440917	144	31	69
156.129272027	144	91	78
156.14100062	128	103	64
156.141153294	128	31	64
156.174035144	128	91	64
156.202342513	144	91	81
156.222425421	128	91	64
156.260297474	144	91	67
156.337478308	128	91	64
156.51672926	144	103	85
156.590549369	128	103	64
156.610275388	144	73	111
156.628126032	128	73	64
156.74045426200001	144	91	80
156.758640229	128	91	64
156.758696066	144	91	79
156.782920291	144	31	68
156.783177478	128	91	64
156.786475508	144	91	77
156.823878332	128	91	64
156.841109725	144	91	70
156.903846387	128	91	64
156.926511351	144	91	69
156.958776486	144	73	110
156.987881772	128	91	64
156.997283007	128	73	64
157.133294826	128	31	64
157.157786128	128	22	64
157.246271239	144	26	79
157.306921707	144	103	86
157.311500954	144	91	95
157.374563476	128	91	64
157.391356589	128	103	64
157.397190195	144	91	95
157.397606004	144	31	66
157.408127351	128	26	64
157.509083853	144	73	107
157.529316718	128	73	64
157.539157921	128	91	64
157.599226929	144	91	72
157.65987715	128	91	64
157.674351324	144	73	108
157.708465218	128	73	64
157.809302817	128	31	64
157.978925867	144	91	95
158.009534547	144	73	102
158.076128014	128	73	64
158.077137534	144	31	69
158.109211589	128	91	64
158.124334239	144	91	88
158.166086225	144	103	87
158.204430971	128	91	64
158.241179229	128	103	64
158.371422338	144	73	107
158.441210423	128	73	64
158.48761345	128	31	64
158.657039236	144	91	86
158.692290202	128	91	64
158.700588093	144	91	86
158.732357998	144	31	71
158.775813327	128	91	64
158.788891022	128	31	64
158.814271486	144	91	90
158.872346825	128	91	64
158.891837173	144	91	70
158.909324893	144	73	109
158.913378775	144	26	67
158.919636656	128	26	64
158.947766935	128	73	64
158.954653439	128	91	64
159.030289027	144	73	106
159.0451691	144	100	36
159.064161296	144	31	71
159.125533302	128	73	64
159.127294725	128	100	64
159.296391981	144	91	94
159.355615885	144	100	41
159.356215554	128	91	64
159.377004382	144	91	89
159.409239965	128	100	64
159.410935827	144	73	106
159.476329136	128	73	64
159.482579625	128	31	64
159.541741389	128	91	64
159.581654473	144	91	71
159.58556689	144	100	52
159.642718508	128	91	64
159.67904423	128	100	64
159.75474852	144	100	52
159.794368007	144	73	108
159.81308607	144	26	71
159.82452623	128	100	64
159.852133198	128	26	64
159.857980701	128	73	64
160.045540593	144	91	93
160.075426729	128	91	64
160.082349916	144	100	37
160.15665348	128	100	64
160.172199126	144	91	87
160.18294686	144	103	64
160.223875262	128	91	64
160.229044452	144	26	79
160.248270384	128	26	64
160.258517378	128	103	64
160.26523899	144	100	40
160.279263055	144	91	87
160.307415188	144	73	104
160.344911026	128	100	64
160.346439723	128	73	64
160.356280294	128	91	64
160.39753589	144	91	76
160.431299144	144	73	101
160.433456943	144	100	37
160.456085041	128	91	64
160.507667055	128	100	64
160.525339934	128	73	64
160.611982574	144	100	35
160.694917092	128	100	64
160.810620159	144	73	101
160.874721623	128	73	64
160.878488265	144	91	93
160.927598851	128	91	64
160.938740278	144	100	92
160.967259865	144	91	86
160.990157006	128	100	64
161.04005743	128	91	64
161.08150123	144	91	91
161.122179963	144	100	107
161.15570348	128	91	64
161.211529499	128	100	64
161.2116956	144	91	61
161.215650855	144	103	55
161.247370041	144	26	73
161.274529536	128	91	64
161.29001356	128	103	64
161.317239377	128	26	64
161.65055222	144	91	104
161.67984696	128	91	64
161.720529932	144	91	96
161.788124431	144	31	72
161.789586599	128	91	64
161.830447519	144	91	88
161.836642508	144	100	3
161.893493625	128	100	64
161.894596482	144	73	103
161.90619112	128	91	64
161.947580737	144	91	68
161.961999277	128	73	64
162.007106377	128	91	64
162.16414178	128	31	64
162.243255913	144	73	104
162.313850821	144	26	66
162.343280521	128	73	64
162.383798774	128	26	64
162.38792836	144	100	1
162.428790678	144	91	95
162.491950799	128	100	64
162.495177608	128	91	64
162.551608076	144	91	89
162.62449367	128	91	64
162.643890696	144	91	80
162.740564221	128	91	64
162.758047636	144	73	105
162.76000568	144	91	66
162.800607727	144	100	7
162.809505167	128	73	64
162.82451086	128	91	64
162.829629792	144	31	75
162.908486742	128	31	64
162.908721562	128	100	64
162.967025141	144	73	106
162.993177478	128	73	64
163.067736436	144	100	31
163.140247411	128	100	64
163.19585772	144	31	76
163.264002314	144	26	72
163.26903502	144	91	102
163.304165806	128	26	64
163.309008978	144	73	109
163.309532486	128	91	64
163.376688402	128	73	64
163.406213869	144	91	95
163.474906154	128	91	64
163.517590794	144	91	79
163.534069407	128	31	64
163.591041057	128	91	64
163.629289234	144	91	56
163.711584619	128	91	64
163.826162983	144	73	107
163.872374691	144	31	76
163.8761029	128	73	64
163.958105858	128	31	64
163.970134165	144	73	107
164.040980823	128	73	64
164.179665354	144	26	76
164.206823012	144	31	74
164.218419347	128	26	64
164.22418905	128	31	64
164.329524266	144	91	89
164.343644697	144	73	105
164.372589505	144	31	74
164.37917772	128	91	64
164.391529907	128	73	64
164.406515853	128	31	64
164.411301942	144	91	89
164.476055222	128	91	64
164.478167877	144	31	77
164.531018868	144	91	94
164.540232317	128	31	64
164.582654695	144	92	99
164.592548653	128	91	64
164.597135628	144	26	70
164.610775296	144	91	58
164.632358266	128	92	64
164.650721369	128	26	64
164.658449766	128	91	64
164.673482973	144	92	91
164.732166848	128	92	64
164.859723343	144	73	107
164.883440964	144	31	78
164.923388649	128	31	64
164.926085485	128	73	64
165.113666373	144	26	72
165.138775876	144	92	89
165.152281525	128	26	64
165.166055804	128	92	64
165.224090421	144	26	71
165.248360613	144	92	84
165.282395176	128	26	64
165.304787361	128	92	64
165.357283261	144	92	86
165.432819835	128	92	64
165.630033654	144	26	73
165.64882389	144	91	80
165.669109824	128	26	64
165.707521099	128	91	64
165.727177624	144	91	91
165.867354587	144	92	92
165.869315448	128	92	64
165.88094356	128	91	64
165.887250177	144	91	49
165.958409688	128	91	64
165.958844544	144	92	87
166.020677385	128	92	64
166.080395298	144	92	95
166.135913077	128	92	64
166.323069341	144	46	46
166.381835147	128	46	64
166.498376214	144	92	101
166.516566951	144	91	75
166.531736738	128	92	64
166.549258593	128	91	64
166.549330979	144	91	75
166.61306925	144	92	99
166.652498522	128	92	64
166.726347616	144	92	96
166.732028594	128	91	64
166.745139564	144	91	44
166.78190725	128	92	64
166.810174183	128	91	64
166.907630599	144	46	47
166.986608537	128	46	64
167.215837528	144	92	95
167.242636992	128	92	64
167.332341913	144	92	92
167.347938623	144	91	72
167.371707532	128	92	64
167.378918537	128	91	64
167.378982223	144	91	80
167.413887365	128	91	64
167.422257816	144	91	72
167.460813781	144	92	97
167.497686298	128	91	64
167.497760425	144	91	74
167.522945243	128	92	64
167.560990025	128	91	64
167.569229097	144	91	57
167.624277437	144	46	48
167.64315599	128	91	64
167.665340088	128	46	64
167.761768587	144	46	50
167.846244039	128	46	64
168.000340362	144	92	95
168.033309231	128	92	64
168.038580321	144	91	98
168.06319855	128	91	64
168.073212054	144	91	114
168.116556302	144	92	96
168.146904018	128	91	64
168.156581148	144	91	99
168.169191284	128	92	64
168.226811878	128	91	64
168.246390475	144	91	51
168.247381993	144	92	100
168.247648904	144	46	49
168.302414387	128	92	64
168.311988095	128	91	64
168.33892124	128	46	64
168.493266674	144	106	40
168.512045217	128	106	64
168.660599147	144	100	58
168.750907992	128	100	64
168.782266658	144	92	97
168.783862614	144	91	102
168.814712472	128	92	64
168.830191229	128	91	64
168.830282659	144	91	86
168.897045079	128	91	64
168.897113449	144	91	52
168.916024427	144	103	127
168.966070025	144	92	75
168.991546062	128	92	64
168.997821842	128	91	64
168.999926498	128	103	64
169.001489413	144	92	116
169.040942057	144	46	52
169.06792289	144	103	127
169.068154118	128	92	64
169.068974052	128	46	64
169.136213592	128	103	64
169.157402616	144	106	51
169.161307339	144	92	110
169.176557767	128	106	64
169.177282912	144	46	50
169.221992207	128	46	64
169.225043955	128	92	64
169.22510422	144	92	70
169.226975466	144	103	124
169.239501309	128	92	64
169.280355324	144	26	66
169.284851061	128	103	64
169.286410384	128	26	64
169.290915265	144	100	67
169.302534629	144	31	69
169.319346788	144	46	52
169.341876475	128	100	64
169.343382567	144	73	58
169.353784807	128	46	64
169.359831206	128	31	64
169.372135401	144	26	66
169.390349686	128	73	64
169.393971703	144	103	112
169.412273915	144	73	49
169.435701084	128	26	64
169.449941758	144	91	87
169.451277831	128	103	64
169.468950228	128	91	64
169.469026871	144	91	104
169.494834054	128	73	64
169.498412996	144	73	54
169.5065719	128	91	64
169.506630895	144	91	92
169.540564076	128	73	64
169.561482202	144	73	51
169.564813703	144	103	99
169.593828758	128	91	64
169.617366765	128	103	64
169.624423761	128	73	64
169.633456048	144	91	55
169.639081487	144	31	73
169.639507192	128	31	64
169.64845526	144	92	127
169.661677883	144	73	58
169.667068512	128	92	64
169.667144523	144	92	74
169.693986764	128	91	64
169.716503419	128	92	64
169.722549673	144	103	85
169.72415828	128	73	64
169.76355901	144	92	116
169.786064399	144	46	52
169.799009539	128	92	64
169.800779713	128	103	64
169.826738683	144	106	42
169.829813551	144	92	73
169.845253114	128	106	64
169.85771537	128	92	64
169.862100936	128	46	64
169.865411329	144	103	75
169.880742728	144	92	113
169.918229878	128	92	64
169.943936643	144	92	70
169.948410169	144	91	79
169.952618972	128	103	64
169.985902112	128	92	64
169.988933013	128	91	64
169.989054172	144	91	96
170.009200677	144	92	113
170.026996497	144	103	65
170.051744172	128	92	64
170.084912381	128	91	64
170.084981784	144	91	56
170.128302575	144	92	115
170.136665059	128	103	64
170.148028254	128	91	64
170.197564225	128	92	64
170.203272697	144	92	71
170.213130305	144	103	50
170.240054714	128	92	64
170.273023061	144	100	44
170.27997579	144	92	114
170.283593324	128	103	64
170.31803972	128	92	64
170.341982931	144	92	72
170.34456563	128	100	64
170.363430781	144	73	69
170.367137358	144	91	93
170.376315949	128	92	64
170.384171585	128	91	64
170.385779132	144	92	115
170.387694276	144	91	109
170.392573837	144	103	34
170.396531455	128	91	64
170.412932991	128	73	64
170.433998243	144	73	88
170.450550149	144	31	65
170.452110431	128	92	64
170.468297848	128	103	64
170.472899849	144	100	45
170.47413568	144	106	40
170.476209755	128	31	64
170.476568376	144	92	74
170.486115747	144	91	91
170.491320078	128	73	64
170.493097549	128	106	64
170.505718006	128	92	64
170.511416442	128	100	64
170.528098622	128	91	64
170.531386616	144	73	67
170.550861148	144	92	120
170.557703047	144	103	22
170.596886399	128	73	64
170.600557344	144	73	82
170.608457518	128	92	64
170.611964036	144	92	80
170.616496434	144	100	39
170.631789725	144	46	60
170.634599071	128	103	64
170.657772132	128	73	64
170.65841722	128	100	64
170.67502819	128	46	64
170.685045043	144	91	85
170.713964268	144	73	69
170.729711157	128	91	64
170.731509373	144	103	14
170.740708972	128	73	64
170.774237552	128	92	64
170.78325319	144	100	38
170.783853919	144	91	95
170.784541868	128	103	64
170.793885753	144	46	63
170.807570699	128	100	64
170.811106353	128	91	64
170.84511374	144	92	116
170.859602393	128	46	64
170.866626742	144	91	72
170.874523452	144	103	10
170.885892738	128	92	64
170.894426618	128	91	64
170.910375652	144	92	77
170.932251902	128	92	64
170.933065291	144	100	37
170.944428777	128	103	64
170.950269807	144	91	83
170.962172907	128	91	64
170.976193831	128	100	64
170.978493889	144	92	122
171.02051759	128	92	64
171.026488722	144	103	13
171.032163383	144	91	67
171.04613888	144	100	37
171.062061137	128	91	64
171.069738155	144	92	76
171.088552046	128	103	64
171.090795233	144	106	45
171.099712513	144	31	65
171.108434586	128	100	64
171.109413935	128	106	64
171.115955888	128	92	64
171.118067255	144	91	76
171.119340318	144	92	118
171.130483904	128	91	64
171.141699107	128	31	64
171.171947555	128	92	64
171.173983555	144	103	20
171.192653602	144	92	75
171.199876052	144	100	34
171.215660669	144	91	54
171.231833426	128	91	64
171.236279775	128	103	64
171.259608354	128	100	64
171.265987859	128	92	64
171.269377792	144	92	117
171.29942533	144	91	72
171.29961239	128	92	64
171.312928162	144	26	73
171.313483232	144	103	29
171.313815507	128	91	64
171.325940768	144	46	64
171.335585622	144	92	79
171.349565955	144	100	32
171.358395549	128	92	64
171.381731532	144	92	123
171.385282914	128	103	64
171.390661877	128	46	64
171.4093872	128	100	64
171.417142011	144	31	69
171.459391608	144	103	45
171.462154273	128	92	64
171.46222047	144	92	82
171.49987008	144	100	32
171.503355075	128	92	64
171.505646194	144	92	123
171.517431563	128	103	64
171.528234708	144	91	58
171.541460636	128	26	64
171.541848418	128	100	64
171.564331406	128	92	64
171.571994713	144	92	87
171.574775306	128	91	64
171.57930939	144	91	78
171.600395997	128	92	64
171.611052426	144	103	62
171.628196742	128	91	64
171.66621799	144	100	46
171.668466931	128	103	64
171.690287306	144	106	43
171.700011159	144	91	60
171.710913352	128	100	64
171.730215809	128	106	64
171.745814169	128	91	64
171.756170019	144	103	75
171.784131245	144	91	84
171.795775322	144	100	68
171.815897877	128	31	64
171.81720429	144	92	106
171.818128396	128	103	64
171.828285319	128	91	64
171.84337844	128	100	64
171.864239691	144	91	63
171.870426699	128	92	64
171.897699158	144	103	84
171.912445912	128	91	64
171.912947921	144	100	75
171.926864053	144	92	105
171.956069571	128	103	64
171.958716703	128	100	64
171.965988596	144	91	78
171.98115465	128	91	64
172.032410406	144	91	59
172.042909089	144	103	96
172.04528403	144	31	71
172.049904735	144	100	93
172.062496438	128	91	64
172.073782137	128	31	64
172.075009043	128	92	64
172.1043142	128	103	64
172.11069184	128	100	64
172.114484277	144	91	71
172.145407436	144	31	72
172.161765497	128	91	64
172.191010737	144	103	109
172.199327602	144	46	74
172.199766364	144	100	101
172.223000795	128	31	64
172.228085979	144	73	83
172.229520463	128	46	64
172.231355513	144	91	50
172.242235773	128	100	64
172.244699541	128	91	64
172.251456959	128	103	64
172.294041174	128	73	64
172.301099195	144	91	72
172.306842944	144	106	43
172.325866411	144	46	73
172.328714215	128	91	64
172.346485382	128	106	64
172.347380407	144	103	119
172.347571465	144	92	109
172.349213237	144	100	107
172.383702113	128	46	64
172.384542616	144	91	52
172.386159196	128	103	64
172.391590137	128	100	64
172.398652813	128	92	64
172.41280175	128	91	64
172.469176695	144	91	73
172.479261525	144	92	105
172.49094624	144	103	121
172.496882386	128	91	64
172.500018219	144	100	116
172.52586773	128	100	64
172.534117598	128	103	64
172.535491537	128	92	64
172.550653805	144	91	51
172.564010458	128	91	64
172.602076037	144	91	74
172.63984235	144	103	104
172.6476181	128	91	64
172.702555177	128	103	64
172.716330071	144	91	50
172.762541138	128	91	64
172.793118388	144	103	92
172.800654679	144	91	73
172.819502844	144	46	71
172.849161566	144	26	33
172.852335547	128	103	64
172.862304139	128	91	64
172.907700935	144	106	43
172.913010367	128	46	64
172.915288461	144	92	106
172.915921922	144	91	49
172.918661977	128	92	64
172.944956313	144	103	85
172.947915146	128	106	64
172.979324649	128	91	64
172.999831493	144	91	67
173.004625226	128	103	64
173.00861871	144	92	108
173.048144485	128	91	64
173.048211741	144	91	48
173.086896311	128	92	64
173.093326701	144	103	78
173.129195304	128	91	64
173.143465625	144	73	74
173.150818549	128	103	64
173.169923789	144	91	67
173.17836559	128	73	64
173.215137669	128	91	64
173.231825232	144	91	49
173.242390284	144	103	72
173.295231744	128	91	64
173.302418749	128	103	64
173.343130414	144	73	72
173.365191353	144	91	61
173.377173721	128	73	64
173.395625654	144	103	63
173.396382935	128	91	64
173.450695553	144	91	48
173.450861286	128	103	64
173.498047863	128	91	64
173.499645405	144	92	107
173.506519292	144	106	42
173.525287965	128	92	64
173.53892636	144	73	71
173.544856198	144	103	53
173.546775415	128	106	64
173.552563337	144	91	63
173.57585266	128	73	64
173.579346174	128	91	64
173.611777911	144	92	109
173.62617811	128	103	64
173.633665041	144	91	47
173.665489428	144	46	78
173.668943225	128	92	64
173.679474762	128	91	64
173.710441804	144	103	42
173.718745454	128	46	64
173.721997571	144	73	69
173.759131483	128	73	64
173.768627577	128	103	64
173.803109596	144	91	46
173.815851441	144	46	83
173.819833571	144	100	28
173.848433926	128	91	64
173.857192393	144	91	70
173.85752855	128	46	64
173.863969741	144	103	29
173.893821145	128	100	64
173.898307743	128	91	64
173.909394464	144	73	69
173.918633212	128	103	64
173.956051435	144	46	80
173.961035375	128	73	64
173.966630683	144	91	53
173.979912394	144	73	57
173.985440992	128	46	64
173.99967116	144	100	32
174.009060246	144	103	20
174.013092362	128	91	64
174.026363234	128	73	64
174.026453164	144	73	64
174.026652498	128	100	64
174.050591662	144	91	69
174.066481844	144	92	103
174.084579664	128	103	64
174.091773053	128	92	64
174.107997778	128	73	64
174.123337126	144	106	41
174.145632906	128	91	64
174.147324427	144	73	52
174.16325246	128	106	64
174.166716552	144	91	41
174.176270651	128	73	64
174.176319744	144	73	65
174.178776979	144	103	11
174.213340772	128	91	64
174.236233842	128	103	64
174.241221592	128	73	64
174.243260607	144	91	74
174.280908796	128	91	64
174.314808565	144	73	52
174.338134265	144	46	76
174.340309424	144	103	10
174.391852649	128	73	64
174.393058289	128	46	64
174.404788563	128	103	64
174.413056902	144	73	65
174.422630011	144	100	56
174.477336969	144	103	16
174.480471195	144	91	69
174.492162113	128	100	64
174.514074006	128	91	64
174.552118703	128	103	64
174.552943899	144	91	70
174.556842782	128	73	64
174.556949639	144	73	47
174.56500177	144	92	105
174.592326495	128	73	64
174.598461694	128	92	64
174.599718255	144	100	57
174.612933888	144	73	61
174.628582023	144	103	27
174.629786789	128	91	64
174.660229188	128	100	64
174.672379771	144	91	73
174.674873944	128	73	64
174.686067087	128	103	64
174.6901666	144	106	42
174.712430339	144	73	46
174.713625801	128	91	64
174.729942199	128	106	64
174.760454414	128	73	64
174.760513014	144	73	64
174.766846395	144	100	73
174.788809079	144	103	41
174.827038655	128	100	64
174.841213482	128	73	64
174.85243597	128	103	64
174.870282359	144	91	73
174.885967478	144	73	62
174.890272065	144	100	81
174.912803151	128	73	64
174.912860708	144	73	44
174.924241092	128	91	64
174.924319204	144	91	62
174.941461263	144	103	54
174.957143825	128	100	64
174.9823331	144	92	104
175.001347112	128	103	64
175.007620619	128	73	64
175.036824208	128	92	64
175.044703486	144	73	60
175.077024561	144	103	69
175.093868679	128	73	64
175.09391001	144	73	45
175.097629605	128	91	64
175.114148295	144	92	102
175.149673744	128	103	64
175.158154885	128	73	64
175.172522898	128	92	64
175.188876083	144	100	97
175.205076828	128	100	64
175.217432206	144	100	109
175.223689256	144	103	84
175.223878645	128	100	64
175.231318481	144	92	104
175.2371874	144	91	68
175.256673142	144	106	42
175.296718556	128	106	64
175.301755709	128	103	64
175.303295166	128	91	64
175.30334852	144	91	80
175.317019917	128	92	64
175.345874217	144	100	112
175.37620665	144	103	96
175.380096637	128	91	64
175.393705592	128	100	64
175.435753896	128	103	64
175.47424202	144	91	63
175.492254116	144	100	108
175.504595071	144	103	107
175.548663199	128	91	64
175.556924772	128	100	64
175.56818353	128	103	64
175.624292895	144	91	65
175.641177833	144	100	106
175.65216544	144	103	116
175.668488318	128	91	64
175.668555618	144	91	75
175.684630955	144	92	104
175.706430128	128	100	64
175.708688171	128	92	64
175.72759181200001	128	103	64
175.780805263	128	91	64
175.78849921	144	91	58
175.795844486	144	92	102
175.808165612	144	100	103
175.831495576	144	103	116
175.840208469	128	100	64
175.867638772	128	92	64
175.868521372	128	103	64
175.874234502	144	106	42
175.894585979	128	106	64
175.914071464	144	92	106
175.914957674	128	91	64
175.957482054	144	91	82
175.974162145	144	103	101
175.994021486	128	92	64
176.019829305	128	91	64
176.019924133	144	91	83
176.051222355	128	103	64
176.114370728	128	91	64
176.121941315	144	91	65
176.139038621	144	103	88
176.18098321	128	91	64
176.186962568	144	91	55
176.199944738	128	103	64
176.231706475	144	92	110
176.246871543	128	91	64
176.292704337	144	103	77
176.302667774	128	92	64
176.30317991	144	91	86
176.348382291	144	92	113
176.368833985	128	103	64
176.442490341	144	103	68
176.457755855	128	91	64
176.457794484	144	91	68
176.490379252	144	106	42
176.499732531	128	103	64
176.530930604	128	106	64
176.574642567	128	92	64
176.603914818	144	103	59
176.615445455	128	91	64
176.656503798	144	91	91
176.668293959	128	103	64
176.702925418	128	91	64
176.703025177	144	91	92
176.76094686	144	103	52
176.768133772	144	92	109
176.797325341	128	91	64
176.798121143	128	92	64
176.803196383	144	91	82
176.835629035	128	103	64
176.865222782	128	91	64
176.873014792	144	91	53
176.877409054	144	92	107
176.930131502	144	103	43
176.932013879	128	91	64
176.9828916	128	103	64
177.021011359	144	91	95
177.034064143	128	91	64
177.034105196	144	91	94
177.058120879	128	92	64
177.074107308	144	106	43
177.087187145	144	103	33
177.130478973	128	106	64
177.134065597	128	91	64
177.134121005	144	91	71
177.168570196	128	103	64
177.21587446	128	91	64
177.223721132	144	91	50
177.255874722	144	103	22
177.282412152	128	91	64
177.299330191	144	92	111
177.29999525	128	92	64
177.303144685	144	91	95
177.334586149	128	103	64
177.350448578	128	91	64
177.350510163	144	91	84
177.387731835	144	92	107
177.432101709	128	91	64
177.432424978	144	103	14
177.439893557	144	91	65
177.466275728	128	91	64
177.466382731	144	91	42
177.488966528	128	103	64
177.566023299	128	91	64
177.591142415	144	103	6
177.607672114	128	92	64
177.659886998	128	103	64
177.688080044	144	106	41
177.730325387	128	106	64
177.759904108	144	103	2
177.802683208	128	103	64
177.855498337	144	92	115
177.883091653	128	92	64
177.922122576	144	103	7
177.940160525	144	92	109
177.968430995	128	103	64
178.072685187	144	103	18
178.140327318	128	103	64
178.157435323	144	100	53
178.194962371	128	100	64
178.225735903	144	103	29
178.284981804	128	103	64
178.309694205	144	106	43
178.322663107	144	100	57
178.346707194	128	106	64
178.360829192	128	100	64
178.38821152	144	103	42
178.450839649	128	103	64
178.453743108	144	100	78
178.50865885	128	100	64
178.526476514	144	103	57
178.58309934	128	103	64
178.619420292	144	100	89
178.643645163	128	100	64
178.675654767	144	103	71
178.735063798	144	100	94
178.735756097	128	103	64
178.738976586	144	91	63
178.783300299	128	91	64
178.793547527	128	100	64
178.805914966	144	91	62
178.824501875	144	103	84
178.871164542	128	91	64
178.871234561	144	91	67
178.88050244	144	100	94
178.883396948	128	103	64
178.923818361	144	106	43
178.931022535	128	91	64
178.941966303	128	100	64
178.963448887	128	106	64
178.974897831	128	92	64
178.976148136	144	103	97
179.012993752	144	100	97
179.04239589	128	103	64
179.055496048	144	91	82
179.075934219	128	100	64
179.100726388	128	91	64
179.100797435	144	91	52
179.101154284	128	26	64
179.1278876	144	103	105
179.180131038	144	100	91
179.183072275	128	103	64
179.18995613	144	26	104
179.203171268	128	91	64
179.203242295	144	91	62
179.227818467	128	100	64
179.23472325	128	26	64
179.276384904	144	103	107
179.28247076	128	91	64
179.332235592	128	103	64
179.368601238	144	91	81
179.436248704	144	103	99
179.448759068	128	91	64
179.455742824	144	91	83
179.483968385	128	92	64
179.485962923	128	103	64
179.532857239	144	106	44
179.536092473	128	91	64
179.539857969	144	91	71
179.585476474	144	103	89
179.59694195	128	106	64
179.599883181	128	91	64
179.656726661	128	103	64
179.726017098	144	91	88
179.753013365	128	91	64
179.75306848	144	91	80
179.75337298	144	103	75
179.762732411	144	26	101
179.817222082	128	103	64
179.817500275	128	26	64
179.823494635	128	91	64
179.823550015	144	91	75
179.899849586	128	91	64
179.906856167	144	103	68
179.92076198	144	91	57
179.982747742	128	91	64
179.983847001	128	103	64
179.988258309	144	91	91
180.071884434	128	91	64
180.071950849	144	91	81
180.079390052	144	103	61
180.134534718	128	103	64
180.149954525	128	91	64
180.158074702	144	91	80
180.190451605	144	106	41
180.217715522	128	91	64
180.22880488	144	91	58
180.230599741	128	106	64
180.237102656	144	103	54
180.283425041	128	91	64
180.305125279	144	91	94
180.309120553	128	103	64
180.321905235	128	91	64
180.321996161	144	91	94
180.392459566	144	103	45
180.427788729	144	73	93
180.466900047	128	103	64
180.482022887	128	73	64
180.482107474	144	73	90
180.483157665	128	91	64
180.505437029	144	91	81
180.539238957	144	103	35
180.544247986	128	73	64
180.544299714	144	73	68
180.584119575	128	91	64
180.617066563	128	103	64
180.625259926	128	73	64
180.6552458	144	91	77
180.722597216	128	91	64
180.72267256	144	91	81
180.726172616	144	103	19
180.785025473	128	103	64
180.789299905	144	106	46
180.815878164	128	91	64
180.829957584	128	106	64
180.838661986	144	91	77
180.872139786	144	103	7
180.903846217	128	91	64
180.903913879	144	91	60
180.934297122	128	91	64
180.949220715	128	103	64
180.98948836	144	91	94
181.025905363	128	91	64
181.025972849	144	91	101
181.056903384	144	103	1
181.094578975	144	73	92
181.119324249	128	103	64
181.140770264	128	73	64
181.140834313	144	73	89
181.199017758	128	73	64
181.199075665	144	73	67
181.210939337	144	103	1
181.220061604	128	91	64
181.220184507	144	91	62
181.26857009	128	103	64
181.284261267	128	91	64
181.292517254	128	73	64
181.326988605	144	91	86
181.344446892	144	46	114
181.357335863	144	103	9
181.382793485	144	106	43
181.385147467	128	91	64
181.385180599	144	91	94
181.422317214	128	103	64
181.428185062	128	106	64
181.430183832	128	46	64
181.499322987	128	91	64
181.508946142	144	103	23
181.519773009	144	91	81
181.569126241	128	103	64
181.64997383	128	91	64
181.669748775	144	103	37
181.671831571	144	91	96
181.718909286	128	103	64
181.76784092	128	91	64
181.779755557	144	91	94
181.813839933	144	26	127
181.82141711	144	103	51
181.852776471	128	91	64
181.856567763	144	91	88
181.885576002	128	103	64
181.891237827	128	26	64
181.917866681	128	91	64
181.974054385	144	103	65
182.007441265	144	106	41
182.011849989	144	100	90
182.025362412	144	91	103
182.033604004	128	103	64
182.047461687	128	106	64
182.114407713	128	100	64
182.121795931	144	103	85
182.150616744	128	91	64
182.166402368	128	103	64
182.190808495	144	91	95
182.237231075	128	91	64
182.237299793	144	91	82
182.242371778	144	100	90
182.257316729	144	103	103
182.300011361	128	103	64
182.307504032	128	100	64
182.316598226	128	91	64
182.338005162	144	91	62
182.390221386	144	103	121
182.399903823	128	91	64
182.41317058	144	100	91
182.453737864	128	103	64
182.473583713	144	91	95
182.492083611	128	100	64
182.520425327	144	103	127
182.586611816	128	103	64
182.606615709	128	91	64
182.606689143	144	91	90
182.64005199	144	106	41
182.64562839	144	100	81
182.653216081	144	103	127
182.680027581	128	106	64
182.684561004	128	91	64
182.696009971	144	91	63
182.717470723	128	103	64
182.724955012	128	100	64
182.766976962	128	91	64
182.801049085	144	103	127
182.807326918	144	91	96
182.839678709	144	100	72
182.86990089	128	103	64
182.907120253	128	91	64
182.909250699	128	100	64
182.911146639	144	91	105
182.987838104	144	103	104
183.021549263	128	91	64
183.021637488	144	91	69
183.037536689	144	100	67
183.051147539	128	103	64
183.099847676	128	91	64
183.109771377	128	100	64
183.136569005	144	91	99
183.13685434	144	103	78
183.202361462	128	91	64
183.202441651	144	91	97
183.215894248	128	103	64
183.223760197	144	106	42
183.259232419	144	100	59
183.263219814	128	106	64
183.305385861	128	91	64
183.305458515	144	91	98
183.307583593	144	103	59
183.308961942	144	31	81
183.34133187	128	100	64
183.355496489	128	91	64
183.355554999	144	91	74
183.392947013	128	31	64
183.401892109	128	103	64
183.405331087	144	31	54
183.434348558	128	91	64
183.494922755	128	31	64
183.507358038	144	103	34
183.515016518	144	100	56
183.518593777	144	91	89
183.535071824	144	31	87
183.575359403	128	100	64
183.578468753	144	73	69
183.580936748	128	103	64
183.584038042	128	91	64
183.590757324	128	31	64
183.593395235	144	91	99
183.612456681	144	31	58
183.615822661	128	73	64
183.636444803	128	91	64
183.636507915	144	91	94
183.653396083	144	73	103
183.687671807	144	103	18
183.691209999	128	31	64
183.710727867	144	31	89
183.72974762	128	73	64
183.731886552	144	73	63
183.732214401	144	100	47
183.73554171	128	91	64
183.739062681	144	91	65
183.791163957	128	31	64
183.800615168	128	103	64
183.80872164	128	73	64
183.810828886	144	31	55
183.810997147	128	100	64
183.817446765	128	91	64
183.839611773	144	106	42
183.841138141	144	91	102
183.859821269	128	106	64
183.866800927	144	73	95
183.874197701	128	31	64
183.879987399	144	103	25
183.90311451	128	91	64
183.903179703	144	91	100
183.912325378	144	31	83
183.928087385	128	73	64
183.932326618	144	73	64
183.932579043	128	103	64
183.936455881	144	100	48
183.965251283	144	103	8
183.974160581	128	31	64
183.994155021	144	31	55
184.009652109	128	73	64
184.018173913	128	91	64
184.024956471	144	91	96
184.027498524	128	100	64
184.032320761	128	103	64
184.037517312	128	91	64
184.037563151	144	91	70
184.040145874	128	31	64
184.046791179	144	73	94
184.072298692	144	103	16
184.094584109	144	31	83
184.127722747	128	73	64
184.1326945	144	73	65
184.133519669	128	103	64
184.151404958	128	91	64
184.157445375	128	31	64
184.158539582	144	103	5
184.176358171	144	31	54
184.195140991	144	91	111
184.21653325	128	103	64
184.223835718	128	91	64
184.223889235	144	91	120
184.224474405	128	31	64
184.260323244	144	103	25
184.277937015	144	31	84
184.278179075	128	73	64
184.298966733	128	103	64
184.321830616	128	91	64
184.326060716	144	91	85
184.340776662	128	31	64
184.341144086	144	103	20
184.351469066	128	91	64
184.36007137000001	144	31	57
184.383304116	128	103	64
184.407491272	128	31	64
184.446957211	144	103	37
184.461087218	144	31	85
184.472982936	144	106	43
184.481691706	128	103	64
184.507518629	128	31	64
184.509265607	144	103	29
184.513513372	128	106	64
184.527864075	144	31	60
184.550498688	128	103	64
184.573984383	128	31	64
184.60574837	144	103	50
184.626506831	144	31	81
184.64811697	128	103	64
184.673894654	128	31	64
184.689505237	144	103	45
184.693297353	144	31	59
184.732357469	128	103	64
184.740143622	128	31	64
184.761304577	144	103	66
184.793146147	144	31	81
184.819389075	128	103	64
184.840169636	128	31	64
184.844509152	144	73	103
184.850824649	144	103	65
184.85802339	144	91	95
184.86212587	144	31	50
184.873297883	128	91	64
184.895617637	128	73	64
184.902283556	128	103	64
184.906898024	128	31	64
184.927571268	144	91	68
184.946015354	144	103	89
184.95086057	144	73	58
184.952765117	128	91	64
184.959802638	144	31	76
184.982370535	128	103	64
185.006671083	144	103	82
185.009515933	128	73	64
185.011406445	128	31	64
185.011463502	144	31	52
185.026112893	144	91	79
185.046323517	144	26	122
185.047732899	144	73	96
185.05059575	128	103	64
185.054778744	128	91	64
185.066250413	128	26	64
185.076393988	144	106	45
185.087596421	144	103	100
185.097819653	144	35	87
185.106922449	128	31	64
185.111659144	144	91	62
185.126336437	128	73	64
185.128038489	128	106	64
185.147163601	144	73	48
185.148720868	128	103	64
185.170363522	128	91	64
185.174186892	144	103	96
185.191578221	144	91	79
185.208920729	128	91	64
185.209446578	128	73	64
185.234965767	128	103	64
185.254506621	144	91	64
185.258236369	144	103	116
185.296666408	144	73	93
185.301800544	128	91	64
185.315485564	128	103	64
185.339167998	144	91	75
185.341356906	144	103	115
185.352879066	144	31	76
185.385928067	128	91	64
185.388888708	128	103	64
185.394301706	128	31	64
185.394372915	144	31	58
185.427386809	144	103	124
185.439339037	144	91	63
185.440402624	128	73	64
185.441446772	144	100	41
185.468846754	128	91	64
185.47122081	128	103	64
185.491999467	128	31	64
185.494476766	128	100	64
185.504407644	144	103	126
185.522306777	144	91	78
185.531915503	144	31	77
185.550623146	128	103	64
185.569234599	128	91	64
185.606870417	144	91	62
185.608463388	144	103	127
185.609557322	128	31	64
185.620998066	144	31	55
185.64449183	128	103	64
185.668357857	144	100	44
185.669116671	128	91	64
185.673782585	144	103	127
185.675109422	128	31	64
185.689032778	144	91	87
185.705036806	128	103	64
185.713166421	144	31	76
185.740638759	144	106	42
185.744616347	128	100	64
185.752003355	128	91	64
185.756384829	144	103	127
185.761983685	128	106	64
185.774532378	128	31	64
185.782211022	144	31	58
185.803149911	128	103	64
185.808004028	144	91	61
185.824305785	144	103	127
185.835592095	128	91	64
185.84073413	128	31	64
185.871800426	128	103	64
185.890966083	144	91	80
185.894548473	144	31	83
185.904167256	144	103	127
185.925096288	128	31	64
185.930434059	144	26	20
185.93606435	128	91	64
185.945161215	144	31	64
185.956225239	144	91	57
185.966511687	128	103	64
185.992562107	144	73	66
186.004031016	144	103	127
186.005952354	144	100	33
186.007694448	128	31	64
186.018724065	128	91	64
186.046846958	144	31	87
186.050337838	128	103	64
186.079409015	128	73	64
186.091209562	144	91	74
186.095228818	144	103	127
186.097630157	128	100	64
186.107901332	128	31	64
186.117686001	144	31	65
186.134269162	128	103	64
186.176244984	144	103	122
186.190622182	128	31	64
186.203408586	128	91	64
186.230859105	144	31	86
186.23609781	128	103	64
186.272243	144	103	127
186.29160805	128	31	64
186.300589744	144	31	64
186.316468825	128	103	64
186.337099548	144	100	45
186.341082455	144	106	44
186.353673096	144	91	58
186.357401363	128	31	64
186.367222504	144	103	104
186.378273829	128	100	64
186.379941701	128	106	64
186.401884858	128	91	64
186.409976963	144	31	87
186.415943007	128	103	64
186.439176829	144	91	82
186.473963189	128	31	64
186.47490149	144	103	91
186.48506072200001	128	91	64
186.516143052	128	103	64
186.5384132	144	91	64
186.574263454	144	103	60
186.585687658	128	91	64
186.614257378	128	103	64
186.623210019	144	91	88
186.658713125	144	100	59
186.668900159	128	91	64
186.706855793	144	91	66
186.709595717	128	100	64
186.718030506	144	103	43
186.72856699	144	31	64
186.752320163	128	91	64
186.755498559	128	103	64
186.758291569	128	31	64
186.773853461	144	103	25
186.805688123	144	91	86
186.819286034	128	91	64
186.835129238	128	103	64
186.856559162	144	91	67
186.919608884	128	91	64
186.920305046	144	103	9
186.957814621	144	100	83
186.989028458	144	91	83
186.99033198	144	106	39
186.994621701	128	26	64
187.001982799	128	103	64
187.002265728	128	91	64
187.005117073	128	100	64
187.026780637	144	26	56
187.029928443	128	106	64
187.056441333	144	91	69
187.067919973	144	31	82
187.074404642	144	103	10
187.103251277	128	91	64
187.118483041	128	26	64
187.124753014	128	31	64
187.132591398	128	103	64
187.156700602	144	91	85
187.186267358	128	91	64
187.234339457	144	103	15
187.242081086	144	91	62
187.275414167	144	31	56
187.286243888	128	91	64
187.301128616	128	103	64
187.307859307	144	100	94
187.340331493	144	91	83
187.341472997	128	31	64
187.379615636	128	100	64
187.386049098	128	91	64
187.40426677	144	103	24
187.439866453	144	91	57
187.469364201	128	103	64
187.485245191	144	31	79
187.485770448	128	91	64
187.524909732	144	91	85
187.543913736	128	31	64
187.543981279	144	31	60
187.569547596	128	91	64
187.57054448	144	103	35
187.608371045	144	106	42
187.623848123	144	100	113
187.634001506	128	103	64
187.63936925	144	91	63
187.642013851	128	31	64
187.64682548	128	106	64
187.662720272	144	31	88
187.671471473	128	91	64
187.710423887	144	91	82
187.722220099	128	100	64
187.736792204	144	103	46
187.759648166	128	31	64
187.771524659	144	31	66
187.771689242	128	91	64
187.803989918	128	103	64
187.841688636	128	31	64
187.85819446	144	91	60
187.870740333	128	91	64
187.890232784	144	103	55
187.897833147	144	31	91
187.925860644	144	91	79
187.949253481	128	103	64
187.969986629	128	91	64
187.974275173	144	100	93
187.996506287	144	26	43
188.009390064	128	31	64
188.010741434	144	91	57
188.033343942	144	31	68
188.039997501	144	103	69
188.055939719	128	91	64
188.092047417	128	31	64
188.098455604	128	103	64
188.098892086	128	100	64
188.123513254	144	91	79
188.136241241	128	91	64
188.188714652	144	103	85
188.190387881	144	91	62
188.223897878	144	106	44
188.236981705	128	91	64
188.248680001	128	103	64
188.26321295	128	106	64
188.273802114	144	100	60
188.275390279	144	91	89
188.321821404	128	91	64
188.340418643	144	103	99
188.361678945	128	100	64
188.365979298	144	31	87
188.373564702	144	91	64
188.3845342	128	103	64
188.392470878	128	31	64
188.407302997	128	35	64
188.41995216	128	91	64
188.42906108	144	73	102
188.473754208	144	91	92
188.495692146	128	73	64
188.496130682	144	103	115
188.504290154	128	91	64
188.532685483	128	103	64
188.539793836	144	91	74
188.604813593	128	91	64
188.607761706	144	100	42
188.624675858	144	103	126
188.641093956	144	31	54
188.666900353	128	103	64
188.675270722	128	31	64
188.699737936	128	100	64
188.707884114	144	91	112
188.712373574	144	73	101
188.725551999	128	91	64
188.725647692	144	91	85
188.741578314	144	103	127
188.787304337	128	91	64
188.787890349	128	103	64
188.812610438	128	73	64
188.873089036	144	106	46
188.876561431	144	103	127
188.877047234	144	31	77
188.907895603	128	31	64
188.911224386	144	31	58
188.919202857	128	103	64
188.928389441	128	106	64
188.971176213	144	91	111
188.992037314	128	31	64
189.008323674	144	103	127
189.02391206	128	91	64
189.029140631	144	31	84
189.049775858	128	103	64
189.061227164	144	100	27
189.11081207	128	100	64
189.131812925	128	31	64
189.131874751	144	31	59
189.159098317	144	103	124
189.178684674	144	73	102
189.217908511	128	103	64
189.219329104	144	46	79
189.225104253	128	31	64
189.228713908	128	73	64
189.25940009	128	46	64
189.267596066	144	31	86
189.287188902	144	103	99
189.298867922	144	73	102
189.348659806	128	103	64
189.411516315	144	91	120
189.422429783	128	31	64
189.422502873	144	31	68
189.423959506	144	103	79
189.42711521	128	91	64
189.443310671	128	73	64
189.469301383	144	91	37
189.484757253	128	103	64
189.505029688	128	91	64
189.506976023	144	106	48
189.509337535	128	31	64
189.524576078	144	100	29
189.546924386	144	31	92
189.554332781	144	91	127
189.555399758	144	103	67
189.561490028	128	106	64
189.564100394	128	91	64
189.577895408	128	100	64
189.629077935	128	103	64
189.641311778	144	91	24
189.643818617	128	31	64
189.645026496	144	73	104
189.655949232	128	91	64
189.655990158	144	91	127
189.657378453	144	31	67
189.706183558	144	103	56
189.740458985	128	91	64
189.741802424	128	31	64
189.759361689	144	91	127
189.779262932	128	103	64
189.780484651	144	31	90
189.789564771	128	73	64
189.790107437	128	91	64
189.826025427	144	91	22
189.860787487	144	103	45
189.876210755	128	31	64
189.887056025	128	91	64
189.887610206	144	31	64
189.916978258	128	103	64
189.99652033	144	91	127
190.020086149	144	103	35
190.030967489	128	31	64
190.048504375	144	31	91
190.070053456	128	103	64
190.072916466	128	91	64
190.081389792	144	91	39
190.111064858	144	73	103
190.122824131	144	106	47
190.138803703	128	91	64
190.146494202	144	91	127
190.160246741	128	73	64
190.163201406	128	106	64
190.17119626	144	103	25
190.177632689	128	35	64
190.189314569	128	91	64
190.198759908	128	31	64
190.199018392	144	31	66
190.210494465	144	91	124
190.211271844	128	91	64
190.211325999	144	91	24
190.22877348	128	103	64
190.237756087	144	73	100
190.265171282	144	46	79
190.291871281	128	31	64
190.309375451	128	91	64
190.309429681	144	91	35
190.314741703	144	31	92
190.316677962	128	46	64
190.324352376	144	103	17
190.327022979	128	73	64
190.357246693	128	91	64
190.357302279	144	91	127
190.380756562	128	103	64
190.390876378	144	100	51
190.427148453	128	100	64
190.455143596	144	103	10
190.455263111	128	91	64
190.465555157	144	91	31
190.468116434	128	31	64
190.468301031	144	31	63
190.50118759	128	103	64
190.50752715	128	91	64
190.507602666	144	91	126
190.558850489	128	31	64
190.559888301	144	100	54
190.562571104	144	73	106
190.572679218	128	91	64
190.572746606	144	91	35
190.585844574	144	103	6
190.593508822	128	100	64
190.598482433	144	31	90
190.621675896	128	91	64
190.643062285	144	91	126
190.652481007	128	103	64
190.662523526	128	73	64
190.688335002	128	91	64
190.689883991	144	100	55
190.707583356	144	91	25
190.707829135	144	106	42
190.741720126	128	31	64
190.741781167	144	31	57
190.746653894	128	106	64
190.770170353	144	103	3
190.771535664	128	91	64
190.776905231	128	100	64
190.777386483	144	91	126
190.817784018	144	100	55
190.837950919	128	91	64
190.838149067	128	103	64
190.858370747	144	91	23
190.87318255	128	91	64
190.873260488	144	91	127
190.885190742	128	31	64
190.894796543	128	100	64
190.895464278	144	31	84
190.925353596	144	103	5
190.964158772	144	100	58
190.998276725	128	103	64
191.004961115	128	91	64
191.011649069	144	73	102
191.04632662	144	91	127
191.048012827	128	100	64
191.054659648	128	31	64
191.054710269	144	31	55
191.073086123	144	103	10
191.095001028	128	91	64
191.112635803	128	73	64
191.114087852	144	100	63
191.123687285	144	91	127
191.126545013	128	31	64
191.148667487	128	103	64
191.165479265	144	31	82
191.178182626	128	100	64
191.233900647	144	46	76
191.239390176	144	103	13
191.248012764	144	100	64
191.259426423	128	91	64
191.259463135	144	91	25
191.26616419	128	46	64
191.273659856	144	106	46
191.309525817	128	31	64
191.309587277	144	31	52
191.313822867	128	106	64
191.32136305	128	103	64
191.348423949	128	100	64
191.35606742	128	91	64
191.381375469	144	103	16
191.39178946	128	31	64
191.41176238	144	91	20
191.416376707	144	100	65
191.439748774	128	91	64
191.460631709	144	91	127
191.471781889	128	103	64
191.482652247	144	31	58
191.493981344	128	100	64
191.505799202	128	91	64
191.544572749	144	91	19
191.549691261	144	100	67
191.570420763	144	103	25
191.590984189	128	91	64
191.608174226	144	91	127
191.611171968	128	100	64
191.626321928	128	31	64
191.631946375	128	103	64
191.655794387	128	91	64
191.680770009	144	100	67
191.707970819	144	91	21
191.73635218	144	103	31
191.743009405	128	100	64
191.755601495	128	91	64
191.774436153	144	91	127
191.799740332	144	100	67
191.800202799	128	103	64
191.838299176	128	91	64
191.856316973	144	106	46
191.859217354	144	91	20
191.877357164	128	100	64
191.887261554	144	103	41
191.896750695	128	106	64
191.93821921400001	128	91	64
191.947585678	144	100	67
191.959387834	144	91	119
191.972287813	128	103	64
192.005622221	128	91	64
192.025330175	144	91	24
192.027672005	128	100	64
192.074326322	144	103	52
192.088260618	128	91	64
192.097656722	144	100	67
192.109525518	128	26	64
192.126612896	144	91	112
192.133263953	128	103	64
192.144226394	128	100	64
192.155333286	128	91	64
192.189297494	144	26	93
192.210875951	144	91	27
192.224540163	144	103	65
192.228336446	144	100	66
192.232755545	128	26	64
192.238768359	128	91	64
192.25892477	144	91	124
192.29230229	128	100	64
192.298891043	128	103	64
192.305963995	128	91	64
192.359999328	144	91	26
192.361889394	144	100	65
192.389191496	128	91	64
192.390094467	144	103	84
192.39519696	144	73	107
192.408849401	144	91	125
192.436844332	144	31	30
192.443634039	128	100	64
192.455970786	128	91	64
192.457201449	144	106	47
192.468048919	128	103	64
192.475905276	128	31	64
192.476116038	144	31	43
192.494153733	144	91	22
192.49588142	128	73	64
192.496586921	128	106	64
192.514082827	144	100	65
192.525913623	128	91	64
192.52598853	144	91	127
192.539489758	144	103	97
192.560245551	128	31	64
192.580667365	144	31	42
192.593643346	128	100	64
192.617631667	128	103	64
192.639258543	128	91	64
192.659425928	128	31	64
192.664275703	144	100	65
192.667451544	144	31	53
192.679370881	144	91	125
192.706802854	128	91	64
192.714206604	144	26	81
192.725145228	128	31	64
192.72674181	144	103	113
192.730465831	144	73	105
192.745821896	144	91	27
192.7616419	128	100	64
192.76758257	128	26	64
192.78290665	128	103	64
192.790866606	128	91	64
192.810634069	144	91	127
192.815921067	144	100	64
192.846092094	128	73	64
192.856425379	128	91	64
192.873962164	144	103	124
192.894052197	128	100	64
192.935040916	128	103	64
192.96401563	144	100	63
192.977475661	144	91	127
193.006161859	128	91	64
193.026061472	144	103	127
193.027051416	144	91	28
193.074030491	144	106	47
193.076665863	128	100	64
193.082250546	128	103	64
193.0902412	128	91	64
193.113574422	128	106	64
193.131578239	144	91	126
193.133381666	144	100	64
193.161628516	144	73	107
193.1738648	128	91	64
193.193771415	144	91	22
193.202561349	144	103	127
193.210709997	128	73	64
193.234444209	128	103	64
193.239906914	128	91	64
193.243547321	128	100	64
193.245835681	144	91	127
193.286487942	144	100	64
193.300514674	144	73	106
193.32215827	128	91	64
193.352180109	144	103	127
193.3613356	144	91	15
193.377388219	128	100	64
193.397589483	128	103	64
193.405987467	128	91	64
193.425505033	144	91	125
193.43500662	144	31	44
193.464410012	144	100	64
193.469580545	128	73	64
193.48179959	128	31	64
193.481979112	144	31	44
193.48883977	128	91	64
193.52890812	128	100	64
193.544685096	144	91	19
193.553439589	144	103	96
193.582893651	128	91	64
193.583177922	144	100	65
193.583310581	128	103	64
193.599363077	144	91	127
193.626430373	128	31	64
193.626936341	144	31	46
193.640025948	128	91	64
193.656277546	144	73	104
193.660799187	128	100	64
193.676020655	144	106	45
193.677907111	144	91	34
193.689883414	144	103	81
193.691710824	128	31	64
193.691753098	144	31	49
193.713303724	128	106	64
193.731655018	128	103	64
193.739647207	128	91	64
193.758910185	144	91	127
193.759959969	128	31	64
193.7691467	144	31	52
193.803563994	128	73	64
193.80594786	128	91	64
193.825999242	128	31	64
193.8432085	144	91	26
193.871576952	144	103	62
193.889718729	128	91	64
193.890921693	144	100	65
193.896318564	144	91	127
193.928840998	128	103	64
193.955642862	128	91	64
193.959819001	128	100	64
194.024127582	144	103	50
194.024937456	144	91	27
194.047120852	144	26	61
194.073129078	128	91	64
194.102861732	128	103	64
194.109438498	144	91	119
194.14422877	144	73	107
194.156155001	128	91	64
194.189083162	144	103	43
194.194219279	144	91	34
194.196177774	128	73	64
194.240170043	144	106	48
194.240528193	128	91	64
194.24461663	144	91	127
194.249704322	128	103	64
194.291365565	144	73	107
194.295843553	128	106	64
194.322161109	128	91	64
194.334687801	144	31	71
194.361638547	128	31	64
194.361681807	144	31	71
194.371684451	144	103	38
194.378080863	144	91	38
194.423930429	128	91	64
194.429072429	128	103	64
194.442752294	144	91	127
194.453080864	128	73	64
194.50563474	128	31	64
194.505712698	144	31	86
194.506599639	128	91	64
194.545878339	144	91	30
194.549557003	144	103	25
194.55955347	128	31	64
194.568452831	144	31	78
194.606047441	128	91	64
194.619600111	128	103	64
194.643310415	128	31	64
194.644837247	144	73	108
194.651036056	144	31	89
194.725091431	128	31	64
194.726158729	144	91	35
194.738140647	144	103	19
194.77384955	128	91	64
194.789770812	128	73	64
194.797734076	128	103	64
194.839497419	144	106	45
194.880052988	128	106	64
194.895093578	144	91	34
194.919673604	144	103	16
194.941817608	128	91	64
194.961299019	144	91	123
195.004693995	128	103	64
195.007291019	128	91	64
195.077744618	144	91	37
195.080459161	128	91	64
195.080541498	144	91	127
195.10404224	144	103	18
195.123640444	128	91	64
195.165964551	128	103	64
195.284654074	144	103	23
195.285475349	144	31	81
195.312903937	128	31	64
195.324595239	144	100	33
195.354379026	128	103	64
195.363990339	128	100	64
195.458084321	144	103	30
195.494870008	144	106	46
195.517469044	128	103	64
195.530290885	128	106	64
195.61355932	144	91	100
195.620168561	144	103	38
195.643999356	128	91	64
195.664293423	128	103	64
195.734472365	144	91	112
195.7606846	128	91	64
195.767759642	144	103	48
195.779199859	144	91	110
195.814978652	128	103	64
195.821492622	144	31	79
195.821775912	128	31	64
195.85818788	128	91	64
195.87944221	144	91	127
195.885722274	144	31	80
195.916872244	144	103	59
195.925073199	128	91	64
195.941776741	128	31	64
195.962349512	144	91	114
195.964840423	128	103	64
196.024650389	128	91	64
196.030447331	144	91	127
196.069128613	144	103	73
196.090386025	128	91	64
196.115846939	128	103	64
196.129330804	144	91	121
196.157746382	144	106	47
196.158124145	144	100	39
196.161493436	128	26	64
196.178817432	128	91	64
196.17888606	144	91	127
196.196795883	128	106	64
196.20972341	144	31	84
196.211318586	128	100	64
196.217178677	144	103	88
196.239634071	144	26	78
196.242439562	128	31	64
196.256819938	128	91	64
196.264091162	128	103	64
196.287223959	128	26	64
196.343571932	144	91	122
196.356474819	144	103	97
196.358620309	128	91	64
196.362694928	144	73	107
196.417341558	128	103	64
196.476560126	144	91	122
196.486621942	144	103	105
196.507514011	128	73	64
196.526442335	144	100	68
196.541015909	128	91	64
196.551672271	128	103	64
196.56123096	144	91	124
196.632965926	128	100	64
196.651064838	144	103	116
196.657531456	128	91	64
196.663749124	144	91	120
196.691269966	144	31	67
196.697143598	128	103	64
196.712363688	144	73	107
196.724067396	128	91	64
196.727929901	128	31	64
196.778688194	144	91	125
196.778904615	144	103	121
196.791200094	144	106	46
196.797564516	144	31	67
196.824297579	128	91	64
196.833045343	128	103	64
196.845023572	128	106	64
196.856941478	128	73	64
196.859837201	128	31	64
196.863946432	144	91	120
196.908760777	128	91	64
196.923360576	144	103	127
196.972350089	128	103	64
196.974697814	144	100	66
197.014360369	144	26	89
197.045830679	144	91	121
197.068177123	128	26	64
197.068858277	144	103	127
197.07561464	128	91	64
197.082600965	128	100	64
197.116393812	128	103	64
197.119962355	144	91	127
197.147455978	144	31	57
197.158135901	128	91	64
197.193069387	128	31	64
197.212105236	144	73	104
197.220219338	144	103	123
197.228297596	144	91	118
197.262580187	128	73	64
197.262903077	128	103	64
197.276211733	128	91	64
197.355021333	144	73	106
197.355406268	144	103	114
197.389790638	144	106	48
197.391738995	144	100	63
197.405667821	128	103	64
197.443757374	128	100	64
197.445497332	128	106	64
197.496616857	128	73	64
197.501544424	144	103	110
197.548015894	128	103	64
197.635044951	144	103	102
197.672144515	144	31	59
197.683130911	128	103	64
197.712724788	128	31	64
197.730877373	144	31	55
197.74139174	144	100	66
197.745386403	144	73	108
197.786729866	144	103	95
197.794674347	128	100	64
197.83068462	128	103	64
197.887065348	128	31	64
197.887338589	144	31	62
197.918971458	128	73	64
197.926101386	128	31	64
197.933052446	144	103	85
197.980513006	128	103	64
198.025906142	144	100	72
198.030578082	144	31	52
198.040207671	144	106	48
198.080220569	128	106	64
198.08371712	144	103	77
198.115669327	128	103	64
198.116773848	128	100	64
198.126123298	128	31	64
198.219337863	144	103	70
198.24658115	144	73	107
198.249507159	128	103	64
198.296193277	128	73	64
198.341761277	144	100	76
198.35234909	144	103	65
198.388331868	144	73	101
198.397302827	128	103	64
198.410381873	128	100	64
198.426264151	144	31	49
198.459540337	128	31	64
198.499217401	144	103	60
198.533916897	128	103	64
198.568780062	128	73	64
198.624538995	144	31	49
198.629434224	144	106	48
198.639803378	144	103	56
198.654331682	144	100	50
198.659959871	128	91	64
198.676264536	128	31	64
198.67854119	128	106	64
198.681927387	128	103	64
198.697158817	144	31	49
198.722341412	144	73	105
198.746343399	128	100	64
198.753159878	144	103	52
198.776068116	128	31	64
198.784461166	144	31	55
198.815749394	128	103	64
198.876155227	128	31	64
198.89956318	144	46	70
198.901269229	128	73	64
198.901763039	144	103	47
198.964890655	128	46	64
199.024665103	144	31	57
199.041767835	144	100	33
199.076475681	128	31	64
199.133368926	128	100	64
199.257049067	144	106	48
199.311737998	128	106	64
199.325051626	144	100	11
199.367134926	144	31	56
199.395065541	128	100	64
199.41012022	128	31	64
199.436799978	128	103	64
199.445687538	144	39	78
199.498806881	144	26	127
199.509359175	144	103	35
199.551601518	128	26	64
199.564391407	128	103	64
199.569526631	144	100	12
199.665503545	128	100	64
199.666890856	144	31	55
199.682210195	144	103	31
199.744559819	128	31	64
199.747853966	128	103	64
199.855204043	144	103	27
199.858873578	144	100	39
199.900409216	128	103	64
199.908009556	144	106	49
199.930001555	128	106	64
199.948225417	128	100	64
199.988354459	144	103	22
200.061626411	128	103	64
200.084715221	144	31	56
200.126014208	144	100	63
200.126832797	128	31	64
200.199385119	144	103	20
200.233319918	128	100	64
200.287138896	128	103	64
200.356781151	144	103	21
200.42600374	144	100	86
200.430106395	128	103	64
200.434652138	144	31	64
200.513966995	128	100	64
200.520260281	144	103	22
200.540035657	144	106	45
200.579849289	128	103	64
200.580137299	128	106	64
200.718768529	144	103	26
200.74206958	144	100	100
200.74526369	144	73	105
200.787523623	128	103	64
200.853571042	128	100	64
200.903630356	128	31	64
200.904877869	128	73	64
200.939390549	144	103	29
201.019467941	128	103	64
201.107134215	144	103	29
201.113511995	144	73	105
201.12584868	144	100	113
201.129636594	144	26	112
201.144799171	144	106	49
201.180161756	128	106	64
201.198943165	128	103	64
201.216274207	128	26	64
201.239950632	128	100	64
201.271122991	128	73	64
201.292553096	144	103	30
201.363478462	128	103	64
201.45945443	144	103	33
201.473107108	144	100	83
201.534389608	128	103	64
201.545534255	128	100	64
201.594700893	144	73	108
201.639226175	144	103	35
201.644573909	128	73	64
201.70729647	144	106	51
201.713699264	128	103	64
201.717230869	144	73	109
201.742504053	144	100	76
201.761781713	128	106	64
201.826821945	144	103	35
201.832220971	128	100	64
201.883952303	128	103	64
201.88790006	128	73	64
202.001855216	144	103	36
202.021711505	144	100	68
202.073235477	128	103	64
202.079551206	144	73	107
202.112458024	128	100	64
202.112690339	144	31	79
202.174810472	144	103	38
202.230370505	128	103	64
202.237232558	128	73	64
202.316744321	144	100	93
202.334739743	144	103	37
202.339087943	144	106	50
202.38014337	128	106	64
202.393887523	128	100	64
202.396172808	128	103	64
202.516660799	144	103	37
202.537094409	128	31	64
202.563713133	128	103	64
202.580776357	144	100	98
202.612428166	144	73	111
202.650990562	128	39	64
202.662960611	128	73	64
202.683644075	144	103	38
202.693756266	128	100	64
202.734160879	144	73	110
202.747654721	128	103	64
202.753600246	144	31	54
202.793548047	128	31	64
202.854715276	144	103	38
202.862261276	128	73	64
202.881015069	144	26	57
202.936858972	128	103	64
202.953229656	144	100	109
202.973679601	144	106	49
203.01100109	128	100	64
203.013381753	128	106	64
203.026686435	144	31	58
203.052697321	144	103	38
203.096409076	144	73	109
203.097267555	128	103	64
203.218480952	144	103	38
203.239953207	128	73	64
203.285633128	128	103	64
203.292192758	144	100	75
203.337681361	128	31	64
203.361926864	128	100	64
203.426121045	144	103	38
203.479481184	128	103	64
203.573758643	144	106	50
203.60063353	144	103	38
203.626193986	144	100	64
203.628148727	128	106	64
203.681836832	128	103	64
203.71083484	128	100	64
203.786715123	144	103	38
203.896871428	128	103	64
203.915717136	144	100	79
203.989129292	144	103	38
204.01302055	128	100	64
204.063001946	128	103	64
204.153402135	144	103	38
204.223894811	144	106	49
204.235105422	128	103	64
204.278335396	128	106	64
204.326514861	144	100	76
204.35253649	144	103	38
204.413160262	128	103	64
204.416998528	128	100	64
204.424014943	128	39	64
204.534092967	144	103	38
204.603711172	128	103	64
204.691086688	144	31	76
204.712888304	128	31	64
204.719448789	144	103	38
204.758736621	144	100	76
204.778965273	128	103	64
204.84812255	128	100	64
204.88469095	144	103	38
204.890471043	144	106	47
204.892577787	144	31	77
204.945600653	128	106	64
204.964346654	128	103	64
204.974226594	128	31	64
204.974299721	144	31	70
205.068506769	144	103	38
205.120017591	128	31	64
205.128759496	128	103	64
205.15297091	144	100	78
205.232923257	144	103	39
205.267225486	128	100	64
205.29579969	128	103	64
205.353290315	144	31	65
205.360499465	128	31	64
205.416376172	144	103	39
205.480731927	128	103	64
205.538795858	144	106	49
205.559238677	144	100	78
205.580131778	128	106	64
205.616138401	144	103	40
205.661803381	128	103	64
205.666219363	128	100	64
205.686910588	144	31	66
205.693781024	128	31	64
205.801915095	144	103	40
205.845690266	128	103	64
205.974464466	144	100	79
205.982301575	144	103	40
206.016111377	144	31	71
206.027365207	128	31	64
206.029430726	128	103	64
206.117527221	128	100	64
206.148301997	144	103	40
206.158548461	144	106	50
206.192716462	144	31	68
206.195695376	128	103	64
206.196676948	128	106	64
206.227072414	128	31	64
206.304863913	144	52	24
206.317465598	144	103	40
206.326899553	144	100	83
206.372302955	144	31	69
206.372457778	128	31	64
206.380712926	128	103	64
206.400526363	144	31	73
206.416406973	128	100	64
206.443458326	128	31	64
206.48680975	144	103	41
206.545554882	128	103	64
206.681395766	144	103	40
206.69621657	144	31	72
206.709232519	144	100	88
206.727086547	128	31	64
206.729364282	128	103	64
206.763391015	128	100	64
206.808084977	144	106	50
206.831170729	144	103	41
206.847462143	128	106	64
206.901105648	128	103	64
206.934594716	128	52	64
207.004596913	144	103	41
207.021283158	144	31	74
207.021432615	128	31	64
207.063200833	128	103	64
207.143174012	144	100	91
207.168424805	144	103	42
207.22888078	128	103	64
207.353508415	144	31	71
207.380055104	128	31	64
207.45554391	144	106	50
207.491623203	144	103	42
207.513939217	128	106	64
207.535912052	128	103	64
207.559517183	144	31	70
207.593553098	128	31	64
207.633645509	144	103	42
207.67482094	144	52	1
207.676094379	128	52	64
207.682097122	144	31	70
207.696882945	128	103	64
207.802658583	144	103	42
207.853807355	128	31	64
207.862394733	128	103	64
207.983836116	144	103	43
208.03644207	144	31	71
208.053210489	128	103	64
208.072862449	144	106	49
208.093537899	128	31	64
208.128879942	128	106	64
208.14680533	144	103	43
208.2156027	128	103	64
208.305150385	144	52	61
208.315669274	128	52	64
208.33965201	144	52	61
208.339831319	128	52	64
208.342006219	144	103	44
208.350153469	128	100	64
208.382513449	128	103	64
208.387784394	144	31	66
208.394265272	128	31	64
208.497892707	144	103	44
208.568271477	128	103	64
208.684681796	144	103	44
208.686518322	144	31	67
208.710199819	128	31	64
208.729112061	128	103	64
208.73777622	144	106	51
208.752776492	144	52	61
208.756709997	128	52	64
208.762845083	128	106	64
208.810317422	144	100	127
208.85117497	144	103	44
208.877275805	144	31	61
208.884590804	128	100	64
208.914295281	128	103	64
208.927697734	128	31	64
209.018932811	144	31	59
209.020027899	144	52	61
209.021956312	128	52	64
209.035531831	144	103	44
209.102481126	128	103	64
209.196833286	144	103	44
209.203099158	128	31	64
209.263379662	128	103	64
209.328710905	144	52	61
209.362324459	128	52	64
209.369637065	144	103	45
209.407488214	144	106	52
209.408781102	144	31	61
209.428314494	128	103	64
209.428482611	128	106	64
209.429920897	128	31	64
209.530794215	144	103	46
209.602528259	128	103	64
209.626026594	144	100	6
209.654051039	144	36	62
209.695948881	128	100	64
209.713911103	128	36	64
209.71770706	144	31	64
209.718609772	144	103	47
209.74374241	128	31	64
209.779285156	128	103	64
209.883184877	144	103	47
209.924881111	144	52	60
209.934839241	128	52	64
209.935242047	144	52	60
209.935700979	128	52	64
209.946620934	128	103	64
209.976459708	144	100	11
209.998635705	144	31	64
210.027303639	128	31	64
210.045712127	128	100	64
210.074450697	144	106	49
210.083226656	144	103	48
210.114753125	128	106	64
210.118485779	144	31	60
210.128626491	128	103	64
210.137613769	144	36	72
210.159447586	144	100	17
210.161245236	128	31	64
210.201199598	128	36	64
210.25085586	128	100	64
210.266943301	144	103	48
210.311024304	128	103	64
210.316727375	144	100	19
210.320592413	144	31	68
210.343390427	128	31	64
210.414463491	144	31	65
210.416536162	128	100	64
210.434642627	144	103	48
210.459909026	128	31	64
210.469884446	144	36	77
210.483084582	144	100	27
210.502001164	128	103	64
210.517198603	128	36	64
210.599837876	128	100	64
210.604275667	144	103	48
210.653942448	144	100	32
210.662355484	128	103	64
210.70669153	144	106	52
210.716848707	144	31	67
210.728710805	128	31	64
210.749853418	128	100	64
210.762236065	128	106	64
210.789329942	144	103	49
210.820253299	144	100	37
210.829385499	128	103	64
210.902989298	144	36	66
210.917023964	128	100	64
210.950601182	128	36	64
210.9643067	144	103	49
210.9830932	144	100	43
210.998606116	144	31	66
211.011089063	128	103	64
211.027530525	128	31	64
211.096155946	128	100	64
211.131972361	144	103	49
211.13661568	144	100	43
211.202254481	128	103	64
211.214622088	128	100	64
211.260832905	144	52	61
211.262609427	128	52	64
211.262820719	144	52	63
211.262954067	128	52	64
211.281153753	144	100	51
211.294533338	144	36	65
211.32497765	144	103	49
211.337302216	144	31	65
211.338039462	128	36	64
211.362030643	128	31	64
211.37901262	128	103	64
211.383545221	128	100	64
211.390074282	144	106	52
211.413106797	144	73	97
211.4295251	144	36	56
211.43029835	128	106	64
211.450597867	144	100	59
211.482646258	144	103	50
211.483950767	128	36	64
211.514271292	128	73	64
211.54988567	128	100	64
211.552311991	128	103	64
211.637139724	144	100	65
211.648872685	144	31	67
211.672695213	144	103	50
211.679700292	128	100	64
211.694419634	128	31	64
211.731676242	128	103	64
211.782925294	144	100	71
211.846774719	128	100	64
211.847038159	144	103	51
211.894457963	128	103	64
211.923984927	144	36	70
211.933252827	144	100	76
211.946192981	128	36	64
211.952580731	144	36	64
211.96799661	128	36	64
211.989999144	144	106	52
211.997056332	128	100	64
212.011642719	144	73	88
212.017968884	144	103	52
212.030155493	128	106	64
212.083700956	144	100	80
212.084734999	128	103	64
212.098103771	128	73	64
212.119101927	144	31	62
212.162709827	128	100	64
212.163179177	128	31	64
212.201523154	144	103	52
212.261641833	128	103	64
212.266008383	144	100	90
212.345199511	128	100	64
212.362394912	144	36	56
212.381174569	144	103	53
212.417070261	144	100	90
212.419551496	128	36	64
212.42745787	128	103	64
212.464121704	128	100	64
212.496372474	144	36	47
212.518683389	144	31	62
212.550211679	128	36	64
212.561327201	128	31	64
212.56641605	144	100	78
212.568094233	144	103	53
212.606673294	144	36	49
212.612016647	128	103	64
212.645970675	128	100	64
212.668252187	128	36	64
212.67367411	144	106	54
212.7161326	144	103	54
212.728243374	128	106	64
212.73372249	144	100	70
212.784514548	128	103	64
212.812857402	128	100	64
212.883232514	144	100	65
212.893491675	128	26	64
212.922690705	144	103	54
212.963231457	128	103	64
212.973848843	144	26	112
212.979367475	128	100	64
212.981708346	144	52	54
212.982000888	128	52	64
212.986683725	144	31	58
213.003623484	128	26	64
213.029708319	128	31	64
213.070948182	144	36	56
213.082263011	144	103	55
213.082625716	144	100	61
213.103601836	128	36	64
213.148361729	128	100	64
213.151864369	128	103	64
213.198657986	144	100	58
213.271489904	144	103	56
213.279497448	128	100	64
213.326631998	144	106	56
213.330860227	128	103	64
213.341399613	144	52	54
213.341611977	128	52	64
213.363840721	128	106	64
213.384305249	144	100	52
213.448638554	144	103	59
213.46387963	144	26	101
213.464664598	128	100	64
213.484302339	128	26	64
213.48758393	144	36	57
213.487822353	144	31	60
213.494452067	128	103	64
213.515342776	128	31	64
213.526161004	128	36	64
213.53303867	144	100	51
213.629136906	128	100	64
213.629982088	144	36	57
213.633302749	144	103	63
213.668054703	144	46	57
213.676747331	128	103	64
213.685988558	128	36	64
213.69940801	144	100	47
213.754990083	144	36	59
213.763472895	128	100	64
213.798748866	144	103	68
213.818472249	128	36	64
213.832906017	144	100	47
213.868699634	128	103	64
213.872191914	144	31	63
213.878485138	128	100	64
213.895475015	128	31	64
213.898747321	144	52	55
213.898948385	128	52	64
213.950184103	144	100	42
213.973311065	144	106	56
214.00670589	144	103	70
214.028689706	128	106	64
214.046158569	128	100	64
214.049163579	128	103	64
214.063454085	144	73	77
214.117025426	144	100	39
214.14358521	144	31	73
214.161933507	144	52	54
214.16292176	128	52	64
214.164682362	144	103	72
214.167163615	144	52	54
214.167614827	128	52	64
214.177703054	128	31	64
214.186565689	128	73	64
214.191719755	144	36	114
214.213069827	128	100	64
214.22072481	128	36	64
214.235351456	128	103	64
214.25219449	144	100	35
214.334071222	144	103	72
214.360683245	144	31	65
214.412515802	128	31	64
214.413015736	128	103	64
214.52191433	144	103	74
214.534816005	128	100	64
214.58024176	128	103	64
214.596071076	144	36	127
214.627157558	144	100	27
214.644249635	144	106	57
214.652006818	128	36	64
214.65948716	144	52	54
214.659718847	128	52	64
214.678890498	128	106	64
214.679399132	128	100	64
214.68141185	144	26	64
214.699433612	144	103	75
214.722039316	144	36	126
214.750023951	144	100	27
214.754720078	144	31	66
214.762916426	128	103	64
214.806883411	128	36	64
214.812761238	128	31	64
214.846203932	128	100	64
214.864188986	144	73	78
214.867273027	144	103	76
214.935566301	128	103	64
214.937414519	144	100	26
214.948977223	144	52	54
214.949285909	128	52	64
214.94966598	128	73	64
215.018119753	128	100	64
215.034546687	144	103	78
215.094581749	128	103	64
215.104304582	144	100	29
215.154541108	144	31	66
215.183798828	128	100	64
215.190636642	144	36	127
215.200791483	144	103	80
215.206637366	144	52	53
215.206825861	128	52	64
215.220525413	128	36	64
215.261074901	128	103	64
215.270985037	144	100	34
215.319558786	128	46	64
215.346253727	128	100	64
215.365664081	144	103	81
215.410746459	128	103	64
215.437522653	144	100	37
215.440043098	128	31	64
215.496237591	144	73	81
215.516194931	144	52	54
215.529400088	144	103	83
215.534089271	128	100	64
215.564088543	128	73	64
215.585484888	144	100	37
215.589285299	144	36	127
215.598982869	128	103	64
215.621663604	128	36	64
215.667351343	144	46	56
215.68381167	128	100	64
215.700068057	144	103	85
215.705423926	144	31	57
215.712836396	144	36	127
215.744475794	128	103	64
215.787777917	144	100	46
215.788459411	128	36	64
215.788917029	128	46	64
215.863090914	128	100	64
215.86623282	144	103	87
215.887627637	128	31	64
215.911960108	128	103	64
215.919289915	144	100	46
215.925570817	144	106	56
215.963586906	128	106	64
216.014907481	128	100	64
216.01528162	144	103	90
216.070063723	144	100	46
216.084754219	128	103	64
216.095586995	144	46	55
216.143398175	128	46	64
216.166878732	128	100	64
216.182122924	144	103	95
216.19353094	144	31	64
216.204793608	128	52	64
216.231800006	128	103	64
216.233487905	144	100	54
216.244255988	128	31	64
216.281752151	144	73	80
216.327720334	144	31	62
216.333943808	128	100	64
216.35016214	144	103	98
216.380925635	128	73	64
216.386156391	144	100	57
216.394551146	128	103	64
216.498582077	144	103	102
216.500524374	128	100	64
216.543679852	128	103	64
216.552672532	144	100	51
216.638751313	128	31	64
216.650114483	128	100	64
216.665550466	144	103	106
216.711450667	128	103	64
216.717388287	144	100	42
216.757323657	144	36	124
216.799560645	144	103	113
216.805655606	128	36	64
216.83000268	128	100	64
216.841264462	144	106	55
216.861648883	128	103	64
216.870499464	144	100	38
216.875204193	144	36	120
216.880222881	128	106	64
216.967133285	128	100	64
216.973755057	128	36	64
216.980279056	144	103	125
216.983852344	144	52	54
216.984061768	128	52	64
216.984254145	144	52	102
216.984433445	128	52	64
217.027919487	128	103	64
217.031809329	144	73	83
217.033517958	144	100	26
217.130057564	144	103	127
217.131565097	128	73	64
217.133738526	128	100	64
217.172394964	144	52	120
217.186103299	144	100	23
217.201018707	128	103	64
217.219873104	144	31	55
217.264354165	128	31	64
217.2679034	128	100	64
217.301437102	144	103	127
217.340486951	128	52	64
217.340702782	144	52	127
217.340867972	128	52	64
217.341077037	144	52	127
217.341267676	128	52	64
217.344042507	128	103	64
217.354379102	144	100	17
217.369711518	144	31	54
217.380027033	144	36	114
217.427978812	128	31	64
217.438870118	128	36	64
217.44913051	144	103	127
217.516040837	144	31	54
217.517914547	128	103	64
217.584909715	128	100	64
217.594513972	128	31	64
217.613033297	144	52	119
217.61321422	128	52	64
217.615235279	144	103	127
217.677185148	144	100	11
217.68426042	128	103	64
217.68511732	144	52	114
217.685342258	128	52	64
217.732537183	144	73	80
217.748087954	128	100	64
217.779592358	128	73	64
217.784937527	144	103	127
217.843907066	144	100	7
217.844233449	128	103	64
217.861266495	144	36	119
217.887470609	144	46	40
217.889619008	128	36	64
217.906576423	128	46	64
217.913570082	128	100	64
217.9543419	144	31	56
217.96510372	144	103	127
217.984125218	144	36	115
217.986220386	144	100	7
218.0251404	128	103	64
218.052987205	128	36	64
218.084042738	128	100	64
218.13321699	144	103	127
218.171280344	144	100	21
218.177027791	128	103	64
218.240231706	144	52	120
218.240486888	128	52	64
218.250800796	144	96	103
218.254212441	128	31	64
218.263326043	128	100	64
218.298828134	144	103	127
218.302486696	128	96	64
218.305319671	144	46	40
218.332285405	128	46	64
218.339242131	144	73	79
218.344628437	128	103	64
218.355020304	144	100	38
218.432569927	128	73	64
218.446942945	144	96	102
218.448272589	144	103	127
218.451486642	128	100	64
218.467554551	128	96	64
218.467899844	144	36	118
218.507018338	128	36	64
218.507162175	128	103	64
218.519077297	144	31	52
218.533872904	144	100	44
218.562139687	128	31	64
218.598694594	144	103	127
218.617472777	128	100	64
218.622780008	144	96	102
218.644532314	128	103	64
218.650729107	128	96	64
218.661137213	144	46	39
218.704521264	144	100	56
218.706814125	144	31	52
218.728267879	128	31	64
218.762495801	128	100	64
218.764019585	144	103	127
218.764169697	128	46	64
218.799763202	144	31	53
218.800998888	144	96	102
218.81080167	144	46	41
218.811336357	128	103	64
218.822744904	128	96	64
218.854880529	144	100	69
218.87846299	128	31	64
218.887165918	128	46	64
218.896410223	128	100	64
218.914852476	144	103	126
218.949850391	144	100	77
218.956798137	144	46	42
218.967336306	144	96	102
218.97173203	144	36	114
218.976492566	128	103	64
218.98612665	128	96	64
218.988737387	128	36	64
219.022254409	144	31	54
219.028722067	128	100	64
219.033941243	144	73	79
219.042491225	128	46	64
219.045711596	144	36	114
219.048440417	128	73	64
219.067262502	144	103	124
219.1029258	144	46	41
219.104272867	128	36	64
219.128338853	128	103	64
219.135976645	144	100	89
219.136372692	144	96	102
219.139999998	128	46	64
219.151763503	128	96	64
219.197921815	128	100	64
219.248600338	144	103	122
219.267087072	144	100	100
219.293839927	128	103	64
219.300105621	144	96	102
219.313817236	144	73	79
219.319508443	128	96	64
219.339624834	128	31	64
219.34889752	128	73	64
219.362888347	128	100	64
219.395545931	144	103	119
219.43389861	144	100	110
219.440355629	144	46	38
219.453994202	144	52	126
219.465894125	128	103	64
219.477949034	128	52	64
219.483105433	144	96	102
219.484394064	128	96	64
219.523235362	128	46	64
219.529906021	128	100	64
219.564711208	144	36	112
219.571351341	144	31	46
219.572757489	144	103	118
219.595986686	128	31	64
219.600287768	144	100	115
219.612954908	128	36	64
219.628018513	128	103	64
219.633347858	144	96	102
219.650551289	144	31	42
219.653494909	128	96	64
219.664161073	144	73	80
219.679973287	128	73	64
219.713347807	128	100	64
219.727478131	128	31	64
219.73668558	144	103	117
219.761426884	144	96	103
219.780079362	128	103	64
219.794822156	144	46	39
219.806178141	144	52	114
219.806383203	144	100	112
219.816735631	128	96	64
219.861376902	128	46	64
219.874830466	144	31	48
219.879298353	128	31	64
219.881564775	144	103	113
219.912999832	128	100	64
219.943610122	128	103	64
219.952731288	144	31	49
219.961876265	144	96	103
220.004514151	128	96	64
220.015829553	144	46	39
220.022810502	144	100	66
220.028184936	128	31	64
220.062175727	128	46	64
220.065034342	144	103	110
220.097837454	128	100	64
220.109173409	144	96	103
220.110540465	128	103	64
220.154186939	144	36	111
220.161734555	144	46	41
220.166075072	128	96	64
220.172232781	144	31	48
220.191873334	128	36	64
220.205880181	144	100	60
220.214559239	144	103	106
220.224530909	128	46	64
220.263159599	128	31	64
220.279879363	128	100	64
220.283993905	128	103	64
220.31013275	144	96	102
220.354266426	128	96	64
220.383686679	144	100	54
220.401804957	144	103	104
220.4442686	144	36	109
220.445493155	128	103	64
220.463113132	128	100	64
220.498402177	144	96	102
220.502821765	128	36	64
220.507579984	128	96	64
220.535664025	144	31	52
220.550595529	144	100	48
220.557141354	144	46	41
220.563941728	144	103	102
220.610668397	128	46	64
220.611372718	128	103	64
220.645089534	144	36	99
220.653184201	144	96	102
220.663051056	128	100	64
220.668816263	128	96	64
220.703590884	128	36	64
220.728734665	144	103	100
220.77773626	128	103	64
220.789611656	144	100	62
220.813635058	144	96	103
220.850600207	128	96	64
220.862268585	144	36	106
220.862573544	128	100	64
220.881920998	144	46	40
220.897033399	144	103	98
220.920754045	128	36	64
220.943705302	128	103	64
220.951213747	144	100	74
220.953775393	128	46	64
220.989382497	128	31	64
220.996016213	144	96	102
221.015875574	128	96	64
221.046208008	144	103	93
221.046579858	128	100	64
221.060899334	144	46	40
221.091958406	128	46	64
221.098437835	144	36	112
221.11130656	128	103	64
221.119896128	128	106	64
221.133391063	144	100	79
221.140367336	128	36	64
221.158917346	144	31	38
221.161148378	144	96	103
221.166642713	144	46	40
221.182891963	128	96	64
221.217068023	144	103	89
221.229899011	128	100	64
221.247556383	128	46	64
221.278669974	128	103	64
221.295208365	144	36	110
221.311467516	144	46	40
221.31742193	144	100	77
221.33134965	144	96	103
221.355102653	128	36	64
221.36061062	128	46	64
221.367198532	128	96	64
221.381799485	144	103	86
221.387140598	128	31	64
221.396942618	128	100	64
221.44505867	128	103	64
221.473680636	144	31	46
221.508792004	144	100	74
221.511999568	144	96	103
221.527568796	128	31	64
221.532452949	128	96	64
221.562899273	144	103	82
221.566186948	144	36	108
221.596914455	128	100	64
221.610655591	128	36	64
221.611575043	128	103	64
221.618092682	144	31	48
221.643253189	128	52	64
221.675588042	144	96	103
221.694283324	128	31	64
221.700784152	128	96	64
221.701465957	144	100	69
221.714447226	144	103	78
221.783989628	144	36	106
221.784290927	128	103	64
221.803050893	144	46	36
221.815282558	144	73	108
221.838948355	128	36	64
221.84261475	128	46	64
221.846574803	128	100	64
221.850494182	144	96	103
221.866292095	128	73	64
221.877088155	128	96	64
221.883633432	144	103	75
221.897068711	144	31	55
221.926949628	144	100	38
221.944506522	128	31	64
221.944944834	128	103	64
222.01651357	144	36	105
222.022255579	144	96	102
222.047747124	144	52	115
222.048747315	128	52	64
222.049240569	128	96	64
222.056037875	128	36	64
222.063008593	144	103	70
222.064693671	128	100	64
222.109977216	144	31	50
222.111145289	128	103	64
222.131348368	144	73	111
222.144290553	128	31	64
222.193783021	144	96	103
222.20671827	144	100	35
222.216232164	128	96	64
222.232776758	144	103	64
222.243740841	144	46	35
222.26901473	128	100	64
222.289760834	128	46	64
222.29407585	144	31	46
222.298600327	128	103	64
222.306314717	128	73	64
222.356557716	144	100	31
222.361718417	128	31	64
222.366128469	144	96	104
222.386924759	128	96	64
222.401793402	144	103	57
222.414683119	144	46	36
222.446906095	128	100	64
222.454792738	128	46	64
222.460038645	128	103	64
222.485870161	144	31	45
222.490301011	144	96	104
222.54929091	128	96	64
222.550401997	144	36	101
222.561652378	128	31	64
222.565529334	144	103	52
222.568258437	144	46	37
222.571885193	144	100	22
222.584463312	144	52	113
222.590727289	128	52	64
222.594870258	144	52	113
222.596889851	128	36	64
222.597099153	144	73	109
222.622953077	128	46	64
222.629557201	128	100	64
222.645752148	128	103	64
222.647002845	128	73	64
222.658501373	144	96	103
222.716334664	128	96	64
222.719201204	144	73	104
222.732263364	144	31	41
222.734172681	144	100	18
222.749851337	144	103	47
222.779047765	128	31	64
222.811068164	128	103	64
222.81687584	144	36	96
222.829944317	128	100	64
222.859928027	144	96	104
222.87208982800001	128	73	64
222.872751938	128	36	64
222.884480002	128	96	64
222.918516679	144	100	18
222.936860677	144	46	36
222.949549575	144	103	40
222.964986427	144	31	43
222.994372207	128	103	64
222.99709212	128	100	64
223.011340174	128	46	64
223.012179247	128	31	64
223.027883348	144	96	104
223.038906644	144	36	87
223.049392714	128	96	64
223.064559664	144	73	107
223.068192998	144	100	18
223.113892382	144	103	35
223.126320784	128	36	64
223.163893842	128	100	64
223.172201874	144	31	40
223.193622888	128	103	64
223.200151948	144	96	104
223.223441117	128	73	64
223.232504981	128	96	64
223.250639375	144	100	16
223.261866647	128	31	64
223.272146163	144	36	114
223.300050703	144	103	34
223.330614653	128	100	64
223.360600053	128	103	64
223.360804207	128	36	64
223.376250834	144	96	104
223.399473858	128	96	64
223.43482752	144	100	12
223.465014896	144	31	53
223.466452098	144	103	34
223.481719126	144	73	99
223.51157613	128	31	64
223.513853987	128	100	64
223.530131605	128	73	64
223.538112287	144	36	97
223.54361736	128	103	64
223.544448841	144	96	104
223.566198309	128	96	64
223.573659583	128	36	64
223.584113568	144	100	10
223.624217428	144	73	105
223.648456211	144	103	35
223.680301456	128	100	64
223.712874244	144	96	105
223.71360653	144	31	45
223.73192172	128	103	64
223.732762127	128	96	64
223.75055214100001	144	100	8
223.761798322	128	31	64
223.77366329	128	73	64
223.80502445	144	36	86
223.822467241	128	36	64
223.846895562	128	100	64
223.852068542	144	103	41
223.88269437	144	96	105
223.903876361	128	96	64
223.910975368	128	103	64
223.917468581	144	100	6
223.947472377	144	31	48
223.965040984	144	73	110
224.003455325	128	52	64
224.012088035	128	31	64
224.013577623	128	100	64
224.015643192	144	103	43
224.022041578	144	36	68
224.05255462	144	96	106
224.069721781	128	96	64
224.072811435	128	36	64
224.097233683	128	103	64
224.109313469	128	73	64
224.172946212	144	103	46
224.214602276	144	31	51
224.215978101	144	96	106
224.244611885	128	103	64
224.251353781	128	96	64
224.261800127	128	31	64
224.269761123	144	36	74
224.293957402	128	26	64
224.32340966	128	36	64
224.356247865	144	103	50
224.400864858	144	96	106
224.423262509	128	96	64
224.427717901	128	103	64
224.431764003	144	31	53
224.433041884	144	52	115
224.440849899	128	52	64
224.461878192	128	31	64
224.513201819	144	103	56
224.519715546	144	36	66
224.566606508	144	96	106
224.577603787	128	103	64
224.590345281	128	36	64
224.599898584	128	96	64
224.608604213	144	31	49
224.678574568	128	31	64
224.681657156	144	103	62
224.748743097	144	26	126
224.749451247	144	96	105
224.750343048	128	103	64
224.785085926	128	96	64
224.7881773	144	36	74
224.817578657	144	103	67
224.840793721	128	36	64
224.864670283	144	31	48
224.89773156	128	103	64
224.927621681	128	26	64
224.928488726	128	31	64
224.933511633	144	96	106
224.9671224	144	103	73
224.988276252	128	96	64
225.019102348	144	36	60
225.045829512	128	103	64
225.074056833	128	36	64
225.091202934	144	96	106
225.115546903	144	103	77
225.15380287	128	96	64
225.182875354	128	103	64
225.251715211	144	36	80
225.256791652	144	31	66
225.258989199	144	52	115
225.26264182	128	31	64
225.288962802	144	103	80
225.301276862	144	96	106
225.30627193	128	36	64
225.331286832	128	103	64
225.332479369	128	96	64
225.427965876	144	31	77
225.430645201	144	103	87
225.467932422	144	36	62
225.477526051	128	103	64
225.479176762	128	31	64
225.483741291	144	96	106
225.506049686	128	96	64
225.526426633	128	36	64
225.58037486	144	103	94
225.611853336	128	103	64
225.658973889	144	31	84
225.666273056	144	96	106
225.69677593	144	46	10
225.699215691	128	96	64
225.702354112	144	36	81
225.712042854	128	31	64
225.722573632	144	26	127
225.728381661	144	103	102
225.757993728	128	36	64
225.776643099	128	103	64
225.844203621	144	96	106
225.86358367	144	103	105
225.866242568	128	96	64
225.885046392	128	52	64
225.910246894	128	103	64
225.911627165	144	31	87
225.919068189	144	36	66
225.959714985	128	26	64
225.962548285	128	31	64
225.974230281	128	36	64
226.028537626	144	103	112
226.032380188	144	96	107
226.039179715	128	46	64
226.053723372	128	96	64
226.076270524	128	103	64
226.133332878	144	36	79
226.161738979	144	31	87
226.165335076	144	73	98
226.174657694	144	96	107
226.179042139	144	103	116
226.182497456	128	73	64
226.191151612	128	36	64
226.220360639	128	96	64
226.22584872	128	103	64
226.230270908	128	31	64
226.262166579	144	36	53
226.289786768	128	36	64
226.305313534	128	100	64
226.345490363	144	36	82
226.34624844	144	103	125
226.360251719	144	96	107
226.378577307	128	103	64
226.382061827	144	31	91
226.390776789	128	36	64
226.404372221	128	96	64
226.430884071	144	52	113
226.431068125	128	52	64
226.432222788	144	36	64
226.432395681	144	46	112
226.440294089	144	73	107
226.44044488	128	46	64
226.440477588	144	46	120
226.463312247	128	31	64
226.489607818	128	36	64
226.496091324	144	103	127
226.529287196	144	36	72
226.535497236	128	46	64
226.543459468	128	103	64
226.556286636	128	36	64
226.566594176	144	96	107
226.599521996	128	96	64
226.606066968	128	73	64
226.608936777	144	36	62
226.643924601	144	31	92
226.656926985	128	36	64
226.66444831	144	103	127
226.694834757	144	36	74
226.695915108	128	31	64
226.709804546	128	103	64
226.739358989	128	36	64
226.765968804	144	96	107
226.776106323	144	36	51
226.798433324	144	103	127
226.801365843	128	96	64
226.823270086	128	36	64
226.843729636	128	103	64
226.860471731	144	36	67
226.864558935	144	73	102
226.893683999	144	31	93
226.913473856	128	73	64
226.9235112	128	36	64
226.944481994	144	36	39
226.944981264	144	96	107
226.946003829	128	31	64
226.9628705	144	103	127
226.986103686	144	73	109
226.987615142	128	96	64
227.009187849	128	36	64
227.009578451	128	103	64
227.018266373	144	52	113
227.060233734	144	46	108
227.061077428	144	36	39
227.106506493	128	36	64
227.110233067	128	46	64
227.110285218	144	46	118
227.11445474	144	103	127
227.126270091	144	36	38
227.130317236	128	73	64
227.146774313	128	46	64
227.148993236	144	96	107
227.1601952	128	103	64
227.166496669	144	31	87
227.176517714	128	96	64
227.190590249	128	36	64
227.212789672	128	31	64
227.228994699	144	36	56
227.262250912	144	103	127
227.273316322	128	36	64
227.310154033	128	103	64
227.321600368	144	96	107
227.326720461	144	36	50
227.346871775	144	73	115
227.34964884	128	96	64
227.37400483	128	36	64
227.409943513	144	36	59
227.429923851	144	103	127
227.448945722	128	73	64
227.459985686	128	103	64
227.473709947	128	36	64
227.494720441	144	36	45
227.499168402	144	96	107
227.532959711	128	96	64
227.573094559	128	36	64
227.579511713	144	103	127
227.590048995	144	46	116
227.590251608	128	46	64
227.590293496	144	46	107
227.596341376	144	36	60
227.612804932	128	36	64
227.612842237	144	36	63
227.613685064	128	103	64
227.673382663	128	36	64
227.677737806	144	96	107
227.678269665	128	46	64
227.693686134	128	52	64
227.694875042	144	36	56
227.730750459	144	103	127
227.732858981	128	96	64
227.748105671	144	73	108
227.756757206	128	36	64
227.761321737	128	103	64
227.798694764	128	73	64
227.810962989	144	36	68
227.840491125	128	36	64
227.880379513	144	103	127
227.88661663	144	73	110
227.896764789	144	36	55
227.898698769	144	96	107
227.911327352	128	103	64
227.933001515	128	96	64
227.940333019	128	36	64
227.995946506	144	36	82
227.997772196	128	73	64
228.007234827	128	36	64
228.016431069	144	103	125
228.059922563	128	103	64
228.060738266	144	36	63
228.101907246	144	52	113
228.102143265	128	52	64
228.107407143	128	36	64
228.109396422	144	96	106
228.145599133	144	36	84
228.148773061	144	103	122
228.185516052	144	46	116
228.187620564	128	46	64
228.187673948	144	46	106
228.190980372	128	36	64
228.216694466	128	103	64
228.226741281	144	36	66
228.248457799	144	73	115
228.264616448	128	46	64
228.290448544	128	36	64
228.30034013	144	103	120
228.32733068	144	36	88
228.332493596	128	73	64
228.361653394	128	103	64
228.375357385	128	36	64
228.39483707	144	36	67
228.434295786	144	103	119
228.456817093	128	36	64
228.494772629	144	36	89
228.540609662	128	36	64
228.576691382	144	36	69
228.625296902	128	36	64
228.643505301	144	36	84
228.717257792	128	103	64
228.723215732	128	36	64
228.743870192	144	36	64
228.795390697	144	103	115
228.823820483	128	36	64
228.861371814	128	103	64
228.862332685	144	36	88
228.907281736	128	36	64
228.946405073	144	36	70
228.94664694	144	103	113
229.00860989	128	36	64
229.015453133	144	52	114
229.015711688	128	52	64
229.026867166	128	103	64
229.027537676	144	36	86
229.075481826	128	36	64
229.144350885	144	36	76
229.150476098	144	103	107
229.177314474	128	36	64
229.195129997	128	103	64
229.216465231	144	36	99
229.240539829	128	36	64
229.30941251	144	36	75
229.330526696	144	103	100
229.342098611	128	36	64
229.394053983	144	36	96
229.400372824	128	103	64
229.44159532	128	36	64
229.456735556	144	31	51
229.463931552	128	31	64
229.496201849	144	36	64
229.523076282	144	103	97
229.540959232	128	36	64
229.560603354	144	36	90
229.581180163	128	103	64
229.640839563	128	36	64
229.648551011	144	36	64
229.696647181	144	103	89
229.724133365	128	36	64
229.729005633	144	36	81
229.754496494	144	31	51
229.75875202	128	36	64
229.761157814	128	103	64
229.779082711	128	31	64
229.890295898	144	46	36
229.91476358	144	103	85
229.917267014	128	46	64
229.984479007	128	103	64
230.124226746	128	52	64
230.208426012	144	36	41
230.228681268	144	103	86
230.276010902	128	103	64
230.279654902	128	36	64
230.337198846	144	46	40
230.426685194	128	46	64
230.550901306	144	36	85
230.555813274	144	31	47
230.583827333	128	31	64
230.628302672	128	36	64
230.750781572	144	36	84
230.781356867	144	46	40
230.792415776	128	36	64
230.820795229	144	103	99
230.842972239	128	103	64
230.894363855	128	46	64
230.89903511	144	31	48
230.903326659	128	31	64
230.948447418	144	36	102
231.00821995	144	65	118
231.024946957	128	36	64
231.046544564	144	46	118
231.04672721	128	46	64
231.062194834	128	65	64
231.16857854	144	31	48
231.203665616	144	36	60
231.21278629	128	31	64
231.278121391	128	36	64
231.407181509	144	36	73
231.449570185	144	31	53
231.479577738	128	31	64
231.49859167	128	36	64
231.522996443	144	103	103
231.593667113	128	103	64
231.599854136	144	36	97
231.677361515	128	36	64
231.685208879	128	96	64
231.816803454	144	36	108
231.894106135	128	36	64
232.014066549	144	36	67
232.093347512	128	36	64
232.251868934	144	36	81
232.319622673	144	103	106
232.327516339	128	36	64
232.33982435	144	31	54
232.366516695	128	103	64
232.497499126	128	31	64
233.120008712	144	103	106
233.169000324	128	96	64
233.18078804	128	103	64
233.233283113	144	31	47
233.331006527	128	31	64
233.482521315	144	36	74
233.515622288	128	36	64
233.971322694	144	103	104
234.023733944	144	31	63
234.025350525	128	103	64
234.239643659	128	31	64
234.468575957	144	36	74
234.476648759	128	36	64
234.862068966	144	103	104
234.93390872	128	103	64
234.955250315	144	31	67
235.030394228	128	31	64
235.466363016	144	36	84
235.516693078	128	36	64
235.79013353	144	31	60
235.848519181	128	31	64
235.968936588	144	103	102
236.060980103	128	103	64
236.204196203	144	24	35
236.29061699	144	65	118
236.330599273	128	65	64
236.334272296	144	36	84
236.366002063	144	26	105
236.38028521	128	36	64
236.438138509	128	26	64
236.790084187	144	31	57
236.792172522	128	24	64
236.953696485	144	103	103
236.977840541	144	46	43
237.009143607	128	103	64
237.04321597	128	46	64
237.189944462	128	31	64
237.336597342	144	36	75
237.367871868	144	26	85
237.386479632	128	26	64
237.398970116	128	36	64
237.461048495	144	24	59
237.764771755	144	31	63
237.813696929	128	31	64
237.918739615	144	46	49
237.924703434	128	24	64
237.937184404	144	103	100
237.982315991	128	46	64
237.982754475	128	103	64
238.26629015	144	31	48
238.35226591	144	36	80
238.398531027	144	26	87
238.398661599	128	36	64
238.437964655	128	26	64
238.455825553	144	24	107
238.557068506	128	31	64
238.615852424	128	24	64
238.939536557	144	46	54
238.972813441	144	103	101
239.019148816	128	46	64
239.024902423	128	103	64
239.123551466	144	31	62
239.39241231	128	31	64
239.435981498	144	36	69
239.476650548	144	24	93
239.481080683	144	26	86
239.500416261	128	36	64
239.520940873	128	26	64
239.532679058	144	93	104
239.61787948	128	24	64
239.99315406	144	103	100
240.006168328	128	93	64
240.020861334	144	46	54
240.056781672	144	31	70
240.06702149	128	103	64
240.095479411	128	46	64
240.097715325	128	31	64
240.565779833	144	26	90
240.581989552	144	36	66
240.591146866	144	65	26
240.603925075	128	26	64
240.617627876	144	73	109
240.637877338	128	73	64
240.64531429	128	65	64
240.651273841	128	36	64
241.088496784	144	103	99
241.099503665	144	46	57
241.107876989	144	31	70
241.13437155	128	103	64
241.143964072	128	46	64
241.214677985	128	31	64
241.466870854	144	93	83
241.6036985	144	36	78
241.667627636	128	36	64
241.982711431	144	26	80
242.022416454	128	26	64
242.0890408	144	46	58
242.146798481	128	46	64
242.173701085	144	65	112
242.176882726	144	31	53
242.18702302	144	103	100
242.226202175	128	93	64
242.228968971	128	65	64
242.233169831	128	103	64
242.35370522	128	31	64
242.61994417	144	36	81
242.666459262	128	36	64
242.716522375	144	73	105
242.799881992	128	73	64
243.065215386	144	26	86
243.084949569	128	26	64
243.135746038	144	36	66
243.143906262	144	31	58
243.168870056	128	36	64
243.187648538	144	46	56
243.24678088	128	46	64
243.28667084	144	103	100
243.308318887	128	103	64
243.389739007	128	31	64
243.502931471	144	36	73
243.553891003	128	36	64
243.623885355	144	93	104
243.659272018	144	36	65
243.716148456	128	36	64
243.799618197	144	31	56
243.956415715	128	31	64
244.194038635	144	46	57
244.214476074	144	26	87
244.245224761	128	46	64
244.253926271	128	26	64
244.30179525	144	31	52
244.336952161	144	103	102
244.356078789	144	65	34
244.359724864	128	93	64
244.365086619	128	65	64
244.383303025	128	103	64
244.445808617	128	31	64
244.752183349	144	36	59
244.798644666	144	73	107
244.803707709	128	36	64
244.866924384	128	73	64
245.13914075	144	24	20
245.232408909	144	31	56
245.237591992	128	31	64
245.26962398	128	24	64
245.273566389	144	65	116
245.322302641	128	65	64
245.356053325	144	46	54
245.382737848	144	31	58
245.410616414	128	46	64
245.422456249	144	103	100
245.424244885	128	103	64
245.548762975	144	26	85
245.584100558	144	93	101
245.590873255	128	31	64
245.619491574	128	26	64
245.769544475	144	36	76
245.833143938	128	36	64
245.900602232	144	31	64
245.917039649	128	31	64
246.142188967	144	24	17
246.281894814	128	24	64
246.349163309	144	46	60
246.367939503	144	31	62
246.400329321	128	31	64
246.426532511	128	93	64
246.434679383	128	46	64
246.451090274	144	103	102
246.461286551	144	31	63
246.475072163	128	103	64
246.789800808	128	31	64
246.829196442	144	36	70
246.832946678	144	26	109
246.884437634	128	36	64
246.903351372	128	26	64
247.000847474	144	73	109
247.040374652	128	73	64
247.350688413	144	31	67
247.486217976	128	31	64
247.487337306	144	103	101
247.491442367	144	31	71
247.508737511	144	46	58
247.530790789	128	103	64
247.54934941	128	46	64
247.830967823	144	93	102
247.839309374	128	31	64
247.878060904	144	24	17
248.006420526	144	36	70
248.010219968	128	24	64
248.032073684	144	26	102
248.071755662	128	36	64
248.071936423	128	26	64
248.072559349	144	24	13
248.17977957	128	24	64
248.231742904	144	24	19
248.327988616	128	24	64
248.368828134	144	24	18
248.461314499	128	24	64
248.486526498	144	24	17
248.530841366	144	31	66
248.530914873	128	31	64
248.541298687	144	65	122
248.550254715	144	103	106
248.573275408	128	103	64
248.580835824	128	65	64
248.581435255	128	24	64
248.608484517	144	46	75
248.611386538	144	24	17
248.672089025	128	46	64
248.675527989	128	93	64
248.705302199	144	31	67
248.709689909	128	24	64
249.059303529	128	31	64
249.099107362	144	36	62
249.134564666	144	73	105
249.168753689	128	36	64
249.171542899	128	73	64
249.512796622	144	26	103
249.597298061	144	31	64
249.597428518	128	31	64
249.603431533	128	26	64
249.668514485	144	103	120
249.69011948	128	103	64
249.709843106	144	24	84
249.729347109	144	46	80
249.773356311	144	31	66
249.78984721	128	46	64
249.938384769	144	65	120
249.980902335	128	65	64
250.00006921	144	93	107
250.006978103	128	24	64
250.090470183	128	31	64
250.291944834	144	36	71
250.295821965	144	31	72
250.340706356	128	36	64
250.440969851	128	31	64
250.506268693	144	24	92
250.731113012	144	26	96
250.782779427	144	103	112
250.786877793	128	26	64
250.792768895	128	93	64
250.808725761	128	103	64
250.835805855	128	24	64
250.915663699	144	46	82
250.972275669	128	46	64
251.273760991	144	65	116
251.288131016	144	24	93
251.293760979	128	65	64
251.345961284	144	102	100
251.347456155	128	102	64
251.395744235	144	31	70
251.402003258	144	73	103
251.421845798	128	31	64
251.458595236	144	36	66
251.484662042	128	73	64
251.518286226	128	36	64
251.519222078	144	31	72
251.581504908	128	31	64
251.631962473	144	26	111
251.686993569	128	26	64
251.705934592	128	24	64
251.935525995	144	103	111
251.957575948	128	103	64
251.986110312	144	46	80
252.042168818	128	46	64
252.081670373	144	31	67
252.134385293	128	31	64
252.157351774	144	102	98
252.175201847	128	102	64
252.192995686	144	31	71
252.305768725	144	93	113
252.337995475	128	31	64
252.511486151	144	36	69
252.58211983	128	36	64
252.750199646	144	102	98
252.754405729	128	102	64
252.899603888	144	26	86
252.924763158	144	31	66
252.95140712	128	31	64
252.969939187	128	26	64
253.040983041	144	31	70
253.043014812	128	93	64
253.105605497	144	46	79
253.116231706	144	103	109
253.132281756	128	46	64
253.143748061	128	103	64
253.241137889	128	31	64
253.60188278	144	102	94
253.605295736	128	102	64
253.654750016	144	36	54
253.666983103	144	73	99
253.734397448	128	73	64
253.741087021	128	36	64
253.999540542	144	26	56
254.070108867	128	26	64
254.201519578	144	31	60
254.234557925	128	31	64
254.244497701	144	103	110
254.286196419	144	31	63
254.299951653	128	103	64
254.474175677	144	65	115
254.493609793	128	65	64
254.552010537	144	93	109
254.583923436	144	65	115
254.607713684	128	31	64
254.625326247	144	46	80
254.675540346	128	65	64
254.675811642	128	46	64
254.778385523	144	36	67
254.844364739	128	36	64
254.914336286	144	26	61
254.986623293	128	26	64
255.261734389	144	31	63
255.272184286	128	31	64
255.357131418	144	31	70
255.385271782	144	103	109
255.389644173	144	46	82
255.409922891	128	103	64
255.421429863	128	46	64
255.426473147	128	93	64
255.503548471	144	24	12
255.759514427	128	31	64
255.798957088	144	26	67
255.887326025	128	26	64
255.932519367	144	36	70
256.006199233	128	36	64
256.017808563	144	73	102
256.058069087	128	73	64
256.226328081	144	46	85
256.284259773	128	46	64
256.414753102	144	31	90
256.448675158	128	31	64
256.517758229	144	31	91
256.567488656	144	103	112
256.576535779	144	102	118
256.590663446	128	103	64
256.61640243	144	26	68
256.669922151	128	26	64
256.749678271	128	102	64
256.775903892	128	31	64
256.830721413	128	24	64
256.866446492	144	93	115
256.963945651	144	46	80
257.018214156	128	46	64
257.049604317	144	26	73
257.193920984	128	26	64
257.194356768	144	36	64
257.240231635	144	24	11
257.259400875	128	36	64
257.357366255	128	24	64
257.476195563	144	102	94
257.504871638	144	24	24
257.516845971	144	31	87
257.531529286	144	26	76
257.550540098	128	31	64
257.619896504	128	26	64
257.639803112	144	31	78
257.641174434	128	24	64
257.663060696	144	46	85
257.702592451	128	93	64
257.732632265	128	46	64
257.749174937	144	24	35
257.794009149	144	103	113
257.800726497	128	102	64
257.823049558	128	103	64
257.859413924	128	24	64
257.959325568	128	31	64
257.987478703	144	24	49
258.132489934	128	24	64
258.233846146	144	24	58
258.26892121	144	73	104
258.287468546	144	36	68
258.320558055	128	73	64
258.377320595	128	36	64
258.380736988	128	24	64
258.43339908	144	26	89
258.470471901	144	24	74
258.487099225	128	26	64
258.599744894	144	46	86
258.617304863	128	24	64
258.622675259	128	102	64
258.659280401	128	46	64
258.719615283	144	24	85
258.74540067	144	65	122
258.782045168	144	31	71
258.812432151	128	65	64
258.834258677	128	31	64
258.84049924	128	24	64
258.902778707	144	31	70
258.953264447	144	24	97
259.017715665	144	103	108
259.056482266	128	103	64
259.096667851	128	24	64
259.126657633	128	31	64
259.153732818	144	93	52
259.208192995	144	24	111
259.3269669	144	36	72
259.337703857	144	46	78
259.350097767	128	24	64
259.364933908	144	26	91
259.383907658	128	46	64
259.393753337	128	36	64
259.405160406	128	26	64
259.701711473	144	73	96
259.755636495	128	73	64
259.860341467	128	93	64
260.043384327	144	31	63
260.071893177	128	31	64
260.12227804	144	31	64
260.148593794	144	46	83
260.214852772	144	103	110
260.232048727	128	46	64
260.241707016	128	103	64
260.479341837	144	36	60
260.492220132	128	31	64
260.532389858	144	26	88
260.597223335	128	36	64
260.603355656	128	26	64
260.668494283	144	73	92
260.718387285	128	73	64
260.758695174	144	65	126
260.798018664	128	65	64
260.850339435	144	93	117
260.975123739	144	26	67
261.042732494	144	36	56
261.053757408	128	26	64
261.066718053	144	46	79
261.125827757	144	31	85
261.133466762	128	31	64
261.134672928	128	46	64
261.146871045	128	36	64
261.205413996	144	31	82
261.443831685	128	93	64
261.467623698	144	103	108
261.492511363	128	103	64
261.529603348	144	36	64
261.559801978	128	31	64
261.57792667	128	36	64
261.650925389	144	36	63
261.665732464	144	26	54
261.731464153	128	36	64
261.736662788	128	26	64
261.826088647	144	46	83
261.913613163	128	46	64
262.146733515	144	36	64
262.165609977	144	26	84
262.209885286	128	36	64
262.273661933	128	26	64
262.291318719	144	31	74
262.300744805	128	31	64
262.38328863	144	31	72
262.418924968	144	73	98
262.484899384	128	73	64
262.612762135	144	36	66
262.633763742	144	103	110
262.645514385	128	36	64
262.655866581	128	103	64
262.692113193	128	31	64
262.739924709	144	36	57
262.808394228	128	36	64
262.862463679	144	36	58
262.891980126	128	36	64
263.129251817	144	24	12
263.270736875	128	24	64
263.307428927	144	36	69
263.316691956	128	65	64
263.333392257	144	93	111
263.354573907	128	93	64
263.360338034	128	36	64
263.368454125	144	26	107
263.384971814	128	26	64
263.409837924	144	93	110
263.46682213	144	31	72
263.467550418	144	46	73
263.518645209	128	31	64
263.542359398	128	46	64
263.575547847	144	31	70
263.735751656	144	36	67
263.776990729	128	36	64
263.84730278	144	103	116
263.873743774	128	103	64
263.904901241	144	36	63
263.909246363	128	31	64
263.944245381	128	36	64
264.120758971	144	36	64
264.162097511	128	36	64
264.337382927	144	36	69
264.376013581	144	31	70
264.396684659	128	36	64
264.434434459	128	31	64
264.499232999	144	26	87
264.532703505	144	24	1
264.552790172	144	36	65
264.568494271	144	73	90
264.570221094	128	26	64
264.582007166	128	73	64
264.613233007	128	36	64
264.697521018	128	24	64
264.787757636	144	36	65
264.843276208	128	36	64
265.004581284	144	36	65
265.025100616	144	103	117
265.044882497	128	36	64
265.057805139	144	24	1
265.069946167	128	103	64
265.181139058	128	24	64
265.204824384	144	36	58
265.283835323	128	36	64
265.36889932	144	36	59
265.426529911	128	36	64
265.466874009	144	36	46
265.5105664	128	36	64
265.579380485	144	36	70
265.596246566	144	24	1
265.610628844	128	36	64
265.613571068	144	103	119
265.638019462	128	103	64
265.647460303	144	36	52
265.693065506	128	36	64
265.748448962	144	36	62
265.752347933	128	24	64
265.776424053	128	36	64
265.83045528	144	36	45
265.877051654	128	36	64
265.915433456	144	36	62
265.959663451	128	36	64
265.997584002	144	36	40
266.043683847	128	36	64
266.080618364	144	36	57
266.126617144	128	36	64
266.17974322	144	36	38
266.195943074	144	24	16
266.197672349	144	103	115
266.223470085	128	103	64
266.227177768	128	36	64
266.246233581	144	36	57
266.294364868	128	36	64
266.313241713	128	24	64
266.315330733	144	36	64
266.39343149	128	36	64
266.765776126	144	103	114
266.78980412	128	103	64
266.900856873	144	26	58
267.380300663	144	103	111
267.402107559	144	73	101
267.404725886	128	103	64
267.456732859	128	73	64
267.626481053	144	31	68
267.780940044	144	103	115
267.789210475	128	103	64
268.052977696	128	93	64
268.076514285	128	31	64
268.165113281	144	103	114
268.171660651	128	103	64
268.349609701	144	36	60
268.515122167	144	103	113
268.537521704	128	103	64
268.717687337	128	36	64
268.881549594	144	103	114
268.889924665	128	103	64
269.184018019	144	31	10
269.212582938	144	103	122
269.238058584	128	103	64
269.511156837	128	31	64
269.579389303	144	103	124
269.582030057	128	24	64
269.590612271	128	103	64
269.89967572	144	103	124
269.906686683	128	103	64
270.092734381	144	31	65
270.165516952	144	103	125
270.190249574	128	103	64
270.259195326	128	93	64
270.423911122	144	103	125
270.492032882	128	103	64
270.509518495	128	31	64
270.672007735	144	103	127
270.722948882	128	103	64
270.835276523	144	36	45
270.895186776	144	73	97
270.906622711	128	73	64
270.907201808	144	103	125
270.956348837	128	103	64
270.99243967	144	31	22
271.138436068	144	103	126
271.188588249	128	103	64
271.243817611	128	31	64
271.24815648	144	73	93
271.30108573	128	73	64
271.313660457	128	36	64
271.359270599	144	103	127
271.3882236	128	103	64
271.522798777	144	103	126
271.569002643	128	103	64
271.675251654	144	103	127
271.720917604	128	103	64
271.825901952	144	103	127
271.870854086	128	103	64
271.990533437	144	103	127
272.037126683	128	103	64
272.158893883	144	103	126
272.188594429	128	103	64
272.34059558	144	103	121
272.370619353	128	103	64
272.798978159	144	103	120
272.842353548	128	103	64
273.388594521	144	103	117
273.460663509	128	103	64
273.58618437	144	73	86
273.652849726	128	73	64
273.93478848	144	73	86
273.985490818	128	73	64
274.236845325	144	36	97
274.264470141	128	36	64
274.425448706	144	21	123
274.779210193	144	82	54
274.866674528	128	21	64
275.007604199	128	82	64
275.029088806	128	26	64
275.462662927	144	82	54
275.533600631	144	26	127
275.572329477	128	26	64
275.753966885	144	31	63
275.82740259	144	21	127
275.992910989	128	31	64
276.469689668	144	73	83
276.506626196	128	82	64
276.520790313	128	73	64
276.580861175	144	26	48
276.605978977	144	36	117
276.654099371	128	36	64
276.919586364	144	73	83
276.936272561	128	73	64
277.498329259	144	82	78
278.091359747	128	82	64
278.142830932	144	30	116
278.344468481	144	36	87
278.36798555	128	36	64
278.729080035	144	82	74
279.283541857	128	82	64
279.30005749	128	21	64
279.425827985	128	31	64
279.455126693	144	73	74
279.491045581	128	73	64
279.52524828	144	73	44
279.601759963	128	73	64
280.030049602	144	82	70
280.053679002	144	73	70
280.10348407	128	73	64
280.193456461	144	21	127
280.795397717	128	26	64
280.8348691	144	103	1
280.853598732	144	73	68
280.856593496	128	82	64
280.920089659	128	73	64
280.940132263	144	26	64
280.942483119	128	103	64
280.967588847	144	73	41
280.987396212	128	26	64
281.054899971	128	73	64
281.07763081	144	103	5
281.140678531	128	103	64
281.279367187	144	103	7
281.392754922	128	103	64
281.413604467	144	36	108
281.470727882	144	73	69
281.493977937	144	103	11
281.495732966	144	82	65
281.52127485	128	73	64
281.572100354	128	103	64
281.582957963	144	26	67
281.623029679	128	26	64
281.64198922	144	65	109
281.660530044	128	65	64
281.71153731	144	103	16
281.778922997	128	103	64
281.916003412	144	103	20
281.990892714	128	103	64
282.109731008	144	103	24
282.11698982	144	26	65
282.13946478	128	21	64
282.154426452	144	73	77
282.169236674	128	26	64
282.172996202	128	82	64
282.195503536	128	103	64
282.204383657	128	73	64
282.275817269	144	73	44
282.315088261	144	103	25
282.352560492	128	73	64
282.390517928	128	103	64
282.509083718	144	103	28
282.550430112	144	26	64
282.593575929	128	103	64
282.603834157	128	26	64
282.712139295	144	103	32
282.76267776	144	82	64
282.773295921	128	103	64
282.803379974	144	73	73
282.88976184	128	73	64
282.927105753	144	103	34
283.013862304	128	103	64
283.145655788	144	103	34
283.228451414	128	103	64
283.265034179	144	26	65
283.304708167	128	26	64
283.365473895	144	103	36
283.422921967	128	103	64
283.503545472	144	73	90
283.556700216	128	82	64
283.558383893	128	73	64
283.573596885	144	103	40
283.641131245	144	73	54
283.643162757	128	103	64
283.719779206	128	73	64
283.783384633	144	103	41
283.83886695	128	103	64
283.991725483	144	103	44
284.073027362	128	103	64
284.208079633	144	103	46
284.217253414	144	73	83
284.271585959	128	73	64
284.272480406	128	46	64
284.274821013	128	103	64
284.359139265	144	26	64
284.408548468	144	103	48
284.476565481	128	103	64
284.627907563	144	103	49
284.690982072	128	103	64
284.825531223	144	103	52
284.893969053	128	103	64
284.953700338	144	73	85
285.005341025	128	73	64
285.043407086	144	103	53
285.095146934	144	73	52
285.107250972	128	103	64
285.169186841	128	73	64
285.24327846	144	103	55
285.310189774	128	103	64
285.45086292	144	103	56
285.505100403	128	103	64
285.630811569	144	73	85
285.642487521	144	103	57
285.688620951	128	73	64
285.711483949	128	103	64
285.711664162	144	82	65
285.85983	144	103	54
285.906695505	128	103	64
286.043051846	144	103	52
286.087820787	128	103	64
286.223944802	144	103	51
286.271922714	128	103	64
286.373656453	128	82	64
286.403199736	144	73	84
286.409664272	144	103	48
286.458005399	128	73	64
286.472924781	128	103	64
286.525402699	144	73	50
286.525606051	128	30	64
286.592538181	144	103	47
286.602946391	128	73	64
286.69001643	128	103	64
286.724742938	144	53	51
286.775378983	144	103	43
286.822937055	144	65	118
286.844690883	128	65	64
286.873879434	128	103	64
286.898982435	128	53	64
286.945961191	144	103	41
287.037829849	144	73	85
287.040108002	128	103	64
287.08719409	128	73	64
287.144291614	144	103	39
287.207297852	128	103	64
287.210280488	144	53	51
287.246111701	144	82	67
287.356948818	144	103	37
287.403665286	128	103	64
287.524833847	144	103	36
287.602863247	128	30	64
287.639891965	128	103	64
287.695576943	128	53	64
287.722995692	128	82	64
287.733598497	144	103	35
287.746248031	144	73	96
287.822272349	128	73	64
287.826155981	128	103	64
287.912208991	144	73	32
287.929187281	144	103	35
287.988112465	128	73	64
288.000874463	144	21	127
288.001133392	128	21	64
288.006402433	128	103	64
288.010435719	144	53	54
288.128277363	144	103	36
288.188967399	128	103	64
288.32285486	144	103	36
288.395068266	128	103	64
288.486321653	144	73	100
288.521048001	128	73	64
288.532225636	144	103	37
288.604863959	128	103	64
288.635905942	144	21	127
288.637140059	128	21	64
288.665622187	128	53	64
288.725819524	144	103	37
288.788543654	128	103	64
288.810458802	144	53	48
288.927635874	144	103	38
288.993745374	128	103	64
289.134161456	144	103	38
289.20405572	128	103	64
289.223361279	144	21	127
289.223547054	128	21	64
289.236272336	144	73	100
289.292231849	128	73	64
289.342576493	144	103	38
289.380593153	128	53	64
289.390325344	144	73	58
289.410764068	128	103	64
289.469996465	128	73	64
289.511590704	128	26	64
289.547473715	144	103	39
289.604533797	128	103	64
289.609210871	144	26	53
289.661069169	144	53	54
289.720200912	128	53	64
289.743506022	144	103	40
289.76043984	128	26	64
289.774763876	144	21	127
289.774963187	128	21	64
289.805409352	128	103	64
289.905109513	144	26	113
289.954719983	144	73	96
289.958665283	144	53	53
289.969167105	128	53	64
289.971907142	128	26	64
289.975057833	144	103	43
289.990389261	128	73	64
290.022543132	128	103	64
290.024831241	144	53	55
290.158692732	144	103	45
290.22763589	128	103	64
290.292006561	144	21	124
290.292148087	128	21	64
290.341700386	144	103	47
290.347817009	144	82	69
290.39460333	128	53	64
290.399120956	144	26	119
290.420025307	128	26	64
290.423294671	128	103	64
290.549864963	144	103	51
290.620315782	128	103	64
290.654333106	144	73	95
290.720975357	128	73	64
290.743378801	144	103	53
290.792744085	144	73	50
290.809894075	128	103	64
290.812017515	144	53	47
290.887063445	128	73	64
290.960695275	144	103	55
291.007902023	128	103	64
291.157289221	144	103	56
291.175480557	144	26	124
291.224657343	128	103	64
291.230247379	128	53	64
291.25512169	128	26	64
291.322530022	144	21	125
291.32344614	128	21	64
291.337345292	144	73	95
291.357445433	144	103	58
291.387500674	128	73	64
291.40580642	128	103	64
291.466329716	144	21	125
291.477134156	128	21	64
291.49374838	144	21	123
291.493964135	128	21	64
291.558906993	144	103	56
291.604237073	128	103	64
291.740666763	144	103	56
291.786669071	128	103	64
291.79876042	128	36	64
291.943146389	144	103	54
292.009631887	128	103	64
292.103889732	144	73	90
292.12055911	144	21	127
292.120804769	128	21	64
292.126838254	144	103	51
292.172754886	128	73	64
292.207245488	128	103	64
292.24192542	144	73	68
292.336484704	128	73	64
292.342923745	144	103	50
292.388298502	128	103	64
292.418284477	144	26	113
292.487686971	128	26	64
292.522875678	144	103	48
292.534847167	144	65	122
292.544265198	128	65	64
292.588243773	144	21	125
292.593798247	128	21	64
292.593953162	128	103	64
292.723835145	128	82	64
292.731586728	144	103	45
292.788487328	128	103	64
292.821277581	144	73	90
292.829940389	144	53	65
292.887979888	128	73	64
292.890639311	128	53	64
292.89073268	144	53	54
292.905845415	144	103	43
292.989514293	128	103	64
293.000594356	144	21	123
293.003594397	128	21	64
293.07885421	128	53	64
293.079853494	144	53	69
293.093924239	144	103	40
293.153730594	128	103	64
293.17353013	128	53	64
293.173584412	144	53	65
293.293222817	144	103	37
293.327336802	128	53	64
293.37197571	128	103	64
293.465405243	144	21	127
293.46570907	128	21	64
293.496547754	144	82	71
293.496801706	144	103	33
293.570254584	128	103	64
293.638588242	144	73	89
293.655118959	144	53	67
293.689887607	144	103	30
293.701746671	128	53	64
293.704086504	128	73	64
293.775601029	128	103	64
293.848547737	144	73	47
293.875539765	144	103	27
293.88621614	128	73	64
293.946468719	144	21	124
293.946799316	128	21	64
293.955204985	128	103	64
294.005435121	144	53	56
294.025621023	144	65	112
294.066176322	128	65	64
294.069813078	128	53	64
294.093338557	144	103	24
294.171363105	128	103	64
294.27559208	144	103	22
294.353864846	144	100	90
294.354030128	144	73	90
294.359643314	128	103	64
294.393825275	128	100	64
294.421274093	128	73	64
294.445669366	144	53	64
294.44606265	144	21	127
294.446363903	128	21	64
294.472445961	128	53	64
294.500193464	144	103	22
294.562039664	144	53	55
294.569979591	128	103	64
294.61992133	128	53	64
294.67663577	144	103	21
294.690397206	144	53	68
294.752784079	128	53	64
294.770381856	128	103	64
294.789900705	144	53	60
294.868650324	144	26	73
294.868803984	128	53	64
294.883264644	144	103	22
294.929139309	144	21	126
294.929410997	128	21	64
294.935292885	144	69	63
294.975866681	128	103	64
295.060973885	144	103	22
295.071926408	128	69	64
295.153549933	128	103	64
295.172375529	144	73	97
295.211523199	144	53	73
295.220069494	128	73	64
295.237211434	128	53	64
295.27448814	144	103	25
295.298167433	144	73	62
295.331696904	144	21	127
295.332820607	128	21	64
295.344200066	128	103	64
295.35448205	128	73	64
295.427510552	144	103	25
295.501244883	128	36	64
295.509793502	128	103	64
295.578399439	144	53	69
295.621051773	128	53	64
295.625206842	144	103	27
295.703421318	128	103	64
295.807313275	144	103	29
295.814194068	144	21	126
295.818136669	128	21	64
295.888676873	144	73	96
295.891265571	128	103	64
295.954746843	128	73	64
295.961490076	144	53	84
295.986622587	128	53	64
295.994826545	144	103	32
296.037159429	128	103	64
296.056407923	144	53	67
296.135753243	128	53	64
296.158331291	144	103	32
296.176741637	144	21	127
296.179759914	128	21	64
296.192203318	144	53	81
296.213247201	144	69	69
296.226271756	128	103	64
296.268925275	128	53	64
296.27552552	144	53	76
296.352254266	128	53	64
296.360674536	144	103	35
296.377608215	128	69	64
296.42333284	128	103	64
296.541197183	144	103	37
296.610957466	128	103	64
296.659236716	144	21	127
296.66193484	128	21	64
296.679689994	144	53	73
296.719660125	128	53	64
296.749225493	144	103	40
296.804230845	128	103	64
296.908169617	128	82	64
296.941103251	144	103	41
297.004633711	128	103	64
297.077428237	144	53	64
297.136647967	128	53	64
297.142800519	144	103	45
297.201764225	144	21	127
297.204498148	128	21	64
297.204896673	128	103	64
297.323118638	144	103	47
297.380445063	144	82	70
297.406624823	128	103	64
297.467285918	128	82	64
297.501799051	144	53	75
297.517881371	144	100	110
297.531675369	144	103	52
297.562595527	128	100	64
297.569990171	128	53	64
297.589356896	128	103	64
297.602085207	144	53	67
297.603444246	144	21	127
297.609622249	128	21	64
297.669653011	128	53	64
297.707237951	144	103	55
297.723644495	144	53	73
297.763592726	144	69	68
297.785086965	128	53	64
297.794597456	128	103	64
297.873462306	144	53	67
297.912624308	128	69	64
297.936449462	128	53	64
297.94527749	144	103	57
298.004102045	128	103	64
298.093161931	144	21	127
298.095233294	128	21	64
298.124244557	144	103	60
298.194861761	128	103	64
298.279454789	144	47	86
298.309851489	144	103	62
298.345167673	128	26	64
298.394401378	128	103	64
298.438714755	144	21	127
298.440956081	144	26	34
298.444451282	128	21	64
298.510154544	144	103	64
298.522165724	128	26	64
298.589626129	128	103	64
298.710181224	144	103	65
298.761639756	144	21	127
298.762452465	128	21	64
298.771828193	128	103	64
298.904837986	144	103	65
298.975884478	128	103	64
299.035619446	144	21	124
299.0427026	128	21	64
299.112856594	144	103	67
299.170522659	128	103	64
299.308633583	144	103	68
299.369751237	128	103	64
299.448249606	144	21	126
299.451306006	128	21	64
299.523369217	144	103	68
299.57061847	128	103	64
299.724993536	144	103	66
299.728320356	144	21	127
299.73237565	128	21	64
299.76903156	128	103	64
299.896831837	144	53	66
299.922240178	128	53	64
299.924124135	144	103	66
299.994158911	128	103	64
300.11928901	144	53	62
300.12512962	144	21	122
300.126384355	128	21	64
300.145510368	144	103	65
300.16975932	128	53	64
300.183155934	144	26	8
300.188705472	128	103	64
300.357879452	144	103	65
300.360056719	144	53	61
300.402509579	128	103	64
300.418056058	144	21	122
300.419185665	128	21	64
300.419396444	128	53	64
300.557561269	144	103	64
300.617572663	144	53	64
300.624998003	128	103	64
300.672228291	128	53	64
300.711719536	144	21	127
300.713529736	128	21	64
300.721061412	144	100	105
300.766535839	128	100	64
300.779846154	144	103	63
300.823444037	128	103	64
300.85148614	144	53	66
300.904442017	128	53	64
300.957187525	144	103	62
301.04083239	128	103	64
301.060238178	144	21	126
301.062094439	128	21	64
301.117722468	144	53	65
301.15779542	144	103	59
301.172110034	128	53	64
301.235951237	128	103	64
301.290658352	128	73	64
301.339226272	144	103	58
301.341193234	144	53	67
301.412442428	144	21	124
301.412720715	128	21	64
301.418616382	128	53	64
301.437854956	128	103	64
301.575258871	144	103	59
301.618721497	144	53	64
301.655353947	128	103	64
301.669348579	128	53	64
301.746842932	144	21	127
301.748942419	128	21	64
301.781955499	144	103	56
301.874702538	128	103	64
301.880593281	144	82	68
301.884086039	144	53	65
301.936481958	128	53	64
301.967621582	128	82	64
301.969423614	128	26	64
301.969474748	144	26	105
301.975742842	144	103	53
302.059749005	128	103	64
302.061935083	144	21	127
302.062981789	128	21	64
302.189537536	144	53	63
302.198463841	144	103	52
302.204340427	128	53	64
302.27003064	128	103	64
302.348892486	144	21	127
302.349849326	128	21	64
302.388335466	144	103	50
302.438852167	144	53	63
302.476917652	128	103	64
302.487929981	128	53	64
302.595716406	128	26	64
302.614926114	144	103	48
302.686432726	128	103	64
302.693087842	144	21	126
302.694569636	128	21	64
302.727546607	144	53	66
302.806973938	144	103	46
302.871390364	128	103	64
302.912826537	144	82	70
303.019812305	128	82	64
303.021088285	144	103	45
303.033483518	144	21	127
303.035058433	128	21	64
303.093091843	128	103	64
303.163101992	128	53	64
303.227400414	144	103	42
303.287236727	128	103	64
303.357698293	144	53	74
303.372301688	144	21	125
303.372930671	128	21	64
303.424302271	144	103	34
303.502888064	128	103	64
303.630028602	144	103	31
303.693386452	144	21	127
303.694455634	128	21	64
303.7021275	128	103	64
303.723068752	128	53	64
303.824169695	144	103	30
303.870899219	144	26	7
303.892934398	128	103	64
303.924595133	144	100	107
303.950950383	128	100	64
303.996489312	144	82	68
304.031215216	144	103	39
304.038656554	144	21	126
304.041480119	128	21	64
304.07872075	144	53	70
304.086797497	128	103	64
304.141722971	128	82	64
304.224692435	144	103	45
304.268786679	128	103	64
304.36269095	144	21	127
304.364607403	128	21	64
304.424560239	144	103	48
304.447250147	128	53	64
304.468457522	128	103	64
304.57633257	128	47	64
304.623752604	144	103	52
304.669758871	128	103	64
304.67175748	144	21	127
304.672876058	128	21	64
304.804233721	144	103	55
304.875294875	128	103	64
304.887504425	144	53	62
304.900673973	128	53	64
304.939556538	144	69	10
305.003386249	144	21	125
305.004097007	128	21	64
305.012327842	144	103	57
305.071843199	128	103	64
305.147991175	128	69	64
305.178091566	144	53	64
305.180358097	144	82	67
305.203486616	128	53	64
305.22389891	144	103	59
305.233693903	128	82	64
305.268292726	128	103	64
305.330922048	144	21	127
305.331696355	128	21	64
305.407047028	144	103	61
305.47538063	128	103	64
305.489741522	144	53	64
305.587228873	128	47	64
305.595276836	144	21	127
305.596289318	128	21	64
305.616607983	144	103	64
305.65446906	128	103	64
305.697847597	144	69	1
305.722835597	144	82	63
305.800727864	128	82	64
305.806811647	144	103	67
305.849635365	128	53	64
305.872718059	128	103	64
305.895696796	128	69	64
305.984551899	144	21	127
305.991955149	144	103	68
306.001890941	128	21	64
306.053703859	128	103	64
306.107162849	144	69	1
306.191293501	144	103	71
306.226020249	144	65	117
306.245442807	128	65	64
306.259470562	128	103	64
306.262799721	144	82	71
306.277431054	128	69	64
306.328123094	144	21	127
306.334315111	128	21	64
306.335964465	144	69	1
306.367513011	128	82	64
306.412188618	144	103	74
306.470744408	128	103	64
306.47776434	128	69	64
306.604108506	144	103	78
306.654331778	144	21	127
306.654596047	128	21	64
306.673121407	128	103	64
306.811889857	144	103	79
306.869769349	128	103	64
306.982277495	144	21	127
306.982552821	128	21	64
307.006405338	144	103	80
307.076017164	128	103	64
307.215023087	144	69	1
307.226250965	144	103	81
307.286018527	128	103	64
307.310411569	144	21	126
307.310681285	128	21	64
307.345445908	128	69	64
307.400038442	144	69	1
307.420431496	144	103	78
307.468773896	128	103	64
307.51228462	128	69	64
307.553147353	144	69	1
307.608834342	144	90	53
307.612387632	144	82	68
307.623850304	144	103	76
307.638106675	144	21	127
307.638375445	128	21	64
307.666629211	128	69	64
307.666752854	128	82	64
307.669465411	128	103	64
307.671059697	128	90	64
307.69460634	144	69	2
307.738255022	144	82	68
307.806723788	144	103	74
307.811628622	128	69	64
307.817473636	128	82	64
307.869407916	128	103	64
307.888570187	144	82	68
307.96518009	144	21	127
307.965398581	128	21	64
307.966836046	128	82	64
308.020628109	144	103	72
308.087258385	128	103	64
308.087475337	144	90	57
308.150032826	128	90	64
308.223578948	144	103	70
308.31084544	128	103	64
308.326516009	144	21	127
308.326697361	128	21	64
308.429295602	144	103	69
308.451864394	144	90	62
308.503578772	128	90	64
308.516903089	128	103	64
308.620559747	144	21	127
308.62071446	128	21	64
308.626484882	144	103	67
308.694839919	128	103	64
308.787898717	144	90	64
308.830336593	144	103	66
308.848306738	128	90	64
308.887661597	128	103	64
308.9574209	144	65	1
308.963911603	144	82	67
308.999046667	128	65	64
309.000647464	144	21	123
309.000854401	128	21	64
309.001758001	128	82	64
309.037363694	144	103	65
309.072896009	144	82	67
309.085709416	128	103	64
309.113685347	144	53	71
309.150703912	128	82	64
309.172298262	144	90	99
309.222923891	144	103	64
309.236835069	128	90	64
309.238444926	144	82	69
309.294283967	144	21	126
309.299449831	128	21	64
309.302480915	128	103	64
309.31769354	128	82	64
309.426280363	144	103	63
309.447562919	128	53	64
309.479975115	128	26	64
309.504295424	128	103	64
309.520611561	144	90	114
309.566347864	128	90	64
309.619610288	144	100	23
309.640359695	144	103	62
309.672638003	144	21	122
309.673185985	128	21	64
309.719787254	128	103	64
309.841165913	128	100	64
309.847437363	144	103	62
309.886838705	144	90	113
309.917914081	128	103	64
309.953846981	128	90	64
310.040904471	144	103	61
310.051588559	144	21	122
310.052238607	128	21	64
310.103409848	128	103	64
310.224452447	144	103	59
310.254284424	144	90	111
310.300073432	128	90	64
310.312544985	144	82	66
310.322079342	128	103	64
310.322207438	128	82	64
310.430558027	144	103	57
310.434350026	144	21	121
310.435756623	128	21	64
310.44745443	144	53	72
310.465575057	144	82	67
310.481492993	128	82	64
310.502402015	128	103	64
310.540768432	144	82	67
310.584528849	128	82	64
310.640176073	144	103	54
310.654668188	144	90	92
310.672116547	144	82	68
310.702859898	128	90	64
310.708882299	128	103	64
310.716652922	128	82	64
310.757193358	144	21	121
310.758947653	128	21	64
310.804607707	144	103	51
310.886912356	128	103	64
310.971186079	144	90	67
311.005792564	144	103	50
311.035042756	128	90	64
311.048267061	128	53	64
311.068100392	128	103	64
311.08890996	144	21	121
311.090209614	128	21	64
311.205922871	144	103	51
311.270059723	128	103	64
311.387949801	144	90	39
311.391700741	144	103	52
311.434686981	144	21	118
311.435937812	128	21	64
311.436754719	128	90	64
311.471611107	128	103	64
311.598362911	144	103	57
311.652459888	128	103	64
311.662623317	144	82	66
311.716942144	128	82	64
311.772589379	144	103	62
311.797169595	144	21	113
311.798278926	128	21	64
311.804883605	144	82	66
311.830885996	144	53	76
311.83828762	144	90	14
311.842856971	128	103	64
311.878216884	128	90	64
311.884136992	128	82	64
311.963794806	144	103	66
312.021949898	128	103	64
312.12719999	144	21	112
312.12810711	128	21	64
312.155268118	144	103	69
312.213220135	144	82	67
312.224310163	128	103	64
312.231311016	128	53	64
312.23185136	128	82	64
312.340484382	144	103	70
312.367003281	144	26	127
312.3732126	128	26	64
312.402347082	128	103	64
312.471103881	144	21	118
312.47135539	128	21	64
312.537493741	144	103	73
312.609170237	128	103	64
312.747750261	144	103	75
312.78110796	144	21	118
312.782072726	128	21	64
312.802476125	128	103	64
312.924914718	144	103	77
313.002266556	128	103	64
313.007619073	144	90	39
313.073028582	128	90	64
313.104364053	144	103	78
313.116208478	144	26	123
313.144922655	144	53	68
313.160672875	144	21	115
313.168123198	128	21	64
313.173469965	128	103	64
313.274467925	144	82	65
313.291862344	144	103	82
313.301489795	128	82	64
313.354978054	128	103	64
313.388518677	144	82	65
313.406727414	144	90	69
313.465560841	144	21	115
313.465838938	128	21	64
313.472306498	144	103	84
313.47421815	128	90	64
313.483718488	128	82	64
313.518782145	128	103	64
313.554770022	144	82	66
313.65058504900003	128	82	64
313.65573379	144	103	86
313.724151194	128	103	64
313.774496559	128	53	64
313.80988765	144	21	115
313.810074942	128	21	64
313.826862261	144	90	77
313.855033142	128	90	64
313.861304376	144	103	89
313.904674868	128	103	64
314.022574403	144	103	90
314.093260629	128	103	64
314.189906554	144	21	113
314.191167761	128	21	64
314.200342839	144	90	98
314.224314898	144	103	90
314.251936894	128	90	64
314.302653075	128	103	64
314.42340718	144	103	93
314.468117133	128	103	64
314.536050983	144	21	112
314.536255858	128	21	64
314.546682215	144	53	67
314.575551236	144	100	56
314.576151403	144	90	104
314.605070331	144	103	95
314.630166969	144	82	67
314.636206878	128	90	64
314.651263341	128	103	64
314.653797351	128	100	64
314.700319271	128	82	64
314.773260855	144	82	68
314.803486846	144	103	95
314.84648097	144	21	112
314.846721132	128	21	64
314.850381303	128	103	64
314.867596498	128	82	64
314.880153572	128	26	64
314.914740613	128	53	64
314.930764353	144	90	114
314.938178322	144	82	68
315.005478316	144	103	97
315.007751178	128	90	64
315.050371864	128	103	64
315.082778937	128	82	64
315.189347737	144	103	99
315.204581268	144	21	115
315.214289396	128	21	64
315.252629839	128	103	64
315.287281321	144	53	65
315.324224627	144	90	122
315.387429727	128	90	64
315.388898857	144	103	103
315.389728414	128	53	64
315.434071138	128	103	64
315.567777169	144	21	113
315.570862227	128	21	64
315.57259499	144	103	108
315.594967169	144	53	63
315.636409873	128	103	64
315.752670095	144	90	104
315.753246625	144	103	111
315.779660003	144	87	108
315.819244263	128	103	64
315.822573912	128	90	64
315.844030189	144	21	117
315.844276255	128	21	64
315.864460499	128	65	64
315.946547854	144	82	67
315.95787536	144	103	114
315.992858658	128	53	64
316.017224168	128	82	64
316.023777584	128	103	64
316.026937456	144	100	64
316.079302823	128	100	64
316.088102238	144	82	70
316.12379232	144	90	84
316.154199693	144	21	124
316.154433006	128	21	64
316.162666378	144	103	115
316.169621118	128	90	64
316.18461824	128	82	64
316.203845538	128	103	64
316.240648471	144	82	70
316.339331407	144	103	115
316.385799929	128	103	64
316.400805932	128	82	64
316.496646491	144	53	59
316.505942317	128	53	64
316.52196586	144	103	117
316.540178538	144	90	58
316.552214087	144	21	120
316.552421825	128	21	64
316.574168544	128	90	64
316.591265108	128	103	64
316.729806829	144	103	123
316.785601225	128	103	64
316.873683365	144	90	48
316.892627793	144	21	120
316.89281816	128	21	64
316.903992982	128	90	64
316.905125261	144	103	127
316.935059719	144	26	127
316.940828451	128	87	64
316.967835079	128	103	64
317.088343141	144	103	127
317.135391509	128	103	64
317.223063341	144	21	120
317.22332915	128	21	64
317.287023741	144	103	127
317.3291272	144	82	67
317.331016633	144	53	63
317.334763757	128	103	64
317.379879353	144	100	70
317.38425598	144	87	115
317.398269999	128	82	64
317.472187455	144	82	69
317.486786563	144	103	127
317.555058082	128	103	64
317.567595086	128	82	64
317.567865208	144	21	120
317.56808302	128	21	64
317.59804196	128	53	64
317.70581169	144	103	127
317.747866578	144	82	67
317.750996462	128	103	64
317.800761968	128	82	64
317.895073707	144	21	119
317.895333147	128	21	64
317.904543044	144	103	127
317.947183654	144	53	62
317.966216353	128	103	64
318.121543974	144	103	127
318.168920057	128	103	64
318.263963728	128	53	64
318.309068487	144	21	120
318.309297029	128	21	64
318.356174343	128	100	64
318.431291012	144	103	127
318.451468378	128	103	64
318.655970683	144	21	120
318.656638793	128	21	64
318.660523611	144	90	52
318.705945906	128	90	64
318.740725724	144	33	109
318.747303678	144	100	70
318.762811509	144	103	127
318.78455351	128	103	64
318.810627173	128	33	64
318.913171053	144	82	67
318.96718857	128	82	64
319.017256413	144	21	118
319.018092774	128	21	64
319.055252255	144	82	69
319.150932995	128	82	64
319.177593321	144	103	127
319.195587776	144	90	70
319.200752156	128	103	64
319.211656527	128	90	64
319.353522853	144	33	114
319.415141204	144	21	119
319.415395663	128	21	64
319.421223303	128	33	64
319.512513536	144	82	68
319.51899705	128	82	64
319.592083712	144	90	86
319.618540861	128	100	64
319.65895371	128	90	64
319.713758532	144	103	127
319.734673447	128	103	64
319.759965067	144	21	119
319.760192418	128	21	64
319.895554065	128	26	64
320.009579286	144	90	100
320.058438126	144	100	64
320.07525406	128	90	64
320.116861155	144	21	118
320.122049616	128	21	64
320.284273594	144	103	127
320.303957027	144	33	110
320.318451271	128	103	64
320.408531092	128	33	64
320.409009239	144	90	117
320.466645121	144	21	118
320.4734198	128	90	64
320.474538113	128	21	64
320.540434531	128	100	64
320.540491841	144	100	66
320.561607713	128	87	64
320.612891985	128	100	64
320.779881482	144	82	68
320.809888229	144	90	127
320.83373448	128	82	64
320.860348654	144	21	119
320.860809522	128	21	64
320.875600333	128	90	64
320.906490628	144	33	109
320.941890791	144	87	114
320.944889994	144	103	125
320.985670678	128	103	64
320.991324869	128	33	64
321.17943716	144	82	68
321.219201223	144	21	118
321.222573204	128	21	64
321.226300897	144	90	127
321.234297962	128	82	64
321.292338304	128	90	64
321.475428582	144	100	66
321.546530972	144	82	68
321.584436525	144	21	118
321.584596347	128	21	64
321.617056313	128	82	64
321.643348725	144	90	108
321.679608645	144	103	125
321.700733229	128	103	64
321.709085901	128	90	64
321.841090451	144	33	109
321.878425291	128	87	64
321.92795191	128	33	64
321.928380826	144	29	120
321.929973461	144	82	68
321.977297837	144	21	118
321.97751037	128	21	64
321.979378082	128	29	64
322.017951537	128	82	64
322.051454271	144	26	62
322.059888792	144	90	90
322.093105339	128	90	64
322.102648886	144	87	119
322.187321517	128	100	64
322.330016692	144	82	69
322.344602733	144	21	117
322.344904528	128	21	64
322.400511395	128	82	64
322.406376967	144	33	109
322.478315233	144	90	72
322.485894426	144	103	123
322.507786699	128	33	64
322.509324887	128	90	64
322.517855461	128	103	64
322.545287157	144	82	69
322.584006961	128	82	64
322.641039308	144	100	66
322.672369616	144	82	71
322.688155598	144	21	117
322.68837766	128	21	64
322.735645435	128	82	64
322.822343927	144	82	72
322.893847272	144	90	56
322.90107065	128	82	64
322.942178685	128	90	64
322.971423812	144	82	71
322.97688897	128	87	64
323.051130914	128	82	64
323.067845029	144	21	118
323.070100729	128	21	64
323.155717996	144	82	70
323.24136337	128	100	64
323.299781059	128	82	64
323.323320075	144	33	109
323.335206917	144	87	118
323.360614267	144	90	36
323.36370479	144	103	122
323.393530135	128	90	64
323.394336006	144	21	119
323.398265235	128	21	64
323.417653764	128	103	64
323.4448458	144	82	69
323.468177441	128	33	64
323.500491895	128	82	64
323.663139214	144	82	71
323.733697462	128	82	64
323.775022113	144	21	118
323.77523722	128	21	64
323.83944627	144	33	109
323.896045899	144	82	70
323.964919177	144	100	64
323.984376277	128	82	64
323.986299485	128	33	64
324.06125364	128	87	64
324.123886328	128	100	64
324.158396699	144	21	118
324.159914709	128	21	64
324.230755196	144	82	67
324.262608383	128	26	64
324.334071897	128	82	64
324.396091817	144	103	122
324.408858668	144	29	120
324.414467858	128	29	64
324.450458065	128	103	64
324.466012455	144	21	119
324.466600351	128	21	64
324.518317876	144	87	120
324.84513238	144	21	117
324.84540274	128	21	64
324.86188806	144	90	38
324.889905719	144	33	113
324.891809225	128	90	64
325.033730634	128	33	64
325.124814437	144	100	65
325.193463444	144	21	118
325.195118235	128	21	64
325.279400632	144	90	58
325.344493721	128	90	64
325.423941857	144	33	108
325.555755924	144	21	114
325.556770306	128	21	64
325.581772537	128	33	64
325.603911372	128	100	64
325.703167072	144	90	73
325.798222137	128	90	64
325.860487505	144	103	117
325.882568358	144	21	112
325.883543032	128	21	64
325.907183724	128	103	64
325.954983494	144	82	55
326.03267827	128	82	64
326.120036656	144	90	81
326.177879504	128	90	64
326.259616453	144	21	112
326.263379038	128	21	64
326.391401982	144	33	110
326.491607911	128	33	64
326.52965815	144	90	93
326.595151177	128	90	64
326.625402361	144	21	113
326.628132355	128	21	64
326.652850279	144	100	60
326.94578223	144	90	96
326.946746159	144	82	78
326.960812533	128	87	64
326.991026388	144	33	111
327.024172821	144	21	115
327.02509796	128	21	64
327.03140977	128	90	64
327.09038347	128	82	64
327.109612107	128	100	64
327.135523659	128	33	64
327.137239439	144	87	124
327.337760592	144	90	108
327.365737263	144	21	118
327.3859351	128	21	64
327.3962899	144	82	77
327.408236385	128	90	64
327.467477942	128	82	64
327.494715414	144	103	113
327.542408819	128	103	64
327.677623904	144	21	118
327.679365432	128	21	64
327.717468092	144	90	116
327.763848429	144	82	76
327.816327865	128	90	64
327.937997688	128	29	64
327.97287102	144	100	62
327.992815648	128	82	64
328.039511385	144	33	109
328.048662469	144	21	113
328.055798284	128	21	64
328.061399523	128	87	64
328.109549642	144	90	122
328.115676512	128	100	64
328.141480582	128	33	64
328.179223387	144	82	77
328.198459672	128	90	64
328.251670845	144	87	119
328.324688523	128	82	64
328.412967754	144	21	105
328.413187841	128	21	64
328.513686027	144	90	127
328.546882513	144	82	78
328.598976212	128	90	64
328.63486337	144	33	110
328.764511674	144	21	97
328.764752707	128	21	64
328.800803615	128	33	64
328.824538824	128	82	64
328.947191704	144	90	111
328.980599496	144	82	76
328.995340395	128	90	64
329.085064266	144	100	63
329.138778308	144	21	97
329.138974578	128	21	64
329.16126592	128	87	64
329.186877042	128	100	64
329.330248803	144	103	116
329.373614685	128	103	64
329.380906023	144	90	88
329.446780859	128	90	64
329.469876759	144	87	124
329.482729732	144	21	93
329.487256212	128	21	64
329.708851569	144	33	112
329.744047265	144	90	75
329.8498655	128	90	64
329.867224603	128	33	64
329.867638441	128	82	64
329.879467138	144	21	93
329.879659651	128	21	64
329.971636725	144	90	102
329.979766253	128	90	64
330.035310919	144	90	91
330.09404079	128	90	64
330.146844136	144	90	109
330.177822248	128	90	64
330.179793834	144	82	76
330.207250954	144	21	93
330.208412612	128	21	64
330.229871255	144	90	90
330.277209924	128	90	64
330.325473119	144	33	110
330.328078971	128	87	64
330.347820536	144	90	109
330.360073976	128	90	64
330.41493326	144	90	91
330.442954894	128	90	64
330.483433631	128	33	64
330.489735451	144	69	87
330.514452746	144	90	95
330.528202484	128	90	64
330.589810328	144	21	93
330.589967971	128	21	64
330.618632485	144	87	120
330.673911372	128	69	64
330.684101996	144	90	92
330.728663127	128	90	64
330.766445199	144	90	74
330.810150501	128	90	64
330.830595226	144	90	91
330.877169716	128	90	64
330.913361105	144	90	70
330.939845948	128	82	64
330.96720261	144	21	96
330.967865715	128	21	64
330.973842393	144	100	55
330.97429464	128	26	64
330.97681643	128	90	64
331.015991115	144	90	82
331.046386045	144	53	68
331.06113811	128	100	64
331.127022464	128	90	64
331.147761846	144	90	80
331.16239045	144	82	71
331.244415026	128	90	64
331.251575871	144	90	64
331.294860167	128	90	64
331.3320959	144	90	72
331.343072821	128	90	64
331.353334567	144	21	91
331.35350777	128	21	64
331.367661873	128	53	64
331.398028308	144	90	63
331.444692136	128	90	64
331.461003104	128	87	64
331.498187311	144	90	95
331.527387865	128	90	64
331.56484166	144	90	77
331.612340251	128	90	64
331.707454739	144	103	120
331.710098496	144	21	89
331.710235252	128	21	64
331.743066063	128	82	64
331.750449369	144	90	72
331.758381152	128	103	64
331.779914832	128	90	64
331.797497399	144	90	94
331.803045231	144	87	108
331.859695669	128	90	64
331.896716892	144	90	63
331.911853338	144	82	76
331.960028906	128	90	64
331.996618639	144	90	81
332.027269606	128	90	64
332.079817493	144	90	59
332.081362626	144	21	92
332.081541897	128	21	64
332.127280201	128	90	64
332.179874874	144	90	81
332.19338935	128	90	64
332.224693943	128	82	64
332.227677988	128	87	64
332.247800323	144	90	60
332.311149137	128	90	64
332.351400492	144	90	77
332.377809082	128	90	64
332.39637469	144	82	79
332.414701082	144	90	61
332.430186054	144	21	92
332.430433701	128	21	64
332.449484296	144	53	59
332.479548738	128	90	64
332.518846119	144	90	78
332.56250085	128	90	64
332.61857658	144	87	97
332.618835261	144	90	62
332.618986465	128	87	64
332.620567265	128	90	64
332.620610826	144	90	87
332.625422773	128	82	64
332.644112079	128	90	64
332.652352137	144	87	106
332.705751316	128	87	64
332.76218903	144	87	107
332.790558398	128	87	64
332.79283004	144	21	94
332.792983702	128	21	64
332.802286548	128	53	64
332.816877157	144	87	104
332.86275937	144	82	74
332.876269496	128	87	64
332.899335546	144	87	110
332.92571305	128	87	64
333.016226784	144	87	113
333.029017192	128	82	64
333.038002182	128	87	64
333.08092123	144	87	105
333.082345342	144	90	43
333.109174669	128	87	64
333.13358957	128	90	64
333.137581534	144	21	92
333.138754747	128	21	64
333.170597466	144	87	107
333.208739821	128	87	64
333.228665933	144	87	114
333.263174564	144	82	64
333.286232951	128	87	64
333.321983596	144	87	105
333.34845969	128	87	64
333.372796472	144	90	62
333.392947206	144	33	80
333.409137527	128	82	64
333.430652207	144	87	109
333.443061334	128	33	64
333.450870484	128	90	64
333.454354325	128	87	64
333.486253948	144	87	115
333.500195924	144	21	93
333.500436056	128	21	64
333.538715239	128	87	64
333.562831055	144	87	104
333.588831701	128	87	64
333.632883672	144	87	111
333.653428559	128	87	64
333.684571532	144	87	106
333.69557973	144	82	66
333.704109242	128	87	64
333.738616908	144	87	110
333.785117096	128	82	64
333.785370472	144	90	68
333.816150425	144	53	64
333.816770137	128	87	64
333.819993853	144	87	103
333.831381692	128	90	64
333.852674838	128	87	64
333.861920148	144	21	96
333.86827096	128	21	64
333.890046944	144	103	123
333.902953038	144	87	107
333.922402699	144	33	102
333.92248326	128	33	64
333.922566391	144	33	69
333.924510673	128	87	64
333.951830842	144	87	102
333.95349065	128	103	64
333.9724009	128	87	64
333.973615196	128	33	64
334.001684263	144	87	111
334.02925092	144	82	67
334.055809042	128	87	64
334.08071525	144	87	99
334.100098651	128	53	64
334.102816712	128	87	64
334.118059536	128	82	64
334.118252376	144	90	82
334.158988069	144	87	107
334.177752996	128	90	64
334.179763845	128	87	64
334.190409669	144	21	96
334.190698721	128	21	64
334.205971045	144	82	72
334.213816467	144	87	97
334.238723583	128	87	64
334.244825825	144	53	65
334.289255651	128	82	64
334.293163844	144	87	111
334.319624328	128	87	64
334.350853546	144	87	100
334.374365042	128	87	64
334.388615479	144	82	75
334.419200232	144	87	110
334.432068886	128	82	64
334.456537836	128	87	64
334.498674275	144	21	98
334.498894629	128	21	64
334.503767859	144	87	103
334.517473832	144	90	78
334.525859904	128	87	64
334.537469002	144	87	110
334.568370586	128	90	64
334.576729663	144	82	69
334.577916585	128	87	64
334.582450044	128	82	64
334.620619195	144	87	103
334.639761108	144	33	67
334.642829219	128	87	64
334.665472764	128	53	64
334.671862597	144	82	69
334.701917371	144	87	110
334.706142352	128	33	64
334.715399716	128	82	64
334.726833279	128	87	64
334.729454379	144	87	104
334.756564488	128	87	64
334.800095202	144	87	114
334.822708504	144	82	81
334.881461366	144	90	81
334.882591391	128	87	64
334.885363524	128	82	64
334.886202971	144	87	100
334.897235385	144	21	98
334.899526661	128	21	64
334.925663467	128	87	64
334.928685315	144	87	116
334.929889553	128	90	64
334.947425748	144	53	62
335.030028159	144	82	41
335.084448694	128	82	64
335.12654809000003	144	33	48
335.157346856	128	33	64
335.174705766	144	82	58
335.19500105	144	33	84
335.250766775	144	90	82
335.25099635	128	82	64
335.265595931	128	87	64
335.265662304	144	87	90
335.273244966	128	33	64
335.306748273	144	21	99
335.31342993	128	90	64
335.31734603	128	21	64
335.321081519	128	87	64
335.331195055	128	53	64
335.371403733	144	87	111
335.371586849	144	82	52
335.412184085	128	87	64
335.421859835	144	87	90
335.435634439	128	82	64
335.43861948	128	87	64
335.467174048	144	87	108
335.520574362	128	87	64
335.59621862	144	82	63
335.613666256	144	87	110
335.616357575	144	90	82
335.634932559	128	82	64
335.653102063	144	21	97
335.654330318	128	21	64
335.666643181	128	90	64
335.673061045	128	87	64
335.697247031	144	87	92
335.719117099	128	87	64
335.722437401	144	82	67
335.798586618	144	87	110
335.817767191	128	82	64
335.828030164	128	87	64
335.834410083	144	87	95
335.856081467	128	87	64
335.899716836	144	87	113
335.904767575	144	82	64
335.959424856	144	33	98
335.969089393	128	82	64
335.983267465	128	87	64
335.986614986	144	87	95
335.99086866	128	87	64
336.011162817	128	33	64
336.016935388	144	90	73
336.01811469	144	53	64
336.027933335	144	87	115
336.034717631	128	90	64
336.052937919	144	21	95
336.053173268	128	21	64
336.054632862	144	82	63
336.089851686	128	87	64
336.119188575	128	82	64
336.120468643	144	87	93
336.142462098	128	87	64
336.176787272	144	87	115
336.190587235	144	82	76
336.222949026	128	87	64
336.267366384	128	82	64
336.272468029	144	87	101
336.296183642	128	87	64
336.324637371	144	33	65
336.327075299	144	82	77
336.336763401	144	87	120
336.366899119	128	53	64
336.372074035	128	87	64
336.385311605	144	90	81
336.391561823	128	33	64
336.393748482	144	87	106
336.397500689	144	21	95
336.401370153	128	21	64
336.40248174	128	82	64
336.413407	144	103	127
336.416130566	128	90	64
336.422782568	128	87	64
336.43016165	144	33	95
336.441001549	144	82	64
336.442838148	128	103	64
336.46961548	144	87	113
336.506731609	128	87	64
336.507422459	128	33	64
336.519147963	128	82	64
336.528805442	144	87	102
336.574898476	144	82	60
336.575455042	128	87	64
336.62403718	144	87	113
336.652530986	128	82	64
336.656051761	128	87	64
336.688440894	144	87	100
336.706935399	144	82	58
336.711197291	128	87	64
336.736506029	144	90	78
336.753703223	144	87	113
336.758148717	144	21	95
336.75996014	128	21	64
336.76771664	128	90	64
336.767985769	128	82	64
336.789458926	128	87	64
336.824348706	144	82	65
336.839190335	144	87	99
336.860231998	128	87	64
336.877401884	144	87	114
336.917311929	128	82	64
336.922797811	128	87	64
336.953067783	144	87	99
336.972429025	128	87	64
336.9934267	144	82	67
337.018406941	144	87	116
337.03326952	128	82	64
337.056300036	128	87	64
337.107454562	144	82	65
337.109022925	144	87	98
337.11689675	144	21	95
337.121410804	128	21	64
337.127942854	128	87	64
337.129847358	144	90	77
337.147424361	144	87	116
337.15797042	144	33	95
337.166788117	128	90	64
337.185550181	128	82	64
337.207586422	128	87	64
337.23090566	144	87	94
337.241326676	144	82	76
337.256442941	128	87	64
337.260387322	128	33	64
337.292059305	144	87	108
337.321933681	128	82	64
337.333020457	144	69	18
337.405560899	144	82	80
337.46080675	128	87	64
337.469099196	128	69	64
337.469468547	128	82	64
337.482279048	144	21	96
337.482546005	128	21	64
337.488789947	144	87	68
337.52535982	144	82	65
337.532255759	128	87	64
337.535239889	144	90	89
337.544149342	144	69	20
337.566731056	128	90	64
337.582677135	128	82	64
337.589587201	144	87	70
337.621332948	128	87	64
337.626117842	128	69	64
337.642681174	144	33	61
337.656468364	144	82	62
337.669169998	144	87	32
337.674415527	128	33	64
337.692317572	128	87	64
337.69382338	144	69	26
337.719257886	128	82	64
337.73052012	144	33	90
337.760225477	128	69	64
337.761635283	144	87	36
337.800393657	128	87	64
337.804443007	144	82	54
337.805560348	144	87	14
337.806176814	128	33	64
337.82630112	128	87	64
337.826998137	144	69	35
337.844688244	144	21	96
337.844889749	128	21	64
337.865727332	128	82	64
337.870182863	144	87	29
337.907073178	128	87	64
337.918322044	144	22	2
337.925022967	144	82	55
337.926192801	128	69	64
337.952329031	144	87	7
337.967791098	144	90	82
337.969256739	128	87	64
337.982424588	128	82	64
337.987529721	144	69	42
338.000124112	128	90	64
338.003129768	144	87	31
338.042475413	144	94	123
338.045230621	128	87	64
338.066316726	144	87	13
338.072039978	144	82	56
338.089224613	128	87	64
338.09652171	128	94	64
338.110088848	128	69	64
338.118412749	128	82	64
338.140474093	144	87	33
338.16817855	144	69	49
338.172555182	128	87	64
338.205044342	144	82	54
338.217013075	144	87	17
338.240746281	128	87	64
338.242478858	144	21	101
338.242641676	128	21	64
338.250844862	128	82	64
338.285009874	144	87	40
338.291037373	128	69	64
338.325765182	128	87	64
338.338415391	144	69	54
338.338621691	144	82	57
338.352318656	144	87	19
338.377357175	128	87	64
338.385237863	144	90	81
338.402241323	128	82	64
338.416471098	128	90	64
338.419666042	144	87	43
338.449324665	128	69	64
338.455050361	128	87	64
338.484575544	144	87	27
338.488174503	144	82	60
338.521999498	144	69	59
338.531998108	128	82	64
338.538978786	128	87	64
338.547493195	128	22	64
338.551793717	144	21	98
338.552585141	128	21	64
338.562045798	144	87	47
338.580603959	144	103	127
338.592509465	128	103	64
338.593177416	144	33	95
338.605013773	128	87	64
338.622100442	144	82	56
338.634253272	128	69	64
338.636425695	144	87	28
338.654989721	128	87	64
338.676043459	128	33	64
338.685930901	128	82	64
338.69402197	144	69	65
338.696149548	144	87	48
338.738688184	128	87	64
338.755990339	144	90	81
338.756672048	144	82	56
338.761463381	144	87	29
338.786127444	128	87	64
338.797670989	128	90	64
338.81293831	128	69	64
338.833924859	128	82	64
338.845442316	144	87	46
338.861268624	144	69	72
338.885231851	128	87	64
338.909371164	144	53	67
338.920617368	144	87	30
338.922336626	144	82	66
338.930231207	144	21	99
338.931166204	128	21	64
338.977081078	128	87	64
338.981134529	144	87	50
338.985614658	128	82	64
338.986605785	128	69	64
339.021151585	128	87	64
339.053914495	144	69	74
339.057736829	144	33	69
339.072114301	144	82	80
339.074235607	144	87	53
339.10831194	128	33	64
339.140608984	128	87	64
339.15062014	128	82	64
339.152317286	144	90	77
339.156914445	128	69	64
339.167545047	128	53	64
339.178458569	144	33	94
339.184129617	128	90	64
339.186990625	144	87	37
339.208757463	144	94	114
339.211263898	128	87	64
339.221705198	144	82	52
339.243795136	144	69	74
339.253247479	144	87	63
339.274827275	128	33	64
339.279511313	128	94	64
339.285802711	128	82	64
339.289413341	144	21	98
339.292364556	128	21	64
339.294709725	128	87	64
339.298319586	144	87	42
339.311907703	144	53	66
339.322378632	128	87	64
339.356783752	128	69	64
339.367104903	144	87	63
339.385940891	144	22	127
339.388382068	144	82	58
339.407266558	128	53	64
339.431960096	144	69	74
339.452224669	128	82	64
339.461379576	128	87	64
339.468067492	144	87	43
339.471926438	128	87	64
339.532168868	144	87	72
339.538229399	144	82	61
339.553740716	128	87	64
339.564236989	128	69	64
339.579312768	144	90	78
339.59785869	128	90	64
339.603214969	128	82	64
339.615656003	144	69	74
339.638414069	144	21	100
339.638826838	128	21	64
339.646019638	144	87	78
339.66575329	144	53	70
339.70477845	144	82	50
339.737541528	128	69	64
339.749119819	128	82	64
339.757956669	128	53	64
339.795044837	128	87	64
339.795339524	144	87	48
339.795606602	128	87	64
339.808778779	144	69	75
339.82344426	144	87	74
339.838862288	144	82	67
339.856999823	128	87	64
339.899928875	144	87	47
339.917666978	128	82	64
339.920568188	128	87	64
339.929936421	128	69	64
339.965382142	144	87	66
339.977348442	144	33	95
339.990261167	128	87	64
339.994098471	144	69	76
339.999741962	144	53	67
340.001990879	144	21	98
340.002499827	128	21	64
340.005043648	144	90	76
340.006515445	144	82	31
340.017587985	128	90	64
340.027196805	128	33	64
340.069143351	128	82	64
340.106128869	128	69	64
340.134209083	144	87	68
340.141440622	128	87	64
340.141501894	144	87	35
340.163988783	128	53	64
340.190479088	144	69	77
340.202547036	128	87	64
340.229857863	144	82	76
340.26773752	144	87	63
340.26895701	128	82	64
340.276539869	144	103	127
340.296770638	144	21	98
340.303359164	128	69	64
340.303914487	128	87	64
340.307010743	128	21	64
340.307209726	144	87	33
340.355439964	128	87	64
340.360764129	128	103	64
340.371579422	144	82	47
340.373910429	144	69	77
340.37583924	144	53	68
340.393637778	144	87	44
340.411669065	144	90	70
340.415469641	128	82	64
340.458986736	144	33	61
340.466749236	128	90	64
340.468764891	128	87	64
340.468842699	144	87	30
340.49609977	128	69	64
340.509001421	128	33	64
340.522790642	144	82	55
340.566080907	128	82	64
340.569302768	144	33	93
340.574248698	144	69	79
340.613237051	128	87	64
340.633272437	144	87	48
340.650690719	144	94	119
340.655204665	144	82	58
340.657509712	128	33	64
340.676942031	144	21	99
340.677771115	128	21	64
340.689888114	128	69	64
340.691890896	128	87	64
340.695191812	144	87	31
340.719189719	128	82	64
340.74735954	144	69	78
340.752945054	128	87	64
340.76790096	128	53	64
340.796164622	128	94	64
340.8050511	144	82	59
340.817105323	144	87	50
340.819467654	144	90	67
340.837220604	128	87	64
340.849033434	128	82	64
340.856882542	128	69	64
340.860182934	144	87	29
340.867128959	128	90	64
340.907660584	128	87	64
340.916931105	144	69	78
340.936938545	144	100	42
340.938550964	144	82	62
340.950435515	144	87	48
340.974789447	128	87	64
341.003064573	128	82	64
341.017733688	144	87	24
341.031311483	128	100	64
341.036746122	128	69	64
341.042106533	128	87	64
341.087263869	144	87	43
341.088764834	144	21	99
341.089854457	128	21	64
341.105251765	144	82	61
341.11115745	144	69	80
341.112608911	128	87	64
341.151850897	144	100	40
341.156482991	144	87	25
341.169030899	128	82	64
341.18252424	128	87	64
341.197204621	144	87	45
341.201297758	128	100	64
341.219963787	144	90	72
341.234788226	128	69	64
341.24178978	128	87	64
341.251908009	128	90	64
341.255126008	144	82	59
341.285338679	144	87	26
341.295645023	144	69	80
341.306069278	128	87	64
341.313844649	144	87	46
341.321208381	128	82	64
341.373609358	128	87	64
341.384993711	144	21	99
341.385972664	128	21	64
341.40553127	144	82	59
341.416947407	128	69	64
341.420076336	144	100	41
341.450690511	144	87	47
341.464043111	128	100	64
341.484081729	128	82	64
341.493300821	144	69	81
341.494769693	128	87	64
341.499347788	144	87	26
341.537413328	128	87	64
341.55686777	144	100	39
341.572393549	144	82	56
341.582862023	128	69	64
341.597298379	144	87	49
341.597443925	128	100	64
341.620450306	144	90	73
341.636112222	128	82	64
341.640032461	128	87	64
341.652446857	128	90	64
341.668468322	144	87	29
341.672131019	144	69	82
341.681023548	128	22	64
341.686588738	128	87	64
341.719852171	144	87	52
341.722936244	144	82	53
341.742620576	144	100	40
341.744965947	128	87	64
341.761932565	128	69	64
341.763269562	144	21	99
341.767295644	128	21	64
341.786907228	144	87	33
341.791697876	128	82	64
341.807814757	128	87	64
341.839609823	128	100	64
341.848674852	144	69	85
341.872088416	144	82	52
341.906514075	144	100	39
341.944321189	144	90	80
341.950814362	128	82	64
341.961132937	128	69	64
341.98153627	128	100	64
342.001744559	144	87	71
342.00382947	128	90	64
342.022676687	128	87	64
342.03188251	144	69	85
342.038534971	144	82	57
342.078345739	144	87	53
342.078524194	144	100	42
342.090038261	144	21	98
342.093029647	128	21	64
342.10280336	128	82	64
342.107805351	128	87	64
342.125705891	144	94	116
342.14513135	128	69	64
342.150863594	144	87	80
342.186439085	128	100	64
342.188655233	128	87	64
342.196234006	128	94	64
342.205310907	144	82	54
342.21634688	144	87	58
342.229901554	144	69	85
342.268727544	128	87	64
342.26939928	128	82	64
342.306019813	144	87	85
342.316861138	144	100	44
342.336710957	128	69	64
342.336925022	144	90	83
342.337796445	128	87	64
342.355123067	144	82	49
342.367287509	144	87	66
342.381293048	128	100	64
342.385251734	128	90	64
342.390098213	128	87	64
342.414312015	144	69	85
342.41910925	128	82	64
342.434090917	144	87	94
342.458227608	144	100	45
342.473657039	128	87	64
342.485181591	128	100	64
342.485380277	144	22	126
342.501077529	144	87	78
342.516384393	128	69	64
342.538627239	128	87	64
342.564535308	144	87	106
342.564809969	144	82	48
342.589688577	144	100	46
342.606269991	128	87	64
342.611527659	144	69	83
342.621423501	128	100	64
342.630032043	144	87	89
342.650856966	128	82	64
342.65192725	128	87	64
342.677773413	144	87	117
342.693401514	144	90	83
342.715352824	128	69	64
342.736140215	144	100	45
342.750801999	128	90	64
342.762310414	128	87	64
342.763316677	128	100	64
342.76661815	144	87	101
342.781643281	128	22	64
342.78633289	144	69	84
342.795028292	144	82	54
342.805054189	128	87	64
342.827265591	144	87	125
342.827552848	144	100	45
342.870856353	128	100	64
342.884049468	128	82	64
342.887978257	128	69	64
342.906642822	128	87	64
342.929586577	144	87	88
342.973211709	128	87	64
342.979403683	144	100	49
342.979747521	144	69	84
343.031913002	144	82	55
343.033722977	128	100	64
343.061582345	144	90	83
343.084444553	128	69	64
343.118817223	144	87	15
343.119914638	128	90	64
343.126189258	144	100	48
343.138607587	128	87	64
343.159270103	144	87	34
343.16924605	128	100	64
343.175412534	128	82	64
343.177530815	144	69	85
343.218797746	128	87	64
343.252904061	144	87	19
343.276385449	144	100	48
343.283369617	128	69	64
343.290398755	128	87	64
343.31974889	144	82	51
343.323206966	128	100	64
343.331564126	144	87	26
343.361817984	144	69	85
343.425968847	128	87	64
343.427554954	144	100	47
343.427977349	144	87	14
343.452166852	128	87	64
343.461695456	128	69	64
343.461939446	144	90	84
343.478655033	128	100	64
343.484701683	128	90	64
343.490649724	128	82	64
343.52453463	144	94	111
343.532943706	144	87	43
343.547396026	144	69	86
343.576867435	128	87	64
343.576942109	144	87	7
343.596299616	144	100	46
343.596913363	128	94	64
343.635709056	144	82	54
343.639161223	128	87	64
343.645354105	128	69	64
343.65470157	128	100	64
343.719122949	144	87	21
343.731366119	144	69	86
343.734099362	128	82	64
343.791336638	128	87	64
343.794851768	144	87	16
343.807782071	144	100	46
343.822245891	144	90	85
343.837051219	128	69	64
343.852261431	128	90	64
343.854529106	128	87	64
343.879743395	128	100	64
343.893380608	144	53	68
343.916718354	144	69	87
343.930966839	144	87	29
343.946188951	144	82	59
343.951769797	144	22	123
343.985436344	128	87	64
343.997461906	144	100	46
344.014728042	144	87	14
344.02242046	128	69	64
344.056612557	128	87	64
344.109587882	128	82	64
344.116179787	144	69	87
344.13482783	144	87	27
344.151563484	128	100	64
344.162946782	144	90	84
344.164200422	128	22	64
344.170850698	128	87	64
344.170922598	144	87	13
344.182618678	144	100	46
344.18473456	128	53	64
344.218549755	128	90	64
344.220727522	128	69	64
344.24472182	128	100	64
344.280534796	144	82	58
344.297500486	144	69	87
344.327950924	128	87	64
344.35113277	144	100	45
344.387011084	128	69	64
344.440948646	128	100	64
344.493597068	144	69	87
344.524890571	128	82	64
344.545425344	144	90	87
344.559222302	144	100	44
344.586308625	128	90	64
344.608653478	128	69	64
344.61469405	128	100	64
344.67996594	144	82	59
344.707549179	144	69	90
344.717976431	144	53	62
344.826640225	128	69	64
344.87486195500003	128	82	64
344.902804296	144	100	34
344.921763214	144	90	92
344.967222991	128	100	64
344.967598001	128	90	64
345.025803296	144	94	120
345.085317465	128	53	64
345.096407011	128	94	64
345.112513877	144	82	65
345.148875875	144	100	35
345.222404216	128	100	64
345.256153826	144	90	89
345.30128973	128	90	64
345.326160591	128	82	64
345.384237546	144	87	43
345.392153224	128	87	64
345.396963329	144	87	26
345.405261235	144	100	34
345.44976025	128	87	64
345.452632353	144	87	38
345.484624158	128	100	64
345.525581405	128	87	64
345.528849078	144	87	22
345.561077371	128	87	64
345.600227398	144	87	47
345.653468975	144	90	84
345.656934277	128	87	64
345.664193015	144	82	60
345.68080304	144	87	42
345.682205657	144	100	36
345.687499459	128	90	64
345.705177686	128	87	64
345.712816283	128	100	64
345.720232816	144	87	61
345.785504423	144	22	63
345.793623685	128	87	64
345.797175464	144	87	57
345.823307228	128	87	64
345.865675999	144	87	88
345.944718409	144	100	34
345.954240396	128	87	64
345.954279044	144	87	92
345.990781601	128	87	64
345.990857328	144	87	113
346.024746909	128	100	64
346.057425378	144	90	82
346.104989216	128	90	64
346.109129942	128	82	64
346.134867928	128	87	64
346.152561815	144	87	127
346.240119296	128	87	64
346.240211048	144	87	74
346.316335776	144	100	35
346.384593164	128	100	64
346.391897179	128	87	64
346.391975035	144	87	21
346.442510826	144	90	84
346.463476006	144	82	63
346.484568986	128	90	64
346.492509978	144	94	113
346.546609456	128	94	64
346.737115509	144	100	34
346.811985618	128	87	64
346.830438432	128	100	64
346.86082695	144	90	83
346.906370755	128	90	64
346.90830214	128	82	64
347.018483065	144	87	54
347.019154416	128	87	64
347.050923823	144	87	53
347.093058412	128	87	64
347.09320911	144	33	10
347.117519102	144	87	94
347.160923172	128	33	64
347.203537726	128	87	64
347.203601804	144	87	104
347.206867454	144	100	42
347.272445095	128	100	64
347.294524618	128	87	64
347.304948016	144	87	127
347.348742876	144	82	56
347.377192347	128	87	64
347.377258952	144	87	127
347.425491701	128	87	64
347.425552871	144	87	97
347.659557975	144	100	52
347.676381541	144	33	17
347.688471756	128	100	64
347.776755319	128	33	64
347.778643859	128	87	64
347.808589527	128	82	64
347.932382823	144	100	54
348.034372249	128	100	64
348.059014516	144	94	114
348.098143944	128	94	64
348.138486507	144	100	57
348.181262923	128	100	64
348.196350442	144	82	53
348.328468743	144	100	56
348.374045689	128	100	64
348.375384981	144	90	62
348.405970604	128	90	64
348.447568603	144	90	82
348.460189919	128	90	64
348.505757143	144	100	59
348.509267199	144	90	65
348.552018785	128	100	64
348.553539572	128	90	64
348.558022413	144	90	83
348.658402264	128	82	64
348.718050925	144	100	68
348.720982905	128	90	64
348.779382872	128	100	64
348.880201454	144	82	63
348.886623903	144	53	63
348.897092918	128	53	64
348.897188485	144	53	55
348.969397897	144	100	69
349.008737578	128	53	64
349.051682278	144	53	65
349.070138952	128	100	64
349.124700251	128	53	64
349.13373359	144	53	54
349.190792195	128	53	64
349.19149899	128	82	64
349.198468161	144	100	75
349.238250699	128	100	64
349.279481346	144	53	58
349.280482087	144	33	10
349.307556611	128	53	64
349.340215833	144	100	85
349.348590695	128	22	64
349.349011525	144	82	36
349.360485484	128	33	64
349.400107851	128	100	64
349.428422487	144	22	26
349.471738617	128	22	64
349.493242384	128	82	64
349.533911161	144	100	88
349.60354168	128	100	64
349.641955512	144	94	116
349.713153616	128	94	64
349.714234018	144	82	67
349.749793068	144	100	98
349.752167474	144	53	46
349.758548689	128	53	64
349.777870926	128	100	64
349.876352224	144	33	15
349.912317991	128	82	64
349.926474606	128	33	64
349.981405012	144	100	104
350.003324557	128	100	64
350.007810316	144	90	76
350.054802012	128	90	64
350.094912124	144	82	51
350.101072007	144	22	22
350.128921135	144	90	67
350.153327505	144	100	110
350.173829215	128	22	64
350.187630488	128	90	64
350.209418537	128	100	64
350.24287246	128	82	64
350.298322991	144	90	74
350.317540315	144	53	32
350.342253723	128	53	64
350.357218899	128	90	64
350.397177142	144	82	27
350.4485657	144	90	77
350.493248536	144	53	26
350.501678977	128	82	64
350.50710276	128	90	64
350.508304083	128	53	64
350.578998709	144	53	21
350.640604674	128	53	64
350.6636964	144	82	59
350.684038715	144	22	23
350.728731626	144	53	12
350.73405984	128	82	64
350.790718603	128	53	64
350.825968237	144	33	24
350.864039611	128	33	64
350.876519826	144	53	10
350.880980156	144	82	53
350.940115801	128	53	64
350.950830055	128	82	64
351.009909584	144	53	6
351.010776164	144	33	24
351.042518064	128	33	64
351.055235007	144	82	64
351.073066008	128	53	64
351.150596947	128	82	64
351.161294865	144	53	6
351.187833975	144	33	27
351.207957311	128	53	64
351.210892617	128	33	64
351.295070805	144	53	6
351.296371216	144	33	26
351.312989188	144	82	61
351.325335592	144	94	111
351.341227068	128	53	64
351.364797613	128	94	64
351.374825859	128	33	64
351.384195969	128	82	64
351.427836626	144	53	7
351.464629262	144	33	28
351.488626731	144	82	57
351.491359892	128	53	64
351.541443415	128	33	64
351.560260123	144	53	7
351.624131125	128	53	64
351.631395212	144	33	26
351.631933772	128	82	64
351.695505221	144	53	9
351.727085146	128	33	64
351.749803055	144	90	71
351.757635501	128	53	64
351.757908702	128	90	64
351.775841731	144	82	56
351.779242172	144	33	25
351.834375951	128	82	64
351.846000571	144	53	24
351.85739263	128	33	64
351.892371787	128	53	64
351.893461539	144	90	77
351.937984742	128	90	64
351.944622671	128	87	64
351.978241452	144	53	31
351.978472463	144	82	53
352.024755351	128	53	64
352.041679752	144	90	75
352.050626593	128	82	64
352.106004818	128	90	64
352.128067249	144	53	35
352.157266546	128	53	64
352.176138497	144	90	76
352.196802037	144	82	53
352.212372502	128	22	64
352.241057346	128	90	64
352.26430742	144	53	38
352.26751082	128	82	64
352.309604864	128	53	64
352.394975358	144	53	44
352.410856695	144	82	53
352.439843808	128	53	64
352.450845836	128	82	64
352.528941	144	53	51
352.554592359	144	82	54
352.573479465	128	53	64
352.651305089	128	82	64
352.659815921	144	53	54
352.72380779	128	53	64
352.738622436	144	82	53
352.811538248	144	53	61
352.834449499	128	82	64
352.859615839	128	53	64
352.921974917	144	82	51
352.945706878	144	53	62
352.992206154	128	53	64
352.992538518	144	69	58
353.017758846	128	82	64
353.095026495	144	53	67
353.105016259	144	82	52
353.110964524	144	100	15
353.122016556	128	100	64
353.135658817	144	22	24
353.138693371	128	69	64
353.141124876	128	53	64
353.200678078	128	82	64
353.222382473	144	103	127
353.248421999	144	53	74
353.272168908	144	82	52
353.290425212	128	53	64
353.33353719	144	100	20
353.367379618	128	82	64
353.378708606	128	100	64
353.393680636	144	53	77
353.399615864	128	103	64
353.438567459	144	82	51
353.440196826	128	53	64
353.484138906	144	100	24
353.528210941	144	53	78
353.572530111	128	100	64
353.57343348	128	53	64
353.580681571	128	82	64
353.65534672	144	82	54
353.695417014	144	100	31
353.71894026	144	53	83
353.741773785	128	53	64
353.750806273	128	82	64
353.75520599	128	100	64
353.810266452	144	90	64
353.841613012	128	90	64
353.84512299	144	53	92
353.889982809	128	53	64
353.895988485	144	82	54
353.902972838	144	100	41
353.9462493	128	100	64
353.966794733	144	90	70
353.967797973	128	82	64
354.025212133	128	90	64
354.028039701	144	53	105
354.041407795	144	100	54
354.090249	128	53	64
354.102634116	128	100	64
354.111275719	144	82	56
354.135171108	144	90	73
354.150946964	128	82	64
354.178394469	128	90	64
354.202534352	144	100	62
354.236644926	144	53	105
354.246875752	128	100	64
354.255257012	144	82	56
354.282352309	144	90	75
354.290792864	128	53	64
354.325426805	128	90	64
354.349749535	144	100	69
354.385512877	128	100	64
354.398056748	128	82	64
354.439546961	144	53	109
354.455488328	144	82	57
354.484933502	144	100	76
354.493327107	128	53	64
354.533659639	128	100	64
354.551184553	128	82	64
354.625356454	144	100	83
354.668858698	128	100	64
354.689578179	144	53	127
354.747526273	144	82	57
354.773147746	144	100	92
354.775160556	128	53	64
354.836075595	128	100	64
354.850792223	128	82	64
354.910890909	144	100	97
354.968022277	128	100	64
355.078487302	144	100	101
355.118314645	128	100	64
355.1418245	144	33	10
355.151812095	128	33	64
355.21359963	128	22	64
355.234695845	144	100	107
355.252742496	144	33	10
355.284832267	128	100	64
355.323216931	144	69	72
355.326770394	128	33	64
355.385843496	144	100	115
355.418989008	144	33	7
355.455224123	128	100	64
355.493898094	128	33	64
355.529909907	144	82	54
355.585618514	144	33	9
355.608912724	128	69	64
355.618412361	128	82	64
355.659510455	128	33	64
355.730582315	144	33	12
355.815095614	128	33	64
355.879178708	144	33	14
355.902160792	144	22	12
355.958982945	128	33	64
355.993293963	144	53	117
356.021533931	144	90	69
356.02841752	144	33	17
356.047376457	128	53	64
356.064378983	128	22	64
356.074593384	128	90	64
356.108086821	128	33	64
356.158941285	144	90	72
356.191535896	144	53	126
356.19536495	144	33	18
356.225764805	128	53	64
356.243418463	128	90	64
356.274573888	128	33	64
356.330421531	144	90	73
356.345269772	144	33	20
356.362163786	144	82	54
356.38384802	144	22	28
356.389998585	144	53	127
356.390234873	128	90	64
356.425251365	128	33	64
356.460860208	144	90	69
356.497316116	144	33	23
356.506986952	128	82	64
356.527043643	128	22	64
356.544592918	128	90	64
356.575706582	128	33	64
356.611164602	144	90	71
356.647394823	144	33	24
356.712854731	128	90	64
356.724428957	128	33	64
356.783675366	144	90	74
356.79535282	144	33	27
356.841461157	128	90	64
356.874536277	128	33	64
356.964040339	144	33	31
357.024589064	128	33	64
357.035183613	144	90	85
357.075035555	128	90	64
357.168614013	144	33	33
357.192468111	128	33	64
357.26509353	144	33	35
357.341290738	128	33	64
357.414399493	144	33	37
357.475694721	128	33	64
357.540788812	144	100	15
357.564628525	144	33	39
357.616932668	128	100	64
357.641290186	128	33	64
357.665213168	144	90	63
357.677635551	128	90	64
357.680747131	144	82	56
357.714221351	144	33	41
357.722034267	144	22	109
357.758483661	128	22	64
357.76064655	144	90	68
357.791389937	128	33	64
357.79980617	144	100	19
357.81681898	128	100	64
357.824650198	128	90	64
357.82513067	128	82	64
357.864604809	144	33	41
357.878031822	144	90	66
357.942281306	128	33	64
357.96229912	128	90	64
357.97418619	144	100	22
358.030693538	144	90	71
358.031121406	144	33	44
358.033569543	128	100	64
358.091825806	128	33	64
358.108230756	128	90	64
358.150681762	144	69	86
358.162949894	128	69	64
358.163001168	144	69	1
358.164237057	144	33	46
358.16790145	144	100	33
358.168968701	128	53	64
358.201033048	128	100	64
358.242135201	128	33	64
358.316225003	144	100	40
358.330445719	144	33	50
358.365737877	128	100	64
358.408295189	128	33	64
358.447160044	128	69	64
358.453596372	144	100	47
358.478948296	144	33	53
358.529885707	144	82	57
358.534028507	128	100	64
358.558762908	128	33	64
358.60100396	144	53	17
358.624516035	144	100	54
358.636006157	144	33	55
358.637645646	128	82	64
358.642857459	128	53	64
358.674828626	128	100	64
358.708816694	128	33	64
358.790199024	144	100	66
358.803172849	144	33	58
358.830095745	128	100	64
358.859560033	128	33	64
358.873557712	144	53	33
358.917439395	144	100	77
358.941860675	128	53	64
358.947837925	144	33	60
358.9798611	144	103	125
359.024739882	128	33	64
359.085496296	128	100	64
359.086760349	144	100	16
359.087047154	128	100	64
359.087095074	144	100	89
359.090169635	144	53	39
359.10676497	128	103	64
359.113343392	144	33	66
359.176473568	128	53	64
359.191482431	128	33	64
359.219705856	128	100	64
359.219766077	144	100	98
359.263680309	144	33	73
359.324510246	144	53	55
359.329665683	144	82	56
359.341395239	128	33	64
359.376065872	144	90	47
359.379302127	128	100	64
359.379349467	144	100	103
359.414749415	144	33	76
359.426671083	128	53	64
359.474453544	128	82	64
359.491600603	128	33	64
359.539187837	128	100	64
359.539252219	144	100	110
359.564805946	144	33	80
359.580083527	128	90	64
359.590182245	144	53	68
359.636100701	144	22	13
359.642523474	128	33	64
359.678244999	128	53	64
359.714543006	144	33	84
359.752050841	128	100	64
359.752104209	144	100	114
359.775888923	128	33	64
359.822199027	144	53	83
359.826552155	128	100	64
359.826599788	144	100	114
359.866568192	144	33	89
359.909598429	128	53	64
359.935597354	128	100	64
359.942183964	128	33	64
360.016723198	144	33	95
360.065797361	144	53	99
360.092151045	128	33	64
360.142178739	128	53	64
360.163745847	144	33	100
360.192467667	144	94	127
360.219493702	128	94	64
360.242222866	128	33	64
360.298228995	144	90	83
360.307338009	144	53	119
360.314329172	144	33	103
360.39218206	128	33	64
360.393377741	128	53	64
360.464848939	144	33	111
360.54172881	128	33	64
360.581819633	144	53	127
360.614379517	144	33	117
360.681490427	128	22	64
360.692259815	128	33	64
360.710827959	128	90	64
360.764577428	144	33	125
360.819283733	128	53	64
360.826283817	128	33	64
360.915092513	144	33	123
360.928076552	144	69	109
360.963399278	144	82	61
360.991691329	128	33	64
361.078965453	144	53	71
361.08125425	144	33	123
361.108414953	128	82	64
361.141823073	128	33	64
361.163158637	144	90	96
361.231559283	144	33	123
361.291717856	128	33	64
361.33069766	144	82	62
361.380071042	144	33	122
361.385424858	128	53	64
361.437662269	128	69	64
361.458699261	128	33	64
361.476611595	128	82	64
361.530780558	144	33	120
361.599554075	128	90	64
361.609068165	128	33	64
361.682097972	144	33	118
361.747192151	144	82	63
361.752342678	144	53	9
361.758840662	128	33	64
361.835892727	128	82	64
361.851924646	144	33	119
361.909651315	128	33	64
361.981736905	144	33	114
362.007342746	144	94	121
362.047985417	128	94	64
362.075641513	128	33	64
362.134282304	144	33	113
362.186251486	128	53	64
362.208225041	128	33	64
362.263706339	144	82	65
362.280985325	144	33	108
362.293221441	144	100	7
362.300312856	144	90	88
362.33119834	144	53	29
362.34921278	128	100	64
362.350187874	128	90	64
362.350235799	144	90	1
362.351782791	128	82	64
362.358297917	128	33	64
362.431325328	144	33	104
362.498722665	144	100	16
362.509028139	128	33	64
362.514824022	128	100	64
362.565369832	144	33	100
362.616946911	144	100	28
362.658444079	128	33	64
362.709964295	128	100	64
362.716111755	144	33	96
362.761982935	144	82	65
362.782891704	128	90	64
362.786551982	144	100	33
362.80892694	128	33	64
362.85265801	128	53	64
362.865691251	144	33	92
362.878669407	128	100	64
362.903876275	144	103	123
362.907386775	128	82	64
362.958431106	128	33	64
362.977205984	144	100	43
362.985935906	128	103	64
363.007751606	128	100	64
363.015884538	144	33	89
363.018376947	144	53	43
363.10921317	128	33	64
363.149103171	144	33	88
363.200345875	144	100	54
363.241869787	128	33	64
363.247649039	144	82	64
363.251274149	128	100	64
363.286587311	128	53	64
363.298993259	144	33	83
363.356867447	144	100	58
363.358671787	128	82	64
363.391845497	128	33	64
363.407635149	128	100	64
363.431379573	144	53	60
363.450849165	144	33	83
363.484272218	144	100	63
363.525154941	128	33	64
363.581601182	144	33	78
363.603165258	128	100	64
363.653750556	144	100	71
363.674552911	128	33	64
363.722313305	128	100	64
363.736767276	128	53	64
363.764179382	144	33	76
363.797664429	144	82	65
363.811390136	128	33	64
363.814847071	144	100	81
363.834523437	144	53	76
363.872679664	128	100	64
363.87931799	144	33	72
363.923002102	128	82	64
363.951625619	144	100	88
363.960437957	128	33	64
364.031572841	144	33	69
364.034308323	128	100	64
364.109255257	128	33	64
364.142750149	144	100	90
364.166563675	144	33	65
364.169652065	128	53	64
364.172803038	128	100	64
364.271105973	144	53	48
364.282200023	144	100	92
364.306784011	144	82	63
364.335915061	128	100	64
364.435554007	128	33	64
364.458777922	128	82	64
364.472478415	144	33	56
364.499505467	144	100	97
364.533848077	128	100	64
364.542096549	128	33	64
364.568439048	144	22	127
364.574096002	128	22	64
364.584818173	144	90	90
364.586637146	128	53	64
364.603595211	144	82	54
364.633158993	144	33	51
364.652353692	144	100	111
364.668314707	128	82	64
364.70895258	128	33	64
364.710516609	144	82	64
364.721352401	128	100	64
364.731343358	144	53	63
364.777792256	144	33	48
364.78805284	128	82	64
364.799931827	144	82	51
364.85119683	128	82	64
364.875254173	128	33	64
364.877475624	144	82	63
364.91293575	144	33	43
364.934910394	128	90	64
364.968020993	128	82	64
364.978270984	144	82	53
365.008803747	128	33	64
365.036412599	128	82	64
365.065264159	144	82	63
365.06605805	144	33	39
365.101060916	144	22	119
365.10214725	128	53	64
365.136507999	128	82	64
365.142000291	128	33	64
365.144847902	144	82	51
365.200347523	144	53	63
365.203441915	128	82	64
365.211134374	144	82	62
365.232088353	144	33	34
365.245865017	128	22	64
365.270769909	128	82	64
365.27083602	144	82	51
365.309584858	128	33	64
365.336374458	128	82	64
365.37461321	144	82	61
365.394977627	144	33	29
365.436233295	128	82	64
365.436294271	144	82	51
365.443488611	144	103	125
365.460821121	128	33	64
365.507533226	128	103	64
365.51393105	144	33	26
365.524940361	128	82	64
365.533317475	144	82	60
365.537395693	128	53	64
365.591675748	128	82	64
365.591788705	144	82	49
365.60848296	128	33	64
365.667248465	144	33	23
365.669623665	128	82	64
365.678844502	144	82	61
365.743029482	128	33	64
365.751431479	128	82	64
365.760010688	144	82	50
365.797257158	144	33	19
365.837197416	128	82	64
365.837274773	144	82	61
365.891991557	128	33	64
365.934456592	128	82	64
365.942864165	144	82	50
365.964815257	144	33	16
365.985748229	128	82	64
366.04194595	128	33	64
366.986741361	144	22	37
367.297613423	144	82	68
367.385261339	128	82	64
367.427371186	144	33	7
367.480096632	128	33	64
367.547804705	144	33	8
367.626274694	128	33	64
367.716476699	144	33	12
367.792003765	128	33	64
367.881128754	144	33	17
367.942215669	128	33	64
368.032027804	144	33	20
368.110476462	128	33	64
368.175424184	144	94	7
368.181778948	144	33	21
368.246453394	128	94	64
368.259483944	128	33	64
368.334307349	144	33	21
368.396246112	144	29	28
368.409108808	128	33	64
368.468046899	128	29	64
368.47983427	144	33	21
368.625774467	128	33	64
368.633698709	144	33	28
368.709097569	128	33	64
368.780028153	144	33	31
368.835695062	144	100	14
368.84221021	128	33	64
368.917509543	144	33	30
368.922708155	128	100	64
368.975722216	128	33	64
368.983273511	144	69	108
369.060792815	144	100	21
369.063473977	144	33	36
369.122677185	128	69	64
369.125462982	128	33	64
369.150952985	128	100	64
369.197084506	144	33	33
369.258946073	128	33	64
369.272756518	144	100	30
369.315965573	128	100	64
369.345950606	144	33	38
369.409472864	128	33	64
369.460711488	144	100	34
369.479912834	144	33	42
369.501033477	128	100	64
369.54235723	128	33	64
369.602917191	144	48	97
369.615319599	144	33	42
369.693489688	128	33	64
369.754285223	144	100	50
369.765736734	144	33	44
369.76946397	144	53	42
369.772021128	128	53	64
369.772753192	144	29	17
369.807010586	128	100	64
369.826051687	128	33	64
369.833829497	128	29	64
369.896839647	144	33	41
369.914840189	144	100	52
369.964407696	128	94	64
369.975747154	128	33	64
369.984839233	128	100	64
370.046670671	144	33	41
370.108856273	144	100	60
370.126466149	128	33	64
370.168142752	128	100	64
370.196970728	144	33	46
370.21646847	144	82	73
370.259018827	128	33	64
370.269400025	128	82	64
370.270988604	144	53	43
370.271454738	144	100	69
370.328955731	144	33	49
370.340495934	128	100	64
370.409977475	128	33	64
370.436000307	144	100	73
370.481477674	144	33	51
370.48164373	128	100	64
370.543372618	128	33	64
370.54504684	144	29	52
370.598730954	144	100	78
370.599169894	128	29	64
370.633571244	144	33	52
370.649416296	128	100	64
370.696332709	128	33	64
370.740751542	144	100	85
370.782307326	144	33	58
370.818423062	128	100	64
370.843124836	128	33	64
370.877443833	144	29	100
370.922292768	144	100	90
370.932974542	144	33	59
370.948171081	128	29	64
370.964333784	128	100	64
370.970440317	128	53	64
370.992681964	128	33	64
371.082195397	144	33	61
371.08290511	144	100	95
371.120064623	128	100	64
371.143726471	128	33	64
371.187387478	144	90	127
371.228147826	144	29	120
371.232167349	144	33	62
371.24263225	144	53	90
371.266160199	144	100	101
371.292897442	128	33	64
371.298786079	128	29	64
371.330045614	128	100	64
371.342904926	128	53	64
371.382214845	144	33	65
371.432126898	128	90	64
371.442666382	128	33	64
371.452629127	144	100	107
371.483905228	128	100	64
371.532171017	144	33	70
371.540068339	144	53	127
371.592500898	128	33	64
371.682788817	144	33	69
371.742772874	128	33	64
371.81555741	144	33	71
371.869888717	128	53	64
371.893243237	128	33	64
371.965750776	144	33	71
372.026642562	128	33	64
372.115634808	144	33	75
372.130120925	144	29	119
372.164981824	128	29	64
372.176601077	128	33	64
372.215196753	128	22	64
372.264465999	144	33	79
372.326581612	128	33	64
372.414549318	144	33	86
372.47664172	128	33	64
372.511307141	144	53	53
372.545109337	144	29	121
372.548908634	144	33	86
372.5602814	128	53	64
372.62682524	128	33	64
372.668909666	128	29	64
372.697648771	144	33	87
372.776273729	128	33	64
372.813384301	144	53	75
372.849214586	144	33	89
372.927824092	128	33	64
372.945098252	144	29	121
373.000628716	144	33	91
373.038854792	128	29	64
373.079051241	128	33	64
373.147152115	144	33	95
373.178190923	128	53	64
373.225983042	128	33	64
373.297762301	128	90	64
373.316097295	144	33	101
373.376837519	128	33	64
373.38637801	144	22	26
373.395552172	144	29	119
373.465762735	144	33	106
373.480828042	128	29	64
373.526080719	128	33	64
373.615659461	144	33	108
373.677043274	128	33	64
373.765888647	144	33	113
373.826508439	128	33	64
373.914048636	144	33	115
373.992807362	128	33	64
374.065888124	144	33	119
374.126515403	128	33	64
374.214180015	144	33	120
374.276312513	128	33	64
374.364200288	144	33	120
374.443688538	128	33	64
374.520668852	144	33	122
374.59245863	128	33	64
374.666102	144	33	121
374.694452269	144	29	29
374.743470285	128	33	64
374.749319322	128	29	64
374.802240531	144	53	78
374.816375858	144	33	117
374.871729278	144	29	36
374.893505738	128	33	64
374.915265872	128	29	64
374.966532709	144	33	111
375.001201215	144	29	37
375.042735956	128	33	64
375.065503109	128	29	64
375.115641431	144	33	104
375.122097673	128	82	64
375.135598527	144	29	37
375.192712601	128	33	64
375.230442036	128	29	64
375.26614747	144	33	101
375.301685121	144	29	40
375.343747757	128	33	64
375.365775725	128	29	64
375.415727623	144	33	99
375.453363308	144	29	39
375.493504904	128	33	64
375.519196626	128	53	64
375.531209441	128	29	64
375.56567462	144	33	97
375.601468476	144	29	40
375.644892139	128	33	64
375.69793816	128	29	64
375.715803577	144	33	93
375.753084684	144	29	42
375.794237606	128	33	64
375.831190828	128	29	64
375.865704866	144	33	89
375.953229958	144	29	54
375.980133091	128	29	64
376.009103431	128	33	64
376.018258645	144	33	85
376.067712012	144	29	62
376.076300412	128	33	64
376.118048496	144	53	73
376.165193264	128	29	64
376.219667273	144	29	64
376.220220351	144	33	79
376.242906906	128	33	64
376.313821391	144	33	75
376.326968313	128	48	64
376.330451096	128	29	64
376.386707139	144	29	73
376.393630852	128	33	64
376.464151946	128	29	64
376.482732638	144	33	78
376.485824673	128	53	64
376.543183285	128	33	64
376.590224106	144	100	20
376.632877301	144	33	67
376.670450828	128	100	64
376.693193782	128	33	64
376.752098262	144	53	82
376.783943686	144	33	64
376.784357238	144	100	26
376.843751508	128	33	64
376.878735162	128	100	64
376.932410309	144	33	64
376.977562849	144	100	31
376.994499338	128	33	64
377.022223555	128	100	64
377.083168063	144	33	59
377.105581238	128	53	64
377.127331738	144	69	91
377.143378311	128	33	64
377.147474238	144	100	37
377.192376421	128	100	64
377.232013278	144	33	51
377.262495573	128	69	64
377.302681325	144	100	41
377.31048717	128	33	64
377.329243546	144	69	89
377.343082092	128	100	64
377.383119661	144	33	49
377.455546135	144	100	47
377.458921594	128	69	64
377.460465825	128	33	64
377.500715736	128	100	64
377.50500294	144	69	89
377.553847965	144	33	48
377.610848215	128	33	64
377.617674911	128	69	64
377.635405897	144	100	56
377.66281688	144	69	90
377.681850085	144	33	40
377.683797183	128	100	64
377.760801547	128	33	64
377.78311174	144	100	63
377.795059765	128	69	64
377.833058185	144	33	39
377.845457525	144	69	90
377.889424131	128	100	64
377.910955503	128	33	64
377.962599095	128	69	64
377.982848882	144	33	33
377.997710888	144	100	71
378.033158824	144	69	88
378.038502425	128	100	64
378.059676495	128	33	64
378.133360244	144	33	30
378.149573355	128	69	64
378.157092249	144	100	82
378.207156164	128	100	64
378.210626917	128	33	64
378.217130186	144	69	89
378.28345805	144	33	24
378.337010231	128	69	64
378.338583671	144	100	83
378.344409516	128	33	64
378.388144322	128	100	64
378.388447825	144	69	89
378.416172164	144	33	19
378.49116503	144	100	83
378.493812243	128	33	64
378.526137281	128	69	64
378.566382257	144	33	15
378.583460785	144	69	91
378.585636405	128	100	64
378.62690357	128	33	64
378.715935917	128	69	64
378.71724188	144	100	94
378.71827562	144	33	18
378.758796148	128	100	64
378.771060902	144	69	91
378.793889643	128	33	64
378.881039344	128	69	64
378.909224105	144	100	100
378.946243691	144	53	50
378.950778776	144	69	92
378.966059007	128	100	64
379.087973818	128	69	64
379.098948522	128	22	64
379.167471862	144	69	95
379.251647276	144	100	103
379.251910727	128	100	64
379.271873095	128	53	64
379.272694609	128	69	64
379.341315378	128	103	64
379.619781046	144	53	19
380.237912213	128	53	64
380.353303917	144	22	121
380.394353518	128	22	64
380.541680362	144	72	75
381.104421925	144	48	19
381.412219655	144	22	21
382.070445203	144	53	63
382.437292287	128	53	64
382.784480112	144	33	28
382.878504626	128	33	64
382.878977711	128	48	64
382.8820161	144	69	35
382.967617397	128	69	64
382.98424408	144	33	26
383.061158051	128	33	64
383.186769423	128	53	64
383.205180719	144	33	21
383.244481189	128	33	64
383.388144294	144	33	19
383.39863884	144	69	33
383.444485513	128	33	64
383.5309975	128	69	64
383.537152937	144	33	16
383.681345864	128	33	64
383.717028434	144	33	17
383.768921916	144	48	12
383.857096003	128	48	64
383.859999416	128	33	64
383.869327663	144	33	16
383.950454682	144	48	11
384.003470147	128	48	64
384.01318427	128	33	64
384.036215035	144	69	33
384.036447358	128	69	64
384.154770115	144	48	10
384.186714615	128	48	64
384.267316706	144	48	10
384.312617833	144	33	23
384.339708171	128	48	64
384.37797309	128	33	64
384.483832304	144	48	12
384.50380219	128	48	64
384.513029699	144	69	32
384.579074588	144	33	33
384.609576396	128	69	64
384.654239241	144	48	8
384.663325766	128	33	64
384.675566745	128	48	64
384.730373144	128	22	64
384.778176713	144	48	5
384.812469352	144	33	40
384.83918426	128	48	64
384.877807908	128	33	64
384.986605492	144	48	12
384.990950068	128	48	64
385.022573939	144	33	51
385.039434879	144	69	32
385.077967045	128	33	64
385.153825235	144	48	14
385.156064055	128	48	64
385.163622108	128	69	64
385.223471695	144	33	58
385.228827508	128	33	64
385.319927278	144	48	14
385.333740898	144	33	60
385.340991081	128	48	64
385.411162091	128	33	64
385.459563033	144	48	13
385.48117525	144	33	61
385.509986695	128	48	64
385.551521458	144	22	23
385.57953178	128	33	64
385.605332559	144	69	31
385.613109033	144	48	13
385.697186467	128	48	64
385.71876972	128	69	64
385.723626703	144	33	67
385.747479627	128	72	64
385.777976117	128	33	64
385.784915935	144	48	13
385.826482497	128	48	64
385.855003086	144	33	69
385.928797155	144	48	14
385.92894272	128	33	64
385.986327475	128	48	64
385.998016786	144	33	75
386.095556233	128	33	64
386.130736172	144	48	14
386.132202503	128	22	64
386.152582201	128	48	64
386.214432459	144	69	28
386.298212471	144	48	14
386.320990299	128	48	64
386.332815363	128	69	64
386.369674067	144	22	36
386.416533015	128	100	64
386.466689961	144	48	16
386.486744046	128	48	64
386.543388392	144	33	61
386.61257497	128	33	64
386.630419585	144	48	16
386.654418414	128	48	64
386.721537274	144	69	32
386.80268597	144	48	20
386.823946076	128	48	64
386.82564207	128	69	64
386.827723325	144	72	126
386.912626005	144	48	23
386.912790279	144	33	52
386.978324289	128	33	64
386.99073064	128	48	64
387.077413948	144	48	21
387.136367223	128	48	64
387.260693768	144	33	44
387.287751133	144	48	23
387.319629549	128	48	64
387.328694866	128	33	64
387.344314282	144	69	32
387.413323593	144	35	55
387.442222379	128	69	64
387.463799763	144	48	26
387.474294684	144	33	42
387.491746369	128	48	64
387.532354546	128	22	64
387.544713219	128	33	64
387.636625254	144	48	29
387.669655027	128	48	64
387.746691474	144	33	52
387.796423334	128	33	64
387.813837285	144	48	27
387.836138829	128	48	64
387.88852957	144	33	59
387.942811648	144	69	32
387.96344419	128	33	64
387.987213795	144	48	33
388.033848968	144	33	62
388.041227649	128	48	64
388.052568661	128	69	64
388.111459738	128	33	64
388.168115532	144	33	62
388.186839677	144	48	35
388.241241055	128	48	64
388.311431892	128	33	64
388.317659281	144	33	62
388.328497181	144	48	34
388.39359002	128	48	64
388.4620709	128	33	64
388.477237422	144	48	36
388.542280322	128	48	64
388.542655884	144	69	34
388.654291841	144	22	48
388.655834703	128	69	64
388.709265734	144	48	39
388.727819855	128	48	64
388.755250212	144	33	68
388.80140789	144	48	41
388.847114664	128	33	64
388.879829475	128	48	64
388.965468746	144	48	42
389.040960606	128	48	64
389.134369885	144	48	41
389.153443937	144	69	33
389.192758113	128	48	64
389.230438772	128	69	64
389.277854253	144	48	41
389.279233184	144	33	68
389.336071511	128	48	64
389.346394898	128	33	64
389.359709189	128	35	64
389.433258513	144	48	44
389.508036388	128	48	64
389.594019924	144	48	47
389.674356155	128	48	64
389.728535126	144	33	71
389.744594993	144	69	34
389.780182892	128	33	64
389.781223574	144	48	45
389.823815767	128	48	64
389.869131338	128	69	64
389.882720175	144	35	60
389.970488507	144	48	46
390.002770386	128	48	64
390.129509928	144	33	71
390.147453222	144	48	49
390.169681156	128	48	64
390.196279644	128	33	64
390.285095121	144	33	69
390.323098045	144	48	51
390.326339928	144	69	32
390.35299464	128	48	64
390.362011008	128	33	64
390.426416457	128	69	64
390.434549149	144	33	69
390.497896582	144	48	50
390.512529962	128	33	64
390.519627997	128	48	64
390.585842334	144	33	67
390.664600456	144	48	53
390.707515185	128	48	64
390.730648229	128	22	64
390.73581185	128	33	64
390.802223219	144	48	57
390.871223561	128	48	64
390.936508676	144	69	33
390.975670486	128	35	64
390.978703483	144	48	58
391.052558438	128	69	64
391.056361139	128	48	64
391.129674144	144	33	70
391.151270602	144	48	62
391.196526873	128	33	64
391.220549901	128	48	64
391.303214907	144	48	64
391.371039729	128	48	64
391.464485517	144	48	56
391.501633717	144	22	59
391.540947189	128	48	64
391.541354773	144	69	34
391.565066984	144	35	56
391.6303036	144	48	44
391.645446849	144	33	71
391.657039621	128	69	64
391.708316416	128	48	64
391.712868401	128	33	64
391.783820872	144	48	38
391.842022644	128	48	64
391.919400453	128	72	64
391.94419513	144	48	34
392.003647326	128	48	64
392.099752168	144	48	28
392.129989285	144	33	70
392.180031195	128	33	64
392.184903915	144	69	34
392.190802314	128	48	64
392.237214834	144	33	68
392.298876987	128	69	64
392.328213978	128	33	64
392.337215461	144	48	16
392.356722227	128	48	64
392.36609256	144	33	66
392.41538212	144	72	16
392.50014495	128	72	64
392.501393555	144	48	12
392.509322309	128	33	64
392.51976046	128	48	64
392.669844859	144	48	10
392.69208755	128	48	64
392.795124413	144	48	15
392.846197851	144	69	35
392.853786911	128	48	64
392.881306956	144	33	70
392.926370726	128	35	64
392.947888123	128	69	64
392.96540747	144	48	20
392.99650411	128	33	64
393.006699904	128	48	64
393.094227071	144	48	26
393.15343226	128	48	64
393.169034795	144	72	26
393.231551498	144	35	57
393.248022675	144	48	29
393.250457518	128	72	64
393.290457509	128	48	64
393.435156489	144	48	29
393.442691897	144	69	37
393.451696953	128	48	64
393.544727092	144	48	29
393.546555316	128	69	64
393.551630066	144	33	72
393.575129302	128	48	64
393.599520346	128	33	64
393.656644836	144	64	45
393.680130976	144	72	45
393.731301803	128	72	64
393.7653612	144	48	36
393.789505618	128	48	64
393.835110115	144	48	7
393.858326471	128	48	64
393.902557647	144	48	28
393.940640969	128	48	64
393.97014438	144	48	11
393.987241249	128	64	64
393.987469114	128	48	64
394.016931487	144	48	28
394.031239499	128	22	64
394.059673515	128	48	64
394.079697214	144	48	5
394.082339374	144	69	35
394.086514721	144	64	54
394.104965052	128	48	64
394.145194786	144	33	75
394.158938467	144	48	22
394.188204895	128	69	64
394.192025765	128	48	64
394.213060746	144	48	7
394.243405024	128	48	64
394.268757248	144	48	28
394.28965639	128	33	64
394.31969166	128	48	64
394.40588094	128	64	64
394.418593054	144	48	28
394.443787995	128	48	64
394.443846861	144	48	10
394.505167169	128	48	64
394.505478906	144	64	57
394.528788757	144	48	23
394.600363269	144	72	76
394.626396777	128	48	64
394.639696149	144	48	7
394.653260991	128	48	64
394.663834607	128	72	64
394.711904819	144	48	25
394.728802246	144	33	78
394.742165617	128	35	64
394.743552334	144	78	55
394.744642525	128	33	64
394.760885704	128	48	64
394.760926419	144	48	13
394.802627071	144	69	32
394.818510827	144	33	50
394.841033882	128	48	64
394.853179135	128	78	64
394.864463602	144	48	27
394.896389766	128	33	64
394.927342034	128	48	64
394.927403229	144	48	17
394.927633971	128	69	64
394.931144345	144	35	59
394.93465584	144	33	79
395.078309871	128	33	64
395.15768891	144	72	65
395.211364392	128	72	64
395.34009402	128	64	64
395.353616017	144	22	70
395.394794697	144	69	34
395.511625568	128	69	64
395.513369715	144	33	84
395.609157266	144	64	59
395.613961793	128	33	64
395.654702303	128	48	64
395.655029704	144	48	28
395.754101882	128	64	64
395.755577189	128	48	64
395.830553872	144	48	24
395.859368185	128	48	64
395.887506032	144	48	23
395.909954342	144	78	64
395.92401304	128	48	64
395.955350541	128	78	64
395.961893446	144	48	26
395.965392056	144	64	81
395.993493605	128	48	64
396.008224408	144	69	35
396.012684113	144	48	24
396.057323879	128	48	64
396.081450147	144	48	24
396.103888117	128	48	64
396.134115502	144	48	24
396.13856052	128	69	64
396.163395222	144	33	87
396.173061699	128	48	64
396.203763639	144	48	31
396.209642625	128	35	64
396.228865091	128	48	64
396.233434417	144	72	108
396.247731911	128	33	64
396.269325375	144	48	30
396.297242032	128	72	64
396.306919989	128	48	64
396.337171177	144	48	36
396.355528975	128	48	64
396.381777654	144	48	34
396.422792364	128	48	64
396.452933455	144	48	29
396.477018367	128	48	64
396.484266726	144	35	53
396.487692696	128	64	64
396.522058667	144	48	34
396.557294696	128	48	64
396.578922035	144	48	29
396.604858801	128	48	64
396.644007039	144	69	35
396.64859031	144	64	78
396.652801346	144	48	37
396.692634654	128	48	64
396.711488126	144	48	32
396.739609087	128	48	64
396.758241431	144	33	91
396.771723894	128	69	64
396.79633442	144	48	41
396.821581397	128	48	64
396.827446032	128	33	64
396.849949731	144	48	31
396.86424681	144	33	62
396.892082037	128	48	64
396.91495029	144	48	37
396.969622009	128	48	64
396.984080309	144	72	48
397.006999553	144	48	33
397.026273029	128	33	64
397.026640075	144	33	90
397.052155136	128	48	64
397.055519461	144	48	42
397.061240109	128	33	64
397.084416274	128	72	64
397.129107002	128	48	64
397.134255769	144	48	33
397.153857723	128	48	64
397.20336431	144	48	37
397.241530813	144	78	71
397.250357142	144	69	35
397.261994801	128	48	64
397.268735702	128	78	64
397.270341941	144	48	34
397.305006554	128	48	64
397.328634457	144	48	43
397.371652731	128	69	64
397.382232151	128	22	64
397.389906396	128	48	64
397.419747294	144	48	38
397.441411789	128	48	64
397.447323669	144	33	93
397.471659205	128	64	64
397.482049748	144	48	46
397.530735382	128	33	64
397.561617695	128	48	64
397.565795718	144	72	60
397.569989651	144	48	46
397.572451246	128	48	64
397.598326191	128	72	64
397.612039907	144	48	50
397.660662325	128	35	64
397.677156569	128	48	64
397.680345699	144	48	43
397.705012968	144	22	71
397.706925141	128	48	64
397.720472239	144	64	76
397.743248586	128	22	64
397.761125943	128	64	64
397.761472574	144	48	52
397.828266984	128	48	64
397.850436637	144	64	78
397.853777004	144	48	44
397.874544988	144	69	36
397.880663612	128	48	64
397.911614229	128	64	64
397.921888383	144	48	55
397.956906515	128	48	64
397.965194926	144	35	54
397.980710749	144	48	50
398.004439693	128	48	64
398.01621707	144	64	84
398.023067027	128	69	64
398.032937165	144	48	55
398.061009876	128	64	64
398.097884221	144	33	88
398.104867269	128	48	64
398.139582945	144	48	52
398.147536074	144	64	92
398.165856159	128	33	64
398.176985681	128	48	64
398.191237254	144	33	61
398.201662708	144	48	57
398.245682048	128	33	64
398.282758484	144	33	87
398.284189455	128	48	64
398.287747003	144	48	53
398.321081063	128	48	64
398.330598775	128	33	64
398.337499868	128	64	64
398.37006317	144	48	57
398.47385518	128	48	64
398.473922888	144	48	49
398.50408448	128	48	64
398.513641435	144	69	39
398.54996195	144	64	83
398.557284398	144	48	63
398.611857156	128	48	64
398.611923067	144	48	54
398.631871773	144	78	81
398.646149078	128	69	64
398.647977863	128	64	64
398.671017507	128	48	64
398.720201511	128	78	64
398.768022114	144	48	62
398.784275847	144	72	121
398.830372867	144	33	89
398.847079373	128	48	64
398.847186051	144	48	57
398.884383421	128	72	64
398.896614027	144	64	52
398.897269804	128	33	64
398.936795615	144	22	69
398.990963375	128	48	64
399.004843752	144	48	65
399.090640275	128	48	64
399.094939237	144	48	53
399.125144271	144	69	38
399.152962111	128	48	64
399.206181401	144	48	65
399.242480916	128	69	64
399.279270132	128	48	64
399.28405021	144	48	56
399.345672259	128	48	64
399.350144363	144	48	65
399.410840802	128	48	64
399.414581137	144	48	58
399.42532406	128	48	64
399.468616659	144	48	72
399.497467126	144	33	90
399.506294971	128	48	64
399.510475016	128	35	64
399.547741081	128	33	64
399.553397234	144	48	61
399.588503731	144	33	57
399.592449411	128	48	64
399.634733674	144	48	70
399.647333005	128	33	64
399.68394934	144	35	55
399.703550923	144	33	92
399.706807902	128	64	64
399.712189411	144	69	41
399.795478037	128	48	64
399.795679852	128	33	64
399.82369643	144	48	63
399.843601884	128	69	64
399.857738975	128	48	64
399.882777185	144	64	52
399.924325832	144	48	68
399.962802189	128	64	64
399.996885412	128	48	64
400.000376256	144	48	59
400.03687133	128	48	64
400.117274126	144	48	75
400.159128748	128	48	64
400.161447846	144	48	66
400.199626899	144	64	39
400.214148439	144	33	89
400.217455454	144	78	72
400.221535259	128	48	64
400.251904518	128	78	64
400.280617677	128	33	64
400.284969116	144	48	70
400.3187887	144	69	43
400.362810625	128	48	64
400.362872084	144	48	63
400.398218443	128	22	64
400.426354149	128	69	64
400.507773262	128	48	64
400.518610921	144	48	61
400.575306755	128	48	64
400.598340919	144	48	52
400.620782865	144	22	71
400.653672371	128	48	64
400.659220901	128	22	64
400.694487232	144	48	51
400.753344484	128	48	64
400.773529858	128	64	64
400.778149931	144	48	43
400.801809392	144	72	107
400.820448892	128	48	64
400.850455524	128	72	64
400.87019654	144	48	48
400.878984776	144	33	87
400.917973288	144	69	42
400.918148562	144	64	75
400.947564192	128	33	64
400.949847207	128	48	64
400.954131784	144	48	29
400.985756532	144	33	54
400.99700673	128	48	64
401.000783354	144	48	43
401.023881287	128	48	64
401.045584362	128	33	64
401.049755583	128	69	64
401.06440204	144	48	34
401.092571174	128	48	64
401.10160123	144	33	87
401.134454407	144	48	34
401.145173905	128	35	64
401.190887223	128	48	64
401.21386615	144	48	24
401.255370192	128	33	64
401.256458227	128	48	64
401.298362944	144	48	28
401.365211303	144	35	54
401.385025393	128	48	64
401.387917771	144	48	21
401.411931368	128	48	64
401.453258204	144	48	34
401.537954177	128	48	64
401.538063428	144	48	27
401.562470015	128	48	64
401.601514543	144	48	39
401.604829277	144	69	44
401.627517051	144	78	76
401.630774562	144	33	85
401.657566572	128	78	64
401.690288613	128	48	64
401.690358075	144	48	37
401.698453997	128	48	64
401.713972246	128	33	64
401.722920179	144	48	58
401.741968796	128	69	64
401.757951229	128	64	64
401.794537551	144	48	54
401.840525834	128	48	64
401.885902574	144	48	67
401.979549907	128	48	64
401.983869123	144	48	62
401.984882177	144	72	99
401.996436847	144	64	93
402.037799541	128	48	64
402.050806376	128	72	64
402.081116265	128	64	64
402.090709287	144	48	86
402.103103829	144	22	68
402.165362499	128	48	64
402.165435531	144	48	79
402.238441492	128	48	64
402.254703839	144	69	43
402.302063363	144	48	59
402.349822126	144	64	114
402.357150235	128	48	64
402.364356031	144	33	86
402.381047692	144	48	35
402.406199442	128	69	64
402.423267982	128	48	64
402.427303166	128	35	64
402.452468165	128	33	64
402.455423789	144	33	52
402.482165343	144	48	51
402.52993941	128	48	64
402.530001317	144	48	46
402.53035003	128	33	64
402.552864092	144	33	84
402.607650733	128	48	64
402.646273282	128	33	64
402.651671391	144	48	67
402.692787579	128	48	64
402.695369984	144	48	66
402.749037432	144	35	53
402.756515273	128	64	64
402.767795067	128	35	64
402.787384893	128	48	64
402.850508876	144	48	41
402.909190912	128	48	64
402.90926159	144	48	13
402.925092976	144	37	124
402.939129476	144	69	42
402.947172124	144	35	55
402.988521845	128	48	64
402.997696502	128	37	64
403.049965775	144	48	35
403.073426965	128	69	64
403.076055305	144	78	72
403.088244069	144	64	73
403.106028566	128	78	64
403.113524038	144	33	84
403.128870609	128	48	64
403.129443866	128	64	64
403.131711301	144	48	21
403.169768646	128	48	64
403.214827909	128	33	64
403.22471782	144	48	23
403.258529818	128	48	64
403.278117019	144	48	21
403.306221847	128	48	64
403.344569248	144	64	74
403.352710854	144	48	39
403.39664362	128	64	64
403.407058863	128	48	64
403.435719463	144	48	22
403.473200084	128	48	64
403.500616615	144	48	42
403.51856717	144	72	118
403.553276953	128	48	64
403.571517589	128	72	64
403.595521408	144	64	81
403.610285143	144	48	28
403.630038189	144	69	41
403.63121649	128	48	64
403.680028434	128	64	64
403.701801226	144	48	38
403.738363174	128	48	64
403.741140101	144	48	31
403.756463897	128	69	64
403.761214175	128	48	64
403.813059119	144	48	48
403.813449902	144	33	86
403.875610049	144	64	103
403.879996923	128	48	64
403.883212198	144	48	39
403.900366203	128	33	64
403.920951134	128	48	64
403.925444556	144	33	50
403.944087688	128	35	64
403.979187137	144	48	56
404.013752792	128	33	64
404.036024255	144	33	84
404.039898239	144	35	56
404.069175955	128	48	64
404.069244244	144	48	49
404.107539701	128	64	64
404.121331185	128	48	64
404.129439799	128	33	64
404.135433322	128	35	64
404.187051542	144	64	76
404.201845461	144	48	54
404.223211136	144	35	56
404.257197635	128	48	64
404.280368505	144	48	48
404.287133605	128	35	64
404.32338898	128	48	64
404.363891285	144	48	58
404.423891563	128	48	64
404.431997672	144	35	58
404.449168632	144	48	48
404.482887945	128	22	64
404.489931436	128	48	64
404.521820554	128	64	64
404.532415444	144	48	63
404.549075902	144	69	40
404.555934564	144	78	77
404.580172206	144	33	89
404.602649884	128	78	64
404.630560411	128	48	64
404.641623227	144	48	48
404.681973036	128	33	64
404.703957756	128	48	64
404.719331783	128	69	64
404.770075134	144	48	62
404.841043096	128	48	64
404.867929735	144	48	54
404.913543357	128	48	64
404.921000752	144	72	92
404.946015866	144	69	82
404.954786813	144	48	67
404.955941138	144	64	68
404.969980486	128	72	64
405.007085013	128	48	64
405.030898649	128	64	64
405.0362438	144	48	55
405.054937037	128	48	64
405.106723679	144	48	71
405.124299724	128	69	64
405.153111639	128	48	64
405.185801483	144	48	65
405.203320711	128	48	64
405.254033103	144	48	80
405.297387004	128	48	64
405.297473691	144	48	76
405.320417091	144	64	53
405.331041739	144	33	88
405.337578198	128	48	64
405.342559163	144	69	51
405.363202521	144	48	88
405.403107195	128	48	64
405.414495921	128	33	64
405.43654377	144	48	78
405.441227485	144	33	51
405.468082092	128	69	64
405.470306223	128	48	64
405.496189303	128	33	64
405.527408752	144	48	97
405.527561781	128	35	64
405.552551032	144	33	91
405.597270848	128	33	64
405.605090247	128	48	64
405.607633681	144	48	91
405.62457069	144	35	52
405.655273762	128	48	64
405.699238295	144	48	106
405.703379205	128	35	64
405.773667216	144	35	54
405.777921798	128	48	64
405.783858423	144	48	96
405.823314845	128	64	64
405.840356401	128	48	64
405.855246902	128	35	64
405.894218105	144	48	100
405.925411216	144	35	54
405.978202754	128	48	64
405.981408698	144	48	100
406.006261201	144	78	77
406.011538514	144	64	52
406.014406145	144	33	89
406.051822435	128	78	64
406.074442202	128	48	64
406.105058976	144	69	52
406.131449887	144	48	93
406.159006536	128	33	64
406.225670919	128	48	64
406.229357281	144	48	57
406.253517926	128	69	64
406.256767549	128	64	64
406.323211377	128	48	64
406.354898091	144	64	24
406.371668526	144	72	96
406.413234688	144	22	65
406.41549968100003	144	48	65
406.417982711	128	72	64
406.459402233	128	48	64
406.481165658	144	48	51
406.491570417	144	69	89
406.555785284	128	64	64
406.643021432	128	69	64
406.653936912	144	64	3
406.677861525	128	48	64
406.679905607	144	48	52
406.748016128	144	33	86
406.798130034	128	33	64
406.824058221	128	48	64
406.824661725	144	48	43
406.840124996	144	33	55
406.867534893	144	69	54
406.921682385	128	48	64
406.931964542	128	33	64
406.968786479	144	48	43
406.986304805	144	33	89
407.002853608	128	69	64
407.045817496	128	33	64
407.046667361	128	48	64
407.050635358	144	48	38
407.093827251	128	35	64
407.105015147	128	64	64
407.119639192	128	48	64
407.174246596	144	35	54
407.199671792	144	48	50
407.226034748	128	48	64
407.250828772	144	48	34
407.253302577	128	35	64
407.289910911	128	48	64
407.324220488	144	64	55
407.340862737	144	35	55
407.346919819	128	64	64
407.419925687	128	35	64
407.450890394	144	64	55
407.48523071	144	48	47
407.498239744	144	78	76
407.49848077	144	33	89
407.507884317	144	35	55
407.50866639	128	48	64
407.540667074	128	78	64
407.554318686	144	48	35
407.577897073	128	48	64
407.58197766	128	33	64
407.621683079	128	64	64
407.637499315	144	72	111
407.638334835	144	48	46
407.659580506	128	48	64
407.666832565	144	69	55
407.693907297	144	48	31
407.73747307	128	48	64
407.739271924	128	72	64
407.77924662	144	48	44
407.797544701	128	69	64
407.838727271	128	48	64
407.860696779	144	64	77
407.876468892	144	48	46
407.878062542	128	48	64
407.87811229	144	48	29
407.957790695	128	48	64
408.044539207	144	69	97
408.045251691	144	48	39
408.074962651	128	48	64
408.088814658	128	64	64
408.114240586	144	48	26
408.174272899	128	48	64
408.177201415	128	69	64
408.22974823	144	48	48
408.24130392	144	64	101
408.248552554	144	33	90
408.313366651	128	33	64
408.330010324	128	48	64
408.33410053	144	48	38
408.370974619	144	33	56
408.386730595	128	48	64
408.42976993	128	33	64
408.453336449	144	69	45
408.476428384	144	48	33
408.485982466	144	33	92
408.48746997	144	37	117
408.497358182	128	22	64
408.528937184	128	37	64
408.529234437	128	48	64
408.529326195	144	48	27
408.546413325	128	33	64
408.566741683	128	69	64
408.607314585	128	48	64
408.676768582	144	48	39
408.710797355	128	35	64
408.75391649	144	22	72
408.756876015	128	64	64
408.757392795	128	48	64
408.776176401	128	22	64
408.780318986	144	48	31
408.807603348	144	35	51
408.837794176	144	64	94
408.838280129	128	48	64
408.882065535	128	64	64
408.886616258	128	35	64
408.909385609	144	48	31
408.94517061	144	37	100
408.963286246	144	78	78
408.968324013	144	33	90
408.970726287	144	64	89
408.976894279	128	48	64
408.976927833	144	48	14
408.992415538	128	78	64
409.013897092	128	37	64
409.032204041	144	35	54
409.047675155	128	33	64
409.051613644	128	35	64
409.055107303	128	48	64
409.118611415	144	72	122
409.158813718	144	35	55
409.185218547	128	72	64
409.200234814	144	48	31
409.201895815	128	48	64
409.221942613	144	48	17
409.252365214	144	69	50
409.274966447	128	64	64
409.276397419	128	48	64
409.365834913	144	48	28
409.388208512	128	69	64
409.390436352	128	48	64
409.418374011	144	48	19
409.457647704	128	48	64
409.512407495	144	48	27
409.582007763	144	64	36
409.587270214	144	37	90
409.613192499	128	48	64
409.616971973	144	48	29
409.624031089	144	33	89
409.631223327	128	64	64
409.632271598	128	37	64
409.677143505	144	69	98
409.704899759	128	48	64
409.716926213	144	64	36
409.768650657	128	33	64
409.768813917	144	33	52
409.781733554	144	48	59
409.794696855	144	22	70
409.817117852	128	69	64
409.837629629	128	48	64
409.846520472	128	33	64
409.862202877	144	48	45
409.904736995	144	33	90
409.926480269	128	48	64
409.962659476	128	33	64
409.975166291	144	37	97
409.997994001	144	48	54
410.030869768	128	37	64
410.081069065	128	48	64
410.085443106	144	48	40
410.113023559	144	69	49
410.137698281	128	48	64
410.140627762	128	64	64
410.231856139	144	48	49
410.233353783	128	69	64
410.259316197	128	48	64
410.285753752	144	64	17
410.299733104	128	64	64
410.324644963	144	48	39
410.353078897	128	35	64
410.359972007	128	48	64
410.388307381	144	78	116
410.398015869	144	33	88
410.404374554	144	64	14
410.421916623	128	78	64
410.4491475	144	48	47
410.453651525	128	33	64
410.468998212	128	48	64
410.501760069	144	48	35
410.532627988	144	35	53
410.541038936	128	48	64
410.586065675	128	35	64
410.617686001	144	48	45
410.680023354	128	48	64
410.680085369	144	48	33
410.691380735	144	37	117
410.693769982	144	35	55
410.706113358	144	72	115
410.721267642	128	48	64
410.747091721	128	37	64
410.75093498	144	48	48
410.754482068	128	35	64
410.772108374	128	72	64
410.790854595	128	48	64
410.820970651	144	48	34
410.857717356	144	35	55
410.921627111	128	48	64
410.936475667	128	35	64
410.983738149	144	48	19
411.023969683	144	35	54
411.055764913	128	48	64
411.108135069	144	48	28
411.115515083	128	22	64
411.146953016	128	48	64
411.186510966	144	48	39
411.19890513	144	33	90
411.249328737	144	108	127
411.282531486	128	33	64
411.283728976	128	108	64
411.289768241	144	37	76
411.321867237	144	33	50
411.330104432	128	48	64
411.34913795800003	128	37	64
411.352814911	144	48	39
411.374647605	128	64	64
411.380346306	128	33	64
411.388805058	128	48	64
411.452504836	144	33	90
411.468059371	144	48	49
411.534386271	128	48	64
411.536540737	128	33	64
411.53715648	144	48	38
411.562765476	128	48	64
411.591398277	144	37	104
411.601548768	144	48	53
411.615504932	128	37	64
411.619996216	128	48	64
411.652703139	144	48	38
411.670753987	144	22	78
411.708989953	128	48	64
411.709713331	128	22	64
411.763084695	144	48	46
411.846846323	128	48	64
411.85031428	144	48	36
411.896958398	144	33	90
411.905257377	128	48	64
411.950934028	144	78	73
411.956071497	144	64	56
411.965391885	128	33	64
411.972015614	128	78	64
412.002184167	144	48	62
412.063195875	128	48	64
412.065538182	144	48	50
412.09734572	128	48	64
412.145136833	144	48	71
412.244624925	128	35	64
412.247442362	128	48	64
412.251188855	144	48	67
412.341154149	144	72	101
412.354627294	128	48	64
412.374373127	128	64	64
412.389279059	144	35	50
412.40109066	144	48	82
412.406730932	128	72	64
412.421656361	128	35	64
412.469857759	128	48	64
412.510174925	144	48	78
412.520209652	144	64	69
412.523309189	144	35	53
412.53044542	128	64	64
412.559287734	144	37	114
412.572243459	128	48	64
412.57539449	144	33	91
412.598787093	128	37	64
412.602535054	128	35	64
412.61347095	144	48	98
412.621011087	144	64	75
412.630129468	128	33	64
412.686702839	144	33	52
412.691755453	128	48	64
412.715298642	144	48	103
412.76369064	128	33	64
412.765747992	144	35	52
412.770998764	128	48	64
412.803561123	144	22	78
412.805830345	144	48	113
412.825544952	144	37	97
412.83598511	144	33	88
412.859085036	128	64	64
412.86193676	128	48	64
412.880490698	144	48	99
412.882744696	128	33	64
412.884360087	128	37	64
413.013079155	144	64	82
413.023479986	128	48	64
413.023550554	144	48	36
413.032766526	144	108	127
413.078994721	128	108	64
413.109752963	144	37	122
413.115165922	128	64	64
413.149123067	128	37	64
413.168221849	128	48	64
413.168488967	144	48	19
413.271443663	128	48	64
413.295843438	144	64	82
413.296624451	144	48	8
413.314995966	144	33	87
413.382434981	128	33	64
413.415702536	144	78	45
413.442468098	128	48	64
413.44287125	144	48	7
413.470484229	128	78	64
413.490895517	128	48	64
413.567896834	144	48	29
413.656923508	128	48	64
413.659913245	144	48	27
413.719863341	128	48	64
413.774044097	128	64	64
413.798182472	144	48	32
413.892523819	128	48	64
413.89577727	144	48	27
413.965051988	128	48	64
413.965127843	144	48	49
413.993991126	128	35	64
414.040973852	144	37	87
414.055033093	144	64	48
414.081673678	128	37	64
414.13940993	144	35	52
414.14581012	128	48	64
414.183793374	128	35	64
414.290012953	144	35	53
414.460497293	128	35	64
414.472862261	128	64	64
414.540185587	144	35	53
414.621011774	144	64	80
414.646530548	128	64	64
414.651181097	128	69	64
414.680054214	144	37	109
414.681457119	128	22	64
414.702383562	144	64	87
414.703299054	128	35	64
414.715574259	128	37	64
414.82472803	144	78	82
414.849839411	144	35	54
414.864413753	128	78	64
414.870390488	128	64	64
414.942122461	144	37	117
414.970218909	144	48	41
414.989549532	128	37	64
414.99181804	144	78	80
415.022344875	128	78	64
415.023307639	128	48	64
415.023387795	144	48	24
415.103857848	128	48	64
415.124959337	144	64	90
415.13171361	144	48	22
415.160030232	144	72	118
415.174564924	128	48	64
415.21552129	128	64	64
415.224337821	128	72	64
415.278655652	144	48	35
415.357857928	128	48	64
415.44499923	144	48	83
415.488478863	144	64	60
415.518429503	128	48	64
415.518508813	144	48	59
415.573558623	128	48	64
415.615872748	144	33	21
415.633097285	128	33	64
415.770928237	144	22	74
415.822354829	144	108	127
415.830435308	128	108	64
415.992718174	128	64	64
416.203945176	144	48	43
416.204843754	128	48	64
416.204907614	144	48	18
416.214998685	144	33	85
416.225893134	144	64	90
416.250588015	128	33	64
416.260383065	128	35	64
416.271774397	128	48	64
416.311578764	144	48	35
416.317614001	144	78	85
416.342078329	144	35	54
416.364160315	128	78	64
416.374111541	128	48	64
416.404658917	144	48	10
416.426531416	128	48	64
416.463085132	144	78	83
416.494662869	128	35	64
416.504139644	128	78	64
416.529185245	144	48	11
416.574741948	144	35	53
416.581472755	128	48	64
416.585379462	144	48	32
416.654394705	128	48	64
416.671100497	128	35	64
416.688141711	144	48	13
416.742496907	128	48	64
416.744658855	144	72	108
416.774457	144	35	54
416.794373004	144	48	55
416.807142227	128	72	64
416.839130191	128	48	64
416.83920021	144	48	33
416.870104712	128	35	64
416.983427241	128	48	64
417.015504025	144	48	33
417.017691445	144	35	53
417.025492395	128	64	64
417.073626418	128	48	64
417.08228311	144	33	99
417.095986227	144	48	18
417.116716362	128	33	64
417.143833367	128	48	64
417.195805832	144	48	35
417.266311785	128	48	64
417.266378501	144	48	19
417.273548694	144	64	49
417.303232565	128	48	64
417.331413482	128	64	64
417.395004055	144	48	33
417.437317102	144	108	127
417.441733619	128	48	64
417.441784377	144	48	23
417.509583443	144	64	34
417.545364744	128	108	64
417.546350826	128	64	64
417.595241692	128	48	64
417.634014499	144	64	31
417.634361357	144	48	15
417.697476046	128	64	64
417.729954718	128	48	64
417.730008145	144	48	8
417.776067515	128	35	64
417.801561035	144	64	37
417.823950978	128	48	64
417.856068352	144	78	85
417.869934338	144	48	13
417.890583822	128	78	64
417.922008793	144	35	55
417.949336965	128	48	64
417.949421892	144	48	11
417.973806158	128	64	64
417.990522075	144	78	84
418.002986268	128	35	64
418.034242598	128	78	64
418.095113937	128	48	64
418.107268223	144	35	55
418.114149409	144	48	19
418.179145618	144	33	97
418.205972395	144	64	77
418.213508926	128	33	64
418.22248342	128	48	64
418.222572596	144	48	13
418.252021449	128	35	64
418.298986591	144	72	103
418.321663509	128	48	64
418.326902512	144	35	55
418.359573234	128	72	64
418.368003878	144	48	22
418.41549086	128	22	64
418.458550023	128	64	64
418.472125746	128	35	64
418.536078769	128	48	64
418.536129576	144	48	14
418.557700698	144	35	56
418.611681068	144	64	74
418.62199888600003	144	22	70
418.674722799	128	22	64
418.712831741	128	48	64
418.795264846	144	48	20
418.888545836	128	48	64
419.026243367	128	37	64
419.0364804	144	48	22
419.104725832	128	64	64
419.113883514	128	48	64
419.113938721	144	48	22
419.119921131	144	108	127
419.160217983	128	108	64
419.278823706	128	48	64
419.313290256	144	48	29
419.408117679	128	48	64
419.408177492	144	48	21
419.507615295	128	48	64
419.577545712	128	35	64
419.58486696	144	48	32
419.65760499	144	35	55
419.753410321	128	35	64
419.822598956	128	48	64
419.822667258	144	48	30
419.899723338	144	35	55
419.98577241	128	35	64
420.04612765	128	48	64
420.061253908	144	72	103
420.084851227	144	48	33
420.093798294	144	35	53
420.126070541	128	72	64
420.220574579	144	22	66
420.229557122	128	48	64
420.229592802	144	48	23
420.276757968	128	35	64
420.304673265	128	48	64
420.349853463	144	33	93
420.354051853	144	48	34
420.367098962	128	33	64
420.377627574	144	35	53
420.443339649	128	48	64
420.443446987	144	48	21
420.484124083	144	78	80
420.521885066	128	48	64
420.522342484	128	78	64
420.581763756	144	48	39
420.610931637	128	35	64
420.63160006	144	35	52
420.633953632	144	78	80
420.66158216	128	78	64
420.676625613	128	48	64
420.67668818	144	48	22
420.863010582	128	48	64
420.863523419	144	48	36
421.008348515	128	48	64
421.008758481	144	48	19
421.089227325	128	48	64
421.113551994	144	48	35
421.132401372	144	33	99
421.181118937	128	33	64
421.258662037	128	48	64
421.258731783	144	48	18
421.294316759	128	35	64
421.355626738	128	48	64
421.380164958	144	48	32
421.396528994	144	72	94
421.438427953	144	35	54
421.444103452	128	72	64
421.525260844	128	48	64
421.525331765	144	48	15
421.536807282	128	35	64
421.541628773	144	64	90
421.552804218	128	64	64
421.552845849	144	64	84
421.670032729	128	48	64
421.670343333	144	48	33
421.681894896	144	35	54
421.697354625	128	64	64
421.704933692	144	64	91
421.766735688	128	64	64
421.766812318	144	64	86
421.787057135	128	35	64
421.814669903	128	48	64
421.814717703	144	48	16
421.932608812	144	35	54
421.960427054	128	48	64
421.967517888	144	33	99
421.989623462	128	64	64
422.01695014	128	33	64
422.061049336	128	22	64
422.127634414	128	35	64
422.208098528	144	35	56
422.225461534	144	64	89
422.248498827	128	64	64
422.337184442	144	48	19
422.372104022	144	22	73
422.390397805	128	22	64
422.53063035	128	48	64
422.624374171	144	64	85
422.650890072	128	64	64
422.730585236	144	72	105
422.777804859	144	108	6
422.778229277	128	72	64
422.801769001	128	108	64
422.853517615	144	48	19
422.939800612	144	108	9
422.968173814	128	108	64
423.024362769	144	64	88
423.060947066	128	35	64
423.079804549	128	48	64
423.082947891	128	64	64
423.104526566	144	108	12
423.105424066	144	64	78
423.136127309	128	108	64
423.180937346	128	64	64
423.207103031	144	35	56
423.22996292	144	48	19
423.237133728	144	64	80
423.271090143	144	108	19
423.301862052	128	108	64
423.313126114	128	64	64
423.360326236	128	35	64
423.367119988	144	64	73
423.387648014	144	22	65
423.442006093	144	108	26
423.446585066	128	64	64
423.459329864	144	35	55
423.485620537	128	108	64
423.496525059	128	48	64
423.61149947	128	35	64
423.621404672	144	108	32
423.631933311	144	33	99
423.65310623	128	108	64
423.653968751	144	48	18
423.683163245	128	33	64
423.691152922	144	35	55
423.778464812	144	64	75
423.781788152	128	64	64
423.806336149	144	108	35
423.836145537	128	108	64
423.847055612	128	48	64
423.860851967	128	35	64
423.95782721	144	35	56
423.972475933	144	108	39
423.999807804	144	48	18
424.017103466	128	108	64
424.088964064	128	48	64
424.141855682	144	108	46
424.18302263	144	64	78
424.205052154	128	108	64
424.248801304	128	64	64
424.32005178	144	108	49
424.326870301	144	48	18
424.327471545	128	22	64
424.387383107	128	108	64
424.422509713	128	48	64
424.468269707	144	33	100
424.521798413	144	108	53
424.531737202	128	33	64
424.538097493	144	22	68
424.557321297	128	22	64
424.568364597	144	48	19
424.591048954	128	108	64
424.596363187	144	72	101
424.607901448	128	48	64
424.617518244	144	22	68
424.660530656	128	22	64
424.661026869	128	72	64
424.677303739	128	35	64
424.692700213	144	108	54
424.752817472	128	108	64
424.753302211	144	48	18
424.774906752	144	35	57
424.808510845	128	48	64
424.877829487	144	108	56
424.912122723	144	48	18
424.919367245	128	108	64
424.927844494	128	35	64
424.954666974	144	64	76
424.991960337	128	48	64
425.00678804	144	35	56
425.043232184	144	108	59
425.08457029	128	108	64
425.095982737	144	48	18
425.140966891	128	64	64
425.175945881	128	48	64
425.19331652	128	35	64
425.204866818	144	108	60
425.262988679	144	48	18
425.267930482	128	108	64
425.275694997	144	35	55
425.299933166	144	33	106
425.316466926	144	64	70
425.342539193	128	48	64
425.348211594	128	33	64
425.388322711	144	108	61
425.433441837	128	108	64
425.455326379	128	35	64
425.487804236	144	48	19
425.50768569	128	48	64
425.55830928	144	35	55
425.57316593	144	108	64
425.595962093	144	48	19
425.619820958	128	108	64
425.653494864	128	48	64
425.720577039	144	22	71
425.738181687	144	108	64
425.751402378	144	48	21
425.75492582	128	64	64
425.759583288	128	22	64
425.788537092	128	108	64
425.793481013	128	35	64
425.803444063	128	48	64
425.831611034	144	22	71
425.857686139	144	35	55
425.906178711	144	108	65
425.925563134	128	22	64
425.95471188	144	48	20
425.973890591	128	108	64
425.986754125	128	48	64
426.10971661	144	108	66
426.130275998	144	64	69
426.131954957	144	78	80
426.13220924	144	48	20
426.141103852	128	48	64
426.153426506	128	108	64
426.196828152	128	78	64
426.216137876	128	64	64
426.245575375	144	48	21
426.271682436	144	108	68
426.279182377	144	78	80
426.304962484	128	48	64
426.319119389	128	108	64
426.321883339	128	78	64
426.401367288	144	48	23
426.439993035	144	108	68
426.461069846	128	35	64
426.470047692	128	48	64
426.485159576	128	108	64
426.535256993	144	64	79
426.540826356	144	35	56
426.604596654	144	108	69
426.614822299	144	48	22
426.631227556	144	72	90
426.636710347	128	48	64
426.649119574	128	108	64
426.671689853	144	22	62
426.681704118	128	72	64
426.68636957	128	35	64
426.72504859	128	22	64
426.73470004	144	48	25
426.775073595	144	35	56
426.788876646	144	108	70
426.822458689	128	48	64
426.837418377	128	108	64
426.971565718	144	108	71
426.977626245	128	35	64
427.000249215	144	33	101
427.017738736	128	108	64
427.040324502	144	35	56
427.061235682	128	64	64
427.066416272	128	33	64
427.155029368	144	108	71
427.219731853	128	108	64
427.244212574	128	35	64
427.288076032	144	22	106
427.307461407	144	35	56
427.326765423	128	22	64
427.336749603	144	108	72
427.384475564	144	64	84
427.384739488	128	108	64
427.466485455	128	64	64
427.47075654	128	35	64
427.504288235	144	108	74
427.551385645	128	108	64
427.557755156	144	35	56
427.688323213	144	108	74
427.740047063	128	108	64
427.782424486	144	64	87
427.79935234	128	35	64
427.80584008	144	78	82
427.816762182	144	33	103
427.838339613	128	78	64
427.847787814	128	64	64
427.854315416	144	108	74
427.866544305	128	33	64
427.923894437	128	108	64
427.945038158	144	35	56
428.040223623	144	108	75
428.051918024	144	64	83
428.083357107	128	64	64
428.085427362	128	108	64
428.127314453	128	35	64
428.135024091	144	64	80
428.206147147	144	108	75
428.266719336	128	108	64
428.272399489	144	35	56
428.383391431	144	72	91
428.387637718	144	108	76
428.390762729	128	64	64
428.433005793	128	108	64
428.433114045	128	72	64
428.545855764	128	48	64
428.557497813	144	108	78
428.610545579	128	35	64
428.617362822	128	108	64
428.633242687	144	33	111
428.700131056	128	33	64
428.737274578	144	108	78
428.76460372	144	35	60
428.782617435	128	108	64
428.921300643	144	108	80
428.943896221	128	35	64
428.966334203	128	108	64
428.986817058	144	22	123
428.994814854	128	22	64
429.087282341	144	108	80
429.107025198	144	35	61
429.134493583	128	108	64
429.269121568	144	108	83
429.349599955	128	35	64
429.353012755	128	108	64
429.43838964	144	108	84
429.470949741	144	78	80
429.48367911	128	108	64
429.504132381	128	78	64
429.56617402	144	35	61
429.604899763	144	108	85
429.67354085	128	108	64
429.7444546	128	35	64
429.778247835	144	108	87
429.81755262	128	108	64
429.900566874	144	72	92
429.938476256	144	108	87
429.964667483	128	72	64
429.986765293	128	108	64
429.998269719	144	35	64
430.09155694	144	64	85
430.10415215	144	108	89
430.133732119	128	64	64
430.149199295	128	108	64
430.154767706	144	22	124
430.173784522	128	22	64
430.223315009	144	64	75
430.27011863	144	108	91
430.27801162	144	33	110
430.314989731	128	108	64
430.315287268	128	64	64
430.331202264	128	33	64
430.38625561	144	64	87
430.41113362	128	35	64
430.44872267	144	108	93
430.465385623	128	64	64
430.50973279	128	108	64
430.553219564	144	64	75
430.568028696	144	35	64
430.574241771	144	80	90
430.603011026	144	108	93
430.632171355	128	64	64
430.651006847	128	108	64
430.770328495	144	108	92
430.797067378	144	64	86
430.798584181	128	64	64
430.819645115	128	108	64
430.889704087	144	64	78
430.937990419	144	108	94
430.949141785	144	33	36
430.96554819	128	64	64
430.985226382	128	108	64
430.986389058	128	33	64
431.046740922	128	35	64
431.082624897	144	78	80
431.104013749	144	108	94
431.111444638	128	78	64
431.114160964	144	64	86
431.125214097	144	35	63
431.150532462	128	108	64
431.165394866	128	64	64
431.287343224	144	108	96
431.309889714	144	64	70
431.331813858	128	64	64
431.333777764	128	108	64
431.443495316	128	35	64
431.451343726	144	108	96
431.477779371	144	64	79
431.499511013	144	33	118
431.515458179	128	64	64
431.522886214	128	108	64
431.537609542	128	33	64
431.539932467	144	22	21
431.591856548	128	22	64
431.638420273	144	108	98
431.64950249	144	22	28
431.66036884	144	64	70
431.667067466	144	72	91
431.694236252	128	80	64
431.696873829	128	72	64
431.697263432	128	64	64
431.698664157	128	108	64
431.713387011	144	35	63
431.726946537	128	22	64
431.783831037	144	22	32
431.78407173	128	35	64
431.82078985	144	108	101
431.841146914	144	64	85
431.841729497	128	22	64
431.867332252	128	108	64
431.874720011	144	35	62
431.881392776	128	64	64
431.917203093	144	33	28
431.92922922	144	22	38
431.966870604	128	33	64
431.970562877	128	35	64
431.973413018	128	22	64
432.004720601	144	108	102
432.04865322	128	108	64
432.064071237	144	22	44
432.07463921	144	35	60
432.13850806	128	35	64
432.14303434	128	22	64
432.169073804	144	108	103
432.199046358	144	22	48
432.225107287	144	35	60
432.241526162	128	108	64
432.277479073	128	22	64
432.288074318	128	35	64
432.349150584	144	22	52
432.352492512	144	108	104
432.35937629	144	35	58
432.410627436	128	22	64
432.415977339	128	108	64
432.422981195	128	35	64
432.481796569	144	22	56
432.500760087	144	33	119
432.507264164	144	35	58
432.507804652	144	64	92
432.538593705	144	108	106
432.550114068	128	33	64
432.558314425	128	22	64
432.573524735	128	35	64
432.604271936	128	108	64
432.629800346	144	22	60
432.642768647	144	35	59
432.693744128	128	22	64
432.705870075	128	35	64
432.737734457	144	78	84
432.7442741	144	108	109
432.764833276	144	22	66
432.776117758	144	35	60
432.781970913	128	78	64
432.78721908	128	108	64
432.818120558	128	35	64
432.842202335	128	22	64
432.885267406	144	22	66
432.903478822	144	108	109
432.907748375	144	35	57
432.952448934	128	35	64
432.972261404	128	108	64
432.97620575	128	22	64
433.050293725	144	33	21
433.097195423	144	35	61
433.101712758	128	35	64
433.105293286	128	33	64
433.111494974	144	108	114
433.120568063	144	22	78
433.120784581	128	22	64
433.165331459	144	22	86
433.168413894	128	108	64
433.191887383	144	35	61
433.242339152	128	22	64
433.2549379	128	35	64
433.286547273	144	108	116
433.305532761	144	72	92
433.314505827	144	22	96
433.336338502	128	108	64
433.340375681	144	35	62
433.353451787	128	72	64
433.408936357	128	22	64
433.437170775	128	35	64
433.454210229	144	108	116
433.466245269	144	22	115
433.511290562	128	22	64
433.521918954	128	108	64
433.567192261	144	33	120
433.581972178	144	35	60
433.617045582	128	33	64
433.661236806	144	108	122
433.686759219	128	35	64
433.717784725	128	108	64
433.757210896	144	35	59
433.852860432	128	35	64
433.855567716	144	108	125
433.922539334	128	108	64
434.014762835	144	35	43
434.019056235	144	33	21
434.031306026	144	22	127
434.03757332	144	108	125
434.061733345	128	22	64
434.065816902	128	33	64
434.069619211	128	35	64
434.098550375	128	108	64
434.20926372	128	64	64
434.215956	144	35	76
434.220601084	144	108	127
434.289557223	128	35	64
434.312070688	128	108	64
434.432153687	144	78	78
434.444481353	144	108	127
434.450064412	144	33	116
434.462515847	144	35	32
434.467759297	128	78	64
434.499065953	128	33	64
434.500907143	128	108	64
434.51943559	128	35	64
434.651738897	144	108	127
434.667218919	144	35	73
434.708054725	128	108	64
434.736320559	128	35	64
434.844068691	144	80	88
434.898440922	144	35	54
434.935001125	144	33	19
434.937567286	144	72	86
434.952707064	128	35	64
434.961182452	144	108	127
434.982045382	128	108	64
434.983544056	128	33	64
434.985809234	128	72	64
435.072260384	144	22	43
435.098407617	144	35	58
435.169460946	128	35	64
435.269063374	144	108	127
435.316517374	128	108	64
435.350456917	144	35	16
435.36716598	144	33	114
435.368393865	128	35	64
435.416779412	128	33	64
435.491819939	144	35	35
435.554783947	128	35	64
435.658581455	144	108	127
435.698010995	144	35	74
435.720613839	128	108	64
435.767262641	128	22	64
435.769319398	128	35	64
435.83382853	144	33	18
435.842114221	128	80	64
435.875401611	144	22	96
435.888132062	128	33	64
435.931937826	144	35	66
435.972102834	128	35	64
436.147404356	144	108	127
436.149030394	144	35	36
436.184811665	128	22	64
436.187680091	128	108	64
436.203394772	128	35	64
436.234391232	144	33	109
436.267299874	144	78	82
436.282237694	128	33	64
436.297769717	128	78	64
436.398239938	144	35	21
436.447545154	128	35	64
436.591718468	144	35	56
436.593524584	144	64	115
436.641763508	144	33	23
436.686738624	128	35	64
436.686899176	144	108	127
436.718736605	128	33	64
436.743721395	144	72	96
436.755209927	128	108	64
436.791492308	128	64	64
436.822817037	128	72	64
436.831032745	144	35	70
436.938040875	128	35	64
436.990087042	144	22	80
437.10203005	144	33	117
437.112858844	144	35	51
437.135125853	128	33	64
437.142532784	144	64	116
437.169491725	128	35	64
437.198068767	144	80	91
437.25053085	128	22	64
437.312637986	144	108	127
437.350508299	144	35	39
437.365873156	128	108	64
437.392002512	128	64	64
437.403068815	128	35	64
437.516799885	144	33	28
437.566089594	144	35	43
437.566992301	128	33	64
437.636160154	128	35	64
437.743088857	144	64	75
437.788091894	144	72	82
437.851000402	128	72	64
437.94211463	144	108	127
437.96847586	144	33	115
437.989700487	128	108	64
438.016102729	128	33	64
438.031304543	144	78	80
438.049477379	144	35	115
438.073824213	128	78	64
438.103143939	128	35	64
438.126730972	128	64	64
438.187717358	128	80	64
438.417989264	144	33	23
438.439219154	144	64	38
438.472244619	128	33	64
438.631627713	144	35	95
438.653635055	144	72	86
438.700467397	128	72	64
438.714695742	144	108	127
438.778234853	128	35	64
438.798738388	128	108	64
438.901191976	144	33	118
438.936077054	128	33	64
438.942334985	128	64	64
439.050326622	144	80	93
439.314576835	144	35	111
439.391797353	144	64	18
439.461429417	128	35	64
439.624169071	144	108	127
439.74747001	128	108	64
439.786166119	144	33	69
439.80544954	128	33	64
439.844098068	144	78	70
439.885998637	128	78	64
439.949125809	144	35	115
440.110336253	128	35	64
440.165827111	128	80	64
440.21715462	144	33	122
440.267817371	128	33	64
440.289252666	144	72	81
440.369721487	128	72	64
440.427002619	128	64	64
440.561764032	144	108	127
440.634107001	128	108	64
440.651305073	144	35	101
440.667554883	144	33	65
440.69171364	144	64	38
440.722425837	128	33	64
440.865846691	144	78	78
440.894547816	128	35	64
440.903311142	128	78	64
440.950139445	144	80	59
441.268026953	144	33	111
441.332451181	144	35	102
441.334041707	128	33	64
441.510302808	128	35	64
441.59108574	144	108	115
441.697191808	128	108	64
441.715280373	144	78	79
441.731628731	144	35	99
441.753661916	128	78	64
441.782592372	144	33	122
441.818893679	128	33	64
441.877048102	128	35	64
442.065042429	144	35	99
442.126258432	128	80	64
442.260593221	128	64	64
442.483762965	144	33	63
442.504689701	144	80	59
442.522862041	128	33	64
442.542785703	144	64	74
442.543948423	128	35	64
442.556886656	144	72	88
442.583063873	128	64	64
442.58750001	128	72	64
442.664256258	144	78	80
442.688765134	128	78	64
442.709945164	144	108	102
442.785561435	128	108	64
442.798788314	144	35	103
442.957980235	144	64	72
443.044074642	128	35	64
443.199669933	144	35	96
443.20121682	144	33	76
443.25193632	128	33	64
443.303774571	128	35	64
443.490401192	128	64	64
443.532986881	144	78	73
443.599319856	144	35	101
443.616388754	128	78	64
443.818011186	144	33	118
443.868809296	128	33	64
443.990758203	128	35	64
444.057807626	144	72	86
444.122501346	128	72	64
444.291411262	128	80	64
444.416062521	144	35	101
444.434535519	144	33	14
444.444453421	144	80	59
444.484300748	128	33	64
444.502702117	144	78	71
444.528053628	128	78	64
444.578072877	128	35	64
444.625561332	128	80	64
444.686537906	144	98	88
444.849010528	144	35	94
444.937624683	128	35	64
445.00295441	144	33	125
445.052869999	128	33	64
445.283954938	144	80	59
445.371054489	144	78	71
445.413093642	128	78	64
445.434340773	128	80	64
445.541720238	144	35	107
445.769326824	144	33	18
445.792977525	144	64	60
445.818422245	128	33	64
445.894435073	128	35	64
445.928254623	144	72	90
445.973476342	128	72	64
446.043517137	128	64	64
446.256740511	144	80	59
446.334961533	144	33	122
446.373909766	128	33	64
446.375812127	144	108	127
446.39783207	128	80	64
446.402316102	144	78	72
446.4226613	128	108	64
446.423825568	128	78	64
446.679421148	128	98	64
446.881762074	144	108	127
446.915252164	144	35	101
446.92959857	128	108	64
446.947059505	144	33	17
447.024003409	128	33	64
447.136796727	144	22	127
447.221027133	144	98	93
447.31167203	128	35	64
447.373406886	144	78	67
447.374204956	144	80	59
447.40165087	144	33	123
447.416595217	144	108	127
447.418499287	128	78	64
447.441213603	128	108	64
447.452949287	128	33	64
447.491689699	128	80	64
447.867298759	128	22	64
447.935187891	144	108	127
447.94194885	144	72	83
447.97912476	128	108	64
447.989979517	128	72	64
448.085199575	144	33	20
448.136970178	128	33	64
448.472615519	144	80	59
448.48042519	144	78	69
448.483706438	144	108	127
448.525024696	128	78	64
448.529976308	128	108	64
448.546023828	144	35	103
448.581924759	128	80	64
448.582230075	144	33	118
448.640452148	128	33	64
448.995169061	128	35	64
449.032968081	144	108	127
449.077576334	128	108	64
449.101609207	144	33	82
449.12641115	144	105	121
449.153635033	128	33	64
449.197227349	128	105	64
449.599154139	144	108	127
449.644678443	128	108	64
449.69960944	144	35	99
449.712218241	144	80	60
449.713965321	144	78	73
449.731105164	128	78	64
449.828734481	128	80	64
449.869160996	144	33	123
449.907463509	128	33	64
450.175895632	144	108	127
450.194302532	128	35	64
450.242173198	128	108	64
450.276406395	144	72	97
450.322983443	128	72	64
450.400951933	128	22	64
450.441604414	128	98	64
450.443960073	144	33	66
450.505673277	128	33	64
450.764139599	144	108	127
450.808822854	144	80	59
450.809294362	128	108	64
450.816020212	144	35	98
450.845009766	144	98	93
450.941662181	128	80	64
451.080499462	144	64	49
451.168561463	144	33	124
451.221296276	128	33	64
451.308784185	128	64	64
451.345211644	128	35	64
451.349160208	144	108	127
451.393887204	128	108	64
451.413500931	144	64	83
451.615412098	128	98	64
451.735222696	144	33	72
451.760664437	128	64	64
451.773008814	128	33	64
451.782743594	144	78	74
451.8170959	128	78	64
451.86625655	144	35	95
451.904811561	144	64	102
451.913425723	144	108	127
451.940313904	128	108	64
451.958351193	144	105	119
451.968252358	128	105	64
451.989058742	144	80	63
452.167065798	128	80	64
452.361163647	128	64	64
452.382896206	144	72	91
452.397260274	144	33	121
452.39758861	128	72	64
452.449861334	128	33	64
452.464176028	144	108	127
452.49179492	128	108	64
452.505928136	144	64	74
452.511569893	128	35	64
452.651256098	128	64	64
452.823757893	144	64	40
452.850212577	128	64	64
452.941897585	144	64	33
452.98136124	144	78	71
453.016491471	144	35	95
453.036570925	128	78	64
453.065933477	144	108	127
453.09152414	128	108	64
453.109448949	144	80	70
453.229931949	128	80	64
453.335218808	144	33	69
453.371432531	128	33	64
453.648413589	144	108	127
453.670985612	128	108	64
453.678273538	128	35	64
454.019808174	144	33	114
454.058902943	128	33	64
454.094884904	128	64	64
454.201672249	144	35	101
454.213811893	144	108	127
454.249227881	144	105	127
454.253133982	128	105	64
454.260031698	128	108	64
454.303087963	144	80	75
454.311363595	144	78	69
454.33251675	144	64	82
454.355744101	128	78	64
454.371613143	144	98	97
454.417490768	128	64	64
454.575118831	144	64	77
454.633771758	128	64	64
454.745492037	144	72	88
454.794963455	144	33	66
454.799626816	144	108	126
454.817973941	128	33	64
454.842093822	128	108	64
454.888328082	144	64	85
454.895148137	128	35	64
454.963733547	128	72	64
455.089995415	128	80	64
455.298619329	128	98	64
455.352277205	144	33	115
455.366909924	144	35	98
455.40095487	128	33	64
455.405605631	144	78	67
455.41613875	144	108	126
455.439404765	128	78	64
455.439753799	144	80	64
455.460298583	128	108	64
455.532263859	128	80	64
455.545370416	128	64	64
455.760938022	144	64	55
455.800962195	128	64	64
455.83920153	144	37	38
455.980625477	144	108	125
456.020959367	128	108	64
456.031840526	128	37	64
456.042821928	144	64	63
456.112126071	128	35	64
456.335673866	144	33	70
456.386387571	128	33	64
456.437113101	144	37	82
456.461608052	128	64	64
456.533812476	144	105	127
456.56102238	144	64	97
456.566248791	128	105	64
456.582370785	144	80	62
456.598048625	144	108	125
456.599674381	144	35	100
456.643427802	128	108	64
456.665142838	128	37	64
456.68779924	128	80	64
456.68883632	144	98	90
456.830247501	144	72	79
457.135074022	144	33	114
457.165498783	128	72	64
457.173952022	128	33	64
457.180953028	144	78	63
457.214600244	144	108	124
457.238910456	128	108	64
457.239826553	128	78	64
457.261595806	128	35	64
457.472789729	144	37	104
457.530249489	128	98	64
457.56180496	128	64	64
457.618470588	128	37	64
457.664715833	144	35	100
457.731545255	144	80	113
457.795359872	144	108	124
457.842862804	128	108	64
458.286044142	144	33	72
458.32351519	128	33	64
458.359296322	144	78	63
458.378740211	128	78	64
458.415309514	144	108	122
458.440495421	128	108	64
458.483106959	128	80	64
458.511566831	128	35	64
458.739211715	144	37	97
458.826932056	128	37	64
458.882059782	144	35	97
458.9193798	144	33	120
458.942178945	144	105	127
458.975949296	144	80	71
458.982393299	128	105	64
458.986183759	128	33	64
459.014847579	144	108	123
459.035519449	128	108	64
459.037457807	144	98	98
459.092112049	128	80	64
459.164934578	144	72	74
459.565652635	144	108	124
459.585855844	128	108	64
459.66101475	128	35	64
459.697239622	128	98	64
459.917341044	128	72	64
460.098087324	144	35	99
460.136186842	144	33	77
460.15792277	144	108	124
460.17281079	144	80	60
460.183114273	144	78	68
460.18718851	128	33	64
460.210520172	128	78	64
460.228084323	144	64	60
460.235400284	128	64	64
460.240786282	128	108	64
460.44935071	144	64	78
460.548851639	144	37	77
460.668068508	128	37	64
460.816927071	144	108	123
460.828398756	128	64	64
460.836683936	128	108	64
460.971215693	144	37	83
460.995356814	128	35	64
461.016271293	144	64	89
461.060658568	128	37	64
461.086172005	128	80	64
461.152807845	144	33	120
461.185642032	128	33	64
461.392451976	144	80	64
461.395726788	128	64	64
461.39755986	144	35	97
461.400653077	144	72	81
461.410616865	144	105	127
461.41419221	144	108	123
461.429893569	144	98	106
461.447978136	144	78	67
461.449994032	128	105	64
461.459239124	128	108	64
461.464719429	128	29	64
461.486327727	128	78	64
461.623163228	144	64	99
461.972731447	144	37	106
462.019326303	144	33	77
462.050548822	144	108	124
462.054637743	128	33	64
462.06014376	128	64	64
462.092302334	128	108	64
462.178966934	128	35	64
462.214307286	128	98	64
462.309994443	128	37	64
462.327259423	144	64	90
462.334928121	128	72	64
462.368140127	128	64	64
462.370690841	128	80	64
462.552389813	144	80	71
462.627036851	144	64	94
462.644910937	144	108	123
462.648503877	144	35	98
462.65190919	144	33	122
462.67656715	144	78	59
462.708228971	128	33	64
462.708561878	128	108	64
462.980981112	128	78	64
463.264111857	144	108	121
463.324500342	128	108	64
463.327838831	144	78	67
463.369394482	128	78	64
463.561972432	128	35	64
463.61318102	128	64	64
463.61617647	128	80	64
463.636248632	144	33	76
463.672326832	128	33	64
463.867084868	144	80	76
463.875157878	144	105	124
463.881382914	144	108	122
463.913986647	144	35	94
463.915629535	128	105	64
463.924003269	128	108	64
463.950504863	144	78	60
463.965891235	128	78	64
463.971964774	144	98	94
464.100481967	144	72	86
464.513657037	144	108	122
464.519382458	144	33	116
464.528454218	144	64	52
464.5515682	144	78	48
464.557156481	128	33	64
464.559077994	128	108	64
464.57184534	128	64	64
464.607978893	128	78	64
464.646870642	128	98	64
464.745082863	128	35	64
464.775599208	144	64	39
464.860754045	128	80	64
464.937989223	144	37	127
465.003864478	128	72	64
465.088631097	144	80	85
465.115888363	144	35	100
465.130688028	144	108	123
465.151261167	128	37	64
465.168795493	128	108	64
465.203313167	144	33	75
465.237259517	128	33	64
465.239001403	144	78	32
465.239143952	128	78	64
465.261525454	128	64	64
465.508770762	144	64	83
465.552044978	128	64	64
465.591209089	144	64	78
465.668279916	128	64	64
465.687978868	144	64	92
465.763779974	144	108	122
465.767605557	128	64	64
465.772367997	144	78	23
465.78751334	144	64	97
465.803491328	128	108	64
465.849134206	128	78	64
465.867902008	128	64	64
465.904750249	128	35	64
466.083590155	144	64	95
466.10175906	128	80	64
466.118102971	144	33	124
466.15143533	128	64	64
466.157347363	128	33	64
466.292396604	144	105	127
466.313902794	128	105	64
466.382954166	144	35	97
466.383683722	144	80	92
466.414122845	144	108	123
466.436714533	128	108	64
466.471790472	144	98	103
466.586358256	144	72	83
466.744777031	144	64	92
466.772440446	144	37	38
466.978907706	144	78	114
467.02222558	144	33	68
467.02742923	128	78	64
467.037320363	128	33	64
467.045964164	128	64	64
467.063735523	144	108	123
467.103695855	128	108	64
467.111949059	128	35	64
467.15192541	128	80	64
467.347525377	128	98	64
467.555553254	128	72	64
467.601111671	144	35	99
467.687114469	144	33	114
467.712783857	144	108	125
467.723310026	144	80	63
467.741095543	128	33	64
467.785198267	128	108	64
468.182540793	128	37	64
468.363310008	144	108	124
468.408317461	128	108	64
468.409781232	144	78	90
468.44075042	128	78	64
468.545509451	128	35	64
468.636979931	144	33	71
468.671740922	128	33	64
468.72904971	144	64	110
468.736219561	128	64	64
468.856166683	144	37	101
468.883569552	144	64	110
468.895056129	128	37	64
468.935576969	128	64	64
468.998511202	144	35	97
469.011829629	144	108	124
469.058790878	128	108	64
469.087649068	144	98	91
469.098754548	128	98	64
469.098798791	144	98	78
469.11785941	144	64	103
469.156716608	128	80	64
469.168285313	128	64	64
469.219834792	144	72	99
469.368142303	144	64	105
469.402156576	128	64	64
469.582359024	144	64	104
469.635363944	128	64	64
469.663488225	144	108	125
469.705852523	144	33	119
469.720009669	128	33	64
469.720141596	128	108	64
469.830704016	128	98	64
469.833972392	144	64	105
469.845283857	128	35	64
469.853816805	128	64	64
469.997906147	144	64	102
470.002907385	144	80	66
470.022283599	128	64	64
470.0561029	144	37	84
470.095787017	128	37	64
470.104016301	128	72	64
470.234087311	144	64	103
470.289412845	144	108	124
470.319491848	144	33	68
470.324256136	144	105	125
470.350107161	144	35	99
470.35427262	144	78	86
470.370479523	128	33	64
470.373307036	128	108	64
470.378432716	128	64	64
470.381358648	128	78	64
470.398053006	128	105	64
470.621859906	144	64	80
470.671643986	128	64	64
470.971761719	144	64	50
470.996348386	144	108	124
471.042166553	128	108	64
471.151176315	128	80	64
471.33031897	128	64	64
471.362257777	128	35	64
471.370607761	144	33	117
471.408441344	128	33	64
471.488507655	144	78	75
471.530228114	128	78	64
471.630872818	144	108	124
471.674952946	128	108	64
471.700321549	144	35	99
471.704925867	144	98	111
471.839061685	144	72	84
472.039912142	144	80	67
472.209399222	144	105	126
472.264390041	128	105	64
472.312571488	144	37	122
472.337986961	144	33	73
472.362415809	144	108	125
472.372093516	128	33	64
472.400792395	128	108	64
472.464022633	128	37	64
472.482534919	128	98	64
472.495728059	128	35	64
472.757332442	128	72	64
472.949208456	144	35	95
472.970267074	144	33	119
473.021533581	128	33	64
473.030889849	144	108	125
473.07356984	128	108	64
473.108111482	144	78	79
473.10831894	128	78	64
473.11858512	128	80	64
473.595588813	144	64	57
473.654459325	128	64	64
473.678215008	144	108	124
473.717433146	128	108	64
473.818518904	144	72	94
473.894953379	128	35	64
474.02193586	144	37	101
474.034598523	144	80	77
474.037686611	144	33	69
474.055253037	128	33	64
474.062567781	128	37	64
474.193700878	144	105	127
474.264438015	128	105	64
474.271633283	144	108	124
474.282062287	144	64	81
474.307902117	128	72	64
474.332757901	144	35	96
474.340915698	128	108	64
474.386244061	144	78	77
474.418200159	128	78	64
474.511386467	128	64	64
474.894991837	144	108	125
474.955646376	128	108	64
475.020402138	144	33	119
475.028647124	144	64	78
475.046834887	128	33	64
475.063189689	128	80	64
475.305504658	128	64	64
475.361480986	128	35	64
475.398975078	144	72	91
475.478592195	144	64	73
475.501462284	128	64	64
475.512269012	144	108	126
475.557219201	128	108	64
475.570415452	144	64	73
475.612835666	144	33	65
475.675032343	128	72	64
475.688229713	128	33	64
475.699857156	144	35	101
475.760027087	144	105	127
475.770815404	144	78	74
475.805156586	128	78	64
475.830728169	128	105	64
475.879023465	128	64	64
475.8824229	128	98	64
476.113320191	144	80	85
476.122631445	144	108	125
476.178993069	128	37	64
476.194173916	128	108	64
476.320771448	144	72	85
476.52693029	128	80	64
476.595584894	128	35	64
476.729980523	144	108	123
476.737525938	144	33	121
476.754721187	128	33	64
476.772911838	128	108	64
476.842636933	128	72	64
477.011163291	144	78	65
477.011422173	128	78	64
477.11883027	144	35	100
477.311444746	144	108	124
477.340106956	144	72	83
477.368285158	128	108	64
477.664526161	144	105	126
477.699156096	128	105	64
477.804637406	144	33	67
477.841574771	128	33	64
477.879949474	144	108	124
477.923795456	128	108	64
477.926445849	128	72	64
477.933048976	144	105	126
477.961857299	128	35	64
477.970870583	128	105	64
478.11338965	144	80	85
478.416638376	144	35	99
478.444192628	144	108	125
478.483868728	128	108	64
478.506852779	144	72	85
478.537663839	144	33	119
478.565221963	144	78	72
478.573241609	128	33	64
478.584694569	128	78	64
478.605689265	144	64	83
478.611347686	128	64	64
478.611385814	144	64	78
478.742565046	128	80	64
478.763014853	128	64	64
479.012545957	144	108	126
479.034865096	128	108	64
479.060784125	128	72	64
479.17210964	144	64	63
479.254376087	128	64	64
479.360384795	128	35	64
479.433345322	144	33	119
479.506767598	128	33	64
479.573330868	144	64	63
479.573589753	128	64	64
479.573636035	144	64	74
479.576950299	144	108	124
479.600733854	128	108	64
479.602664187	128	64	64
479.81709963	144	35	101
479.874555278	144	64	62
479.874867843	128	64	64
479.874907278	144	64	72
479.90547323	144	72	87
480.077558345	144	108	124
480.122871655	128	108	64
480.162515558	128	64	64
480.419509497	144	105	126
480.445302472	144	80	73
480.486558345	144	33	124
480.498551106	128	105	64
480.512069545	128	33	64
480.534983748	144	78	74
480.535210492	128	78	64
480.592616396	144	108	125
480.639370621	128	108	64
480.666035141	128	72	64
480.738614523	128	35	64
481.06171216	144	108	126
481.117213626	128	108	64
481.182813326	144	35	96
481.210207582	128	80	64
481.307421365	144	97	62
481.528926266	144	108	126
481.584247919	128	108	64
481.592083371	144	72	96
481.604850272	144	33	119
481.642720395	128	33	64
481.765444549	128	105	64
481.957589848	144	78	67
481.957814736	128	78	64
482.060470358	144	108	124
482.061030342	128	108	64
482.064595234	128	72	64
482.091093777	128	64	64
482.187246735	128	35	64
482.477993725	144	108	122
482.524186918	128	108	64
482.666470998	144	35	96
482.928461818	144	108	120
482.967000875	128	108	64
483.032764886	144	80	79
483.113790253	144	33	116
483.174987642	128	33	64
483.379513333	144	108	118
483.380501668	144	78	66
483.380694053	128	78	64
483.386353308	144	72	93
483.399513088	128	108	64
483.599024263	128	97	64
483.646195785	128	72	64
483.662249316	128	35	64
483.762866393	144	108	119
483.805596867	128	108	64
484.072378031	144	97	105
484.082641882	144	35	97
484.129304188	144	108	122
484.182960287	128	108	64
484.313686896	128	80	64
484.42365903	144	34	116
484.479068996	144	108	124
484.519516072	128	108	64
484.564398418	144	33	117
484.632621023	128	34	64
484.647714077	128	33	64
484.804153428	144	108	125
484.838012837	144	80	55
484.866909074	128	108	64
484.983350482	128	80	64
485.114187291	144	78	68
485.16254236	128	35	64
485.164079478	128	78	64
485.194778073	144	108	126
485.195046089	144	72	101
485.216633696	144	80	59
485.233403449	128	108	64
485.338847281	128	80	64
485.495485863	128	72	64
485.533267626	144	35	97
485.546641014	144	108	125
485.558757454	144	34	114
485.570615167	144	80	62
485.590530756	128	108	64
485.702933233	128	80	64
485.711077353	128	34	64
485.86976034	144	108	126
485.94954898	128	108	64
485.954075353	144	80	65
486.019562216	144	33	115
486.060248237	128	33	64
486.067361258	128	80	64
486.204617607	144	108	127
486.283492433	128	108	64
486.288469248	144	80	67
486.363334352	144	78	69
486.405509375	128	78	64
486.41544908	128	80	64
486.486249454	144	34	119
486.521680355	128	35	64
486.53167734	128	97	64
486.537477165	144	108	127
486.57328953	144	80	70
486.607170759	128	108	64
486.702111583	128	34	64
486.707527605	128	80	64
486.854931454	144	108	127
486.88094769	144	80	74
486.933820374	128	108	64
486.935575707	144	97	51
486.949327639	144	35	103
486.999335448	128	80	64
487.114371258	144	33	117
487.172677232	144	108	127
487.190185341	128	33	64
487.218667267	144	80	74
487.239944429	128	108	64
487.336886174	128	80	64
487.469520575	144	108	127
487.537684549	128	108	64
487.573146624	144	80	75
487.665502612	128	97	64
487.679348692	128	80	64
487.714867797	144	78	76
487.735176516	144	108	127
487.75763956	128	78	64
487.805559943	128	108	64
487.823431409	144	97	44
487.823870837	128	97	64
487.857847808	144	80	75
487.861915322	128	35	64
487.974000579	128	80	64
487.991052289	144	97	52
488.003371799	144	108	127
488.042215388	128	97	64
488.072339497	128	108	64
488.079013141	144	72	78
488.138329951	144	80	79
488.186214285	144	97	53
488.207514413	128	97	64
488.213937067	128	72	64
488.215379944	144	34	112
488.234297653	128	80	64
488.269699664	144	108	127
488.30472661	144	97	54
488.330213603	128	108	64
488.34181916	128	97	64
488.419131306	128	34	64
488.419377922	144	80	78
488.430928791	144	97	54
488.48376702	144	35	96
488.510751582	128	97	64
488.520050728	144	108	127
488.525694803	128	80	64
488.565316444	128	108	64
488.572202375	144	33	116
488.580079336	144	97	52
488.628814401	128	33	64
488.653077489	128	97	64
488.687967402	144	80	78
488.752411716	144	108	127
488.797438528	144	97	34
488.797602201	128	97	64
488.800859023	128	80	64
488.820965269	128	108	64
488.838383208	144	97	72
488.854815604	144	68	56
488.876980161	128	97	64
488.916953008	144	78	76
488.924436582	144	80	80
488.944485445	128	78	64
488.97000946	144	97	68
488.986222001	144	108	127
489.009478832	128	97	64
489.032981167	128	80	64
489.03505714	144	97	31
489.046742937	128	108	64
489.057003445	128	97	64
489.103170034	144	97	67
489.109922928	144	60	123
489.125977191	144	80	80
489.149670138	128	60	64
489.159245207	128	97	64
489.161942746	144	72	81
489.174647311	144	97	29
489.196954288	128	97	64
489.202891764	144	108	127
489.210349075	144	97	67
489.23333714	128	80	64
489.260888196	128	97	64
489.270099156	128	108	64
489.282267307	144	97	30
489.297979902	128	72	64
489.31484256	128	68	64
489.318722445	144	80	80
489.412155162	144	108	127
489.42156364	128	80	64
489.426566507	128	97	64
489.426629759	144	97	34
489.448619585	128	97	64
489.465917886	128	108	64
489.468786808	144	68	59
489.472759488	144	97	68
489.50201028	144	80	79
489.525908302	128	97	64
489.549765805	144	97	35
489.574477978	128	97	64
489.581114565	144	33	117
489.586984002	144	72	88
489.603355815	144	108	127
489.621342902	144	97	74
489.621668046	128	80	64
489.639173374	128	33	64
489.648773428	128	72	64
489.664622244	128	97	64
489.669848647	128	108	64
489.684268745	144	97	45
489.696078898	128	35	64
489.699766465	144	80	79
489.711168648	128	97	64
489.760335721	144	97	77
489.789865539	144	108	127
489.794567655	128	97	64
489.804425089	128	80	64
489.812812223	144	97	48
489.838386616	144	72	87
489.839768267	128	97	64
489.851414339	128	108	64
489.881841524	144	80	79
489.883721683	144	97	77
489.892902008	128	72	64
489.942474406	128	97	64
489.965803298	144	97	49
489.969913996	144	108	127
489.971045248	128	80	64
489.989833269	128	97	64
490.000300683	144	35	96
490.007842517	144	78	75
490.018013712	128	108	64
490.039144537	144	97	76
490.039942944	144	80	79
490.040370779	128	78	64
490.053777119	144	72	92
490.066461291	128	72	64
490.066538394	144	72	1
490.069393436	128	68	64
490.096235775	128	97	64
490.100408402	144	97	46
490.109078768	128	72	64
490.121486924	144	108	127
490.132051285	128	97	64
490.135259083	128	80	64
490.174106295	144	97	67
490.18254388	128	108	64
490.207619815	144	80	80
490.208452124	128	97	64
490.243129623	144	68	61
490.250856564	144	97	43
490.272975322	128	97	64
490.283199291	144	72	88
490.283719475	144	108	127
490.283932562	128	80	64
490.305108249	144	97	64
490.328201846	128	72	64
490.330577202	128	97	64
490.331661238	128	108	64
490.354821019	144	97	35
490.363396187	144	80	79
490.390868889	128	97	64
490.426467174	144	78	73
490.438318055	144	97	61
490.458368137	128	80	64
490.463021126	144	108	127
490.466903411	144	72	75
490.473043954	128	97	64
490.473275764	144	34	67
490.499385366	128	108	64
490.510377744	128	78	64
490.526415316	128	72	64
490.530754289	144	97	41
490.533809209	144	80	79
490.56591743	128	97	64
490.566032333	144	97	70
490.605483398	144	108	127
490.615882682	144	72	75
490.624320445	128	80	64
490.628370835	128	72	64
490.642000246	128	97	64
490.649109194	128	108	64
490.672968318	144	33	116
490.681583756	144	72	68
490.686685133	144	80	77
490.702726245	144	97	64
490.705164626	128	33	64
490.726879526	128	72	64
490.742187229	128	97	64
490.744017289	144	78	79
490.751002996	144	108	127
490.765400609	144	97	31
490.779521351	128	68	64
490.779869419	144	72	79
490.780864208	128	80	64
490.782982022	128	78	64
490.798030369	128	108	64
490.81057529	128	97	64
490.825306667	128	72	64
490.832933453	144	97	59
490.856520783	144	80	76
490.862837379	144	72	56
490.892955498	128	97	64
490.903577923	144	108	127
490.908959811	128	72	64
490.924011563	144	68	58
490.929328648	144	97	30
490.932275312	128	108	64
490.947793354	128	80	64
490.961400679	128	97	64
490.963408379	144	72	62
490.987848355	144	97	73
490.992058476	128	72	64
491.021652296	144	80	75
491.021771909	144	78	87
491.029453862	144	72	43
491.038104263	144	108	127
491.042455814	128	97	64
491.063240855	128	78	64
491.069878172	144	97	49
491.076466109	128	72	64
491.08283765	128	108	64
491.090340512	128	97	64
491.101731817	128	80	64
491.130031089	144	72	48
491.150355099	144	97	73
491.152209439	128	34	64
491.164782241	128	68	64
491.167337853	144	80	75
491.17059779	144	108	127
491.175164104	128	72	64
491.198502878	128	97	64
491.203513276	144	97	44
491.212381991	144	72	34
491.214774787	128	108	64
491.228468888	128	35	64
491.228711935	144	78	89
491.239420337	128	97	64
491.250040875	144	68	86
491.256044598	128	80	64
491.258502648	128	72	64
491.263803072	144	97	69
491.277180978	128	78	64
491.2955821	144	72	46
491.302700318	144	108	127
491.321751538	128	97	64
491.325257475	128	72	64
491.332700774	144	80	75
491.348193665	144	97	43
491.349104015	128	108	64
491.375710509	128	97	64
491.379394923	144	72	33
491.408430396	128	80	64
491.414704816	144	78	91
491.425364894	144	97	77
491.425765299	128	72	64
491.431074235	128	68	64
491.452506271	144	108	127
491.464084553	144	72	50
491.477723551	128	97	64
491.480039491	144	97	62
491.483063003	128	78	64
491.485609687	128	108	64
491.492114526	128	72	64
491.499899544	144	80	76
491.524604803	128	97	64
491.542285889	144	35	97
491.545944375	144	72	40
491.546770688	144	68	92
491.549790129	144	97	100
491.558687437	128	72	64
491.597797698	128	97	64
491.597878516	144	97	86
491.600688609	128	80	64
491.6036006	144	108	127
491.613866255	144	72	56
491.626469252	128	72	64
491.632175942	128	108	64
491.64780426	144	80	76
491.673859274	144	78	91
491.695438193	144	72	39
491.714604726	128	78	64
491.725760798	128	72	64
491.736783278	144	108	124
491.750182878	128	80	64
491.756417309	128	97	64
491.756459944	144	97	107
491.761990213	144	72	52
491.789374636	128	108	64
491.794825182	128	68	64
491.808940153	128	72	64
491.815547201	128	97	64
491.816100454	144	80	78
491.823690008	144	97	124
491.863780179	144	72	36
491.883219937	144	108	119
491.883484361	144	68	87
491.892669907	128	72	64
491.894808797	128	97	64
491.898937218	144	97	91
491.904395026	144	78	91
491.907480214	128	80	64
491.925333014	144	34	127
491.930260604	144	72	51
491.931099494	128	108	64
491.941372939	128	78	64
491.95622088	144	33	117
491.958210106	128	97	64
491.958957404	128	72	64
491.971851379	144	80	79
491.972837428	128	33	64
491.977148814	128	34	64
492.010341463	144	97	71
492.013506545	144	72	37
492.036273696	144	108	117
492.052929322	128	97	64
492.052972369	144	97	21
492.059828357	128	72	64
492.072962385	144	78	90
492.078453718	128	80	64
492.079252	144	72	50
492.081064161	128	108	64
492.082098704	128	68	64
492.107779964	128	97	64
492.113068106	128	78	64
492.126710077	128	72	64
492.146340297	144	80	84
492.171612685	144	97	78
492.179706683	144	72	32
492.185225915	144	108	114
492.20800196	144	78	91
492.210862565	128	97	64
492.210897165	144	97	50
492.226411454	128	72	64
492.230848764	128	108	64
492.237069319	144	68	85
492.239983428	128	80	64
492.245158252	144	72	47
492.254886384	128	97	64
492.293185699	128	72	64
492.303816006	144	80	83
492.324643894	144	97	100
492.335397841	144	108	109
492.346572051	144	72	37
492.355267992	128	78	64
492.355491383	144	78	92
492.365306543	128	108	64
492.37740364	128	72	64
492.399811247	128	97	64
492.403305805	144	97	82
492.406025147	128	80	64
492.41635817	144	72	55
492.419167666	128	78	64
492.440633495	128	97	64
492.444074175	128	72	64
492.473639839	144	97	88
492.479396103	144	80	84
492.485774801	144	108	105
492.507015122	144	78	93
492.513923527	144	72	40
492.527836566	128	97	64
492.530084985	144	97	51
492.530830485	128	108	64
492.559787649	128	72	64
492.571813906	128	97	64
492.573759393	128	80	64
492.59410895	128	78	64
492.599078057	144	72	51
492.621430782	144	108	102
492.625623214	144	97	71
492.634830327	144	80	84
492.642709359	144	78	93
492.644341396	128	72	64
492.648470856	128	97	64
492.664057706	128	108	64
492.674131112	144	97	26
492.693809825	128	78	64
492.696597659	144	72	45
492.699428227	128	97	64
492.726219517	128	72	64
492.728785644	128	80	64
492.753629916	144	97	51
492.763461645	144	72	84
492.765862529	144	78	94
492.772631965	128	97	64
492.778275389	128	35	64
492.786272576	144	108	98
492.790661253	144	80	83
492.80968552	128	72	64
492.815970054	128	108	64
492.823228323	144	97	12
492.841801414	128	78	64
492.846995143	128	97	64
492.87219494	144	33	116
492.881549211	144	72	68
492.88204513	128	80	64
492.883157021	144	78	98
492.89252921	144	97	51
492.893263227	128	78	64
492.893560012	128	72	64
492.908089375	128	33	64
492.915970652	128	97	64
492.921248368	144	108	93
492.930364304	144	72	84
492.943169403	144	97	18
492.961395534	144	80	84
492.966116282	128	108	64
492.974204759	128	97	64
492.97708334	128	72	64
492.977325488	144	78	97
493.006030368	128	78	64
493.006174485	144	78	88
493.008024938	144	97	50
493.013930949	144	72	75
493.016332692	144	35	96
493.04404895	128	97	64
493.049133142	128	80	64
493.053904042	128	68	64
493.059604845	128	72	64
493.061692062	144	97	15
493.085677878	144	108	90
493.090983179	128	97	64
493.095983262	144	72	93
493.115457428	128	108	64
493.136022752	144	97	52
493.14227015	144	80	84
493.144459034	128	72	64
493.147854544	144	68	87
493.158479964	128	97	64
493.191794701	144	97	14
493.195811403	144	72	84
493.222607619	128	80	64
493.222923582	128	68	64
493.226641534	128	72	64
493.23429158	144	108	86
493.275852596	128	97	64
493.280530243	144	72	98
493.280826473	128	108	64
493.283984954	144	80	84
493.310064567	128	72	64
493.322166204	144	97	15
493.34600439	128	97	64
493.365332245	144	72	89
493.366583957	144	108	79
493.388807274	144	97	53
493.393106424	128	80	64
493.39347891	128	72	64
493.404366035	144	68	87
493.413396088	128	108	64
493.416170622	128	97	64
493.442851167	144	97	13
493.447622364	144	72	100
493.454359104	144	80	86
493.466188823	128	97	64
493.473027931	128	68	64
493.476983	128	72	64
493.488582633	144	97	44
493.518705534	144	108	75
493.533348625	144	72	89
493.542441764	128	97	64
493.552100511	128	80	64
493.563857959	128	108	64
493.577920936	128	72	64
493.615329792	144	34	118
493.620857814	144	97	13
493.630644685	144	72	101
493.631875831	144	80	84
493.63759911	144	68	89
493.643826237	128	72	64
493.669518147	144	108	73
493.688602822	128	97	64
493.689303777	144	33	115
493.697111159	128	78	64
493.697158026	144	78	88
493.699594763	144	72	85
493.713495527	128	108	64
493.714995234	128	80	64
493.715139596	128	78	64
493.715194429	144	78	103
493.726917751	128	68	64
493.727085723	128	72	64
493.730043545	144	97	19
493.74346306	128	33	64
493.751790065	128	97	64
493.764236733	144	72	105
493.790342298	144	97	55
493.792447787	144	80	85
493.809907968	144	68	88
493.811503264	128	72	64
493.834279262	144	108	65
493.838923565	128	97	64
493.865478861	144	72	87
493.881538079	128	108	64
493.884846429	128	34	64
493.890891837	128	80	64
493.893649515	128	72	64
493.93042097	144	97	57
493.947686978	144	80	84
493.948840599	144	72	102
493.968778349	144	108	57
493.994170115	128	72	64
493.996077445	128	68	64
493.999124418	128	97	64
494.003633634	144	97	23
494.014245739	128	108	64
494.033354962	144	72	88
494.033682904	128	97	64
494.043267244	128	80	64
494.060010772	128	72	64
494.072019683	144	97	56
494.096972383	144	68	88
494.103378264	144	80	83
494.113785513	144	72	108
494.117153757	144	108	51
494.144774095	128	72	64
494.145986312	128	35	64
494.154164937	128	97	64
494.157226632	144	97	25
494.172386668	128	68	64
494.176214282	128	97	64
494.186496642	128	108	64
494.197292814	144	72	98
494.201306544	128	80	64
494.215948817	128	78	64
494.216012727	144	78	92
494.233659596	144	97	56
494.244976458	128	72	64
494.256119799	128	97	64
494.282242853	144	72	116
494.286341077	144	108	43
494.29026994	144	97	23
494.295304274	144	80	83
494.32575956	128	97	64
494.327317612	128	72	64
494.335429186	144	68	88
494.336015395	128	108	64
494.364826389	144	72	98
494.376395411	144	97	52
494.393761883	128	72	64
494.401480043	128	80	64
494.418785825	128	78	64
494.418844788	144	78	90
494.42295815	128	97	64
494.430263664	144	72	116
494.432662099	144	108	35
494.449869726	144	35	98
494.458158753	144	97	20
494.458538891	144	80	83
494.493893951	128	72	64
494.50286346	128	108	64
494.51295706	144	72	106
494.575635128	128	80	64
494.576949583	128	72	64
494.586225441	144	108	28
494.589187561	128	78	64
494.589231283	144	78	86
494.602857529	128	97	64
494.615136034	144	72	111
494.629834141	144	33	120
494.634608711	144	97	51
494.643766884	144	80	81
494.649685492	128	108	64
494.66053057	128	72	64
494.692109784	128	97	64
494.697585704	144	72	102
494.73630238	144	97	19
494.739809774	144	108	26
494.744863104	128	72	64
494.760015969	128	80	64
494.772565068	128	97	64
494.780151946	144	72	116
494.792238552	128	78	64
494.792290011	144	78	85
494.79875162	128	108	64
494.828502875	128	72	64
494.830245401	144	97	54
494.83815281	144	80	81
494.86001856	128	33	64
494.866781764	144	72	107
494.897058046	128	97	64
494.9107108	128	72	64
494.915938738	144	108	17
494.941106175	144	97	21
494.946791404	144	72	116
494.950742148	128	80	64
494.981537049	128	108	64
494.994204974	128	97	64
495.010474683	128	72	64
495.047961354	144	72	102
495.050611288	144	80	81
495.055586809	128	78	64
495.055621834	144	78	81
495.075955682	144	108	12
495.09665767	128	72	64
495.096882012	144	97	57
495.133385598	144	72	119
495.160668637	128	72	64
495.17076207	128	108	64
495.17680052	128	97	64
495.177365928	128	80	64
495.178707838	128	78	64
495.178759681	144	78	80
495.180022429	144	72	105
495.180245877	144	97	21
495.215838494	128	68	64
495.224934614	128	97	64
495.227182297	128	72	64
495.275951984	144	108	7
495.280185295	144	97	58
495.296608515	144	72	126
495.304765927	144	80	79
495.314934974	128	108	64
495.322025743	128	78	64
495.322092885	144	78	68
495.344689829	128	72	64
495.364589958	128	97	64
495.364703721	144	97	24
495.398495102	144	72	104
495.443885245	128	80	64
495.444331979	128	78	64
495.444386049	144	78	64
495.449583289	128	72	64
495.482055958	144	68	81
495.490526124	144	34	121
495.545980115	128	78	64
495.546037376	144	78	68
495.562779323	144	80	76
495.566945785	144	72	111
495.571986381	128	68	64
495.577714104	128	72	64
495.606749682	144	33	125
495.614105525	128	97	64
495.657406426	128	33	64
495.693354572	128	80	64
495.695359329	128	35	64
495.844337392	144	68	84
495.852300463	128	34	64
495.870584983	144	80	73
496.002741425	128	80	64
496.032415164	144	35	103
496.124630101	144	80	69
496.171548837	144	72	99
496.265513262	128	80	64
496.38939738	144	33	119
496.424194434	128	33	64
496.478180272	144	80	66
496.587447612	128	78	64
496.647114233	128	80	64
496.851788264	128	68	64
496.858489288	144	60	123
496.877186231	144	80	64
496.914333195	128	60	64
497.03113665	144	68	83
497.058618582	128	80	64
497.063297008	144	60	122
497.082648147	128	60	64
497.089168405	128	68	64
497.105976609	144	33	117
497.140757867	144	78	80
497.142523016	128	33	64
497.143644137	128	35	64
497.169726066	128	72	64
497.197452495	128	78	64
497.2269459	144	60	120
497.26720612	128	60	64
497.286787819	144	80	61
497.412013738	144	60	120
497.468608645	128	60	64
497.473040296	128	80	64
497.602918108	144	35	100
497.629239993	144	60	119
497.647054668	128	60	64
497.679015604	144	80	58
497.706302126	144	34	117
497.798038498	144	60	120
497.812638731	128	60	64
497.872680785	144	33	116
497.922798403	128	33	64
497.953084089	128	80	64
497.975824286	144	60	120
498.0162752	128	60	64
498.113150471	128	97	64
498.159658252	144	60	119
498.17725045	144	80	56
498.181612819	128	60	64
498.245024238	128	34	64
498.32674759	144	60	118
498.345771795	128	60	64
498.389108518	128	80	64
498.496310078	144	60	118
498.53419324	128	60	64
498.546491644	144	78	103
498.594028208	128	78	64
498.672638426	144	33	114
498.676894518	144	60	117
498.682049108	144	68	83
498.686554612	128	68	64
498.712646264	128	35	64
498.722237122	128	33	64
498.732364404	128	60	64
498.772168759	144	80	53
498.824162183	144	60	115
498.882926201	128	60	64
498.988496246	144	60	110
498.988940288	128	80	64
499.051171823	128	60	64
499.08409499	144	35	99
499.10151164	128	72	64
499.151676389	144	60	108
499.216625981	128	60	64
499.335079553	144	80	50
499.360970871	144	60	107
499.37384356	144	34	23
499.384742279	128	60	64
499.405654968	144	33	116
499.456861511	128	33	64
499.518633062	128	80	64
499.852501103	144	80	45
500.063336481	128	80	64
500.156414504	144	33	119
500.208909251	128	33	64
500.263158222	128	35	64
500.389274512	144	80	46
500.600824373	144	35	102
500.642994543	128	80	64
500.872603278	144	33	118
500.923149279	128	33	64
500.938243948	144	80	47
500.967961478	144	68	75
501.132342443	128	68	64
501.13624412	128	34	64
501.154341866	128	80	64
501.320525815	144	68	78
501.474066738	144	34	42
501.519186129	144	80	45
501.543983425	128	34	64
501.712408574	144	60	87
501.731587046	128	80	64
501.779048066	128	35	64
501.781032861	128	60	64
501.833568495	128	68	64
501.958777416	144	34	47
501.996011309	128	34	64
502.058245135	144	68	68
502.092017633	144	80	45
502.194256586	144	35	99
502.353328698	128	80	64
502.565856509	144	34	46
502.677390784	144	80	42
502.71102588	128	34	64
502.904921946	128	80	64
503.147540549	128	68	64
503.270745652	144	80	39
503.423857549	144	34	62
503.430971455	144	68	49
503.445364001	128	35	64
503.451989429	144	78	87
503.457403629	128	68	64
503.482650894	128	80	64
503.483244674	128	78	64
503.510574032	128	34	64
503.510848818	144	68	51
503.587629875	128	68	64
503.659327754	144	68	53
503.72282212	128	68	64
503.869437498	144	68	62
503.891344183	144	80	36
503.917888896	144	35	93
504.008101967	144	33	76
504.090987821	128	33	64
504.104000935	128	80	64
504.589206772	144	80	35
504.813967446	128	80	64
505.113791092	128	60	64
505.23293873	144	25	109
505.235975517	144	80	36
505.236651364	144	78	95
505.289036616	128	78	64
505.332786104	144	34	70
505.44792726	128	80	64
505.477325965	128	34	64
505.511889746	128	35	64
505.790342241	144	33	72
505.833774092	128	68	64
505.860349217	144	80	37
505.873603947	128	33	64
505.993061289	144	35	95
506.085599823	128	80	64
506.472500033	144	34	92
506.538863544	144	80	38
506.617763449	144	78	44
506.636026919	128	34	64
506.644551893	128	78	64
506.729621881	128	80	64
507.199951606	144	80	39
507.302062872	144	78	81
507.332784897	128	78	64
507.415456007	128	80	64
507.746387974	128	35	64
507.941643691	144	80	40
508.048120341	144	78	86
508.060699877	144	54	74
508.107178711	144	33	67
508.115916438	128	78	64
508.119907514	128	80	64
508.143312255	128	54	64
508.191057469	144	35	89
508.191216129	128	33	64
508.209344844	144	34	95
508.312220712	128	34	64
508.61550105	144	80	38
508.629323181	144	54	60
508.777287576	128	80	64
508.847945772	144	78	54
508.857853019	144	34	90
508.891171413	128	78	64
508.911376854	128	34	64
509.026081223	128	54	64
509.289672361	144	54	70
509.300151593	144	80	43
509.430287094	128	35	64
509.488282739	128	80	64
509.489854598	128	54	64
509.850149879	144	54	113
509.851151169	144	35	91
509.984621289	144	80	44
510.143753795	128	54	64
510.149434549	128	80	64
510.299460076	144	33	76
510.391582612	128	33	64
510.473601511	144	54	118
510.49454487	144	108	127
510.522834685	144	34	73
510.54712098	128	108	64
510.594599491	128	34	64
510.622586839	144	80	44
510.741137836	128	25	64
510.822567907	128	80	64
510.926671737	144	108	127
510.94731478	128	108	64
511.151092635	144	78	127
511.193047858	128	78	64
511.283373106	144	80	42
511.357189759	144	108	127
511.404384395	128	108	64
511.489324209	128	80	64
511.665892037	128	25	64
511.789232432	144	108	127
511.815655962	144	34	127
511.830561221	128	108	64
511.879020265	128	34	64
511.964301002	144	80	43
512.17160142	128	80	64
512.251341423	144	108	127
512.296819091	128	108	64
512.614957596	144	80	45
512.718392714	144	108	127
512.786760659	128	108	64
512.787043343	128	54	64
512.803635187	128	80	64
513.149864778	144	54	105
513.183041916	144	108	127
513.255376434	128	108	64
513.35302986	144	80	45
513.572008537	128	80	64
513.66860627	144	108	127
513.71336284	128	108	64
514.010210672	144	80	46
514.057063776	144	34	59
514.150342647	144	108	127
514.219525399	128	108	64
514.223677035	128	80	64
514.336018278	144	78	127
514.365740686	128	78	64
514.411274437	144	33	81
514.41991031	144	68	80
514.462672273	128	33	64
514.65178735	144	108	127
514.681878706	128	108	64
514.766224708	144	80	48
514.996275347	128	80	64
515.100116052	144	108	127
515.128009506	128	35	64
515.172332573	128	108	64
515.293126142	144	35	87
515.329535273	128	54	64
515.388731762	128	35	64
515.568318443	144	80	48
515.585746153	144	108	127
515.653553017	128	108	64
515.733512945	128	80	64
515.776959196	144	54	91
515.907485191	144	78	11
515.943882498	128	78	64
515.955430338	144	33	86
516.009819677	128	33	64
516.100812823	144	108	127
516.113779718	128	108	64
516.297860943	144	80	54
516.440888597	128	80	64
516.514240015	144	90	115
516.559582813	144	108	127
516.605846192	128	108	64
516.660097076	144	35	90
516.738722503	128	35	64
516.74680096	144	78	46
516.785145901	128	78	64
517.05823602	144	108	127
517.062656069	144	80	58
517.080560138	128	108	64
517.168711261	128	68	64
517.197892434	128	80	64
517.318433757	144	68	94
517.370797483	144	78	103
517.395091862	128	78	64
517.543018013	144	108	127
517.587038287	128	108	64
517.677066718	144	80	74
517.734828592	128	80	64
517.787092771	144	80	74
517.863828095	128	54	64
517.919573296	128	80	64
518.023198294	144	108	127
518.072309759	128	108	64
518.092137742	144	33	89
518.148463706	128	33	64
518.393828288	144	54	97
518.490463578	144	108	127
518.537957258	128	108	64
518.540382744	144	80	86
518.616876455	144	35	87
518.678717883	128	34	64
518.683810111	128	80	64
518.705733298	128	35	64
518.7188756	144	46	60
518.835387115	128	68	64
519.007863885	144	108	127
519.023728694	144	34	83
519.030459811	128	108	64
519.128607315	128	34	64
519.347170939	144	80	55
519.439930019	128	90	64
519.489568219	144	108	127
519.492422486	128	80	64
519.535397956	128	108	64
519.749230938	128	46	64
519.7782366	128	78	64
519.824421004	144	34	89
519.877832015	128	34	64
519.965922715	144	108	127
519.982544411	144	80	43
520.014697494	128	108	64
520.041832218	144	33	86
520.128889581	128	80	64
520.142321644	128	33	64
520.284563582	144	35	88
520.338122894	128	35	64
520.484458701	144	108	127
520.488451773	144	46	66
520.53271607	128	108	64
520.58228593	128	54	64
520.793859844	144	80	33
520.830378428	144	54	76
520.909029895	144	34	78
520.928084436	128	54	64
520.954451075	128	80	64
520.961298955	128	34	64
521.009582695	144	108	127
521.054042144	128	108	64
521.312465738	144	54	97
521.499203999	144	108	127
521.522824524	128	54	64
521.525516658	144	54	85
521.548062436	144	80	44
521.570529176	128	108	64
521.576592372	144	68	72
521.784740206	128	80	64
521.806902547	144	33	83
521.891927839	128	33	64
521.965876936	128	46	64
522.055845297	144	108	127
522.065726349	128	108	64
522.150867923	144	35	89
522.207574722	144	34	87
522.277986864	128	34	64
522.294785874	128	35	64
522.31277341	144	46	62
522.335629664	144	80	50
522.530536251	128	80	64
522.592593982	144	108	127
522.614191963	128	108	64
523.033198546	128	54	64
523.035336866	128	68	64
523.077410893	144	80	56
523.108945931	144	108	127
523.133060849	144	68	69
523.152441709	128	108	64
523.226240839	128	68	64
523.317118088	128	80	64
523.371551678	144	68	71
523.407432917	128	68	64
523.55143611	144	68	73
523.575488831	144	54	88
523.600564199	144	108	127
523.6068687	128	68	64
523.626944224	128	46	64
523.67085971	128	108	64
523.772041132	144	68	92
523.889862772	144	80	62
523.92443514	144	34	86
523.948969005	128	68	64
523.977355363	128	34	64
524.087106595	128	80	64
524.096960472	144	68	93
524.143737083	144	108	127
524.180709229	128	108	64
524.282487516	144	46	68
524.617912909	144	80	69
524.658636697	144	108	127
524.696526899	128	108	64
524.850492851	128	54	64
524.877036809	128	80	64
524.925661429	144	42	108
525.041289307	144	34	61
525.064308566	144	54	91
525.112165889	128	34	64
525.174560379	144	108	127
525.22063472	128	108	64
525.385026183	144	80	86
525.433569812	128	54	64
525.486354053	128	68	64
525.625620638	128	80	64
525.683054964	128	46	64
525.688195421	144	108	127
525.736168152	128	108	64
525.891227989	144	34	117
525.961634951	128	34	64
526.055987163	144	46	51
526.112113245	144	90	121
526.181723798	144	80	107
526.225081655	144	108	127
526.268959297	128	108	64
526.487654883	144	54	85
526.564912916	128	80	64
526.73060729	144	108	127
526.787637902	128	108	64
526.97072985	144	80	88
526.974612769	144	34	59
527.061945658	128	34	64
527.185423373	128	46	64
527.26856074	128	80	64
527.273524441	144	108	127
527.32161255	128	108	64
527.336415071	128	54	64
527.790986003	144	108	127
527.836285684	128	108	64
527.862824266	144	80	76
527.872564457	144	46	52
528.314094258	128	80	64
528.337540145	144	108	127
528.379713849	128	108	64
528.639360398	144	80	65
528.724727609	144	34	70
528.872367779	144	108	127
528.912718961	128	108	64
528.985587136	128	34	64
529.090110972	128	80	64
529.235928283	144	54	79
529.396812528	144	80	57
529.439621623	144	108	127
529.487432135	128	108	64
529.773182252	128	90	64
529.827213504	128	80	64
529.840186765	144	34	75
529.929245599	128	34	64
529.989325859	144	108	127
530.014903881	128	108	64
530.165121505	144	80	75
530.497544694	144	108	127
530.566287321	128	108	64
530.582587089	128	46	64
530.605019472	128	80	64
530.80607416	144	46	45
530.874818344	144	34	75
530.944874322	128	34	64
530.968144384	144	80	58
531.064465111	144	108	127
531.083340343	128	54	64
531.112969861	128	108	64
531.251576655	128	42	64
531.335543096	144	54	97
531.44928704	128	46	64
531.579401609	128	80	64
531.637775915	144	108	127
531.68418095	128	108	64
531.906804277	144	42	123
531.957833675	144	34	73
531.963754404	144	80	48
531.978602479	144	33	111
532.027577541	128	33	64
532.028157646	128	34	64
532.12260102	144	46	46
532.188695454	144	108	127
532.225044924	128	46	64
532.228365744	128	108	64
532.384539985	144	35	89
532.455648838	128	80	64
532.492259157	128	35	64
532.572908459	144	46	49
532.737520999	144	108	127
532.751319638	144	80	98
532.785524731	128	108	64
532.924971777	144	33	104
532.976321891	128	33	64
533.090638508	144	34	71
533.311106079	144	90	73
533.315756753	128	46	64
533.336338201	144	108	127
533.366147041	128	108	64
533.372079056	128	54	64
533.43843063	128	80	64
533.550785752	144	35	90
533.603434799	128	34	64
533.639147727	128	35	64
533.664868335	144	80	58
533.666908406	144	54	99
533.838641811	128	21	64
533.859858095	144	33	103
533.902398778	144	108	127
533.91036843	128	33	64
533.927600595	128	108	64
534.10705829	128	46	64
534.111864729	144	87	79
534.139787946	128	87	64
534.207708686	144	35	89
534.258853618	144	34	74
534.305258844	128	35	64
534.311512468	128	34	64
534.360813639	128	80	64
534.455878607	144	108	127
534.480982405	128	108	64
534.556718956	144	80	46
534.987883131	144	108	127
535.032610924	128	108	64
535.254914237	128	80	64
535.341279659	144	34	77
535.405291438	144	80	37
535.503348579	128	34	64
535.508560129	128	54	64
535.548165032	144	108	127
535.616719444	128	108	64
535.886699884	144	54	92
535.907540468	144	87	74
535.939636952	128	87	64
536.071508413	128	80	64
536.139799656	144	108	127
536.163540681	128	108	64
536.214154665	144	80	45
536.359561671	144	87	68
536.388567061	128	42	64
536.415848706	144	34	66
536.463247989	128	87	64
536.510031553	128	34	64
536.705471829	144	108	127
536.727772332	128	108	64
536.74159287	144	33	92
536.756213705	128	90	64
536.828896635	128	33	64
536.893281835	128	80	64
537.038178291	144	80	47
537.067831423	144	35	88
537.172782438	128	35	64
537.271769129	144	108	127
537.319199743	128	108	64
537.359979872	144	87	66
537.403190911	128	87	64
537.675555118	128	80	64
537.707378351	144	34	81
537.826778713	144	80	53
537.854981832	144	108	127
537.887428031	128	54	64
537.899259552	128	108	64
538.177347054	144	54	67
538.36078263	144	87	55
538.370171479	128	34	64
538.402417463	128	87	64
538.423181595	144	108	127
538.437722688	128	80	64
538.447311578	128	108	64
538.562166692	144	80	57
538.807444266	144	34	64
538.827451818	128	34	64
539.005264604	144	108	127
539.050981703	128	108	64
539.080734523	128	80	64
539.275449726	144	80	63
539.518880536	144	87	76
539.547498532	144	108	127
539.549869612	128	87	64
539.615401841	128	108	64
539.90805353	144	34	79
539.937388253	128	80	64
540.072194563	144	80	59
540.122228627	128	54	64
540.140042833	144	108	127
540.170550324	128	34	64
540.181303136	128	108	64
540.447681292	144	54	81
540.517193758	144	34	67
540.580476227	128	34	64
540.72288171	144	108	127
540.737608933	144	87	76
540.760281673	128	108	64
540.798969396	128	87	64
540.913510772	128	80	64
541.024262956	144	80	53
541.044134366	144	90	106
541.289088664	144	108	127
541.331898107	128	108	64
541.691399258	144	34	53
541.698164182	128	34	64
541.736256834	128	80	64
541.838118616	144	108	127
541.846249008	144	87	77
541.882067651	128	87	64
541.89876595	128	108	64
541.937591282	144	80	44
542.3099295	128	54	64
542.421399752	144	108	127
542.466290819	128	108	64
542.62937861	128	80	64
542.733320784	144	80	52
542.758995163	144	34	90
542.773460744	144	54	61
542.828886766	128	34	64
543.018884537	144	108	127
543.065865355	128	108	64
543.10024933	144	87	74
543.127998118	128	87	64
543.370468234	128	80	64
543.557943924	144	80	61
543.639047496	144	108	127
543.677025359	128	108	64
543.928748909	128	54	64
543.992170563	144	34	54
544.030898221	128	34	64
544.19081163	144	34	105
544.230585591	128	34	64
544.239088146	144	108	127
544.246154671	144	87	79
544.276635212	128	108	64
544.302442027	128	87	64
544.352332896	128	80	64
544.563691563	144	80	71
544.658561547	144	34	39
544.676646903	128	34	64
544.82160332	128	90	64
544.871751875	144	108	127
544.895048622	128	108	64
545.359195965	128	80	64
545.472939227	144	108	127
545.495084326	128	108	64
545.497503014	144	87	73
545.507419668	144	80	75
545.524151992	128	87	64
545.791746594	144	34	71
545.830223862	128	34	64
546.071224143	144	108	127
546.094467125	128	108	64
546.25283927	128	80	64
546.277655191	144	35	87
546.429689896	128	35	64
546.433910169	144	80	67
546.671991627	144	108	127
546.677561855	128	108	64
546.716939992	144	87	67
546.778073725	128	87	64
547.091277943	144	34	50
547.16267818	128	34	64
547.210350648	128	80	64
547.267740206	144	34	63
547.280491805	128	34	64
547.287476843	144	108	125
547.311058625	128	108	64
547.340328816	144	80	59
547.826327797	144	35	87
547.879338609	144	108	126
547.94339703	128	108	64
547.968345975	144	87	72
547.977318315	144	54	116
548.008210243	128	54	64
548.010099299	128	87	64
548.01291118	128	35	64
548.158674627	128	80	64
548.207071524	144	34	74
548.262111972	128	34	64
548.267805271	144	80	54
548.362249166	144	33	80
548.439760422	144	31	74
548.444569675	128	33	64
548.472648241	144	108	127
548.526260748	128	108	64
548.950366677	144	35	87
549.088274249	144	108	127
549.124489517	144	34	48
549.13003678	128	108	64
549.13456655	128	80	64
549.141068612	144	87	72
549.17777793	128	87	64
549.269084196	128	34	64
549.288629857	128	35	64
549.344358463	144	80	60
549.396590795	144	35	87
549.461686311	144	54	113
549.507497686	128	54	64
549.596308798	144	33	85
549.611580517	128	35	64
549.632721232	144	35	86
549.678209833	128	33	64
549.753784138	144	108	120
549.774829817	128	108	64
549.930693546	128	35	64
550.212261214	128	80	64
550.310763912	144	34	127
550.324076513	144	87	73
550.324366063	144	80	63
550.367020666	128	87	64
550.372098571	144	108	116
550.391383998	128	108	64
550.694820334	144	90	103
550.695870791	144	54	115
550.741573282	128	54	64
550.852642399	144	35	87
551.018105574	144	108	109
551.038554627	128	34	64
551.063836249	128	108	64
551.165741067	128	80	64
551.210986327	144	33	83
551.27752741	128	33	64
551.304616241	144	80	66
551.430922893	128	35	64
551.592669366	144	33	119
551.597650386	144	87	66
551.613956382	128	33	64
551.636812482	128	87	64
551.72122201	144	108	98
551.764790944	128	108	64
552.213663039	128	80	64
552.213917475	144	54	122
552.243300842	128	54	64
552.350842101	144	80	69
552.550183428	144	108	98
552.59801434	128	108	64
552.727927725	144	33	117
552.741667389	128	33	64
553.225190331	144	34	127
553.313107024	144	87	74
553.370490106	128	87	64
553.471021264	144	108	103
553.491633932	128	80	64
553.529632725	128	108	64
553.656863724	128	90	64
553.682776553	144	80	71
553.85438683	128	34	64
554.144589514	144	33	79
554.210598547	144	35	87
554.212171941	128	33	64
554.38627938	144	108	104
554.458621427	128	108	64
554.95002296	128	31	64
554.954199522	128	80	64
554.996823005	144	87	81
555.002752314	128	87	64
555.053269366	144	33	103
555.124008925	144	80	74
555.149020275	128	33	64
555.2975545	144	54	101
555.329927943	128	54	64
555.395496338	144	108	106
555.459169084	144	34	97
555.4639418	128	108	64
555.477328934	144	33	122
555.512210245	128	34	64
555.513566158	128	33	64
555.679189404	144	54	110
555.712244149	128	54	64
555.765756909	128	35	64
555.861545051	144	33	102
555.930803324	128	33	64
556.048315014	144	54	111
556.095333495	128	54	64
556.227791965	144	33	109
556.276422578	128	33	64
556.362047906	144	87	83
556.39692524	144	54	112
556.420217794	128	87	64
556.442926103	128	54	64
556.482124944	144	35	85
556.487486551	144	108	108
556.507287923	128	108	64
556.592638054	144	33	104
556.593989294	144	90	101
556.599642999	128	90	64
556.626013812	128	33	64
556.747776166	144	54	113
556.758819379	144	34	64
556.793276047	128	54	64
556.797145614	128	34	64
556.945660758	144	33	108
556.958867781	144	34	72
556.977219484	128	33	64
556.977366583	128	34	64
557.08382073	144	54	107
557.129894354	128	35	64
557.143155129	128	54	64
557.193130718	144	35	85
557.20745493	128	80	64
557.255523322	144	33	107
557.289021821	128	35	64
557.329446546	128	33	64
557.362896558	144	35	86
557.405318548	144	31	70
557.45631302	128	35	64
557.463936073	144	54	104
557.500517979	144	108	107
557.51336883	128	54	64
557.526703763	144	35	86
557.558440187	144	80	32
557.583338163	128	31	64
557.590656593	128	35	64
557.605000209	128	108	64
557.627728935	144	33	109
557.678903122	144	35	87
557.693195281	128	33	64
557.771931588	128	35	64
557.776157024	144	54	106
557.796222427	144	31	66
557.82918105	128	54	64
557.83081666	144	35	86
557.906612173	128	35	64
557.936439599	144	87	85
557.950576251	128	31	64
557.977049997	144	35	87
557.99723865	128	87	64
558.056590457	128	35	64
558.124040167	144	31	70
558.127560174	144	35	86
558.190797621	128	35	64
558.277273382	144	35	86
558.283096548	128	31	64
558.356438138	128	35	64
558.427076041	144	35	86
558.453965952	144	33	85
558.478498687	128	33	64
558.49186033	144	31	75
558.506422439	128	35	64
558.516394453	144	54	94
558.529288693	144	108	100
558.561747474	128	54	64
558.594267531	144	35	84
558.640922454	128	35	64
558.644364049	144	33	96
558.648384494	128	90	64
558.660748159	128	33	64
558.688270546	128	108	64
558.688517127	144	54	96
558.71240241	144	35	82
558.72908149	128	54	64
558.788803492	128	35	64
558.80375699	144	33	95
558.826596648	128	33	64
558.836648994	144	54	100
558.859904218	144	35	82
558.877384947	128	54	64
558.887072104	128	80	64
558.915188337	144	33	99
558.924291776	128	35	64
558.975519914	128	33	64
558.984235339	144	54	99
558.995822765	144	35	80
559.047125162	128	54	64
559.05770833	128	35	64
559.059073063	144	34	51
559.064428343	144	33	99
559.078178088	128	34	64
559.127042542	128	33	64
559.12824778	144	35	82
559.129185074	144	54	101
559.167364573	144	34	80
559.193159173	128	54	64
559.199019939	128	31	64
559.205817417	128	35	64
559.232848498	128	34	64
559.262672397	144	35	83
559.27202084	144	33	99
559.278558756	144	54	101
559.282268399	144	31	77
559.312110464	128	33	64
559.318910303	144	34	110
559.355778552	128	35	64
559.359727999	128	54	64
559.362852235	128	31	64
559.38135935	128	34	64
559.388094031	144	33	98
559.413394446	144	35	84
559.430037879	128	33	64
559.448699724	144	31	80
559.493268646	128	31	64
559.50573355	128	35	64
559.595259789	144	35	84
559.599056613	144	31	86
559.655953972	128	35	64
559.658981821	128	31	64
559.71407932	144	35	86
559.73803226	144	31	84
559.750435383	144	108	92
559.793949157	128	31	64
559.870759186	128	108	64
559.883752164	144	31	83
559.899582626	128	35	64
559.899708883	144	35	85
559.964191141	128	31	64
559.972288257	128	35	64
560.031706363	144	31	84
560.044278172	144	35	85
560.1038951	128	31	64
560.109282571	144	34	89
560.126761325	128	35	64
560.162922023	128	34	64
560.196963277	144	35	84
560.204445968	144	31	90
560.226661475	144	80	2
560.242581631	144	34	92
560.257505264	128	31	64
560.272664428	128	35	64
560.329584901	128	34	64
560.354079458	128	80	64
560.359536685	144	35	86
560.361029315	144	33	123
560.379885922	128	33	64
560.382480606	144	34	114
560.40651244	144	31	94
560.409994408	128	31	64
560.424337402	128	35	64
560.498495463	144	54	87
560.509806106	144	35	84
560.525567722	144	33	113
560.526356532	128	34	64
560.530789305	128	33	64
560.531407854	128	54	64
560.534565203	144	33	110
560.551619535	144	34	116
560.561295137	144	31	96
560.576969389	128	31	64
560.58931764	128	35	64
560.593608735	128	33	64
560.633401317	128	34	64
560.676642006	144	35	84
560.724531702	144	31	93
560.728525919	128	31	64
560.73511391	144	33	110
560.755607803	128	35	64
560.760053557	128	33	64
560.826801501	144	35	83
560.839824951	144	54	93
560.874081776	144	31	88
560.874913419	144	34	121
560.896343466	128	54	64
560.903034391	144	33	120
560.907025339	128	31	64
560.908824294	128	35	64
560.930157268	128	34	64
560.959739043	128	33	64
560.986780153	144	34	121
560.991054085	144	35	83
561.00047115	144	108	85
561.023574385	144	54	109
561.041679121	128	35	64
561.044806382	128	34	64
561.049198886	144	33	118
561.057528435	128	108	64
561.059396406	144	31	85
561.060409241	128	31	64
561.069476815	128	33	64
561.096075133	128	54	64
561.133559055	144	34	126
561.134150261	144	35	82
561.1659836	144	33	106
561.206357423	128	35	64
561.207409787	144	31	93
561.218384414	144	54	103
561.227053916	128	33	64
561.260146116	128	31	64
561.280267903	128	54	64
561.303299128	144	35	84
561.303543812	128	34	64
561.318185334	144	54	109
561.353335445	144	31	99
561.361253131	128	54	64
561.372784978	128	35	64
561.411144732	144	33	112
561.442304359	128	31	64
561.443597312	144	35	83
561.4608728	128	33	64
561.490903331	144	34	127
561.499764751	144	54	95
561.512551088	128	54	64
561.52270873	128	35	64
561.53296654	144	31	106
561.548525597	128	34	64
561.550008592	144	33	110
561.551382251	144	54	110
561.569193657	128	33	64
561.60420919	144	34	127
561.610383198	144	35	83
561.611516502	128	31	64
561.613214933	128	54	64
561.649545904	144	33	110
561.689603926	128	35	64
561.718833349	144	31	93
561.755937649	128	34	64
561.756085987	144	34	127
561.760072993	144	35	82
561.794101089	128	31	64
561.815644812	128	33	64
561.815801368	144	33	106
561.815951522	128	33	64
561.855871519	128	35	64
561.889938857	144	31	65
561.89928085	144	33	103
561.899442005	128	34	64
561.909648141	144	34	127
561.926651084	128	33	64
561.927083902	144	35	84
561.995901229	128	34	64
562.005299403	128	35	64
562.081569511	128	31	64
562.085773475	144	34	127
562.093044028	144	35	84
562.128286738	128	34	64
562.17234038	128	35	64
562.182006621	144	31	79
562.202294247	144	34	127
562.216575726	144	108	79
562.260915066	144	35	84
562.29012881	128	108	64
562.298265933	128	34	64
562.316546682	144	87	33
562.338892849	128	35	64
562.3576924	128	87	64
562.365681829	128	31	64
562.369794716	144	34	127
562.392581874	144	31	110
562.42668455	144	35	83
562.429155548	128	34	64
562.486088163	144	34	127
562.490983055	128	35	64
562.494392646	128	31	64
562.530562762	128	80	64
562.564695377	128	34	64
562.594051289	144	35	84
562.614928924	144	31	107
562.635732068	144	34	127
562.657564145	128	35	64
562.707738622	128	31	64
562.712633252	128	34	64
562.743591854	144	35	84
562.785308838	144	34	127
562.82258079	128	35	64
562.847449348	128	34	64
562.862815547	144	31	104
562.901863247	144	34	127
562.911372706	144	35	82
562.951712769	128	31	64
562.996103963	128	34	64
563.005787034	128	35	64
563.027674386	128	54	64
563.050514378	144	34	127
563.051578446	144	31	97
563.094940689	144	35	84
563.158467972	128	31	64
563.172678496	128	35	64
563.195509287	128	34	64
563.216480305	144	34	127
563.25131876	144	31	94
563.260143642	144	35	84
563.327233949	128	31	64
563.330297927	144	31	95
563.340723301	128	31	64
563.355526591	128	35	64
563.359463934	128	34	64
563.376909076	144	34	127
563.383082692	144	31	94
563.43777278	128	31	64
563.441345636	144	31	92
563.443218402	144	35	84
563.458802595	128	31	64
563.461594938	144	33	79
563.467110692	144	108	70
563.479354701	128	34	64
563.489554386	144	31	106
563.502465482	144	34	127
563.539302025	128	35	64
563.541051107	128	108	64
563.54490566	128	31	64
563.564498848	128	33	64
563.599597185	144	31	105
563.641192277	128	31	64
563.643392944	144	35	83
563.647102746	128	34	64
563.671694919	144	31	89
563.683844245	144	34	127
563.711669228	128	31	64
563.722699514	128	35	64
563.748864608	128	34	64
563.75676215	144	31	99
563.803823851	144	34	127
563.812377751	128	31	64
563.815161152	144	31	95
563.866393641	144	35	83
563.872137391	128	31	64
563.876635499	144	31	109
563.881631945	128	34	64
563.905959997	128	35	64
563.90842757	128	31	64
563.938020996	144	34	127
563.993849295	144	35	82
563.999642725	144	31	111
564.029773408	128	34	64
564.070957014	128	31	64
564.07415047	144	31	97
564.083900801	144	34	127
564.089112372	128	35	64
564.093598686	144	33	81
564.099131475	128	31	64
564.140448066	144	31	97
564.160492007	144	35	83
564.177114586	128	31	64
564.179276894	128	33	64
564.197857238	144	31	96
564.228003522	128	34	64
564.243737011	128	31	64
564.249671587	144	34	127
564.255660378	128	35	64
564.27132884	144	31	102
564.310769731	128	31	64
564.337174301	144	31	94
564.343399586	144	35	83
564.345980921	128	34	64
564.359747651	128	31	64
564.4029651	144	34	127
564.410669515	144	31	103
564.422420784	128	35	64
564.446210013	128	31	64
564.49082972	144	31	92
564.495594064	128	34	64
564.50822519	128	31	64
564.510114298	144	35	83
564.541725374	144	31	106
564.58941826	128	35	64
564.601469852	128	31	64
564.602666841	144	34	127
564.6285177889999	144	31	95
564.67943313	128	31	64
564.682596972	144	31	111
564.693530411	144	35	83
564.695857652	128	34	64
564.717537281	144	108	61
564.746480499	144	33	81
564.75023854	128	31	64
564.753769357	144	34	127
564.754072503	144	31	94
564.757863966	128	35	64
564.773999583	128	108	64
564.782026811	128	31	64
564.810996944	144	31	105
564.831779393	128	33	64
564.843684572	144	35	82
564.846247625	128	34	64
564.860783027	128	31	64
564.887925491	144	31	96
564.916472976	144	34	127
564.922470858	128	35	64
564.926159433	128	31	64
564.951943118	144	31	110
565.010067676	144	35	80
565.025599517	128	31	64
565.029057369	144	31	94
565.059153403	128	31	64
565.059449125	128	34	64
565.08291992	144	34	127
565.088613671	144	31	113
565.089117502	128	35	64
565.154954075	128	31	64
565.157668085	144	31	99
565.17711153	144	35	81
565.209158884	128	31	64
565.22565424	128	34	64
565.235348543	144	31	97
565.255656535	128	35	64
565.267280634	144	34	127
565.310832321	128	31	64
565.331461814	144	35	82
565.33401869	144	31	95
565.362227873	128	34	64
565.376770128	128	31	64
565.378593422	144	33	74
565.389367533	128	35	64
565.399952249	144	31	109
565.452632289	144	34	127
565.478194818	128	31	64
565.478664097	128	33	64
565.481974218	144	31	93
565.486101633	144	87	118
565.487561479	128	87	64
565.493616585	144	35	83
565.525401012	128	31	64
565.529057515	128	34	64
565.550904392	144	31	103
565.572462065	128	35	64
565.600850676	144	34	127
565.633996182	128	31	64
565.63417324	144	31	91
565.675449163	128	31	64
565.679530922	144	35	83
565.69035435	144	87	123
565.707316768	144	31	100
565.714263825	128	87	64
565.744948953	128	34	64
565.755796548	128	35	64
565.766509492	144	34	127
565.795865135	128	31	64
565.79942506	144	31	84
565.84732817	128	31	64
565.865610639	144	31	101
565.895969892	144	87	127
565.89990309	144	35	78
565.909817499	128	34	64
565.923628354	128	35	64
565.927340085	128	31	64
565.933006807	144	34	127
565.950088955	144	31	89
565.953536815	144	33	69
565.967746377	144	108	50
565.981367206	128	87	64
565.981607939	144	87	123
565.981786492	128	87	64
565.995450275	128	31	64
566.010179682	144	35	79
566.018645367	144	31	107
566.023315308	128	108	64
566.029198596	128	34	64
566.086366266	144	34	127
566.089322481	128	35	64
566.10203362	144	87	127
566.103340477	128	33	64
566.105481577	128	31	64
566.108740969	144	31	98
566.135985454	128	87	64
566.143976978	128	31	64
566.176157599	144	35	75
566.19078953	144	31	117
566.230257692	128	34	64
566.250273143	128	31	64
566.251736107	144	34	127
566.259082578	144	31	104
566.272612312	128	35	64
566.312788857	128	31	64
566.332029387	144	87	120
566.347690844	144	31	107
566.40419549	128	34	64
566.414970887	144	34	127
566.421426087	128	31	64
566.424799035	144	31	86
566.435250294	144	35	65
566.453867989	128	35	64
566.456416794	128	87	64
566.461787219	128	31	64
566.464623348	144	31	90
566.559009005	128	34	64
566.561094542	144	35	61
566.567370065	128	31	64
566.574877487	144	31	69
566.589774509	128	31	64
566.600323947	144	34	127
566.624677823	144	31	95
566.628699528	144	33	69
566.639228997	128	35	64
566.680872718	144	87	120
566.695947692	128	34	64
566.715061788	128	31	64
566.715135456	144	31	92
566.729807157	128	33	64
566.731715712	128	87	64
566.74640632	144	35	55
566.753065095	144	34	127
566.759806971	128	31	64
566.805098463	144	31	109
566.839533371	128	35	64
566.873339134	128	31	64
566.905739676	144	31	90
566.920066212	128	34	64
566.920384315	144	34	127
566.943806642	128	31	64
566.946553011	144	35	35
566.972581931	144	31	100
567.022632493	128	35	64
567.056803163	128	31	64
567.059566782	144	31	89
567.064644728	128	34	64
567.088890038	144	34	127
567.090435849	128	31	64
567.105510361	144	87	125
567.124935493	144	31	100
567.132261536	128	87	64
567.16749696	144	35	36
567.181660677	128	34	64
567.216051811	128	31	64
567.223793178	128	35	64
567.225163414	144	31	92
567.231536744	128	31	64
567.234243075	144	108	36
567.24714561	144	34	127
567.277549982	128	108	64
567.281893062	144	31	114
567.299731149	128	34	64
567.310231754	144	35	61
567.339982826	128	31	64
567.346758913	144	31	91
567.353105811	144	34	127
567.362010692	144	33	69
567.389401584	128	35	64
567.390295353	128	31	64
567.425273791	144	31	93
567.430352655	128	34	64
567.462520632	128	33	64
567.486783484	144	34	127
567.492658246	144	35	73
567.497024856	128	31	64
567.500220899	144	31	90
567.531927599	128	31	64
567.564870275	128	34	64
567.572225949	128	35	64
567.572994051	144	31	115
567.667791629	128	31	64
567.671481659	144	31	105
567.672818045	144	87	120
567.679921403	144	35	79
567.694502164	128	87	64
567.710571299	128	31	64
567.739290708	144	31	106
567.740513016	128	35	64
567.812660487	128	31	64
567.815398562	144	31	88
567.843580859	144	35	81
567.875400341	128	31	64
567.899951614	144	31	98
567.939530615	128	35	64
567.973111735	128	31	64
567.984314866	144	68	60
567.99645499	128	68	64
568.004428301	144	31	81
568.010594101	144	35	83
568.045777826	144	33	67
568.056783115	128	31	64
568.065041816	144	68	59
568.090361562	144	31	93
568.093108843	144	34	105
568.105933572	128	35	64
568.11003706	128	68	64
568.167145543	128	31	64
568.178206	144	31	78
568.190423563	128	33	64
568.193850225	144	35	87
568.196955048	144	68	61
568.227029822	128	31	64
568.243662172	128	68	64
568.276781425	144	31	101
568.305569146	128	35	64
568.318746648	144	68	63
568.347760202	128	31	64
568.350773139	144	31	93
568.35998448	128	68	64
568.393510243	128	31	64
568.449582856	144	35	85
568.450879494	144	68	67
568.471282211	144	31	113
568.495458398	128	68	64
568.50583756	128	35	64
568.507695905	128	31	64
568.507751786	144	31	100
568.558854623	128	31	64
568.594456539	144	68	73
568.597334487	144	31	119
568.627872878	128	68	64
568.628110141	128	31	64
568.651138176	144	35	91
568.656551695	144	31	102
568.694208995	128	31	64
568.705926117	128	35	64
568.721654373	144	31	112
568.722845824	144	68	70
568.762546024	128	68	64
568.774130463	128	31	64
568.804298082	144	33	62
568.808377401	144	31	100
568.849109703	128	31	64
568.851450736	144	35	72
568.858081806	144	68	72
568.893916716	128	68	64
568.895723322	144	31	109
568.906398331	128	35	64
568.950688424	128	31	64
568.954142092	128	33	64
568.960071736	144	31	95
568.989853025	144	68	83
569.00864778	128	31	64
569.010580349	144	35	70
569.027054859	128	68	64
569.048914956	144	31	110
569.090945559	128	35	64
569.106840246	128	31	64
569.130685276	144	68	86
569.135560563	144	31	97
569.176815933	128	68	64
569.18463496	128	31	64
569.193541221	144	35	77
569.210330589	144	31	110
569.227696482	144	82	69
569.241204273	128	82	64
569.261764084	128	31	64
569.295985135	144	31	99
569.320995719	144	68	100
569.324601909	128	31	64
569.328339645	144	33	127
569.33865609	128	35	64
569.343332837	128	68	64
569.346088545	128	33	64
569.35420675	144	31	106
569.407756134	144	82	66
569.41754689	128	31	64
569.422629162	144	31	90
569.427806531	144	35	66
569.442532161	128	31	64
569.45075933	128	82	64
569.487085362	144	68	103
569.490679243	144	31	104
569.505857735	128	35	64
569.529246291	144	33	61
569.530785316	144	108	127
569.531329849	128	108	64
569.54333955	128	68	64
569.551216464	128	31	64
569.55125869	144	31	89
569.594830951	144	82	73
569.606373743	128	82	64
569.610685	128	31	64
569.613347163	128	33	64
569.633633749	144	68	108
569.649574714	144	31	106
569.654042715	144	108	127
569.673558395	144	33	111
569.683963455	128	108	64
569.684233655	144	35	74
569.693600961	128	68	64
569.693878634	128	33	64
569.715738946	128	31	64
569.715832577	144	31	90
569.743671418	144	82	70
569.755754282	128	35	64
569.761969777	144	108	127
569.766945838	128	82	64
569.783351441	144	68	103
569.800366362	144	33	109
569.801185256	128	108	64
569.827346488	128	33	64
569.84483927	128	68	64
569.878343035	144	82	72
569.882166094	128	31	64
569.887744338	144	108	127
569.899722717	128	82	64
569.918399038	144	35	54
569.918562468	144	31	106
569.934325296	144	33	99
569.936928244	128	108	64
569.952274765	128	33	64
569.974247788	144	82	78
569.989264197	128	35	64
570.006701339	144	68	89
570.006969459	144	108	127
570.011666455	128	68	64
570.01271187	128	31	64
570.017147671	144	31	87
570.017290422	144	33	101
570.017970513	128	82	64
570.052978511	128	108	64
570.061644926	128	33	64
570.078706841	128	31	64
570.088148333	144	82	78
570.093470956	144	35	68
570.126368538	144	31	100
570.126572414	144	68	73
570.133186112	128	82	64
570.195286255	128	68	64
570.20274612	144	82	80
570.204044438	128	31	64
570.207024938	144	31	87
570.238761117	128	35	64
570.252601555	128	82	64
570.262746838	128	31	64
570.272936678	144	33	52
570.313417433	144	31	103
570.329605644	144	35	82
570.333654842	144	68	66
570.339140449	144	82	78
570.360269639	128	35	64
570.363644627	128	33	64
570.396417336	128	68	64
570.406685906	128	31	64
570.406740013	144	31	100
570.416701749	128	82	64
570.449728234	144	108	127
570.458582182	144	82	95
570.460252779	144	35	71
570.490035772	128	31	64
570.490109646	144	31	113
570.498247751	144	68	51
570.49939677	128	82	64
570.519822878	128	108	64
570.539404595	128	35	64
570.553638097	144	82	81
570.559932945	128	31	64
570.561913295	128	68	64
570.584191574	144	31	89
570.601506921	128	82	64
570.607491826	128	31	64
570.622550882	144	108	127
570.63732377	144	82	83
570.646364673	144	35	78
570.647887178	144	68	57
570.666724685	128	82	64
570.669833663	144	31	111
570.691986244	128	31	64
570.694274054	128	68	64
570.698243554	128	108	64
570.722009118	144	31	91
570.72273712	144	82	77
570.766820954	128	82	64
570.76785752	128	31	64
570.779825486	144	68	62
570.788224773	144	108	127
570.790850123	128	35	64
570.791455272	144	31	110
570.806174097	144	82	92
570.827473059	128	68	64
570.832034581	128	108	64
570.849432839	128	31	64
570.857983475	144	31	94
570.862555198	144	35	82
570.867422792	128	82	64
570.886383863	144	82	77
570.91429159	144	68	89
570.914748978	128	31	64
570.918441082	128	82	64
570.918667688	144	31	114
570.92081686	144	108	127
570.96143843	128	68	64
570.966708025	128	108	64
570.96773413	128	31	64
570.967816735	144	31	93
570.970677744	144	82	96
570.972954717	128	35	64
571.000062644	128	82	64
571.010548767	128	31	64
571.048232892	144	68	105
571.055325694	144	82	79
571.05841179	144	31	113
571.061320656	144	35	84
571.083450801	128	82	64
571.093302879	128	31	64
571.0947901	128	68	64
571.109726782	128	87	64
571.113944452	144	33	48
571.118143634	144	31	88
571.14039227	144	82	102
571.140542068	128	35	64
571.169000069	128	33	64
571.173992881	128	82	64
571.181258688	144	68	122
571.184312004	128	31	64
571.18840736	144	31	114
571.224252423	144	82	89
571.22727761	128	68	64
571.243793925	144	35	86
571.251496633	128	82	64
571.257992807	128	31	64
571.261216043	144	31	90
571.305948544	144	82	103
571.330594945	144	68	127
571.333306031	128	82	64
571.340960468	128	35	64
571.358746192	128	31	64
571.377445559	128	68	64
571.384512012	144	31	85
571.390222935	144	82	79
571.417182084	128	82	64
571.427177861	144	35	86
571.456682252	144	82	97
571.466700943	144	68	127
571.483776497	128	82	64
571.522656991	128	35	64
571.527740693	128	68	64
571.529667809	128	31	64
571.554729559	144	82	74
571.564501412	144	104	117
571.568117483	128	82	64
571.582429192	144	31	94
571.615866585	128	104	64
571.627235608	144	35	82
571.640892959	128	31	64
571.672035279	144	68	120
571.679258967	128	68	64
571.691096155	144	82	91
571.706086838	128	35	64
571.735383563	144	31	95
571.743350446	144	108	127
571.750985292	128	108	64
571.771351727	128	82	64
571.79401977	144	35	80
571.807729746	128	31	64
571.812389203	144	33	52
571.822504049	144	68	89
571.82268691	144	82	79
571.824826406	144	108	127
571.868958061	128	82	64
571.872693465	128	35	64
571.882420171	128	108	64
571.893985325	144	31	96
571.895636136	128	68	64
571.896756653	128	33	64
571.907402135	144	82	102
571.944069664	128	31	64
571.950408651	128	82	64
571.970001329	144	108	127
572.004620987	144	82	89
572.017213284	144	35	81
572.031487938	128	108	64
572.033356297	128	82	64
572.049581341	144	68	82
572.072814621	128	35	64
572.077786907	128	68	64
572.087502402	144	82	109
572.088449115	144	31	100
572.099857721	128	82	64
572.125945183	144	108	127
572.127582168	128	31	64
572.15564213	144	82	90
572.160347219	144	35	81
572.182899743	128	108	64
572.18382131	128	82	64
572.23943213	128	35	64
572.256236861	144	68	55
572.272670874	144	108	127
572.303326113	144	82	88
572.315380778	128	108	64
572.327309219	128	68	64
572.339650578	128	82	64
572.339723341	144	82	103
572.382639724	144	35	80
572.384188036	128	82	64
572.418849735	144	108	127
572.422771177	128	35	64
572.465252367	128	108	64
572.496636423	144	33	55
572.504451495	144	68	50
572.506967911	144	31	92
572.52768847	144	35	78
572.552738879	144	108	127
572.594619087	128	35	64
572.594951407	128	68	64
572.598789662	128	33	64
572.600486409	128	108	64
572.670391965	144	108	127
572.694229624	144	35	78
572.699786358	128	31	64
572.716149051	128	108	64
572.781556661	144	68	45
572.789489547	128	35	64
572.87413491	144	31	92
572.877099775	144	35	76
572.917514495	128	31	64
572.922131502	144	31	112
572.956078219	128	35	64
573.009312858	128	31	64
573.009392387	144	31	84
573.026366665	144	104	119
573.047139542	128	104	64
573.06044488	144	35	76
573.078679229	128	31	64
573.12285564	144	31	111
573.156035103	128	35	64
573.20451573	128	68	64
573.210423644	128	31	64
573.210510232	144	31	78
573.215020855	128	31	64
573.244164658	144	35	77
573.273698638	144	31	102
573.27979531	144	33	42
573.297018099	128	31	64
573.329710176	128	33	64
573.339413577	128	35	64
573.341014335	144	31	84
573.363499603	128	31	64
573.385411937	144	68	66
573.392869949	144	108	127
573.40624937	144	31	110
573.417654952	128	108	64
573.443576111	144	35	79
573.490524989	128	31	64
573.490590843	144	31	82
573.518896305	144	108	127
573.52346873	128	35	64
573.544374407	128	31	64
573.565550024	128	108	64
573.612726841	144	33	75
573.661615489	128	33	64
573.667036782	144	108	127
573.685262975	144	35	82
573.689012282	144	31	105
573.716498853	128	108	64
573.718369374	144	33	46
573.719794613	128	31	64
573.723584617	144	31	79
573.772771765	128	35	64
573.790142246	128	31	64
573.793819164	128	33	64
573.804008151	144	108	127
573.818583342	144	31	95
573.831292458	144	33	76
573.854468968	128	108	64
573.877277585	144	35	83
573.910888981	128	33	64
573.916803583	128	31	64
573.920939549	144	31	76
573.932754107	144	33	47
573.939609347	144	108	127
573.973054566	128	35	64
573.982445548	128	108	64
573.994014428	128	33	64
573.994305202	128	31	64
574.052476823	144	31	113
574.067313534	144	33	89
574.072005867	144	108	127
574.07962302	144	35	83
574.114710507	128	108	64
574.118424077	128	31	64
574.122354054	144	31	90
574.159372917	128	31	64
574.210210478	128	33	64
574.210440421	144	33	67
574.216544284	144	31	109
574.224640405	128	35	64
574.236318268	144	108	127
574.265341307	128	31	64
574.272803952	128	108	64
574.276862969	128	33	64
574.282901227	144	31	88
574.310506648	144	35	83
574.314831647	128	31	64
574.357822099	144	31	112
574.406086372	128	35	64
574.44102296	128	31	64
574.460972982	144	31	92
574.465402957	128	31	64
574.507289551	144	31	117
574.51022218	144	35	82
574.556421084	128	31	64
574.55651798	144	31	92
574.589358366	128	68	64
574.605940782	128	35	64
574.631251114	144	33	107
574.644700822	128	31	64
574.689240061	144	31	96
574.693934815	144	35	83
574.694925712	128	33	64
574.744591102	128	31	64
574.772483626	128	35	64
574.775308757	144	31	124
574.793627649	144	108	127
574.826131012	128	31	64
574.850853567	144	31	91
574.868260609	128	108	64
574.916265673	144	35	84
574.96890256	144	108	127
574.972887835	128	35	64
575.020098534	128	108	64
575.077093639	144	35	83
575.086331468	144	104	116
575.116116071	128	31	64
575.123757765	128	104	64
575.143715745	144	31	88
575.219883287	128	35	64
575.224098038	128	31	64
575.2359588	144	82	81
575.256480152	128	82	64
575.294025609	144	35	83
575.302713503	144	31	99
575.329844543	144	33	73
575.330094063	128	33	64
575.330139428	144	33	120
575.392778642	144	108	127
575.396113399	128	31	64
575.396315979	144	31	78
575.401832206	144	82	85
575.413939928	128	33	64
575.434661734	128	108	64
575.43757931	128	35	64
575.439177642	128	82	64
575.471327266	128	34	64
575.475174095	128	31	64
575.488779861	144	33	126
575.493480911	144	35	83
575.503844453	144	34	117
575.534467904	144	108	127
575.542301546	144	31	103
575.544743176	128	33	64
575.568757779	144	82	91
575.569287648	128	108	64
575.606756055	128	82	64
575.61627111	128	31	64
575.635967234	144	31	83
575.636940634	128	35	64
575.64949116	128	34	64
575.655219409	144	108	127
575.6892317	144	33	117
575.694079057	144	35	81
575.701184956	128	108	64
575.710312679	128	31	64
575.710882166	128	33	64
575.717071516	144	82	93
575.765502204	144	31	103
575.7709352	128	82	64
575.789099811	144	108	127
575.838079072	128	35	64
575.844550937	128	31	64
575.847115073	144	31	88
575.848909735	128	108	64
575.8549654	144	33	111
575.872756246	128	33	64
575.872823124	144	33	67
575.874444669	128	31	64
575.898279815	144	82	94
575.91030326	144	35	82
575.925801216	144	34	110
575.931004166	144	31	104
575.938627213	128	82	64
575.939401808	144	108	127
575.944680073	128	33	64
575.982329141	128	108	64
575.982814578	144	33	112
576.000261329	128	33	64
576.000318359	144	33	97
576.005769887	128	35	64
576.022611533	128	31	64
576.022722927	144	31	88
576.045734077	144	82	103
576.089598722	144	108	127
576.093465001	144	35	82
576.101698522	128	33	64
576.103446003	128	82	64
576.107205536	144	33	64
576.12535841	128	31	64
576.129788445	128	108	64
576.149171458	128	33	64
576.14937616	144	33	109
576.183666225	144	31	106
576.189205238	128	35	64
576.193456592	128	33	64
576.218205358	144	108	127
576.224275998	128	31	64
576.24772454	144	82	102
576.253561405	128	82	64
576.266660494	128	108	64
576.277551003	144	35	84
576.283988689	144	33	94
576.285593699	128	33	64
576.285661871	144	33	111
576.289995105	144	31	75
576.30092955	128	33	64
576.300988039	144	33	62
576.312677696	128	31	64
576.335821609	144	108	127
576.35769008	128	35	64
576.359448143	144	31	101
576.361401154	144	82	106
576.377174396	128	33	64
576.382370215	128	108	64
576.391097539	128	31	64
576.416802786	144	33	125
576.418084807	144	31	80
576.420083914	128	34	64
576.441971524	128	31	64
576.460239677	144	35	85
576.473169442	144	31	105
576.473282884	128	33	64
576.473362771	128	82	64
576.47364191	144	108	127
576.476555678	144	33	60
576.494501509	128	31	64
576.515807455	128	108	64
576.539493446	128	35	64
576.561215457	128	33	64
576.565633969	144	31	77
576.589567144	128	31	64
576.599605162	144	108	127
576.615903736	144	31	110
576.643157145	128	31	64
576.646472563	144	35	83
576.648384375	128	108	64
576.684730489	144	34	110
576.693839719	144	31	113
576.722243988	144	108	127
576.739282228	128	35	64
576.739847005	128	31	64
576.778307545	144	104	120
576.780737779	128	108	64
576.784990881	144	31	79
576.826585051	144	35	83
576.833433078	128	104	64
576.843332328	128	31	64
576.872590708	144	108	127
576.887958401	144	31	86
576.915990959	128	108	64
576.923111742	128	35	64
576.935644181	128	31	64
576.93890021	144	31	109
576.985772919	144	82	93
576.990934954	144	108	127
577.011359751	144	35	83
577.018342712	128	82	64
577.033046199	128	108	64
577.045205652	144	82	108
577.046775914	128	31	64
577.050539869	144	31	81
577.072173154	128	82	64
577.103052524	144	108	127
577.106005652	128	35	64
577.123503645	128	31	64
577.123618886	144	31	82
577.124778826	144	82	95
577.147241813	128	108	64
577.152664325	128	82	64
577.174520551	144	82	112
577.213152619	144	35	83
577.236105002	128	82	64
577.255458368	144	82	102
577.268027048	128	31	64
577.291770966	144	31	82
577.303554725	128	82	64
577.305892034	128	35	64
577.324263924	144	82	113
577.343002496	128	31	64
577.3863314	128	82	64
577.388483323	144	31	108
577.393703489	144	35	82
577.396062994	144	82	103
577.431609416	128	31	64
577.452928549	128	82	64
577.45775799	144	82	114
577.472487965	144	31	82
577.496403165	128	31	64
577.519596382	128	82	64
577.53626756	128	35	64
577.540011003	144	31	108
577.560694409	144	82	95
577.577216799	128	31	64
577.586211199	128	82	64
577.594382587	144	35	82
577.606912242	144	31	83
577.607512638	144	82	115
577.624136916	128	31	64
577.653512917	128	82	64
577.673191081	144	31	113
577.674442822	144	82	99
577.6893444	128	35	64
577.736502969	128	82	64
577.741813136	128	31	64
577.75611354	144	82	113
577.777882302	144	35	82
577.790925808	144	108	127
577.797669841	144	31	113
577.799636085	128	108	64
577.803254662	128	82	64
577.822964648	144	82	100
577.823651103	128	31	64
577.849583308	144	31	82
577.869820975	128	82	64
577.872804626	128	35	64
577.884648116	144	108	127
577.889593608	144	82	112
577.906616189	128	31	64
577.91789904	128	108	64
577.952693102	128	82	64
577.960522418	144	35	82
577.973687705	144	31	116
577.973939801	144	82	102
577.995833344	128	31	64
578.007232037	144	108	127
578.020277574	128	82	64
578.039681846	144	82	110
578.039913057	128	35	64
578.040236524	144	31	85
578.049456075	128	108	64
578.06348536	128	31	64
578.103181916	128	82	64
578.12368227	144	82	100
578.137568428	144	108	127
578.144008189	144	35	83
578.16461089	144	31	85
578.174042013	128	108	64
578.186732403	128	82	64
578.192321517	128	31	64
578.199838018	144	29	85
578.207364749	144	82	113
578.210759921	128	29	64
578.223039301	128	35	64
578.226439172	144	31	119
578.250303272	128	31	64
578.265354834	144	68	107
578.268801906	144	108	127
578.270182137	128	82	64
578.277408247	144	82	100
578.306813925	144	31	84
578.310276926	144	35	84
578.315245256	128	108	64
578.327493076	128	31	64
578.337198808	128	82	64
578.337964535	128	68	64
578.338026208	144	68	100
578.364047747	144	31	107
578.37499014	144	82	116
578.397136396	128	68	64
578.402329171	144	108	127
578.406158918	128	35	64
578.413164267	128	31	64
578.423867654	128	82	64
578.423938558	144	82	100
578.431979562	144	68	111
578.436133586	144	31	84
578.447765864	128	108	64
578.486728528	128	82	64
578.494537677	144	35	83
578.50691073	128	31	64
578.512759948	128	68	64
578.522105155	144	68	102
578.554989917	144	108	127
578.562648924	144	31	106
578.571759033	128	34	64
578.581321704	128	108	64
578.611258264	128	31	64
578.611441588	128	68	64
578.63352229	144	31	86
578.634436527	144	34	119
578.662943036	128	35	64
578.669688963	144	29	78
578.688551567	144	108	127
578.689993597	128	31	64
578.704152024	128	29	64
578.716798321	128	108	64
578.727337657	144	35	83
578.756718373	144	31	81
578.793170846	128	31	64
578.820750147	144	108	127
578.844732903	144	68	95
578.848831073	128	108	64
578.850484851	144	29	74
578.862517462	144	31	116
578.879905247	128	68	64
578.887377135	128	34	64
578.896320994	128	35	64
578.906388469	128	29	64
578.939028435	144	108	127
578.956521664	128	31	64
578.959729121	128	104	64
578.961289136	144	31	73
578.976607081	144	35	82
578.982681248	128	108	64
578.985199354	144	82	106
578.991042746	128	31	64
578.997199145	144	33	85
579.024824357	128	82	64
579.03032166	144	29	77
579.048610371	144	31	109
579.065205287	144	82	104
579.08631429	128	29	64
579.105331464	128	82	64
579.123421833	128	31	64
579.129556129	128	35	64
579.138560778	144	29	77
579.14387074	144	82	110
579.153249252	144	31	80
579.153674222	144	68	74
579.189985214	128	82	64
579.208526229	128	31	64
579.209086224	144	82	101
579.212538662	144	35	82
579.218841089	128	29	64
579.226553534	128	33	64
579.254661519	128	82	64
579.269418613	144	29	76
579.291657114	144	31	104
579.29442365	144	82	107
579.312894333	128	31	64
579.312938602	144	31	72
579.33690168	128	82	64
579.35243214	128	29	64
579.357155926	144	82	101
579.414131582	128	35	64
579.415258287	144	29	73
579.420576274	128	82	64
579.421989912	128	68	64
579.441436534	144	82	109
579.455756435	128	31	64
579.459747478	144	34	114
579.462762369	144	33	94
579.468509575	128	29	64
579.477425788	144	35	84
579.488178152	128	82	64
579.502080012	128	33	64
579.504353823	144	31	101
579.507988993	144	33	75
579.526067272	144	82	104
579.535456475	144	29	74
579.560813117	128	33	64
579.580079135	128	31	64
579.583164208	144	31	68
579.587882628	128	82	64
579.608238124	144	82	111
579.61784558	128	29	64
579.641178297	128	31	64
579.641693956	144	108	124
579.648025385	128	35	64
579.651107412	144	33	96
579.655622739	128	82	64
579.668945074	128	33	64
579.669011697	144	33	72
579.686583209	144	29	2
579.687144116	128	29	64
579.687200495	144	29	73
579.693338224	144	82	103
579.694361135	144	31	86
579.716096502	128	108	64
579.720913436	128	34	64
579.727452126	128	33	64
579.727718367	144	35	87
579.73845326	128	82	64
579.739208576	128	29	64
579.73924323	144	29	2
579.770535162	128	31	64
579.773991363	144	31	66
579.774489128	144	82	117
579.818576473	128	29	64
579.819466182	144	33	72
579.820653629	128	82	64
579.822119136	128	33	64
579.822205033	144	33	97
579.826427814	144	29	73
579.844881386	128	31	64
579.857784242	144	82	108
579.873273887	128	29	64
579.873341771	144	29	3
579.88187235	144	31	91
579.8974089	128	35	64
579.904069311	128	82	64
579.911080398	128	33	64
579.924406956	144	82	120
579.93513505	128	29	64
579.935184682	144	29	76
579.953939897	128	31	64
579.957690885	144	31	65
579.977420135	144	35	86
579.987072109	128	82	64
580.000017143	128	29	64
580.00011991	144	29	3
580.02397781	144	82	109
580.044217333	128	31	64
580.062737638	144	33	91
580.071810953	128	82	64
580.080783259	128	33	64
580.10264633	144	31	90
580.108145581	128	29	64
580.10819499	144	29	78
580.108578781	144	82	118
580.148846351	128	29	64
580.148914828	144	29	4
580.154298649	128	82	64
580.186284867	128	31	64
580.192562609	144	31	62
580.197925399	128	35	64
580.207312638	144	82	107
580.244424057	128	31	64
580.254434054	128	82	64
580.27758946	144	35	87
580.279281292	128	29	64
580.279325037	144	29	84
580.290698954	144	82	115
580.300696558	144	31	88
580.339241612	128	82	64
580.377097824	144	82	104
580.384217205	128	31	64
580.384256944	144	31	65
580.390511308	128	29	64
580.39055681	144	29	87
580.422071906	128	82	64
580.440236518	128	31	64
580.457523319	144	82	114
580.463913646	128	35	64
580.478701834	144	33	86
580.483605948	144	31	94
580.505848182	128	82	64
580.527057536	144	35	86
580.558838647	144	82	105
580.560866869	128	31	64
580.585245503	144	31	76
580.60444191	128	82	64
580.623143405	128	33	64
580.624694805	144	33	70
580.625558714	144	82	116
580.661352046	128	31	64
580.664830705	128	29	64
580.670415342	128	35	64
580.673452748	144	29	71
580.687783531	128	82	64
580.70500255	128	33	64
580.706298306	144	31	92
580.708061367	144	33	92
580.726723367	144	82	107
580.727685453	144	35	84
580.772334427	128	29	64
580.772454321	128	82	64
580.797263989	128	33	64
580.801054515	128	31	64
580.804804039	144	31	68
580.80910295	144	34	115
580.809674666	144	82	117
580.820354203	144	29	82
580.835565627	144	33	77
580.854614267	128	82	64
580.88168942	128	35	64
580.891941877	128	31	64
580.892671557	144	82	106
580.89734712	128	33	64
580.901410658	144	33	96
580.914774111	128	29	64
580.914817518	144	29	76
580.941456193	144	31	99
580.955188751	128	82	64
580.961822501	144	35	87
580.975390753	144	82	110
581.004653054	128	29	64
581.026661197	128	31	64
581.029796313	144	31	66
581.037760933	128	82	64
581.055567197	128	33	64
581.055608694	144	33	80
581.063576961	144	29	83
581.078440634	144	82	102
581.091874345	128	31	64
581.111072748	128	33	64
581.113618805	128	35	64
581.132362171	144	33	92
581.137919496	128	82	64
581.144490165	128	29	64
581.144533969	144	29	74
581.145303429	144	31	92
581.157878863	144	82	115
581.195105968	144	35	87
581.204875552	128	34	64
581.221640268	128	82	64
581.222318722	128	31	64
581.224518933	144	31	52
581.234452297	128	29	64
581.258003346	144	82	105
581.275413272	128	33	64
581.275493712	144	33	78
581.290242297	128	31	64
581.304541908	128	82	64
581.339169805	128	35	64
581.340847892	144	82	117
581.344633399	128	33	64
581.34726527	144	31	91
581.348995056	144	29	78
581.34932222	128	29	64
581.349376836	144	29	71
581.371184456	144	33	91
581.388281704	128	82	64
581.412224589	144	35	87
581.427164727	144	82	106
581.428968636	128	31	64
581.432081435	144	31	66
581.441057409	128	29	64
581.461638924	144	29	77
581.48912653	128	82	64
581.514926347	128	33	64
581.514989929	144	33	77
581.526585708	144	82	116
581.527596922	128	31	64
581.552093403	144	31	86
581.557045255	128	29	64
581.557088315	144	29	84
581.561272505	128	33	64
581.573155423	128	82	64
581.580429972	128	35	64
581.602017739	144	33	87
581.644305977	144	35	86
581.644571134	144	82	103
581.659902528	128	31	64
581.672066647	128	82	64
581.683199218	128	29	64
581.684049853	144	31	77
581.692325732	144	82	112
581.740136174	128	82	64
581.761086902	128	31	64
581.777162731	128	33	64
581.777233434	144	33	84
581.785624455	144	29	100
581.78592814	128	29	64
581.785973005	144	29	96
581.788494839	128	35	64
581.792647559	144	82	102
581.805051268	144	31	73
581.828721936	128	33	64
581.840346737	128	82	64
581.861471463	144	35	86
581.878551486	144	82	115
581.891816781	128	31	64
581.891858647	144	31	50
581.929516459	128	29	64
581.929582124	144	29	75
581.932084062	128	82	64
581.9597496	144	82	106
581.992028256	128	31	64
582.00518439	128	82	64
582.023106054	128	35	64
582.024544431	144	82	116
582.029263858	144	68	63
582.042222607	128	29	64
582.042275381	144	29	77
582.054749691	144	31	101
582.08810012	128	82	64
582.109603507	144	82	108
582.111152659	144	35	88
582.117022511	128	68	64
582.125754878	144	34	120
582.155648498	128	29	64
582.171986814	128	82	64
582.180803895	144	33	79
582.192974224	144	82	114
582.232787501	128	31	64
582.254254681	128	35	64
582.256058493	128	82	64
582.2589347	144	31	99
582.266191761	144	29	105
582.268164072	128	33	64
582.268214995	144	33	76
582.283547715	144	68	60
582.290042068	128	29	64
582.29571069	144	82	107
582.304051984	144	29	108
582.309634917	128	31	64
582.332318008	128	33	64
582.332439247	144	33	75
582.339300817	128	82	64
582.3532896	144	31	74
582.363311139	128	68	64
582.375262346	128	31	64
582.376960476	144	82	119
582.38707733	128	29	64
582.396506811	144	35	87
582.422632304	144	31	103
582.422753948	128	82	64
582.425392215	144	29	113
582.456257184	128	35	64
582.458257479	128	31	64
582.475135725	144	82	102
582.50385245	128	34	64
582.522171537	128	82	64
582.523423074	128	33	64
582.538126112	144	31	114
582.542324609	144	82	110
582.550076815	128	29	64
582.550134354	144	29	98
582.577352323	144	68	64
582.57765438	128	31	64
582.599422892	144	31	74
582.599609772	144	33	84
582.605353245	128	82	64
582.620148567	128	29	64
582.620212051	144	29	76
582.635519963	144	35	86
582.644600973	144	82	97
582.660846707	128	31	64
582.6701927	128	33	64
582.670298203	144	33	74
582.706891823	128	82	64
582.711471366	128	29	64
582.71152864	144	29	66
582.721454421	128	68	64
582.725519779	144	82	112
582.738753894	144	31	86
582.781562382	128	35	64
582.78867303	128	82	64
582.794832659	128	31	64
582.827261628	144	82	99
582.848230003	128	33	64
582.848450018	144	33	94
582.871886367	128	29	64
582.873197053	144	31	92
582.877173127	144	35	84
582.889726469	128	82	64
582.910595259	144	82	114
582.922012529	144	29	99
582.929863544	128	33	64
582.941664704	128	31	64
582.97293875	128	82	64
582.973603888	128	35	64
583.012560946	144	82	105
583.022668225	144	31	97
583.056760836	128	82	64
583.075462038	144	82	111
583.078883774	128	31	64
583.079770583	144	35	84
583.110132324	128	29	64
583.110383087	144	29	109
583.111004227	128	29	64
583.145273518	144	26	71
583.167854749	144	29	127
583.171791405	144	31	111
583.172890322	128	82	64
583.173070091	128	35	64
583.179362402	144	82	111
583.214316646	128	82	64
583.2143902	144	82	118
583.224685982	128	31	64
583.234206992	128	29	64
583.272434926	128	82	64
583.280560571	144	29	113
583.293051582	144	82	103
583.317889322	144	31	109
583.33463495	144	35	84
583.339078325	128	82	64
583.352485153	128	29	64
583.359029141	144	82	117
583.377222746	128	31	64
583.388406223	144	108	127
583.389732511	128	35	64
583.390097741	144	29	89
583.406193465	128	82	64
583.425797393	144	82	98
583.435009126	128	108	64
583.438513206	128	82	64
583.454797901	144	31	106
583.494638562	128	29	64
583.494698385	144	29	73
583.507520265	128	31	64
583.546337528	144	33	96
583.569128249	144	35	86
583.603618662	144	31	107
583.639448618	128	29	64
583.639524637	144	29	82
583.656225676	128	35	64
583.660991967	128	31	64
583.715678887	128	33	64
583.715747482	144	33	86
583.738036036	144	31	106
583.750225322	128	29	64
583.76032588	144	35	85
583.793546557	144	34	123
583.80683835	128	31	64
583.807260046	128	33	64
583.807317531	144	33	103
583.824218885	144	29	100
583.824607126	128	29	64
583.856193879	128	35	64
583.906577517	144	31	106
583.959391389	128	33	64
583.959536266	128	31	64
583.96003446	144	33	85
584.001783152	144	35	86
584.009809153	144	29	127
584.010016829	128	29	64
584.010059984	144	29	121
584.017397711	128	33	64
584.017493881	144	33	101
584.051868341	144	31	109
584.082852982	128	29	64
584.108803202	128	35	64
584.111340609	128	31	64
584.124299292	144	29	105
584.162708353	128	33	64
584.162887248	144	33	77
584.191516211	144	31	107
584.193660775	144	35	87
584.201368249	128	29	64
584.232261692	144	29	86
584.232457254	128	33	64
584.232506146	144	33	85
584.250183483	128	29	64
584.250463481	144	29	72
584.257022225	128	31	64
584.294795516	128	33	64
584.340222029	144	31	108
584.343641584	128	29	64
584.343692783	144	29	93
584.347280574	128	35	64
584.394410031	128	31	64
584.403922146	128	29	64
584.443879152	144	35	86
584.44548932	144	29	72
584.446156761	128	29	64
584.446251313	144	29	105
584.482167587	144	31	110
584.536229685	128	29	64
584.544571484	128	31	64
584.596479919	128	35	64
584.599919845	144	29	127
584.601314858	128	29	64
584.634705898	144	29	125
584.635925393	128	29	64
584.636662167	144	29	71
584.641246805	144	31	109
584.693738827	128	31	64
584.717734612	128	29	64
584.751266484	144	35	87
584.782300962	144	31	107
584.785198902	144	29	104
584.80095614	128	29	64
584.810201552	144	29	77
584.840122798	128	31	64
584.8540823	128	29	64
584.897407184	128	35	64
584.903749772	128	34	64
584.91194879	144	29	91
584.929996069	144	33	72
584.938228846	144	31	102
584.945951005	128	33	64
584.95245447	128	29	64
584.986281471	144	29	104
585.007160333	128	31	64
585.016137308	128	26	64
585.022975602	144	33	70
585.034235953	128	29	64
585.048859976	144	34	127
585.049742217	144	35	85
585.069310354	144	29	127
585.098906928	144	31	101
585.141464266	128	33	64
585.145826406	144	33	72
585.177923204	128	31	64
585.196438586	128	35	64
585.212099233	128	33	64
585.221923635	128	29	64
585.22335194	144	29	112
585.223887274	128	29	64
585.266945276	144	31	105
585.268355388	144	29	105
585.278746644	144	82	94
585.288012284	128	34	64
585.301900241	144	33	70
585.34020491	144	35	84
585.340539711	128	29	64
585.348596015	128	82	64
585.348650171	144	82	75
585.354901468	144	29	78
585.358687255	128	82	64
585.361411923	128	31	64
585.364854496	128	33	64
585.36803576	144	33	72
585.395031567	128	33	64
585.416500639	128	29	64
585.445368727	144	29	90
585.448339631	144	82	52
585.484124867	128	35	64
585.502137329	128	29	64
585.512580288	128	82	64
585.522191506	144	31	76
585.537392247	144	29	105
585.543979772	144	33	68
585.557306799	128	31	64
585.576619043	144	82	78
585.579671723	128	29	64
585.594932492	128	33	64
585.615961675	144	31	97
585.632143258	144	29	127
585.632875843	128	31	64
585.637237805	144	35	84
585.660382311	128	82	64
585.668097975	144	31	77
585.685431603	128	31	64
585.693584378	144	82	64
585.700440516	128	29	64
585.700506221	144	29	123
585.704312313	144	31	111
585.723045557	128	35	64
585.739972621	128	82	64
585.752477629	128	29	64
585.761937851	128	31	64
585.776741105	144	82	44
585.777558346	144	34	127
585.784078958	144	31	80
585.817220781	144	29	109
585.823873042	128	82	64
585.829371205	128	31	64
585.829793905	144	33	73
585.876764424	144	82	73
585.884579877	144	35	85
585.915394201	144	31	83
585.917282319	128	33	64
585.924058632	128	82	64
585.944435758	128	31	64
585.958417824	128	29	64
585.958650346	144	29	89
585.968043279	128	29	64
585.972183293	144	31	114
585.978138756	144	82	69
585.99005468	128	82	64
586.028285441	144	82	45
586.029744468	128	35	64
586.03704701	144	29	122
586.044510534	128	31	64
586.091034646	128	82	64
586.104149285	144	31	127
586.119913722	128	29	64
586.119988585	144	29	114
586.1454024	144	82	78
586.160684113	128	31	64
586.160738184	144	31	98
586.163999475	128	29	64
586.184818718	144	35	84
586.203782895	128	34	64
586.218696436	144	29	107
586.241800155	128	31	64
586.289837654	144	31	127
586.308602557	128	82	64
586.329392619	128	29	64
586.329889342	128	35	64
586.330092638	128	31	64
586.330173974	144	31	108
586.347990695	144	82	50
586.403324418	144	29	89
586.404197806	128	29	64
586.407828791	128	31	64
586.427817231	144	35	84
586.442599374	128	82	64
586.458861938	144	31	98
586.469799004	144	29	120
586.50052797	144	82	60
586.541433741	128	29	64
586.559209782	128	82	64
586.561185237	128	31	64
586.579757672	128	35	64
586.597050723	144	82	52
586.610265962	144	29	110
586.621081524	128	29	64
586.657207283	144	31	88
586.660358202	144	29	72
586.663012044	128	82	64
586.663071816	144	82	24
586.724577031	144	35	83
586.736492569	128	29	64
586.741000626	128	82	64
586.748985317	144	29	81
586.757412778	128	31	64
586.760650126	144	31	59
586.797499466	144	82	80
586.807286773	128	29	64
586.807333719	144	29	85
586.823061835	128	35	64
586.859002228	144	34	123
586.859236857	128	82	64
586.875412814	128	29	64
586.905563606	128	31	64
586.905639895	144	31	87
586.906006632	128	31	64
586.906047737	144	31	107
586.912260974	144	82	68
586.913282051	144	29	95
586.958059728	128	82	64
586.965431122	128	29	64
586.965511883	144	29	123
586.996260649	144	82	43
587.00184355	144	35	83
587.034804311	128	29	64
587.034938924	144	29	113
587.050336485	128	31	64
587.050489486	144	31	57
587.058312173	128	82	64
587.07749282	144	82	84
587.089643944	128	35	64
587.095870634	128	31	64
587.135278946	128	29	64
587.141114162	128	82	64
587.153694563	144	31	68
587.195443971	128	31	64
587.196025694	144	29	99
587.19741792	144	82	41
587.226577286	144	31	46
587.234809728	144	35	85
587.241522651	128	82	64
587.260334258	128	31	64
587.296211534	144	82	92
587.316173367	144	31	46
587.336366289	128	29	64
587.336685679	144	29	101
587.360087766	128	82	64
587.380541409	128	29	64
587.380615126	144	29	127
587.396480119	128	35	64
587.406019836	128	31	64
587.406117783	144	31	41
587.412402506	144	82	64
587.431983244	144	108	127
587.441050414	128	31	64
587.441358697	128	82	64
587.447280089	128	108	64
587.478751409	144	82	35
587.49395008	144	35	82
587.497845052	144	31	20
587.525646393	128	31	64
587.535625059	128	29	64
587.541884798	128	82	64
587.577611929	144	31	44
587.583381998	144	29	117
587.588274532	128	29	64
587.588353848	144	29	69
587.611167977	144	82	76
587.637443901	128	35	64
587.654476878	128	29	64
587.654541464	144	29	108
587.674940787	128	82	64
587.696400674	144	82	57
587.710408306	144	35	83
587.732007518	128	31	64
587.733523112	144	31	27
587.742198853	128	82	64
587.747372633	144	33	66
587.785602452	128	33	64
587.787518775	128	29	64
587.787571617	144	29	110
587.79183258	128	31	64
587.812813602	144	82	26
587.8208976	144	33	72
587.841826894	128	82	64
587.865080409	128	35	64
587.87054591	144	31	36
587.896522366	128	33	64
587.897116279	144	82	82
587.901139393	128	29	64
587.901179527	144	29	68
587.917209519	144	33	68
587.927055488	128	31	64
587.927114871	144	31	19
587.945969682	128	82	64
587.970557905	128	29	64
587.970620557	144	29	70
587.975545664	128	31	64
587.99721802	128	33	64
588.002367408	144	33	70
588.018233975	144	35	84
588.04071853	144	31	50
588.047814166	144	82	59
588.051436094	128	82	64
588.051471712	144	82	93
588.076539116	128	82	64
588.078464668	128	33	64
588.106562263	128	35	64
588.116596038	144	33	67
588.125699716	128	31	64
588.125745983	144	31	21
588.157682697	128	31	64
588.171956135	144	82	29
588.195311875	128	33	64
588.210637149	128	82	64
588.214646615	144	31	54
588.217199192	144	33	68
588.317667572	128	33	64
588.320910986	144	35	83
588.321630491	144	33	69
588.359780522	128	31	64
588.360032862	144	31	34
588.395971592	128	33	64
588.400648633	128	31	64
588.423560229	128	35	64
588.45055503	144	31	66
588.451866041	144	33	65
588.453958388	144	82	84
588.488065111	128	26	64
588.510394653	128	82	64
588.528137336	128	31	64
588.528927718	128	33	64
588.531736426	144	31	35
588.534148997	144	82	65
588.54883382	144	33	70
588.569271739	144	35	80
588.580640689	128	82	64
588.580688176	144	82	42
588.594477435	128	31	64
588.641969706	128	82	64
588.645765258	128	33	64
588.649079152	144	31	70
588.662270619	144	82	31
588.68632628	144	33	66
588.725358227	128	82	64
588.726420106	128	31	64
588.726502376	144	31	41
588.730390398	128	35	64
588.746071733	144	82	69
588.765948258	128	33	64
588.772128931	144	33	69
588.82528712	128	82	64
588.827335614	144	35	82
588.833860608	128	31	64
588.846038136	144	82	56
588.862931375	128	33	64
588.864878002	144	31	71
588.891110977	128	29	64
588.902727437	144	33	67
588.92527307	128	82	64
588.960618483	128	31	64
588.982250485	128	33	64
588.982310516	144	33	68
588.982964594	144	31	47
588.996495203	128	35	64
589.045987633	128	33	64
589.054613154	144	29	121
589.061527328	128	31	64
589.09997001	144	82	62
589.101755664	144	33	65
589.131050665	144	31	74
589.151388159	144	35	82
589.153504871	128	29	64
589.163889258	128	33	64
589.163927047	144	33	67
589.211168076	128	31	64
589.228340639	128	33	64
589.230467063	128	82	64
589.230523237	144	82	31
589.244929707	144	31	65
589.245946183	144	29	116
589.296539192	128	31	64
589.296670679	128	35	64
589.300713301	144	33	64
589.309699012	128	82	64
589.314424718	128	33	64
589.314482808	144	33	67
589.330470668	144	82	39
589.366017537	144	31	88
589.392924598	128	82	64
589.39403709	144	35	83
589.395139894	128	33	64
589.433734715	144	82	52
589.450589914	128	29	64
589.451142453	144	29	111
589.467889937	128	29	64
589.468528621	144	33	64
589.468983101	128	31	64
589.469037122	144	31	62
589.472503861	128	33	64
589.472563422	144	33	67
589.488932255	144	29	114
589.537020835	128	35	64
589.558629304	128	31	64
589.562193472	128	33	64
589.565829637	128	82	64
589.565885406	144	82	33
589.604361692	128	29	64
589.604432486	144	29	118
589.622391406	144	31	67
589.627420958	144	35	83
589.635191145	144	33	66
589.655920045	128	29	64
589.669702843	128	33	64
589.669789334	144	33	67
589.694418371	128	31	64
589.705858761	144	29	127
589.711618715	128	82	64
589.719874911	144	31	27
589.745441157	128	29	64
589.760615432	128	31	64
589.762165905	128	33	64
589.779933956	128	35	64
589.785424477	144	82	71
589.78812917	144	33	64
589.815053652	144	29	119
589.849253532	128	33	64
589.849398781	144	33	66
589.849745719	144	31	48
589.859060167	128	29	64
589.859132687	144	29	119
589.905147616	128	34	64
589.928591172	128	33	64
589.934550682	144	35	86
589.939221443	128	31	64
589.940423685	144	31	25
589.945754859	128	29	64
589.945798424	144	29	100
589.949349882	144	33	65
589.962696518	128	82	64
589.962736065	144	82	49
590.001665714	144	34	124
590.011291699	128	31	64
590.028974624	128	33	64
590.040054121	128	35	64
590.04162426	128	82	64
590.049139487	144	33	65
590.057257784	144	31	56
590.096057966	144	82	66
590.147366065	128	33	64
590.15593302	128	31	64
590.159440735	144	31	31
590.162939456	128	82	64
590.16297821	144	82	47
590.167444137	144	33	65
590.20485501	128	34	64
590.21741858	144	35	88
590.229840172	128	33	64
590.242969131	128	82	64
590.249531239	144	82	28
590.252320372	144	34	127
590.258689636	128	31	64
590.283006887	144	31	50
590.28608898	144	33	61
590.305806246	128	35	64
590.330562249	128	34	64
590.351674438	144	108	127
590.361637321	128	33	64
590.375370201	128	31	64
590.377601767	128	108	64
590.382138749	144	33	65
590.387801827	144	34	127
590.394170545	128	82	64
590.399916198	144	31	30
590.440360219	144	82	64
590.445198928	128	34	64
590.451870818	144	35	87
590.477818914	128	31	64
590.498719778	128	82	64
590.498784637	144	82	44
590.525313204	128	33	64
590.536462442	144	34	127
590.539341334	128	35	64
590.553034265	144	31	50
590.579816606	128	82	64
590.579883265	144	82	24
590.598223446	128	34	64
590.624404715	128	31	64
590.627533348	144	31	27
590.633823774	128	82	64
590.633866849	144	82	35
590.670093363	144	34	127
590.691252583	128	31	64
590.7094868	128	82	64
590.712956047	128	34	64
590.718248537	144	35	87
590.746463701	144	31	53
590.779860164	144	82	64
590.798045338	144	33	66
590.806523624	128	35	64
590.813238869	128	31	64
590.813277599	144	31	29
590.846413211	128	33	64
590.847831502	128	82	64
590.847946102	144	82	76
590.859764055	144	34	127
590.859938048	128	34	64
590.900447475	128	29	64
590.900518221	144	29	85
590.902716654	144	33	67
590.91179002	128	82	64
590.91184672	144	82	42
590.917980411	144	34	127
590.941600879	128	29	64
590.94165789	144	29	95
590.971923298	128	31	64
590.971999177	144	31	52
590.97862846	128	33	64
591.018530885	144	35	87
591.041876183	128	31	64
591.049673384	144	33	65
591.058419372	128	35	64
591.060401536	128	82	64
591.090395758	144	31	35
591.114354948	128	33	64
591.114432905	144	33	67
591.117719202	144	82	67
591.133857368	128	29	64
591.133913507	144	29	93
591.15011082	128	82	64
591.150151155	144	82	47
591.168670044	128	31	64
591.168754867	144	31	55
591.195008052	128	33	64
591.218002389	144	35	87
591.250332434	128	82	64
591.250400905	144	82	39
591.26676221	144	33	63
591.298001515	128	82	64
591.298069555	144	82	40
591.321279939	128	31	64
591.321346152	144	31	29
591.332192817	128	33	64
591.332271871	144	33	65
591.363163775	128	35	64
591.392071868	128	31	64
591.39356726	128	82	64
591.417176114	144	82	87
591.429300407	128	33	64
591.444774027	144	35	87
591.453101119	144	31	57
591.469975764	144	33	60
591.500715009	128	31	64
591.50079055	144	31	35
591.531179708	128	33	64
591.531256523	144	33	64
591.53581928	144	68	48
591.550905135	128	82	64
591.550950414	144	82	50
591.60008521	128	68	64
591.61392032	128	35	64
591.629533648	128	33	64
591.629802361	128	82	64
591.639988132	144	82	44
591.667077204	128	31	64
591.668810039	144	33	61
591.694417924	144	31	57
591.710827601	128	82	64
591.723473331	128	33	64
591.723549365	144	33	63
591.737660761	144	68	55
591.752937136	144	82	77
591.769678378	144	35	86
591.795199018	128	33	64
591.80071689	128	82	64
591.800803862	144	82	60
591.813908739	128	68	64
591.838403319	128	29	64
591.843091593	128	31	64
591.843377196	144	31	30
591.846067148	128	82	64
591.84610034	144	82	38
591.851329642	144	33	61
591.880285985	128	33	64
591.880360084	144	33	65
591.897685992	128	82	64
591.89773864	144	82	36
591.908689946	128	31	64
591.915077695	128	35	64
591.933649495	144	31	57
591.943580733	128	82	64
591.944745738	128	33	64
591.974667742	144	68	56
592.011227761	128	31	64
592.030131041	128	68	64
592.032970096	144	33	66
592.034478942	144	31	33
592.054046781	128	33	64
592.054092504	144	33	61
592.068977705	144	35	86
592.117911462	144	68	61
592.118089714	128	31	64
592.122192931	144	31	60
592.12918197	128	33	64
592.180006338	128	68	64
592.19139094	128	31	64
592.191475695	144	31	37
592.218995062	144	33	65
592.248010256	128	35	64
592.253526273	128	33	64
592.253626435	144	33	61
592.269574883	144	68	67
592.294570928	128	31	64
592.321704277	144	31	45
592.329259535	128	33	64
592.329710688	128	68	64
592.392251609	144	35	85
592.408685151	128	31	64
592.417987205	144	68	70
592.457250448	144	31	67
592.497912808	128	68	64
592.537226918	128	35	64
592.545757902	128	31	64
592.548978636	144	31	44
592.601595268	144	68	77
592.62730871	128	31	64
592.649143258	144	31	69
592.663788481	144	29	103
592.679699008	128	68	64
592.685869593	144	35	85
592.696664056	128	29	64
592.69721566	144	33	67
592.719428427	128	31	64
592.71949764	144	31	46
592.749240399	128	31	64
592.764378471	128	33	64
592.768780886	144	82	51
592.785475724	144	68	91
592.793524155	144	31	75
592.795901008	128	82	64
592.812143411	128	31	64
592.821386395	144	82	89
592.841498759	144	31	55
592.846406718	128	35	64
592.852136071	144	29	100
592.87271821	144	33	76
592.878368672	128	82	64
592.891651844	128	29	64
592.897090819	128	31	64
592.932200036	144	82	122
592.946963295	128	33	64
592.948764339	144	31	78
592.979029148	128	82	64
593.040108795	128	31	64
593.040181334	144	31	51
593.048012753	144	82	57
593.069053209	144	35	86
593.091443305	144	33	73
593.108050056	128	31	64
593.125735232	144	29	85
593.127248154	128	82	64
593.130172287	128	33	64
593.156113534	128	68	64
593.157020598	144	31	89
593.166891758	128	29	64
593.222854654	144	33	75
593.248209443	128	35	64
593.249490163	128	31	64
593.253166136	144	31	78
593.26623129	128	33	64
593.289735243	144	29	74
593.307456848	144	33	69
593.311953275	144	68	60
593.334666772	128	31	64
593.334747669	144	31	106
593.411362747	128	31	64
593.435432359	144	35	86
593.443238958	128	29	64
593.443519449	144	29	90
593.444171433	128	29	64
593.4442066	144	29	77
593.45051556	128	33	64
593.451029511	144	33	70
593.454146028	144	31	119
593.489862333	128	29	64
593.489937938	144	29	95
593.495965479	128	33	64
593.52608726	128	29	64
593.526145789	144	29	76
593.536197658	144	33	71
593.547236939	128	31	64
593.547283133	144	31	96
593.568528336	144	108	123
593.58393472	128	108	64
593.617208742	128	33	64
593.617341961	144	33	67
593.620022466	144	82	62
593.642114133	128	31	64
593.648474293	128	82	64
593.64861596	128	35	64
593.691550566	144	31	99
593.712622174	128	33	64
593.720526058	128	29	64
593.720616327	144	29	100
593.732372109	128	68	64
593.756469189	128	29	64
593.77556933	144	33	74
593.777120959	128	31	64
593.777161318	144	31	79
593.799302235	144	29	114
593.834580168	144	35	84
593.851951108	144	82	1
593.862499918	128	33	64
593.872044858	128	29	64
593.87781151	128	31	64
593.898931682	128	82	64
593.898998354	144	82	37
593.919524971	144	33	56
593.923144145	144	31	84
593.933081163	144	29	107
593.933949366	128	29	64
593.950981929	128	82	64
593.951030226	144	82	68
593.99750875	128	35	64
594.012359383	128	33	64
594.017725342	144	68	47
594.032151166	128	82	64
594.032194428	144	82	106
594.033220724	144	33	76
594.067406368	128	31	64
594.067520273	144	31	93
594.088841244	128	34	64
594.094693132	128	82	64
594.151374038	144	34	127
594.168809774	144	35	86
594.1740974	128	68	64
594.17613801	128	33	64
594.176489304	144	33	52
594.201207741	144	82	1
594.212988222	128	31	64
594.213207532	144	31	127
594.23043083	128	34	64
594.246278103	128	33	64
594.251870161	128	82	64
594.251953337	144	82	45
594.286802917	144	33	74
594.288240551	144	34	127
594.299636721	128	82	64
594.299676946	144	82	83
594.313762224	128	35	64
594.317410794	128	31	64
594.32240182	144	31	104
594.345621604	128	34	64
594.378757924	128	82	64
594.380556165	128	33	64
594.385048532	144	82	118
594.404401624	144	33	51
594.411684573	128	82	64
594.419603671	144	34	127
594.470063592	128	31	64
594.47014034	144	31	107
594.48791864	128	33	64
594.492253969	144	33	71
594.496791985	128	34	64
594.531224517	144	82	17
594.543095181	144	34	127
594.547170787	128	82	64
594.547275185	144	82	56
594.552700139	144	35	87
594.579364017	128	33	64
594.613992385	128	31	64
594.614063017	144	31	85
594.614669062	128	82	64
594.614729206	144	82	89
594.619603595	144	33	49
594.627258586	144	29	74
594.695604277	128	82	64
594.698068517	128	35	64
594.703043618	144	82	123
594.708657266	128	31	64
594.716901688	128	33	64
594.718782961	144	33	73
594.757027569	144	31	113
594.778387537	128	82	64
594.832712289	144	82	24
594.869998104	128	82	64
594.870087822	144	82	63
594.883345495	128	33	64
594.883641774	144	33	46
594.886213579	144	35	85
594.90025312	128	31	64
594.900665165	144	31	90
594.916961037	128	82	64
594.917060224	144	82	98
594.943535571	144	86	85
594.968784708	128	33	64
594.972233619	144	33	71
594.99734414	128	31	64
594.998700125	128	86	64
595.00015457	144	31	111
595.016757293	128	82	64
595.016855012	144	82	127
595.030776907	128	35	64
595.079780355	128	82	64
595.115730431	128	33	64
595.122162627	144	33	40
595.145324428	128	31	64
595.14583955	144	31	90
595.190707548	144	82	20
595.215228487	128	82	64
595.215299279	144	82	63
595.215615125	128	33	64
595.218940887	144	33	70
595.219359912	144	35	88
595.225259349	128	31	64
595.284417919	128	82	64
595.284534182	144	82	95
595.287979657	144	31	109
595.345421799	128	82	64
595.363169197	128	33	64
595.363493368	144	33	42
595.364852935	144	82	127
595.385816201	128	31	64
595.385938789	144	31	87
595.403807682	128	35	64
595.413397504	128	82	64
595.436332025	128	29	64
595.436409002	144	29	63
595.441577293	128	31	64
595.449959363	128	33	64
595.450012241	144	33	72
595.499708559	144	82	17
595.499899787	144	31	107
595.535154443	128	82	64
595.53522918	144	82	60
595.565468496	128	31	64
595.56556762	144	31	86
595.569853369	144	35	88
595.593406676	128	33	64
595.597369815	128	82	64
595.597457727	144	82	96
595.623837983	144	33	54
595.680960469	128	82	64
595.684169045	144	82	127
595.708302174	128	35	64
595.710163445	128	29	64
595.718573853	128	33	64
595.723604822	144	33	77
595.729483464	128	82	64
595.73669417	144	108	125
595.766331493	128	31	64
595.767327213	144	31	111
595.799737125	144	29	116
595.810332887	128	108	64
595.831574431	144	82	16
595.849497194	128	82	64
595.849597947	144	82	60
595.865325625	128	29	64
595.869771062	128	33	64
595.891650035	144	33	66
595.89828691	128	82	64
595.898588681	144	82	93
595.91096708	128	31	64
595.911027912	144	31	78
595.919858496	144	35	89
595.96171962	128	82	64
595.962720201	128	33	64
595.975367243	128	31	64
595.982477034	144	82	126
595.99428368	144	29	109
596.000457261	144	33	75
596.022965343	144	31	102
596.028815127	128	82	64
596.040485203	128	29	64
596.064036068	128	35	64
596.065153831	144	82	58
596.113299536	128	33	64
596.124820383	128	31	64
596.126893198	144	31	78
596.132603949	128	82	64
596.136787774	144	82	91
596.179462791	128	82	64
596.179847812	144	29	110
596.183630098	144	82	126
596.187729707	144	86	82
596.19821591	128	29	64
596.198258359	144	29	73
596.202133214	144	33	68
596.212978509	128	82	64
596.225712312	128	31	64
596.234882732	128	29	64
596.253805921	144	31	107
596.264801876	144	82	17
596.282034351	128	86	64
596.283529016	128	82	64
596.283582592	144	82	57
596.284454325	144	35	90
596.295725869	128	82	64
596.29665329	128	33	64
596.315869944	144	82	91
596.321821592	144	33	72
596.341542355	128	31	64
596.346116899	128	82	64
596.363320359	144	31	77
596.36612318	144	82	125
596.395952252	128	82	64
596.40663493	128	35	64
596.450243484	144	82	15
596.484372388	128	82	64
596.484504209	144	82	59
596.507619075	128	31	64
596.50819493	128	33	64
596.508653402	144	33	65
596.516179802	128	82	64
596.519780151	144	82	92
596.52393399	144	31	112
596.562391501	128	82	64
596.563963551	128	33	64
596.585196848	144	35	90
596.599610735	144	82	127
596.602828542	144	33	64
596.621417295	128	31	64
596.621473622	144	31	86
596.662795487	128	82	64
596.709011303	128	31	64
596.716043481	144	82	11
596.746377574	128	33	64
596.747513729	128	35	64
596.750086582	128	82	64
596.750133399	144	82	60
596.754795595	144	33	66
596.768200269	144	31	115
596.81697642	128	82	64
596.820625488	144	82	93
596.829988674	128	33	64
596.853463592	128	31	64
596.853524013	144	31	86
596.870699874	144	33	70
596.879352888	128	82	64
596.884434536	144	82	127
596.963071472	128	82	64
596.986550754	144	35	87
597.013650733	128	33	64
597.013928186	144	33	66
597.015016321	128	31	64
597.017004376	144	31	109
597.034436544	144	82	19
597.06966961	128	82	64
597.069760005	144	82	61
597.095130597	128	31	64
597.09585727	128	33	64
597.117979002	128	82	64
597.118061059	144	82	94
597.13148051	128	35	64
597.143373672	144	31	86
597.152322359	144	33	72
597.181799663	128	82	64
597.181889359	144	82	127
597.246012647	128	82	64
597.302230609	128	33	64
597.316582072	144	82	15
597.320200022	144	33	68
597.33684503	144	35	89
597.350133117	128	31	64
597.356410016	128	82	64
597.356472184	144	82	56
597.397555496	128	33	64
597.415152336	128	82	64
597.41699086	144	33	69
597.419338596	144	82	92
597.440673939	128	35	64
597.479677687	128	82	64
597.485284974	144	82	125
597.496015429	128	33	64
597.546227071	128	82	64
597.567376336	144	33	70
597.571807295	128	34	64
597.601479165	144	82	14
597.615765238	128	82	64
597.61584805	144	82	57
597.63612846	144	35	88
597.65180053	144	34	127
597.662498447	128	33	64
597.682992788	128	82	64
597.683103267	144	82	93
597.683426013	144	33	70
597.700819584	144	108	125
597.730375473	128	34	64
597.738964036	128	108	64
597.744979049	144	98	99
597.776342242	144	34	127
597.779707203	128	33	64
597.780754848	128	82	64
597.784141142	128	35	64
597.788540132	144	82	127
597.820266713	144	33	71
597.828638884	128	34	64
597.848456437	128	82	64
597.878563771	144	86	86
597.896139243	128	33	64
597.903943484	144	34	127
597.916740878	128	86	64
597.935675937	144	82	16
597.952232171	144	33	73
597.969030938	144	35	83
597.983992062	128	82	64
597.984043829	144	82	60
598.046247266	128	33	64
598.052350225	128	82	64
598.05240679	144	82	94
598.084857061	144	33	71
598.11440886	128	35	64
598.13049034	128	82	64
598.136966817	144	82	127
598.15998123	144	86	88
598.167592394	128	86	64
598.179374453	128	33	64
598.196945953	128	82	64
598.217269108	144	33	73
598.268333196	144	82	15
598.285104561	144	35	87
598.311121441	128	82	64
598.311178949	144	82	56
598.360280111	128	33	64
598.366996884	128	82	64
598.367067008	144	82	92
598.370091533	144	33	69
598.374044005	128	35	64
598.447267006	128	82	64
598.453406541	144	82	125
598.462778923	128	33	64
598.520098415	144	33	71
598.530785469	128	82	64
598.60161992	144	35	89
598.602434425	144	82	16
598.654331992	128	82	64
598.654397927	144	82	59
598.66438376	128	33	64
598.672450805	144	33	69
598.674469027	128	35	64
598.70280662	128	82	64
598.70286483	144	82	93
598.763523603	128	33	64
598.797738553	128	82	64
598.803248046	144	33	72
598.804079444	144	82	123
598.837569216	128	98	64
598.863923718	128	82	64
598.896865875	128	33	64
598.918351564	144	82	13
598.93402322	144	98	97
598.935144246	144	33	67
598.935685583	144	86	86
598.935939576	144	35	90
598.96682661	128	86	64
598.96831857	128	82	64
598.968413138	144	82	56
598.99047313	128	35	64
599.017485645	128	82	64
599.01755982	144	82	91
599.034337642	128	33	64
599.067795316	144	33	73
599.114251138	128	82	64
599.121859948	144	82	123
599.149500654	128	31	64
599.180344376	128	33	64
599.180716366	128	82	64
599.185879486	144	35	90
599.241248011	144	33	68
599.249274696	144	82	14
599.266271798	128	82	64
599.266353668	144	82	55
599.313715466	128	33	64
599.332854492	128	82	64
599.332959067	144	82	90
599.344556538	128	35	64
599.350789705	144	33	73
599.430429794	128	82	64
599.434427108	144	82	124
599.499109278	128	82	64
599.50191417	144	35	87
599.509275176	128	33	64
599.509631387	144	33	69
599.563757536	128	33	64
599.56868405	144	82	13
599.604430386	128	82	64
599.604477297	144	82	55
599.609100437	128	35	64
599.622159755	144	33	74
599.667679532	128	82	64
599.667756122	144	82	91
599.712886943	128	33	64
599.750621125	144	33	68
599.752750419	128	82	64
599.752790248	144	82	123
599.84638078	128	33	64
599.848326616	128	82	64
599.884783027	144	33	73
599.895683867	144	35	87
599.919225549	144	82	14
599.958518254	128	82	64
599.95859321	144	82	57
599.990414134	128	35	64
599.999257292	128	98	64
600.019283846	128	82	64
600.019357248	144	82	92
600.038507056	128	33	64
600.038782819	144	33	68
600.115848686	128	82	64
600.124156741	144	82	125
600.132272201	128	33	64
600.161601316	144	86	87
600.185635251	144	35	86
600.187733053	144	33	74
600.198722044	128	82	64
600.201440233	128	86	64
600.252717005	144	82	15
600.302664571	128	82	64
600.30273812	144	82	58
600.330207949	128	35	64
600.358121896	128	33	64
600.358427265	144	33	67
600.383950118	128	82	64
600.384034127	144	82	93
600.38649887	144	108	125
600.427156262	144	86	89
600.42938281	128	108	64
600.458803827	128	33	64
600.464254417	144	33	74
600.469260521	128	86	64
600.471793592	128	82	64
600.471871394	144	82	125
600.548960702	128	82	64
600.56352225	128	33	64
600.619452267	144	35	87
600.635256438	144	33	65
600.698499092	128	33	64
600.719229683	144	33	75
600.81499798	128	35	64
600.847593997	128	29	64
600.863352157	128	33	64
600.887324363	144	33	63
600.979910792	128	33	64
601.006318138	144	82	56
601.008104744	128	82	64
601.008141109	144	82	88
601.037575072	144	33	76
601.115027858	128	82	64
601.120468726	144	82	122
601.181845001	128	82	64
601.187149622	144	68	61
601.189970448	128	33	64
601.190334305	144	33	64
601.205857819	128	68	64
601.205905108	144	68	65
601.256835699	128	68	64
601.256928452	144	68	68
601.281819408	128	33	64
601.30905354	144	33	74
601.333124308	128	68	64
601.34160039	144	68	66
601.351745033	144	82	20
601.356306943	128	68	64
601.356365254	144	68	74
601.402262607	128	82	64
601.402338145	144	82	60
601.415199262	128	33	64
601.45243016	144	33	64
601.454519336	128	82	64
601.454573149	144	82	94
601.49894911	128	68	64
601.499022034	144	68	68
601.526360227	144	86	87
601.530565216	128	33	64
601.534042378	128	82	64
601.534127227	144	82	124
601.547613805	128	86	64
601.580507311	128	68	64
601.600527938	144	68	70
601.615171005	128	82	64
601.634735902	128	68	64
601.635190794	144	68	76
601.713722233	128	68	64
601.721140081	144	68	71
601.796893649	128	68	64
601.8155288	144	82	24
601.817417148	144	68	72
601.865561152	128	82	64
601.865686827	144	82	62
601.869465913	144	35	86
601.901326963	128	68	64
601.901397051	144	68	78
601.911008489	128	82	64
601.911059829	144	82	96
601.93144154	128	68	64
601.936915186	144	68	73
601.948739449	144	33	74
601.968412519	128	82	64
601.96848186	144	82	126
601.97995299	128	68	64
602.020324906	144	68	81
602.048601022	128	68	64
602.048693206	144	68	87
602.082364381	128	82	64
602.101288297	128	33	64
602.101618211	128	68	64
602.101721089	144	68	77
602.163837078	128	68	64
602.18733511	144	82	22
602.202424998	144	68	82
602.22701812	128	82	64
602.227096904	144	82	60
602.231591794	128	68	64
602.231668922	144	68	83
602.290013586	128	82	64
602.290094905	144	82	96
602.298177526	128	68	64
602.298475365	144	68	75
602.34770715	128	34	64
602.364264314	128	68	64
602.366451585	128	82	64
602.382900931	144	68	79
602.390337132	144	82	125
602.418004024	144	34	127
602.432296961	128	82	64
602.435520478	128	68	64
602.435605484	144	68	75
602.497424431	128	68	64
602.503822201	144	68	73
602.514414394	128	34	64
602.564003699	128	68	64
602.602814172	144	34	127
602.618199591	144	68	77
602.637676837	128	68	64
602.638080635	144	68	74
602.697360377	128	68	64
602.698527085	144	33	70
602.70951975	144	68	65
602.722869952	144	108	127
602.723114643	144	82	91
602.726756888	128	82	64
602.730282582	128	68	64
602.7518625	144	86	86
602.752137183	128	86	64
602.75443475	128	34	64
602.756281234	128	108	64
602.774746906	144	82	122
602.784325682	144	68	76
602.788678139	128	33	64
602.811463377	144	33	77
602.832755434	128	68	64
602.832864159	144	68	76
602.833926829	128	82	64
602.879943267	128	68	64
602.888259186	144	86	88
602.900187082	144	68	72
602.903736647	144	82	89
602.946641146	128	68	64
602.949823435	128	82	64
602.955136435	128	86	64
602.972284799	128	33	64
602.998245179	128	35	64
602.999195053	144	68	83
603.003579958	144	82	124
603.020571658	128	68	64
603.020680218	144	68	86
603.0329913	128	82	64
603.087744182	144	82	89
603.096641828	128	68	64
603.125994115	144	68	77
603.133309147	128	82	64
603.146521954	128	68	64
603.172086113	144	82	122
603.199571989	144	68	87
603.234377908	128	82	64
603.239103702	128	68	64
603.239170875	144	68	89
603.253289746	144	82	86
603.28488596	128	68	64
603.28718877	144	68	74
603.299794241	128	82	64
603.330544738	128	68	64
603.370356476	144	82	123
603.384552299	144	68	84
603.39905634	128	68	64
603.39910609	144	68	88
603.399567359	128	82	64
603.437827524	144	82	88
603.463847935	128	68	64
603.465343797	144	33	74
603.466395131	128	82	64
603.477511907	128	33	64
603.484499568	144	68	74
603.496914935	128	68	64
603.519365623	144	82	124
603.566797511	128	82	64
603.585745287	144	82	85
603.633059267	128	82	64
603.68594276	144	82	123
603.733518573	128	82	64
603.769136796	144	82	87
603.79385628	144	34	127
603.816519421	128	82	64
603.84923323	128	34	64
603.852747969	144	82	123
603.900103879	128	82	64
603.91940923	144	82	93
603.948678682	144	33	78
603.98309651	128	82	64
603.999363434	144	86	90
604.007508489	144	68	77
604.02296103	144	82	123
604.033937196	128	86	64
604.0368338	128	68	64
604.03690604	144	68	75
604.08515777	128	82	64
604.085404342	128	68	64
604.085468834	144	68	75
604.090101013	144	82	86
604.093257621	128	33	64
604.151470957	128	82	64
604.179562079	128	68	64
604.199765694	144	68	78
604.20442754	144	82	125
604.250418456	128	82	64
604.252267584	128	68	64
604.252323334	144	68	80
604.271980906	144	82	89
604.280543374	128	68	64
604.318401081	144	68	74
604.333756	128	82	64
604.340378752	144	82	125
604.343420843	144	35	82
604.380033011	128	68	64
604.400120463	128	82	64
604.417522821	144	68	86
604.465400559	128	68	64
604.465460392	144	68	88
604.513457528	128	68	64
604.534651422	144	68	76
604.5480994	128	35	64
604.56584648	128	68	64
604.649202251	144	68	86
604.663792986	128	68	64
604.851840861	144	33	78
604.927507617	144	34	66
604.966219737	128	33	64
604.98785794	144	108	125
605.005104678	144	82	110
605.022988911	144	86	87
605.024362176	128	108	64
605.067366211	144	68	77
605.06930874	128	82	64
605.083570709	128	68	64
605.084056491	128	86	64
605.10670958	144	68	70
605.112169717	144	82	91
605.134467042	128	82	64
605.148928023	128	68	64
605.187685659	144	68	83
605.247630624	128	68	64
605.267477091	144	68	73
605.313984459	128	68	64
605.331864808	144	86	89
605.351123154	144	68	85
605.355364585	144	35	81
605.371692207	128	86	64
605.372310907	144	82	108
605.397493603	128	68	64
605.401669395	128	98	64
605.418626329	144	68	72
605.436942519	128	82	64
605.440269446	128	35	64
605.46333887	128	68	64
605.500774622	144	68	96
605.516139404	128	68	64
605.575334423	144	82	108
605.638288058	128	82	64
605.725840779	144	82	106
605.765752808	144	33	79
605.787829189	128	82	64
605.859832341	144	82	105
605.86639775	128	33	64
605.902869132	128	82	64
605.989498622	144	82	104
606.035035514	128	82	64
606.048863794	144	68	79
606.073723881	128	68	64
606.078441895	144	68	68
606.1082854	144	82	103
606.132886792	128	68	64
606.153452273	128	82	64
606.156730622	144	68	82
606.214261016	128	68	64
606.221383353	144	82	102
606.234489755	144	68	74
606.268524357	128	82	64
606.280584187	128	68	64
606.347887338	128	34	64
606.372893959	144	82	99
606.415018334	144	35	82
606.418653774	128	82	64
606.418945239	144	34	123
606.48309291	128	34	64
606.506850072	144	82	99
606.534752082	128	82	64
606.540689954	128	35	64
606.567983649	144	68	63
606.582575901	128	68	64
606.605772605	144	82	98
606.643845316	144	68	70
606.669260637	128	82	64
606.697165366	128	68	64
606.710932441	144	86	89
606.739255335	144	82	98
606.766285352	128	86	64
606.799634326	144	33	76
606.818892783	128	82	64
606.840346474	144	82	77
606.88313779	128	33	64
606.885299094	128	82	64
606.923670142	144	82	95
606.967360749	144	68	74
606.98505297	128	82	64
607.0072786	144	82	78
607.034393882	128	68	64
607.034553528	144	68	73
607.035354219	128	82	64
607.090310492	144	82	93
607.116269998	128	68	64
607.188567041	128	82	64
607.22571613	144	82	96
607.274082402	128	82	64
607.274159227	144	82	79
607.301953857	128	82	64
607.336239124	144	35	82
607.375274158	128	35	64
607.389298636	144	82	94
607.435440949	128	82	64
607.543745469	144	82	92
607.585011302	128	82	64
607.670574471	144	82	92
607.700060795	144	33	74
607.719264122	128	82	64
607.765979235	128	33	64
607.769831686	144	86	89
607.789162229	144	82	92
607.848710616	128	86	64
607.851527588	128	82	64
607.920914997	144	82	92
607.959849578	144	34	26
607.985280938	128	82	64
608.055529894	144	82	91
608.069083861	144	86	90
608.070466109	128	34	64
608.103983838	128	82	64
608.129016509	144	35	82
608.137706307	128	86	64
608.173462761	144	82	90
608.22416474	128	35	64
608.237096847	128	82	64
608.309038299	144	82	91
608.370571247	128	82	64
608.450890189	144	82	91
608.49219621	144	34	41
608.500017519	144	33	73
608.50223	128	82	64
608.550258528	128	33	64
608.571820967	144	82	90
608.594702785	128	34	64
608.619956659	128	82	64
608.722596386	144	82	92
608.786562656	128	82	64
608.860315609	144	82	91
608.919674805	144	35	82
608.920575252	128	82	64
608.990375154	128	35	64
609.007983223	144	82	92
609.054340621	128	82	64
609.140774512	144	82	91
609.20398928	128	82	64
609.226431779	144	34	55
609.273749857	144	82	93
609.299796031	144	33	76
609.329764315	128	34	64
609.337703846	128	82	64
609.365844382	128	33	64
609.40728585	144	82	93
609.471062818	128	82	64
609.557253082	144	82	93
609.558806829	144	86	94
609.616278357	128	86	64
609.622769344	128	82	64
609.637026835	144	35	82
609.690489591	128	35	64
609.692023293	144	36	47
609.692706367	144	82	93
609.712147625	128	36	64
609.731995749	144	36	14
609.742314031	144	34	56
609.75449803	128	82	64
609.761165736	128	36	64
609.814253236	144	36	47
609.84153495	144	82	94
609.848517793	128	36	64
609.85310381	144	36	12
609.876193714	128	36	64
609.887835719	128	34	64
609.904146647	128	82	64
609.908099678	144	36	48
609.962207069	128	36	64
609.974079118	144	82	94
609.998379781	144	36	14
609.999967211	144	33	76
610.036888172	128	82	64
610.038123957	128	36	64
610.042775815	144	36	50
610.079179527	128	36	64
610.08258327	128	33	64
610.106079026	144	36	14
610.124409783	144	82	94
610.127017805	128	36	64
610.169770377	128	82	64
610.179535111	144	36	46
610.22662842	128	36	64
610.228762184	144	36	17
610.258264486	144	82	95
610.261201301	128	36	64
610.302435008	144	36	48
610.321438015	128	82	64
610.329223129	128	36	64
610.355148668	144	35	82
610.357688711	144	36	20
610.393031562	144	82	95
610.420301353	128	36	64
610.423728788	128	35	64
610.424248288	144	36	49
610.42710786	144	34	57
610.45490599	128	82	64
610.479351276	128	36	64
610.514595069	128	34	64
610.543305588	144	82	95
610.555372935	144	36	62
610.604625878	128	82	64
610.623373456	128	36	64
610.623452957	144	36	29
610.658747193	128	36	64
610.675058002	144	82	96
610.710437269	144	36	63
610.732722381	144	33	79
610.737808523	128	82	64
610.771990509	128	36	64
610.776159068	144	36	32
610.79570867	128	36	64
610.807428915	144	82	95
610.823579549	144	36	66
610.832134116	128	33	64
610.847659024	144	68	51
610.848868102	128	68	64
610.860947294	144	86	93
610.870281911	128	82	64
610.901526189	128	36	64
610.905173253	144	36	35
610.932271094	128	86	64
610.94560315	128	36	64
610.958295855	144	82	95
610.971619272	144	36	80
611.004108029	128	82	64
611.045783844	128	36	64
611.048489254	144	36	48
611.060113823	144	34	59
611.09031207	144	82	94
611.095736839	128	36	64
611.122715734	144	36	82
611.136414656	144	68	46
611.153285249	128	82	64
611.153719773	144	35	82
611.163720124	144	86	95
611.164622239	128	34	64
611.188716848	128	36	64
611.191939341	144	36	55
611.198670064	128	68	64
611.200877846	128	86	64
611.224886224	144	82	95
611.241598116	128	35	64
611.24541747	128	36	64
611.265125675	144	36	87
611.288521747	128	82	64
611.336595388	128	36	64
611.336668405	144	36	56
611.358064231	144	82	95
611.395069599	128	36	64
611.422692662	144	36	93
611.423886999	128	82	64
611.485186573	144	68	49
611.492988493	144	82	95
611.494693199	128	36	64
611.494731218	144	36	68
611.532667385	144	33	78
611.555024542	128	82	64
611.559244955	128	36	64
611.586822901	128	33	64
611.615433639	144	36	95
611.626001197	144	82	95
611.689188561	128	82	64
611.69021846	128	36	64
611.690268035	144	36	66
611.757921936	128	36	64
611.77794585	144	82	95
611.812953864	144	36	99
611.838409015	128	82	64
611.861926431	144	34	63
611.868070539	128	36	64
611.868139858	144	36	76
611.928015923	128	36	64
611.92825561	144	82	95
611.947904835	128	68	64
611.970275074	128	82	64
611.97443121	144	36	103
612.019987266	144	35	82
612.052971545	128	36	64
612.053040289	144	36	82
612.055462974	144	82	94
612.074375979	128	34	64
612.098674997	144	108	119
612.104033334	128	82	64
612.10719347	128	35	64
612.126456307	128	36	64
612.145135486	128	108	64
612.178420717	144	36	89
612.189400044	144	82	93
612.253966639	128	82	64
612.257357321	128	36	64
612.257423051	144	36	48
612.285275785	144	68	53
612.317482779	144	33	79
612.328040382	144	82	93
612.328157514	128	36	64
612.366238747	128	68	64
612.382849195	128	33	64
612.387630552	128	82	64
612.481750313	144	82	93
612.490194102	144	34	61
612.539202067	128	82	64
612.625548926	144	82	93
612.672334349	128	82	64
612.721911553	128	34	64
612.759179532	144	82	94
612.760734854	144	86	92
612.801439191	128	86	64
612.822406498	128	82	64
612.833102956	144	33	88
612.846388862	128	33	64
612.886052915	144	35	82
612.892175852	144	82	93
612.934746005	144	108	120
612.958331038	128	108	64
612.958806167	128	82	64
613.029966642	128	35	64
613.030197766	144	82	94
613.089192618	128	82	64
613.150882538	144	36	44
613.163857087	144	82	93
613.201072166	144	68	71
613.208524169	128	68	64
613.222793853	128	82	64
613.246114591	128	36	64
613.261084585	144	68	74
613.304220909	144	36	48
613.31743141	144	82	95
613.348984948	128	68	64
613.37274419	128	82	64
613.375683627	128	36	64
613.442392565	144	82	96
613.44711121	144	33	79
613.46029853	144	36	53
613.488881707	128	82	64
613.541596505	128	36	64
613.55040929	128	33	64
613.558013763	144	82	98
613.619929747	144	68	63
613.621663797	128	82	64
613.626757217	144	34	63
613.709576453	144	82	97
613.736858591	144	108	123
613.755741408	128	82	64
613.781109097	128	108	64
613.803505664	144	35	83
613.810925766	128	68	64
613.839004409	128	34	64
613.842669758	144	82	95
613.906224011	128	82	64
613.910232673	128	35	64
613.976379083	144	82	94
614.03095367	144	68	68
614.038681464	128	82	64
614.041863413	144	36	49
614.095604144	128	36	64
614.109148238	144	82	96
614.15949179	144	86	89
614.172809235	128	82	64
614.183066589	144	36	50
614.231235057	128	36	64
614.24126173	144	33	79
614.250385317	128	86	64
614.257720772	144	82	97
614.288374922	144	36	53
614.321932893	128	82	64
614.332844272	128	33	64
614.343235255	128	68	64
614.359836033	128	36	64
614.407553772	144	82	99
614.44017701	144	36	70
614.456024665	128	82	64
614.477752938	144	86	89
614.491875614	144	68	54
614.517581358	128	86	64
614.522725035	128	36	64
614.522781703	144	36	44
614.546177787	144	82	99
614.579376352	144	35	83
614.605606533	128	82	64
614.614092638	144	108	123
614.614442281	128	36	64
614.61871192	144	36	41
614.633102324	144	34	62
614.642278744	128	108	64
614.676835543	128	36	64
614.682610952	144	82	98
614.690980481	128	35	64
614.700840484	144	36	80
614.740111365	128	82	64
614.74475426	128	36	64
614.758970622	128	68	64
614.778630728	144	36	37
614.817949216	144	82	98
614.864616261	128	34	64
614.87342009	128	82	64
614.922822112	128	36	64
614.922882717	144	36	21
614.943349082	144	82	98
615.006958579	128	82	64
615.010226257	128	36	64
615.010282125	144	36	30
615.033238281	144	33	78
615.076257615	128	36	64
615.093403811	144	82	97
615.136018278	128	33	64
615.143772736	144	36	53
615.157751951	128	82	64
615.182300665	128	36	64
615.182370138	144	36	29
615.227254146	144	82	96
615.260704484	128	36	64
615.286543935	144	36	67
615.290218669	128	82	64
615.35831634	128	36	64
615.358390674	144	36	58
615.360076566	144	82	96
615.392134416	128	36	64
615.401792227	144	68	65
615.424298658	128	82	64
615.444968249	144	34	52
615.448838752	144	36	87
615.452672214	128	68	64
615.505185282	144	108	123
615.512174468	144	82	99
615.513526216	128	108	64
615.513921687	144	35	82
615.515336229	128	36	64
615.539868678	144	68	71
615.541394209	144	36	66
615.547763336	128	34	64
615.572786177	128	36	64
615.573892691	128	82	64
615.590671304	128	35	64
615.606281525	144	36	87
615.644414719	144	82	97
615.673274494	128	36	64
615.673342751	144	36	59
615.707555617	128	82	64
615.708313357	128	36	64
615.762693064	144	36	93
615.793868238	144	82	98
615.815987691	128	36	64
615.818700131	144	36	64
615.834228173	128	68	64
615.844282728	128	36	64
615.857443202	128	82	64
615.886866997	144	34	123
615.891388295	144	33	79
615.89333378	144	36	95
615.947430236	144	82	95
615.968199666	128	36	64
615.975035369	144	36	67
615.978758846	128	36	64
615.979065789	144	68	63
615.983920213	128	33	64
616.004110845	144	36	98
616.007325546	128	82	64
616.03269143	128	34	64
616.05052751	128	68	64
616.077415825	144	82	96
616.078024936	144	86	89
616.086063971	128	36	64
616.086125137	144	36	71
616.118574629	128	86	64
616.126144825	128	36	64
616.141014919	128	82	64
616.159074629	144	36	107
616.211011746	144	82	95
616.237075856	128	36	64
616.237147926	144	36	80
616.274197904	128	82	64
616.274402953	128	36	64
616.319032186	144	68	57
616.326205239	144	36	102
616.354840399	144	35	83
616.36188532	144	82	95
616.363644375	128	36	64
616.383666301	144	36	81
616.386745681	144	108	121
616.424512299	128	82	64
616.424643928	128	36	64
616.425215185	128	108	64
616.440226729	128	35	64
616.480949812	144	36	92
616.494496652	144	82	97
616.509058571	128	36	64
616.545908458	144	36	79
616.557816197	128	82	64
616.567864941	128	36	64
616.607847636	144	36	99
616.612801775	144	82	97
616.645668141	128	36	64
616.666761749	144	36	85
616.673226014	128	82	64
616.678134223	144	34	53
616.695237894	128	36	64
616.737608087	128	68	64
616.744057723	144	82	97
616.747586869	128	34	64
616.751691885	144	36	106
616.778442864	128	36	64
616.793734886	144	33	79
616.806651356	128	82	64
616.808072909	144	36	92
616.830136351	144	68	57
616.85738197	128	36	64
616.864429569	144	36	106
616.877918552	144	82	97
616.899581596	128	36	64
616.929615719	144	67	81
616.938315428	128	33	64
616.941115961	128	82	64
616.947225917	144	36	90
616.959148086	128	67	64
616.97417635	128	36	64
617.011154709	144	82	95
617.032286699	144	36	114
617.075070166	128	82	64
617.128866077	128	36	64
617.163467229	144	82	93
617.193721423	144	34	125
617.19854826	144	36	93
617.225113316	128	82	64
617.264068658	128	34	64
617.27921849	128	36	64
617.283634596	144	36	106
617.294637172	144	82	95
617.313943953	144	35	83
617.317644139	144	108	123
617.324411173	128	36	64
617.341661572	128	108	64
617.357930959	128	82	64
617.359058697	128	68	64
617.377915001	144	36	86
617.413560223	128	36	64
617.426783342	144	82	94
617.430955651	144	36	104
617.456605122	128	35	64
617.483744212	128	36	64
617.490577969	128	82	64
617.507224394	144	36	89
617.562333066	128	36	64
617.578054372	144	82	95
617.609324596	144	36	103
617.644579089	128	82	64
617.663689022	128	36	64
617.665536203	144	33	79
617.681048759	144	36	93
617.697044505	144	82	96
617.710377376	144	86	100
617.736355654	128	33	64
617.757465404	128	82	64
617.768569034	128	86	64
617.77607753	128	36	64
617.799845969	144	67	84
617.839431258	144	36	101
617.844912434	144	82	97
617.847865381	128	67	64
617.907557009	128	82	64
617.916628992	128	36	64
617.936827142	144	36	71
617.995080656	144	82	95
617.995412441	128	36	64
618.010532213	144	34	43
618.027082719	144	86	98
618.04191137	144	36	86
618.056853099	128	82	64
618.069351346	128	86	64
618.080665441	128	34	64
618.101699987	128	36	64
618.101762819	144	36	50
618.112937933	144	82	95
618.161862082	144	35	83
618.191150054	128	82	64
618.211941702	144	108	122
618.260109681	128	108	64
618.261930488	144	82	95
618.26652872	128	36	64
618.308864287	128	82	64
618.322389876	144	36	95
618.329601217	128	35	64
618.377614919	144	82	98
618.384843419	128	36	64
618.391996948	144	36	75
618.424561679	128	36	64
618.43619336	144	34	121
618.440485026	128	82	64
618.482034579	144	36	112
618.523926502	144	82	99
618.531414985	128	34	64
618.567565253	128	36	64
618.571334145	144	36	94
618.573883996	128	82	64
618.598874319	144	33	79
618.64432274	144	67	84
618.644509409	144	82	99
618.671615042	128	36	64
618.684279148	128	33	64
618.68817333	144	36	86
618.699211189	128	67	64
618.706516555	128	82	64
618.776607925	144	82	93
618.790840903	128	36	64
618.794430671	144	36	64
618.82457996	128	82	64
618.84331894	128	36	64
618.919432832	144	36	124
618.959053981	128	36	64
619.010166946	144	36	97
619.067346204	128	36	64
619.076984524	144	36	95
619.086676813	144	50	97
619.110040555	144	34	84
619.137959623	144	108	122
619.1583988	128	108	64
619.170395956	144	35	84
619.198148785	128	34	64
619.216491567	128	36	64
619.216561939	144	36	95
619.309347495	128	36	64
619.324177275	128	35	64
619.370387344	144	36	86
619.4419161	128	36	64
619.467235564	144	36	90
619.510238122	128	36	64
619.56733839	144	36	115
619.578536055	144	67	85
619.607632005	128	36	64
619.617083023	144	33	79
619.634007952	128	67	64
619.640846573	144	36	96
619.683609339	128	33	64
619.70294804	128	36	64
619.73621094	144	36	91
619.933823629	128	36	64
619.935406687	144	36	105
619.992397119	128	36	64
620.05843546	144	36	127
620.10298573	144	35	84
620.126401426	128	36	64
620.136367919	144	108	123
620.143784429	128	108	64
620.15079662	144	36	101
620.190670232	128	35	64
620.228793014	128	36	64
620.288308438	144	36	121
620.366900422	128	36	64
620.371068662	144	36	91
620.424846045	128	36	64
620.466921312	144	36	125
620.536521837	128	36	64
620.536590934	144	36	105
620.564878436	144	67	84
620.57713065	144	34	97
620.594560898	128	36	64
620.595414494	144	86	93
620.601305574	128	67	64
620.610604615	144	68	42
620.617385639	144	33	78
620.635085973	128	86	64
620.647528089	128	34	64
620.650723575	144	36	118
620.667142503	128	33	64
620.731280113	144	82	72
620.732735335	128	36	64
620.732770462	144	36	71
620.757486951	128	36	64
620.767222753	128	82	64
620.80248131	144	82	43
620.843690505	128	68	64
620.90226371	144	36	49
620.924782446	128	36	64
620.926904795	144	34	57
620.953348336	144	35	84
620.978781798	144	36	75
620.98087569	128	34	64
621.041842018	128	35	64
621.050363087	128	36	64
621.050409789	144	36	45
621.135767136	144	108	123
621.14509357	128	36	64
621.157228384	128	108	64
621.209030878	128	50	64
621.248028352	128	82	64
621.269107372	144	50	97
621.289871593	144	36	89
621.329307141	128	36	64
621.389689823	128	42	64
621.434806439	144	36	56
621.541234911	144	33	79
621.543899733	128	36	64
621.61852918	144	36	69
621.629609268	144	67	83
621.667549145	128	67	64
621.68688839	128	33	64
621.695506327	128	36	64
621.799788829	144	36	51
621.852085541	144	35	84
621.878782948	128	36	64
621.941130217	128	35	64
621.953756943	144	36	53
622.025318577	128	36	64
622.02888594	144	34	91
622.080753628	128	34	64
622.116437012	144	36	52
622.161783395	128	36	64
622.234480582	144	36	52
622.296337846	128	36	64
622.383256028	144	36	52
622.462246172	128	36	64
622.522857209	144	36	47
622.550524843	144	33	78
622.558001735	144	67	82
622.609710828	128	36	64
622.61703264	128	33	64
622.61908697	128	67	64
622.632809287	144	82	125
622.673145073	144	36	50
622.685438156	128	82	64
622.689718624	144	82	120
622.776205159	128	36	64
622.794352677	144	34	49
622.839372081	128	68	64
622.85716429	144	36	49
622.868481736	144	35	81
622.945352284	128	36	64
622.976278051	128	35	64
623.003939038	144	36	47
623.030323227	144	108	124
623.037932494	128	34	64
623.05816345	128	108	64
623.09141901	128	36	64
623.171436564	144	36	47
623.28887922	144	34	43
623.294576499	144	86	100
623.334033492	128	86	64
623.381477363	128	34	64
623.417635473	128	36	64
623.474882509	144	36	44
623.576562023	128	36	64
623.582431061	144	33	79
623.612479726	144	86	99
623.626027389	144	36	44
623.654095745	128	86	64
623.676438809	144	34	85
623.686611331	128	33	64
623.765280016	128	34	64
623.79228597	128	82	64
623.834489123	128	36	64
623.857687877	144	36	42
623.96966456	144	35	80
624.077550788	128	35	64
624.214987556	128	50	64
624.267096796	144	82	121
624.298910735	128	82	64
624.326346519	144	82	123
624.326911859	144	34	102
624.33525811	144	50	76
624.38095969	128	34	64
624.499503603	144	33	79
624.601066123	128	33	64
625.08280902	144	34	53
625.1481544	128	34	64
625.253672803	128	36	64
625.316050929	144	108	123
625.336815198	144	36	56
625.344618845	128	108	64
625.350291935	128	82	64
625.429799688	128	36	64
625.569960593	144	35	81
625.574981227	144	36	50
625.659432636	128	36	64
625.684080666	144	33	78
625.732651912	128	35	64
625.754521532	144	82	113
625.766906256	128	33	64
625.788445517	128	82	64
625.794393317	144	82	117
625.804357914	144	36	52
625.860157466	128	36	64
625.911323254	144	86	99
625.935839677	128	86	64
626.007882011	144	36	51
626.093232008	128	36	64
626.148643838	144	34	52
626.246104477	128	34	64
626.248115166	144	36	56
626.401079874	128	36	64
626.558648609	144	36	53
626.613303796	128	36	64
626.617852555	128	82	64
626.654890911	144	108	120
626.672381975	144	36	51
626.676839218	128	108	64
626.699867005	144	33	81
626.771206404	128	33	64
626.816387998	128	36	64
626.861027194	128	50	64
626.885655192	144	36	50
626.942745665	128	36	64
626.99138876	144	50	62
627.022702886	144	36	49
627.086677598	144	35	81
627.094231318	144	82	127
627.11918337	128	82	64
627.11924789	144	82	119
627.168070849	128	36	64
627.17711873	144	34	61
627.191382377	128	35	64
627.223604588	144	36	48
627.230872359	128	34	64
627.244325078	128	36	64
627.458011174	144	106	44
627.491702785	144	36	48
627.701273502	144	33	79
627.750287964	128	82	64
627.767717996	128	33	64
627.801172525	128	36	64
627.903477797	128	106	64
627.988413824	144	86	97
627.992221215	144	106	70
628.015254323	144	108	120
628.017382419	128	86	64
628.048776679	144	82	118
628.060347125	128	108	64
628.088213836	128	82	64
628.091402405	144	82	114
628.12399375	144	36	48
628.260239414	144	34	62
628.269755754	144	35	81
628.294757466	144	86	97
628.313772469	128	86	64
628.31499893	128	34	64
628.361910975	128	106	64
628.432278415	128	35	64
628.468310893	128	36	64
628.468563014	128	82	64
628.511292358	144	106	69
628.730081596	144	82	121
628.766415915	144	33	76
628.77483397	144	36	50
628.781856076	128	82	64
628.803805146	144	82	101
628.814018847	144	67	77
628.867847826	128	33	64
628.894192959	128	67	64
629.003880983	128	106	64
629.075433155	144	106	72
629.104303013	128	36	64
629.240923745	128	82	64
629.244562501	144	35	81
629.372943595	144	108	122
629.393953241	128	108	64
629.398864516	128	35	64
629.403803043	144	67	79
629.418568892	128	67	64
629.424432272	144	36	54
629.465883639	128	50	64
629.479679021	144	82	127
629.49356213	144	34	63
629.535942386	128	82	64
629.547775958	128	34	64
629.549852109	144	82	112
629.62315566	144	50	43
629.801564994	128	36	64
629.919726371	128	82	64
629.953705246	144	33	75
630.036386351	128	33	64
630.108585366	144	36	55
630.157259792	144	108	125
630.192580992	128	108	64
630.211971768	144	82	120
630.260073293	128	82	64
630.260132497	144	82	115
630.354727399	144	35	82
630.402760221	144	34	64
630.424247239	128	35	64
630.444284193	128	36	64
630.506542941	144	67	52
630.640421262	128	67	64
630.65311182	128	82	64
630.775652625	144	36	54
630.79698091	128	106	64
630.805055733	144	108	121
630.826155153	128	108	64
630.999651131	144	33	76
631.023596756	144	82	127
631.068589722	128	82	64
631.068679473	144	82	119
631.085511013	128	33	64
631.163065922	144	106	70
631.20185496	128	106	64
631.303703752	128	36	64
631.346772566	144	106	48
631.400607506	128	106	64
631.471956973	144	106	72
631.473425245	144	35	81
631.487919876	144	108	123
631.489622167	144	67	49
631.503335735	128	82	64
631.509762513	128	108	64
631.569457434	128	106	64
631.574474708	128	35	64
631.622640804	128	67	64
631.631078266	144	86	102
631.631470805	128	86	64
631.654117797	144	106	65
631.695219068	144	36	54
631.829291049	144	82	116
631.889254499	128	82	64
631.889327233	144	82	108
631.908284863	128	106	64
631.989704238	144	106	86
631.989823403	128	34	64
632.034631006	144	33	76
632.070398741	144	34	83
632.089325302	128	36	64
632.114343242	128	34	64
632.118793159	128	33	64
632.176417349	128	106	64
632.238299693	144	106	110
632.337020359	128	82	64
632.346766737	128	50	64
632.36519678	144	108	122
632.409465273	128	106	64
632.411483536	128	108	64
632.443049142	144	36	55
632.452217664	144	35	81
632.472566549	144	106	115
632.4825141	144	50	87
632.62723568	144	82	119
632.654011779	144	67	42
632.679145704	128	82	64
632.679232349	144	82	103
632.69322544	128	106	64
632.805302845	144	106	54
632.848942426	128	67	64
632.849011419	144	67	69
632.851719847	128	36	64
632.865906091	128	35	64
632.927216932	144	34	73
632.96633269	128	34	64
633.051755557	144	33	77
633.138261812	128	82	64
633.209736134	144	108	122
633.212090097	128	33	64
633.212583705	128	106	64
633.216133019	128	108	64
633.276776481	144	36	56
633.292188433	144	106	36
633.437039438	144	35	78
633.455093116	144	82	116
633.472894688	128	82	64
633.472965477	144	82	114
633.59382291	128	36	64
633.621646432	128	106	64
633.726785449	144	106	38
633.826951109	144	34	67
633.951386658	144	36	56
634.022380579	128	82	64
634.03752761	128	106	64
634.043921143	144	33	77
634.148418202	144	108	117
634.149078147	128	67	64
634.149129231	144	67	64
634.17215366	128	34	64
634.193323209	128	33	64
634.194582598	128	108	64
634.194845933	144	86	98
634.218830709	144	34	108
634.26341358	128	34	64
634.265679195	128	86	64
634.289312741	144	82	116
634.317187962	128	82	64
634.32349628	144	82	112
634.384630011	128	36	64
634.510543494	144	86	98
634.51629598	128	106	64
634.533623195	128	86	64
634.684918849	128	82	64
634.741943271	144	36	57
634.789141366	128	67	64
634.789202228	144	67	63
634.815414095	128	35	64
634.914889398	128	50	64
634.959700118	144	34	64
635.021334357	144	108	117
635.022622963	144	82	104
635.029561232	128	82	64
635.031215857	128	34	64
635.043429983	128	108	64
635.06550565	144	50	47
635.093624232	144	82	99
635.147547512	144	108	118
635.178001675	128	108	64
635.186790832	144	35	81
635.226739068	144	34	97
635.298211476	128	34	64
635.300720658	144	33	77
635.402467952	128	33	64
635.574177503	128	82	64
635.795170518	144	108	117
635.823868771	128	108	64
635.82394263	144	108	108
635.828115658	128	108	64
636.257803554	144	82	69
636.275682875	128	82	64
636.275755556	144	82	120
636.316007367	128	35	64
636.318047967	144	33	78
636.365662012	128	82	64
636.365745851	144	82	98
636.385808321	128	33	64
636.456322946	128	82	64
636.612910072	144	35	78
636.659599962	128	67	64
636.659660371	144	67	49
636.691509403	128	35	64
636.727678403	144	34	113
636.835580353	128	34	64
636.888621752	144	108	116
636.909021835	128	108	64
636.920244154	144	82	100
636.969997891	128	82	64
636.976687556	128	67	64
636.97674074	144	67	49
637.001715322	144	82	100
637.018338752	128	36	64
637.085890081	128	82	64
637.098742324	144	82	108
637.168081774	128	82	64
637.175336862	144	36	58
637.209813973	144	82	92
637.294302283	144	34	56
637.335960378	128	67	64
637.336023268	144	67	48
637.380679006	128	34	64
637.490384718	128	82	64
637.58593351	144	33	111
637.625821663	128	33	64
637.645696734	144	82	80
637.702905801	128	82	64
637.702981904	144	82	110
637.72284212	144	108	118
637.728552182	128	108	64
637.733871405	144	41	15
637.78871312	128	82	64
637.802378562	144	35	78
637.831041379	144	82	91
637.869449338	128	36	64
638.006769601	128	82	64
638.060054863	144	36	56
638.143024712	128	50	64
638.176891803	144	34	1
638.298431688	144	82	103
638.322434314	144	50	58
638.346883912	128	82	64
638.346936986	144	82	114
638.367993923	128	36	64
638.455591701	128	82	64
638.472807393	144	82	89
638.488501108	144	108	118
638.492781382	128	67	64
638.492836903	144	67	70
638.501626429	144	33	114
638.50943973	128	108	64
638.509477982	144	108	103
638.521733044	128	33	64
638.524088611	128	108	64
638.573779927	128	82	64
638.590870165	144	82	83
638.689071888	128	82	64
638.899471154	128	35	64
638.981355856	144	36	107
639.044289267	144	35	78
639.04825253	144	82	99
639.107804604	128	35	64
639.118422478	128	41	64
639.154624434	128	82	64
639.179910856	144	82	108
639.28615247	128	82	64
639.312751597	144	82	104
639.385278148	128	82	64
639.430511934	144	82	84
639.485262242	144	86	97
639.520077016	144	108	122
639.534005323	128	86	64
639.535041118	144	33	120
639.553830506	128	33	64
639.559635388	128	108	64
639.670527671	144	35	78
639.689515817	144	74	52
639.752691656	128	74	64
639.757670453	128	82	64
639.800218716	144	92	104
639.937974658	144	74	55
639.947910857	144	82	99
639.985434969	128	74	64
640.020746353	128	82	64
640.076195988	144	82	118
640.087146349	128	82	64
640.089678721	144	74	53
640.124143927	128	92	64
640.146743921	144	82	113
640.233819116	128	74	64
640.261508888	144	92	69
640.269939996	128	82	64
640.272583708	144	82	81
640.286834055	144	41	113
640.307605252	128	92	64
640.33200124	144	74	62
640.366343654	144	33	127
640.402976936	128	33	64
640.433130098	128	35	64
640.457969824	144	92	72
640.475997474	128	74	64
640.513080471	128	92	64
640.577627305	144	35	78
640.585210973	144	74	66
640.587137387	144	108	120
640.589003206	128	86	64
640.610147918	128	108	64
640.618230778	144	92	48
640.657619705	128	35	64
640.672303113	128	92	64
640.684036402	128	82	64
640.696750767	128	67	64
640.696824752	144	67	87
640.7622793	128	41	64
640.765866844	144	92	44
640.810329413	128	36	64
640.837701022	128	92	64
640.855225699	144	82	101
640.860332994	128	74	64
640.907971137	128	82	64
640.909909541	144	82	106
640.943588569	144	92	71
640.954049834	144	74	71
641.001498969	128	82	64
641.005793964	144	82	104
641.015767661	128	92	64
641.041796621	144	36	105
641.101645256	128	82	64
641.136018123	144	92	109
641.156055802	144	82	76
641.172065788	144	35	77
641.185370635	144	33	125
641.199266887	128	67	64
641.199318196	144	67	86
641.240078668	128	33	64
641.330067242	128	74	64
641.49378785	128	82	64
641.572601931	128	50	64
641.606647807	144	108	122
641.610538531	128	92	64
641.614239409	128	108	64
641.618204931	128	67	64
641.61828614	144	67	85
641.69054171	144	82	74
641.737082398	128	82	64
641.737157966	144	82	97
641.817571358	144	50	62
641.824098551	128	82	64
641.828700593	144	74	59
641.876649656	144	82	103
641.918407502	144	92	62
641.957681597	128	82	64
641.995152447	144	82	67
642.119294929	144	108	125
642.135404843	128	67	64
642.135457291	144	67	67
642.160564754	128	108	64
642.217421793	144	41	12
642.218377593	144	108	117
642.220870217	144	33	123
642.258679019	128	108	64
642.259890103	128	82	64
642.26629983	128	35	64
642.272370697	128	33	64
642.315605966	144	108	125
642.348727922	128	108	64
642.355228914	128	92	64
642.390122666	144	108	118
642.429426471	128	108	64
642.466844234	144	108	126
642.50890662	128	108	64
642.562191681	144	108	117
642.574701838	144	82	91
642.59284803	128	108	64
642.648199979	144	108	125
642.675704861	128	108	64
642.746135909	144	108	118
642.759978884	128	82	64
642.774235677	128	108	64
642.77860521	144	92	77
642.796542519	144	82	98
642.812749053	128	74	64
642.832677609	144	108	126
642.833060442	128	67	64
642.859858781	128	108	64
642.871875358	128	82	64
642.916943493	144	108	118
642.927811978	144	82	56
642.944234444	128	108	64
642.951989768	144	35	78
642.967672757	128	36	64
642.98525711	128	41	64
643.001683169	144	108	125
643.045123747	128	108	64
643.067864866	144	36	80
643.109982975	144	108	117
643.116212785	128	35	64
643.138151037	128	108	64
643.14746039	128	92	64
643.19786104	144	108	124
643.248640804	128	108	64
643.279844845	144	108	118
643.316890643	128	108	64
643.328304292	128	82	64
643.367016745	144	33	125
643.419871955	144	35	80
643.425509101	128	33	64
643.432477468	128	34	64
643.479766433	144	108	121
643.541758828	144	41	75
643.548758342	128	108	64
643.563188463	128	41	64
643.565593158	144	82	97
643.659878865	128	82	64
643.698171104	144	108	120
643.742647354	128	108	64
643.895345531	144	108	120
643.907894052	144	82	85
643.943229302	128	108	64
643.98397955	128	82	64
643.984040981	144	82	84
644.031703918	144	67	127
644.077481703	128	67	64
644.096425059	144	108	121
644.143554226	128	108	64
644.199717815	128	35	64
644.249860879	144	33	121
644.296529836	144	108	120
644.3022321	128	33	64
644.342601814	128	108	64
644.367291566	128	36	64
644.40540509	128	82	64
644.409084754	144	82	95
644.441144578	128	82	64
644.477505465	144	108	120
644.503259824	144	35	76
644.522819251	144	92	9
644.524060019	128	108	64
644.557395117	128	35	64
644.658769982	144	36	91
644.662916389	144	108	117
644.715125064	128	108	64
644.72419222	144	41	1
644.806301569	128	92	64
644.847256583	144	108	119
644.858928456	144	82	80
644.864022495	128	50	64
644.877173005	128	108	64
644.947365069	144	92	49
644.972537529	128	82	64
644.972607952	144	82	70
644.993375358	144	74	95
645.013789142	144	108	117
645.020788122	128	74	64
645.029010335	144	50	65
645.042521084	128	108	64
645.180071965	144	108	115
645.183981138	144	74	69
645.22601088	128	108	64
645.267034364	128	41	64
645.328361144	128	82	64
645.3464457	144	108	113
645.386789129	144	33	127
645.387027289	144	35	77
645.391068491	128	108	64
645.399089256	144	82	102
645.41292038	128	92	64
645.45933889	128	82	64
645.479670201	128	33	64
645.480673642	144	108	111
645.531527907	128	108	64
645.558798944	144	41	1
645.561690919	144	92	75
645.593405526	128	74	64
645.613435018	144	108	113
645.651889676	128	36	64
645.658281391	128	108	64
645.695036357	144	67	126
645.707681415	128	67	64
645.750542332	144	108	112
645.75156118	144	74	77
645.759197806	144	82	117
645.780819104	128	108	64
645.799380431	128	92	64
645.808933593	144	36	59
645.849825883	128	41	64
645.861511812	128	82	64
645.868628935	144	82	108
645.882079667	144	108	113
645.905935876	128	108	64
645.915537789	128	35	64
645.994575902	144	108	113
646.042644926	128	108	64
646.131218185	144	108	112
646.156431442	128	108	64
646.245399204	128	82	64
646.264569697	144	108	112
646.292917247	128	108	64
646.315889299	144	82	113
646.325120129	128	92	64
646.373534381	128	82	64
646.396024576	144	108	112
646.430912932	128	108	64
646.451146673	144	33	122
646.465180472	144	35	76
646.503964011	128	33	64
646.532963064	144	108	115
646.562268203	128	35	64
646.576452795	128	108	64
646.638421182	128	74	64
646.646839984	144	108	114
646.682019639	128	108	64
646.708040667	144	82	114
646.755991668	128	82	64
646.756055209	144	82	112
646.768411553	128	36	64
646.780386148	144	108	117
646.82489387	128	108	64
646.956712763	144	35	77
647.041757653	144	36	61
647.185363313	144	33	125
647.252552167	128	33	64
647.257407227	128	82	64
647.26244489	144	82	123
647.292480318	128	82	64
647.678312809	144	82	115
647.709540065	128	82	64
647.720312321	144	82	114
647.901108198	144	33	126
647.918395633	128	36	64
647.989168964	128	33	64
648.009026806	144	41	10
648.045157901	144	94	99
648.04816172	128	35	64
648.084692807	128	94	64
648.252805742	144	35	74
648.279470568	128	82	64
648.285362539	144	74	68
648.291440952	144	82	121
648.303142171	128	74	64
648.307889953	128	35	64
648.308315398	144	36	72
648.315193462	128	82	64
648.361087392	128	50	64
648.407462564	144	74	66
648.454201577	128	74	64
648.523916159	144	74	66
648.545281647	128	41	64
648.603162873	128	74	64
648.658845818	144	74	71
648.670528743	144	35	77
648.699585194	144	50	69
648.733469217	144	82	113
648.804152898	128	74	64
648.810403774	128	82	64
648.8130114	144	82	107
648.862727538	144	74	68
648.95265773	144	33	127
648.99318971	128	33	64
649.055605242	144	34	127
649.055861662	128	34	64
649.214235543	128	74	64
649.247617353	144	108	4
649.299470751	128	108	64
649.323252041	128	82	64
649.323307983	144	82	120
649.336315415	144	33	50
649.372440287	128	33	64
649.376535505	128	82	64
649.384269227	144	74	83
649.495935868	144	108	12
649.516009547	128	35	64
649.57553823	128	108	64
649.629940209	144	41	73
649.697124437	128	74	64
649.746895581	144	108	17
649.756762961	144	82	101
649.7932728	144	33	127
649.816926438	128	108	64
649.829129991	144	35	75
649.836515801	128	82	64
649.836590908	144	82	101
649.88054679	128	33	64
649.892941862	128	35	64
649.980653881	144	108	26
650.060199742	128	108	64
650.202425345	144	35	75
650.213476027	144	108	35
650.221425656	128	41	64
650.305977412	128	82	64
650.309647508	128	108	64
650.317909468	144	82	113
650.343770918	128	82	64
650.387010178	144	33	91
650.424317618	128	33	64
650.462976622	144	108	41
650.541579759	128	108	64
650.654266441	144	84	54
650.670373725	144	34	20
650.696794566	144	108	50
650.718551502	128	36	64
650.776139507	128	108	64
650.795759162	144	82	99
650.814027593	144	41	71
650.835570027	144	33	90
650.837726477	128	82	64
650.837784318	144	82	93
650.871190944	128	33	64
650.94389463	144	108	65
651.013176153	144	74	73
651.016095437	144	33	98
651.025721969	128	108	64
651.027300311	144	94	95
651.034960393	128	33	64
651.179615296	144	108	70
651.189499877	128	41	64
651.250164664	128	108	64
651.266323678	128	35	64
651.380682746	128	84	64
651.381116216	128	82	64
651.429680696	144	108	81
651.443094316	144	82	102
651.464948706	128	82	64
651.476085006	128	108	64
651.486639756	144	35	78
651.496212398	144	84	123
651.546508266	144	41	75
651.575406201	128	35	64
651.576635935	128	74	64
651.602947831	128	50	64
651.663504918	144	108	92
651.687480113	144	33	126
651.698514732	128	84	64
651.703651727	128	33	64
651.733696318	128	108	64
651.738996298	128	41	64
651.863477649	144	84	113
651.901509879	144	50	113
651.911468438	144	108	100
651.916897727	144	82	100
651.929141267	144	67	24
651.978959202	128	82	64
651.979031451	144	82	96
651.983350536	128	108	64
651.995834402	128	67	64
652.037204087	144	35	73
652.078071665	144	41	74
652.162282688	144	108	109
652.180521681	128	41	64
652.181555482	128	35	64
652.212896389	144	74	74
652.234905818	128	108	64
652.302691618	144	67	38
652.302947961	144	33	123
652.351682462	128	33	64
652.380833542	128	67	64
652.412233403	144	108	126
652.453374005	128	82	64
652.482091242	128	108	64
652.539567803	144	82	95
652.550575873	144	67	48
652.609512215	128	67	64
652.630122631	144	41	73
652.639378353	128	84	64
652.647689812	128	82	64
652.654299821	128	41	64
652.735122524	144	108	127
652.740066531	144	84	29
652.743027923	144	67	56
652.758335377	128	108	64
652.785433459	128	67	64
652.847347381	128	74	64
652.857356845	128	84	64
652.900406272	144	67	60
652.934437544	128	67	64
652.962786473	144	84	104
652.966172202	144	82	99
653.030718343	128	82	64
653.030816671	144	82	89
653.038682591	128	84	64
653.045787664	144	41	110
653.068181121	144	108	127
653.07047992	144	35	75
653.083109949	128	41	64
653.084615508	144	33	127
653.101344899	144	84	37
653.108263687	128	108	64
653.124259424	128	33	64
653.159495303	128	35	64
653.160115361	144	67	69
653.162931442	128	84	64
653.175086435	144	84	104
653.18784824	128	67	64
653.222284146	128	84	64
653.229645063	144	74	76
653.265370789	144	84	38
653.295152558	144	41	127
653.296696449	128	84	64
653.319483057	128	41	64
653.324496615	144	84	108
653.338807184	128	84	64
653.357001287	144	84	37
653.404456919	144	41	127
653.407677001	128	84	64
653.432245868	144	84	107
653.435039901	144	108	127
653.441006261	144	67	80
653.464252957	128	41	64
653.469441981	128	67	64
653.475300386	128	108	64
653.498924149	128	84	64
653.511541311	144	36	97
653.534263356	144	84	106
653.537102526	144	41	127
653.558723514	128	82	64
653.558776964	144	82	96
653.581241797	128	74	64
653.581736452	144	67	90
653.586173573	144	35	78
653.586368718	128	41	64
653.590417313	128	84	64
653.600107373	144	84	31
653.610042962	128	67	64
653.612206343	128	82	64
653.654913571	144	41	127
653.67337986	128	84	64
653.680340209	144	84	108
653.6874075	144	67	97
653.698877594	128	41	64
653.71742489	128	84	64
653.71748462	144	84	29
653.744010409	128	67	64
653.753665776	128	84	64
653.753776886	144	84	110
653.784023815	144	41	127
653.813067785	128	41	64
653.820823585	144	108	127
653.821550032	128	84	64
653.829620255	144	67	102
653.859622382	128	67	64
653.860199555	128	108	64
653.861352796	144	74	83
653.866178207	144	84	32
653.903281817	128	74	64
653.903591116	144	41	127
653.905277469	128	84	64
653.933124463	128	41	64
653.93335585	144	84	107
653.946057031	128	84	64
653.956349831	144	67	106
653.966494278	144	84	26
654.013198787	144	82	91
654.019623105	128	84	64
654.019687985	144	84	101
654.021321207	144	41	127
654.021527303	144	33	116
654.061601626	128	41	64
654.065911564	128	82	64
654.065983689	144	82	91
654.070312881	128	33	64
654.072095144	128	84	64
654.099327172	144	84	28
654.110619784	128	67	64
654.110660777	144	67	52
654.138708649	144	41	127
654.155451821	128	84	64
654.167302979	144	84	106
654.178193598	128	41	64
654.179839508	128	84	64
654.207111917	144	84	31
654.231976474	128	84	64
654.232063245	144	84	109
654.235010568	144	74	72
654.236216755	128	74	64
654.251645386	144	108	126
654.25494359	144	41	127
654.279402046	128	84	64
654.292591862	128	108	64
654.294332378	128	41	64
654.322853354	128	35	64
654.330642882	144	74	72
654.384093803	144	41	127
654.423087222	128	94	64
654.439249049	128	41	64
654.451140343	128	67	64
654.451189066	144	67	125
654.526384724	144	41	127
654.54889303	128	41	64
654.565255704	144	35	73
654.59604257	128	74	64
654.602391028	128	82	64
654.602519786	144	82	98
654.605323179	128	50	64
654.607509447	128	35	64
654.637429202	144	41	127
654.662834448	128	82	64
654.666168754	128	41	64
654.684232877	144	108	121
654.714029798	128	67	64
654.733351493	128	108	64
654.809212797	144	41	127
654.809367922	128	41	64
654.820454042	144	84	38
654.84445891	128	84	64
654.844645241	144	84	92
654.885935633	144	41	127
654.892382844	128	84	64
654.892431355	144	84	34
654.932560465	128	84	64
654.946969669	128	41	64
654.995437825	144	84	35
655.0233412	128	34	64
655.037223367	144	41	127
655.048755921	128	84	64
655.05668469	144	84	97
655.077243437	128	36	64
655.079271224	128	41	64
655.087427561	144	35	75
655.098431865	128	84	64
655.11504444	144	84	41
655.11548772	144	82	91
655.119247282	144	108	110
655.158946084	128	108	64
655.172597105	128	84	64
655.190521181	144	84	105
655.204009871	128	82	64
655.204049723	144	82	91
655.223291397	128	84	64
655.23574826	144	33	122
655.236098943	144	84	41
655.254387565	128	33	64
655.259030327	144	41	127
655.282677298	128	84	64
655.282790625	144	84	110
655.309017457	144	34	113
655.309212423	144	36	80
655.313234349	128	41	64
655.354496144	128	84	64
655.365071701	128	34	64
655.390770836	144	84	49
655.39897061	144	50	68
655.413261357	128	84	64
655.441586337	144	84	109
655.497456499	128	84	64
655.502863448	144	84	50
655.558309336	144	41	127
655.56616716	128	84	64
655.568727785	144	108	104
655.585538715	144	84	108
655.604275424	128	82	64
655.605944587	128	84	64
655.610070766	128	108	64
655.615628159	128	41	64
655.642826739	144	84	47
655.68831167	128	84	64
655.688388207	144	84	108
655.747032568	128	84	64
655.773455278	144	84	48
655.822581046	128	84	64
655.834250504	144	84	106
655.875086351	144	41	127
655.889599834	128	84	64
655.893528084	144	84	44
655.945413755	128	41	64
655.963800663	128	84	64
655.974686156	144	84	105
656.023268982	128	84	64
656.049739488	144	84	45
656.062851833	144	108	90
656.081637959	128	35	64
656.097418688	128	84	64
656.10530505	144	84	108
656.140885139	128	108	64
656.155465822	128	84	64
656.179084593	144	94	94
656.181249179	144	67	28
656.182329648	144	84	47
656.18265264	144	82	99
656.193750158	128	67	64
656.228242475	128	82	64
656.22830867	144	82	99
656.230184319	128	84	64
656.241429456	144	84	107
656.257493641	144	41	127
656.288830954	144	35	77
656.289046271	128	84	64
656.311582568	128	41	64
656.315192145	144	84	45
656.363884668	128	84	64
656.375732389	144	84	106
656.385017619	128	36	64
656.395167987	128	35	64
656.413070171	128	84	64
656.413568676	144	67	28
656.466631432	144	84	51
656.476676677	128	67	64
656.478366943	128	50	64
656.496963687	128	84	64
656.51538255	144	84	113
656.546642853	128	84	64
656.563047119	144	74	77
656.600249696	144	84	56
656.627691756	144	41	127
656.629763327	128	84	64
656.632427361	144	50	72
656.648875379	144	84	110
656.673453773	144	67	35
656.690344938	128	84	64
656.691391828	128	41	64
656.704882513	144	108	98
656.730306235	144	84	52
656.748399408	144	35	81
656.753937934	128	67	64
656.759144424	128	108	64
656.772985456	128	84	64
656.790642762	144	84	110
656.791954129	144	36	82
656.823091456	128	84	64
656.856317914	128	74	64
656.875290623	144	84	51
656.905497878	128	84	64
656.917964407	128	82	64
656.924374873	144	84	106
656.981134153	128	84	64
657.007861403	144	84	48
657.024504417	144	74	76
657.055335053	128	84	64
657.075057198	144	34	118
657.083383388	144	84	109
657.113385789	128	84	64
657.131031255	144	67	56
657.138645702	128	34	64
657.140169808	144	84	57
657.179754994	128	74	64
657.181461252	128	84	64
657.190154313	128	67	64
657.207405872	144	84	108
657.217904537	144	82	99
657.245437784	128	82	64
657.251654022	144	82	97
657.261770668	144	74	71
657.263265239	128	84	64
657.287690984	144	67	67
657.299078464	144	84	60
657.322406098	128	84	64
657.357716455	128	67	64
657.358218663	144	84	108
657.369647602	144	108	97
657.405546536	128	84	64
657.416766498	128	108	64
657.43216953	144	84	54
657.436169286	144	67	75
657.464114198	128	84	64
657.478301073	128	67	64
657.514885185	144	84	108
657.538566089	128	84	64
657.566390311	128	35	64
657.57707611	144	67	79
657.592675858	144	84	60
657.633976534	128	84	64
657.642487609	128	67	64
657.66645759	144	84	110
657.696528929	128	84	64
657.714086752	128	74	64
657.716554297	144	84	59
657.732919431	144	67	89
657.738004154	144	35	72
657.746573303	128	84	64
657.772480475	144	41	127
657.783150051	144	84	105
657.783872512	128	67	64
657.799776086	128	41	64
657.808706364	128	35	64
657.83014322	128	84	64
657.837126252	144	67	33
657.857420806	128	67	64
657.858665895	144	84	59
657.865266864	144	67	96
657.882145756	144	41	127
657.898801783	128	84	64
657.912305508	128	67	64
657.912357811	144	67	32
657.914794755	144	84	111
657.928129012	128	41	64
657.935318827	128	82	64
657.980265235	144	41	127
657.980460896	128	84	64
657.991518181	144	84	56
658.019032329	128	41	64
658.031519456	128	84	64
658.036342044	144	108	96
658.077912863	144	84	109
658.09108141	128	108	64
658.11219528	128	67	64
658.112629045	144	67	100
658.112806718	128	67	64
658.114191726	128	84	64
658.149949481	144	84	54
658.159172447	144	67	32
658.162101868	128	67	64
658.179792252	128	84	64
658.204633334	144	35	82
658.207164085	144	84	108
658.221946597	144	67	108
658.222115621	128	67	64
658.236549988	144	33	115
658.239685023	144	67	31
658.239936284	128	67	64
658.252244081	144	82	82
658.262773798	128	84	64
658.27708054	128	33	64
658.290435189	144	84	58
658.322680064	128	84	64
658.366112092	144	84	107
658.381100311	128	82	64
658.413595447	128	84	64
658.415048781	144	82	91
658.433004722	144	84	53
658.46902045	128	36	64
658.472585054	128	84	64
658.498392932	144	84	102
658.546489677	128	84	64
658.591396105	144	84	54
658.613183626	128	84	64
658.659558091	144	84	105
658.706145693	128	84	64
658.73384412	144	84	53
658.76345321	128	84	64
658.816582912	144	84	101
658.830387408	128	84	64
658.860846525	144	108	95
658.865934956	128	82	64
658.875768371	144	36	78
658.891752813	144	84	49
658.904252349	128	84	64
658.91869415	144	82	56
658.920447374	128	82	64
658.92048941	144	82	97
658.927739149	128	108	64
658.958193052	144	84	99
658.979744789	128	82	64
658.990407571	128	84	64
659.024348647	144	84	47
659.046088137	128	84	64
659.049284115	144	82	84
659.09535233	128	82	64
659.097728973	128	35	64
659.108374514	144	41	127
659.112174318	128	41	64
659.116165939	144	84	98
659.141289125	128	84	64
659.149857454	144	82	73
659.160658173	144	84	44
659.161804102	128	82	64
659.201318497	144	41	127
659.206214243	128	84	64
659.22040118	144	33	110
659.232759209	144	82	59
659.24166871	144	84	98
659.242855626	144	35	72
659.246449827	128	41	64
659.254802626	128	33	64
659.262789891	128	82	64
659.280563174	128	84	64
659.318302435	144	82	66
659.324680791	144	84	43
659.329103846	128	82	64
659.341728297	128	35	64
659.346078972	128	84	64
659.385536674	144	82	57
659.390958414	144	84	100
659.428947944	128	82	64
659.429492347	128	84	64
659.457888125	144	84	46
659.468263538	144	82	55
659.497190199	128	84	64
659.512316568	128	82	64
659.540790125	144	84	103
659.549674466	144	82	56
659.572331757	128	84	64
659.596288507	128	82	64
659.649290321	144	82	77
659.661740248	128	82	64
659.70058138	144	82	74
659.700731287	144	84	102
659.703805282	144	35	84
659.737811109	128	84	64
659.75793928	144	84	47
659.762084973	128	82	64
659.76456308	128	50	64
659.789069442	128	84	64
659.79996675	144	82	91
659.813251214	128	82	64
659.832958741	144	84	98
659.858210401	144	108	97
659.858365837	128	84	64
659.871569665	144	82	91
659.877321064	128	108	64
659.907108713	144	84	48
659.912638567	128	82	64
659.930517977	128	84	64
659.930813801	144	50	109
659.932779885	144	74	95
659.941519533	128	74	64
659.95074609	144	82	105
659.982828479	144	84	100
659.994709603	128	82	64
660.005170109	128	84	64
660.032736001	144	74	100
660.033086342	144	82	95
660.049856143	144	84	45
660.072164981	128	84	64
660.073911869	128	74	64
660.080423838	128	82	64
660.126654506	144	74	99
660.131431874	144	82	106
660.154891591	144	41	13
660.158061583	128	41	64
660.162271997	128	82	64
660.18551576	128	74	64
660.186828188	144	33	118
660.205060094	144	84	50
660.205223903	128	33	64
660.215833227	144	82	104
660.222755294	128	84	64
660.241062996	128	94	64
660.246708677	144	41	11
660.262561319	128	82	64
660.276989727	144	84	98
660.300431959	144	82	117
660.314957782	128	84	64
660.323326049	128	41	64
660.328788121	128	82	64
660.349912472	144	84	47
660.366543888	144	82	106
660.381065687	128	84	64
660.400507055	144	41	13
660.412688582	128	82	64
660.416669842	144	84	102
660.441142901	128	41	64
660.444266667	144	34	108
660.455417063	128	84	64
660.466391233	144	82	114
660.486137886	128	36	64
660.490850345	144	84	51
660.495139407	128	82	64
660.499978164	128	35	64
660.52225038	128	84	64
660.52887206	144	41	13
660.533440725	144	82	112
660.541358778	144	74	70
660.57300042	128	41	64
660.57932151	128	82	64
660.582607026	144	84	105
660.588700136	128	74	64
660.597237027	128	84	64
660.614915415	144	82	114
660.642836672	144	84	53
660.662181655	128	82	64
660.665661213	144	41	12
660.672176269	128	84	64
660.680866475	144	35	74
660.714699683	128	41	64
660.716242849	144	84	101
660.734932258	144	82	107
660.737875029	144	33	122
660.742051344	128	35	64
660.753853786	128	33	64
660.763848039	128	84	64
660.776288101	144	36	119
660.783106357	144	41	13
660.791298499	144	84	47
660.822846451	128	84	64
660.822956709	128	34	64
660.829559839	128	82	64
660.836888292	144	74	76
660.837290707	144	82	100
660.852137024	144	84	112
660.867389586	128	84	64
660.867488155	144	84	87
660.879520027	128	41	64
660.881720273	128	84	64
660.90459999	144	108	97
660.926118139	144	84	46
660.952251892	144	41	12
660.95533235	128	84	64
660.975476164	128	108	64
660.985957359	144	84	106
661.014692864	128	84	64
661.029333512	128	41	64
661.060224188	144	84	50
661.08746683	144	35	83
661.08820025	144	41	11
661.090931267	128	84	64
661.100605289	144	84	101
661.153600655	128	41	64
661.156064774	128	84	64
661.199930578	144	84	47
661.216122106	128	74	64
661.222337612	128	84	64
661.235118347	144	41	10
661.257791676	144	84	98
661.296759004	128	41	64
661.306149508	128	84	64
661.331887871	144	84	49
661.363407501	144	41	10
661.371177149	128	84	64
661.446667716	128	41	64
661.484000633	144	84	52
661.514601684	144	41	12
661.521078108	128	82	64
661.523735048	128	84	64
661.566177502	144	84	111
661.576849919	128	41	64
661.58011365	128	84	64
661.62513992	144	84	58
661.649632371	144	41	13
661.655651529	128	84	64
661.718663026	144	33	119
661.758919386	128	33	64
661.772163064	144	84	49
661.785764599	128	36	64
661.806124962	128	84	64
661.834809346	144	84	94
661.879142568	128	41	64
661.882920414	128	35	64
661.889382988	128	84	64
661.907922082	144	84	41
661.948470679	128	84	64
661.953115879	144	41	23
661.98632185	128	41	64
661.990988068	144	84	90
662.023175935	128	84	64
662.027969122	144	35	74
662.058875185	144	84	39
662.067385333	144	41	26
662.068533121	144	108	91
662.096888968	128	84	64
662.125744123	128	108	64
662.133327142	144	84	89
662.139109922	128	35	64
662.180676237	128	84	64
662.207808435	144	84	42
662.247726329	128	84	64
662.282025714	144	84	94
662.304984043	144	82	80
662.334021797	128	41	64
662.339528053	128	84	64
662.356941901	144	41	29
662.365438871	144	84	46
662.365890885	128	41	64
662.370298627	144	41	33
662.389657821	128	41	64
662.398761332	128	84	64
662.431691082	144	84	88
662.454317189	144	35	81
662.488805437	128	84	64
662.490820717	144	41	38
662.513017012	128	41	64
662.523903458	144	84	46
662.539806996	128	84	64
662.550297801	128	50	64
662.561851766	144	41	41
662.562564478	144	33	119
662.591893871	144	84	94
662.604047892	128	33	64
662.622042636	128	41	64
662.632927071	128	84	64
662.638898029	144	84	48
662.680171632	128	84	64
662.709228687	144	41	45
662.733234917	144	84	91
662.744852336	144	94	94
662.763960046	128	41	64
662.768751743	144	50	58
662.772676052	128	84	64
662.784076453	128	82	64
662.826664175	144	84	57
662.838807663	128	84	64
662.867728484	144	41	47
662.885300508	144	84	117
662.910970439	128	41	64
662.922508728	128	84	64
662.935553212	144	84	67
662.980549216	128	84	64
662.999144638	144	41	53
663.024579302	144	84	107
663.056231813	128	84	64
663.059744734	128	41	64
663.091911347	144	84	62
663.111651947	144	108	94
663.12357617	128	84	64
663.159697497	144	84	95
663.163570867	144	41	60
663.208548097	128	35	64
663.212025733	128	41	64
663.233099176	128	84	64
663.233204575	144	84	51
663.254463973	128	108	64
663.263233474	144	34	82
663.281017235	128	84	64
663.283110107	144	41	63
663.299295139	144	84	97
663.342350915	128	41	64
663.363514606	128	84	64
663.39151529	144	84	56
663.403653942	144	35	67
663.418359027	144	41	68
663.433526179	128	84	64
663.43958934	144	82	106
663.440882603	144	33	116
663.449077484	144	84	100
663.459048316	128	35	64
663.472532251	128	41	64
663.493727046	128	33	64
663.521654734	128	84	64
663.542368419	144	84	54
663.573720648	128	84	64
663.580037851	144	41	72
663.60931245	144	84	101
663.624033106	128	41	64
663.649383277	128	34	64
663.659246354	128	36	64
663.665226827	128	84	64
663.677640813	144	84	59
663.695101433	144	41	75
663.722820016	128	84	64
663.757037047	128	41	64
663.761284846	144	84	104
663.762680262	144	35	77
663.798674717	128	74	64
663.815289562	128	84	64
663.828197723	144	41	77
663.841434053	144	84	59
663.873413356	128	84	64
663.890032397	128	41	64
663.916350356	144	84	106
663.918962608	128	82	64
663.946261512	128	67	64
663.969954243	144	41	82
663.985174654	128	84	64
663.985256715	144	84	60
664.022560204	128	41	64
664.032097657	128	84	64
664.075137591	144	84	107
664.093625838	144	41	85
664.106466034	128	84	64
664.133039055	144	84	63
664.154416438	128	41	64
664.172757259	128	84	64
664.199873595	144	84	108
664.24301615	144	41	89
664.26419272	128	84	64
664.288300423	128	41	64
664.291710277	144	84	62
664.324510337	128	84	64
664.352174753	144	84	108
664.376246535	144	41	93
664.421133417	128	41	64
664.433746523	128	84	64
664.44080504	144	84	64
664.465978877	128	84	64
664.491569162	144	41	98
664.529575479	144	84	106
664.539120452	128	84	64
664.554435866	128	41	64
664.560064605	144	82	114
664.577062272	144	84	61
664.599124124	128	35	64
664.606426799	128	84	64
664.624758192	144	41	103
664.65197111	144	84	100
664.695828685	128	41	64
664.69845144	128	84	64
664.727619147	144	84	53
664.756403514	128	84	64
664.778065193	144	41	88
664.7810388	128	41	64
664.781073338	144	41	110
664.791637359	144	84	96
664.802890058	144	35	68
664.819610299	128	41	64
664.830530369	128	84	64
664.85802902	144	84	48
664.895564527	144	41	90
664.898458636	128	41	64
664.898488914	144	41	115
664.898828339	128	84	64
664.915324239	144	84	97
664.947198929	128	84	64
664.947994587	128	35	64
664.973916699	128	41	64
664.991796142	144	84	105
664.993005158	128	84	64
664.993045103	144	84	55
665.015492397	144	41	127
665.046798482	128	84	64
665.088477506	128	82	64
665.090044843	128	41	64
665.160518653	144	41	127
665.226617741	128	41	64
665.278655904	144	41	127
665.341816847	128	41	64
665.482833212	128	50	64
665.503964343	144	35	76
665.625977511	144	34	74
665.666770287	144	82	121
665.713702684	144	50	101
665.907422713	128	34	64
666.155960394	128	94	64
666.223771213	128	82	64
666.481613945	128	35	64
666.56846319	144	33	100
666.579982524	144	35	73
666.608702253	128	33	64
666.625823371	128	35	64
666.698228324	144	35	71
666.775540399	128	35	64
666.810625979	144	82	125
666.832973699	144	35	74
666.910980474	128	35	64
666.980982974	144	35	72
667.0092087	128	35	64
667.079164738	144	35	69
667.111313757	144	34	93
667.130729596	128	50	64
667.146912532	128	35	64
667.195633427	144	50	70
667.214355564	144	35	70
667.257139091	128	35	64
667.336358774	144	35	70
667.380133819	128	35	64
667.38959577	128	82	64
667.390279067	128	34	64
667.447184878	144	35	70
667.526983964	128	35	64
667.597914663	144	35	70
667.675520735	128	35	64
667.687924248	144	33	95
667.732634595	144	35	67
667.771487517	128	33	64
667.809995807	128	35	64
667.862839176	144	41	1
667.896745592	144	35	66
667.919257968	128	41	64
667.945944859	144	82	120
667.949994989	128	35	64
668.0469665	144	35	43
668.09002918	128	35	64
668.235089219	144	35	31
668.275254817	128	35	64
668.380297717	144	35	41
668.436961711	144	41	1
668.458882612	128	35	64
668.506790694	128	82	64
668.60426834	144	35	68
668.643389491	128	35	64
668.746837852	144	35	77
668.810207061	128	35	64
668.913334318	144	35	84
668.960950638	128	35	64
669.046425607	144	35	92
669.066659113	144	94	93
669.0837795	144	82	123
669.09021838	128	35	64
669.180708246	128	41	64
669.211941247	144	34	79
669.239749291	144	35	89
669.239979449	128	35	64
669.33279246	144	35	96
669.359522759	128	35	64
669.37306431	128	34	64
669.447319106	144	35	99
669.45263998	128	50	64
669.491038611	128	35	64
669.578744374	144	35	97
669.626582755	128	35	64
669.639953238	128	82	64
669.788301246	144	33	79
669.888894868	128	33	64
670.12050189	144	50	107
670.22152451	144	35	94
670.251156858	144	108	127
670.260194552	128	35	64
670.262851461	144	82	120
670.312898676	128	108	64
670.347503688	144	35	105
670.384177335	144	108	127
670.391067191	128	35	64
670.47502349	128	41	64
670.496297029	128	108	64
670.539354106	144	35	105
670.559814892	128	35	64
670.596497544	144	108	127
670.624329772	128	50	64
670.66170933	128	108	64
670.665033005	144	35	111
670.707836516	128	35	64
670.774603255	144	108	127
670.794724894	144	34	85
670.840255291	128	108	64
670.855062294	144	35	119
670.895275751	128	35	64
670.961019958	128	82	64
670.979621807	144	35	121
671.024269809	128	34	64
671.042911334	128	35	64
671.146024286	144	35	119
671.210814473	128	35	64
671.455554647	144	82	105
671.724412555	128	82	64
671.753897513	144	33	78
671.830671862	144	35	117
671.839060896	128	33	64
671.895279429	128	35	64
671.980506903	144	35	122
672.026478024	128	35	64
672.098689585	144	35	119
672.160654847	128	35	64
672.263586545	144	35	118
672.293716136	128	35	64
672.397112246	144	35	120
672.440234935	128	35	64
672.516360056	144	35	123
672.576192991	128	35	64
672.891114004	128	94	64
672.97777495	144	34	98
673.021955322	144	33	74
673.16632973	128	33	64
673.179425093	144	50	66
673.190614933	128	34	64
673.338242829	144	35	119
673.386214518	128	35	64
673.470075748	144	35	119
673.527511945	128	35	64
673.589592262	144	108	127
673.612995254	144	35	119
673.643637419	128	108	64
673.677156635	128	35	64
673.748728177	144	35	121
673.824268074	128	35	64
673.895925587	144	34	99
673.912120077	144	35	122
673.977611914	128	35	64
674.047418381	144	35	122
674.05241204	144	108	127
674.076227637	128	108	64
674.123844341	128	34	64
674.141534694	128	35	64
674.426862906	144	58	81
674.511417079	144	108	127
674.524005985	128	108	64
674.587939615	144	33	71
674.691569489	128	33	64
674.771367909	144	35	122
674.809669996	128	35	64
674.897103629	144	35	121
674.923655892	128	50	64
674.960161731	128	35	64
674.986802176	144	108	127
675.007910783	128	108	64
675.046815736	144	35	121
675.110299595	128	35	64
675.197350582	144	35	121
675.261497057	128	35	64
675.295150336	144	34	114
675.346664711	144	35	121
675.365967961	128	34	64
675.410660297	128	35	64
675.423238867	144	34	112
675.444519197	144	94	100
675.451213937	144	108	127
675.474831983	128	108	64
675.481599298	128	34	64
675.496140905	144	35	123
675.555887041	144	34	111
675.560299168	128	35	64
675.618328166	128	34	64
675.675603285	144	34	110
675.752092749	128	34	64
675.902432381	144	108	127
675.92470877	128	108	64
676.006651421	144	50	77
676.054179131	144	35	110
676.088426991	144	33	99
676.108328542	128	35	64
676.179456252	144	35	116
676.249007343	128	33	64
676.259099131	128	35	64
676.285899029	128	58	64
676.334180995	144	35	116
676.393369769	128	35	64
676.404699173	144	108	127
676.444028263	128	108	64
676.480017747	144	35	117
676.492314086	144	58	92
676.543323535	128	35	64
676.630129365	144	35	116
676.632999301	144	64	78
676.675777872	128	64	64
676.694029697	128	35	64
676.778995275	144	35	117
676.85916681	128	35	64
676.87067882	144	108	127
676.89116117	128	108	64
676.91627168	144	35	116
676.994279209	128	35	64
677.08019229	144	35	115
677.123751911	128	94	64
677.175525924	128	35	64
677.194751352	144	34	94
677.278677425	144	94	99
677.284245332	128	94	64
677.333410977	128	50	64
677.335438133	144	108	127
677.340650059	128	34	64
677.37650356	128	108	64
677.540415046	144	35	105
677.631389424	128	35	64
677.645789601	144	33	113
677.666645852	144	35	114
677.691275494	128	33	64
677.743586461	128	35	64
677.819770232	144	108	127
677.829311107	144	35	110
677.85985501	128	108	64
677.875320772	128	35	64
677.979251137	144	35	103
678.023848693	128	35	64
678.098061384	144	35	107
678.122929133	144	71	52
678.161256604	128	35	64
678.207303057	128	94	64
678.232121769	144	35	104
678.272452137	144	108	127
678.272620799	128	58	64
678.294020321	128	108	64
678.30833583	128	35	64
678.363171961	144	34	83
678.380939905	144	35	108
678.451068543	128	35	64
678.451164447	128	34	64
678.530858777	144	35	103
678.551012416	128	71	64
678.573267063	128	35	64
678.599241093	144	58	90
678.647880939	144	71	50
678.662538756	144	35	99
678.726625129	128	35	64
678.753384656	144	108	127
678.774507147	144	82	18
678.796687023	144	35	100
678.807920891	128	108	64
678.841450483	128	82	64
678.875028491	128	35	64
678.9327799	144	35	100
678.969792405	144	50	81
678.990903428	128	35	64
679.033318998	128	71	64
679.063540003	144	35	104
679.141925539	128	35	64
679.159882317	144	82	47
679.191096818	128	82	64
679.199682107	144	35	104
679.252971956	144	108	127
679.257790718	128	35	64
679.275169469	128	108	64
679.317733091	144	82	46
679.324358262	144	64	52
679.346393539	144	35	103
679.356705476	128	82	64
679.403227032	128	58	64
679.425151299	128	35	64
679.496724102	144	35	102
679.500452945	144	82	61
679.540631992	128	82	64
679.577191236	128	35	64
679.646369787	144	35	104
679.684222476	144	82	92
679.719558032	144	108	127
679.724069342	128	82	64
679.725242518	128	35	64
679.759643558	128	108	64
679.794510627	144	34	83
679.796801527	144	35	107
679.860492916	128	35	64
679.865836368	128	34	64
679.886630998	144	82	112
679.905999695	128	82	64
679.946103258	144	35	109
680.025389715	128	35	64
680.050857381	144	82	123
680.094745992	128	82	64
680.122269099	144	35	108
680.193280887	128	35	64
680.218094012	144	82	124
680.222323751	144	108	127
680.2594929	128	108	64
680.273783439	128	82	64
680.295795002	144	35	97
680.389625478	128	35	64
680.400634833	144	82	124
680.460149302	128	82	64
680.479581572	144	35	96
680.5577882	128	35	64
680.58844941	144	82	125
680.632090192	144	71	64
680.659288297	144	58	91
680.671961982	144	108	127
680.679094771	128	82	64
680.702252677	144	35	93
680.724579231	128	108	64
680.741805133	128	35	64
680.896815982	144	35	88
680.897073114	144	34	89
680.926770049	128	71	64
680.93894666	128	35	64
680.949090598	128	34	64
681.011833823	144	82	105
681.057813196	128	82	64
681.07272927	144	33	106
681.084190489	144	35	89
681.148624589	144	108	127
681.154891744	144	71	66
681.156500732	128	33	64
681.158485554	128	35	64
681.166511018	144	82	85
681.190962496	128	82	64
681.209027236	128	108	64
681.244991987	144	82	95
681.306703843	128	82	64
681.32031771	144	35	87
681.344843722	144	82	79
681.390363377	128	82	64
681.427038445	128	50	64
681.427459026	144	82	101
681.427745331	128	35	64
681.490322312	128	82	64
681.494325166	128	64	64
681.512025575	144	82	86
681.573430275	128	82	64
681.584921702	144	35	92
681.59414106	144	82	98
681.635602742	144	108	127
681.640081816	128	82	64
681.672286164	144	33	105
681.676643314	144	82	80
681.69074118	128	108	64
681.724137326	128	82	64
681.728945196	128	35	64
681.749172301	128	71	64
681.760067405	144	82	95
681.774788123	128	33	64
681.806744578	128	82	64
681.829683023	144	35	92
681.864483246	144	82	74
681.877698793	144	50	75
681.889745782	128	82	64
681.926268341	144	82	96
681.937243393	128	58	64
681.956684638	128	82	64
681.999929201	128	35	64
682.009044311	144	82	79
682.040428868	128	82	64
682.057544805	144	79	19
682.093969843	144	82	99
682.119003501	144	108	127
682.123197972	128	82	64
682.128740205	144	34	85
682.131997671	144	71	67
682.152332499	128	79	64
682.15403244	144	35	92
682.175335865	128	108	64
682.176409568	144	82	82
682.189326253	128	82	64
682.216114344	128	34	64
682.240637507	144	79	24
682.261605933	144	82	103
682.272625188	128	82	64
682.293297326	144	64	64
682.309496285	144	58	88
682.311411575	128	79	64
682.315433493	128	35	64
682.322615449	144	33	102
682.343891039	144	82	88
682.356061775	128	82	64
682.395390715	128	58	64
682.397398209	144	79	25
682.41469866	144	82	103
682.424390432	128	33	64
682.448291001	128	79	64
682.45597364	144	58	88
682.460843247	128	82	64
682.482476286	144	35	89
682.495755825	144	82	93
682.521655234	144	79	28
682.547422902	128	82	64
682.565040298	128	79	64
682.596383445	144	108	127
682.625644375	144	82	112
682.635501275	128	58	64
682.641316278	144	79	31
682.660957126	144	58	88
682.675620034	128	108	64
682.68998126	128	82	64
682.699511426	128	35	64
682.701049115	128	79	64
682.71271727	144	82	127
682.742748745	128	58	64
682.766236701	128	71	64
682.771842236	144	79	37
682.773506866	128	82	64
682.79404136	144	82	116
682.831273254	128	79	64
682.835829053	144	58	79
682.841464328	128	82	64
682.861316436	144	82	120
682.863373118	144	71	88
682.884536903	144	35	86
682.90351231	144	79	44
682.923916306	128	82	64
682.944569659	144	82	114
682.955990518	144	33	101
682.956158454	128	71	64
682.965726594	128	79	64
682.984906311	128	58	64
683.047977417	144	71	88
683.051634679	144	58	55
683.053290035	144	79	54
683.061172141	144	21	123
683.074135617	128	82	64
683.100320876	128	79	64
683.111317715	144	82	114
683.116264523	128	35	64
683.116658768	128	33	64
683.117898848	144	108	127
683.13352696	128	21	64
683.173981711	128	108	64
683.176098143	128	82	64
683.190353982	144	79	64
683.195552487	144	82	127
683.230020129	128	79	64
683.257397504	128	82	64
683.263942975	144	82	119
683.303371876	144	35	88
683.318904795	144	79	74
683.341846807	128	82	64
683.348001245	128	79	64
683.382480894	144	82	122
683.440913142	128	82	64
683.449314525	144	79	84
683.459789643	144	82	116
683.49814679	128	79	64
683.524542388	128	82	64
683.532672246	128	35	64
683.578444388	144	82	121
683.585750238	144	108	127
683.589748064	144	79	104
683.607836313	128	82	64
683.619259105	128	79	64
683.64031778	144	33	99
683.642099663	128	108	64
683.648853573	144	82	117
683.678085802	144	35	87
683.70198162	144	79	119
683.708461672	128	82	64
683.723524271	128	33	64
683.742095263	128	35	64
683.746978128	128	79	64
683.764945984	144	82	122
683.790318995	128	82	64
683.812894018	144	35	90
683.838532669	144	79	127
683.845346118	144	82	115
683.877914653	128	82	64
683.88231605	128	79	64
683.883760072	128	71	64
683.892094051	128	35	64
683.944336863	144	82	116
683.951025933	144	79	127
683.963227999	144	35	89
683.991234842	128	82	64
684.002297199	128	64	64
684.011056203	128	79	64
684.027835285	144	82	102
684.040222361	144	71	91
684.042626846	128	35	64
684.092714253	128	82	64
684.097895862	144	79	127
684.102815279	144	108	127
684.130301462	144	35	86
684.130638651	144	82	114
684.16292028	128	79	64
684.175954096	128	82	64
684.176269587	128	108	64
684.209109106	128	35	64
684.213862877	144	82	104
684.221305679	144	79	127
684.279334638	144	35	86
684.28026892	128	79	64
684.290951889	128	82	64
684.322849583	144	33	96
684.330364517	144	82	114
684.359214943	128	35	64
684.363616756	144	79	127
684.391392279	128	82	64
684.406313786	128	33	64
684.428890364	144	82	108
684.430575864	128	79	64
684.447227852	144	35	86
684.502985219	144	79	127
684.510290737	128	35	64
684.54207511	128	82	64
684.562033785	128	79	64
684.566088525	144	82	115
684.581633119	144	35	87
684.602298999	144	108	127
684.624822837	128	82	64
684.640903961	144	79	127
684.642160995	128	108	64
684.643414518	144	21	122
684.672392995	128	35	64
684.678953005	144	82	116
684.699320133	128	79	64
684.705319748	144	64	89
684.728001068	128	82	64
684.729664405	144	35	88
684.733635712	128	21	64
684.734922667	144	79	127
684.777780643	128	64	64
684.781402872	144	82	120
684.794204857	128	35	64
684.80790254	128	82	64
684.816023026	128	79	64
684.861981335	144	82	112
684.880488054	144	35	89
684.888074542	144	79	127
684.891758668	128	82	64
684.932269397	128	79	64
684.949349557	144	82	119
684.993702414	128	82	64
685.005942012	128	35	64
685.023392519	144	33	96
685.030599855	144	82	108
685.043113654	144	35	89
685.061034002	128	82	64
685.067936039	144	79	127
685.068058617	128	79	64
685.093515171	128	35	64
685.097643424	144	82	125
685.107201328	128	33	64
685.119804552	144	108	127
685.138957726	144	79	127
685.140928005	128	82	64
685.165632331	144	35	87
685.173354972	128	108	64
685.17753989	144	82	111
685.211493824	128	79	64
685.24166425	128	82	64
685.242372655	128	71	64
685.257496902	128	35	64
685.261495439	128	58	64
685.302401785	144	79	127
685.316129746	144	35	90
685.343588679	144	82	104
685.343754633	128	79	64
685.393594843	128	35	64
685.407984086	128	82	64
685.425519626	128	50	64
685.427720882	144	82	117
685.431857265	144	79	127
685.475777172	128	82	64
685.480429728	144	35	87
685.483750343	128	79	64
685.494561576	144	82	100
685.527269467	144	50	87
685.553132236	144	79	127
685.558666398	128	35	64
685.562131957	128	82	64
685.562163326	144	82	120
685.59267631	128	82	64
685.593958183	128	79	64
685.611625233	144	82	107
685.629967475	144	35	87
685.635896776	144	108	127
685.656190587	128	108	64
685.683467745	144	33	95
685.692618749	128	82	64
685.708001001	144	64	108
685.708600046	128	35	64
685.73766377	144	79	127
685.747321294	128	79	64
685.753120619	128	64	64
685.773695064	128	33	64
685.796885141	144	35	90
685.832078695	144	79	127
685.878663989	128	79	64
685.891915933	128	35	64
685.948039957	144	79	127
685.979841637	144	35	90
685.985166442	144	82	114
686.014947299	128	79	64
686.058841502	128	35	64
686.05991503	128	82	64
686.066452424	144	79	127
686.111103599	144	82	92
686.11642963	144	108	127
686.127428501	128	79	64
686.146131725	144	35	88
686.159338865	128	82	64
686.191389776	128	108	64
686.210861643	144	82	95
686.228266115	144	21	125
686.241621989	128	35	64
686.274889988	128	82	64
686.28276983	128	21	64
686.301009759	144	35	89
686.313531966	144	82	90
686.359059362	128	82	64
686.389053391	144	33	95
686.391855807	128	35	64
686.412109908	144	82	105
686.452370473	128	58	64
686.458637473	128	33	64
686.46572941	144	35	89
686.467584382	128	82	64
686.512718099	144	82	91
686.536736077	144	79	127
686.544747954	128	82	64
686.560177225	128	35	64
686.592654174	128	79	64
686.598583206	144	82	106
686.608870476	144	108	127
686.627765608	128	82	64
686.678695633	144	82	88
686.690399393	128	108	64
686.725130955	128	82	64
686.74519626	144	21	127
686.781943554	144	82	95
686.782264824	144	64	127
686.789263104	128	21	64
686.791283367	144	79	127
686.825617673	128	82	64
686.838610658	128	64	64
686.863680705	144	82	90
686.910385424	128	82	64
686.964077833	144	82	104
687.006329639	144	33	92
687.008615002	128	82	64
687.028980274	144	34	83
687.061697766	144	82	87
687.072987397	128	33	64
687.0879075	144	35	73
687.10905077	128	82	64
687.110262691	128	35	64
687.117030462	144	35	101
687.117211426	128	79	64
687.152981225	144	108	127
687.160907529	128	35	64
687.161714739	144	82	94
687.191888967	128	108	64
687.193133977	128	82	64
687.206290595	128	34	64
687.2297339	144	82	83
687.263307691	144	35	101
687.292629809	128	82	64
687.312061245	144	82	106
687.320419653	144	79	127
687.3281393	128	35	64
687.350813961	144	35	69
687.375904026	128	82	64
687.39171848	128	35	64
687.416402354	144	82	91
687.43515337	144	35	91
687.462278013	128	82	64
687.500820873	128	35	64
687.503431071	144	35	66
687.52479611	144	82	114
687.532990146	128	82	64
687.543476091	128	35	64
687.545730833	144	71	106
687.546122679	128	71	64
687.583405932	144	35	89
687.594211368	144	82	100
687.604870037	144	33	91
687.611693099	128	35	64
687.628753517	144	108	127
687.632253854	144	35	61
687.642349644	128	82	64
687.679818464	144	82	113
687.693817543	128	35	64
687.707942842	128	108	64
687.715967866	144	21	124
687.72621503	128	82	64
687.733468256	144	35	85
687.74373749	144	71	116
687.749089053	128	33	64
687.751433708	128	21	64
687.751611704	128	79	64
687.778820327	144	82	87
687.791810927	128	35	64
687.801447903	144	35	64
687.809635681	128	82	64
687.864073745	144	82	104
687.87584067	128	82	64
687.877915192	128	35	64
687.886204096	144	35	84
687.886958946	144	64	127
687.895693099	144	79	116
687.94326074	128	64	64
687.943901853	128	35	64
687.945580168	144	82	91
687.985846678	144	35	69
687.994850771	128	82	64
687.999501841	128	50	64
688.033595739	144	82	115
688.049280016	128	35	64
688.055969968	144	35	88
688.076311432	128	82	64
688.115568223	144	82	92
688.125601181	128	35	64
688.132113847	144	33	99
688.144686342	144	108	127
688.152287246	144	35	74
688.176629354	128	82	64
688.207125966	128	35	64
688.215110276	144	82	106
688.225480567	128	108	64
688.251353432	144	35	87
688.277324796	128	82	64
688.284143824	128	33	64
688.288787935	128	79	64
688.317425574	144	82	84
688.328562182	128	35	64
688.35135885	144	35	74
688.376291299	128	82	64
688.427459705	128	35	64
688.429101623	144	82	113
688.435579236	144	35	90
688.476473366	128	82	64
688.479857487	144	79	114
688.513690358	144	82	87
688.523957639	128	35	64
688.553119875	144	35	73
688.577353742	128	82	64
688.610373669	128	35	64
688.614841639	144	82	118
688.632660452	144	35	96
688.676513746	128	82	64
688.685677436	144	108	127
688.709639006	128	35	64
688.714993195	144	82	85
688.723389955	144	33	102
688.732001371	144	35	76
688.739534443	128	108	64
688.777351065	128	82	64
688.808074324	128	33	64
688.808972224	128	35	64
688.81485946	144	82	109
688.81811536	144	35	102
688.877450877	128	82	64
688.892552804	128	35	64
688.901608051	144	21	123
688.914014906	144	35	80
688.915299896	144	82	75
688.939788115	128	21	64
688.977155766	128	35	64
688.977292712	128	82	64
688.986309051	144	35	109
689.043478954	128	35	64
689.051406442	144	64	127
689.067710487	144	35	91
689.098098227	144	82	94
689.10228143	128	64	64
689.116131251	128	82	64
689.116221124	144	82	95
689.127453714	128	35	64
689.148259233	144	35	120
689.159020067	144	108	127
689.160649925	128	82	64
689.214774796	144	82	82
689.225499026	128	35	64
689.235033896	144	35	97
689.239889377	128	108	64
689.309029721	128	35	64
689.317683046	144	35	119
689.322368672	144	33	101
689.327339725	128	82	64
689.346791317	144	82	113
689.392075671	128	35	64
689.400716337	128	71	64
689.407066228	128	33	64
689.414446881	144	35	96
689.443431666	128	82	64
689.464564197	144	82	112
689.492167447	128	35	64
689.500538119	144	35	121
689.543955407	128	82	64
689.5569941	144	50	112
689.582702956	144	82	127
689.591695084	128	35	64
689.608721537	128	50	64
689.610181228	128	79	64
689.614221346	144	35	98
689.628427154	128	82	64
689.663984514	144	82	120
689.692589401	128	35	64
689.700860428	144	35	120
689.736084446	144	108	127
689.743464595	128	82	64
689.782337337	144	82	127
689.789545	128	108	64
689.791764542	128	35	64
689.797565069	144	34	77
689.814242985	144	35	103
689.827327619	128	82	64
689.865083665	144	82	117
689.892156553	128	35	64
689.915058979	144	35	121
689.923099462	144	33	100
689.927758259	128	82	64
689.937754792	144	79	58
689.973295067	128	79	64
689.981614449	144	82	124
690.007355377	128	33	64
690.008402907	128	35	64
690.010841224	128	82	64
690.030526795	144	35	96
690.064574934	144	82	115
690.074350066	144	50	112
690.090914605	144	21	122
690.110078954	128	35	64
690.128252071	128	82	64
690.130396869	144	35	115
690.166491534	144	82	123
690.167055655	128	21	64
690.178905652	144	79	45
690.209949581	144	108	127
690.211814659	128	82	64
690.227167971	128	35	64
690.247415528	144	35	99
690.255514879	128	79	64
690.265758837	144	82	102
690.291504464	128	108	64
690.310452157	128	35	64
690.328488075	128	82	64
690.33434314	144	35	119
690.336024607	144	79	32
690.358509763	144	21	123
690.36720173	144	82	110
690.374470761	128	79	64
690.410182258	128	35	64
690.419402486	128	21	64
690.427803787	128	82	64
690.431464771	144	35	92
690.448798465	144	82	98
690.509299927	128	35	64
690.516555116	144	35	114
690.518323364	128	82	64
690.518377324	144	82	111
690.526472344	128	34	64
690.538579462	144	33	99
690.561005006	128	82	64
690.573493618	128	33	64
690.60378695	144	34	95
690.608731933	128	35	64
690.631820767	144	35	95
690.667931732	128	34	64
690.695293079	144	108	127
690.708702881	128	35	64
690.730300433	144	35	117
690.751925576	144	82	109
690.792076842	128	108	64
690.808800266	128	35	64
690.812388165	128	82	64
690.830088756	144	35	92
690.894642347	128	35	64
690.933067148	144	35	121
690.936439618	144	82	100
690.998380754	128	82	64
691.008243509	144	79	1
691.010194041	128	35	64
691.032225618	144	33	100
691.033235823	144	35	92
691.101956793	144	82	106
691.108804465	128	35	64
691.129589422	144	35	112
691.147360777	128	82	64
691.181251536	128	33	64
691.216035617	144	108	127
691.22557089	128	35	64
691.247939579	144	35	89
691.278168509	144	21	122
691.282695839	144	82	102
691.30673313	128	108	64
691.310618344	128	35	64
691.316945758	144	64	25
691.319213355	128	21	64
691.3316142	128	82	64
691.335582286	144	35	110
691.41110212	128	35	64
691.427543789	128	79	64
691.432852016	144	35	89
691.44252175	128	64	64
691.449217481	144	82	107
691.493635806	128	35	64
691.496045805	128	82	64
691.539591567	144	35	107
691.609037181	128	35	64
691.635807682	144	35	93
691.635975539	144	82	112
691.641461597	144	33	99
691.697808393	128	82	64
691.712843128	128	35	64
691.717598713	144	71	103
691.718135952	128	71	64
691.72301784	144	108	127
691.772851463	144	64	35
691.781251882	128	108	64
691.827260353	144	71	96
691.838598027	144	82	112
691.875383163	128	64	64
691.879155175	128	33	64
691.881857512	128	82	64
691.895884868	144	21	122
691.934901677	128	21	64
692.004045085	144	35	95
692.020594145	144	82	105
692.043925062	128	35	64
692.068119328	128	82	64
692.157104661	144	33	99
692.21669116	144	108	127
692.220540232	144	82	108
692.258027044	128	33	64
692.268308858	128	82	64
692.274398831	128	108	64
692.288230735	144	35	97
692.419934036	144	64	52
692.422169163	144	82	122
692.433162546	128	35	64
692.463463303	128	82	64
692.474426258	128	64	64
692.604207515	144	35	99
692.622814258	144	82	127
692.645689362	128	82	64
692.690477055	144	33	98
692.733081111	144	108	127
692.772734877	128	33	64
692.790745105	128	108	64
692.813605144	128	50	64
692.820002163	144	82	121
692.833039829	128	35	64
692.865675621	128	82	64
692.96887645	144	64	59
692.982728226	144	50	97
693.002909511	144	35	92
693.022211767	144	82	127
693.051643527	128	64	64
693.065969048	128	82	64
693.199863895	128	35	64
693.220293378	144	82	120
693.231019982	144	34	122
693.232691833	144	108	127
693.239229165	144	33	97
693.265672547	128	79	64
693.280893826	128	82	64
693.291451659	128	108	64
693.350571414	128	34	64
693.377084753	128	33	64
693.380680303	144	35	82
693.430374116	144	82	125
693.480756155	128	82	64
693.547196784	144	21	123
693.592532221	128	71	64
693.614161997	128	21	64
693.622744178	144	82	112
693.632879617	128	35	64
693.65275352	144	64	68
693.663186616	128	82	64
693.716803765	128	64	64
693.749998939	144	108	127
693.790573771	144	33	106
693.804184785	144	35	90
693.806293008	128	108	64
693.8214942	144	82	116
693.868059906	128	82	64
693.873616304	128	33	64
694.015987762	128	35	64
694.020107174	144	82	109
694.066188175	128	82	64
694.205271927	144	82	118
694.205484961	144	35	96
694.244369683	144	108	127
694.264687785	128	82	64
694.317384644	144	64	75
694.31757175	128	64	64
694.323601295	128	108	64
694.325620416	128	35	64
694.405297335	144	82	111
694.406654554	144	33	117
694.446994799	128	82	64
694.47040058	144	31	24
694.509959845	128	31	64
694.529920208	144	35	100
694.530610234	128	33	64
694.564192201	144	21	125
694.572193203	144	64	75
694.603580041	144	82	121
694.607298945	144	31	36
694.625996349	128	21	64
694.626352017	128	64	64
694.659980742	128	31	64
694.664336436	128	82	64
694.726685956	144	31	48
694.737632951	144	21	127
694.748344685	144	108	127
694.760691944	128	31	64
694.783564656	128	21	64
694.801473934	144	82	111
694.805601751	128	108	64
694.826839156	144	64	80
694.833153883	128	35	64
694.841956351	144	31	57
694.864248996	128	82	64
694.893757961	128	31	64
694.905614987	128	64	64
694.976785326	144	31	61
695.020732834	144	82	120
695.03036938	128	31	64
695.036205387	144	35	90
695.042972124	144	33	116
695.064737002	128	82	64
695.081065876	144	31	66
695.124525787	128	33	64
695.128147251	128	31	64
695.175949657	144	64	81
695.176154943	128	64	64
695.20399636	144	82	104
695.206975094	144	31	74
695.250202408	128	82	64
695.261769426	128	31	64
695.266162732	144	108	127
695.319611868	144	31	82
695.337406974	144	64	80
695.341206443	128	108	64
695.3784445	128	31	64
695.383205531	128	35	64
695.407336837	128	64	64
695.435675022	144	31	91
695.437930591	144	82	127
695.486299245	128	82	64
695.527789322	128	31	64
695.528350594	144	35	81
695.588681648	144	31	94
695.613344903	144	64	83
695.633742679	128	31	64
695.638897501	144	82	118
695.667753869	144	33	114
695.698685209	128	82	64
695.707453386	144	31	101
695.760906334	128	31	64
695.782897308	144	108	127
695.790316559	128	33	64
695.818705016	144	31	110
695.839533436	128	108	64
695.854780524	144	82	117
695.883849277	128	35	64
695.896658648	128	31	64
695.89871669	128	82	64
695.922790387	144	31	109
696.031105925	144	21	123
696.066714966	144	82	99
696.068385977	128	31	64
696.070890751	144	35	83
696.097088545	128	82	64
696.136480509	144	31	69
696.229598104	128	50	64
696.229879326	144	50	68
696.259516642	144	82	110
696.261461135	144	108	127
696.297781843	128	82	64
696.311615206	128	31	64
696.316700118	144	33	102
696.319560868	128	108	64
696.406662375	144	31	83
696.414821859	128	31	64
696.414918214	144	31	110
696.450440508	144	82	100
696.454781859	128	35	64
696.481319684	128	33	64
696.498213716	128	82	64
696.564279256	128	31	64
696.565449273	128	64	64
696.565734201	144	64	83
696.565879976	128	64	64
696.5660577	144	64	83
696.566194622	128	64	64
696.566362931	144	64	83
696.566525637	128	64	64
696.56672147	144	64	82
696.608313435	144	31	87
696.622062575	144	35	82
696.663063786	128	31	64
696.684206693	144	82	111
696.686543617	144	31	67
696.710728853	128	64	64
696.714776342	128	31	64
696.715257101	128	82	64
696.751639841	144	64	80
696.761452911	144	31	69
696.786035628	144	108	127
696.803478661	128	31	64
696.803527177	144	31	67
696.841966257	128	108	64
696.872417364	128	64	64
696.882076016	144	82	96
696.892898317	128	35	64
696.903646751	128	31	64
696.90368071	144	31	76
696.918199404	128	82	64
697.006566386	144	33	91
697.06812935	144	71	66
697.071768449	144	82	91
697.07687809	128	71	64
697.085416038	128	31	64
697.091546498	128	33	64
697.112633416	144	64	54
697.11607084	128	82	64
697.120529375	144	35	80
697.151426135	144	31	65
697.164165236	144	71	80
697.184259587	128	64	64
697.272162281	144	82	97
697.285524767	144	108	127
697.298409559	144	64	45
697.316056306	128	82	64
697.333221739	128	35	64
697.340737893	128	108	64
697.388479551	128	64	64
697.388676233	144	64	77
697.427816385	128	31	64
697.471918897	144	82	97
697.474150379	128	64	64
697.484383534	144	64	42
697.516296248	128	82	64
697.521739106	144	35	72
697.556246094	128	64	64
697.640571696	144	33	72
697.651299079	144	64	37
697.655287123	144	82	100
697.676247735	144	31	60
697.699554567	128	82	64
697.733021805	128	35	64
697.744226339	128	64	64
697.800464336	128	33	64
697.81829638	144	108	127
697.838065057	144	64	38
697.838799725	144	82	100
697.85287754	128	108	64
697.882881113	128	82	64
697.892168378	128	64	64
697.892245052	144	64	31
697.920360102	144	35	89
697.969238872	128	64	64
697.969298242	144	64	55
698.006992939	128	64	64
698.007057034	144	64	26
698.035903186	144	82	106
698.0479025	128	64	64
698.047957562	144	64	28
698.081801864	128	82	64
698.15149443	128	64	64
698.151561952	144	64	22
698.200949452	128	35	64
698.25163562	144	82	116
698.288959696	144	33	61
698.298734167	128	82	64
698.31162981	128	64	64
698.311668349	144	64	21
698.334224087	144	108	127
698.369799926	128	108	64
698.372518557	144	35	89
698.405651855	128	64	64
698.405718852	144	64	26
698.432580935	128	33	64
698.434006104	128	71	64
698.456011677	144	82	115
698.473718115	128	82	64
698.491150503	128	64	64
698.491206464	144	64	28
698.654628042	144	82	115
698.681915496	128	82	64
698.683682454	128	35	64
698.750334753	128	50	64
698.853294857	144	82	115
698.855281284	144	35	100
698.869612934	128	82	64
698.895526729	144	50	92
698.900348972	144	108	127
698.92414218	144	33	41
698.950656105	144	71	111
698.955006984	128	108	64
699.003571335	128	50	64
699.026338008	128	33	64
699.289185244	144	82	119
699.304433031	128	82	64
699.336004308	128	31	64
699.416627303	128	35	64
699.427180272	144	108	127
699.475184835	144	33	19
699.506189734	128	108	64
699.511018083	144	82	119
699.550577332	128	82	64
699.577710556	128	33	64
699.609109968	144	31	87
699.621796336	144	35	2
699.6943074	144	82	109
699.750958229	128	82	64
699.910837211	144	82	99
699.936742707	128	82	64
700.059153659	144	33	1
700.094694857	144	82	99
700.121518658	128	82	64
700.121583396	144	82	95
700.133133419	144	108	127
700.134111426	128	82	64
700.184618956	128	71	64
700.203619518	128	33	64
700.236388483	128	108	64
700.304582098	128	35	64
700.323459772	144	82	127
700.337107393	128	82	64
700.337356504	144	35	2
700.380001865	128	35	64
700.524184588	144	82	117
700.552493476	128	82	64
700.588201749	144	35	127
700.622101173	144	34	113
700.744137122	144	82	120
700.759173946	128	82	64
700.825276943	128	34	64
700.900929025	144	108	124
700.940512973	144	82	110
700.973182497	128	108	64
700.984551623	128	82	64
701.159856458	144	82	109
701.205272735	128	82	64
701.358759384	144	82	106
701.401928582	128	82	64
701.434251404	128	35	64
701.436461469	144	35	1
701.509922187	128	50	64
701.513093897	128	64	64
701.557232455	144	82	109
701.619329403	128	82	64
701.711625684	128	31	64
701.727372016	144	108	127
701.774693715	144	82	105
701.819274877	128	82	64
701.852469206	128	108	64
701.9100751	128	35	64
701.971134886	144	71	83
701.99114098	144	82	111
702.013964835	128	71	64
702.035932863	128	82	64
702.088073607	144	35	7
702.09933577	144	71	66
702.127840882	144	31	57
702.191305537	144	82	107
702.207026561	128	21	64
702.235899293	128	82	64
702.351070624	144	21	123
702.388479749	128	21	64
702.391309202	144	82	110
702.409031755	128	82	64
702.409082555	144	82	112
702.439696391	128	82	64
702.554882258	144	82	97
702.618534604	128	82	64
702.72008204	128	31	64
702.731092561	144	108	123
702.741349847	144	82	108
702.766848737	128	35	64
702.795730085	144	34	108
702.801971737	128	82	64
702.852429939	128	108	64
702.853269342	128	71	64
702.905109065	144	82	95
702.950713512	128	82	64
702.990650785	128	34	64
703.003625681	144	35	121
703.055236793	144	82	110
703.092572334	144	33	119
703.092954841	144	31	56
703.101031701	128	82	64
703.130128661	128	33	64
703.222799521	144	82	104
703.286292362	128	82	64
703.392367007	144	82	108
703.39281159	128	35	64
703.397978039	128	31	64
703.440637524	128	82	64
703.558300218	144	82	99
703.619139274	128	82	64
703.72232454	144	82	110
703.785685632	128	82	64
703.792334898	144	31	53
703.818226304	144	108	127
703.854416424	144	35	123
703.891941958	144	82	103
703.952066346	128	108	64
703.952462032	128	82	64
704.055671773	144	82	106
704.101608685	128	82	64
704.136394723	128	31	64
704.20637727	144	82	93
704.270694165	128	82	64
704.376114999	144	82	109
704.435157672	128	82	64
704.53962837	144	82	104
704.603233325	128	82	64
704.717162946	144	82	115
704.752816577	128	82	64
704.855923884	144	82	103
704.902389716	128	82	64
704.911464873	144	21	119
704.945413632	128	21	64
705.001085208	144	108	127
705.025355542	144	82	109
705.070685204	128	82	64
705.139446119	144	33	120
705.15154736	128	108	64
705.174080851	144	82	109
705.194799541	128	33	64
705.236221318	128	82	64
705.322139613	144	21	118
705.339645774	144	82	114
705.369159945	144	31	53
705.37020692	128	21	64
705.406244392	128	82	64
705.510105214	144	82	104
705.570594236	128	82	64
705.674241178	144	82	104
705.703206466	128	31	64
705.735874446	128	82	64
705.837922798	144	82	102
705.861235551	144	21	119
705.901708807	128	82	64
705.902780846	128	21	64
706.005243704	144	82	111
706.052847649	128	82	64
706.157069276	144	82	95
706.220588053	128	82	64
706.230540205	144	108	127
706.326721327	144	82	104
706.368440328	128	108	64
706.387274292	128	82	64
706.4767362	144	82	99
706.554534624	128	82	64
706.643720106	144	82	111
706.703899157	128	82	64
706.760625081	144	21	119
706.774201629	144	82	96
706.803577482	128	21	64
706.836059209	128	82	64
706.843008804	128	71	64
706.85130364	128	35	64
706.926344637	144	82	105
706.929649535	144	34	110
707.003247565	128	82	64
707.090974065	144	82	87
707.12535892	128	34	64
707.169401721	144	35	121
707.186510931	128	82	64
707.261914641	144	82	101
707.336898324	128	82	64
707.375734838	128	31	64
707.399967123	144	33	123
707.424320042	144	82	93
707.442376823	128	33	64
707.487845414	128	82	64
707.572864975	144	108	127
707.593261564	144	82	103
707.65437882	128	82	64
707.735279575	128	108	64
707.748418483	144	82	86
707.811093416	128	82	64
707.903390457	144	82	102
707.954442116	128	82	64
708.045217452	144	82	88
708.104718992	128	82	64
708.145709697	144	21	118
708.152176629	128	21	64
708.194263497	144	82	95
708.254705717	128	82	64
708.340724094	144	82	88
708.420525509	128	82	64
708.50789049	144	82	100
708.573136389	128	82	64
708.658828888	144	82	85
708.72150768	128	82	64
708.827690326	144	82	97
708.862012987	144	65	119
708.878660299	144	21	109
708.891045894	128	82	64
708.899392846	144	108	127
708.900901028	128	21	64
708.979457811	144	82	84
709.040957165	128	82	64
709.068414686	128	108	64
709.118992191	128	65	64
709.145201932	144	82	98
709.190831208	128	82	64
709.31167276	144	82	88
709.387790379	128	82	64
709.475478255	144	82	96
709.521413709	128	82	64
709.594137762	144	65	127
709.642077993	144	82	88
709.705537373	128	82	64
709.81901845	144	82	101
709.854015662	128	82	64
709.937597536	128	65	64
709.96008024	144	82	90
710.03833779	128	82	64
710.113634148	144	34	110
710.125731624	144	82	93
710.188864725	128	82	64
710.240689419	144	46	62
710.244338618	144	82	90
710.250800004	144	108	127
710.291057417	144	65	124
710.303919136	128	82	64
710.375625536	128	34	64
710.417581266	128	108	64
710.669230053	128	65	64
710.735376457	128	46	64
710.834130676	144	46	86
711.166965185	128	35	64
711.171128581	128	46	64
711.250537191	144	46	92
711.422124708	144	35	125
711.743078772	128	35	64
711.782192751	144	108	126
711.998730115	144	34	62
712.000626237	144	65	126
712.014483151	144	35	120
712.068535962	128	65	64
712.12860996	144	21	112
712.156734044	144	65	127
712.185025019	128	65	64
712.19912374	128	108	64
712.23775734	144	65	127
712.292849967	128	65	64
712.383401157	128	35	64
712.653921108	144	35	123
712.823529989	144	65	127
713.332967949	144	82	69
713.367133599	144	108	127
713.520197125	128	46	64
713.534104212	128	108	64
713.546928624	128	65	64
713.566791959	128	35	64
713.707857939	144	46	92
713.843286611	128	82	64
714.221150917	144	65	25
714.376753003	144	101	63
714.400277649	128	65	64
714.546535487	144	82	108
714.619552882	128	46	64
714.634232456	144	64	84
714.65514647	144	65	21
714.813849886	128	65	64
714.998038226	144	108	119
715.003081302	144	65	24
715.080833774	128	82	64
715.091175622	128	65	64
715.108226976	128	108	64
715.285831982	144	65	21
715.322861877	128	65	64
715.465883396	144	65	21
715.488114061	128	65	64
715.575732882	144	65	21
715.638501938	128	65	64
715.724713345	144	65	23
715.762110303	144	82	108
715.77663613	128	65	64
715.803039562	144	46	89
715.863586582	144	65	26
715.894828867	128	65	64
716.028382606	144	65	26
716.079789882	128	65	64
716.223980047	144	65	30
716.240761384	128	65	64
716.281459605	128	82	64
716.331194211	144	65	32
716.390089597	128	65	64
716.432794191	128	64	64
716.481269474	144	65	32
716.507446566	144	108	127
716.536881122	128	101	64
716.541049632	128	65	64
716.644447874	144	65	34
716.684170273	128	108	64
716.690645835	128	65	64
716.736210082	128	21	64
716.835433108	144	65	34
716.840162405	144	64	82
716.840794772	128	65	64
716.911017295	144	101	71
716.94403996	144	65	34
716.986979096	144	82	121
716.987800648	128	65	64
717.138694307	144	65	35
717.138785237	128	65	64
717.243895993	144	65	36
717.288256993	128	65	64
717.436244905	144	65	37
717.470938944	128	65	64
717.543287443	144	65	39
717.548335728	128	82	64
717.621570546	128	65	64
717.664471069	144	35	121
717.694678005	144	65	40
717.753122062	128	65	64
717.961191255	128	35	64
717.995960909	144	65	43
718.142034926	144	108	127
718.146781257	144	82	122
718.149937568	128	65	64
718.265273143	144	35	118
718.312365002	128	46	64
718.316655535	128	108	64
718.403051202	144	65	45
718.489982613	128	65	64
718.582422226	128	82	64
718.617316354	128	35	64
718.72845215	144	65	47
718.838499713	144	35	117
718.896001936	128	65	64
719.109731365	144	65	48
719.212243498	144	46	87
719.221655085	128	65	64
719.224464623	128	34	64
719.315289746	128	64	64
719.347720899	144	82	108
719.382662153	144	65	47
719.470306492	144	64	79
719.48407948	144	74	67
719.846184985	144	34	68
719.950241786	128	82	64
720.063555821	128	65	64
720.189073198	144	108	102
720.213543512	144	65	49
720.24614077	128	101	64
720.347748228	144	82	108
720.43448653	128	108	64
720.590315487	144	108	121
720.696977072	128	65	64
720.765973407	128	108	64
720.901675348	144	65	63
720.934014366	128	82	64
720.953761268	128	65	64
720.975411347	128	34	64
721.055393292	144	34	87
721.11911837	128	34	64
721.333643209	144	82	115
721.40050172	128	64	64
721.40057498	144	64	16
721.41373204	144	65	127
721.566996205	144	101	85
721.575262947	128	74	64
721.61742134	128	82	64
721.827266613	128	65	64
721.914388422	144	108	67
722.028617429	128	64	64
722.028691186	144	64	80
722.033409254	128	108	64
722.038632953	128	46	64
722.266054263	128	64	64
722.26611781	144	64	19
722.459695242	128	35	64
722.520315086	128	64	64
722.601755808	144	46	90
722.689401389	144	35	119
722.743149104	128	35	64
722.778443928	144	21	105
722.831696229	144	35	121
722.894504903	128	35	64
722.914047567	144	65	1
722.9810246	144	35	119
722.985587533	128	65	64
723.019180068	144	64	81
723.044792882	128	35	64
723.131609033	144	35	118
723.210260053	128	35	64
723.28172219	128	46	64
723.29809353	144	35	117
723.463340864	144	108	43
723.496542244	144	34	102
723.538334872	128	108	64
723.657293421	128	34	64
724.538556442	144	46	99
724.563210565	128	46	64
724.619900121	144	46	105
724.693248247	128	46	64
724.71355485	144	34	9
724.732809689	128	33	64
724.779660153	144	108	43
724.780690984	144	46	114
724.849598894	128	65	64
724.868155257	128	108	64
724.987039999	128	35	64
725.015414493	128	64	64
725.065965058	144	64	77
725.0661707	128	21	64
725.165225272	128	64	64
725.272599388	128	84	64
725.447593795	144	35	120
725.462850814	128	21	64
725.526761652	128	35	64
725.551313352	128	46	64
725.570027744	144	108	44
725.671070655	128	108	64
725.671557868	144	35	121
725.691735605	128	35	64
725.78047702	144	108	37
725.818546655	144	46	54
725.838686757	144	35	121
725.851478824	128	108	64
725.893004208	128	35	64
725.937718472	144	108	34
726.037628347	128	108	64
726.055077815	144	35	121
726.104855796	144	108	35
726.201829543	128	108	64
726.263125271	128	46	64
726.283205522	128	35	64
726.295567623	144	108	35
726.308885751	128	34	64
726.338896895	144	74	103
726.388629749	128	108	64
726.458666992	144	108	35
726.541047787	128	108	64
726.621872353	144	108	36
726.704274272	128	108	64
726.809020489	144	108	36
726.885959239	128	108	64
726.944229762	144	108	35
727.041571855	128	108	64
727.053498556	144	46	95
727.108864262	128	46	64
727.113402773	144	46	82
727.136842565	144	108	37
727.160735576	128	46	64
727.1989944	144	46	98
727.205995131	128	108	64
727.259281965	128	46	64
727.27945047	144	46	88
727.309248455	128	46	64
727.309964206	144	108	38
727.369498411	128	108	64
727.47232351	144	108	38
727.473912567	144	46	88
727.494227429	128	46	64
727.515673415	144	46	97
727.542522489	128	108	64
727.61160999	128	46	64
727.616389193	144	46	89
727.638326406	144	108	39
727.675233823	128	46	64
727.685604161	144	64	81
727.704118007	128	108	64
727.71346892	144	46	91
727.739474255	128	64	64
727.775730592	128	46	64
727.781515782	144	46	87
727.809089728	144	108	39
727.825164641	128	46	64
727.862980548	144	46	92
727.870489003	128	108	64
727.90915048	128	46	64
727.914329699	144	46	88
727.958610903	128	46	64
727.989149567	144	108	40
727.997229242	144	46	100
728.006079779	128	74	64
728.045917745	128	46	64
728.045980463	144	46	94
728.058083856	128	108	64
728.108380104	128	46	64
728.108769564	144	74	77
728.128182396	144	46	108
728.155534229	144	108	40
728.192244396	128	46	64
728.197717181	144	46	99
728.236460407	128	108	64
728.258456412	128	46	64
728.277895755	144	46	110
728.332531142	144	108	41
728.401320816	128	108	64
728.43233266	128	46	64
728.432764572	144	46	111
728.499338272	128	46	64
728.499531843	144	46	100
728.523582878	144	108	41
728.575700446	128	46	64
728.586720967	144	35	120
728.587418497	128	108	64
728.595109399	144	46	105
728.660692514	128	35	64
728.676112742	128	46	64
728.6843859	144	46	89
728.693478319	144	108	41
728.742211405	128	46	64
728.746916317	144	35	121
728.750798313	128	108	64
728.782020613	144	46	99
728.844339122	128	46	64
728.855536232	144	108	41
728.863363106	144	46	93
728.874702772	144	64	82
728.892133622	128	35	64
728.90876492	128	46	64
728.923930999	128	64	64
728.939471407	128	108	64
728.94708661	144	46	100
728.947262361	144	35	121
729.010371727	128	46	64
729.010471789	144	46	93
729.043115888	144	108	41
729.043400201	128	35	64
729.075659552	128	46	64
729.118630659	128	108	64
729.129543434	144	46	105
729.13982873	144	64	79
729.150870614	144	35	121
729.16051035	128	46	64
729.160576884	144	46	98
729.220218847	144	108	40
729.235547397	128	64	64
729.290855061	128	108	64
729.303682479	128	46	64
729.30404297	144	46	98
729.359497689	128	46	64
729.381923844	144	46	105
729.413462256	144	108	40
729.417214339	128	74	64
729.453369392	128	108	64
729.459007023	128	46	64
729.529446842	144	74	76
729.586994455	144	108	40
729.634257155	128	108	64
729.752501134	144	108	40
729.819231619	128	108	64
729.938019531	144	108	39
729.953656922	144	64	81
729.992678208	128	64	64
730.007695583	128	108	64
730.103348376	144	108	39
730.187339228	128	108	64
730.263389769	144	64	79
730.292549284	144	108	40
730.314814367	128	64	64
730.35443644	128	108	64
730.481869232	144	108	40
730.53478928	128	108	64
730.654054393	144	108	41
730.723461814	128	108	64
730.753701034	128	74	64
730.842353665	144	108	43
730.886053342	128	108	64
730.955720515	144	74	89
731.005243986	144	108	45
731.013042679	144	64	67
731.073137107	128	108	64
731.105289291	128	64	64
731.1717258	144	108	47
731.19869326	144	34	61
731.236194305	128	108	64
731.309867951	144	64	63
731.341875549	144	108	51
731.424874164	128	108	64
731.425055549	128	34	64
731.507070409	144	108	54
731.585033074	128	108	64
731.679397155	144	108	56
731.75149181	128	108	64
731.837851183	144	108	60
731.901466485	128	108	64
731.994712915	128	64	64
732.003311091	144	108	63
732.048523434	144	46	72
732.078971117	128	46	64
732.085583985	128	108	64
732.103927989	128	101	64
732.156913827	144	108	63
732.186719375	144	101	51
732.236458453	128	108	64
732.327672495	144	108	60
732.400184107	128	108	64
732.469907968	144	108	56
732.570511504	128	108	64
732.596260577	144	34	112
732.635607923	128	34	64
732.639305884	144	108	54
732.713834308	128	101	64
732.733958579	128	108	64
732.806824883	144	108	54
732.875745655	144	101	49
732.884477327	128	108	64
732.91059923	128	101	64
732.9348785	128	35	64
732.977916877	144	108	53
733.050818001	128	108	64
733.057898878	144	101	49
733.077808286	128	101	64
733.139230781	144	108	51
733.22180852	128	108	64
733.226210451	144	101	52
733.23122728	128	101	64
733.238705847	144	46	60
733.294792045	144	66	97
733.296547648	144	35	47
733.297096643	144	108	48
733.357805569	128	66	64
733.374896868	128	35	64
733.38339929	128	108	64
733.396517719	144	64	65
733.397449109	144	101	52
733.398099068	128	46	64
733.398366803	128	101	64
733.421347831	128	64	64
733.46004156	144	108	47
733.543279009	144	101	53
733.551111158	128	108	64
733.598644119	128	101	64
733.609603485	144	108	46
733.702780609	144	101	55
733.703008033	128	108	64
733.760400333	128	101	64
733.789814086	144	108	44
733.863000253	144	34	8
733.885087151	128	108	64
733.905279937	144	101	56
733.915285694	128	101	64
733.925012286	144	108	43
734.03395069	128	108	64
734.036004078	144	101	55
734.082185141	144	35	27
734.090405466	128	101	64
734.109233979	144	108	42
734.16078226	128	35	64
734.183459844	128	108	64
734.190564159	144	101	57
734.244232299	128	101	64
734.290222317	144	108	40
734.342180745	144	101	57
734.367703904	128	108	64
734.398901444	128	101	64
734.413919784	128	74	64
734.430541308	144	108	40
734.439770404	144	82	58
734.443908592	144	64	65
734.479722608	128	64	64
734.52144208	128	108	64
734.543510684	144	101	58
734.548180576	144	46	68
734.561397482	128	101	64
734.60806219	144	108	44
734.624478423	144	35	36
734.661596563	128	35	64
734.667275574	128	108	64
734.708489322	128	34	64
734.711166564	144	101	55
734.743859	128	101	64
734.769576546	144	108	48
734.795766528	128	46	64
734.806129073	144	34	17
734.835231698	128	108	64
734.841454027	144	101	56
734.874446972	128	82	64
734.893985136	128	101	64
734.941145059	144	108	51
734.989770182	144	35	65
734.999323813	128	108	64
735.007430198	144	101	50
735.060572309	128	101	64
735.072715543	144	108	51
735.093672974	128	35	64
735.156235303	128	108	64
735.164146459	144	46	69
735.17627287	144	82	71
735.210812687	144	101	48
735.24395433	128	101	64
735.25155182	128	82	64
735.254811467	144	108	53
735.317033348	128	108	64
735.328638975	144	35	103
735.369597582	144	101	36
735.422594122	144	108	55
735.427130188	144	81	106
735.42758419	128	35	64
735.443768762	128	101	64
735.453781362	128	81	64
735.468694124	144	82	79
735.479321232	128	46	64
735.485333294	128	108	64
735.518776587	128	82	64
735.554671413	144	74	43
735.590367535	144	108	56
735.592890158	144	101	25
735.624334313	144	82	59
735.638811211	144	35	56
735.647771655	128	101	64
735.656215273	128	108	64
735.679924702	128	34	64
735.683471536	128	82	64
735.693371023	128	35	64
735.709932666	144	46	68
735.73979765	144	108	58
735.793244245	144	101	21
735.810041494	144	82	70
735.834102286	128	108	64
735.846510313	128	101	64
735.855739336	144	34	33
735.868869204	128	82	64
735.909251394	144	108	55
735.937420152	144	82	55
735.973378314	144	35	58
735.9955328	144	101	20
736.002131544	128	108	64
736.011061398	128	35	64
736.027165642	128	101	64
736.040356636	128	82	64
736.055080025	144	108	53
736.066418009	128	34	64
736.09391853	144	82	73
736.115739964	144	64	66
736.121098382	128	46	64
736.123794664	128	64	64
736.147221551	128	108	64
736.152025452	128	82	64
736.158211013	144	81	104
736.171627911	144	101	21
736.19427517	128	101	64
736.196322478	128	81	64
736.225601436	144	82	60
736.254156003	144	108	50
736.267770346	128	82	64
736.304118093	144	82	96
736.30454837	144	64	65
736.335488188	128	108	64
736.338348768	144	101	23
736.339332265	128	64	64
736.341455303	144	35	21
736.35283612	144	46	66
736.364545553	128	101	64
736.368652382	128	82	64
736.376693266	128	35	64
736.41017361	144	108	49
736.422556012	144	82	79
736.451044565	128	82	64
736.472672948	144	101	25
736.484034438	128	108	64
736.497473797	144	34	44
736.506507077	144	82	98
736.551743727	128	82	64
736.571343482	144	108	48
736.604752784	144	82	72
736.650873766	128	108	64
736.653201212	128	82	64
736.656514791	144	35	12
736.690487066	144	82	94
736.701057376	128	74	64
736.72692152	128	35	64
736.735607403	128	82	64
736.738086366	128	46	64
736.758157474	144	108	44
736.787555575	144	82	71
736.820354717	128	101	64
736.82085582	128	108	64
736.835799569	128	82	64
736.854748105	144	74	48
736.872092647	144	82	91
736.903429742	144	101	20
736.904308295	144	108	41
736.917494258	128	82	64
736.926612751	144	46	66
736.971834509	144	82	71
736.981885678	128	101	64
736.984210355	128	108	64
736.992471839	128	34	64
737.006280592	144	35	58
737.050763284	128	82	64
737.076568794	128	35	64
737.088820508	144	82	91
737.091341936	144	108	40
737.128583801	144	101	17
737.134731916	128	82	64
737.148102479	128	101	64
737.166848278	128	108	64
737.205857654	144	82	68
737.213096258	144	81	105
737.230423299	128	81	64
737.24184717	128	74	64
737.251464746	128	82	64
737.254337089	144	108	38
737.281927088	144	34	45
737.289742212	144	82	84
737.294354049	144	101	14
737.314213919	128	101	64
737.323808454	144	35	90
737.336377443	128	82	64
737.33882268	128	46	64
737.340354095	128	108	64
737.351367821	144	66	27
737.361555344	128	35	64
737.365720079	128	66	64
737.374507573	144	74	48
737.387782602	144	82	63
737.428818018	144	108	39
737.477443782	144	101	17
737.484961522	128	82	64
737.50177502	128	108	64
737.510425373	128	101	64
737.529061143	144	82	83
737.538442241	128	74	64
737.542999422	144	46	64
737.58660947	128	82	64
737.606724237	144	35	118
737.607399084	144	108	40
737.640909236	144	74	50
737.65431952	144	82	72
737.660254795	144	101	18
737.66046635	128	35	64
737.671329765	128	108	64
737.702281373	128	82	64
737.714967181	128	101	64
737.761523327	128	74	64
737.772803826	144	108	43
737.796432171	144	66	30
737.803996666	144	74	54
737.840605346	128	108	64
737.841712043	128	34	64
737.856180075	128	66	64
737.86003232	144	101	21
737.872239748	144	35	127
737.907946948	128	74	64
737.926781141	144	81	104
737.928776195	128	101	64
737.942669376	144	108	43
737.94310386	128	35	64
737.947281653	128	81	64
737.963839939	144	82	66
737.98131562	144	74	53
737.998424197	128	108	64
738.038265303	128	46	64
738.071526742	128	82	64
738.09875446	128	74	64
738.10371658	144	108	45
738.110980155	144	101	24
738.136583826	128	101	64
738.164230716	144	74	57
738.173823135	128	108	64
738.19704224	144	34	45
738.22319086	144	35	67
738.277071377	128	35	64
738.277475773	144	108	49
738.279533126	144	66	32
738.281799111	144	101	23
738.287907661	128	74	64
738.3332582	128	66	64
738.33376096	128	108	64
738.344857499	144	74	70
738.345349632	128	101	64
738.347824885	144	82	80
738.423504522	144	108	52
738.43505792	128	82	64
738.494758555	144	101	25
738.503468218	128	108	64
738.505182509	144	35	24
738.576473934	128	74	64
738.57705258	128	35	64
738.578772503	128	101	64
738.638992457	144	74	113
738.645220917	144	108	52
738.675934161	128	34	64
738.687088325	144	101	25
738.688165674	128	108	64
738.74529955	128	101	64
738.762247007	144	66	47
738.763631188	128	74	64
738.78978934	144	35	55
738.799278887	144	82	85
738.80167531	144	108	55
738.802532102	128	66	64
738.812005526	144	74	82
738.873642653	128	108	64
738.877213316	128	35	64
738.89430355	144	101	24
738.914035629	144	81	107
738.927316247	128	101	64
738.931046101	144	34	45
738.955605029	144	108	56
739.03516072	128	108	64
739.068773603	128	81	64
739.072299815	144	101	25
739.088947274	144	35	110
739.093774146	128	101	64
739.142465989	144	108	57
739.160001791	128	35	64
739.19532902	144	66	61
739.204860865	128	108	64
739.225646889	128	82	64
739.235029855	128	66	64
739.238082564	144	101	28
739.265731672	128	74	64
739.278108663	128	101	64
739.305029044	144	108	60
739.348148465	144	74	56
739.385090461	128	108	64
739.389862902	144	35	79
739.422343129	144	101	30
739.443281988	128	35	64
739.444384017	128	101	64
739.471035263	144	108	62
739.485372507	128	74	64
739.493399604	144	74	57
739.543140263	128	34	64
739.543591243	128	108	64
739.552472772	144	101	34
739.556098543	144	66	73
739.604002776	128	74	64
739.629464312	144	46	79
739.633844345	128	66	64
739.633987943	128	101	64
739.660122577	144	108	63
739.675398982	144	74	58
739.700641512	144	82	83
739.721524286	128	108	64
739.737014607	144	101	37
739.739718031	144	35	31
739.77662205	144	81	108
739.777682355	128	35	64
739.781105631	128	101	64
739.790362631	128	74	64
739.79424129	144	34	50
739.813978394	128	81	64
739.821869416	144	108	64
739.831915695	144	74	59
739.886753611	144	101	40
739.889612938	128	108	64
739.921765182	144	64	68
739.927837233	128	74	64
739.931976398	128	64	64
739.964852263	128	101	64
739.987092601	144	108	64
739.988867614	128	46	64
739.99488436	144	74	63
739.995014729	144	66	84
740.005506604	144	35	64
740.00881058	128	82	64
740.018144139	128	66	64
740.043739278	144	101	43
740.068959276	128	108	64
740.076705896	128	35	64
740.10718016	128	74	64
740.11067597	128	101	64
740.139950872	144	46	59
740.164292358	144	74	69
740.173199147	144	108	60
740.210117912	128	74	64
740.220229943	128	108	64
740.260301493	144	101	45
740.298217311	144	74	98
740.314063615	128	101	64
740.320934001	144	35	123
740.337064674	144	108	54
740.376342993	128	34	64
740.376652682	128	35	64
740.379273959	144	66	95
740.398053387	128	74	64
740.407461624	128	108	64
740.422028586	144	101	45
740.435632904	128	66	64
740.49025947	144	74	103
740.493824463	128	101	64
740.52917951	144	108	48
740.571590335	128	108	64
740.579688657	128	74	64
740.589485265	144	35	117
740.638706116	144	101	50
740.646380048	144	34	52
740.656050171	144	74	68
740.659924331	128	35	64
740.67593759	144	108	43
740.681163367	128	101	64
740.689387877	144	82	71
740.72236852	128	108	64
740.758590576	128	74	64
740.760146807	144	66	105
740.776118215	144	64	70
740.784391127	128	66	64
740.811194222	128	64	64
740.81988813	144	108	41
740.825705906	144	101	51
740.829352799	144	74	57
740.8664091	128	101	64
740.88856608	144	35	117
740.89839842	128	35	64
740.899677736	128	108	64
740.959546672	144	101	55
740.965818172	128	74	64
740.977295783	128	82	64
740.998174226	144	74	54
741.009292664	144	108	40
741.012020299	128	101	64
741.065863503	128	108	64
741.109067405	144	101	55
741.121857882	128	74	64
741.139386086	144	35	78
741.162300732	144	66	114
741.181631236	128	101	64
741.188078291	144	108	44
741.193278331	144	74	55
741.201456944	128	66	64
741.221034939	128	35	64
741.22603517	128	34	64
741.232328992	128	108	64
741.271795488	144	101	56
741.281767908	128	74	64
741.328639325	128	101	64
741.35438961	144	108	47
741.360545989	144	74	55
741.42509059	144	101	59
741.427381219	128	108	64
741.448786628	144	35	31
741.458544033	128	74	64
741.463551581	144	34	52
741.502762707	128	101	64
741.503182771	144	74	63
741.512145108	128	35	64
741.512534166	144	108	50
741.543622664	144	66	127
741.568734222	128	108	64
741.590456006	144	101	61
741.599815599	128	66	64
741.660622611	128	101	64
741.666553862	128	74	64
741.690319287	144	108	53
741.691029165	144	74	66
741.747920043	144	64	65
741.754763843	128	108	64
741.777985191	128	64	64
741.798239523	128	74	64
741.804781291	144	101	64
741.827267501	128	101	64
741.856852768	144	74	73
741.858745521	144	82	74
741.873317186	144	35	29
741.875090886	144	108	52
741.905909108	128	82	64
741.911366073	128	35	64
741.921851988	144	101	66
741.934584993	128	108	64
741.977481545	128	101	64
742.01993288	144	108	56
742.044297048	144	81	91
742.05924182	128	34	64
742.06284847	144	82	56
742.0677442	128	81	64
742.084062037	128	108	64
742.122489641	128	82	64
742.126394778	144	101	68
742.153005496	128	74	64
742.160637189	128	101	64
742.203996059	144	108	57
742.209632288	144	74	58
742.211911328	144	81	84
742.226906829	128	81	64
742.249691031	144	82	51
742.259665642	144	101	71
742.274049923	128	108	64
742.305957642	128	82	64
742.327224294	128	101	64
742.333327819	128	74	64
742.377529063	144	108	58
742.40618831	144	74	55
742.408644383	144	81	87
742.409200873	128	81	64
742.413686502	144	82	44
742.419573941	144	101	75
742.4290977	144	66	11
742.432913996	128	108	64
742.452610136	144	81	102
742.458411269	128	82	64
742.471327139	128	66	64
742.479254141	128	101	64
742.49816669	144	34	53
742.503516202	128	74	64
742.509559963	128	81	64
742.532092705	144	35	86
742.537388231	144	108	59
742.569151834	144	101	73
742.607338454	128	108	64
742.613651051	144	81	105
742.631112005	128	81	64
742.647889927	128	101	64
742.674899696	144	82	52
742.704609287	128	82	64
742.708226285	144	108	53
742.732261487	144	81	109
742.750134414	128	108	64
742.755277159	144	101	71
742.763311446	144	66	23
742.778681912	128	81	64
742.810672289	128	101	64
742.813797982	144	82	50
742.81682756	128	66	64
742.821846306	128	82	64
742.846941396	144	81	113
742.868488322	144	108	49
742.875555079	128	81	64
742.910084899	144	64	53
742.913800172	144	82	51
742.914803259	128	108	64
742.939398164	128	82	64
742.955409212	144	101	67
742.964465382	144	81	108
742.993738657	128	81	64
742.997929479	128	101	64
743.008136513	128	64	64
743.034330888	144	82	42
743.038160587	144	108	43
743.04573944	144	66	28
743.07325821	128	82	64
743.074782673	128	46	64
743.081500384	144	81	92
743.082333794	128	108	64
743.086174887	144	101	64
743.086361528	128	66	64
743.092694839	128	34	64
743.10965372	128	81	64
743.163985841	144	82	49
743.169188417	128	101	64
743.173146025	128	82	64
743.196420332	144	81	106
743.204125031	144	108	45
743.226172955	128	81	64
743.249021485	128	108	64
743.260034529	144	101	62
743.264421007	144	82	47
743.297397305	144	66	35
743.310358029	128	82	64
743.319466648	144	64	74
743.328636978	128	101	64
743.354103513	144	108	49
743.361361636	128	66	64
743.376017531	144	81	82
743.376107571	128	81	64
743.383918493	128	64	64
743.423438288	128	108	64
743.431290837	144	81	96
743.473174896	144	101	59
743.485806159	128	35	64
743.510411422	128	101	64
743.517370359	144	82	49
743.539750128	128	82	64
743.543555904	144	108	50
743.556753093	144	66	41
743.586754833	128	66	64
743.588762233	128	108	64
743.614120308	144	34	53
743.636660216	128	81	64
743.651439181	144	82	37
743.655099652	144	101	54
743.667889922	144	81	84
743.673362867	128	82	64
743.697981489	128	101	64
743.704810021	144	108	53
743.760002053	128	81	64
743.772745946	128	108	64
743.783911745	144	82	47
743.784142067	144	66	48
743.793428625	128	82	64
743.794007842	144	74	73
743.802464531	144	101	51
743.818453055	128	66	64
743.829357317	144	81	98
743.845763063	128	81	64
743.880545392	128	101	64
743.895210756	144	108	53
743.901297513	144	82	40
743.925361305	128	82	64
743.938336195	128	108	64
743.98863216	144	101	48
743.988837435	144	81	89
744.000011791	144	66	55
744.013463684	128	81	64
744.050621793	144	82	52
744.054000949	128	66	64
744.055108352	144	108	55
744.064599667	128	101	64
744.074997835	128	82	64
744.097814678	144	81	106
744.099587939	128	108	64
744.146764256	144	82	53
744.175344139	128	82	64
744.212110791	144	101	44
744.220017047	144	108	60
744.229889287	144	66	62
744.266445549	128	108	64
744.26792934	128	101	64
744.268911387	144	82	55
744.269062926	128	81	64
744.284518749	128	66	64
744.306966181	128	82	64
744.321726508	144	35	107
744.352689062	144	81	102
744.37738588	128	81	64
744.39267764	128	34	64
744.401174311	144	108	63
744.411925789	144	101	42
744.430950971	144	82	56
744.433056628	144	64	52
744.443568831	128	101	64
744.448180142	128	108	64
744.473748501	128	82	64
744.478877974	144	66	69
744.489985876	128	64	64
744.519125344	128	66	64
744.542399504	144	81	90
744.5425658	128	81	64
744.569596205	144	101	39
744.58785202	144	108	62
744.598074375	144	82	59
744.623446058	128	82	64
744.627062139	128	101	64
744.632167313	128	108	64
744.634606184	144	81	100
744.687797571	128	81	64
744.695374682	144	66	77
744.734074395	144	82	87
744.735707401	128	66	64
744.771473479	144	108	66
744.771739063	144	101	37
744.790256688	128	82	64
744.803039165	144	64	73
744.814945462	128	101	64
744.815177702	128	108	64
744.846866025	144	34	57
744.857032073	128	64	64
744.900765062	144	82	96
744.92587609	144	81	83
744.93531069	144	108	68
744.937516139	144	66	84
744.959010568	144	101	34
744.959574665	128	82	64
744.9794417	128	66	64
744.99320869	128	81	64
745.007305491	128	108	64
745.012325172	128	101	64
745.10120823	144	82	120
745.124384283	144	66	91
745.124709454	128	82	64
745.126187677	144	108	65
745.169630927	128	108	64
745.196783554	144	101	33
745.198928467	128	66	64
745.210305753	128	35	64
745.246855853	144	82	111
745.276381778	128	82	64
745.278427819	128	101	64
745.301030716	144	108	55
745.312833812	144	66	95
745.326173233	144	81	92
745.333809627	128	81	64
745.346689152	144	81	78
745.349203566	128	108	64
745.397034077	144	82	116
745.41171675	128	81	64
745.412841688	128	66	64
745.441001461	128	82	64
745.45983833	144	101	31
745.468243528	144	108	49
745.5144531	128	101	64
745.538396626	128	108	64
745.563462139	144	82	117
745.564329634	144	66	102
745.590563463	128	82	64
745.624663154	128	66	64
745.640242256	144	108	46
745.677135498	144	101	31
745.700093084	128	108	64
745.708298664	144	82	124
745.741015347	128	101	64
745.755912203	128	82	64
745.758798081	144	81	127
745.771822201	128	81	64
745.771889183	144	81	119
745.781732504	144	66	107
745.794969885	128	81	64
745.818729863	128	66	64
745.820890535	144	108	42
745.843340641	128	34	64
745.871754628	128	108	64
745.880484782	144	82	119
745.892730285	144	101	33
745.927478263	128	101	64
745.939541147	144	35	102
745.939799652	128	82	64
745.976183117	144	66	113
745.986843261	144	108	50
746.022383145	128	66	64
746.033168472	128	108	64
746.084967656	144	81	103
746.109753013	144	101	31
746.136584241	128	81	64
746.157055205	144	82	118
746.167844483	144	108	48
746.178306212	128	101	64
746.180572981	144	34	61
746.196200565	144	66	120
746.196439132	128	66	64
746.215162526	128	108	64
746.224573058	128	82	64
746.281786278	144	81	115
746.326882901	128	81	64
746.327186903	144	101	32
746.338400621	144	89	17
746.345695479	144	108	49
746.362193876	144	82	112
746.384022721	128	108	64
746.391009226	128	82	64
746.395941227	128	101	64
746.431270065	144	81	119
746.460336605	128	81	64
746.487788775	144	108	50
746.557210887	128	108	64
746.559971415	144	101	31
746.627303678	144	81	112
746.62786433	144	82	107
746.63191523	128	101	64
746.658035715	128	82	64
746.679323157	144	108	52
746.693609382	128	81	64
746.735769235	144	101	29
746.736459306	128	108	64
746.802911715	144	82	105
746.805097461	144	108	52
746.822801857	128	82	64
746.831186166	128	101	64
746.846438393	128	89	64
746.884084184	128	108	64
746.919317261	144	101	28
746.935868451	144	82	101
746.945044056	144	66	18
746.95834125	128	82	64
746.975141157	144	108	56
746.978513402	128	66	64
747.003691752	128	101	64
747.035455462	128	108	64
747.101743805	144	82	102
747.124194437	128	82	64
747.148116267	144	101	27
747.149173037	144	66	26
747.154161211	144	108	57
747.177465445	128	101	64
747.178578474	144	81	103
747.199815611	128	66	64
747.223687935	128	108	64
747.234812889	128	81	64
747.242066715	128	34	64
747.269320625	144	82	116
747.319582383	144	89	37
747.323501878	128	89	64
747.326452425	144	101	27
747.327269612	144	108	58
747.346646076	128	82	64
747.354236509	128	101	64
747.367345542	128	108	64
747.379386217	144	81	110
747.409715788	128	81	64
747.469535797	144	82	109
747.48485372	144	108	60
747.499959444	144	101	27
747.507195946	128	82	64
747.509796929	144	66	37
747.510639644	128	74	64
747.527412423	128	101	64
747.529114838	144	34	73
747.533663772	128	108	64
747.551879049	128	66	64
747.58948924	144	81	94
747.593280622	128	81	64
747.615989892	144	82	108
747.635492422	144	108	62
747.657473426	128	82	64
747.671290619	144	101	27
747.7067849	128	108	64
747.712807666	144	66	42
747.714527359	128	101	64
747.751823853	128	66	64
747.77356259	144	89	123
747.78284957	144	82	106
747.79302862	128	82	64
747.807504535	144	108	63
747.808775312	128	89	64
747.841248398	144	81	99
747.861284529	144	101	26
747.865750289	128	108	64
747.879063348	144	89	127
747.899635028	144	66	47
747.914732685	128	66	64
747.916096636	128	101	64
747.935607248	144	82	112
747.940459054	128	89	64
747.959304061	128	82	64
747.978370197	144	108	66
748.011133312	144	89	127
748.020929355	128	108	64
748.021084135	128	81	64
748.06109412	144	101	26
748.078330439	144	66	52
748.085686613	144	82	117
748.10444108	128	89	64
748.108560637	128	82	64
748.115857887	128	101	64
748.121604259	128	66	64
748.134770856	144	108	66
748.147570519	144	89	127
748.182677155	128	108	64
748.183342714	144	81	111
748.194280706	128	81	64
748.243013295	128	89	64
748.249138559	144	82	116
748.269049566	144	89	127
748.273652146	128	82	64
748.283754724	144	66	56
748.295573419	144	101	28
748.296409141	144	74	55
748.301296921	144	108	67
748.305229767	128	66	64
748.307471603	128	89	64
748.314784531	128	101	64
748.348025212	128	108	64
748.377010207	144	89	127
748.409744819	144	82	117
748.440941041	128	89	64
748.441180324	128	82	64
748.460611363	144	101	33
748.466874323	144	66	60
748.468962019	144	108	65
748.476411624	128	34	64
748.482792182	128	74	64
748.484577243	128	66	64
748.516463427	128	101	64
748.518052439	128	108	64
748.523808519	144	89	127
748.55644041	128	89	64
748.585541907	144	81	105
748.589055402	144	82	116
748.602898267	144	101	36
748.607651499	128	82	64
748.635917497	144	108	58
748.636272599	144	89	127
748.646249127	144	66	63
748.649512672	128	81	64
748.672081555	128	89	64
748.683752216	128	108	64
748.695458619	128	101	64
748.706169458	128	66	64
748.760445449	144	89	127
748.763995245	144	82	120
748.766617522	128	82	64
748.783768796	144	74	57
748.806708695	128	89	64
748.810665071	144	66	68
748.817519308	144	108	53
748.840470316	144	101	41
748.860577706	128	101	64
748.865184445	128	108	64
748.868422858	128	66	64
748.886261287	144	82	119
748.888426762	128	74	64
748.925987893	128	82	64
748.926684818	144	81	107
748.95293384	144	89	127
748.954745374	128	81	64
748.956362428	128	89	64
748.987682533	144	108	47
749.005039439	144	101	47
749.013304952	144	66	72
749.032867441	128	108	64
749.040241938	128	66	64
749.042467458	144	89	127
749.062527906	128	101	64
749.067747465	128	35	64
749.069586132	144	82	115
749.078581237	128	82	64
749.104535843	128	89	64
749.106253958	144	81	112
749.109873672	128	81	64
749.130630742	144	34	75
749.15313601	144	101	47
749.168959205	144	108	43
749.177773422	144	89	127
749.18296821	144	66	76
749.198088544	128	66	64
749.211209242	128	101	64
749.216020262	128	108	64
749.220813644	144	82	118
749.238614118	128	89	64
749.259091974	128	82	64
749.321856056	144	89	127
749.33499575	144	108	46
749.354654798	144	101	50
749.358338872	128	89	64
749.377989102	128	101	64
749.382381062	128	108	64
749.383688279	144	82	116
749.406493041	144	66	81
749.407051204	128	66	64
749.409223196	128	82	64
749.427388974	144	89	127
749.471403963	144	74	64
749.485251603	128	89	64
749.48719308	144	35	84
749.504033734	144	108	48
749.519893769	144	82	112
749.521736973	144	101	61
749.544597702	144	81	97
749.551973686	128	108	64
749.560951406	144	89	127
749.561585013	144	66	89
749.57595868	128	82	64
749.582669934	128	81	64
749.596030953	128	101	64
749.604262871	128	89	64
749.610050545	128	66	64
749.669304897	144	108	53
749.674615459	144	101	63
749.676742025	144	89	127
749.699078149	144	82	112
749.72339598	144	66	92
749.725719739	144	81	107
749.725896298	128	82	64
749.740578421	128	108	64
749.743629634	128	81	64
749.751823466	128	66	64
749.752746537	128	89	64
749.765582251	128	101	64
749.83561005	144	101	67
749.843273149	144	108	57
749.852423621	144	82	112
749.894301272	128	82	64
749.900517741	128	108	64
749.90866268	144	81	110
749.913284363	144	66	99
749.914716316	128	81	64
749.916675141	144	89	127
749.931796976	128	101	64
749.960156239	128	66	64
749.984824694	128	89	64
750.003643215	144	108	59
750.015914923	144	81	108
750.01930108	144	101	67
750.029495528	144	82	109
750.043054679	128	82	64
750.058026269	144	66	103
750.067627722	128	108	64
750.077592925	128	81	64
750.078645125	128	101	64
750.120590588	128	66	64
750.12945839	144	89	127
750.167686327	128	89	64
750.17318463	144	101	70
750.176324004	144	82	111
750.185589681	144	108	58
750.209418309	128	82	64
750.22880984	128	101	64
750.231449392	128	108	64
750.251176325	144	89	127
750.273238036	144	66	109
750.291809118	128	66	64
750.305299261	128	89	64
750.324074838	144	101	75
750.332269542	144	82	113
750.339195162	144	108	59
750.362877852	144	89	126
750.379160391	128	82	64
750.381383682	128	101	64
750.393877258	144	66	114
750.415424965	128	108	64
750.448573293	128	66	64
750.45633507	128	89	64
750.469573804	144	101	77
750.493151902	144	89	126
750.499290227	144	82	108
750.509946096	144	46	46
750.51408908	144	108	61
750.514726099	128	46	64
750.515466931	128	101	64
750.543580467	128	82	64
750.571854933	128	89	64
750.572387661	128	108	64
750.577406316	144	81	108
750.57850207	128	81	64
750.586747973	144	46	46
750.602162016	144	101	80
750.613251386	144	81	84
750.625109096	128	74	64
750.627111553	144	89	127
750.629897006	128	46	64
750.642524176	128	34	64
750.660643829	128	101	64
750.670125824	144	82	109
750.687970085	144	108	60
750.699682814	144	46	47
750.70543875	128	89	64
750.708277269	128	82	64
750.73330626	128	108	64
750.741388943	144	101	87
750.746458873	128	46	64
750.756871484	128	81	64
750.777694606	144	52	1
750.797938061	128	101	64
750.815119332	144	46	47
750.829712771	144	82	105
750.853165179	144	108	64
750.876128845	144	101	95
750.878369698	128	82	64
750.898882354	128	108	64
750.90093224	128	35	64
750.902975597	144	81	101
750.910092211	128	81	64
750.912351692	128	46	64
750.93162297	128	101	64
750.978729016	144	81	96
750.979959216	144	82	103
750.983867423	144	46	54
751.019063593	144	108	65
751.020011323	144	101	102
751.043267839	128	82	64
751.046120851	128	46	64
751.066986073	128	52	64
751.067119643	128	108	64
751.071147678	128	101	64
751.116840109	144	46	59
751.12630686	128	81	64
751.147030109	144	81	103
751.149529585	144	82	105
751.171087996	144	108	66
751.174462194	144	101	107
751.178800429	128	46	64
751.19385846	128	82	64
751.215805692	128	108	64
751.226149281	128	81	64
751.227782673	128	101	64
751.230503327	144	34	75
751.245282205	144	81	90
751.25289661	144	46	61
751.296429901	128	46	64
751.29667824	144	82	106
751.338088981	144	108	62
751.345311105	128	82	64
751.365154374	144	89	1
751.372112235	144	101	115
751.383296753	144	46	60
751.388800555	128	81	64
751.402569145	128	89	64
751.407823327	128	108	64
751.41435102	128	101	64
751.430396434	128	46	64
751.473444779	144	101	127
751.490635119	144	108	56
751.532120453	144	46	57
751.577929758	128	46	64
751.721438884	144	46	60
751.727806694	128	46	64
751.739708062	144	35	74
751.762878354	128	108	64
751.792760202	144	108	53
751.81579099	144	46	57
751.861348008	128	46	64
751.88450112	128	35	64
751.88488144	128	108	64
751.97737016	128	101	64
751.97753806	144	101	65
751.977607265	128	101	64
751.988480674	144	108	51
752.006731856	144	101	35
752.018762139	144	52	25
752.06794603	128	108	64
752.129147694	128	52	64
752.153090719	128	101	64
752.173607526	144	108	50
752.18924115	144	101	35
752.232364442	128	108	64
752.243132444	128	34	64
752.264704874	144	35	75
752.356599668	144	108	49
752.42316191	128	108	64
752.518688067	144	108	49
752.535224323	128	35	64
752.583938973	128	108	64
752.702386978	144	108	47
752.763829305	144	34	50
752.773531546	128	108	64
752.818072683	128	34	64
752.832815059	144	82	96
752.843369715	144	81	91
752.849531011	128	89	64
752.856957035	144	35	75
752.877006929	144	108	45
752.898421589	128	81	64
752.911571984	128	82	64
752.933898006	128	108	64
753.051659806	144	108	40
753.085312573	128	35	64
753.12336224	128	108	64
753.227184825	144	108	40
753.284666653	128	108	64
753.296066828	144	66	29
753.40172499	144	108	36
753.405967433	144	35	76
753.473617046	128	108	64
753.504112347	144	52	52
753.573536619	144	108	35
753.623181785	128	108	64
753.655107283	128	35	64
753.743982456	144	108	32
753.769482852	128	66	64
753.805774601	128	108	64
753.818910343	128	52	64
753.90421374	144	108	38
753.906314638	144	81	90
753.916018917	144	82	106
753.938668265	144	35	77
753.946687922	128	81	64
753.97036863	128	82	64
753.974501178	128	108	64
753.99715416	144	34	97
754.092322149	144	108	45
754.137165542	128	108	64
754.140987681	128	34	64
754.201804329	128	35	64
754.237531167	144	108	53
754.300999634	128	108	64
754.315705237	144	82	109
754.326271238	144	81	97
754.352617332	128	52	64
754.36423839	128	81	64
754.378931353	128	82	64
754.419959737	144	108	56
754.493154555	128	108	64
754.511913554	144	35	78
754.59629079	144	108	61
754.65104734	128	108	64
754.717056651	128	35	64
754.731477924	144	82	107
754.747504783	144	66	26
754.751943502	144	108	66
754.753079094	144	81	92
754.76900181	128	101	64
754.781488192	128	82	64
754.791138675	128	81	64
754.799782515	128	66	64
754.838122084	128	108	64
754.90368399	144	66	36
754.923294458	144	108	68
754.930691881	144	101	27
754.968639605	128	66	64
754.981966002	128	101	64
755.00073131	128	108	64
755.057282058	144	35	77
755.07145213	144	66	42
755.108913385	144	108	68
755.116362903	128	66	64
755.119030522	144	81	93
755.131723292	144	82	106
755.160490048	144	101	28
755.160942269	128	81	64
755.163146301	128	101	64
755.164061203	128	82	64
755.171248475	128	108	64
755.26288058	144	66	47
755.272206361	128	66	64
755.272741026	144	108	71
755.335488302	128	35	64
755.341598859	128	108	64
755.443521596	144	108	71
755.445625736	144	66	54
755.458151935	128	66	64
755.502087688	128	108	64
755.516157716	144	82	108
755.527906741	144	81	97
755.54748771	128	82	64
755.551288599	128	81	64
755.551817206	144	46	58
755.603520375	144	108	74
755.604484221	144	66	60
755.60599623	128	66	64
755.613523491	128	46	64
755.622285411	144	35	76
755.682040645	128	108	64
755.751068707	144	66	66
755.751772395	128	66	64
755.790981995	144	108	76
755.833402004	128	108	64
755.860410433	144	101	1
755.884997208	144	82	105
755.894042869	144	81	97
755.896048036	144	66	72
755.900082243	128	35	64
755.907589072	144	46	54
755.91451586	128	82	64
755.915259563	128	66	64
755.915490497	128	81	64
755.960401531	128	101	64
755.967565827	144	108	77
755.992627048	144	64	75
756.005493208	144	66	75
756.012294989	128	46	64
756.016470455	128	108	64
756.036755159	128	64	64
756.068611441	128	66	64
756.135102459	144	108	79
756.155801695	144	66	80
756.173536463	144	35	76
756.184937146	128	108	64
756.218672146	128	66	64
756.26839613	144	82	102
756.277183352	144	81	94
756.28190153	144	46	57
756.294342735	128	81	64
756.298022909	128	82	64
756.300141405	144	108	80
756.314601756	144	66	83
756.348669246	128	108	64
756.348805814	128	66	64
756.40230031	128	35	64
756.472470562	128	46	64
756.483369737	144	108	82
756.494098152	144	66	89
756.503414464	128	66	64
756.53431535	128	108	64
756.604551434	144	66	93
756.63051365	144	34	127
756.633729822	144	82	102
756.645079202	144	81	92
756.652003708	144	108	83
756.666928516	128	82	64
756.667293092	144	64	72
756.674979082	128	66	64
756.678845641	144	46	95
756.700654435	128	108	64
756.712008036	128	64	64
756.736705731	128	34	64
756.738277313	128	81	64
756.753747552	144	66	98
756.756328666	144	35	78
756.816578914	144	108	83
756.828645578	128	66	64
756.857148461	128	46	64
756.867480267	128	108	64
756.935006564	144	66	103
756.967835781	128	66	64
756.985688871	144	108	84
757.01279653	144	82	108
757.027206487	144	81	99
757.033260415	128	108	64
757.033510634	128	35	64
757.048235293	128	82	64
757.051481422	128	81	64
757.05790169	144	66	107
757.062957353	144	46	103
757.107246335	128	66	64
757.14446114	144	64	75
757.150432642	144	108	84
757.198101545	128	64	64
757.201002051	128	108	64
757.204078658	144	66	112
757.254042051	128	66	64
757.271839997	128	46	64
757.283990494	144	35	77
757.319518826	144	108	84
757.354214319	144	66	116
757.365225326	128	108	64
757.385458741	128	66	64
757.39139469	144	82	111
757.393210315	144	81	102
757.405125321	144	46	119
757.411145917	128	81	64
757.430326974	128	82	64
757.486457151	144	108	85
757.500255116	144	64	74
757.53320382	128	108	64
757.552309156	128	35	64
757.572783857	128	64	64
757.643036509	128	46	64
757.651189729	144	108	84
757.701266926	128	108	64
757.740530716	144	82	109
757.761425427	144	81	98
757.787607391	144	46	127
757.799242819	128	82	64
757.802061444	144	108	77
757.831585448	128	81	64
757.838868528	144	35	78
757.874048233	128	108	64
757.892642295	128	101	64
757.917563653	144	64	82
757.925568847	128	64	64
757.965898718	128	46	64
757.994149094	144	108	67
757.997798933	144	34	126
758.031866569	128	108	64
758.101325631	128	35	64
758.11684384	144	82	111
758.132311354	144	46	127
758.144571069	144	81	101
758.152965997	144	108	61
758.162913398	128	82	64
758.166814967	128	81	64
758.175202844	128	34	64
758.200673649	128	108	64
758.284549277	144	64	82
758.301158532	144	108	61
758.337185159	144	35	78
758.349334078	128	108	64
758.349489532	128	64	64
758.372593578	128	46	64
758.415247617	128	74	64
758.485396113	144	108	58
758.48727818	144	46	127
758.501827959	144	81	103
758.513231912	144	82	114
758.516079334	128	108	64
758.544642253	128	81	64
758.566717266	128	82	64
758.577826647	128	35	64
758.642457348	144	64	80
758.651158202	144	108	56
758.681936353	128	108	64
758.700856401	128	64	64
758.742000682	128	46	64
758.804258704	144	108	51
758.854742719	128	108	64
758.854968079	144	46	127
758.873681969	144	35	79
758.875754992	144	82	117
758.895390751	144	81	106
758.930903155	128	82	64
758.931480481	128	81	64
758.962198604	144	64	81
758.985506107	144	108	55
759.016398225	128	64	64
759.032654268	128	108	64
759.055599993	128	46	64
759.144404789	128	35	64
759.14928585	144	108	58
759.198706432	128	108	64
759.256405907	144	46	109
759.26498232	144	82	114
759.277620345	144	81	107
759.294637324	144	64	80
759.316381797	128	81	64
759.316961295	128	82	64
759.322053849	144	108	61
759.361014941	128	64	64
759.365751768	128	108	64
759.382280013	144	35	84
759.491512885	128	46	64
759.50108334	144	108	59
759.514021408	144	34	123
759.548742539	128	108	64
759.584325286	144	64	78
759.617979925	128	35	64
759.634067814	144	82	117
759.635113227	144	46	93
759.643984429	144	81	109
759.668262787	144	108	61
759.675209192	128	34	64
759.6774101	128	64	64
759.682083091	128	81	64
759.683283656	128	82	64
759.708229722	144	64	78
759.714035396	128	108	64
759.755230052	128	64	64
759.841101671	128	46	64
759.869390231	144	108	62
759.889118957	144	35	89
759.913831021	128	108	64
759.99657583	144	46	80
760.034511077	144	82	115
760.043091283	144	81	106
760.049246759	144	108	49
760.061780466	144	64	77
760.068735161	128	35	64
760.070141705	128	81	64
760.082837263	128	82	64
760.101900402	128	108	64
760.114018674	128	64	64
760.20448572	128	46	64
760.236224308	144	108	46
760.3066604	128	108	64
760.390601749	144	82	112
760.394812188	144	46	83
760.410902912	144	81	107
760.412113904	144	108	50
760.432646612	144	64	75
760.440012309	144	35	91
760.448463672	128	82	64
760.480365355	128	81	64
760.499148781	128	64	64
760.499813958	128	108	64
760.605051761	144	108	52
760.606612546	128	46	64
760.644139573	128	35	64
760.681737983	144	34	126
760.682683235	128	108	64
760.734961124	144	64	72
760.749982427	144	46	83
760.800392255	144	82	116
760.811401224	144	108	58
760.812273399	144	81	107
760.82826164	128	81	64
760.828878267	128	64	64
760.828935197	144	64	76
760.833568369	128	82	64
760.835984635	128	34	64
760.880719857	128	108	64
760.906420019	144	35	92
761.017170327	144	108	56
761.025060226	128	46	64
761.096223852	128	108	64
761.146025571	144	66	28
761.154382404	144	82	110
761.155068767	144	81	100
761.172822474	144	46	76
761.200175364	128	66	64
761.201143348	128	35	64
761.206967003	144	108	56
761.213390832	128	81	64
761.214460833	128	82	64
761.28098927	128	108	64
761.36475105	128	46	64
761.40179328	144	108	58
761.4640725	144	34	126
761.472718326	144	46	75
761.482279233	128	108	64
761.490325668	144	35	86
761.526127451	144	82	115
761.543079424	144	81	105
761.579314858	128	64	64
761.579382134	144	64	74
761.58067631	128	81	64
761.584886741	128	82	64
761.605537356	144	108	61
761.608042754	128	34	64
761.644805564	144	66	37
761.671121374	128	66	64
761.736124536	128	35	64
761.74957006	128	108	64
761.758119592	128	46	64
761.855689542	144	46	71
761.863909802	144	108	63
761.885896245	144	82	115
761.893688857	144	81	103
761.93105893	128	81	64
761.931212499	128	82	64
761.931542454	128	108	64
761.973163987	144	35	90
762.069628274	144	108	79
762.106448897	128	46	64
762.13253149	128	108	64
762.233959628	144	82	114
762.246389564	144	34	124
762.261175631	144	81	102
762.265555961	144	66	50
762.268976283	144	108	97
762.272524855	144	46	65
762.284814895	128	35	64
762.296507328	128	81	64
762.300579375	128	82	64
762.31690741	128	66	64
762.333085548	128	108	64
762.391165316	128	34	64
762.449914759	144	108	104
762.453587881	144	57	127
762.456032086	128	46	64
762.507237209	144	35	90
762.516838387	128	108	64
762.619422284	144	82	114
762.622139769	144	108	109
762.628927283	144	81	101
762.665466786	128	82	64
762.678162185	128	81	64
762.697647882	128	108	64
762.74705336	144	66	60
762.785420996	128	66	64
762.785678324	128	35	64
762.822210895	144	108	113
762.840348912	128	64	64
762.87290945	144	46	78
762.881960456	128	108	64
762.980986213	144	34	120
762.993695991	144	82	112
763.004486928	144	64	75
763.010828339	144	81	98
763.018062912	144	108	113
763.022747403	128	46	64
763.040248668	144	35	88
763.049667055	128	81	64
763.049969624	128	82	64
763.06395553	128	108	64
763.069453724	128	34	64
763.085920649	128	64	64
763.184830536	144	108	115
763.228777629	144	66	72
763.250257265	128	108	64
763.26877972	128	66	64
763.369110446	144	108	117
763.388159361	144	82	110
763.393685857	144	81	99
763.422083882	144	46	77
763.430709207	128	81	64
763.434009312	128	35	64
763.435068167	128	82	64
763.439918045	128	108	64
763.440170824	144	64	74
763.528825077	128	64	64
763.553164494	144	108	117
763.606320097	144	35	87
763.616800179	128	108	64
763.622297494	128	46	64
763.712002062	144	66	83
763.73044352	144	34	118
763.732983963	144	108	123
763.751976248	128	66	64
763.769610833	144	82	109
763.794266329	144	81	102
763.797592538	128	108	64
763.819082292	128	34	64
763.83090232	128	81	64
763.835555541	128	82	64
763.860549041	128	35	64
763.91708577	144	108	119
763.963775276	128	108	64
764.014717642	144	46	81
764.089985844	144	35	91
764.118060782	144	108	124
764.119984364	144	82	111
764.148012397	144	81	103
764.149509225	128	108	64
764.181260271	128	81	64
764.187497031	128	82	64
764.212699155	128	46	64
764.220821739	144	66	91
764.254556744	128	66	64
764.318100019	144	108	127
764.352594043	128	35	64
764.363055617	128	108	64
764.415421382	144	34	118
764.48637886	144	82	107
764.494990713	144	46	76
764.495425023	144	81	99
764.515898454	144	108	124
764.536024143	128	34	64
764.544142724	128	81	64
764.546954083	128	108	64
764.553008708	128	82	64
764.57324237	144	35	91
764.667742555	144	108	120
764.71081267	144	66	100
764.71310378	128	108	64
764.751758815	128	66	64
764.758452538	128	46	64
764.853532297	144	82	110
764.858093575	144	108	121
764.860503403	144	81	105
764.883356389	128	35	64
764.911710357	128	81	64
764.914109101	128	108	64
764.917150763	128	82	64
765.034715554	144	108	122
765.073228821	144	35	91
765.104203328	128	108	64
765.131297614	144	34	121
765.132570083	144	46	89
765.203606406	144	82	109
765.203752653	144	81	102
765.240169459	144	108	122
765.259872555	144	66	108
765.264250322	128	81	64
765.265626808	128	66	64
765.267551962	128	82	64
765.286477024	128	34	64
765.287466916	128	108	64
765.288212496	128	46	64
765.418967886	144	108	124
765.46129747	128	35	64
765.467569324	128	108	64
765.570367677	144	82	104
765.581755239	144	81	100
765.599512189	144	108	126
765.621585095	128	82	64
765.624010974	144	35	90
765.629087346	128	81	64
765.65019832	128	108	64
765.762493178	144	66	116
765.768639385	144	108	126
765.781251509	128	66	64
765.833786873	128	108	64
765.914349784	144	34	121
765.951238369	128	35	64
765.965222237	144	64	72
765.968485598	144	108	126
765.970320566	144	82	107
765.979388441	144	81	102
766.001733879	128	34	64
766.014031226	128	81	64
766.019627578	128	82	64
766.019988428	128	57	64
766.020762476	144	21	121
766.029995807	144	27	91
766.033361274	128	64	64
766.039126502	128	108	64
766.139180824	144	35	89
766.153414237	144	108	127
766.17039375	144	57	127
766.19717261	128	108	64
766.23579464	128	57	64
766.334940521	144	108	125
766.337879714	144	66	126
766.351612207	128	66	64
766.380766083	128	108	64
766.435460781	128	35	64
766.501854247	144	57	127
766.518066914	144	108	127
766.563385892	128	108	64
766.569591973	128	57	64
766.648522698	144	34	119
766.661900675	144	35	90
766.720113394	144	64	72
766.734364893	144	108	127
766.739111051	128	21	64
766.755018089	128	34	64
766.798853512	128	64	64
766.798963924	128	108	64
766.909794304	128	27	64
766.90989671	144	27	1
766.917862637	144	108	127
766.928008108	144	57	127
766.965243456	128	57	64
766.965813719	128	108	64
766.968737213	128	35	64
767.099073662	144	108	127
767.135751478	128	108	64
767.155181492	144	35	90
767.16179536	144	66	22
767.20275654	128	66	64
767.231163583	144	21	121
767.266270904	144	108	126
767.287947272	128	27	64
767.31037048	144	57	127
767.314781033	128	108	64
767.346127891	128	57	64
767.433087611	144	34	127
767.450837917	144	108	127
767.49290636	144	64	72
767.494835524	144	66	32
767.496143007	128	108	64
767.518887931	128	35	64
767.528432308	144	27	95
767.535259151	128	66	64
767.535852569	128	34	64
767.55707014	128	64	64
767.594903029	144	82	102
767.604239358	128	82	64
767.610615997	144	81	87
767.628022524	128	81	64
767.650636298	144	108	127
767.708469185	144	57	100
767.712375732	128	108	64
767.740267375	144	35	91
767.761907694	128	57	64
767.795926884	144	66	38
767.81508706	128	66	64
767.826691743	144	82	116
767.852371138	144	108	127
767.861208805	144	81	93
767.867994068	128	82	64
767.883458832	128	81	64
767.918067872	128	108	64
767.99507676	128	21	64
768.029439072	144	82	122
768.034939525	144	108	123
768.03664212	144	81	100
768.044691035	128	35	64
768.06267268	128	81	64
768.067275816	144	66	47
768.067594819	144	57	74
768.070386324	128	82	64
768.095947301	128	108	64
768.117575394	128	66	64
768.119594241	128	57	64
768.200018937	144	34	127
768.229514457	144	82	124
768.2389992	144	35	89
768.249980668	144	108	127
768.260580282	144	81	111
768.29566723	128	81	64
768.303537261	128	82	64
768.316318261	128	108	64
768.344032572	128	34	64
768.359622264	128	27	64
768.389743427	144	66	56
768.403787475	128	66	64
768.432914194	144	64	74
768.446236272	144	82	127
768.446547534	144	57	63
768.454925728	128	64	64
768.458542724	144	108	127
768.461510456	144	81	120
768.486911035	128	35	64
768.494928693	128	81	64
768.500044534	128	57	64
768.502398853	128	82	64
768.512833024	128	108	64
768.537590275	144	21	115
768.647046417	144	82	119
768.666061075	144	108	127
768.679396207	144	81	105
768.67957771	144	66	64
768.69556972	128	81	64
768.701591203	144	46	85
768.702127495	128	82	64
768.719715815	128	66	64
768.733700285	128	108	64
768.733868092	128	46	64
768.756633312	144	35	88
768.844524784	144	57	62
768.86309894	144	82	123
768.867047091	128	57	64
768.884826771	144	108	127
768.896657365	144	81	111
768.917425574	128	81	64
768.921662293	128	82	64
768.930831395	128	108	64
768.932469551	144	46	91
768.946121103	144	66	72
768.963393584	128	46	64
768.9645632	144	34	127
768.999695553	128	66	64
769.019449437	128	35	64
769.072952617	144	46	94
769.095107405	144	82	123
769.100832772	144	108	127
769.137264899	144	81	109
769.143787348	128	34	64
769.145997121	128	108	64
769.146229291	128	46	64
769.1499232	128	81	64
769.15316832	128	82	64
769.175648027	128	21	64
769.245065308	144	66	81
769.256857428	144	35	89
769.274125063	128	66	64
769.310629814	144	57	63
769.312986913	144	82	127
769.317631545	144	108	127
769.333604739	128	57	64
769.344549886	144	81	118
769.369757474	128	82	64
769.374052562	128	27	64
769.381115654	128	81	64
769.384082508	128	108	64
769.436220337	144	57	65
769.478030198	128	57	64
769.506104984	144	66	91
769.525569587	144	82	127
769.534142522	144	108	127
769.561082131	144	81	119
769.565912442	144	57	66
769.568925897	128	66	64
769.595296347	128	81	64
769.596438095	128	108	64
769.603035012	128	82	64
769.617006842	128	57	64
769.664577937	144	21	123
769.668955986	128	35	64
769.681511767	144	34	127
769.684395837	144	57	68
769.748489306	128	57	64
769.759004839	144	82	124
769.77827779	128	82	64
769.778339021	144	82	103
769.793979605	144	81	111
769.814314956	144	35	88
769.816935657	128	81	64
769.820149407	128	82	64
769.836966337	144	57	68
769.837185416	128	34	64
769.84507364	144	66	100
769.88620306	128	66	64
769.89986097	128	57	64
769.959331219	144	57	68
769.976425362	144	82	127
770.010762968	144	81	111
770.011668747	128	57	64
770.037608693	128	81	64
770.038489803	128	82	64
770.068073061	128	35	64
770.085649185	144	57	68
770.128305028	144	66	108
770.144260991	128	57	64
770.169058435	128	66	64
770.193635533	144	82	127
770.203429431	144	57	68
770.212587941	144	81	111
770.246362838	128	81	64
770.254385784	128	82	64
770.279377461	128	57	64
770.290375475	144	35	90
770.339705113	144	108	127
770.365771473	128	108	64
770.379729533	128	21	64
770.409448041	144	82	123
770.430750004	144	81	109
770.438854493	144	66	118
770.470307203	128	82	64
770.472208602	128	81	64
770.485935282	128	66	64
770.494181908	128	35	64
770.497978912	144	34	127
770.595173882	144	57	68
770.602090697	128	34	64
770.609733628	144	82	116
770.641046478	144	81	105
770.679178506	128	81	64
770.685995412	128	82	64
770.745140954	144	66	125
770.756417548	144	35	89
770.785186661	128	66	64
770.809509334	144	82	118
770.845102103	144	81	111
770.881893527	144	21	112
770.882629381	128	81	64
770.886566585	128	82	64
770.912782508	128	57	64
770.950268113	144	108	125
770.96916279	128	108	64
771.010891178	144	46	98
771.018387934	128	35	64
771.026738782	144	82	120
771.028206817	144	66	127
771.033549676	128	46	64
771.033912436	144	108	124
771.044759957	144	81	112
771.053519559	128	108	64
771.056901501	144	57	68
771.080312292	128	81	64
771.086006807	128	82	64
771.087462231	128	66	64
771.198737927	144	34	127
771.215738405	144	35	90
771.22363472	144	82	119
771.237120227	144	81	108
771.296244348	128	81	64
771.303022794	128	82	64
771.360878548	128	34	64
771.368390125	128	57	64
771.442909899	144	82	120
771.468039963	144	57	69
771.478157564	144	81	109
771.506335936	128	82	64
771.510193211	128	21	64
771.513717052	128	81	64
771.541901861	144	22	96
771.54976742	128	35	64
771.660566911	144	82	119
771.678599093	128	22	64
771.695469996	144	81	104
771.730432723	128	81	64
771.738016259	128	82	64
771.789541872	144	35	88
771.876980569	144	82	117
771.893970094	144	81	103
771.930954885	128	81	64
771.938266152	128	82	64
771.961442952	144	21	104
771.982378869	144	22	102
772.002614145	128	35	64
772.015569308	144	34	127
772.01843928	128	57	64
772.046085638	128	66	64
772.073052891	144	82	116
772.073381701	128	108	64
772.074812348	144	81	104
772.115157755	128	22	64
772.118796055	128	34	64
772.132011966	144	46	103
772.138788246	128	82	64
772.145437236	128	81	64
772.216630811	128	46	64
772.256627011	144	35	91
772.294371268	144	82	114
772.304377413	144	81	103
772.343744527	144	22	101
772.350237275	128	81	64
772.354975681	144	46	103
772.356378134	128	82	64
772.413786055	128	46	64
772.510282429	144	82	115
772.52772526	144	81	102
772.533172231	128	22	64
772.534287472	128	35	64
772.558028699	144	46	110
772.572399057	128	82	64
772.579351779	128	81	64
772.702006059	144	22	101
772.744055488	144	82	115
772.757384316	144	35	88
772.792541281	128	21	64
772.875360293	128	46	64
772.876805415	128	22	64
772.914611505	144	34	127
772.921039059	128	82	64
772.937911872	144	81	107
772.985392825	128	34	64
773.053804148	128	35	64
773.082175911	128	81	64
773.090902089	144	82	99
773.091862188	144	22	104
773.107037288	144	57	66
773.162419816	128	57	64
773.232938584	144	35	89
773.236185233	128	82	64
773.240446408	128	22	64
773.252459478	144	81	92
773.282819892	144	46	97
773.319498458	144	21	104
773.363820224	128	81	64
773.396982704	144	82	106
773.490534259	144	22	104
773.530831064	128	82	64
773.56121645	144	81	99
773.573789162	144	57	66
773.591732548	128	46	64
773.596278229	144	84	66
773.596719971	128	84	64
773.600699309	128	35	64
773.616141849	128	57	64
773.645961287	128	81	64
773.670094462	128	22	64
773.686431375	144	82	116
773.741711973	128	82	64
773.773459882	144	35	89
773.809922979	144	22	102
773.841698709	144	82	112
773.861817529	144	81	97
773.883308187	128	81	64
773.891650185	128	82	64
773.912146221	128	21	64
773.960817437	144	82	113
773.984504242	144	81	104
773.985706912	128	22	64
774.003927122	128	82	64
774.006241662	144	46	84
774.006433546	128	81	64
774.028112553	128	35	64
774.031557695	144	57	67
774.067112771	144	22	101
774.098326073	144	34	127
774.101803798	144	81	108
774.10940652	128	57	64
774.129726396	128	81	64
774.16882023	128	34	64
774.194342161	128	22	64
774.232691733	144	35	90
774.237131564	144	22	100
774.25312931	144	81	110
774.275629511	128	81	64
774.337813639	128	22	64
774.401990004	144	22	100
774.41019005	128	46	64
774.419005474	144	81	109
774.436296149	128	81	64
774.490578303	144	57	89
774.511681223	128	35	64
774.523703532	128	22	64
774.534309118	144	81	104
774.542850913	144	82	122
774.54956611	128	57	64
774.562430234	128	81	64
774.575102401	144	22	99
774.575299873	128	82	64
774.683775672	144	82	123
774.689641284	128	22	64
774.706980522	128	82	64
774.711640488	144	81	108
774.713190137	128	81	64
774.723429477	144	46	103
774.756541899	144	22	100
774.82363907	144	35	86
774.830026614	144	82	123
774.857232568	144	81	109
774.863693075	128	81	64
774.872644804	128	22	64
774.874541892	128	82	64
774.930846713	144	21	1
774.937403071	144	57	95
774.940679875	144	22	100
774.98184233	128	57	64
774.982104907	144	81	108
774.982858205	144	82	123
775.005181653	144	84	68
775.007469194	128	82	64
775.012913735	128	81	64
775.057360441	128	22	64
775.061416982	128	35	64
775.108293693	128	46	64
775.116512959	144	82	117
775.116690375	144	81	104
775.122768536	144	22	100
775.146514871	128	81	64
775.156447848	128	82	64
775.241435261	128	22	64
775.244645614	144	82	127
775.251085528	144	81	112
775.258364081	128	84	64
775.282325948	144	35	87
775.297803225	128	81	64
775.303674842	144	22	100
775.309097108	128	82	64
775.398474653	144	82	125
775.402785314	144	81	113
775.429842083	128	22	64
775.45144702	128	81	64
775.457070208	128	82	64
775.475086011	144	46	97
775.504477864	144	22	102
775.527962017	144	82	127
775.534581714	144	81	116
775.5524695	128	35	64
775.572859429	128	82	64
775.580609482	128	81	64
775.609426729	144	84	39
775.635817812	128	22	64
775.637503001	128	21	64
775.663670491	144	57	96
775.66406264	144	82	127
775.668258535	144	81	114
775.699325353	144	22	105
775.713979754	128	81	64
775.722024663	128	82	64
775.722953918	128	57	64
775.741959289	128	46	64
775.774733691	128	84	64
775.800181918	144	81	113
775.809961076	144	82	127
775.830839717	128	22	64
775.838473839	144	35	87
775.855453697	128	82	64
775.86200615	128	81	64
775.909545323	144	22	107
775.951273252	144	81	113
775.963980392	144	82	127
775.996741652	128	81	64
776.005703965	128	82	64
776.019538328	128	35	64
776.062870855	128	22	64
776.097416375	144	82	125
776.101007515	144	81	109
776.122983851	144	22	108
776.156157148	128	82	64
776.162330059	128	81	64
776.227652993	144	46	94
776.247341047	144	82	127
776.249198674	144	81	117
776.271616998	128	22	64
776.278830623	128	81	64
776.289491475	144	35	87
776.290188883	128	82	64
776.3224082	144	22	108
776.374023709	128	46	64
776.3806805	144	82	127
776.385987194	144	57	117
776.423593011	144	81	108
776.431476869	128	81	64
776.438845258	128	82	64
776.459651833	128	22	64
776.517223653	144	81	106
776.530387631	144	82	127
776.539951136	144	22	109
776.566083013	128	81	64
776.572292867	128	82	64
776.618766835	128	35	64
776.660019189	144	82	127
776.665644922	144	81	110
776.677506612	128	22	64
776.713746426	128	81	64
776.723269806	128	82	64
776.729671891	144	22	109
776.73051235	144	21	1
776.806764885	144	35	87
776.814119509	144	82	127
776.818612453	144	81	107
776.855601856	128	22	64
776.873233278	128	82	64
776.879817336	128	81	64
776.92996708	144	22	108
776.965590472	144	82	127
776.967538068	144	81	112
777.016068062	128	81	64
777.023490347	128	82	64
777.038996839	144	64	80
777.051967713	128	22	64
777.117028566	144	82	127
777.119940253	144	81	110
777.127158265	144	22	111
777.161399558	128	35	64
777.164806061	128	81	64
777.17348103	128	82	64
777.261288254	128	22	64
777.266150992	144	35	85
777.267481564	144	81	112
777.280543646	144	82	127
777.323216682	128	82	64
777.328173216	128	81	64
777.416245601	144	81	110
777.430435074	144	82	127
777.463083485	144	22	114
777.479293888	128	81	64
777.488661967	128	22	64
777.490741749	128	82	64
777.569427539	144	22	116
777.599758449	144	82	127
777.619328692	128	35	64
777.624980917	144	81	114
777.636613983	128	22	64
777.648999186	128	81	64
777.658599338	128	82	64
777.683536288	128	84	64
777.708044552	144	22	114
777.743440714	144	82	127
777.750053959	144	81	115
777.798004402	128	81	64
777.80694879	128	82	64
777.873892007	144	35	86
777.883724995	128	22	64
777.896569739	144	82	127
777.898529074	144	22	113
777.900900026	144	81	119
777.957264257	128	82	64
777.962083802	128	81	64
778.015045126	128	22	64
778.04523333	128	35	64
778.048512377	144	81	121
778.06347524	144	82	127
778.108689579	144	22	104
778.108875545	128	82	64
778.111837088	128	81	64
778.115850617	128	57	64
778.194096786	144	82	127
778.198945112	144	81	122
778.217667641	128	22	64
778.235420828	144	22	105
778.257163512	128	82	64
778.261837665	128	81	64
778.343490993	128	22	64
778.34909465	144	81	124
778.360767808	144	82	127
778.410410307	128	82	64
778.412050612	128	81	64
778.423413702	144	35	86
778.439055521	144	22	100
778.510389975	144	82	127
778.513642467	128	22	64
778.556030608	144	81	122
778.563851837	128	81	64
778.570407903	128	64	64
778.573939512	128	82	64
778.589749592	144	22	101
778.617706072	128	35	64
778.675591892	144	82	127
778.675893226	128	22	64
778.708832334	144	81	114
778.717321654	144	22	108
778.72322389	128	82	64
778.731944949	128	81	64
778.78241664	144	57	123
778.820522039	128	22	64
778.825000238	144	82	127
778.870297079	144	22	110
778.889687159	128	82	64
778.930074438	144	81	119
778.930194065	128	81	64
778.966984545	144	35	87
778.97253315	128	22	64
779.000470072	144	82	127
779.014005458	144	64	110
779.014216302	128	64	64
779.029554904	144	22	111
779.046589823	144	81	121
779.046827978	128	81	64
779.060627495	128	82	64
779.137275887	128	22	64
779.166524155	144	82	127
779.18496006	128	35	64
779.198643189	144	22	111
779.207702654	128	82	64
779.236546776	144	81	124
779.236700166	128	81	64
779.30644973	128	22	64
779.310866249	144	82	127
779.366371676	144	22	111
779.374201452	128	82	64
779.413640653	144	81	122
779.413719939	128	81	64
779.467984351	144	35	91
779.512422763	128	22	64
779.535441232	144	22	101
779.541410256	144	64	115
779.589525394	144	81	122
779.589604073	128	81	64
779.601601396	128	64	64
779.632308223	144	81	127
779.672314786	128	35	64
779.673219967	128	22	64
779.678706079	128	81	64
779.748858522	144	22	99
779.781588851	144	81	127
779.828954656	128	81	64
779.843831805	128	22	64
779.863021187	144	22	117
779.932592869	144	81	121
779.933957458	128	22	64
779.934007278	144	22	119
779.995518025	128	81	64
780.08829169	144	35	95
780.088714388	128	22	64
780.088757786	144	22	113
780.162206651	144	81	103
780.183795008	128	81	64
780.338666609	128	57	64
780.380297483	128	35	64
780.424549052	144	31	122
780.461402709	144	64	126
780.513801596	128	64	64
780.564911013	144	34	112
780.586813293	144	35	101
780.669378176	128	34	64
780.868189982	128	35	64
780.896113982	128	22	64
780.899159299	144	57	122
781.140354037	144	35	95
781.401449214	128	35	64
781.706242874	144	35	90
781.724700895	144	22	87
782.1195212	128	35	64
782.289086617	144	35	89
782.298388678	128	64	64
782.432932837	128	22	64
782.619541593	128	35	64
782.635762695	128	57	64
782.68029216	144	22	94
782.788420229	128	22	64
782.806905294	144	35	95
783.119553755	128	35	64
783.211765157	144	57	15
783.323978191	144	35	94
783.561757598	144	46	55
783.56960832	128	46	64
783.623926972	128	57	64
783.635238717	128	35	64
783.71448847	144	46	56
783.767394855	144	57	24
783.781544391	128	46	64
783.875017143	144	35	94
783.894576925	144	25	110
783.964216638	144	46	70
783.975253379	128	31	64
784.123057337	128	57	64
784.226351069	128	35	64
784.271760915	128	46	64
784.293569636	144	57	29
784.406046363	144	35	91
784.416410781	144	46	85
784.45616152	128	57	64
784.49999244	144	31	120
784.519442558	144	57	31
784.599367319	128	57	64
784.668547033	144	57	31
784.678322746	128	35	64
784.759543395	128	46	64
784.804965443	128	25	64
784.839928317	144	46	109
784.95751183	144	35	91
785.024691546	128	46	64
785.029730063	144	25	92
785.072673131	144	22	106
785.114715981	144	81	36
785.120052057	128	57	64
785.165385799	128	81	64
785.220336479	144	57	37
785.237922046	128	25	64
785.292594158	128	31	64
785.301832378	128	35	64
785.489784669	144	35	89
785.4907476	144	31	117
785.571838246	128	22	64
785.58351607	144	25	99
785.681805356	128	46	64
785.7390717	128	57	64
785.76410296	128	25	64
785.782284654	144	82	87
785.800460721	128	82	64
785.801787349	128	35	64
785.819603852	144	57	44
785.889501489	144	81	82
785.96599641	128	81	64
785.997875317	144	35	91
786.106792387	144	22	100
786.163774294	128	57	64
786.181069855	144	82	120
786.213473071	128	82	64
786.325646012	144	57	49
786.374368849	128	31	64
786.385357953	128	35	64
786.541412629	144	34	120
786.55754477	144	35	89
786.581222308	144	82	127
786.613247769	128	82	64
786.6134931	144	81	72
786.69277912	128	34	64
786.711330369	144	31	116
786.712625884	144	25	92
786.715673364	128	81	64
786.751915784	128	31	64
786.753905475	128	22	64
786.851905074	128	35	64
786.886041492	128	57	64
786.922871051	128	25	64
786.931208611	144	31	116
786.969831244	128	31	64
786.981196954	144	81	102
786.981839064	144	57	55
787.020170683	128	81	64
787.031320303	144	82	127
787.051116381	128	82	64
787.055757924	144	35	90
787.094458609	144	25	70
787.154970482	128	25	64
787.181018067	144	22	100
787.31178201	144	25	62
787.379606382	128	25	64
787.399124122	128	35	64
787.466983914	128	57	64
787.474623638	144	82	127
787.529383606	128	82	64
787.546579492	144	25	73
787.549416637	128	25	64
787.563210995	144	31	117
787.567010586	144	57	61
787.57376793	144	35	91
787.579627878	144	81	58
787.670413271	128	81	64
787.711714732	144	25	79
787.711913668	128	57	64
787.779418852	128	25	64
787.782454445	144	57	63
787.862759193	128	57	64
787.915135888	128	22	64
787.923090119	144	57	64
787.951214212	128	35	64
787.958646395	128	31	64
787.963766666	144	25	81
787.966546301	144	82	127
787.977922742	128	57	64
787.99844291	128	82	64
788.014918324	128	25	64
788.066733923	144	57	65
788.096931516	144	35	91
788.112992114	144	31	117
788.113309482	144	81	94
788.132031265	128	57	64
788.167936535	128	31	64
788.178730861	144	25	89
788.181870033	144	22	100
788.200960006	128	81	64
788.280662484	128	25	64
788.359484368	128	21	64
788.410068628	128	22	64
788.452639485	128	35	64
788.5337834	144	82	127
788.549850451	128	82	64
788.646520399	144	31	117
788.657543102	144	35	89
788.680040895	144	81	59
788.70126871	128	31	64
788.748835515	128	81	64
788.952905259	128	35	64
789.140882078	144	35	90
789.322432627	128	25	64
789.367541263	144	21	127
789.385956953	144	22	105
789.444413636	128	35	64
789.488613773	144	31	113
789.571173869	128	31	64
789.65643085	144	35	90
789.714031203	128	22	64
789.823374078	144	81	63
789.913025362	128	81	64
789.968585868	128	35	64
790.173195794	144	35	90
790.273467042	144	22	97
790.365003355	144	31	110
790.376440837	128	21	64
790.413188552	144	81	61
790.482152257	128	81	64
790.524943071	144	81	86
790.586589148	128	35	64
790.615318695	128	81	64
790.633258435	128	82	64
790.650282888	128	31	64
790.683975666	144	35	90
790.779244704	128	22	64
790.927938669	144	31	108
791.002778838	128	35	64
791.062960776	144	81	76
791.135830364	128	81	64
791.138399564	144	81	109
791.187164225	144	56	126
791.207930633	144	35	90
791.230503478	128	81	64
791.339410884	144	22	98
791.485995305	128	35	64
791.593605382	128	22	64
791.63089369	144	81	74
791.700058782	128	81	64
791.720387987	144	81	104
791.739228406	144	35	89
791.782769359	144	34	118
791.793116496	144	74	41
791.814676473	128	81	64
791.852949216	128	34	64
792.018651803	128	35	64
792.076732467	128	74	64
792.257090853	144	35	91
792.292965525	144	81	75
792.299132191	144	74	74
792.347941791	128	81	64
792.369068421	144	81	103
792.492503671	128	74	64
792.512526865	128	81	64
792.544498628	128	35	64
792.5910087	144	74	83
792.684696729	128	74	64
792.805951366	144	35	90
792.868066746	144	74	88
792.87877039	144	81	70
792.932747665	128	81	64
792.969067411	144	81	102
793.028729948	128	35	64
793.065405528	128	81	64
793.359610178	144	35	89
793.407336525	128	31	64
793.498721781	144	81	66
793.574093415	128	22	64
793.584195938	128	81	64
793.601120014	144	81	101
793.603088257	128	35	64
793.697841046	128	81	64
793.714887056	144	34	116
793.858537187	144	35	91
793.962994234	144	31	112
794.105958368	144	81	69
794.182931955	128	81	64
794.201222263	128	35	64
794.204131479	144	81	102
794.347822855	128	81	64
794.389158216	144	35	86
794.436811709	128	34	64
794.556721433	128	56	64
794.702341134	128	35	64
794.739590493	144	81	66
794.819330793	128	81	64
794.836459297	128	74	64
794.838767434	144	81	100
794.906954854	144	35	90
794.914000079	128	81	64
795.218197524	128	35	64
795.364797556	144	81	74
795.400633721	128	81	64
795.451787855	144	81	108
795.456204198	144	35	88
795.530674371	128	81	64
795.744732659	128	35	64
795.836434731	144	56	127
795.93958891	144	35	89
795.996818177	144	81	96
796.037587935	128	81	64
796.0750366	144	81	117
796.224903772	128	81	64
796.319590607	128	35	64
796.330654113	144	34	112
796.473700453	144	35	89
796.502099039	128	31	64
796.573997297	144	81	68
796.604297398	144	37	97
796.609240192	144	31	113
796.640511302	128	81	64
796.648497859	144	81	119
796.698362396	128	81	64
796.787762338	144	46	54
796.809076793	128	35	64
796.928043705	128	34	64
796.983385311	144	35	91
797.034446676	128	31	64
797.149687253	144	81	70
797.227903387	128	81	64
797.230432879	144	81	113
797.258388075	128	46	64
797.289507461	144	83	45
797.338113768	128	81	64
797.352948423	128	35	64
797.354416877	128	83	64
797.388885413	128	37	64
797.43727297	144	31	113
797.51584126	144	35	86
797.653286826	144	46	53
797.678805186	144	37	90
797.730697977	144	81	70
797.783244816	128	81	64
797.805248442	144	83	76
797.806739348	144	81	110
797.886641421	128	35	64
797.900188626	128	81	64
797.926632585	128	31	64
797.940799986	128	83	64
797.968849336	128	46	64
798.072620087	144	35	88
798.213150481	128	56	64
798.271230534	144	46	53
798.324294775	144	81	78
798.359086934	144	83	127
798.37856706	128	83	64
798.378637938	144	83	43
798.401893334	128	81	64
798.402251464	128	35	64
798.425526801	144	81	114
798.515399641	128	81	64
798.552497837	128	46	64
798.56221269	144	31	113
798.587661012	128	83	64
798.606762741	144	35	89
798.848959059	144	21	54
798.881845457	144	81	70
798.88199228	144	46	51
798.925238085	128	31	64
798.929346173	144	83	118
798.955348898	128	37	64
798.958088511	128	35	64
798.993800972	128	81	64
798.993935894	144	81	111
799.064263002	128	81	64
799.141396581	144	35	90
799.141637932	128	83	64
799.25278596	128	46	64
799.466748062	144	83	114
799.494537057	128	35	64
799.5021967	144	46	50
799.505599376	144	81	67
799.584590689	128	81	64
799.608261617	144	81	106
799.673323784	144	35	90
799.707878472	128	83	64
799.758267666	128	81	64
799.827525596	128	46	64
799.927681466	128	37	64
800.002966862	128	35	64
800.04676028	144	81	63
800.086288866	144	83	103
800.100457899	128	81	64
800.136704746	144	81	107
800.190946619	144	35	101
800.214784074	128	81	64
800.287912171	128	83	64
800.31677604	144	62	98
800.419720522	128	62	64
800.429294951	128	21	64
800.551362683	128	35	64
800.561480284	144	31	114
800.575599539	144	81	63
800.623899011	144	46	52
800.664898846	128	81	64
800.697154586	144	35	97
800.701568452	144	81	106
800.74422198	144	56	58
800.753952056	128	31	64
800.774178997	144	83	91
800.798479615	128	56	64
800.804503459	128	81	64
800.804877691	128	83	64
800.898073822	144	83	55
800.951877641	128	83	64
801.019118047	128	46	64
801.086536973	128	35	64
801.213705431	144	81	70
801.272657791	144	83	106
801.274794727	144	35	100
801.28408098	128	81	64
801.295529423	144	74	59
801.306373097	144	81	108
801.3071101	128	83	64
801.352778095	128	74	64
801.359538378	144	83	60
801.362523019	144	62	100
801.37640011	144	56	65
801.382461659	128	81	64
801.388338083	144	74	78
801.424344265	144	46	52
801.460637961	128	56	64
801.464237911	144	31	114
801.482253633	128	62	64
801.539473172	128	83	64
801.543096604	128	74	64
801.543455316	144	74	60
801.616933609	128	74	64
801.641660636	128	31	64
801.669488016	128	35	64
801.673040351	144	74	82
801.750065576	128	74	64
801.75752751	144	74	60
801.797517541	144	81	63
801.872403173	128	81	64
801.872632537	144	35	100
801.884759555	144	81	109
801.900149602	128	74	64
801.913753693	128	46	64
801.958948041	144	83	94
801.965076287	128	81	64
801.970211114	128	83	64
802.00944499	144	56	66
802.054035311	128	56	64
802.128217556	144	83	65
802.128295668	128	83	64
802.220081613	128	35	64
802.222238931	144	46	36
802.311331312	144	74	70
802.351339521	128	74	64
802.35985767	144	81	73
802.387744035	128	46	64
802.406865296	144	35	97
802.433436038	128	81	64
802.45746172	144	81	120
802.461283894	144	83	105
802.48752717	144	62	106
802.496981203	144	74	71
802.535941643	128	74	64
802.549667123	144	56	64
802.579031318	128	83	64
802.579100668	144	83	70
802.592613356	128	62	64
802.595256598	128	56	64
802.601299581	128	81	64
802.62562237	144	74	68
802.657845067	144	46	40
802.67511487	128	83	64
802.6840798	128	74	64
802.695744756	128	46	64
802.753152695	128	35	64
802.829246098	144	31	113
802.849087215	144	74	69
802.868752858	128	31	64
802.871319996	144	46	39
802.935542727	128	74	64
802.945059989	128	46	64
802.981996575	144	81	66
803.027947266	144	35	97
803.054355929	128	81	64
803.059053945	144	81	117
803.086419645	144	46	42
803.09660516	144	56	64
803.10867714	144	83	109
803.122309075	128	83	64
803.165259775	128	56	64
803.16657543	144	83	95
803.200379893	128	81	64
803.237444974	128	83	64
803.362481974	144	31	113
803.370007579	128	35	64
803.565177278	144	81	69
803.616062327	144	34	96
803.622069533	144	62	105
803.624306728	144	35	100
803.629549691	128	21	64
803.631407221	144	83	110
803.63858568	128	46	64
803.656299418	128	81	64
803.656523576	144	81	113
803.66767552	128	31	64
803.674768849	128	83	64
803.688282509	144	56	66
803.69748756	128	81	64
803.74512186	128	56	64
803.749631668	144	83	98
803.761158326	128	62	64
803.78741816	128	83	64
803.985675398	128	35	64
804.11397385	144	46	40
804.132143229	144	81	86
804.182178537	144	83	116
804.189349001	128	81	64
804.192686244	144	81	116
804.224267175	128	83	64
804.22448353	144	35	99
804.245455776	144	31	115
804.247405306	144	56	66
804.28152697	128	81	64
804.285483919	128	31	64
804.298255478	144	83	91
804.306162662	128	56	64
804.354939086	128	83	64
804.553664358	128	46	64
804.585655783	128	35	64
804.613107665	144	56	63
804.657012021	144	81	97
804.705032942	128	56	64
804.738725203	128	81	64
804.744348965	144	81	126
804.778506333	128	34	64
804.787343868	144	56	78
804.80864748	144	83	117
804.815457456	144	62	99
804.824093011	144	35	96
804.851847718	128	56	64
804.854930817	128	83	64
804.888039987	128	81	64
804.927039751	144	83	93
804.941526084	144	46	39
804.942167358	128	62	64
804.964569812	128	83	64
805.165951429	128	46	64
805.236859759	128	35	64
805.248253427	144	81	102
805.315687056	144	83	111
805.348973283	128	81	64
805.35098177	144	81	126
805.35501661	128	83	64
805.432227567	128	81	64
805.442754871	144	107	127
805.449015368	144	56	67
805.449577133	144	83	82
805.473186732	144	35	100
805.488256739	128	83	64
805.501183227	128	56	64
805.540763284	128	31	64
805.681826055	144	46	53
805.818733728	128	35	64
805.866456746	144	81	86
805.925424707	144	83	105
805.933684978	128	81	64
805.957536749	128	83	64
805.977871688	144	81	123
805.987001506	128	46	64
806.038929955	144	62	103
806.049675333	144	83	81
806.051722827	144	56	78
806.066340846	128	81	64
806.075079558	144	35	99
806.08095535	128	56	64
806.092456129	128	83	64
806.148207392	128	62	64
806.28729734	144	46	53
806.465279068	144	81	88
806.486302074	128	35	64
806.522031778	128	81	64
806.524330246	144	81	122
806.525031262	144	83	108
806.560619272	128	83	64
806.570724426	128	46	64
806.615127102	128	81	64
806.706977067	144	35	95
806.71922155	144	56	81
806.749884402	144	83	82
806.750355768	128	56	64
806.788462751	144	46	54
806.808351378	128	83	64
807.015773836	144	81	121
807.203042242	128	35	64
807.22576312	144	83	100
807.244792388	128	83	64
807.258546357	128	81	64
807.308893136	144	56	86
807.323746844	144	62	95
807.346049503	128	56	64
807.397889373	128	62	64
807.424312949	144	35	96
807.506173943	128	46	64
807.632108745	144	34	90
807.767944853	144	83	114
807.795829853	144	81	126
807.806506145	128	83	64
807.867361937	128	81	64
807.893155552	144	81	76
807.901131803	144	56	78
807.903254113	128	35	64
807.946425636	128	56	64
807.952955573	144	83	115
807.953062591	128	83	64
807.953096199	144	83	99
807.973365523	128	83	64
808.000393107	128	81	64
808.012397331	144	74	51
808.124171933	144	46	47
808.138701583	144	35	94
808.257315017	128	74	64
808.296353836	128	46	64
808.320028697	144	74	58
808.39780318	144	81	123
808.451459727	128	81	64
808.459367046	144	83	106
808.474798412	144	81	73
808.481309342	128	83	64
808.485508001	144	83	91
808.500252559	128	83	64
808.512201467	144	56	82
808.527663489	128	56	64
808.545275186	128	74	64
808.548903716	128	81	64
808.579158315	144	83	81
808.594176392	128	83	64
808.594238663	144	83	101
808.607818919	128	83	64
808.619704173	144	62	103
808.620731511	144	46	45
808.625701131	144	74	67
808.633800597	144	56	85
808.68496889	128	56	64
808.685895464	128	35	64
808.713455905	128	46	64
808.728902945	128	62	64
808.797639105	144	46	45
808.860611937	128	34	64
808.861525101	128	74	64
808.880421612	128	46	64
808.907242608	144	34	92
808.922747531	144	74	73
808.96485132	144	46	46
808.986653084	128	34	64
808.990437655	144	35	101
808.999658809	144	81	120
809.050659107	144	83	107
809.061598896	128	81	64
809.062925478	128	46	64
809.066948234	144	81	69
809.073910619	128	83	64
809.113335851	144	46	47
809.154183899	144	56	85
809.178606003	128	74	64
809.200194281	128	56	64
809.210865087	128	81	64
809.213981765	128	46	64
809.219653922	144	83	96
809.219748974	128	83	64
809.219777044	144	83	104
809.24526658	144	74	89
809.262198752	128	83	64
809.275896971	144	56	82
809.296504217	144	46	46
809.333772073	128	56	64
809.362506231	128	46	64
809.430673913	144	46	45
809.500428187	128	74	64
809.511624536	128	35	64
809.540894266	144	81	117
809.572661214	128	46	64
809.592511749	144	74	104
809.612979857	144	46	46
809.632558253	128	107	64
809.689375927	128	81	64
809.689989357	144	81	71
809.69560598	128	46	64
809.696707854	144	83	87
809.69682671	128	83	64
809.696868818	144	83	90
809.711005655	128	83	64
809.733143935	128	81	64
809.756303326	144	56	80
809.78015446	144	46	47
809.797860902	128	56	64
809.824488139	144	35	98
809.844479822	128	74	64
809.851808163	144	83	86
809.866401873	128	83	64
809.866497452	144	83	92
809.875322327	128	83	64
809.878241052	144	74	119
809.883320176	144	62	104
809.894053247	144	56	79
809.92279772	128	46	64
809.947606583	128	56	64
809.966342705	144	34	127
809.970460833	128	62	64
809.985430478	128	34	64
810.248250706	144	84	122
810.266131148	128	84	64
810.282048484	144	81	126
810.286935589	144	83	93
810.295610673	128	74	64
810.300767128	128	83	64
810.337259791	128	81	64
810.337332652	144	81	70
810.369169811	128	35	64
810.396775998	144	46	45
810.429378246	128	46	64
810.434614088	144	83	103
810.434913672	128	81	64
810.456513646	128	83	64
810.493456268	144	74	78
810.544577967	144	56	79
810.571270793	128	56	64
810.632668956	144	35	96
810.679509839	144	56	79
810.722257567	128	56	64
810.724602153	144	46	45
810.797151866	128	46	64
810.844838017	144	83	111
810.876721468	128	83	64
810.892090095	144	81	125
810.930850521	128	74	64
810.939703362	144	46	45
810.981999958	144	83	113
810.995153342	128	81	64
811.000358852	144	81	64
811.012655436	128	46	64
811.025347035	128	83	64
811.087158133	144	74	32
811.099412516	128	81	64
811.113779899	144	46	45
811.196108338	128	46	64
811.202369825	128	35	64
811.207579829	144	62	98
811.218711276	144	56	81
811.260968506	128	56	64
811.263072277	144	84	117
811.280068347	144	46	46
811.286736064	128	84	64
811.338655551	128	62	64
811.36013442	144	56	80
811.362390619	128	46	64
811.413280652	128	56	64
811.429076957	144	107	123
811.445249125	144	83	120
811.446675609	144	46	47
811.462118986	128	83	64
811.523960134	144	35	91
811.529031885	128	46	64
811.550985572	144	81	123
811.562937854	128	74	64
811.585765856	144	83	119
811.607976718	128	83	64
811.613281841	144	46	47
811.621103657	128	81	64
811.623770822	144	81	72
811.659677295	144	74	54
811.695994702	128	46	64
811.716786794	128	81	64
811.838456533	144	46	47
811.879298628	128	46	64
811.936834374	144	56	82
811.945891505	144	101	51
812.019935776	144	83	114
812.031693281	128	56	64
812.062669571	128	74	64
812.063157129	128	83	64
812.132014278	144	81	122
812.147147859	144	74	64
812.154481184	144	83	110
812.169699273	144	56	78
812.169847395	128	56	64
812.17092943	144	46	47
812.192707632	128	83	64
812.235206125	128	81	64
812.23538491	144	56	77
812.235563816	128	74	64
812.249651649	144	81	69
812.286669868	128	56	64
812.298806322	128	81	64
812.302364924	128	35	64
812.339018458	128	84	64
812.417114772	144	74	74
812.616687649	144	83	104
812.617543112	144	35	92
812.625279143	144	62	105
812.63008433	128	83	64
812.705739199	128	101	64
812.716936906	144	81	122
812.736841648	144	83	100
812.744012602	128	62	64
812.745926413	128	74	64
812.75923073	128	83	64
812.772095644	128	81	64
812.789909453	144	81	69
812.80774025	144	56	83
812.827576322	128	56	64
812.865847364	128	81	64
812.9029201	144	83	102
812.92158848	144	56	82
812.927499029	128	83	64
812.963246939	128	56	64
813.322552691	144	83	97
813.330847892	144	81	124
813.346003286	144	101	53
813.36239135	128	83	64
813.384139793	128	81	64
813.406205268	144	81	71
813.413356555	144	56	82
813.461266405	128	56	64
813.469724071	144	83	98
813.51057726	128	83	64
813.548909015	144	56	80
813.549489476	128	81	64
813.602520429	128	56	64
813.64246907	144	74	74
813.720776845	128	74	64
813.928367719	128	35	64
813.931643582	144	81	127
813.942874136	144	74	77
813.979187797	144	83	95
813.99502188	128	83	64
814.004355174	128	81	64
814.00951163	144	81	68
814.034076212	144	56	83
814.035261559	128	74	64
814.072288023	128	101	64
814.088326859	144	83	89
814.098761948	128	81	64
814.12547736	144	62	99
814.129486662	128	83	64
814.141575612	128	56	64
814.162678613	144	56	84
814.220326689	128	62	64
814.233323537	144	74	82
814.241575346	128	56	64
814.565204452	144	81	127
814.589588428	144	83	116
814.611932065	128	83	64
814.617937531	128	81	64
814.65839102	144	81	65
814.678941894	128	74	64
814.728842161	144	56	82
814.734730634	144	83	123
814.742224907	128	81	64
814.775376044	128	83	64
814.777985007	128	56	64
814.802510222	144	101	60
814.846743056	144	56	80
814.855044211	128	107	64
814.892496609	144	74	78
814.904452366	128	56	64
814.986565299	128	74	64
815.050310746	144	35	47
815.129043422	128	35	64
815.200449724	144	74	83
815.22971595	144	83	113
815.24717977	128	83	64
815.316951479	144	81	119
815.338762566	128	101	64
815.372275996	144	83	111
815.401932155	128	81	64
815.411397872	128	83	64
815.418638295	144	56	79
815.444146867	128	56	64
815.503440486	144	62	107
815.537393626	144	83	112
815.53967961	144	56	80
815.560431633	128	83	64
815.581124491	128	56	64
815.591423531	128	62	64
815.62440061	144	35	104
815.696785464	128	35	64
815.929488039	128	74	64
815.930321896	144	83	117
815.962466395	128	83	64
816.016084612	144	81	114
816.021748324	144	56	78
816.049452913	144	83	116
816.073035428	128	56	64
816.101908539	128	81	64
816.108250555	128	83	64
816.146631571	144	101	61
816.171233512	144	56	77
816.173527054	144	35	37
816.220466244	144	74	89
816.228102281	128	35	64
816.229986129	128	56	64
816.312716898	144	72	126
816.345606073	128	57	64
816.352931161	128	72	64
816.58152905	144	81	124
816.612009618	128	74	64
816.619725805	144	83	120
816.657452612	144	35	67
816.678778646	128	83	64
816.704896208	144	56	79
816.714200425	128	56	64
816.728375847	128	81	64
816.728504889	144	81	65
816.745686978	128	35	64
816.753890715	144	83	120
816.755147843	128	81	64
816.762700773	144	81	122
816.774342294	128	101	64
816.810390749	128	83	64
816.833044977	128	81	64
816.850763788	144	56	79
816.871051085	128	56	64
816.893782439	144	74	89
816.931926019	144	62	107
817.064881807	128	62	64
817.156056475	144	35	32
817.229119327	128	35	64
817.233939617	144	81	124
817.269703907	128	81	64
817.271047897	128	74	64
817.276062272	144	83	126
817.291075861	144	81	59
817.316765637	128	83	64
817.375215203	128	81	64
817.380428881	144	81	119
817.410734413	144	56	82
817.416931642	144	83	126
817.447641133	128	56	64
817.448391746	128	81	64
817.475612753	128	83	64
817.495926392	144	101	105
817.529633418	144	56	79
817.56104561	144	74	89
817.583670503	144	35	34
817.593083549	128	56	64
817.736403794	128	35	64
817.882081385	144	81	116
817.894745028	128	74	64
817.923850121	128	81	64
817.956818006	144	81	59
818.000807696	144	83	118
818.004231085	128	81	64
818.004282204	144	81	110
818.009337659	128	83	64
818.073155707	144	35	37
818.082074263	128	81	64
818.09779407	144	56	82
818.11781285	128	56	64
818.122650025	144	83	117
818.152831018	144	81	114
818.172459151	128	101	64
818.177376828	128	35	64
818.178839026	128	83	64
818.187057199	144	74	91
818.210797687	144	56	80
818.215811325	128	81	64
818.271064275	128	56	64
818.312123123	144	62	109
818.433681418	144	104	51
818.433991081	128	62	64
818.463191141	128	104	64
818.533869273	144	35	36
818.553552598	128	74	64
818.618866822	144	83	125
818.623589695	144	81	112
818.643998441	128	83	64
818.692016748	128	81	64
818.695455748	144	81	58
818.719373304	128	35	64
818.735945386	144	83	124
818.755600633	144	107	15
818.758845449	144	56	82
818.763345441	128	107	64
818.76612117	128	81	64
818.776891661	144	72	121
818.787220547	144	81	108
818.794783523	128	83	64
818.806542377	128	56	64
818.810637468	144	74	90
818.843796272	128	72	64
818.866434495	128	81	64
818.875430856	144	56	83
818.880863811	144	107	15
818.912340041	144	101	38
818.929932175	128	107	64
818.966937952	128	56	64
819.033722748	144	107	13
819.05663074	144	35	37
819.079429174	128	107	64
819.086167079	144	104	50
819.09202091	128	104	64
819.181956927	144	107	14
819.18415368	144	72	111
819.200471095	128	35	64
819.216240637	128	107	64
819.218771402	128	72	64
819.229089949	128	74	64
819.264662754	144	83	120
819.266411956	144	81	112
819.315563056	128	83	64
819.334181012	144	107	18
819.334951774	128	81	64
819.357062833	144	81	61
819.364681667	128	107	64
819.387382206	144	83	123
819.408619235	144	72	104
819.432635458	128	72	64
819.438162836	128	81	64
819.440353686	144	81	108
819.444275198	128	83	64
819.483544825	144	107	23
819.488267548	128	101	64
819.504986017	144	74	86
819.510186366	144	34	39
819.511008417	128	107	64
819.532967944	144	35	37
819.53527878	128	81	64
819.632090393	144	107	24
819.652211288	144	62	111
819.681145602	128	107	64
819.701939602	128	35	64
819.73205099	144	72	95
819.737530173	144	56	81
819.759792952	128	56	64
819.767673825	128	72	64
819.797388234	128	62	64
819.797879136	144	107	24
819.832008968	128	107	64
819.882168371	144	81	106
819.899326089	144	83	119
819.930927799	128	83	64
819.946931875	128	74	64
819.954477192	128	81	64
819.958121881	144	81	54
819.965138203	144	107	28
819.994989539	128	107	64
820.003535422	144	83	115
820.016722733	144	72	89
820.02398182	144	35	39
820.052588667	144	104	85
820.054490952	128	81	64
820.054580553	128	72	64
820.059319829	144	81	102
820.062531998	128	83	64
820.068156106	128	104	64
820.114714782	144	107	32
820.129269156	144	74	86
820.13418927	144	83	120
820.145805468	128	107	64
820.147001478	144	101	64
820.149980116	128	81	64
820.179121617	128	83	64
820.18674236	128	35	64
820.267111808	144	107	35
820.294996203	128	107	64
820.416322976	144	107	36
820.466099418	128	107	64
820.517852745	144	81	102
820.556097463	144	35	38
820.567197819	144	107	38
820.568855186	144	83	124
820.591897592	144	72	78
820.592081903	128	72	64
820.596048017	128	83	64
820.597700634	128	107	64
820.618373882	128	81	64
820.620102372	144	81	58
820.637347186	144	72	73
820.645616566	128	35	64
820.672225886	128	81	64
820.677642393	128	72	64
820.683877719	144	83	122
820.693421641	144	81	98
820.696148429	128	74	64
820.722174603	128	101	64
820.740445873	144	107	41
820.749983921	128	81	64
820.751145534	128	83	64
820.772059651	128	107	64
820.851834328	144	74	89
820.860498816	144	72	66
820.868163059	144	107	43
820.891021	128	72	64
820.910490617	128	107	64
820.987362954	144	62	106
820.996850904	144	107	46
821.006695058	144	35	38
821.044277791	144	72	58
821.065411715	128	107	64
821.065601652	144	103	110
821.072332434	128	62	64
821.074239167	128	103	64
821.103736916	128	72	64
821.123539833	144	81	100
821.13860008	144	107	49
821.180581973	128	107	64
821.182715998	144	83	118
821.184651292	128	81	64
821.186793578	128	35	64
821.210573408	144	81	59
821.215373685	128	83	64
821.219956711	144	72	50
821.268934943	128	81	64
821.269019422	144	81	97
821.286550057	144	83	116
821.298328064	144	107	52
821.347272313	128	107	64
821.348933483	128	83	64
821.354546658	144	103	114
821.362285963	128	72	64
821.366488888	128	81	64
821.379588397	128	74	64
821.407405515	128	103	64
821.448460727	144	107	53
821.457512646	144	35	38
821.463537968	144	101	42
821.479082019	128	107	64
821.495872316	128	101	64
821.520372985	144	72	45
821.544190067	144	74	89
821.554643052	128	72	64
821.556492422	144	72	39
821.597771064	144	107	55
821.630306737	128	107	64
821.640984251	144	101	47
821.651477054	128	101	64
821.653941565	128	35	64
821.655446194	128	72	64
821.709910992	144	103	120
821.731316866	144	81	101
821.734569849	144	72	32
821.744087376	144	101	46
821.747770691	144	107	54
821.77397409	128	103	64
821.78625928	128	72	64
821.795928113	128	101	64
821.799442489	144	83	118
821.800363439	128	81	64
821.822148147	144	81	57
821.832215726	128	83	64
821.901198167	128	81	64
821.92204081	144	81	99
821.929059868	144	72	26
821.936478276	144	83	120
821.957624797	144	35	41
821.987232765	128	72	64
821.999673176	128	83	64
822.045784573	144	101	53
822.054492014	144	72	20
822.063387535	128	74	64
822.075769076	128	81	64
822.116955126	144	103	122
822.130265179	128	72	64
822.147904324	128	101	64
822.161558734	144	74	88
822.173385682	128	103	64
822.185971026	128	35	64
822.199939388	128	107	64
822.287680147	144	107	57
822.29653293	144	101	53
822.324590247	128	46	64
822.32959088	128	107	64
822.33336809	144	62	105
822.349331939	128	101	64
822.350271567	144	81	99
822.416648594	144	83	117
822.41817634	128	81	64
822.439541616	144	35	42
822.451894958	144	107	58
822.455143291	144	81	60
822.462026007	128	62	64
822.463893678	128	83	64
822.478936448	144	103	122
822.482450354	128	107	64
822.517696307	144	101	53
822.53892723	128	81	64
822.540169821	144	81	99
822.540607977	144	83	113
822.549516831	128	103	64
822.597080407	128	83	64
822.597654836	144	107	59
822.629840956	128	107	64
822.662258962	128	35	64
822.666346827	144	72	120
822.685543309	128	81	64
822.696839954	128	74	64
822.700679759	128	72	64
822.728043944	128	101	64
822.747608193	144	101	57
822.754127184	128	101	64
822.765174526	144	107	61
822.794089955	144	74	83
822.794261642	128	107	64
822.841187094	144	101	61
822.843106245	144	103	122
822.867357977	144	72	113
822.900748867	144	107	62
822.904957315	128	72	64
822.907128869	144	35	42
822.919506296	128	101	64
822.922849063	128	103	64
822.930768672	128	107	64
823.017129449	144	83	114
823.020952531	144	101	64
823.031464111	144	107	63
823.032980155	144	81	103
823.052602375	144	72	109
823.066822769	128	83	64
823.079810526	128	107	64
823.085693021	128	81	64
823.08640242	128	72	64
823.101475476	128	101	64
823.122116557	144	81	61
823.135609145	144	83	112
823.153479047	128	35	64
823.181812104	144	107	64
823.184538679	144	72	102
823.185544033	128	81	64
823.185580067	144	81	99
823.195895241	144	101	67
823.197974068	128	83	64
823.210657498	128	107	64
823.249435148	128	101	64
823.25309247	128	72	64
823.266998419	144	103	123
823.297704061	144	56	81
823.302854906	128	81	64
823.321273844	128	103	64
823.331906091	144	107	66
823.354672831	128	56	64
823.361556635	128	107	64
823.372042071	144	81	101
823.373108086	144	35	42
823.395965574	144	101	69
823.449469442	128	101	64
823.481246862	144	107	67
823.486380216	144	72	96
823.486449603	128	72	64
823.509018602	144	104	73
823.513429195	128	107	64
823.526652072	128	81	64
823.544598351	128	104	64
823.546750816	128	74	64
823.5958421	144	101	70
823.59710869	144	72	91
823.603152609	128	72	64
823.615497236	144	103	125
823.617504375	144	83	114
823.632129335	144	107	68
823.649932357	128	101	64
823.662861328	128	107	64
823.667821523	128	83	64
823.669825578	128	35	64
823.699172118	128	103	64
823.744089775	144	83	116
823.755229217	144	101	71
823.766746211	144	107	69
823.77630179	144	104	76
823.779660177	144	72	84
823.780755542	128	83	64
823.790406926	128	72	64
823.803201489	128	104	64
823.814809787	128	107	64
823.833279931	128	101	64
823.874712295	144	83	121
823.886316053	144	72	76
823.908025339	144	35	45
823.915167242	144	107	70
823.932292968	128	83	64
823.944258352	128	107	64
823.976052688	144	104	74
823.982926412	144	81	101
823.994995779	144	101	74
824.009342086	128	104	64
824.015327412	144	103	126
824.050827375	128	101	64
824.058040615	128	72	64
824.066172147	144	107	72
824.069390626	128	81	64
824.073520149	144	72	71
824.094492484	128	103	64
824.094741423	144	81	65
824.098992153	128	107	64
824.117995894	128	72	64
824.136055383	128	35	64
824.183057115	144	104	71
824.184486707	128	81	64
824.202783471	128	104	64
824.213237657	144	101	75
824.215239388	144	107	73
824.218730691	144	72	62
824.245468475	128	107	64
824.267167045	128	101	64
824.291558593	128	72	64
824.317713616	144	83	117
824.349818745	128	83	64
824.372151913	144	104	69
824.380559023	144	107	75
824.393989942	128	104	64
824.41258698	144	101	78
824.412832002	144	35	45
824.416845391	144	103	125
824.435601692	144	72	52
824.437674459	128	107	64
824.438046717	144	83	118
824.445279963	128	101	64
824.469753116	128	72	64
824.471373528	128	103	64
824.497240084	128	83	64
824.504240033	144	107	77
824.530448688	128	107	64
824.567243812	144	104	72
824.568778037	128	35	64
824.569569595	144	83	113
824.570118696	144	72	45
824.584710929	128	104	64
824.590264478	144	101	78
824.616481348	128	72	64
824.629732537	128	83	64
824.633108908	128	101	64
824.650212889	144	107	78
824.683149161	128	107	64
824.72084619	144	101	81
824.727050313	144	104	71
824.759873171	144	72	39
824.763244467	128	104	64
824.788917361	128	72	64
824.799298185	144	103	126
824.799740351	128	101	64
824.801622406	144	107	80
824.830629886	128	107	64
824.840690602	144	35	45
824.873740608	128	103	64
824.944936002	144	101	80
824.947603289	144	107	82
824.978832719	128	101	64
824.979376274	128	107	64
824.993444833	144	72	31
824.993953641	128	72	64
825.035351373	144	83	116
825.03593486	144	72	25
825.067464261	128	83	64
825.076258633	144	101	83
825.095324428	144	107	84
825.103711448	128	72	64
825.128617941	128	107	64
825.137993322	144	83	117
825.15010298	128	101	64
825.198573411	144	103	127
825.202835903	144	72	19
825.217193965	128	83	64
825.230350033	144	107	86
825.253947852	128	72	64
825.272012762	128	103	64
825.27708754	128	107	64
825.285199231	144	81	106
825.295314799	144	101	82
825.302680468	128	35	64
825.323307595	128	81	64
825.342362925	144	83	122
825.350533154	128	101	64
825.350737907	128	83	64
825.362958828	144	81	65
825.382206997	144	107	88
825.418588195	128	81	64
825.418779534	144	81	100
825.428186184	128	107	64
825.442640363	144	101	83
825.457980202	144	35	43
825.482838166	128	81	64
825.519951793	128	101	64
825.529966499	144	107	89
825.560268832	128	107	64
825.6180163	144	103	120
825.664303196	144	101	82
825.67145993	128	103	64
825.683267394	144	107	91
825.695940531	128	101	64
825.714354002	128	107	64
825.723414434	144	83	111
825.737059393	128	35	64
825.753118196	128	83	64
825.76669447	144	104	74
825.787490324	144	72	119
825.799714549	128	104	64
825.822521148	144	83	109
825.833608176	144	107	92
825.835837546	128	72	64
825.840964701	144	101	82
825.860757092	128	107	64
825.863189983	128	101	64
825.865996769	144	81	105
825.881225858	144	35	45
825.902864013	128	83	64
825.981136911	144	107	93
826.007578281	144	101	83
826.010687881	144	72	110
826.010915721	128	107	64
826.024692102	128	81	64
826.025145922	144	81	65
826.033761786	144	103	93
826.038156169	128	81	64
826.041620991	144	81	101
826.05242737	128	72	64
826.066437891	128	101	64
826.1372561	128	81	64
826.137556123	144	107	95
826.153485854	144	101	86
826.154710819	128	103	64
826.162422363	128	107	64
826.177856304	128	35	64
826.207361167	144	72	105
826.232685502	128	101	64
826.281405096	144	107	95
826.286912783	128	72	64
826.314573182	128	107	64
826.32831455	144	101	84
826.349372622	144	83	112
826.352005859	144	72	99
826.37145074	144	35	60
826.379988012	128	101	64
826.384150814	128	83	64
826.418971211	128	72	64
826.431003287	144	107	96
826.457863556	144	83	102
826.460470774	144	103	87
826.460878481	128	107	64
826.487532683	144	101	85
826.522312826	128	103	64
826.532449597	128	83	64
826.538279307	144	81	109
826.561568587	144	72	92
826.566810748	128	101	64
826.571715265	144	83	105
826.582238224	144	107	98
826.595231531	144	104	66
826.601864258	128	72	64
826.603479076	128	35	64
826.610523032	128	107	64
826.615704643	128	81	64
826.615782253	144	81	63
826.617402583	144	62	100
826.633083039	128	104	64
826.649258595	128	83	64
826.67030046	144	101	85
826.718581651	144	107	99
826.721002381	144	72	84
826.723131595	128	81	64
826.724174959	144	81	104
826.729677483	128	101	64
826.749365308	128	62	64
826.759983593	128	107	64
826.783839977	128	81	64
826.791110539	128	72	64
826.832500779	144	103	78
826.864488547	144	107	99
826.874493071	144	101	82
826.888655911	144	72	78
826.895114922	128	107	64
826.908278225	144	35	68
826.931205509	128	101	64
826.934502269	128	103	64
826.953861877	128	72	64
827.012002766	144	107	100
827.045746158	128	107	64
827.079175343	144	83	109
827.079458352	144	101	80
827.098005072	144	72	72
827.11241029	128	101	64
827.11322775	128	83	64
827.135464867	128	72	64
827.153041624	128	35	64
827.154965102	144	83	112
827.16501659	144	107	101
827.183547519	144	81	107
827.199288653	128	107	64
827.214332457	128	83	64
827.234581838	144	72	64
827.252342141	128	81	64
827.262192902	144	101	79
827.283153834	144	83	109
827.284979545	128	101	64
827.299045602	144	103	66
827.3015376	128	72	64
827.308466465	144	81	103
827.311113951	128	81	64
827.311159857	144	81	66
827.314449621	144	107	103
827.344067565	128	107	64
827.364602819	128	83	64
827.372351001	128	103	64
827.375003478	144	35	76
827.383182086	144	104	76
827.386501411	144	72	58
827.399451802	128	81	64
827.40288328	128	104	64
827.450616686	144	101	79
827.462489086	144	107	105
827.479114067	128	101	64
827.482156036	128	72	64
827.496282755	128	107	64
827.559432693	144	72	52
827.601578865	144	107	107
827.628883752	144	101	78
827.630666947	128	35	64
827.632492306	128	72	64
827.643837059	128	107	64
827.666520891	128	101	64
827.73495487	144	72	45
827.748795103	144	103	58
827.749037268	144	107	107
827.773498658	144	83	104
827.792861134	128	107	64
827.801277066	128	72	64
827.81275419	144	74	87
827.813670055	144	101	77
827.834539729	144	81	104
827.83483735	128	83	64
827.837381774	128	103	64
827.857450232	144	35	89
827.880635436	128	101	64
827.886260953	144	72	39
827.893207801	144	46	47
827.896096384	144	107	107
827.903772853	128	81	64
827.90562231	128	74	64
827.914798311	144	83	98
827.922170103	144	81	69
827.928966581	128	107	64
827.966539164	128	83	64
827.967047808	128	72	64
827.972388128	128	81	64
827.972460427	144	81	100
827.978059035	144	104	72
828.014418681	128	104	64
828.029037381	144	101	75
828.047337287	144	107	109
828.049154452	128	81	64
828.070086319	144	72	31
828.079009188	128	107	64
828.082578592	128	101	64
828.084927494	144	74	88
828.086976328	128	35	64
828.150176092	128	72	64
828.197984751	144	107	109
828.227683898	144	101	73
828.227804178	128	107	64
828.231804966	144	103	48
828.24562536	128	101	64
828.25356207	144	72	26
828.262250794	128	74	64
828.305101104	144	84	69
828.305405204	128	103	64
828.328949302	128	34	64
828.334031636	128	72	64
828.340956778	144	35	51
828.349335569	144	107	111
828.360710477	144	74	85
828.377479922	128	107	64
828.381384254	144	104	68
828.390391655	144	101	73
828.407356149	128	84	64
828.412544738	128	101	64
828.414653898	144	83	109
828.415203471	144	62	107
828.422760855	144	72	17
828.423287333	128	104	64
828.434346091	128	83	64
828.445823093	128	35	64
828.450980226	144	81	105
828.498769568	144	107	113
828.5006586	128	72	64
828.524163658	144	83	101
828.52824866	128	107	64
828.540680491	128	62	64
828.556571794	144	101	75
828.58121162	128	83	64
828.595330695	128	81	64
828.595942763	144	81	63
828.598409306	144	62	108
828.60304225	128	81	64
828.607255108	144	81	102
828.630444533	128	101	64
828.63839021	144	107	115
828.645890337	128	74	64
828.649751712	144	103	50
828.662005341	128	107	64
828.700339034	128	62	64
828.710498105	144	74	83
828.72230545	128	103	64
828.750891227	128	81	64
828.751511783	144	62	107
828.779738543	144	101	75
828.780480154	144	107	117
828.786642316	128	74	64
828.813938676	128	107	64
828.833547467	128	62	64
828.8402278	144	35	33
828.902145894	144	104	70
828.905672287	144	62	104
828.922128462	128	104	64
828.928913119	144	107	118
828.936181379	144	74	85
828.938224976	128	101	64
828.96400134	128	107	64
828.968685267	128	74	64
828.979526777	128	62	64
829.003023146	128	35	64
829.010801765	144	83	92
829.019427246	128	83	64
829.051172337	144	81	104
829.08136028	144	107	117
829.092693673	144	72	120
829.110707134	128	107	64
829.118885263	128	81	64
829.133358664	144	103	58
829.139238461	144	81	60
829.147842256	144	83	85
829.151931486	128	72	64
829.155097584	128	46	64
829.17929421	144	74	85
829.188441486	128	103	64
829.191329787	128	81	64
829.191364497	144	81	100
829.192028462	144	62	106
829.199056506	144	101	76
829.200770223	128	83	64
829.201233338	128	74	64
829.230814079	144	107	114
829.260400609	128	107	64
829.287886892	144	74	84
829.298250669	144	72	110
829.306253767	128	62	64
829.323382453	144	35	28
829.337431766	128	72	64
829.342098118	144	46	49
829.351398347	128	74	64
829.35897603	128	81	64
829.365770028	144	107	112
829.410352706	128	107	64
829.421739145	144	74	86
829.439548663	128	101	64
829.445784696	128	35	64
829.502565969	128	74	64
829.510046433	144	72	103
829.518822808	128	72	64
829.533035437	144	107	109
829.561153445	128	107	64
829.581443611	144	103	66
829.599599455	144	74	85
829.607000335	144	83	104
829.619638546	144	72	100
829.649360115	128	83	64
829.650665171	144	81	104
829.652059746	128	74	64
829.654876458	128	103	64
829.676367705	144	107	105
829.687417236	128	72	64
829.71206616	128	107	64
829.718914008	128	81	64
829.719153416	144	83	94
829.757786421	144	81	60
829.760171739	144	74	84
829.775242056	144	35	35
829.786931212	144	72	94
829.795598241	144	101	75
829.803938689	128	83	64
829.814102025	144	107	102
829.819709395	128	74	64
829.819883944	128	81	64
829.819947848	144	81	103
829.8596682	128	107	64
829.860169306	128	72	64
829.958401043	144	72	83
829.963257392	128	81	64
829.963647321	144	107	98
829.992987634	128	107	64
830.020463513	128	35	64
830.03456334	128	72	64
830.066204175	144	103	71
830.072858955	128	101	64
830.097013577	144	84	83
830.113847897	144	107	95
830.120604019	144	72	78
830.138916357	128	103	64
830.148430463	128	107	64
830.179638559	128	84	64
830.201380684	128	72	64
830.235248097	144	83	94
830.240170416	144	35	44
830.250039656	144	81	104
830.263136062	144	107	93
830.268040181	128	83	64
830.268446083	144	84	79
830.296905451	128	107	64
830.304358002	144	72	72
830.319436595	128	81	64
830.337428719	128	84	64
830.340818635	144	81	58
830.34114004	144	83	92
830.371187619	128	72	64
830.401237932	128	83	64
830.412043652	144	107	88
830.424635476	128	81	64
830.424702145	144	81	102
830.43067107	144	34	110
830.43218278	144	84	79
830.442827517	128	107	64
830.452828137	128	34	64
830.471386704	144	72	65
830.478651921	144	101	72
830.487041337	128	35	64
830.495021602	128	84	64
830.516232765	144	103	84
830.538045939	128	72	64
830.564599195	144	107	86
830.569999018	128	81	64
830.588204998	128	103	64
830.594502397	128	107	64
830.621923264	144	72	59
830.701709316	128	72	64
830.707679701	144	35	58
830.719283093	144	107	84
830.744083739	128	107	64
830.804298316	144	72	50
830.839375603	144	104	81
830.85417649	144	83	101
830.861276821	144	107	82
830.87161592	128	72	64
830.879223025	128	104	64
830.886603497	128	83	64
830.894628336	128	107	64
830.895818304	144	74	74
830.905494654	128	101	64
830.922277345	128	74	64
830.949829504	144	103	89
830.95100153	144	81	103
830.971359083	144	72	45
830.974645442	144	84	116
830.979140435	144	83	96
830.987281361	128	35	64
831.004807678	128	103	64
831.013175184	144	107	79
831.03362885	128	83	64
831.036668202	144	56	81
831.039772882	128	81	64
831.04296814	144	81	60
831.044610427	128	107	64
831.051299726	128	72	64
831.082714444	128	56	64
831.139538029	144	72	42
831.16511564	144	107	77
831.189902532	128	81	64
831.19031666	144	81	101
831.193410128	128	107	64
831.212299492	144	101	69
831.218149544	128	72	64
831.241478109	144	35	76
831.285057002	128	81	64
831.304161025	144	72	33
831.313055167	144	107	74
831.343073838	128	107	64
831.369628794	128	72	64
831.399748366	144	103	99
831.454032576	144	72	28
831.463800355	144	107	71
831.47234875	144	83	98
831.473349765	128	103	64
831.503839021	128	35	64
831.513179549	128	107	64
831.518674942	128	83	64
831.534834243	128	72	64
831.599977493	144	83	94
831.62257714	144	72	22
831.622798361	128	101	64
831.630560534	144	107	69
831.651874188	128	83	64
831.660490659	128	107	64
831.668877402	128	72	64
831.697836696	128	84	64
831.704913788	144	56	83
831.724129651	144	35	83
831.766252226	144	81	103
831.766875747	128	56	64
831.780647128	144	107	67
831.784244074	144	104	16
831.81359172	128	107	64
831.833305788	144	103	106
831.841675801	128	81	64
831.844844246	144	81	63
831.904874098	128	103	64
831.917292265	128	81	64
831.930101859	144	107	64
831.942987784	128	84	64
831.962290966	128	107	64
831.980008772	144	101	69
831.98637089	128	35	64
832.055732344	144	83	97
832.101499878	144	107	60
832.103599635	128	83	64
832.123063211	128	107	64
832.185537053	144	83	90
832.199429863	144	103	120
832.208341948	144	35	93
832.233830834	144	107	56
832.23533289	128	83	64
832.261556728	128	107	64
832.271983149	128	103	64
832.279308731	144	72	122
832.293356276	144	81	111
832.306311773	128	101	64
832.323037668	128	72	64
832.397693325	144	107	53
832.42031799	144	72	117
832.428485334	128	107	64
832.437660273	128	81	64
832.438120125	144	81	70
832.48666233	128	72	64
832.487031143	128	35	64
832.53800783	128	81	64
832.546141254	128	104	64
832.546426698	144	107	50
832.580607545	128	107	64
832.597091565	144	72	109
832.645611046	144	101	69
832.649469506	144	103	126
832.657458506	144	35	94
832.658725906	128	72	64
832.696751411	144	107	45
832.722087272	128	103	64
832.727764077	128	107	64
832.739626291	144	83	99
832.741197726	144	72	103
832.770774945	128	83	64
832.822687441	128	72	64
832.827837405	144	83	95
832.861147027	144	107	40
832.888065043	144	72	99
832.894842163	128	107	64
832.903940594	128	83	64
832.904226949	128	35	64
832.951304035	144	81	113
832.960261373	144	104	127
832.964384478	128	72	64
832.982284084	128	104	64
833.009278549	128	81	64
833.011993746	144	81	74
833.012556694	144	107	37
833.036584976	144	72	93
833.044315846	128	107	64
833.066166477	144	103	127
833.102486835	128	72	64
833.122151285	128	101	64
833.138143096	128	103	64
833.159270758	128	81	64
833.162921179	144	107	38
833.17523441	144	35	52
833.194386484	128	107	64
833.203466561	144	72	88
833.221569276	144	101	69
833.259598561	128	72	64
833.267023343	128	101	64
833.331020459	144	107	38
833.354577676	128	35	64
833.355738523	144	83	106
833.359799771	128	107	64
833.363140916	144	72	79
833.387810824	128	83	64
833.412992836	144	101	69
833.418749896	144	74	70
833.419094685	128	74	64
833.419142441	144	74	84
833.420001628	128	72	64
833.441204069	128	74	64
833.445651547	128	101	64
833.478125916	144	107	36
833.479915031	144	83	109
833.498702682	144	81	117
833.499491364	144	103	127
833.50302783	144	72	72
833.510670271	128	107	64
833.53838345	128	83	64
833.539424643	128	81	64
833.539477535	144	81	71
833.552949093	128	72	64
833.588404742	128	103	64
833.596335521	144	101	71
833.61705742	128	101	64
833.634815399	128	81	64
833.644637951	144	107	33
833.655448292	144	72	65
833.657983451	144	35	33
833.678039792	128	107	64
833.678379229	144	56	81
833.723385137	128	72	64
833.754987426	128	56	64
833.762649785	144	101	73
833.797470652	144	107	31
833.80264095	144	104	90
833.816359616	128	101	64
833.818966215	144	72	58
833.836384353	128	35	64
833.8439585	128	107	64
833.889769274	128	72	64
833.9214526	144	101	75
833.935156283	144	103	127
833.961495902	144	72	52
833.963310002	144	107	30
833.989204396	144	83	118
833.995686554	144	74	89
834.00519845	128	103	64
834.011077143	128	107	64
834.014836043	128	101	64
834.016913774	128	83	64
834.036419539	144	81	119
834.063601271	128	81	64
834.063653069	144	81	79
834.066893289	128	72	64
834.111727028	144	72	46
834.129690204	144	107	32
834.130016892	144	83	119
834.135352548	128	81	64
834.158130295	144	35	30
834.159796721	128	107	64
834.1721854	128	83	64
834.179728844	128	74	64
834.19718936	144	101	74
834.212195959	128	72	64
834.272161306	144	72	42
834.296437843	144	107	36
834.336351555	128	35	64
834.337016542	128	72	64
834.341476075	128	107	64
834.39862036	144	103	120
834.420470515	144	72	36
834.472223559	128	103	64
834.497758625	144	107	41
834.500746786	128	72	64
834.527158513	128	107	64
834.569721532	144	81	118
834.569916	144	72	36
834.612110572	128	81	64
834.612238855	144	81	81
834.624239601	144	35	36
834.636018063	128	72	64
834.646016083	144	107	43
834.657957182	144	83	110
834.667987651	128	81	64
834.681680975	144	56	79
834.689217622	128	83	64
834.694040928	128	107	64
834.703360691	144	74	90
834.73635807	128	74	64
834.760100967	144	83	102
834.796583711	144	72	27
834.798168183	128	72	64
834.812034565	144	107	44
834.817020642	128	104	64
834.820394577	128	83	64
834.826032213	128	56	64
834.844253525	128	107	64
834.866336383	144	103	109
834.870189952	144	72	23
834.87118069	128	35	64
834.922124493	128	103	64
834.945775698	144	74	97
834.950727978	128	72	64
835.020539653	128	74	64
835.021391937	144	72	17
835.021847623	144	62	21
835.066801671	144	34	82
835.085168923	128	72	64
835.091372983	144	35	52
835.11718227	144	81	115
835.137017634	128	81	64
835.137064424	144	81	75
835.137386836	128	34	64
835.137584362	128	62	64
835.219490317	128	81	64
835.230501491	144	74	99
835.257143119	144	62	26
835.257466931	144	83	110
835.288898216	128	83	64
835.336374235	128	35	64
835.348418093	144	103	94
835.369819859	128	62	64
835.381361589	144	83	102
835.397966786	144	104	76
835.398483191	128	74	64
835.41698744	144	62	36
835.436796501	128	83	64
835.438148263	128	103	64
835.481013549	144	34	39
835.533994685	128	62	64
835.569808947	144	62	49
835.571159466	128	34	64
835.574225168	144	35	72
835.689273033	128	62	64
835.70233224	144	81	117
835.741050069	144	62	61
835.748690744	128	81	64
835.748729523	144	81	74
835.803089699	128	35	64
835.815457463	144	103	87
835.835153836	128	81	64
835.855203475	128	62	64
835.857659306	144	83	109
835.888511045	128	83	64
835.888954074	128	103	64
835.891526391	128	104	64
835.89422019	144	62	73
835.962191036	144	83	107
836.010746269	128	62	64
836.020974423	128	83	64
836.024378523	144	35	76
836.064263415	144	62	85
836.148319151	144	34	31
836.181074641	128	62	64
836.219414034	144	62	98
836.31557046	144	103	84
836.317004572	144	81	115
836.321513818	128	35	64
836.337229154	128	62	64
836.350513958	128	81	64
836.350560164	144	81	72
836.368681787	144	104	64
836.389017259	128	103	64
836.424202734	144	83	107
836.47217015	128	81	64
836.508533875	144	35	82
836.576223355	128	83	64
836.689594202	144	62	31
836.737972805	144	107	49
836.748977604	144	103	77
836.785888029	128	35	64
836.804342471	128	62	64
836.858131032	128	107	64
836.865911688	144	62	34
836.89383782	128	103	64
836.895234401	128	104	64
836.899773126	144	81	114
836.955655597	128	81	64
836.955715618	144	81	71
836.972440813	128	62	64
836.975016759	144	35	89
837.049771916	144	62	52
837.111021726	128	81	64
837.144973378	128	34	64
837.163002918	128	62	64
837.206762591	144	62	69
837.213762449	144	83	109
837.221537534	128	35	64
837.229481851	144	107	53
837.237860928	128	83	64
837.248656922	144	103	73
837.288731107	144	34	56
837.313164398	128	62	64
837.322183339	128	34	64
837.332251097	144	83	108
837.340956717	128	107	64
837.362370549	144	62	80
837.376850017	128	83	64
837.390783978	144	35	99
837.395446995	128	103	64
837.466381651	128	62	64
837.501747196	144	62	96
837.52965535	144	107	58
837.596532955	128	107	64
837.601033679	144	81	113
837.607774218	128	62	64
837.650074524	144	103	67
837.694625741	128	35	64
837.694978721	128	81	64
837.698992315	144	81	70
837.755875978	128	101	64
837.780284249	144	74	71
837.79475651	128	103	64
837.822525864	128	74	64
837.843213281	128	81	64
837.846736464	144	35	113
837.873712283	144	107	62
837.913137154	144	101	60
837.914721281	128	107	64
837.941626432	144	83	110
837.946131508	128	101	64
837.991072538	128	83	64
838.085190378	128	35	64
838.091089632	144	101	70
838.098719457	144	62	34
838.101636194	128	101	64
838.12600404	144	83	110
838.131449451	144	103	61
838.154820008	128	83	64
838.1942514	144	101	76
838.220919808	128	62	64
838.229686001	144	107	63
838.236788088	128	101	64
838.277373652	128	103	64
838.2782915	144	62	42
838.297521301	128	107	64
838.307784295	144	35	125
838.321411766	144	101	90
838.336084868	144	81	114
838.363097858	144	74	73
838.400938951	128	101	64
838.401228364	128	62	64
838.407144762	128	81	64
838.407195687	144	81	66
838.422688166	128	74	64
838.464137452	144	62	52
838.477667883	144	101	103
838.483329479	144	34	62
838.520649208	128	81	64
838.545913256	128	101	64
838.588090945	128	62	64
838.600529333	144	103	58
838.603427401	144	74	77
838.624367815	144	62	70
838.637132313	128	35	64
838.672365593	128	74	64
838.704260582	144	107	66
838.717187525	144	83	113
838.722721348	128	62	64
838.745199785	128	103	64
838.747263217	128	107	64
838.755991555	128	83	64
838.783090531	144	35	34
838.785275807	144	62	83
838.845152411	144	83	109
838.887631339	128	83	64
838.890139338	128	62	64
838.917301682	144	101	58
838.923897713	144	74	74
838.951739771	144	62	100
838.985706971	128	35	64
839.024317935	128	62	64
839.034124392	144	103	55
839.046901733	144	72	115
839.080118524	128	74	64
839.08399513	144	81	111
839.089196168	128	72	64
839.15562798	128	101	64
839.165933844	128	81	64
839.166002763	144	81	67
839.178541374	144	101	57
839.18647812	144	107	68
839.194612369	128	103	64
839.211746691	144	72	111
839.213198611	128	107	64
839.25070385	128	81	64
839.260570083	128	72	64
839.267068622	128	101	64
839.291301616	144	35	49
839.405639473	144	72	107
839.416873754	128	72	64
839.418139521	144	101	60
839.437924036	128	101	64
839.453029664	144	62	22
839.45893245	144	83	106
839.470936736	128	35	64
839.50772101	128	83	64
839.515397828	144	103	61
839.544666686	128	62	64
839.554821581	144	107	70
839.576739145	144	83	106
839.577468811	144	56	63
839.581519034	144	101	61
839.583228453	144	72	103
839.586013057	128	72	64
839.609018053	128	107	64
839.615167226	128	101	64
839.61750034	144	62	33
839.623619645	128	103	64
839.63915206	128	83	64
839.649138301	128	56	64
839.731131466	128	62	64
839.735527698	144	72	99
839.755378704	128	72	64
839.757840455	144	35	51
839.764265555	144	101	63
839.79616917	128	101	64
839.79999116	144	62	55
839.836034096	144	81	110
839.860968958	144	72	96
839.91818674	128	72	64
839.925543499	128	81	64
839.929932481	144	81	67
839.931375276	128	62	64
839.94186015	144	101	64
839.960257342	144	103	70
839.96295715	128	101	64
839.969342427	144	107	72
839.983305111	144	62	74
839.987601732	128	35	64
840.002969603	144	72	92
840.031828209	128	107	64
840.069636783	128	72	64
840.072525554	128	62	64
840.074569908	128	81	64
840.124534879	144	62	95
840.12669691	128	103	64
840.12853397	144	101	67
840.132364115	128	101	64
840.17417327	144	72	89
840.191664823	144	35	59
840.228573464	144	83	106
840.234917997	128	62	64
840.235912413	128	72	64
840.245568633	128	83	64
840.351348964	144	83	100
840.35370242	144	72	86
840.369849069	128	72	64
840.399373336	144	103	76
840.406843495	128	83	64
840.42136428	144	107	76
840.453570343	128	35	64
840.477019059	128	107	64
840.478286936	144	72	83
840.478839157	128	34	64
840.507313157	128	103	64
840.583657305	128	72	64
840.619932523	144	72	79
840.640329929	144	81	106
840.674481775	144	35	66
840.686010094	128	72	64
840.71793793	144	62	36
840.737250693	128	81	64
840.769897198	144	72	75
840.83532415	144	103	82
840.837374147	144	107	81
840.842684246	128	62	64
840.861279221	128	72	64
840.893133898	128	107	64
840.900414628	144	62	52
840.92073097	144	72	70
840.921620769	144	34	116
840.922183841	128	103	64
840.922929725	128	34	64
840.955927304	128	35	64
840.98581569	128	72	64
841.014858273	128	62	64
841.052915448	144	62	69
841.068002139	144	81	68
841.086245854	144	72	65
841.094672728	144	83	115
841.124545026	128	83	64
841.136160895	128	72	64
841.141327537	144	35	74
841.154566311	128	81	64
841.164482873	128	62	64
841.2215479	144	62	80
841.222192358	144	101	21
841.232710259	144	103	87
841.234798467	144	83	115
841.2373656	144	72	61
841.254023217	144	107	87
841.273750131	128	83	64
841.280168153	128	101	64
841.307153233	128	107	64
841.330105089	128	62	64
841.331334549	128	72	64
841.362354816	144	101	22
841.375724226	144	62	98
841.378068177	128	103	64
841.404164176	128	35	64
841.417004824	128	101	64
841.432028242	144	72	56
841.452432226	128	72	64
841.463923964	144	81	111
841.481047099	128	62	64
841.494199493	144	101	44
841.537590934	144	72	53
841.546398776	128	101	64
841.550669818	128	81	64
841.590432069	144	35	82
841.593893829	128	72	64
841.628243411	144	101	56
841.666891025	144	103	95
841.672195704	128	101	64
841.685870651	144	72	50
841.686072042	144	107	96
841.746653326	128	107	64
841.747411708	144	101	70
841.782408817	128	72	64
841.799721087	128	101	64
841.811361592	128	103	64
841.837349387	128	35	64
841.853345142	144	72	46
841.867869464	144	81	63
841.871659424	144	101	90
841.885959865	144	83	115
841.919355362	128	72	64
841.931544248	128	101	64
841.940745444	128	83	64
841.952022566	128	81	64
841.981836951	144	83	115
842.005756519	128	83	64
842.010877747	144	101	106
842.020947469	144	72	42
842.048616455	144	103	102
842.051689877	144	62	38
842.058480709	144	35	90
842.063987711	128	101	64
842.101210101	128	72	64
842.113264041	144	83	116
842.12085251	144	101	113
842.133239758	144	74	60
842.135476423	144	24	24
842.13563617	144	107	104
842.138301812	128	74	64
842.1645956	128	62	64
842.17356343	128	83	64
842.194096041	128	103	64
842.196259879	128	107	64
842.204532143	128	101	64
842.21402619	144	74	55
842.230142858	144	62	55
842.268518391	144	81	114
842.27660022	144	72	39
842.279879983	128	35	64
842.290330965	128	74	64
842.293779928	128	72	64
842.303674641	144	101	60
842.327259767	128	62	64
842.355305881	128	81	64
842.383829926	144	62	76
842.397198264	128	101	64
842.448842124	144	103	106
842.466693206	144	72	36
842.47542302	144	35	121
842.476588947	128	72	64
842.489664983	144	101	17
842.492381044	128	62	64
842.56227914	128	35	64
842.570275315	144	72	34
842.57171023	128	101	64
842.583034557	144	62	85
842.594108411	128	103	64
842.602315308	144	107	117
842.63582792	128	72	64
842.646433093	128	107	64
842.647330071	128	62	64
842.671464721	144	101	24
842.679369136	144	83	119
842.68106107	144	62	98
842.690869677	128	83	64
842.716870058	144	81	72
842.719847269	128	56	64
842.725248162	144	74	66
842.740967793	128	74	64
842.747557912	128	101	64
842.797148075	144	83	118
842.799276428	128	62	64
842.804019858	128	81	64
842.828968685	144	74	60
842.830519296	144	107	124
842.843355762	128	83	64
842.849120157	144	103	114
842.873805434	128	107	64
842.883592823	144	35	28
842.894857625	144	101	52
842.904452419	128	74	64
842.955159766	128	103	64
842.963648404	128	101	64
843.028328151	144	107	127
843.042823603	144	101	64
843.050926566	144	81	115
843.053137865	128	35	64
843.096201666	128	107	64
843.116821438	128	101	64
843.196871058	128	81	64
843.277861735	144	103	121
843.278113183	144	101	50
843.322682345	144	62	24
843.360013005	144	35	50
843.364398905	128	101	64
843.403106331	144	107	127
843.413228743	128	62	64
843.422060686	128	103	64
843.425369967	128	107	64
843.444989552	144	101	43
843.461059804	144	83	115
843.481815727	144	74	65
843.482593214	128	24	64
843.485384421	144	81	66
843.49174792	128	74	64
843.4929612	128	83	64
843.500063207	144	62	51
843.512521989	128	101	64
843.536587253	128	35	64
843.564069516	144	74	62
843.570787219	128	81	64
843.58481228	144	83	111
843.585062586	128	62	64
843.641325811	128	83	64
843.657296289	144	101	69
843.65984842	144	62	77
843.66647479	128	101	64
843.716252869	144	103	127
843.730835197	128	74	64
843.746797717	144	101	97
843.753804762	128	62	64
843.75789833	144	35	61
843.800382483	128	101	64
843.80754342	144	62	87
843.820982493	144	107	116
843.826425587	128	107	64
843.857003345	144	81	117
843.860130358	128	103	64
843.887042604	144	101	117
843.922769816	128	62	64
843.947436547	128	101	64
843.95904779	128	81	64
843.982502388	144	62	103
843.98734167	128	35	64
843.987723638	144	104	56
844.045141689	144	101	99
844.051170246	128	62	64
844.134401343	128	104	64
844.150026301	144	103	127
844.20863954	144	35	67
844.220484672	128	103	64
844.2600241	144	83	117
844.268818223	144	81	66
844.285352305	144	107	95
844.30737053	128	107	64
844.311535778	128	83	64
844.316276747	144	24	98
844.322518985	128	101	64
844.357148927	128	24	64
844.359030857	144	101	85
844.371963185	128	81	64
844.419887388	144	83	115
844.430971152	144	74	95
844.435774615	128	101	64
844.436473309	128	35	64
844.439446367	128	74	64
844.461942885	128	83	64
844.527759771	144	74	86
844.579457315	144	101	99
844.584415645	144	103	127
844.639833825	144	62	20
844.652051751	144	81	121
844.653204132	144	107	84
844.670648921	128	62	64
844.671917847	128	103	64
844.672739555	128	74	64
844.675771504	144	35	77
844.711459729	128	107	64
844.731025093	128	81	64
844.747784384	128	101	64
844.75914368	144	62	34
844.77652892	144	34	121
844.809544905	144	101	66
844.876781361	144	24	71
844.878723033	128	62	64
844.89034354	128	101	64
844.911586254	144	104	49
844.919392091	128	34	64
844.920525976	128	35	64
844.948258085	144	62	52
844.954315762	128	24	64
844.974867703	144	101	120
844.977680163	128	104	64
845.018140317	128	101	64
845.027906119	144	103	127
845.028388521	144	83	114
845.052142928	144	107	75
845.053095132	144	81	70
845.061288547	128	83	64
845.064865125	128	62	64
845.097141983	128	107	64
845.103198516	144	62	74
845.125254151	144	35	89
845.133055508	128	81	64
845.147013756	144	74	100
845.163466179	144	101	76
845.171536858	128	101	64
845.172358125	128	103	64
845.174717545	144	101	103
845.182245596	144	83	112
845.188676081	128	74	64
845.218486287	128	62	64
845.225395759	128	83	64
845.225743023	144	74	99
845.237429928	128	101	64
845.307974338	144	62	92
845.336609357	128	35	64
845.368974909	128	74	64
845.381559675	144	101	61
845.402573727	144	81	125
845.410553716	128	62	64
845.41268613	128	101	64
845.447690675	144	101	106
845.462028066	144	24	15
845.482539864	128	101	64
845.485335678	144	107	57
845.487574981	128	81	64
845.529493951	128	107	64
845.543789152	128	24	64
845.574792336	144	35	98
845.631789422	144	104	49
845.644851697	144	101	61
845.650194938	128	101	64
845.697055155	128	104	64
845.703545575	144	101	112
845.73727024	128	35	64
845.76746579	128	101	64
845.801496784	144	81	69
845.811565669	144	101	122
845.830230064	144	83	104
845.847204171	128	101	64
845.860581297	128	83	64
845.906559636	128	81	64
845.935245002	144	107	45
845.971838765	144	83	105
845.997063787	144	101	120
845.997571524	128	101	64
845.997940471	128	107	64
846.028694004	128	83	64
846.030261072	144	101	61
846.054461453	128	101	64
846.058757588	144	35	113
846.098253309	144	101	116
846.184874868	128	101	64
846.186788499	144	101	52
846.205971344	128	101	64
846.217715512	144	81	122
846.226434355	144	101	113
846.237166641	128	35	64
846.269328524	128	81	64
846.29532749	128	101	64
846.299241967	144	101	55
846.335250043	128	46	64
846.340140615	128	101	64
846.343961105	144	101	112
846.385287385	144	107	31
846.405772491	128	101	64
846.409364093	144	101	56
846.429096605	128	107	64
846.494004969	128	101	64
846.496832723	144	101	114
846.508015506	144	35	33
846.535859552	128	101	64
846.535940522	144	101	56
846.612215999	144	81	68
846.613698475	128	101	64
846.613943385	144	74	91
846.615460488	128	35	64
846.629908509	144	83	108
846.662229882	128	83	64
846.706158345	128	74	64
846.764406977	128	81	64
846.771715202	144	83	107
846.828603257	128	83	64
846.852160423	144	24	59
846.887587319	144	107	25
846.887747264	128	24	64
846.901143447	144	62	49
846.930115078	128	107	64
846.988693054	128	62	64
846.994295125	144	72	71
847.003158756	144	81	119
847.00814377	144	35	59
847.06978176	128	81	64
847.16994784	128	35	64
847.263191227	144	107	20
847.271437606	144	24	60
847.336025887	128	24	64
847.33647851	144	62	98
847.341638159	128	107	64
847.39810637	144	74	96
847.417921911	144	81	66
847.429884114	144	83	106
847.435651058	128	62	64
847.437275476	128	74	64
847.478118014	128	83	64
847.491993589	144	35	76
847.504619473	128	81	64
847.536286953	128	103	64
847.587354427	144	83	104
847.612597316	128	35	64
847.645880137	128	83	64
847.727442959	144	107	32
847.754641553	144	24	59
847.785332922	144	81	120
847.807748709	128	107	64
847.821986518	128	24	64
847.836267867	128	81	64
847.844627515	144	62	35
847.868245736	144	35	90
847.972289144	128	62	64
848.037908602	128	35	64
848.152626987	144	107	45
848.195835286	128	107	64
848.19813589	144	74	90
848.202145804	144	81	65
848.245897401	144	46	13
848.26616021	144	83	104
848.270734702	128	81	64
848.272901174	128	74	64
848.275832243	128	101	64
848.296405742	128	83	64
848.305803796	144	62	89
848.333408647	128	46	64
848.341096264	144	35	104
848.399758327	144	83	103
848.44878444	128	62	64
848.460174703	128	83	64
848.476538617	144	107	58
848.537243176	128	35	64
848.545792448	128	107	64
848.610557898	144	81	123
848.688307087	128	81	64
848.791746284	144	107	69
848.809003517	144	35	113
848.829978016	128	107	64
848.882397876	144	74	86
848.892902742	144	62	58
848.922894748	128	34	64
848.928570159	144	46	97
848.941003976	128	74	64
848.983707997	144	81	68
848.985845511	128	35	64
849.010215246	128	62	64
849.033449547	128	46	64
849.051953291	128	81	64
849.081154944	144	83	102
849.128704297	144	107	81
849.131133243	128	83	64
849.197287879	128	107	64
849.223022521	144	83	102
849.238570087	144	62	94
849.267415371	144	81	127
849.279859726	128	83	64
849.32096662	128	81	64
849.325571087	144	35	123
849.381382445	128	62	64
849.382863504	144	24	55
849.454173478	128	24	64
849.4715085	128	35	64
849.480875228	144	74	83
849.503478748	144	107	93
849.547315746	128	107	64
849.556337121	128	74	64
849.679135704	144	46	106
849.758749159	144	35	119
849.849708564	144	62	59
849.854609687	144	83	101
849.868547321	144	107	101
849.898476916	128	83	64
849.913718999	128	107	64
849.9367806	128	35	64
849.968706417	128	62	64
849.990404415	144	83	99
850.037123699	144	24	50
850.044263085	128	83	64
850.096566332	144	74	90
850.123780968	128	24	64
850.190171843	128	74	64
850.207916969	144	35	121
850.217754965	144	62	96
850.267648073	144	107	109
850.296790393	128	35	64
850.307369326	128	107	64
850.339051373	128	62	64
850.548766093	144	24	46
850.659355611	144	35	31
850.660914832	128	46	64
850.682542061	144	74	89
850.685077142	144	107	117
850.705592053	128	107	64
850.74708807	128	35	64
850.772887029	128	74	64
850.822862526	144	62	45
850.848950734	144	83	99
850.895339962	128	83	64
850.90937254	144	46	39
850.936210984	128	62	64
851.052850641	128	24	64
851.091634632	144	35	50
851.136274225	144	107	118
851.181145088	144	83	102
851.196541881	128	35	64
851.20729226	128	107	64
851.243693699	128	83	64
851.313860596	144	74	82
851.469610706	128	74	64
851.483155556	144	83	92
851.50285986	144	24	52
851.525406019	144	35	60
851.563863003	128	83	64
851.65277641	144	107	116
851.669459854	128	35	64
851.672704883	128	107	64
851.725346953	144	83	92
851.794677337	128	83	64
851.877558288	128	46	64
851.959185504	144	35	68
851.981767983	144	83	93
851.998448935	144	74	86
852.028919622	128	83	64
852.090564269	128	74	64
852.104487897	128	35	64
852.110759675	144	107	114
852.178716266	128	107	64
852.192038217	144	46	79
852.215723825	144	83	81
852.224721681	144	104	64
852.241987779	128	104	64
852.261202822	128	83	64
852.407969007	144	35	90
852.442527904	144	83	85
852.497165283	128	35	64
852.498697033	128	83	64
852.5549425	128	24	64
852.58277204	144	108	127
852.65592707	128	108	64
852.656340085	144	83	80
852.668870764	144	107	114
852.706795535	144	104	71
852.711148624	128	83	64
852.712834924	128	107	64
852.753588496	128	104	64
852.758009241	128	46	64
852.834271086	144	35	100
852.873302414	144	83	96
852.92306841	144	24	57
852.925061018	144	46	80
852.949878016	128	83	64
853.004617575	128	35	64
853.069259077	128	46	64
853.069366114	144	46	87
853.123607992	144	83	83
853.160865732	144	107	114
853.200401756	128	83	64
853.205506545	128	107	64
853.245690737	144	104	69
853.311495545	144	35	115
853.319204	128	104	64
853.332255384	144	74	78
853.359212434	144	83	95
853.378341379	128	83	64
853.477630983	128	35	64
853.485733541	144	108	125
853.538947584	128	108	64
853.573270564	144	83	66
853.644729061	128	83	64
853.679343832	144	107	112
853.724625576	144	35	127
853.749803218	128	107	64
853.781123795	144	83	87
853.806640299	128	74	64
853.808112167	144	104	62
853.813436164	128	35	64
853.842438054	128	104	64
853.845761527	128	83	64
853.957864454	128	46	64
854.004927397	144	74	83
854.051487904	144	46	106
854.073250148	128	74	64
854.18425145	144	35	16
854.193843975	144	107	112
854.239747012	128	107	64
854.25109255	128	46	64
854.251155083	144	46	67
854.265039517	144	74	87
854.339737378	128	35	64
854.367912447	144	104	57
854.446013627	128	104	64
854.446883219	144	108	124
854.528055786	128	74	64
854.537350813	128	24	64
854.539693139	128	108	64
854.632440616	144	74	110
854.651522957	144	35	40
854.695305463	144	107	111
854.738838202	128	107	64
854.849838818	128	35	64
854.936588432	128	74	64
854.968577137	144	104	50
855.040390156	128	104	64
855.053683307	128	46	64
855.083750593	144	35	54
855.192489775	144	107	111
855.217517455	144	24	126
855.22464775	128	107	64
855.229317306	128	35	64
855.235451285	144	46	15
855.313061548	128	24	64
855.460341753	144	108	124
855.550692327	144	35	68
855.555144055	128	108	64
855.571144642	144	104	48
855.641574	144	74	34
855.648738604	128	104	64
855.694151156	144	107	109
855.704022169	128	35	64
855.761058322	128	107	64
855.771865798	144	24	127
855.919825111	128	24	64
855.932261175	128	74	64
856.018096313	128	72	64
856.042380009	144	35	84
856.07724329	144	74	45
856.141402921	144	24	127
856.14686443	128	35	64
856.227497141	144	107	109
856.227847464	128	46	64
856.271900881	128	107	64
856.340100461	128	24	64
856.43203417	128	83	64
856.433881015	128	74	64
856.454082756	144	46	60
856.476750212	144	74	72
856.483744955	144	35	101
856.51059282	144	108	126
856.526720115	144	104	56
856.544855242	144	24	125
856.604544688	128	108	64
856.623903705	128	104	64
856.637708634	128	35	64
856.688811205	128	24	64
856.732951078	144	107	109
856.755876791	128	107	64
856.858197818	128	46	64
856.858244936	144	46	109
856.914942895	144	24	125
856.915801746	128	74	64
856.944906446	144	74	94
856.958555517	144	35	110
856.983699701	144	108	122
857.038808925	128	108	64
857.04871429	128	24	64
857.154860929	128	74	64
857.163895307	128	35	64
857.244289007	144	107	109
857.256507611	144	74	103
857.305880681	128	107	64
857.392154132	144	35	127
857.397873162	128	74	64
857.436840115	144	24	1
857.446154042	128	35	64
857.492734037	144	74	107
857.523389032	128	24	64
857.55990799	128	81	64
857.567285722	144	104	50
857.577937076	128	46	64
857.632196725	128	104	64
857.639436294	128	74	64
857.725706801	144	46	110
857.792500451	144	74	116
857.793340035	144	107	108
857.797270348	144	24	1
857.839242414	128	107	64
857.85422254	144	35	26
857.909080998	128	24	64
857.936126178	128	74	64
858.015960323	144	74	124
858.0710232	128	35	64
858.11195386	144	108	121
858.157992944	144	104	59
858.158624578	128	104	64
858.171751179	144	77	42
858.20821848	128	108	64
858.215062086	128	77	64
858.25318969	128	72	64
858.266458991	128	74	64
858.294915315	144	107	107
858.318201633	144	35	46
858.360864897	128	107	64
858.502914661	128	35	64
858.604280416	128	46	64
858.77046913	144	35	54
858.807113464	144	74	45
858.819062794	144	77	61
858.842215011	144	107	108
858.854795663	144	104	60
858.867030812	128	77	64
858.874322267	128	74	64
858.889152031	128	107	64
858.923024372	128	104	64
858.939321419	128	35	64
859.108054726	144	74	50
859.192394095	144	35	66
859.216358462	144	108	122
859.313287977	128	108	64
859.338235953	128	35	64
859.384068124	144	107	107
859.427920525	128	107	64
859.483150238	128	74	64
859.57624067	144	77	78
859.584102839	128	77	64
859.65832928	144	35	91
859.688096298	144	74	66
859.806014942	144	46	80
859.887866525	128	35	64
859.917339272	144	107	108
859.937877601	128	107	64
860.07415348	128	46	64
860.099520596	128	74	64
860.125494387	144	35	102
860.316906475	144	108	104
860.33077822	144	77	75
860.355352515	128	77	64
860.366128034	128	35	64
860.389181538	128	108	64
860.424742039	144	107	108
860.493932901	128	107	64
860.601354228	144	86	55
860.632144414	144	74	71
860.641766858	144	35	126
860.666904915	128	86	64
860.931089107	128	46	64
860.933998901	128	74	64
860.98043585	144	107	107
860.982982727	128	35	64
861.028412038	128	107	64
861.055556604	144	48	39
861.1116484	144	77	80
861.113481569	128	48	64
861.141689677	144	35	127
861.161611166	128	77	64
861.21326697	144	48	41
861.267419451	128	48	64
861.283545258	144	24	127
861.336264898	128	35	64
861.355841036	128	24	64
861.36162244	144	48	54
861.385810465	144	108	80
861.402883243	128	48	64
861.455588889	128	108	64
861.488746479	144	48	67
861.516872153	144	107	106
861.547735857	128	48	64
861.560432591	128	107	64
861.584486989	144	24	127
861.680562372	128	24	64
861.692625386	144	48	80
861.698703827	128	48	64
861.725434041	144	35	40
861.842417591	144	48	90
861.863086026	128	48	64
861.868246402	144	108	86
861.870184799	128	35	64
861.886825314	144	24	127
861.948239695	144	77	82
861.955699098	128	108	64
861.960489165	144	48	104
861.980747292	128	77	64
861.992189879	144	107	106
862.013332135	128	48	64
862.022582752	128	24	64
862.061620148	128	107	64
862.097556499	144	86	120
862.110008108	144	48	108
862.167316423	128	48	64
862.199294664	144	24	127
862.208385698	144	35	61
862.286003798	128	24	64
862.29931905	128	86	64
862.333558425	144	108	103
862.387832329	128	35	64
862.40633553	128	108	64
862.482721339	144	24	126
862.534910345	144	107	107
862.58002755	128	107	64
862.5874132	128	24	64
862.609395698	144	35	70
862.652661983	144	108	106
862.693312438	144	77	79
862.723068837	128	108	64
862.753257655	128	77	64
862.788059606	128	35	64
862.789054027	144	24	126
862.879132123	128	24	64
863.059049755	144	35	94
863.065346424	144	107	106
863.112245865	128	107	64
863.163963531	128	35	64
863.481730106	144	77	47
863.524999897	128	77	64
863.542429267	144	35	104
863.633843551	144	107	107
863.678323018	128	107	64
863.737106056	128	35	64
864.01581655	144	108	109
864.088750683	128	108	64
864.159896293	144	77	70
864.167694885	144	107	106
864.174749093	144	35	103
864.187079206	128	107	64
864.219266782	128	77	64
864.282924738	128	35	64
864.654144957	144	77	76
864.655011218	144	35	105
864.667353356	144	107	105
864.682133394	128	77	64
864.685476298	144	104	78
864.687798358	128	107	64
864.736435298	128	104	64
864.819384787	128	35	64
864.841302509	144	74	69
864.925264386	128	74	64
865.036429443	144	86	109
865.105374405	128	86	64
865.131853117	144	77	62
865.133566512	144	108	106
865.140646849	144	35	122
865.188640691	128	77	64
865.188934508	128	108	64
865.194987356	144	24	127
865.216500789	144	107	105
865.260114332	128	107	64
865.296357414	128	24	64
865.370372394	128	35	64
865.576635324	144	77	64
865.593374987	144	24	127
865.615077382	128	48	64
865.63271987	128	77	64
865.701981406	144	35	19
865.704198855	128	24	64
865.708420889	144	107	107
865.753842456	128	107	64
865.761809454	144	74	65
865.800760744	144	104	81
865.845965081	128	35	64
865.886367698	128	104	64
865.930974222	128	74	64
865.934468327	144	24	127
866.051191461	144	77	66
866.066862879	144	108	107
866.06772042	128	24	64
866.100185611	128	77	64
866.160877607	128	108	64
866.161250529	144	77	64
866.166165022	144	86	80
866.209171505	144	35	29
866.219112278	144	24	127
866.31603792	144	107	106
866.337382988	128	107	64
866.345975901	128	24	64
866.35324583	128	35	64
866.380481639	144	104	79
866.445871572	128	104	64
866.50962749	144	24	127
866.524703092	128	77	64
866.543213132	144	74	64
866.557775227	128	74	64
866.653050038	128	24	64
866.659336504	144	35	64
866.769640972	144	77	72
866.798915858	144	24	126
866.821260265	128	35	64
866.836436707	128	77	64
866.864369348	144	107	106
866.887317011	144	77	72
866.889423064	144	74	55
866.909064176	128	24	64
866.910083557	128	107	64
867.032745595	144	24	125
867.050769851	144	35	69
867.10067148	128	77	64
867.105133792	128	74	64
867.127591095	128	24	64
867.129170897	144	108	107
867.203737393	128	35	64
867.219410501	144	24	127
867.222651177	128	108	64
867.271905801	144	74	77
867.28411692	128	24	64
867.308962643	144	77	74
867.351140302	128	77	64
867.371065824	144	24	127
867.422018947	128	74	64
867.431924274	144	107	106
867.435849314	128	24	64
867.449939872	144	77	75
867.462696029	144	74	89
867.476895315	128	107	64
867.520024832	144	104	79
867.523461974	144	24	127
867.558287065	144	35	89
867.566752167	128	77	64
867.583771847	128	104	64
867.595250907	128	24	64
867.700874394	144	24	127
867.703724604	128	35	64
867.7168341	144	77	81
867.752812275	128	24	64
867.754347435	128	77	64
867.76649163	144	108	105
867.774338932	128	74	64
867.829276495	144	24	127
867.856433072	128	108	64
867.894803188	144	77	86
867.911511564	128	24	64
867.951060245	144	74	87
867.953036177	128	77	64
867.97691657	144	107	106
867.991778956	144	24	127
868.022443418	128	107	64
868.024026438	144	35	110
868.026835104	144	77	89
868.077663412	128	24	64
868.083849789	144	104	75
868.116705461	128	77	64
868.127734516	128	74	64
868.129933924	128	35	64
868.147486373	128	86	64
868.147739561	144	86	112
868.147823787	128	86	64
868.152618584	144	74	83
868.166552061	144	24	127
868.188633334	144	77	90
868.190676462	144	83	101
868.20275008	128	104	64
868.240596321	128	77	64
868.2413529	128	24	64
868.302441748	128	74	64
868.316577121	144	24	127
868.363493384	144	77	94
868.403680718	128	24	64
868.419832667	128	77	64
868.47810283	144	24	127
868.479135353	144	74	74
868.508833793	144	35	127
868.546283719	144	77	98
868.549341584	144	107	105
868.571811221	128	107	64
868.575478714	128	24	64
868.604481164	128	77	64
868.613636292	128	35	64
868.655936788	128	74	64
868.658555659	144	24	127
868.665942504	144	104	73
868.718209071	144	77	99
868.718575198	144	74	67
868.751550229	128	104	64
868.751902868	128	24	64
868.761157392	128	83	64
868.770684872	128	77	64
868.829901669	144	24	127
868.853467105	144	83	100
868.856352522	144	77	90
868.863540315	128	74	64
868.928250351	128	24	64
868.928337943	128	77	64
869.000444174	144	24	127
869.009538758	144	35	127
869.036292704	144	108	106
869.042384277	144	77	103
869.080112811	128	35	64
869.082084118	128	24	64
869.085837726	128	77	64
869.089453327	128	108	64
869.115383606	144	107	107
869.128938644	144	67	105
869.137236884	128	107	64
869.167408305	144	24	127
869.226405977	144	104	72
869.226800075	144	77	107
869.252282745	128	24	64
869.276416385	128	67	64
869.277588901	128	104	64
869.282314904	128	77	64
869.282366006	144	77	99
869.318698091	144	24	127
869.342985754	128	83	64
869.344715049	144	86	120
869.404202271	144	83	99
869.404475381	128	24	64
869.465106235	128	77	64
869.524329416	144	35	51
869.54500999	128	86	64
869.59356039	128	83	64
869.5968554	144	77	115
869.631835333	144	107	106
869.656461443	128	77	64
869.669797777	128	35	64
869.677260325	128	107	64
869.744716276	144	83	97
869.786130873	144	104	79
869.811637464	144	77	115
869.834714785	128	77	64
869.869731918	128	104	64
870.059417401	144	35	66
870.117614946	144	108	105
870.143588047	144	77	106
870.163862292	128	35	64
870.181550795	144	107	106
870.189612314	128	108	64
870.203571449	128	107	64
870.209321989	128	77	64
870.229885582	128	83	64
870.398083849	144	67	61
870.418088219	128	67	64
870.450633382	144	83	93
870.558988857	144	35	71
870.629734582	128	35	64
870.668208674	144	86	86
870.730966284	144	107	105
870.777113976	128	107	64
870.928698676	144	67	103
870.970190104	144	62	92
871.001899646	128	67	64
871.059014461	144	35	81
871.063129124	128	83	64
871.11333752	128	35	64
871.124733192	128	62	64
871.228606874	144	62	99
871.265042049	144	107	107
871.312111029	128	107	64
871.379197048	144	83	91
871.481485865	128	62	64
871.481725717	144	62	99
871.527704887	144	35	92
871.569294898	128	62	64
871.643185482	144	67	47
871.650670842	144	62	104
871.672354292	128	35	64
871.690589511	128	67	64
871.834985354	144	107	105
871.849121243	128	62	64
871.850375944	144	62	106
871.8775564	128	107	64
871.982840736	128	62	64
872.026132535	144	35	92
872.091168939	144	62	104
872.096232254	128	83	64
872.113066839	128	35	64
872.207960912	144	107	114
872.253946617	128	62	64
872.287740428	128	107	64
872.304146396	144	67	102
872.304853292	128	67	64
872.3402149	144	107	102
872.399232314	144	62	98
872.407902765	128	107	64
872.526150242	144	35	95
872.540313849	128	62	64
872.645265803	144	67	56
872.667543973	128	67	64
872.669960019	128	35	64
872.688001898	144	62	104
872.695082761	144	83	90
872.8296934	144	107	102
872.8476897420001	128	62	64
872.877217824	128	107	64
872.998241876	144	62	107
873.017751596	144	35	121
873.035913125	144	108	115
873.036210633	128	108	64
873.06369641	144	30	61
873.096876024	128	62	64
873.195292898	144	67	100
873.19676133	128	83	64
873.276289499	128	67	64
873.304820881	128	35	64
873.313708027	144	62	101
873.38262188	144	107	101
873.384841504	128	62	64
873.402079015	128	107	64
873.525814092	144	35	49
873.560914293	144	83	85
873.568847864	144	62	103
873.630415862	128	35	64
873.637466932	128	86	64
873.695067169	144	67	55
873.707087134	128	62	64
873.736618765	128	67	64
873.80551836	144	24	111
873.805705993	128	24	64
873.893936477	144	62	99
873.949540086	144	107	102
873.994333517	128	107	64
874.039868062	128	62	64
874.043168463	144	35	59
874.060309005	128	83	64
874.096861562	128	35	64
874.218523175	144	108	117
874.226727537	128	108	64
874.244293969	144	62	103
874.363885852	128	62	64
874.399043741	144	107	111
874.433837386	144	24	124
874.45247116	128	107	64
874.454421035	144	67	103
874.484113807	144	107	95
874.48970884	128	67	64
874.50909692	144	35	69
874.5227612690001	128	107	64
874.576892278	128	35	64
874.635807337	144	86	108
874.693880854	128	24	64
874.715863445	144	83	90
874.717532925	144	62	100
874.719642479	128	83	64
874.745731059	128	62	64
874.890576047	144	77	15
874.896695995	144	67	56
874.906427611	144	24	126
874.93465462	144	104	77
874.935532413	128	86	64
874.951604152	128	67	64
874.95906335	144	35	74
874.964086283	128	77	64
874.968695346	144	62	101
875.014114097	144	107	100
875.016430772	128	104	64
875.036203315	128	107	64
875.059236335	128	62	64
875.103471876	128	35	64
875.306282245	128	30	64
875.316352343	144	62	103
875.328619012	144	108	112
875.405882995	128	108	64
875.418039067	144	35	74
875.433332408	144	67	101
875.442470767	144	74	85
875.442585834	128	74	64
875.454886398	128	62	64
875.487030824	128	67	64
875.526194212	144	74	83
875.561818654	128	35	64
875.575301193	144	107	100
875.609785765	128	107	64
875.630518075	144	30	65
875.649655245	144	77	41
875.652829259	128	83	64
875.686566872	128	77	64
875.688814707	128	74	64
875.787989223	144	62	106
875.788224109	128	62	64
875.883548127	144	35	82
875.887438497	144	67	57
875.925382262	144	77	35
875.956207056	128	67	64
875.963722107	128	35	64
875.99400669	128	24	64
876.020210174	128	77	64
876.042857681	144	74	84
876.065487077	144	62	98
876.098353636	144	107	101
876.144168375	128	107	64
876.16075924	144	77	49
876.17073413	128	62	64
876.256945063	144	24	119
876.257079171	128	77	64
876.342799476	144	35	85
876.344586118	144	84	51
876.350707722	128	74	64
876.391887181	144	77	43
876.447391201	128	35	64
876.476940284	144	86	86
876.479554288	144	62	98
876.488398825	128	62	64
876.490199519	128	30	64
876.520647421	128	77	64
876.579946906	144	30	68
876.582626914	144	74	88
876.599923941	144	108	109
876.606174846	144	77	54
876.655815014	128	108	64
876.666797329	128	77	64
876.667934688	144	107	102
876.682683778	144	67	102
876.6827929	128	30	64
876.69076599	128	24	64
876.714621021	128	86	64
876.718897238	128	107	64
876.732040916	128	67	64
876.77645909	144	35	127
876.783700187	128	74	64
876.799368757	144	77	51
876.803021109	128	84	64
876.815467511	144	62	97
876.82804242	144	30	60
876.872879862	128	62	64
876.87521895	128	77	64
876.886395606	144	24	117
876.902286826	128	30	64
876.97450297	144	77	63
877.007833089	144	30	47
877.051082019	128	77	64
877.06133197	144	84	93
877.088264315	128	35	64
877.090592918	144	107	113
877.095068135	144	77	58
877.117971686	128	77	64
877.145315562	144	62	97
877.16231737	144	67	57
877.174706397	144	77	61
877.188543454	128	107	64
877.208917369	144	107	100
877.21929561	128	67	64
877.223560538	128	24	64
877.258365729	128	77	64
877.269261038	128	107	64
877.309597292	144	35	63
877.314461586	128	84	64
877.344627002	144	77	71
877.391717824	144	24	117
877.4494682	128	77	64
877.455478796	128	35	64
877.492587	128	62	64
877.492854122	144	62	96
877.508917079	144	77	73
877.598468792	128	77	64
877.648879362	128	62	64
877.651442088	144	84	125
877.678319587	144	67	104
877.69718894	128	24	64
877.697533313	144	107	100
877.707678788	144	77	82
877.734750204	128	67	64
877.75167257	128	107	64
877.758787181	144	35	69
877.790760898	128	77	64
877.802938903	144	74	87
877.812233355	144	24	113
877.897336182	144	77	80
877.907418942	144	62	90
877.938242118	128	35	64
877.939303709	128	30	64
877.949579732	128	74	64
877.96120554	128	77	64
877.976216465	128	62	64
877.995051605	128	84	64
878.049091179	144	77	90
878.115447515	128	24	64
878.119373685	128	77	64
878.142694938	144	67	54
878.155580594	144	74	92
878.173813768	128	67	64
878.183362271	144	35	69
878.193673708	144	62	95
878.205368459	144	77	89
878.212323125	144	84	115
878.240306684	144	107	102
878.283740844	128	77	64
878.290620944	144	24	113
878.309808819	128	107	64
878.371374479	128	62	64
878.3715126	128	35	64
878.388222145	144	77	98
878.400899265	144	108	111
878.451773799	128	74	64
878.468287466	128	77	64
878.473464418	128	108	64
878.498490049	128	84	64
878.531099759	144	77	98
878.574299735	128	24	64
878.585387723	128	77	64
878.659811863	144	35	75
878.669301158	144	84	122
878.703905703	144	24	112
878.727476205	144	77	104
878.759959499	128	77	64
878.804945704	128	35	64
878.847139434	144	62	92
878.847376563	128	62	64
878.847770537	144	62	94
878.863070471	144	107	101
878.892106864	144	77	100
878.910928334	128	107	64
878.936596045	128	77	64
878.944376464	144	67	107
878.975901964	128	24	64
878.979328171	128	84	64
878.988351561	128	67	64
879.01285879	144	77	102
879.03844505	128	62	64
879.138538804	144	24	112
879.14933586	128	77	64
879.159377708	144	35	73
879.163785942	144	84	124
879.168334897	144	86	94
879.264314193	128	84	64
879.304212216	144	74	94
879.315883939	144	62	88
879.338398815	128	35	64
879.356809294	144	77	103
879.360150736	128	74	64
879.377538165	128	24	64
879.380366318	128	86	64
879.417137069	144	107	104
879.420256361	128	77	64
879.459874571	144	67	60
879.461051553	128	107	64
879.462434965	128	62	64
879.468795644	144	74	95
879.487492396	128	67	64
879.563881244	144	24	108
879.592116383	144	84	124
879.634516437	144	62	91
879.642019401	144	35	85
879.666736959	128	74	64
879.740212652	144	74	96
879.778439016	128	62	64
879.788068773	128	35	64
879.791645551	128	24	64
879.917795538	144	62	92
879.928536372	144	67	104
879.948154296	128	84	64
879.952941545	128	67	64
879.964025561	144	107	102
879.96711074	144	108	116
880.021644435	128	107	64
880.035293026	128	74	64
880.0398047	128	108	64
880.059565606	144	35	87
880.11013705	128	62	64
880.20330895	128	35	64
880.297120473	144	62	89
880.306864998	144	104	66
880.321096026	128	104	64
880.394771861	128	62	64
880.412207536	144	67	50
880.436170433	128	67	64
880.509212285	144	35	126
880.512342643	144	107	105
880.561129316	128	107	64
880.652654756	144	62	86
880.737543877	128	35	64
880.845269515	128	62	64
880.927250391	144	104	65
880.976063326	144	35	54
881.040903822	144	62	88
881.046748261	144	107	116
881.094791897	128	107	64
881.096403917	128	104	64
881.123357635	144	107	102
881.129972543	128	35	64
881.156221878	144	30	113
881.166756309	128	62	64
881.177311482	128	107	64
881.21184392	144	67	109
881.253901018	128	67	64
881.414298999	144	62	87
881.417001391	144	108	115
881.472774849	128	108	64
881.475375614	144	35	59
881.528389336	128	62	64
881.537822258	144	104	57
881.629151624	144	107	100
881.67881966	144	67	59
881.687376969	128	35	64
881.688306342	128	104	64
881.701237957	144	74	89
881.702825864	128	107	64
881.722329535	128	67	64
881.742238551	128	74	64
881.864450583	144	62	87
881.940838355	144	74	96
881.959452726	144	35	63
882.024786046	128	74	64
882.027936915	128	62	64
882.105381644	128	35	64
882.139185122	144	62	86
882.188809754	144	104	60
882.189015709	144	107	106
882.211623622	144	67	103
882.223553872	144	74	90
882.228774175	144	84	116
882.235158157	128	62	64
882.253222818	128	67	64
882.265818092	128	107	64
882.355717537	128	104	64
882.392902306	144	35	64
882.531031031	144	62	85
882.534773773	128	74	64
882.571441316	128	35	64
882.638599727	144	74	58
882.668908479	128	62	64
882.711948855	144	67	53
882.753286825	128	67	64
882.776297146	144	86	96
882.809640917	144	35	70
882.829299389	144	107	106
882.877386554	128	107	64
882.888982829	144	62	85
882.934271243	128	84	64
882.981291771	128	35	64
883.034037982	144	22	66
883.084660086	128	74	64
883.17948733	128	62	64
883.24028578	144	74	41
883.247586671	128	86	64
883.261078098	144	108	115
883.289577326	144	84	119
883.292988248	144	35	70
883.333751646	144	62	90
883.356515444	128	108	64
883.413418435	144	107	110
883.433822683	128	84	64
883.463239376	128	107	64
883.504262361	128	35	64
883.511591426	128	22	64
883.555288385	144	84	115
883.571537513	128	62	64
883.601920331	128	74	64
883.620679645	144	67	107
883.63392967	144	104	73
883.679759743	144	22	65
883.693153849	144	62	103
883.71534077	144	74	87
883.718330722	128	67	64
883.725662998	144	35	78
883.791303184	128	104	64
883.881697215	128	62	64
883.887551238	128	35	64
883.917315216	128	74	64
883.937365001	144	107	114
883.999387759	144	74	94
884.002887738	128	107	64
884.006786675	144	107	102
884.033162921	128	84	64
884.042914061	128	107	64
884.093554479	128	74	64
884.097494371	144	24	121
884.119860316	144	62	98
884.125070657	144	35	91
884.12828575	144	67	57
884.164443657	128	22	64
884.17516517	128	67	64
884.18896973	144	84	114
884.214356847	128	24	64
884.247218704	128	62	64
884.293273642	144	74	109
884.338694954	128	35	64
884.354580809	128	84	64
884.456071043	144	107	103
884.458726422	144	24	127
884.523683744	144	62	103
884.534432776	128	107	64
884.559132293	144	35	95
884.626677566	144	67	96
884.635130068	128	74	64
884.671645366	144	22	111
884.684644349	128	67	64
884.722935693	144	84	118
884.723789034	128	24	64
884.804659017	128	35	64
884.901772818	144	35	127
884.974017926	144	24	122
885.034083041	128	84	64
885.088620012	128	35	64
885.115341168	144	107	108
885.149666548	144	108	114
885.16203883	144	67	54
885.164439582	128	107	64
885.184157161	128	67	64
885.184835732	128	24	64
885.203631874	128	62	64
885.203897681	144	62	98
885.204074656	128	62	64
885.205696446	144	62	102
885.239749957	128	108	64
885.288611091	128	62	64
885.301044354	144	86	90
885.325002002	144	35	94
885.415304656	128	35	64
885.483296848	128	22	64
885.494344616	144	84	10
885.508118737	144	62	99
885.5096005	144	24	116
885.572890776	144	22	120
885.618642446	128	84	64
885.697105659	144	107	108
885.704741679	144	77	32
885.709340625	144	35	92
885.719198889	128	24	64
885.722959405	128	62	64
885.741729393	128	107	64
885.763882372	128	86	64
885.786446576	128	77	64
885.786519088	144	77	19
885.795837728	144	84	99
885.814397546	128	35	64
885.822855105	128	30	64
885.882553856	128	77	64
885.944145717	144	77	35
885.973868266	128	77	64
886.034796676	144	24	111
886.037180125	144	77	26
886.058964679	144	35	85
886.087677256	128	77	64
886.09028472	144	67	101
886.121406852	128	84	64
886.152275827	128	67	64
886.155060567	144	77	43
886.189655458	128	24	64
886.20319277	128	35	64
886.264139117	144	107	107
886.270047315	128	77	64
886.271985593	144	77	34
886.273778109	128	77	64
886.308404789	128	107	64
886.326050306	144	77	48
886.387642208	128	77	64
886.400485017	144	77	38
886.432521699	128	22	64
886.442649204	144	35	90
886.463168922	128	35	64
886.490336458	128	77	64
886.52427106	144	22	116
886.537327581	144	77	55
886.551172754	144	84	43
886.582783227	128	77	64
886.623945132	144	24	122
886.635068417	128	84	64
886.638973188	144	77	45
886.655422162	128	77	64
886.661106498	144	67	57
886.685460763	128	67	64
886.725848421	128	24	64
886.726121333	144	77	65
886.753490572	128	77	64
886.753534199	144	77	52
886.757561199	144	84	95
886.803246184	144	74	98
886.803677333	128	77	64
886.813015276	144	107	108
886.828841853	128	74	64
886.834089204	128	84	64
886.859937536	144	35	83
886.860562346	128	107	64
886.886579049	144	77	65
886.928050872	128	77	64
886.930045482	128	35	64
886.932429459	144	77	55
886.975268751	144	74	87
886.987545819	128	77	64
887.006865111	144	77	74
887.14421448	144	67	97
887.147036876	128	77	64
887.148337226	144	77	61
887.148966207	128	77	64
887.165581166	128	30	64
887.200271732	144	84	100
887.220030487	128	67	64
887.239100581	144	77	80
887.242912332	144	35	81
887.248633314	128	84	64
887.2655805	128	77	64
887.281642314	128	22	64
887.3082044	144	84	90
887.330038599	144	77	70
887.330201214	128	77	64
887.33067056	128	35	64
887.343526335	144	77	88
887.363348501	128	84	64
887.372700988	144	107	108
887.411772092	128	74	64
887.420708187	128	77	64
887.421791766	144	77	78
887.447294149	128	107	64
887.513992985	128	77	64
887.563230692	144	84	77
887.572082675	128	84	64
887.574534255	144	77	93
887.574742586	128	77	64
887.574788411	144	77	91
887.604333006	144	84	95
887.609235447	144	35	83
887.639895156	144	67	53
887.648456203	128	84	64
887.697596036	128	35	64
887.718027754	128	67	64
887.74573082	144	22	120
887.750561315	128	77	64
887.750833294	144	77	103
887.767501591	144	108	120
887.779020616	128	77	64
887.779320088	144	77	93
887.78342834	144	84	94
887.812601601	128	84	64
887.823654752	128	108	64
887.834270098	128	77	64
887.868511135	144	84	77
887.87040488	144	74	77
887.884689559	144	77	106
887.897513222	128	84	64
887.911976217	128	74	64
887.933369496	144	84	93
887.947072611	128	77	64
887.947121999	144	77	101
887.962107682	144	107	101
887.964594108	144	74	71
887.97650959	144	35	79
887.981378251	128	84	64
887.987074492	128	77	64
888.002245392	128	107	64
888.033611822	144	84	76
888.06336699	128	84	64
888.064262327	128	35	64
888.100457036	144	84	95
888.129985481	128	84	64
888.134156591	144	24	1
888.144134362	144	77	111
888.144281594	128	77	64
888.144339646	144	77	110
888.152126229	144	35	127
888.184151061	144	84	69
888.218867573	128	77	64
888.219150619	144	77	123
888.219289598	128	77	64
888.246334317	128	84	64
888.247681612	144	77	118
888.265749689	144	84	87
888.294094163	128	77	64
888.314166839	128	84	64
888.319015974	144	86	95
888.321983067	128	35	64
888.323298073	128	24	64
888.366802787	144	84	63
888.412509356	128	84	64
888.42896001	144	107	98
888.432387375	144	84	84
888.475645029	128	107	64
888.480481766	128	84	64
888.501593586	128	74	64
888.509011405	144	35	95
888.534418968	144	84	63
888.56303915	128	84	64
888.600588094	144	84	85
888.606822637	144	24	16
888.614115924	128	35	64
888.648301517	128	84	64
888.664679132	128	22	64
888.695747372	144	67	102
888.700316239	144	84	66
888.707294723	128	24	64
888.719008963	144	35	91
888.729767078	128	84	64
888.767106858	144	84	85
888.771436079	128	67	64
888.797349748	128	84	64
888.797640788	128	35	64
888.802937447	144	24	35
888.852081225	144	84	73
888.871786621	128	24	64
888.896125166	128	84	64
888.901835407	144	74	84
888.914650426	128	86	64
888.937576055	144	84	94
888.943540797	128	74	64
888.9473962	144	24	54
888.950740492	144	108	123
888.959624598	144	35	86
888.96324801	128	84	64
888.979515019	144	107	101
888.997877747	144	22	117
889.006183569	128	108	64
889.016221156	144	84	85
889.019382562	128	24	64
889.02342097	128	107	64
889.030612231	128	35	64
889.065942094	128	84	64
889.073559599	144	84	103
889.088358219	144	74	86
889.090509987	144	24	66
889.12874057	128	84	64
889.165137253	128	24	64
889.166962572	144	84	95
889.217237721	144	67	65
889.229402612	128	84	64
889.241715676	144	24	81
889.249223215	144	84	116
889.258910304	144	35	123
889.278823469	128	22	64
889.284802871	128	67	64
889.28923666	144	104	70
889.296223444	128	84	64
889.308751621	128	24	64
889.332785058	144	84	102
889.375139457	144	24	100
889.380749383	128	84	64
889.399512121	144	84	118
889.405178496	128	35	64
889.431379348	128	24	64
889.446760966	128	84	64
889.452107483	128	104	64
889.466189107	144	108	123
889.49515832	144	24	117
889.518739293	144	84	107
889.544633528	144	107	98
889.547269154	128	84	64
889.556036519	128	108	64
889.567609577	144	84	119
889.570385593	128	74	64
889.574378409	128	24	64
889.591500123	128	107	64
889.628209598	144	24	127
889.629853436	128	84	64
889.643231182	144	35	89
889.67018043	144	84	104
889.709961161	144	67	97
889.722809794	128	24	64
889.730677002	128	84	64
889.730809457	128	35	64
889.750584771	144	84	114
889.785595273	128	67	64
889.787640893	144	35	93
889.797377395	128	84	64
889.798488123	144	24	116
889.851338316	144	84	104
889.854287868	128	24	64
889.880629597	144	77	20
889.899138125	128	84	64
889.90462485	144	84	120
889.917457717	144	22	114
889.928204147	128	77	64
889.949004503	144	24	74
889.949187396	128	84	64
889.978709546	144	104	58
889.986272038	128	24	64
890.001180968	144	84	104
890.005216359	128	35	64
890.005753633	144	35	95
890.058600236	128	104	64
890.063967946	128	84	64
890.068329288	144	24	55
890.081180377	128	35	64
890.084882242	144	84	116
890.110363422	144	107	98
890.113622501	128	24	64
890.131382763	128	84	64
890.137586415	128	107	64
890.15104424	144	108	122
890.167583055	144	35	119
890.169491553	144	77	31
890.169974842	144	84	104
890.179975359	144	24	46
890.206181639	128	108	64
890.20995832	144	67	56
890.211565771	128	77	64
890.249128907	128	84	64
890.249202886	144	84	108
890.249537976	128	24	64
890.252913453	128	67	64
890.318791804	144	24	27
890.322006452	128	35	64
890.330740267	128	84	64
890.346303938	128	22	64
890.392610456	128	24	64
890.401585556	144	84	100
890.45130817	144	24	17
890.467086361	144	35	116
890.48187592	128	84	64
890.532144549	128	24	64
890.593645237	144	24	12
890.593987874	144	77	39
890.594818651	144	107	113
890.617866725	128	35	64
890.619360921	144	104	60
890.627303196	128	77	64
890.652631784	144	35	119
890.661728557	128	24	64
890.683645207	128	107	64
890.684514645	144	22	30
890.687923939	144	107	97
890.698518291	128	104	64
890.714016533	128	107	64
890.735482585	144	108	121
890.751824974	144	77	34
890.805125512	128	35	64
890.806332397	128	108	64
890.807109003	128	77	64
890.852598027	144	35	117
890.900795164	144	77	51
890.965261482	128	77	64
890.997401865	128	35	64
891.035254973	144	77	47
891.108210456	128	77	64
891.175803367	144	35	115
891.209339911	144	107	101
891.215152246	144	77	63
891.230131027	128	22	64
891.241150227	144	104	55
891.25619068	128	107	64
891.263618983	128	77	64
891.303991409	144	108	120
891.328445593	144	67	100
891.32893848	128	104	64
891.367868227	128	67	64
891.373497825	128	108	64
891.392921359	144	77	61
891.420221566	128	77	64
891.673563261	144	77	73
891.673774488	128	77	64
891.674011716	144	77	74
891.735113615	128	77	64
891.783640547	144	22	62
891.795438175	144	67	57
891.796825762	144	107	106
891.804393425	144	77	88
891.832956997	144	104	55
891.834084477	128	77	64
891.841476561	128	107	64
891.853617891	128	67	64
891.867348398	144	108	120
891.907978231	144	77	84
891.931724542	128	104	64
891.935345174	128	77	64
891.939221076	128	108	64
892.138239242	144	77	101
892.171993461	128	77	64
892.256797065	144	77	99
892.331056369	128	22	64
892.384326735	128	77	64
892.394088722	144	104	58
892.394389398	144	67	95
892.39572789	144	107	101
892.419348725	144	108	118
892.426026826	128	67	64
892.443214265	128	107	64
892.480163896	128	104	64
892.486912161	144	77	87
892.506321111	128	108	64
892.563652704	144	22	87
892.691750225	128	77	64
892.692067577	144	77	111
892.692249513	128	77	64
892.692298142	144	77	87
892.692459088	128	77	64
892.692640526	144	77	115
892.692798772	128	77	64
892.692831792	144	77	87
892.743981271	128	77	64
892.744052604	144	77	49
892.788920786	128	77	64
892.851134477	144	108	117
892.870084186	144	67	61
892.90662811	128	108	64
892.929443524	144	107	109
892.939838611	128	67	64
892.956905761	144	104	58
893.014298643	144	52	75
893.018010778	128	107	64
893.024509853	128	104	64
893.233465295	144	108	117
893.257079879	128	24	64
893.289609676	128	108	64
893.30323456	144	86	82
893.364925685	128	86	64
893.438826892	144	104	60
893.453431634	144	107	100
893.499475383	128	22	64
893.509438641	128	104	64
893.517699995	128	107	64
893.600324916	144	108	116
893.654447442	128	35	64
893.674928751	128	108	64
893.913557225	144	22	110
894.012092274	144	67	98
894.053430517	128	67	64
894.068574139	144	108	113
894.095319083	144	107	104
894.121348441	128	107	64
894.123652031	128	108	64
894.394506898	144	77	24
894.395021345	128	77	64
894.529181785	144	67	58
894.534095857	144	108	113
894.535959938	144	77	42
894.55114992	128	22	64
894.559510529	144	35	54
894.571916851	128	77	64
894.584446337	128	67	64
894.589987566	128	108	64
894.599147326	128	35	64
894.648292495	144	77	43
894.661472837	144	107	101
894.702925719	128	107	64
894.737806177	128	77	64
894.73788727	144	77	53
894.812130981	128	77	64
894.857796396	144	77	49
894.872434267	128	77	64
894.911181967	144	108	109
895.007078613	128	108	64
895.058386264	144	67	96
895.102282579	128	67	64
895.109582218	144	35	52
895.178797227	144	107	113
895.180330387	128	35	64
895.207684629	144	104	61
895.274608726	128	104	64
895.296989756	128	107	64
895.466451918	144	77	59
895.467028502	144	108	109
895.517630804	128	77	64
895.540919326	128	108	64
895.569809664	144	77	53
895.595385197	144	67	57
895.61024161	144	35	64
895.636551823	128	67	64
895.662133744	128	77	64
895.669304684	144	77	64
895.669533606	128	77	64
895.713926164	128	35	64
895.755546779	144	77	75
895.759561148	144	104	59
895.78765238	128	77	64
895.81295539	144	107	101
895.834459592	128	107	64
895.837329954	144	77	67
895.837627366	128	77	64
895.841736145	128	104	64
895.999765599	144	108	105
896.041531173	128	108	64
896.063970272	144	77	69
896.070305875	144	74	80
896.074604182	128	74	64
896.074883835	144	35	57
896.144178553	128	77	64
896.147397587	128	35	64
896.276367764	144	74	87
896.347103413	144	104	58
896.384250658	144	108	107
896.408614374	128	104	64
896.414681829	144	107	102
896.438606807	128	108	64
896.454321805	128	107	64
896.551151776	144	35	55
896.620079708	128	74	64
896.648473175	128	35	64
896.749995907	144	108	110
896.806476821	128	108	64
896.808213692	144	74	74
896.8453434	144	67	102
896.889757825	144	77	69
896.910768889	128	77	64
896.918769494	128	67	64
896.919330531	144	104	58
896.960330893	144	107	115
896.989177351	128	104	64
897.007007859	144	77	62
897.026280569	144	35	54
897.035180446	128	107	64
897.035228174	144	107	100
897.053492845	128	77	64
897.081801916	128	107	64
897.152568666	144	108	110
897.152776629	144	77	72
897.171875325	128	35	64
897.173293433	128	77	64
897.206159259	128	108	64
897.318972097	144	86	82
897.341791281	144	67	61
897.352851388	128	74	64
897.401758215	128	67	64
897.423325968	128	86	64
897.474862773	144	35	54
897.478816919	144	104	55
897.544135991	144	107	100
897.562123942	128	104	64
897.583032381	128	107	64
897.585408819	144	108	108
897.619202423	128	35	64
897.624080421	128	108	64
897.913585157	144	67	97
897.926121175	144	35	106
897.960440493	144	108	108
897.96795843	128	67	64
898.039398554	128	108	64
898.11936198	144	104	55
898.124947721	144	77	65
898.141788077	144	107	99
898.17049487	128	77	64
898.1840932	128	104	64
898.186824518	128	107	64
898.217148228	144	77	55
898.23476244	128	77	64
898.273085375	128	35	64
898.273329528	144	77	63
898.301388655	128	77	64
898.347308156	144	77	61
898.361742236	144	108	107
898.378876833	128	77	64
898.386475778	144	86	90
898.422485413	144	77	73
898.422696382	128	77	64
898.440229852	128	108	64
898.476685479	144	35	54
898.534762298	144	67	61
898.535217608	128	86	64
898.536818801	128	67	64
898.620706701	128	35	64
898.661822841	144	107	114
898.71886719	128	107	64
898.718932384	144	107	98
898.726895506	144	104	58
898.747286757	128	107	64
898.792975731	128	104	64
898.801032973	144	108	104
898.841604734	128	108	64
898.990491364	128	52	64
898.993561121	144	35	54
899.080978003	128	35	64
899.234048318	144	108	103
899.262442897	144	77	69
899.270443868	144	104	49
899.27275226	128	77	64
899.279986783	144	107	123
899.280368212	128	107	64
899.280414679	144	107	104
899.289475092	128	108	64
899.322827379	144	77	76
899.323018085	128	77	64
899.342843003	128	104	64
899.352199037	128	107	64
899.368774628	144	77	71
899.389214745	128	77	64
899.389298232	144	77	76
899.476164621	144	35	56
899.51015135	128	77	64
899.520593306	144	77	85
899.530391907	128	35	64
899.560813128	128	77	64
899.686163653	144	108	102
899.703444925	144	86	89
899.725081851	128	108	64
899.747236643	144	52	29
899.814206547	144	67	99
899.826688407	128	86	64
899.839009605	128	67	64
899.844493891	128	22	64
899.860729087	144	107	115
899.902538276	144	35	56
899.91618076	128	107	64
899.946007763	144	107	103
899.959922532	144	104	50
899.998986048	128	107	64
900.046612128	128	35	64
900.051509604	128	104	64
900.067790366	144	108	105
900.073944354	128	52	64
900.139601668	128	108	64
900.312742454	144	67	60
900.386854643	144	52	23
900.392522345	128	67	64
900.40907551	144	35	60
900.468074359	144	77	71
900.468263769	128	77	64
900.496773898	144	107	101
900.500683749	144	108	105
900.512061738	144	104	52
900.516704303	128	35	64
900.53265852	128	107	64
900.544079105	144	77	73
900.544240812	128	77	64
900.544273777	144	77	67
900.553145134	128	104	64
900.556560086	128	108	64
900.559234845	128	77	64
900.612753346	144	77	66
900.657745232	128	52	64
900.843049782	144	35	60
900.884666174	144	67	100
900.918119722	144	108	103
900.939026754	128	108	64
900.94228033	128	67	64
900.95051351	128	77	64
900.950761509	144	77	79
900.950921504	128	77	64
900.951118085	144	77	72
900.951971888	128	77	64
900.987996993	128	35	64
900.996896813	144	107	110
901.014434052	144	52	31
901.029016151	128	107	64
901.040770348	144	86	73
901.054490797	144	107	100
901.117973174	128	107	64
901.257756792	128	52	64
901.334803166	144	108	102
901.342487425	144	35	57
901.375054469	128	108	64
901.445487511	144	67	61
901.463320334	128	86	64
901.504355207	128	67	64
901.54105701	144	107	103
901.541952542	144	52	36
901.570037558	128	107	64
901.571807474	128	35	64
901.607593766	144	77	90
901.739888278	128	77	64
901.74017642	144	77	87
901.740529785	128	77	64
901.75072401	144	108	98
901.793334417	144	35	127
901.806628932	128	108	64
901.807677799	128	52	64
901.870671173	144	77	93
901.870871296	128	77	64
901.97091467	144	77	86
901.971155766	128	77	64
901.971512348	144	77	95
901.971689486	128	77	64
902.127209506	144	107	101
902.139725086	128	35	64
902.149476489	128	107	64
902.201180499	144	108	92
902.273230832	128	108	64
902.283976822	144	35	54
902.334728554	144	52	42
902.364590028	128	35	64
902.416404058	128	52	64
902.583756433	144	108	89
902.640018912	128	108	64
902.676185833	144	107	113
902.680526044	144	52	38
902.697175613	128	107	64
902.725452152	144	107	105
902.759260911	144	35	56
902.781766476	128	107	64
902.782237051	128	52	64
902.861124146	144	52	41
902.863862048	128	35	64
902.968057458	128	52	64
902.97297783	144	77	79
903.013968901	144	52	44
903.06728747	144	108	87
903.085355575	128	77	64
903.085587572	144	77	72
903.101698664	128	52	64
903.123461896	128	108	64
903.132091818	128	77	64
903.162881655	144	52	45
903.176033626	144	77	83
903.185303659	144	35	56
903.248918622	128	52	64
903.277096658	144	107	102
903.312965342	144	52	48
903.328810007	128	35	64
903.332446137	128	107	64
903.381514526	128	52	64
903.428448809	144	108	89
903.435196325	128	77	64
903.463299327	144	52	51
903.523973742	128	108	64
903.531428262	128	52	64
903.675672473	144	52	54
903.676291427	144	35	56
903.715682592	128	52	64
903.747056703	144	77	79
903.783126395	128	35	64
903.811941514	144	52	61
903.841360319	128	77	64
903.862774037	144	107	104
903.868777501	144	108	91
903.881838115	128	52	64
903.902870303	128	107	64
903.941475184	128	108	64
903.980518659	144	52	65
904.074650825	128	52	64
904.084149435	128	67	64
904.086255112	144	68	85
904.126654206	144	35	57
904.146127317	144	52	65
904.21653741	128	52	64
904.244923736	144	108	92
904.276193002	144	52	65
904.283810061	128	35	64
904.339929475	128	108	64
904.394448532	144	107	115
904.419378404	144	77	74
904.419573924	128	77	64
904.419615663	144	77	71
904.419753842	128	77	64
904.436164225	128	107	64
904.476586093	144	107	101
904.51116975	128	107	64
904.587039358	144	35	57
904.594280875	144	107	124
904.64848936	128	107	64
904.668932328	144	108	95
904.723593227	128	108	64
904.737299371	128	35	64
904.930374891	128	104	64
904.979938701	144	107	104
904.998275695	128	107	64
905.052252987	144	35	57
905.168820861	144	108	94
905.233739011	144	77	72
905.239660828	128	108	64
905.25141723	128	77	64
905.25392764	128	35	64
905.436727055	144	107	112
905.509690352	144	35	127
905.510051201	144	77	78
905.515100991	128	107	64
905.537610291	128	77	64
905.543869578	144	107	99
905.579849006	128	107	64
905.651763691	144	108	96
905.706384911	128	108	64
905.743347873	144	77	74
905.743543624	128	77	64
905.750342864	128	68	64
905.855181516	128	35	64
905.857958079	144	68	114
905.999255771	144	35	55
906.02702744	144	74	107
906.048706843	128	74	64
906.116144482	144	74	105
906.135475816	144	108	98
906.143734039	144	107	105
906.175983614	128	74	64
906.177641427	128	108	64
906.180722817	128	107	64
906.25534777	128	35	64
906.264183063	144	74	100
906.326881012	128	74	64
906.41460667	144	74	96
906.460293041	144	35	55
906.461211373	128	74	64
906.565237088	144	74	98
906.602681959	144	108	99
906.610699305	128	74	64
906.641882569	144	107	115
906.656643076	128	108	64
906.667504771	128	107	64
906.667599906	144	107	121
906.678578914	128	107	64
906.697626425	144	74	99
906.709110752	144	86	60
906.718878263	144	107	97
906.722502574	128	35	64
906.724025214	128	52	64
906.760895268	128	74	64
906.801399422	128	107	64
906.803054257	144	77	72
906.820988589	128	77	64
906.915972392	144	77	73
906.925029052	144	74	97
906.942149898	144	35	57
906.975755282	128	77	64
907.103293358	144	108	98
907.141788404	128	108	64
907.189029269	128	35	64
907.220308015	144	107	100
907.287634745	128	107	64
907.411060644	144	35	57
907.480709353	128	68	64
907.481076911	144	68	89
907.552838847	144	108	102
907.623348868	128	108	64
907.6537874	128	74	64
907.693186041	128	35	64
907.726112198	144	107	115
907.765492681	128	107	64
907.79366082	144	107	102
907.830766207	128	107	64
907.879256769	144	35	57
907.902826012	144	108	102
907.914174034	128	68	64
907.955919155	128	108	64
908.122231094	128	35	64
908.147151471	144	52	121
908.220719823	144	77	78
908.253761417	128	77	64
908.265766584	144	68	64
908.269605774	144	108	102
908.323259091	128	108	64
908.339878575	144	107	104
908.381394603	128	107	64
908.393065807	144	35	55
908.413159369	144	77	77
908.457209326	128	77	64
908.551678201	128	86	64
908.63600645	144	108	103
908.6387351	128	35	64
908.689847562	128	108	64
908.841604506	144	107	116
908.877723381	144	35	56
908.94447164	128	107	64
908.971700574	144	108	105
909.025528543	128	108	64
909.105846258	128	35	64
909.292861555	144	35	127
909.300878174	144	108	106
909.306518452	144	74	93
909.355990957	128	108	64
909.4272949	144	107	116
909.448980031	128	107	64
909.470719131	144	107	107
909.522756891	144	86	74
909.54442673	128	107	64
909.585835799	144	107	123
909.631681061	128	107	64
909.650034639	144	108	106
909.693716896	144	77	78
909.706534338	128	108	64
909.739697827	128	77	64
909.755676528	128	35	64
909.756220538	144	35	57
909.8535637	144	77	78
909.936378176	128	77	64
909.958705876	144	107	107
909.972462272	128	35	64
910.000372476	144	108	104
910.001400432	128	68	64
910.002664553	128	107	64
910.07389417	128	108	64
910.076824422	144	68	63
910.238049608	128	74	64
910.260126602	144	35	58
910.350792832	144	108	105
910.406414516	128	108	64
910.455435667	128	35	64
910.503258595	144	77	77
910.559808147	144	107	109
910.594783076	128	77	64
910.612622117	128	107	64
910.614591665	128	68	64
910.669597349	144	108	105
910.739867005	128	108	64
910.743258743	144	35	57
910.829709339	144	77	68
910.88657224	128	77	64
910.886630099	144	77	73
910.888091517	128	35	64
911.018129101	144	108	106
911.01911936	128	77	64
911.049911508	144	68	51
911.073533437	128	108	64
911.108501659	128	52	64
911.125492854	144	107	106
911.143673722	144	35	57
911.181734897	128	107	64
911.350654571	144	108	107
911.355678601	128	35	64
911.40655093	128	108	64
911.407124698	144	77	73
911.459363328	128	77	64
911.492926876	128	68	64
911.626977169	144	35	58
911.685420394	144	108	106
911.697055745	144	68	85
911.726590372	144	107	106
911.739988843	128	108	64
911.76942198	128	107	64
911.822713534	128	35	64
911.838069853	128	86	64
912.010974037	144	108	105
912.069103157	144	35	57
912.075322709	128	108	64
912.119873637	144	52	8
912.168057767	128	52	64
912.236369283	144	107	119
912.238934064	128	35	64
912.295005949	128	107	64
912.29918848	144	107	102
912.314778584	144	52	10
912.347216382	128	107	64
912.383679736	128	52	64
912.386029968	144	108	105
912.425904568	128	108	64
912.472786867	144	52	14
912.56024035	144	35	58
912.618766045	128	52	64
912.672998347	144	52	19
912.750449634	144	108	105
912.788365276	128	35	64
912.806537564	128	108	64
912.818833186	128	52	64
912.825422405	144	107	106
912.862197307	144	52	23
912.866827279	128	68	64
912.886599279	128	107	64
912.966675608	128	52	64
912.975834725	144	35	127
913.047830085	144	52	24
913.066997383	144	108	105
913.123655133	128	108	64
913.149990786	128	52	64
913.239133153	144	52	28
913.373611421	144	86	77
913.380875565	144	108	106
913.384434331	128	52	64
913.439745034	144	52	31
913.474232053	128	108	64
913.475347989	144	107	107
913.492305074	128	35	64
913.537154184	128	107	64
913.584232241	128	52	64
913.639955631	144	52	34
913.767222575	144	108	97
913.785038474	128	52	64
913.808622781	128	108	64
913.858579263	144	52	41
913.992770281	144	35	58
914.003600328	128	52	64
914.00705242	144	107	121
914.029723377	128	107	64
914.048836594	128	68	64
914.052363479	144	107	108
914.058799559	144	52	46
914.062055873	144	108	94
914.111130096	128	107	64
914.117371863	128	35	64
914.157024697	128	108	64
914.206664142	128	52	64
914.435027811	144	108	88
914.459869216	144	35	59
914.489895783	128	108	64
914.625572105	144	107	109
914.638347084	128	35	64
914.669729032	128	107	64
914.784394152	144	108	87
914.856498766	128	108	64
914.901285322	144	35	58
914.999433057	144	74	93
915.046291862	128	74	64
915.138907574	128	35	64
915.151371045	144	108	86
915.191689061	144	74	93
915.224238569	128	108	64
915.225143584	144	107	119
915.244108245	128	74	64
915.273069357	128	107	64
915.287712305	144	107	114
915.315628213	144	74	94
915.330293273	128	107	64
915.38176721	128	86	64
915.393325971	144	35	59
915.413422421	144	77	34
915.459894676	128	74	64
915.500711694	144	74	99
915.511454747	128	77	64
915.536188409	144	108	83
915.547537227	144	86	73
915.577580335	128	74	64
915.588409422	128	35	64
915.606410295	128	86	64
915.606652108	128	108	64
915.83477882	144	107	109
915.85490007	144	35	61
915.879915171	128	107	64
915.907981538	144	108	81
915.97400838	128	108	64
916.0510214	128	52	64
916.097394405	128	35	64
916.269002577	144	108	77
916.340723056	128	108	64
916.35553149	144	77	37
916.361765607	144	35	63
916.406050092	128	77	64
916.425062663	144	107	121
916.44558883	128	107	64
916.470615574	144	107	110
916.518995652	128	107	64
916.622478335	128	35	64
916.639014007	144	86	82
916.667653302	144	108	74
916.714712391	128	86	64
916.722428271	128	108	64
916.767249055	144	82	104
916.801268942	144	35	125
916.93474892	144	107	110
916.953383115	144	77	58
916.979377142	128	107	64
916.989052279	128	77	64
917.069329693	144	108	72
917.13821613	128	108	64
917.197735471	144	51	73
917.238217176	128	35	64
917.238508544	144	35	67
917.277906805	128	51	64
917.418004966	144	108	70
917.463191817	144	77	56
917.500078482	144	107	106
917.506654379	128	108	64
917.507153124	128	35	64
917.549162595	128	77	64
917.570161922	128	107	64
917.740935118	144	51	81
917.760098604	144	35	66
917.8134863	144	93	105
917.820132359	128	51	64
917.848961924	144	74	53
917.852086712	144	108	70
917.923622364	128	108	64
917.929350193	144	86	76
917.95580066	128	35	64
918.075228122	144	107	108
918.090450285	144	77	54
918.132124093	128	86	64
918.148084389	128	107	64
918.182390082	128	77	64
918.210104247	144	51	82
918.250957024	144	35	65
918.252718691	128	51	64
918.261575562	144	108	70
918.32377807	128	108	64
918.400381014	144	51	91
918.412066237	128	35	64
918.41881327	128	51	64
918.4725863	128	74	64
918.551239317	144	108	71
918.556497674	144	107	115
918.573720934	144	51	90
918.590544858	128	51	64
918.593169134	128	107	64
918.6246702	144	107	106
918.639936956	128	108	64
918.679492641	128	107	64
918.692951262	144	51	88
918.697746646	144	77	67
918.708261952	144	107	123
918.735307863	128	93	64
918.748416954	128	51	64
918.753407634	144	35	65
918.764570593	128	107	64
918.779035794	128	77	64
918.840056689	128	40	64
918.916094527	144	93	112
918.920909049	128	35	64
918.934274737	144	108	70
918.970823844	128	82	64
919.022744469	128	108	64
919.179689565	144	82	100
919.224468574	144	107	108
919.226498684	144	35	65
919.243727	144	74	68
919.270811644	128	107	64
919.275811402	144	51	81
919.291062644	144	86	81
919.296319024	128	74	64
919.301310528	144	108	66
919.339856731	128	51	64
919.344768091	144	77	72
919.369818969	144	74	66
919.390104551	128	108	64
919.405786996	128	35	64
919.409741428	128	77	64
919.444932834	128	74	64
919.465416068	128	93	64
919.515463894	144	74	69
919.594974485	128	74	64
919.633891888	144	108	66
919.653430398	144	93	112
919.685612573	144	74	66
919.707431694	128	108	64
919.730357453	144	35	64
919.800623931	144	107	120
919.804515665	144	51	80
919.831010754	128	74	64
919.883018672	128	51	64
919.926503586	128	107	64
919.936439537	128	35	64
919.985020721	144	108	64
920.056758633	128	108	64
920.22670033	144	35	65
920.285263198	128	93	64
920.287799033	144	74	70
920.33165797	144	77	59
920.335316756	144	108	67
920.381016184	144	51	78
920.42301727	128	51	64
920.423177207	128	77	64
920.423334252	128	108	64
920.456087336	128	35	64
920.473774059	144	107	108
920.479381425	128	86	64
920.495186327	128	107	64
920.522842196	128	74	64
920.578259905	144	51	80
920.591046991	128	51	64
920.601944302	144	93	111
920.721418277	144	108	68
920.738683491	144	51	76
920.763981421	128	51	64
920.773409267	128	108	64
920.792801094	144	35	123
920.827720439	144	74	104
920.887631183	144	86	88
920.902938345	128	93	64
920.909557178	144	51	76
920.91074754	128	51	64
921.006388465	144	107	115
921.036495147	144	108	70
921.04848672	128	86	64
921.053674606	144	51	82
921.111263638	128	107	64
921.127934557	128	51	64
921.130597081	128	108	64
921.131519831	128	74	64
921.286179517	144	77	58
921.291414001	128	35	64
921.33708847	128	77	64
921.367393239	144	108	69
921.441122575	128	108	64
921.574461334	144	107	106
921.619114689	128	107	64
921.647967028	144	51	76
921.710299209	128	51	64
921.736476492	144	108	69
921.823406905	128	108	64
921.826784475	144	35	69
922.006146676	128	35	64
922.059439949	128	82	64
922.08525681	144	108	67
922.13845779	144	107	117
922.172761824	144	51	76
922.173368513	128	108	64
922.173848404	128	93	64
922.233847028	128	107	64
922.259630402	144	77	56
922.269965687	144	35	67
922.27101985	144	82	98
922.274574428	128	51	64
922.324428416	128	77	64
922.420071294	144	108	67
922.490083193	128	108	64
922.517688593	128	35	64
922.652840357	144	86	80
922.747551608	144	107	110
922.755538584	144	108	68
922.785356252	144	35	67
922.795192962	128	107	64
922.808959971	144	77	56
922.823496968	128	108	64
922.858208978	128	77	64
922.988523191	128	35	64
923.000045614	144	77	55
923.037290272	128	77	64
923.086270191	144	108	72
923.140631719	144	77	56
923.156755393	128	108	64
923.185763282	128	77	64
923.269433422	144	35	67
923.331065526	144	107	116
923.365126841	144	77	55
923.40521855	128	77	64
923.430122737	128	107	64
923.461862206	144	108	73
923.52118851	128	35	64
923.539853534	144	107	122
923.557618058	128	108	64
923.611610558	128	107	64
923.66119192	144	51	70
923.69832104	128	51	64
923.760938813	144	35	64
923.817506331	144	108	76
923.87294472	144	74	110
923.873388274	128	108	64
923.989422065	128	35	64
923.990417282	144	107	108
923.991089276	128	86	64
924.047453352	128	107	64
924.086289874	144	77	54
924.135101468	128	77	64
924.172246079	128	74	64
924.18475907	144	108	75
924.215521091	144	51	66
924.240284394	128	108	64
924.259128789	144	35	65
924.284385636	128	51	64
924.32741925	144	74	107
924.505909214	128	35	64
924.5180743	144	108	82
924.556890378	144	107	107
924.590641123	128	108	64
924.592783334	128	107	64
924.619369249	144	77	57
924.644731122	128	77	64
924.68642146	144	86	82
924.760153665	144	35	124
924.852521429	128	86	64
924.869708174	144	108	83
924.923753891	128	108	64
924.957156213	128	74	64
925.021942885	144	74	90
925.085286988	144	107	111
925.094987469	128	74	64
925.135493641	144	86	82
925.15908343	128	107	64
925.16121217	144	107	104
925.182492506	128	35	64
925.212800266	128	107	64
925.216974819	144	108	85
925.244928435	128	82	64
925.255907685	144	35	66
925.260080761	144	74	67
925.288799924	144	107	121
925.290833332	128	108	64
925.294915849	144	77	60
925.298688047	128	86	64
925.337528707	128	77	64
925.362805978	128	107	64
925.384203736	144	107	106
925.421948372	128	35	64
925.457615948	144	77	57
925.463427242	128	107	64
925.488511185	128	77	64
925.518413608	144	51	64
925.572179672	144	108	87
925.575517909	144	77	57
925.612790326	128	51	64
925.623665442	128	108	64
925.624522531	128	77	64
925.707647047	144	107	119
925.728650607	144	77	58
925.73556639	144	35	66
925.757356736	128	77	64
925.768282094	128	107	64
925.774157432	144	101	55
925.906878935	128	74	64
925.918560245	144	108	90
925.941575902	128	101	64
925.973041512	128	35	64
925.973459802	128	108	64
926.090888869	144	51	70
926.188197763	128	51	64
926.223043893	144	107	104
926.25843592	144	35	66
926.259612027	128	107	64
926.270115295	144	108	90
926.284189305	144	107	102
926.297573953	144	101	71
926.327452957	128	107	64
926.340083182	128	108	64
926.430488044	144	77	62
926.464323723	128	35	64
926.493923907	128	77	64
926.603086264	144	108	92
926.644371512	128	108	64
926.653119455	144	51	79
926.718112339	128	51	64
926.750178621	128	101	64
926.755663548	144	86	83
926.760939646	144	35	68
926.856039648	144	107	98
926.875644297	144	51	79
926.892796235	128	51	64
926.899987465	128	107	64
926.969140128	144	108	95
926.988496844	128	35	64
926.98962009	144	77	61
926.99788225	144	101	64
927.023990832	128	108	64
927.027889356	128	77	64
927.035602942	144	51	76
927.065892804	128	51	64
927.16948759	144	51	80
927.196654206	144	82	44
927.213655184	128	51	64
927.243768647	144	35	69
927.301725322	144	108	100
927.356726012	128	108	64
927.365833555	144	107	114
927.370398992	144	51	79
927.420257374	128	51	64
927.468239791	128	86	64
927.479579848	128	107	64
927.522444256	128	35	64
927.558105948	128	101	64
927.565783081	144	77	67
927.601231919	128	77	64
927.634034003	144	108	104
927.638381277	144	56	103
927.707740893	128	82	64
927.707857628	128	108	64
927.71780147	144	77	65
927.748521944	144	101	61
927.754638949	128	77	64
927.77567957	144	35	70
927.821898958	144	51	84
927.916072378	128	51	64
927.95593346	128	35	64
927.974350776	144	107	109
928.003391407	144	108	105
928.01755347	128	107	64
928.057072046	128	108	64
928.239947741	144	35	67
928.263085265	128	101	64
928.354145935	144	51	77
928.358162212	144	108	111
928.362108985	144	86	75
928.397327397	144	82	113
928.423749048	128	108	64
928.448516515	144	101	70
928.470213144	144	77	56
928.507496693	144	107	117
928.515946112	128	51	64
928.519965128	128	77	64
928.556449082	128	35	64
928.563566999	128	107	64
928.56645424	144	107	106
928.593642998	128	107	64
928.700549902	144	108	115
928.776472654	144	35	122
928.790356821	128	108	64
928.874897662	128	101	64
928.969423073	144	51	76
929.003466514	144	77	56
929.043853184	128	77	64
929.058008374	144	107	113
929.077614705	128	51	64
929.080616751	144	108	120
929.140906132	128	108	64
929.147847638	128	107	64
929.172121486	144	77	56
929.174419235	144	101	62
929.182704199	128	35	64
929.187818239	128	77	64
929.205589589	128	82	64
929.238074321	144	35	70
929.281703368	144	77	56
929.327035173	128	77	64
929.414042954	128	86	64
929.416246809	144	77	57
929.442274307	128	77	64
929.465199358	144	51	76
929.466883503	144	108	122
929.488630407	128	35	64
929.512356363	144	77	57
929.524131098	128	108	64
929.540989437	128	77	64
929.563011073	128	51	64
929.656739362	144	107	106
929.657823131	128	101	64
929.692277475	128	107	64
929.718288138	144	86	111
929.793110576	128	86	64
929.793868732	144	35	74
929.834913838	144	108	124
929.915900402	144	101	29
929.92285633	128	108	64
929.936193939	128	56	64
929.956791462	144	74	78
930.00034151	128	74	64
930.000423175	144	74	61
930.005174699	128	35	64
930.035111212	144	56	43
930.097761678	144	77	64
930.127761427	128	77	64
930.144698491	128	74	64
930.207075083	144	108	122
930.222950809	144	107	109
930.256991106	128	108	64
930.259908009	128	107	64
930.277489762	144	35	74
930.281420631	144	52	111
930.291428825	128	101	64
930.360854019	144	74	76
930.382012823	128	52	64
930.383889863	128	74	64
930.383981585	144	74	61
930.478895202	144	82	109
930.479072106	128	74	64
930.538870085	128	35	64
930.547999915	144	101	50
930.568245252	144	108	121
930.623268886	128	108	64
930.645683115	144	74	64
930.678041694	128	74	64
930.731552692	144	74	82
930.74342086	144	77	72
930.760243697	144	35	69
930.762539364	128	77	64
930.770408035	128	56	64
930.794913817	128	74	64
930.813654243	144	74	65
930.8220638	144	107	107
930.861578222	144	56	61
930.877347849	128	107	64
930.878011255	128	74	64
930.917163762	144	108	121
930.931871767	144	74	84
930.942021379	128	101	64
930.973623227	128	108	64
930.978444926	128	74	64
930.98539134	144	74	64
930.989708406	128	35	64
931.044786104	128	74	64
931.071099264	144	86	61
931.097572241	144	74	84
931.144892974	128	74	64
931.150770776	144	74	65
931.212539872	128	74	64
931.258798019	144	35	72
931.268088742	144	108	122
931.281638073	144	101	48
931.308631156	128	108	64
931.322796512	144	51	79
931.342400541	128	82	64
931.376713241	144	77	74
931.377011378	128	77	64
931.406331126	144	107	112
931.434336783	128	107	64
931.434413178	144	107	103
931.469516601	128	51	64
931.494531679	128	107	64
931.589147127	128	35	64
931.618580012	128	56	64
931.636788168	144	108	122
931.674895001	128	101	64
931.677072775	128	108	64
931.68609598	144	52	106
931.731381603	144	77	74
931.742648398	128	77	64
931.760670782	144	35	72
931.771575397	128	52	64
931.859799064	144	77	73
931.88874642	128	77	64
931.94925037	144	101	50
931.963526635	144	77	71
931.969866497	144	107	107
931.985309853	144	108	121
931.990962644	128	77	64
932.016776399	128	101	64
932.02203896	128	107	64
932.025819374	128	108	64
932.055265428	128	35	64
932.150920473	144	56	127
932.161192421	144	101	46
932.233987273	128	101	64
932.260985916	144	35	72
932.350790112	144	108	118
932.392516579	128	108	64
932.506123853	128	35	64
932.51434881	128	86	64
932.540697528	144	77	71
932.548191503	144	107	106
932.565490259	144	101	55
932.590511892	128	77	64
932.593011146	128	107	64
932.616126412	144	51	79
932.632793636	128	101	64
932.670284051	144	108	115
932.709855057	144	35	123
932.7405483	128	108	64
932.759196643	128	51	64
932.781863237	144	101	55
932.866886903	128	101	64
932.965351365	144	52	104
933.019580624	144	108	110
933.029266846	128	52	64
933.09067583	128	108	64
933.106120902	128	35	64
933.114372265	144	77	72
933.120652436	128	56	64
933.146607786	128	77	64
933.14747588	144	86	67
933.156413727	144	107	109
933.168880867	144	35	70
933.176062526	128	86	64
933.180124971	128	107	64
933.180192417	144	107	105
933.215644372	144	86	106
933.231580286	144	101	62
933.24377494	128	107	64
933.285809313	128	101	64
933.292711696	128	86	64
933.33689054	144	51	79
933.36949831	144	108	101
933.390153381	144	101	58
933.411614615	144	86	84
933.423005076	128	35	64
933.437166164	128	51	64
933.44036993	128	108	64
933.48449618	128	101	64
933.597888796	128	86	64
933.696580463	144	77	72
933.702947692	144	108	100
933.70532458	144	107	112
933.710734135	144	35	71
933.728322614	128	107	64
933.728395442	144	107	108
933.749004477	128	77	64
933.749294117	144	52	102
933.776023394	128	107	64
933.789905157	128	108	64
933.817192064	128	52	64
933.865748605	144	101	53
933.870405599	144	77	74
933.905889197	128	77	64
933.968621597	128	101	64
933.972378929	128	35	64
934.014282567	144	77	74
934.039794712	128	77	64
934.040919251	144	51	81
934.050516745	144	101	55
934.068233683	144	108	93
934.12169858	128	51	64
934.137781509	128	101	64
934.141177902	128	108	64
934.149563576	144	77	72
934.172038184	128	77	64
934.19468421	144	35	70
934.34028768	144	107	103
934.35535789	144	52	101
934.361454003	128	107	64
934.396637342	144	82	107
934.411368325	128	52	64
934.436588453	144	108	93
934.473210746	128	35	64
934.499375398	144	101	56
934.523732101	128	108	64
934.583712368	128	101	64
934.652545782	144	51	82
934.673693386	144	101	58
934.67641765	144	35	70
934.750302135	128	51	64
934.802761648	144	108	92
934.819659174	128	101	64
934.857345419	128	108	64
934.892246954	128	82	64
934.954941513	144	52	106
934.96384591	144	77	75
934.973230142	144	107	107
934.988173337	128	35	64
934.994546859	128	107	64
935.017021984	128	52	64
935.030159797	128	77	64
935.053066309	144	74	67
935.13434077	144	108	90
935.136152414	144	86	54
935.136569427	128	86	64
935.165086586	144	101	72
935.177402789	144	35	71
935.21856421	128	101	64
935.223815119	128	108	64
935.224572119	144	51	81
935.231629921	144	86	54
935.255896049	128	74	64
935.291659383	128	51	64
935.307035493	128	86	64
935.365477704	144	101	71
935.370167669	144	86	74
935.389286372	128	35	64
935.409158659	128	86	64
935.433364065	128	101	64
935.472264848	144	52	105
935.50276182	144	108	89
935.537305937	144	77	74
935.539342286	144	107	108
935.544930689	128	52	64
935.573913954	128	108	64
935.582036867	128	77	64
935.582430746	128	107	64
935.62030242	144	74	63
935.644092566	144	35	72
935.736811934	144	51	91
935.81157091	144	77	72
935.817725617	128	51	64
935.838391243	128	74	64
935.885666735	144	108	87
935.91140019	128	77	64
935.922856222	128	35	64
935.925513408	144	52	104
935.949866643	144	101	70
935.957044576	128	108	64
936.013967204	128	52	64
936.03124333	128	101	64
936.096742971	144	86	78
936.09899837	144	107	119
936.107264824	144	101	66
936.126681619	144	77	74
936.130904522	128	86	64
936.148797911	128	107	64
936.1489026	144	107	109
936.193999872	128	107	64
936.194211163	144	35	72
936.194699063	128	77	64
936.200387287	128	101	64
936.209740473	144	51	83
936.211803059	144	86	66
936.242431904	144	52	101
936.253163098	144	108	84
936.257952361	128	86	64
936.299357451	128	51	64
936.332757942	144	77	76
936.334524037	128	52	64
936.334767803	144	86	82
936.340243567	128	108	64
936.350093241	144	82	108
936.361941165	128	77	64
936.363435522	128	86	64
936.403396555	128	35	64
936.490370912	144	77	75
936.505865757	128	77	64
936.521285596	144	51	86
936.566512668	128	56	64
936.57387864	128	62	64
936.576470414	128	51	64
936.602995312	144	108	82
936.625381984	144	52	98
936.631524989	144	101	75
936.643138197	144	35	122
936.646243228	144	77	73
936.685360515	128	101	64
936.689474772	128	108	64
936.691551041	128	77	64
936.69722665	144	107	106
936.701587968	128	52	64
936.776508806	128	107	64
936.79100668	144	101	73
936.828728015	144	77	74
936.828917055	128	77	64
936.885015647	128	101	64
936.927274511	144	51	82
936.932117313	128	51	64
936.968307706	144	108	76
937.023843995	144	51	80
937.026491755	144	52	95
937.043137142	128	108	64
937.059367388	128	51	64
937.066594663	128	52	64
937.098624569	128	35	64
937.108526816	144	35	68
937.126779638	144	86	87
937.178878924	128	86	64
937.202794915	144	77	73
937.243597958	144	86	94
937.246301999	144	107	117
937.287811159	128	86	64
937.291870897	128	77	64
937.295540815	144	51	85
937.315114084	144	101	69
937.320205079	144	108	73
937.339000831	128	51	64
937.352123916	128	107	64
937.35227429	144	107	101
937.382893574	128	101	64
937.39073306	128	108	64
937.393192348	128	107	64
937.398637207	128	35	64
937.532109858	144	101	60
937.617400379	128	101	64
937.652151463	144	108	71
937.660006698	144	35	67
937.724189635	128	108	64
937.744291974	128	82	64
937.76185409	144	101	54
937.82404384	144	107	123
937.833004407	128	101	64
937.902645405	128	107	64
937.904999669	144	107	106
937.906146043	128	35	64
937.974923078	128	107	64
937.98744663	144	108	70
938.073741043	128	108	64
938.13697853	144	35	65
938.386012711	144	108	67
938.402252093	128	35	64
938.408806042	144	101	50
938.413791059	144	107	111
938.459235423	128	108	64
938.493809658	128	107	64
938.625248851	128	101	64
938.642758386	144	35	69
938.752714813	144	108	66
938.760338599	144	82	106
938.819357415	128	82	64
938.840116478	128	108	64
938.905422871	128	35	64
939.012522052	144	82	108
939.022132495	144	107	124
939.034030516	128	82	64
939.082796096	128	107	64
939.082857159	144	107	110
939.126913522	144	35	72
939.130385501	128	107	64
939.148200076	144	101	52
939.202402068	128	101	64
939.203319963	144	108	63
939.260854173	144	101	53
939.30711025	128	108	64
939.337064221	144	86	112
939.3474979	128	86	64
939.388937688	128	35	64
939.406102864	128	101	64
939.414434939	144	101	54
939.444124186	144	86	112
939.45890443	128	86	64
939.51597188	128	101	64
939.561431077	144	86	104
939.616116758	128	86	64
939.627367376	144	35	72
939.653371525	144	108	58
939.68818077	144	107	108
939.713138209	128	82	64
939.724951448	128	108	64
939.726915546	128	107	64
939.82668826	144	74	78
939.880547522	128	35	64
939.937963956	144	101	54
940.019033555	128	101	64
940.067833226	144	108	57
940.095658861	144	101	54
940.144632627	144	35	70
940.156981074	128	108	64
940.185724892	128	101	64
940.245032558	144	101	55
940.290053052	144	86	65
940.30584651	144	107	108
940.326607056	128	86	64
940.327591742	128	107	64
940.332790183	128	101	64
940.400625816	144	101	54
940.409699766	128	74	64
940.43437496	144	108	56
940.470192817	128	101	64
940.472324886	128	35	64
940.523761348	128	108	64
940.536712218	144	52	114
940.60287835	128	52	64
940.644048363	144	35	121
940.683243842	144	74	102
940.802663616	144	108	58
940.889896495	128	108	64
940.915939529	144	101	51
940.939625384	144	107	108
940.955698467	128	74	64
940.965138959	128	101	64
940.984380158	128	107	64
941.136007176	144	108	64
941.150860702	144	74	56
941.173070848	128	35	64
941.173229035	144	35	73
941.208142014	128	108	64
941.30334597	144	45	28
941.418017828	144	108	70
941.422886505	128	35	64
941.490994077	128	108	64
941.569381311	144	107	109
941.581658494	144	101	56
941.599398001	128	74	64
941.631422451	128	107	64
941.657258766	144	74	83
941.670102366	144	86	70
941.728002741	144	35	72
941.73653287	144	108	75
941.790767927	128	108	64
941.89176949	128	101	64
941.906926092	128	35	64
941.984461315	144	108	82
942.056999467	128	108	64
942.251627737	144	108	85
942.259579977	144	35	71
942.263010146	144	107	111
942.292542868	128	108	64
942.334364459	128	107	64
942.379016334	128	74	64
942.398257865	144	101	55
942.456253494	128	35	64
942.518183781	144	108	91
942.574175841	128	108	64
942.694160626	144	35	70
942.785192349	144	108	93
942.840770271	128	108	64
942.872158084	128	35	64
942.905330648	144	107	106
942.967024903	128	107	64
943.067755595	144	108	100
943.07487381	128	101	64
943.109231086	128	108	64
943.228170605	144	35	70
943.320754433	128	45	64
943.334333193	144	108	104
943.364983045	144	45	101
943.365093193	128	45	64
943.391278324	128	108	64
943.418120736	128	35	64
943.557295203	144	67	111
943.601709051	128	67	64
943.612265502	144	108	109
943.690241377	128	108	64
943.710071059	144	35	72
943.720268066	144	107	109
943.794432252	128	107	64
943.86719257	128	76	64
943.88886835	128	35	64
943.901481472	144	108	118
943.949248648	128	86	64
943.957840706	128	108	64
944.030514454	144	77	125
944.168983344	144	35	68
944.200728345	144	108	124
944.290228053	128	108	64
944.311583009	144	67	33
944.353982603	128	67	64
944.405499607	128	35	64
944.47804691	144	108	127
944.580132378	128	108	64
944.622691265	144	86	62
944.670962329	144	45	71
944.68251983	144	52	106
944.683192159	128	45	64
944.683307828	144	45	63
944.683407748	128	45	64
944.683503216	144	45	60
944.683645333	128	45	64
944.683750872	144	45	64
944.691032049	128	86	64
944.691387846	128	45	64
944.729309454	144	35	127
944.779359158	144	108	127
944.787841393	144	67	67
944.826510037	144	74	99
944.831689491	144	107	115
944.836718446	144	45	62
944.840714722	144	101	54
944.853038917	128	67	64
944.874268388	128	108	64
944.915602412	128	74	64
944.917753359	128	45	64
944.94500239	128	107	64
944.992127193	128	101	64
945.038950629	144	45	67
945.055638582	128	35	64
945.084928161	144	74	104
945.10220136	144	108	127
945.128616295	128	45	64
945.130706696	128	74	64
945.131985451	144	45	44
945.132352042	144	86	60
945.156732917	128	108	64
945.159059178	128	86	64
945.167327323	128	45	64
945.227895455	144	35	65
945.266091339	144	45	76
945.314651504	144	74	107
945.335752606	128	52	64
945.342027113	128	45	64
945.353211103	144	108	127
945.36193776	144	45	47
945.372461546	128	35	64
945.386907381	128	45	64
945.422031535	144	45	80
945.440506236	128	108	64
945.520456015	128	45	64
945.524972587	144	86	68
945.564056318	128	86	64
945.57287638	144	42	80
945.609038909	144	45	86
945.628128032	144	67	74
945.66241388	144	86	76
945.667963186	144	108	127
945.673520317	128	67	64
945.69445971	144	35	65
945.699118208	128	45	64
945.714087739	128	42	64
945.723952315	128	74	64
945.725818724	128	86	64
945.74042213	128	108	64
945.789289615	144	45	82
945.806154485	144	86	76
945.826993586	128	86	64
945.88893098	128	35	64
945.893085363	128	45	64
945.936104177	144	108	127
946.01823419	144	42	88
946.024079326	128	108	64
946.031007229	144	107	115
946.056962613	144	45	19
946.125839764	128	107	64
946.159227459	128	45	64
946.161010549	144	35	71
946.169932004	128	42	64
946.191678334	144	74	64
946.218925872	144	108	127
946.231363693	128	74	64
946.290593713	128	108	64
946.315287355	144	42	92
946.372081254	128	35	64
946.412669419	144	74	55
946.487934489	128	42	64
946.501529624	144	108	127
946.524546602	144	67	74
946.55225271	144	42	97
946.57530533	128	108	64
946.593589327	144	35	71
946.599791301	128	67	64
946.698533622	128	42	64
946.773131051	128	35	64
946.78245538	144	42	99
946.802108729	144	108	124
946.8752008	128	108	64
946.939907273	128	42	64
947.044324081	144	35	72
947.05844247	128	74	64
947.101054912	144	108	121
947.174114531	128	108	64
947.222276898	128	35	64
947.269473439	144	86	65
947.273214457	128	86	64
947.362729371	144	86	64
947.39330658	128	86	64
947.400704255	144	108	115
947.447122219	144	86	92
947.461372097	144	35	70
947.475214754	128	108	64
947.509052252	128	86	64
947.694988753	144	67	75
947.718097143	144	108	113
947.751864768	128	67	64
947.75561284	128	35	64
947.773784485	128	108	64
947.897777286	144	101	79
947.923434085	144	45	37
947.936628869	144	35	68
947.994838809	144	51	90
947.9954011	144	108	109
948.014126893	144	42	98
948.091410121	128	108	64
948.189800033	128	42	64
948.25693551	128	35	64
948.279820933	144	67	80
948.302090772	128	67	64
948.327687009	144	108	104
948.365190522	144	42	92
948.408323375	128	108	64
948.46148681	144	35	68
948.469880925	144	86	66
948.470145794	128	86	64
948.516497721	128	42	64
948.527173191	128	51	64
948.578431033	144	67	75
948.621320227	128	67	64
948.636462087	144	108	100
948.685962778	144	52	106
948.707356091	128	108	64
948.715314007	128	35	64
948.734050832	144	42	93
948.778167894	144	67	82
948.873814325	128	42	64
948.9107638	144	35	69
948.93022805	128	67	64
948.942000865	128	101	64
948.943602014	144	108	99
948.946251008	144	86	75
948.968819485	144	42	94
948.98953536	128	86	64
949.020905696	128	45	64
949.024958284	128	108	64
949.031208299	144	86	86
949.096940071	128	86	64
949.11509183	144	86	85
949.115936683	128	42	64
949.173462631	128	35	64
949.21207456	144	67	71
949.249939421	144	108	94
949.252237168	144	35	116
949.26214692	128	52	64
949.341247098	128	108	64
949.346734335	128	86	64
949.526345352	128	67	64
949.578954901	144	108	93
949.623994275	144	51	80
949.649767549	128	35	64
949.674678353	128	108	64
949.694946971	144	45	36
949.721044575	144	35	68
949.747507696	144	67	78
949.773776314	128	67	64
949.852290292	128	77	64
949.929191749	144	108	93
949.941493504	144	67	76
950.023178144	128	35	64
950.024707814	128	108	64
950.085529883	128	67	64
950.104283458	128	51	64
950.188476898	144	35	66
950.232449406	144	108	91
950.307443988	128	108	64
950.338856493	144	52	105
950.359272161	144	42	92
950.362055451	144	67	80
950.387726527	128	35	64
950.486254252	128	74	64
950.513296937	144	108	90
950.599664191	128	42	64
950.607378217	128	108	64
950.636137662	144	35	66
950.686044898	128	67	64
950.757005572	144	67	79
950.85217009	128	67	64
950.885147012	144	108	87
950.889446581	128	35	64
950.957308141	128	108	64
950.970945638	128	45	64
950.991503356	144	67	77
951.008128794	128	52	64
951.094166184	144	35	67
951.172626252	144	51	87
951.201371918	144	108	86
951.291379442	128	108	64
951.338381915	128	35	64
951.377058443	128	67	64
951.38631362	144	86	70
951.405642023	128	86	64
951.435475439	144	86	98
951.472559323	144	67	64
951.48703888	128	86	64
951.535739991	144	108	83
951.544246328	144	35	67
951.566498354	144	86	73
951.590699234	128	51	64
951.614716229	128	67	64
951.625167413	128	108	64
951.663307565	128	86	64
951.68573244	144	52	106
951.805775265	128	35	64
951.84555853	144	67	71
951.852957039	144	108	82
951.940219161	128	108	64
952.01977471	128	107	64
952.026466945	128	67	64
952.061115566	144	35	70
952.069348173	128	52	64
952.132611867	144	51	87
952.145278352	144	108	82
952.213068692	144	67	66
952.27276935	128	35	64
952.288560834	128	108	64
952.389400044	128	51	64
952.502852125	144	108	78
952.542907619	128	67	64
952.560342883	144	35	70
952.573959097	128	108	64
952.606015894	144	52	107
952.662898781	144	86	71
952.699699412	144	67	75
952.710972621	128	86	64
952.780985949	144	77	127
952.789354485	128	35	64
952.817622891	144	108	75
952.907600884	128	108	64
952.926717513	128	67	64
953.035051827	144	51	82
953.036016987	128	52	64
953.07814583	144	35	70
953.152571916	144	108	73
953.205496576	128	51	64
953.227451618	128	108	64
953.273251792	128	35	64
953.330632363	144	52	101
953.345045649	144	67	71
953.449364892	144	108	71
953.503123971	144	35	70
953.540124256	128	108	64
953.550864844	128	52	64
953.552057191	144	86	81
953.599373861	128	86	64
953.603078509	128	67	64
953.632143554	144	86	95
953.661032142	144	51	87
953.682467875	128	86	64
953.687105577	144	86	91
953.689270777	144	67	73
953.726188715	128	51	64
953.740159285	128	35	64
953.751851971	128	86	64
953.786693517	144	108	69
953.841141587	128	67	64
953.853499275	144	52	96
953.885674099	144	35	71
953.891472957	128	108	64
954.106649828	128	35	64
954.10747868	128	52	64
954.136842089	144	108	67
954.194315159	144	51	88
954.207540842	128	108	64
954.251843598	144	35	69
954.267936352	128	51	64
954.376367056	144	52	95
954.377625642	144	84	89
954.434876177	128	84	64
954.435366938	144	108	67
954.524214348	128	108	64
954.528521557	144	67	67
954.537197875	128	35	64
954.537237929	144	35	67
954.596266608	128	52	64
954.663574529	144	101	57
954.682471317	128	35	64
954.684178534	144	51	87
954.68607566	128	67	64
954.705483026	144	35	70
954.742116664	128	51	64
954.751471862	144	108	66
954.84949474	128	35	64
954.849572513	144	35	80
954.86518397	144	67	74
954.866670042	144	52	92
954.897704419	128	108	64
954.900907543	128	35	64
954.903965096	144	86	86
954.955589653	144	35	79
954.974769659	128	86	64
954.994767445	128	77	64
954.994831737	144	77	118
955.022639116	144	51	82
955.04852805	128	35	64
955.05763499	144	35	56
955.063098668	128	52	64
955.069730601	144	108	65
955.071942858	128	51	64
955.131499493	128	35	64
955.141746483	128	108	64
955.151158844	128	98	64
955.155742853	144	35	48
955.238152228	128	35	64
955.238216324	144	35	63
955.317534626	128	35	64
955.317607438	144	35	74
955.32383676	144	52	98
955.352114041	144	108	65
955.375077521	128	67	64
955.405509903	144	51	85
955.414743757	128	35	64
955.42430237	128	108	64
955.437824294	144	35	82
955.474788574	128	51	64
955.475076549	128	101	64
955.515013999	128	35	64
955.524847399	128	52	64
955.529927406	144	86	76
955.537264677	144	35	63
955.550974783	128	77	64
955.563256155	144	67	77
955.600815457	128	35	64
955.609602743	128	86	64
955.62201922	144	35	89
955.65238381	144	108	67
955.652525707	128	67	64
955.706235193	128	35	64
955.706313625	144	35	70
955.724813584	128	108	64
955.725741465	144	52	98
955.76953523	144	86	86
955.772451806	144	51	81
955.797075519	128	86	64
955.798360704	128	35	64
955.808641511	144	35	75
955.813258959	144	86	84
955.83647978	128	52	64
955.837512191	128	51	64
955.862670177	128	86	64
955.88109749	128	35	64
955.881167153	144	35	83
955.895379821	144	67	78
955.973806961	144	108	69
955.974992082	128	35	64
955.997565822	144	52	90
956.022363942	144	77	69
956.038093507	144	35	76
956.05106628	144	45	1
956.058310429	128	108	64
956.060751738	144	51	86
956.072001677	128	35	64
956.072093156	144	35	92
956.084146668	128	52	64
956.086647517	128	77	64
956.10303229	144	86	82
956.109856304	128	86	64
956.126421109	128	51	64
956.148373782	128	35	64
956.164801261	128	45	64
956.182424675	144	84	124
956.192154425	144	35	94
956.2377104	144	108	67
956.246106571	128	35	64
956.246144025	144	35	91
956.247743591	144	52	92
956.307897312	128	108	64
956.325055799	128	67	64
956.34869444	128	35	64
956.354764402	128	52	64
956.39241493	144	35	96
956.40266961	144	51	88
956.404214566	128	84	64
956.431824082	128	51	64
956.464786064	128	35	64
956.464866693	144	35	77
956.472487641	144	77	75
956.501115828	144	67	79
956.50872089	144	52	90
956.5137687	128	35	64
956.5207822	144	108	67
956.5718826	144	35	103
956.5742697	128	77	64
956.585469958	128	67	64
956.590832357	128	108	64
956.606815921	128	35	64
956.606894165	144	35	74
956.610648679	128	52	64
956.614855256	144	76	106
956.682189451	128	35	64
956.70238541	144	51	90
956.731658918	128	51	64
956.738944395	144	35	107
956.764283927	128	76	64
956.792869238	144	52	94
956.803135982	144	108	71
956.812672686	144	67	82
956.832041353	128	35	64
956.839288757	144	76	110
956.87540951	144	35	99
956.883004309	128	52	64
956.891900049	128	108	64
956.91284834	144	86	75
956.933911178	128	35	64
956.974047769	144	35	59
956.988926238	144	51	90
956.991891039	128	86	64
956.997980688	128	76	64
957.009379967	144	52	87
957.022353756	128	51	64
957.041729953	128	35	64
957.041890261	144	35	99
957.048432964	144	86	87
957.08106323	144	42	86
957.097657824	128	35	64
957.103007059	144	108	74
957.108740885	128	52	64
957.127980758	144	84	124
957.132487461	128	86	64
957.138633349	144	77	92
957.155850864	144	35	96
957.184831464	144	86	80
957.190501989	128	108	64
957.20586031	128	84	64
957.211619186	128	67	64
957.213660668	128	35	64
957.217201965	144	52	91
957.217883407	128	86	64
957.221942935	128	77	64
957.253517313	128	42	64
957.264311648	144	86	89
957.288559813	144	35	106
957.291264268	128	35	64
957.291314405	144	35	95
957.316585471	128	52	64
957.31783247	144	101	92
957.320696296	128	86	64
957.350462443	128	35	64
957.364962389	144	84	124
957.367755139	144	86	95
957.37241802	144	51	88
957.392517414	144	52	91
957.403954412	144	108	76
957.436276792	144	35	100
957.43790824	128	51	64
957.455072026	128	52	64
957.467158083	128	35	64
957.487317218	128	86	64
957.489950412	128	108	64
957.536605446	144	35	99
957.542616012	144	52	92
957.551937509	128	35	64
957.551983796	144	35	62
957.579424597	144	67	87
957.592561337	128	67	64
957.604822992	128	84	64
957.607949675	128	52	64
957.619651453	144	77	92
957.631392259	128	35	64
957.675467381	144	35	93
957.678343188	144	51	91
957.695575427	144	52	96
957.714749043	128	77	64
957.729399147	128	51	64
957.747250659	128	35	64
957.752043858	144	108	80
957.758373691	128	52	64
957.775594235	144	35	62
957.805913224	128	108	64
957.829451665	128	35	64
957.829543701	144	35	94
957.838345785	144	52	99
957.848694293	144	67	85
957.880694164	128	35	64
957.904492176	128	52	64
957.924284206	144	51	92
957.947867477	128	51	64
957.954669576	144	35	57
957.975439748	128	35	64
957.975510376	144	35	95
957.979698246	144	52	103
958.015688513	144	108	83
958.053281683	128	52	64
958.067175838	128	35	64
958.096420882	144	51	94
958.10593708	128	108	64
958.109700637	128	51	64
958.138666273	144	35	93
958.159046284	128	35	64
958.159106098	144	35	57
958.1674407	128	101	64
958.169035983	144	77	90
958.231902044	128	35	64
958.236944004	128	77	64
958.268877808	144	51	92
958.271803939	128	51	64
958.29000824	144	35	95
958.294404644	128	67	64
958.320277063	144	108	84
958.398114247	128	35	64
958.407386996	128	108	64
958.419927976	144	35	75
958.427376402	144	51	92
958.431618859	128	51	64
958.453066588	144	67	87
958.468389023	128	67	64
958.515084667	128	35	64
958.538190309	144	35	93
958.548552267	144	51	95
958.573325616	128	51	64
958.621623355	144	84	119
958.622577373	144	77	86
958.656987998	128	77	64
958.669385156	144	108	86
958.689493008	144	51	96
958.698163943	144	52	101
958.727608902	128	51	64
958.742581736	144	67	92
958.757045381	128	108	64
958.761896777	128	52	64
958.76626257	128	35	64
958.773002129	144	35	100
958.865076123	128	35	64
958.872658816	128	84	64
958.873950095	144	35	73
958.939446877	144	86	84
959.002249063	144	108	90
959.025134622	128	86	64
959.032684786	144	86	104
959.075070366	128	108	64
959.077097487	128	86	64
959.080826538	144	76	104
959.084645239	128	67	64
959.089699659	128	35	64
959.090176717	144	35	70
959.113125703	128	76	64
959.120127486	144	86	90
959.136647839	144	77	87
959.16667486	128	35	64
959.172044027	128	77	64
959.19271141	128	86	64
959.208349696	144	35	100
959.243737371	144	86	103
959.290116411	128	86	64
959.292705759	144	76	105
959.299132151	128	35	64
959.303391097	144	108	95
959.320224013	144	35	66
959.327416197	144	67	96
959.366285703	144	86	99
959.377114502	144	54	65
959.38773059	128	67	64
959.391542466	128	108	64
959.41577433	128	35	64
959.424216805	128	86	64
959.437547235	144	35	97
959.437660306	128	76	64
959.532248324	144	101	29
959.539228514	144	84	126
959.622344677	128	35	64
959.622749607	144	35	84
959.628514739	144	67	97
959.632298261	128	84	64
959.636772887	144	108	95
959.675007616	144	77	86
959.692741204	128	77	64
959.716332653	128	35	64
959.72333497	128	108	64
959.758479599	144	35	89
959.7720326	144	84	127
959.906948413	128	35	64
959.907825113	144	35	102
959.908967897	128	54	64
959.925114512	144	77	85
959.952070241	144	108	94
959.989025834	144	86	81
960.009471228	144	54	83
960.025160886	128	101	64
960.040178234	128	84	64
960.040443366	128	108	64
960.054232162	128	35	64
960.055083476	144	35	52
960.08002153	128	86	64
960.159085917	128	67	64
960.185134536	144	86	85
960.20030046	128	35	64
960.20080191	144	35	97
960.223404699	128	77	64
960.243319662	128	86	64
960.257761146	144	67	97
960.264816429	144	101	38
960.26505074	128	35	64
960.279281005	144	35	80
960.288013657	144	108	94
960.30265648	144	86	80
960.3351338	128	67	64
960.350640026	128	101	64
960.367280197	128	35	64
960.367334963	144	35	77
960.373324584	128	108	64
960.392790358	128	54	64
960.410247849	128	86	64
960.425859731	144	101	29
960.500606888	128	101	64
960.512576851	128	35	64
960.527063277	144	35	95
960.563559045	144	101	41
960.586590885	144	108	96
960.618870168	128	101	64
960.62379325	144	54	73
960.657521726	128	108	64
960.666788388	144	101	41
960.673718727	128	35	64
960.674421282	144	35	103
960.732305227	128	101	64
960.765912821	128	35	64
960.791735632	144	77	86
960.797054679	144	101	37
960.805349119	128	77	64
960.807601353	144	35	37
960.833060231	128	101	64
960.861728161	144	67	95
960.893662844	144	101	41
960.89850919	128	35	64
960.918710705	144	108	97
960.935293662	128	67	64
960.955949267	144	35	76
960.990483275	128	101	64
960.991404029	128	108	64
961.00226275	144	84	126
961.016886154	128	35	64
961.017026569	144	35	70
961.04145725	128	54	64
961.046807247	144	101	44
961.118125866	128	101	64
961.145402218	144	67	81
961.171115323	144	101	49
961.17249306	128	35	64
961.187127666	144	86	63
961.192059175	144	35	54
961.205016271	128	84	64
961.232819191	128	101	64
961.251718683	144	108	96
961.272602061	128	35	64
961.272675524	144	35	95
961.275343168	144	101	52
961.307858953	128	108	64
961.353101373	128	101	64
961.381140663	144	76	104
961.411704146	144	101	51
961.416670961	128	35	64
961.427646758	144	35	44
961.480891503	128	35	64
961.483778199	128	101	64
961.534959453	128	67	64
961.556240677	144	35	41
961.558255276	128	76	64
961.563825804	144	101	56
961.569989464	144	108	97
961.61362124	128	35	64
961.619408686	128	101	64
961.622255441	144	76	109
961.63016114	128	86	64
961.640906948	128	108	64
961.642484448	144	35	92
961.674329752	144	101	56
961.687868023	144	67	77
961.714155216	144	86	66
961.721293806	128	35	64
961.721378345	144	35	32
961.725445149	144	54	98
961.750667027	128	101	64
961.751715408	128	67	64
961.787918082	128	76	64
961.79385634	128	86	64
961.818054129	128	35	64
961.850839337	144	86	75
961.872039478	144	35	84
961.888028896	144	108	97
961.889220925	144	84	127
961.909719763	128	35	64
961.909797941	144	35	71
961.926834248	128	86	64
961.941647522	144	51	53
961.957367298	128	108	64
961.974358085	128	84	64
961.981760603	128	35	64
962.02904481	144	67	84
962.071016988	144	35	65
962.073012872	128	35	64
962.073067352	144	35	92
962.127099246	144	84	124
962.143028291	128	54	64
962.148315597	128	35	64
962.203132218	144	108	97
962.219847117	144	35	75
962.238471705	128	35	64
962.238536968	144	35	83
962.274352777	128	108	64
962.33233083	128	35	64
962.336375893	144	86	88
962.35781146	128	84	64
962.388988169	128	67	64
962.402689245	144	35	47
962.450995008	128	86	64
962.451686567	128	35	64
962.451729465	144	35	105
962.517827119	128	35	64
962.519349068	144	108	96
962.53957949	144	35	64
962.546778818	144	67	86
962.575214792	128	108	64
962.60685016	128	35	64
962.606916221	144	35	97
962.607985496	128	67	64
962.608432586	144	86	39
962.614249331	128	51	64
962.67479116	128	86	64
962.682138728	128	35	64
962.704717201	144	35	92
962.782137171	128	35	64
962.796810109	144	35	69
962.822723106	144	108	96
962.826477955	144	52	98
962.865602843	128	35	64
962.876615393	144	67	80
962.887129205	144	35	92
962.894704594	144	54	106
962.906774809	128	108	64
963.031522956	128	35	64
963.031724397	144	35	97
963.128826072	144	108	95
963.131895892	128	35	64
963.14061658	144	35	75
963.14717279	144	86	70
963.224602659	128	108	64
963.242635421	128	86	64
963.284884454	128	35	64
963.333214668	144	86	70
963.419474815	144	35	39
963.427776945	128	86	64
963.466373865	128	35	64
963.487648188	144	108	93
963.530442488	144	86	55
963.535015904	128	67	64
963.538677088	144	35	46
963.55756321	128	108	64
963.568797666	128	101	64
963.574532346	128	52	64
963.600640894	128	35	64
963.624530707	128	86	64
963.639216636	144	35	44
963.671976005	144	67	86
963.697384354	128	35	64
963.741202616	144	35	53
963.747053319	144	86	71
963.754603635	128	67	64
963.76249777	128	86	64
963.779267911	144	108	94
963.808893847	128	35	64
963.808944493	144	35	45
963.874929451	128	108	64
963.883478489	128	35	64
963.919910971	144	86	47
963.92377536	144	35	57
963.939615596	144	51	67
963.939853233	128	86	64
963.997219026	128	35	64
963.997291805	144	35	48
964.025181555	144	67	86
964.048101646	128	35	64
964.064426062	128	54	64
964.104408428	144	35	64
964.120849259	144	86	61
964.135166592	144	108	94
964.140407631	128	35	64
964.140456866	144	35	63
964.19178958	128	86	64
964.208095712	128	108	64
964.214896124	128	35	64
964.249465369	144	54	101
964.257989018	144	35	90
964.307444793	144	86	50
964.328550948	128	35	64
964.328639031	144	35	78
964.38000857	128	67	64
964.391952445	128	86	64
964.400471296	128	35	64
964.41813367	144	108	93
964.439320199	144	35	102
964.4500327	144	86	66
964.459218502	144	67	85
964.49190611	128	108	64
964.495992715	128	35	64
964.496052812	144	35	100
964.531114616	128	86	64
964.540264748	144	84	122
964.554399337	128	67	64
964.567992031	128	35	64
964.571957991	128	51	64
964.637943998	144	35	116
964.653856573	128	35	64
964.653905521	144	35	113
964.688923105	144	86	69
964.713458259	144	108	94
964.732806219	128	35	64
964.742658096	128	86	64
964.759077883	128	84	64
964.762802533	144	67	84
964.790001659	144	86	54
964.805196879	144	35	119
964.809083949	128	35	64
964.809135593	144	35	102
964.809303637	128	108	64
964.816466334	144	52	93
964.880424167	128	86	64
964.882255413	128	35	64
964.905892315	144	86	69
964.966544167	144	76	102
964.978118062	128	86	64
965.027515258	144	35	66
965.035716969	144	108	94
965.045753508	144	86	53
965.047735549	128	76	64
965.053570428	128	35	64
965.057262465	144	35	80
965.075891913	128	86	64
965.108622268	128	108	64
965.114836941	128	67	64
965.115551781	128	35	64
965.138893776	144	76	109
965.145738747	144	86	66
965.15643586	144	35	73
965.169115387	128	86	64
965.221187234	128	35	64
965.221265653	144	35	67
965.22900145	128	54	64
965.275297692	144	45	25
965.296362267	144	67	77
965.306041382	128	76	64
965.315152616	128	35	64
965.358205926	144	35	44
965.368247435	144	108	93
965.386699659	144	54	99
965.390427836	144	84	123
965.42248943	128	35	64
965.422572452	144	35	50
965.424959942	128	108	64
965.472873137	128	84	64
965.515412232	128	35	64
965.536099023	144	35	72
965.590086603	144	21	127
965.592905561	128	35	64
965.592945213	144	35	87
965.618669297	144	51	62
965.630903391	144	84	125
965.664267847	128	52	64
965.685639894	144	108	93
965.726196086	128	67	64
965.737039835	128	35	64
965.740906288	128	108	64
965.741866028	144	35	95
965.785554658	128	35	64
965.785621527	144	35	98
965.859071568	128	84	64
965.870739049	144	67	73
965.881758533	128	35	64
965.931357445	144	35	106
965.967723444	128	35	64
965.967797563	144	35	113
965.98667832	144	108	94
966.007338188	128	21	64
966.047760273	128	54	64
966.057869345	128	108	64
966.058276427	128	51	64
966.064270388	128	35	64
966.108148128	144	35	113
966.129053696	144	54	97
966.151945964	128	35	64
966.152142887	144	35	112
966.154251081	144	21	127
966.222739293	144	77	35
966.22506357	128	67	64
966.248866948	128	35	64
966.296400283	144	52	95
966.305255539	144	35	102
966.311905244	144	108	94
966.312914692	128	77	64
966.367936147	128	35	64
966.368076809	144	35	95
966.390914466	128	108	64
966.395437941	144	67	83
966.465208563	128	35	64
966.485254729	128	67	64
966.487515646	144	35	64
966.565645806	128	35	64
966.588499204	144	35	72
966.591217797	128	21	64
966.63536118	144	108	94
966.65082138	128	35	64
966.654407875	144	67	72
966.689587286	144	35	38
966.724656468	128	108	64
966.747177913	128	35	64
966.752616786	144	51	68
966.777251023	128	54	64
966.791982324	144	35	42
966.837989241	128	45	64
966.866256058	128	52	64
966.867097238	128	35	64
966.875340362	144	35	74
966.891463859	144	84	122
966.897138103	128	51	64
966.921598853	144	54	97
966.935023402	144	108	95
966.967939758	128	35	64
966.968059832	144	35	71
967.008420781	128	108	64
967.042764701	128	67	64
967.071753329	128	35	64
967.071822642	144	35	100
967.076319498	128	84	64
967.165243982	128	35	64
967.197982241	144	67	81
967.207813984	144	35	82
967.231136169	144	76	102
967.249232886	144	52	93
967.250747081	144	108	96
967.252084264	128	35	64
967.252142279	144	35	115
967.285178425	128	67	64
967.308053818	128	108	64
967.315420091	128	76	64
967.332003151	128	35	64
967.403724655	144	35	123
967.451098692	128	35	64
967.451170814	144	35	94
967.463494214	144	76	107
967.531664301	128	35	64
967.563253999	128	76	64
967.580564314	144	67	63
967.584396841	144	108	96
967.619381165	144	35	120
967.626501328	128	52	64
967.640947487	128	108	64
967.653116766	128	35	64
967.653174497	144	35	125
967.675220865	144	84	125
967.71757982	128	35	64
967.727836748	144	51	63
967.759655907	128	84	64
967.775699269	128	54	64
967.805012342	144	35	115
967.809163304	128	35	64
967.809202977	144	35	127
967.852006586	128	35	64
967.882290248	144	84	125
967.885541707	144	108	93
967.943302738	128	108	64
967.985230105	144	45	101
967.996100895	144	35	126
967.998280498	144	54	102
968.00940564	128	67	64
968.043706611	128	84	64
968.04843563	128	35	64
968.058866365	144	52	90
968.184917036	128	51	64
968.203147836	144	108	85
968.204683844	144	67	88
968.22747356	144	35	121
968.25803298	128	108	64
968.271706015	128	67	64
968.282019192	128	35	64
968.436660542	144	35	126
968.446250751	128	52	64
968.498849889	128	45	64
968.501489013	144	21	127
968.511945221	144	67	60
968.526891383	144	51	59
968.532094423	128	35	64
968.53442681	144	108	84
968.624462932	128	108	64
968.694185023	144	35	120
968.765768327	128	35	64
968.7856922	128	54	64
968.845204039	144	52	87
968.887798442	144	108	82
968.890986429	144	45	91
968.911937885	128	51	64
968.927031997	144	35	116
968.94311173	128	67	64
968.95825826	128	108	64
968.974753715	128	21	64
968.998217608	128	35	64
969.104280695	144	21	127
969.126106544	144	84	125
969.135194723	128	52	64
969.143720065	144	35	114
969.145355685	144	67	90
969.160971045	128	45	64
969.176831109	144	54	99
969.197817682	144	86	122
969.202567772	144	108	82
969.21391232	128	86	64
969.236311694	128	67	64
969.251073123	128	35	64
969.291566164	128	108	64
969.296754624	144	51	70
969.327954787	128	84	64
969.343962056	144	45	87
969.372817457	144	86	106
969.378118322	128	86	64
969.411032741	144	35	109
969.413595622	144	67	63
969.473146923	144	76	107
969.498874518	128	35	64
969.503115104	144	52	87
969.536660335	144	108	82
969.623877876	128	76	64
969.626726808	128	45	64
969.629485633	128	108	64
969.647390693	128	52	64
969.660753404	144	35	110
969.673099619	128	51	64
969.707487284	144	76	109
969.742864797	128	67	64
969.748216634	128	35	64
969.774821852	144	67	93
969.811839566	128	54	64
969.816292188	144	45	90
969.841088788	128	21	64
969.852839016	144	108	82
969.857902264	128	76	64
969.894266109	144	35	112
969.941180878	128	108	64
969.943470521	128	67	64
969.943893329	144	84	127
969.985697965	144	51	69
970.000930646	128	35	64
970.029335754	128	84	64
970.095432898	144	67	61
970.105685374	144	52	83
970.119690524	144	54	100
970.144759706	144	35	109
970.150466419	144	84	127
970.15196674	144	77	54
970.188126997	144	108	82
970.190673881	128	77	64
970.218209047	128	51	64
970.287087915	128	52	64
970.288800066	128	35	64
970.291517664	128	108	64
970.360895951	128	84	64
970.367251319	128	45	64
970.369158429	144	35	111
970.435863457	128	67	64
970.516145421	128	35	64
970.529823615	144	108	81
970.594615072	144	51	67
970.61218485	144	52	84
970.624736531	128	108	64
970.638400308	144	67	96
970.649241014	144	45	81
970.66847535	144	35	113
970.72215083	128	67	64
970.765614115	128	35	64
970.795096453	128	45	64
970.808494571	128	51	64
970.822075554	144	86	100
970.872408542	144	108	82
970.875157042	128	52	64
970.928633237	144	35	110
970.958251481	128	108	64
970.960832332	144	45	79
970.961938297	144	67	64
970.968845558	144	77	55
971.016442528	128	77	64
971.051368858	128	67	64
971.0614287	128	45	64
971.070841607	144	51	67
971.073425851	128	35	64
971.144094428	128	54	64
971.1861356	144	108	81
971.195626113	144	21	127
971.196668787	144	45	73
971.215173057	128	51	64
971.217117396	144	35	110
971.237282277	144	52	88
971.294432899	128	108	64
971.311359151	144	84	126
971.315470591	128	35	64
971.402163302	128	52	64
971.422658617	128	45	64
971.459974894	144	35	111
971.46407812	144	51	61
971.476571723	144	77	72
971.495511047	128	84	64
971.518465337	144	108	81
971.524344195	144	45	64
971.532408373	128	77	64
971.543647844	144	54	109
971.571593115	128	51	64
971.57722234	144	67	89
971.606303146	128	35	64
971.607384649	128	108	64
971.640690827	128	67	64
971.648474443	144	76	102
971.654673111	128	21	64
971.686896341	144	52	85
971.734255014	128	76	64
971.750476644	144	35	107
971.804447573	144	21	127
971.836085148	144	108	81
971.848491516	128	35	64
971.855140026	128	86	64
971.868526777	128	52	64
971.868849609	144	67	62
971.869607718	128	45	64
971.872075643	144	51	63
971.884161877	144	76	102
971.967609352	128	51	64
971.976172568	144	45	72
971.981820034	128	108	64
971.982773741	128	76	64
972.010733332	144	77	82
972.011142011	144	35	109
972.058748224	128	77	64
972.078864914	128	45	64
972.079154548	128	67	64
972.09475557	144	84	126
972.136520108	144	52	83
972.156331149	128	35	64
972.164377766	144	45	73
972.18036211	128	84	64
972.184271156	144	108	80
972.190930206	144	51	70
972.210602966	128	54	64
972.253400212	144	35	111
972.262098124	144	96	48
972.267527783	128	45	64
972.272067215	128	51	64
972.273807305	128	108	64
972.301328081	144	84	124
972.333506441	128	52	64
972.344931403	144	45	80
972.410905017	128	35	64
972.420968038	128	21	64
972.442430715	144	54	108
972.452756021	128	45	64
972.478852551	128	84	64
972.486190927	144	35	104
972.49421898	144	51	69
972.502147145	144	108	78
972.512584328	144	77	87
972.512777779	144	45	79
972.561838775	128	51	64
972.57522897	128	77	64
972.576417757	144	52	78
972.590731869	128	108	64
972.622996882	128	45	64
972.639685849	128	35	64
972.686971866	144	35	108
972.690347454	144	45	77
972.773919776	128	52	64
972.789491944	128	45	64
972.791854257	144	51	65
972.795465819	128	54	64
972.83980701	128	35	64
972.849168362	128	51	64
972.852704392	144	108	76
972.874717885	144	77	87
972.883733202	144	45	73
972.92462569	128	108	64
972.956043009	128	96	64
972.961386408	128	77	64
972.9626693	144	21	127
972.983986411	144	35	110
972.984278464	128	45	64
972.987081411	144	52	80
973.054214499	144	77	91
973.056249259	144	51	63
973.065681274	128	35	64
973.098310722	128	77	64
973.115172703	144	54	104
973.11994923	128	51	64
973.127835414	144	45	82
973.132558152	144	96	89
973.157963534	128	67	64
973.162653426	128	52	64
973.169938642	144	108	76
973.203477995	144	35	108
973.270531494	128	45	64
973.274579915	128	108	64
973.317062417	144	51	63
973.334894769	144	84	127
973.346215739	128	35	64
973.359493106	128	51	64
973.388387305	144	52	78
973.418817568	128	21	64
973.422753509	144	45	82
973.452952689	144	35	107
973.504207469	144	108	77
973.509301657	144	51	68
973.516910335	128	52	64
973.530664138	128	84	64
973.564092726	128	45	64
973.565779246	128	35	64
973.567634909	128	51	64
973.604752109	144	21	127
973.608519866	128	108	64
973.63942909	144	52	75
973.652087324	144	77	79
973.659383543	128	77	64
973.700125487	144	76	104
973.719195801	144	51	67
973.728277896	144	35	102
973.729012555	128	52	64
973.745531497	144	45	89
973.757774976	128	51	64
973.783579857	128	76	64
973.814784405	128	35	64
973.833957909	144	52	76
973.837472685	144	108	78
973.865082617	128	45	64
973.879478498	144	51	69
973.903952392	144	35	102
973.920794976	128	52	64
973.928827609	144	76	109
973.933438974	128	51	64
973.93797467	128	54	64
973.958408827	128	108	64
974.013052903	144	52	79
974.026375851	144	45	91
974.047085919	128	35	64
974.07619139	128	76	64
974.078578605	144	51	67
974.090496158	128	52	64
974.111043962	128	51	64
974.145437637	144	84	127
974.193492196	144	35	103
974.199390055	144	52	81
974.203835925	144	108	78
974.219738053	144	77	88
974.248955504	128	84	64
974.256724087	144	51	60
974.257155886	128	52	64
974.258865481	128	77	64
974.2842587	144	54	111
974.285811833	128	51	64
974.310867964	128	108	64
974.340404629	128	35	64
974.366695959	144	52	76
974.368572113	144	84	126
974.370898972	128	45	64
974.404758004	128	21	64
974.432671573	144	51	65
974.436668012	144	35	103
974.439986271	128	52	64
974.457792233	128	51	64
974.537922565	144	108	80
974.540666449	144	52	75
974.547029915	128	84	64
974.59203592	128	96	64
974.592781205	128	35	64
974.602603013	144	51	69
974.60962601	128	52	64
974.62143539	128	51	64
974.6693387	144	96	84
974.670280698	144	35	103
974.683124254	128	108	64
974.726618482	144	52	76
974.766842947	144	51	69
974.768201254	128	96	64
974.797818159	128	51	64
974.799045055	128	35	64
974.799320128	128	52	64
974.84466285	128	54	64
974.847837458	144	96	82
974.856392282	144	108	81
974.905152108	144	86	106
974.915480314	144	52	71
974.936647555	128	96	64
974.941786367	144	51	71
974.958849951	128	108	64
974.959948253	144	35	103
974.974431772	128	51	64
974.984046748	128	52	64
974.988756139	144	54	104
975.007868907	144	96	82
975.035445461	128	54	64
975.04988419	128	35	64
975.077128754	144	51	72
975.107210792	144	52	73
975.139462628	128	51	64
975.153560827	128	96	64
975.153850012	144	35	105
975.169574562	144	96	84
975.183984794	128	52	64
975.187336925	144	108	81
975.249800711	144	54	112
975.292437351	144	52	77
975.314661562	128	96	64
975.33253212	128	108	64
975.34253189	144	96	84
975.381680404	128	52	64
975.40667345	128	35	64
975.412800793	144	84	127
975.483633864	128	86	64
975.487676785	144	52	73
975.488180473	144	35	104
975.501767556	144	108	81
975.592767757	144	21	127
975.61425594	144	51	58
975.633640255	128	51	64
975.644058951	128	84	64
975.647953352	128	108	64
975.757005485	128	35	64
975.818795916	144	76	107
975.837148904	144	108	82
975.842941995	144	35	106
975.931397056	128	108	64
975.974055716	128	76	64
976.061350312	128	54	64
976.072608315	144	76	111
976.08131248	128	96	64
976.083820165	128	35	64
976.085797055	128	52	64
976.130182534	144	108	83
976.164919763	144	96	52
976.244729246	144	35	103
976.256539998	128	76	64
976.281441132	128	108	64
976.329787346	144	84	127
976.425928166	128	96	64
976.463253902	128	84	64
976.469374768	144	108	83
976.47419604	128	35	64
976.490308221	144	96	52
976.558025832	128	108	64
976.602949938	144	84	123
976.66208812	144	35	99
976.752632598	144	108	84
976.842332253	128	96	64
976.848575255	128	84	64
976.857369405	128	108	64
976.878153374	144	96	53
976.973335217	128	35	64
977.001413219	128	96	64
977.082679655	144	108	84
977.096628278	144	96	51
977.145464107	144	35	96
977.175087021	128	108	64
977.1839937	128	96	64
977.282406817	144	96	50
977.296535825	144	52	79
977.376150247	128	96	64
977.384843087	144	108	87
977.446566175	144	96	48
977.459603761	128	108	64
977.46275303	144	84	127
977.507441932	128	35	64
977.551463287	128	96	64
977.604875527	144	35	93
977.628977186	144	96	49
977.682209636	128	84	64
977.70246317	144	108	87
977.739228943	128	96	64
977.775414766	128	108	64
977.814692603	144	96	48
977.831810696	144	76	108
977.889029019	128	96	64
977.93325759	128	76	64
977.974474448	128	35	64
977.980656368	144	96	55
978.019319437	144	108	87
978.055222627	128	96	64
978.077965764	144	76	114
978.108075621	128	108	64
978.128603303	144	35	93
978.130829889	144	96	56
978.166628597	128	76	64
978.182856223	128	96	64
978.283451036	144	84	127
978.347357847	144	96	57
978.347628811	144	108	87
978.353942882	128	96	64
978.381761974	128	84	64
978.424612097	128	108	64
978.427228983	144	54	105
978.483431029	128	35	64
978.52067237	144	84	127
978.52927992	128	21	64
978.583945065	144	96	60
978.64612979	144	108	88
978.661463266	144	35	89
978.6928598	128	96	64
978.698540074	128	84	64
978.734427289	128	108	64
978.741740478	144	96	63
978.80010435	128	96	64
978.925752605	144	96	65
978.969355421	144	108	88
978.973177404	128	96	64
979.002669665	144	21	125
979.013766924	144	96	66
979.042985054	128	108	64
979.052856824	128	96	64
979.091142126	128	35	64
979.13046573	144	96	70
979.186874535	128	96	64
979.228485111	128	52	64
979.244269971	144	35	93
979.263952093	144	96	71
979.286054526	144	108	89
979.299376913	128	96	64
979.301919359	144	86	105
979.357742625	144	96	69
979.374410378	128	108	64
979.433365968	128	96	64
979.513021169	144	96	77
979.553990704	128	96	64
979.574827309	144	96	77
979.619344865	144	108	89
979.660118549	128	108	64
979.668811429	128	96	64
979.714232781	128	35	64
979.75964631	144	96	80
979.800433635	128	96	64
979.878815558	144	35	93
979.879513209	144	96	78
979.935611351	144	108	89
980.008153398	128	108	64
980.175620912	144	45	82
980.271051849	144	108	89
980.325450721	128	108	64
980.423035635	128	35	64
980.432270609	128	45	64
980.437181361	128	54	64
980.486487888	128	86	64
980.542387653	128	96	64
980.584119297	144	108	89
980.611515016	144	35	91
980.642538757	128	108	64
980.812176528	144	54	106
980.867978066	128	54	64
980.934493205	144	108	87
980.949721213	144	84	61
980.99222488	128	108	64
980.995479961	128	84	64
981.136933969	144	54	107
981.179022489	128	21	64
981.236882707	144	108	89
981.240871363	128	35	64
981.291996053	128	108	64
981.475950427	144	21	124
981.52771002	144	35	93
981.552219906	144	108	89
981.599290579	144	76	123
981.608230564	128	108	64
981.614467159	128	76	64
981.799716343	144	76	116
981.872746614	144	108	88
981.882607685	128	76	64
981.941388815	128	108	64
982.087527533	144	84	113
982.105351768	144	86	67
982.140986997	128	35	64
982.163695148	128	84	64
982.186134149	144	108	88
982.241735528	128	108	64
982.248807746	128	86	64
982.356406955	144	84	112
982.38001338	144	77	126
982.412632142	128	54	64
982.41596123	128	77	64
982.445294243	144	35	93
982.503134397	144	108	87
982.55286618	144	51	80
982.576004042	128	108	64
982.668332801	128	84	64
982.69979643	144	96	78
982.783754722	144	108	89
982.82140934	144	42	100
982.858396896	128	108	64
982.95453476	144	86	75
982.966933879	128	42	64
983.014030416	128	86	64
983.056515616	144	86	64
983.084404101	144	108	91
983.08760569	144	77	127
983.087768601	128	77	64
983.111553459	128	86	64
983.111606788	144	86	84
983.169481502	144	42	98
983.174198642	128	35	64
983.178039987	128	86	64
983.184183627	128	108	64
983.243800543	128	51	64
983.259092349	144	86	70
983.265833583	144	54	80
983.273432743	128	86	64
983.273504209	144	86	93
983.313447156	128	86	64
983.334039592	128	42	64
983.375638474	128	96	64
983.404190358	144	108	93
983.442721245	128	108	64
983.485891942	144	84	120
983.514774986	128	84	64
983.627871321	144	35	94
983.652631754	128	21	64
983.671622042	144	77	127
983.696563259	144	108	94
983.739781292	128	108	64
983.773068578	128	77	64
983.799320132	144	76	121
983.848112211	144	96	67
983.869510085	128	76	64
984.012071999	128	54	64
984.016682746	144	76	126
984.020606011	144	108	94
984.043710224	144	21	123
984.056115264	144	52	75
984.065538969	128	76	64
984.074670211	128	108	64
984.083077872	128	52	64
984.242370559	128	96	64
984.248110102	144	76	123
984.301892804	128	76	64
984.317201179	144	77	127
984.33658854	144	108	94
984.359450129	128	77	64
984.408057146	128	108	64
984.516923028	144	52	74
984.518175436	144	84	115
984.557439587	128	35	64
984.576946344	128	52	64
984.582342291	128	84	64
984.615304784	144	51	77
984.636398136	144	108	95
984.676688748	128	108	64
984.761500514	144	35	97
984.797829213	144	84	117
984.874590154	128	51	64
984.926892438	128	96	64
984.931505741	144	77	127
984.95316752	144	108	94
984.966288176	128	77	64
984.994048763	128	108	64
985.020902986	144	86	81
985.052652137	144	54	99
985.069956625	128	86	64
985.081941024	144	52	78
985.115292087	144	86	87
985.155982869	128	52	64
985.236676346	128	84	64
985.268738212	144	108	94
985.367156542	128	108	64
985.568919331	144	108	94
985.638020269	128	54	64
985.642026499	128	108	64
985.749768516	128	35	64
985.775491895	144	45	36
985.850851017	144	84	110
985.884166953	144	108	95
985.900029976	128	84	64
985.941572802	128	108	64
986.099599426	144	76	126
986.142522501	128	21	64
986.144921975	144	35	96
986.185054582	128	45	64
986.197729081	128	76	64
986.238253805	144	108	95
986.243601022	128	108	64
986.29077059	144	52	79
986.339732409	144	76	127
986.415917507	128	76	64
986.462186361	128	52	64
986.502298322	144	108	94
986.529496911	144	54	102
986.54207702	144	21	124
986.591667384	128	108	64
986.652784515	144	84	102
986.736812794	128	84	64
986.802977975	144	108	96
986.858239849	128	108	64
986.868115095	128	86	64
986.908545198	144	84	110
987.10661845	128	77	64
987.119744213	144	108	96
987.175115139	128	108	64
987.304543511	128	84	64
987.469230347	144	108	96
987.510225248	128	108	64
987.78940074	144	108	97
987.852508409	144	84	122
987.858007597	128	108	64
987.933007105	128	84	64
988.098512069	144	76	127
988.200812865	128	76	64
988.362953276	128	54	64
988.382214656	144	76	120
988.449953244	128	76	64
988.554053958	128	21	64
988.554818314	144	93	55
988.603329015	144	84	112
988.625400908	128	93	64
988.689073408	128	84	64
988.805211364	144	86	90
988.849841374	128	86	64
988.849917979	144	86	105
988.879066272	144	84	101
988.926962923	144	52	127
988.95916932	128	52	64
988.970484026	128	86	64
988.988591895	144	86	92
989.003387958	128	84	64
989.064305941	144	42	92
989.090866495	144	52	127
989.098151215	144	93	61
989.105886867	128	45	64
989.110343127	144	21	126
989.13986923	128	52	64
989.139960432	144	52	17
989.168905775	144	54	103
989.182691081	128	52	64
989.188033296	128	93	64
989.212551195	128	42	64
989.242747489	144	52	127
989.312294083	128	52	64
989.390046595	144	52	127
989.468714903	128	52	64
989.531740106	144	52	127
989.602865599	128	52	64
989.683936816	144	52	126
989.744646416	128	52	64
989.804271066	144	84	111
989.83614984	144	52	127
989.869579967	128	84	64
989.880562649	128	54	64
989.899647184	128	52	64
989.967630848	144	52	123
990.022937867	128	52	64
990.027377873	144	84	109
990.084606731	128	84	64
990.086501256	144	52	123
990.136343897	128	52	64
990.316776923	144	76	114
990.383946305	128	76	64
990.470816914	128	86	64
990.564829013	144	76	119
990.606636767	144	52	115
990.615493403	128	76	64
990.640768231	128	52	64
990.800255528	144	84	112
990.888626549	128	84	64
990.895043328	144	54	116
990.937655794	144	52	121
990.94663853	128	52	64
991.034412958	144	52	118
991.054755196	144	86	84
991.060591248	144	84	104
991.106967611	128	52	64
991.109385496	128	86	64
991.136228909	144	86	90
991.163800798	144	52	122
991.169590979	128	21	64
991.193820057	128	86	64
991.217227709	144	86	90
991.231874627	128	52	64
991.42847946	128	54	64
991.526587434	144	54	97
991.556233946	128	84	64
991.573671029	144	52	115
991.637610972	128	52	64
991.642828549	144	21	126
991.903731228	144	84	119
991.907650333	128	108	64
992.017480861	128	84	64
992.092089932	128	86	64
992.123026828	144	52	117
992.21001492	128	52	64
992.223585722	144	76	123
992.26717911	128	76	64
992.425903171	144	76	123
992.487124958	144	52	122
992.518051111	128	76	64
992.54312339	128	52	64
992.676073334	144	84	108
992.786725382	128	84	64
992.942373074	144	84	107
993.105834451	128	84	64
993.14633077	128	54	64
993.32836927	144	54	62
993.347091868	144	52	27
993.355367462	144	86	89
993.425216153	128	86	64
993.43795666	144	86	78
993.518362458	128	52	64
993.529376646	128	54	64
993.550946829	128	21	64
993.615415001	128	86	64
993.615631722	144	86	93
993.674380657	144	54	60
993.769866022	128	54	64
993.887539794	144	52	27
993.901137474	144	84	115
993.942464762	128	52	64
993.985223076	144	54	56
993.987574487	128	84	64
994.075362953	144	21	123
994.078360814	144	42	83
994.226795439	128	42	64
994.268701283	144	76	125
994.300277522	144	93	50
994.310640452	144	52	25
994.319488583	128	76	64
994.340304069	128	93	64
994.369026565	128	52	64
994.474016382	144	76	120
994.566575474	128	76	64
994.680682208	144	52	28
994.738717272	128	52	64
994.750754863	144	84	111
994.84052565	128	84	64
995.007469339	144	84	111
995.017320787	144	52	32
995.109879519	128	52	64
995.187391816	128	86	64
995.296203901	128	54	64
995.298498108	144	86	74
995.356743518	144	52	42
995.377610925	144	54	64
995.392713481	128	86	64
995.418766403	128	52	64
995.442377922	128	84	64
995.506025143	144	42	87
995.615202395	128	42	64
995.69274728	144	52	50
995.716361381	128	52	64
995.748180454	144	93	50
995.839780399	128	93	64
995.879083903	128	54	64
995.901290955	144	89	50
995.953952141	144	52	61
995.98461016	144	84	116
996.020182854	128	52	64
996.067266091	128	21	64
996.09323235	128	84	64
996.128144548	144	54	100
996.229873563	144	52	72
996.280664301	128	52	64
996.284195145	144	76	116
996.324890698	128	35	64
996.371093251	128	76	64
996.373500281	144	86	61
996.381669661	144	93	48
996.439118986	128	93	64
996.478828703	144	76	120
996.498535327	144	52	84
996.526156178	128	89	64
996.573392394	128	52	64
996.587132622	128	76	64
996.596083284	128	54	64
996.675046938	144	21	127
996.695855638	144	35	96
996.726528628	144	42	84
996.749394682	144	84	115
996.756287789	144	54	70
996.770216677	144	52	97
996.841431339	128	84	64
996.844118967	128	52	64
996.847891102	128	42	64
996.916462384	144	89	69
996.997371104	144	84	115
997.043092624	144	52	104
997.117392593	128	52	64
997.141179382	128	84	64
997.243191262	128	89	64
997.263767224	144	93	49
997.306822078	128	93	64
997.314097601	144	52	105
997.388521302	128	52	64
997.401197817	128	86	64
997.588276123	144	52	106
997.654095903	128	52	64
997.670264815	144	86	69
997.890047704	144	89	57
997.909584313	128	54	64
997.917169576	128	86	64
997.92545224	144	52	107
997.960418913	144	54	72
997.967449718	128	52	64
998.001461059	128	89	64
998.012565123	144	42	92
998.042292884	144	84	111
998.078759707	144	89	65
998.110367199	128	54	64
998.152059917	128	42	64
998.172825388	128	84	64
998.184218621	128	89	64
998.226724758	144	54	69
998.227134873	144	52	112
998.247178132	144	89	72
998.281897338	128	52	64
998.393014834	128	89	64
998.393348721	144	89	80
998.418000478	144	76	101
998.434123949	144	52	109
998.4782822	128	54	64
998.484532993	128	76	64
998.498868095	128	52	64
998.577933022	144	54	98
998.597567124	144	86	76
998.59872518	128	86	64
998.630039093	144	52	107
998.634682723	144	76	105
998.69750724	128	52	64
998.716871647	128	76	64
998.729838141	128	89	64
998.734750635	128	21	64
998.744675071	144	86	67
998.816236082	144	52	106
998.863280372	128	52	64
998.907841772	144	84	104
998.931864681	144	89	67
998.94539711	144	107	74
998.97111518	128	84	64
998.994358627	144	52	107
999.047499941	128	54	64
999.050219351	128	52	64
999.136018139	144	84	95
999.175395318	144	52	105
999.200742602	144	54	71
999.222748572	128	52	64
999.241911634	128	89	64
999.271826428	144	42	85
999.348171515	144	52	104
999.356809711	144	21	127
999.392217785	128	52	64
999.436893349	144	89	91
999.462456265	128	42	64
999.492324442	128	86	64
999.521032892	144	52	101
999.543943149	128	84	64
999.562841015	128	52	64
999.696521397	144	52	99
999.726398135	128	89	64
999.744433207	128	52	64
999.860024561	144	52	101
999.907166134	128	52	64
999.990303428	144	52	98
999.99944058	144	89	64
1000.053595336	128	52	64
1000.072335241	128	107	64
1000.136987452	144	84	118
1000.1592807	128	89	64
1000.171811176	144	107	74
1000.172099552	128	107	64
1000.172205636	144	107	78
1000.17227068	128	107	64
1000.172349758	144	107	79
1000.172407325	128	107	64
1000.180433611	128	54	64
1000.191669651	128	84	64
1000.213763212	144	89	62
1000.277779876	144	107	81
1000.365654617	144	76	121
1000.38584353	128	107	64
1000.389777159	128	89	64
1000.413531486	144	89	76
1000.452198933	128	76	64
1000.558917247	128	89	64
1000.601039372	144	76	114
1000.609874482	144	89	81
1000.647764056	144	52	1
1000.667558075	128	76	64
1000.782004336	128	89	64
1000.824970993	144	107	71
1000.864439723	144	84	117
1000.945985174	128	84	64
1000.981042545	128	107	64
1001.030665246	144	54	69
1001.033018859	144	89	38
1001.102524733	144	84	114
1001.139235412	128	54	64
1001.197229268	128	52	64
1001.251270794	144	107	76
1001.27929008	128	84	64
1001.301322292	128	21	64
1001.301707993	144	54	90
1001.309306586	128	89	64
1001.379256049	128	107	64
1001.453822586	144	86	64
1001.466481323	144	89	53
1001.531603948	144	52	76
1001.534547749	128	89	64
1001.597187353	128	52	64
1001.680490072	144	89	90
1001.704384357	144	107	73
1001.73977792	128	89	64
1001.74095795	128	35	64
1001.813902758	128	107	64
1001.832743	144	89	89
1001.873288575	144	52	25
1001.93959638	144	21	127
1001.962149427	128	52	64
1001.962967714	128	54	64
1002.044540745	144	54	90
1002.098797958	144	84	112
1002.142190993	128	84	64
1002.179139596	144	35	99
1002.193527588	144	107	77
1002.200824578	144	52	70
1002.261922941	128	52	64
1002.306076903	128	107	64
1002.314978131	144	76	106
1002.368240575	128	89	64
1002.419271799	128	76	64
1002.424443389	144	89	43
1002.516099971	144	52	111
1002.583924581	144	76	120
1002.588249563	128	52	64
1002.626178258	128	89	64
1002.64967656	128	76	64
1002.736771472	144	89	40
1002.78427383	128	89	64
1002.817011276	144	84	107
1002.886711251	144	52	41
1002.894873402	144	89	76
1002.911058209	128	84	64
1002.930159324	128	52	64
1002.990619251	128	89	64
1003.076509448	144	84	107
1003.180481025	128	54	64
1003.19924866	144	89	95
1003.227496061	144	52	36
1003.233008815	128	89	64
1003.274694376	128	52	64
1003.317103781	144	89	82
1003.377934963	128	84	64
1003.38488284	144	54	84
1003.463001856	144	52	59
1003.476289002	128	86	64
1003.487944355	128	54	64
1003.520463627	128	52	64
1003.559384471	128	89	64
1003.596414001	144	89	42
1003.700854029	144	54	93
1003.736215323	144	52	73
1003.741099359	128	89	64
1003.795362211	128	52	64
1004.017834119	144	52	92
1004.033423725	128	21	64
1004.043633748	144	84	110
1004.128741253	128	84	64
1004.157352972	144	86	67
1004.180203116	128	54	64
1004.284808986	144	76	121
1004.356561265	144	54	64
1004.385439163	128	76	64
1004.42064383	128	54	64
1004.422821737	144	21	127
1004.432777672	144	89	44
1004.452908643	128	89	64
1004.612172743	144	76	119
1004.612350844	128	76	64
1004.73303779	144	89	70
1004.745726578	144	84	108
1004.80093411	128	89	64
1004.836375152	128	52	64
1004.85537187	128	84	64
1004.880044474	144	89	77
1004.934089656	128	89	64
1004.997937117	144	89	90
1005.035741394	144	84	107
1005.06760718	128	89	64
1005.124205174	144	89	103
1005.124366592	128	84	64
1005.200918718	128	89	64
1005.24026435	144	89	105
1005.319807824	128	89	64
1005.361365811	144	50	43
1005.373773769	128	35	64
1005.377629865	144	52	88
1005.378581105	128	50	64
1005.41252207	144	89	29
1005.595476011	144	35	103
1005.596108139	144	54	82
1005.779107126	128	54	64
1005.790791728	144	54	79
1005.838115129	144	50	67
1005.85813705	128	54	64
1005.85818674	144	54	64
1005.877771776	128	50	64
1005.892436672	128	89	64
1005.909880079	128	86	64
1005.937901454	128	54	64
1005.961695948	144	54	77
1006.020485704	128	54	64
1006.029270933	144	54	63
1006.085657551	128	54	64
1006.09925921	144	89	28
1006.12492984	144	54	75
1006.181587585	144	93	2
1006.184610549	128	89	64
1006.185107835	144	84	122
1006.185338582	128	54	64
1006.191855983	144	54	62
1006.202052076	144	50	78
1006.207395315	128	52	64
1006.244055666	128	50	64
1006.251857543	128	54	64
1006.258615985	128	84	64
1006.263411819	144	89	37
1006.272540261	128	93	64
1006.291581895	144	54	78
1006.335072396	128	89	64
1006.350479294	128	21	64
1006.352056694	128	54	64
1006.357575859	144	54	63
1006.401693936	128	54	64
1006.430915149	144	76	123
1006.454177912	144	54	81
1006.501631841	128	54	64
1006.507607911	144	54	67
1006.517137403	128	76	64
1006.522113495	144	50	76
1006.532036558	144	93	3
1006.540002011	128	50	64
1006.551153075	128	54	64
1006.604492027	144	54	82
1006.623893689	128	93	64
1006.653991634	128	54	64
1006.654062552	144	54	67
1006.68018808	144	76	126
1006.683922176	144	89	54
1006.685567645	128	89	64
1006.718356473	128	54	64
1006.752982819	128	76	64
1006.767439891	144	93	3
1006.771036465	144	54	84
1006.819962669	128	54	64
1006.820149339	144	54	65
1006.838833995	128	93	64
1006.84001	144	21	127
1006.850313021	144	89	27
1006.901655484	128	54	64
1006.929010592	144	84	120
1006.935210748	128	89	64
1006.952797664	144	50	78
1006.9572242	144	54	83
1006.983032683	144	93	3
1006.994915935	128	50	64
1007.003025785	128	54	64
1007.015288052	144	54	61
1007.046698402	128	84	64
1007.069037287	128	54	64
1007.084686731	144	89	87
1007.122220945	144	54	74
1007.126944352	128	93	64
1007.137513695	144	52	83
1007.153911847	128	89	64
1007.189912334	144	93	3
1007.218831759	144	84	119
1007.254030194	144	50	80
1007.274088179	128	50	64
1007.316037789	144	89	103
1007.332753341	128	93	64
1007.384490322	128	89	64
1007.476274922	144	89	52
1007.513684085	128	54	64
1007.530899052	128	84	64
1007.55486488	144	50	82
1007.591003817	144	42	26
1007.595287063	128	50	64
1007.65736712	144	54	69
1007.688824449	144	86	73
1007.717497884	128	42	64
1007.827099971	144	42	26
1007.872659626	144	50	77
1007.877893556	128	54	64
1007.892418441	128	89	64
1007.911067398	128	50	64
1007.922108031	128	42	64
1007.927536456	128	52	64
1007.975898698	144	89	15
1007.977878058	144	54	53
1007.982249259	144	42	32
1008.072352464	128	89	64
1008.074614117	128	42	64
1008.139767351	144	89	23
1008.149021967	144	42	37
1008.220075932	144	50	75
1008.230428036	144	84	116
1008.23139246	144	93	121
1008.237730934	128	89	64
1008.238428523	128	42	64
1008.261321514	128	50	64
1008.296584627	144	89	36
1008.306013518	144	42	41
1008.315285754	128	84	64
1008.378857439	128	93	64
1008.380456011	128	54	64
1008.395266478	128	42	64
1008.446938014	144	42	41
1008.488334111	144	50	78
1008.493033342	128	89	64
1008.500497151	144	76	117
1008.507082898	128	50	64
1008.53551158	128	42	64
1008.539931986	144	54	58
1008.551060303	144	89	54
1008.585132902	128	76	64
1008.613479208	144	42	43
1008.651160495	128	89	64
1008.71833441	128	42	64
1008.757567222	144	93	120
1008.76709897	144	76	117
1008.769207302	144	42	42
1008.771364107	144	50	74
1008.794679043	144	89	67
1008.810752075	128	50	64
1008.83512756	128	76	64
1008.853033852	128	89	64
1008.864585742	128	54	64
1008.872715086	128	42	64
1008.901533485	128	93	64
1008.944512755	144	54	49
1008.945763566	144	42	43
1008.997996931	144	89	90
1009.000014436	128	21	64
1009.016315178	128	89	64
1009.04630655	144	84	113
1009.051088195	128	42	64
1009.066445851	128	35	64
1009.071717144	144	50	68
1009.094266735	144	89	101
1009.110463496	128	50	64
1009.113332018	144	42	46
1009.13012213	128	84	64
1009.153346936	144	52	115
1009.220179753	128	42	64
1009.261568302	144	35	111
1009.275312138	128	89	64
1009.278662212	144	42	47
1009.313161037	144	89	106
1009.321191801	144	84	119
1009.367521677	128	86	64
1009.371043081	144	50	66
1009.393875801	128	50	64
1009.409617594	128	42	64
1009.421481568	144	21	127
1009.461323464	144	42	50
1009.585522286	128	42	64
1009.632176998	128	84	64
1009.643694229	144	42	52
1009.671935952	144	50	69
1009.681522209	128	54	64
1009.691661853	128	50	64
1009.692567611	128	89	64
1009.748467523	128	42	64
1009.774530121	144	89	61
1009.815490814	144	42	52
1009.920791339	128	89	64
1009.930837884	128	42	64
1009.931415281	144	54	91
1009.938567469	144	50	66
1009.951384771	128	52	64
1009.956882211	128	50	64
1009.964321013	144	89	66
1009.997521728	144	42	52
1010.00420713	144	86	99
1010.054813671	128	89	64
1010.059113275	128	86	64
1010.11528423	128	42	64
1010.146575868	144	89	70
1010.157187668	144	86	62
1010.17746376	144	42	52
1010.238152442	144	50	65
1010.238463191	128	89	64
1010.277673491	128	50	64
1010.304463297	128	42	64
1010.306289233	144	89	80
1010.342121002	144	42	52
1010.396956221	144	52	114
1010.397285155	144	84	123
1010.433417543	144	76	127
1010.445592032	128	89	64
1010.45496184	128	76	64
1010.462815133	128	84	64
1010.470409324	128	42	64
1010.498389733	144	89	82
1010.53276262	128	54	64
1010.535982631	144	42	52
1010.553073294	144	50	63
1010.566228707	128	89	64
1010.574207444	128	50	64
1010.655107429	128	42	64
1010.664225644	144	89	84
1010.714477031	144	42	53
1010.716494172	144	76	120
1010.716696786	128	89	64
1010.771904217	144	89	72
1010.802788853	128	76	64
1010.826374557	128	42	64
1010.853872787	128	89	64
1010.897047933	144	42	52
1010.913208338	144	89	53
1010.966781615	144	76	122
1010.999903987	128	89	64
1011.017501802	128	76	64
1011.02448132	128	86	64
1011.02543835	128	42	64
1011.078349773	144	89	53
1011.093921196	144	42	53
1011.18028938	128	42	64
1011.201695825	144	84	116
1011.265063124	144	42	54
1011.273294243	128	107	64
1011.315809993	128	84	64
1011.353177597	128	42	64
1011.386429866	128	52	64
1011.437722122	144	42	57
1011.458879949	144	84	116
1011.542129614	128	21	64
1011.54342265	128	42	64
1011.559730333	128	89	64
1011.606098756	144	42	57
1011.615763258	144	89	47
1011.622370979	144	50	65
1011.639529963	128	54	64
1011.661483646	128	50	64
1011.708514269	128	42	64
1011.725976452	128	89	64
1011.762990369	144	50	68
1011.781016317	144	89	40
1011.784155481	144	42	58
1011.811727741	128	50	64
1011.82939541	144	21	127
1011.884210236	128	89	64
1011.888214694	128	42	64
1011.928860325	144	50	68
1011.944098379	144	42	59
1011.964170064	144	89	34
1011.967054716	128	84	64
1011.976777442	128	50	64
1012.041923789	128	42	64
1012.067651566	128	89	64
1012.07961751	144	50	67
1012.109840406	144	42	59
1012.125665309	128	50	64
1012.143058907	144	89	28
1012.182528528	144	86	68
1012.212607994	128	42	64
1012.237525563	128	89	64
1012.269870526	144	50	68
1012.280728832	144	42	61
1012.29049954	128	50	64
1012.315956293	144	89	27
1012.361839169	144	52	10
1012.403777125	128	42	64
1012.417444406	128	89	64
1012.428094987	144	84	119
1012.436166679	144	50	69
1012.458875604	128	50	64
1012.460045435	144	42	61
1012.498288566	144	89	28
1012.532279448	128	84	64
1012.566800336	128	42	64
1012.601141098	128	89	64
1012.603445031	144	50	69
1012.607070081	128	35	64
1012.625632261	128	50	64
1012.632244476	144	42	58
1012.690978319	144	89	30
1012.708081336	128	52	64
1012.737850646	144	76	123
1012.741617568	128	42	64
1012.770510227	128	89	64
1012.770735176	144	50	66
1012.802509601	128	76	64
1012.811017078	128	50	64
1012.813242964	144	42	58
1012.858270399	144	89	32
1012.897096568	128	42	64
1012.94695596	144	35	107
1012.950822433	128	89	64
1012.954908969	144	50	64
1012.967477177	144	76	119
1012.973560845	128	50	64
1012.984656579	144	42	57
1013.034294799	128	76	64
1013.051551685	128	86	64
1013.064963164	128	42	64
1013.120794633	144	50	63
1013.138638866	144	52	12
1013.143645718	144	42	59
1013.146400533	128	50	64
1013.239774973	144	84	111
1013.246903312	144	50	65
1013.257208822	128	42	64
1013.321383852	144	42	64
1013.324725637	128	50	64
1013.329039603	128	84	64
1013.431611839	128	42	64
1013.458592875	144	84	112
1013.46941831	144	50	68
1013.486503236	128	52	64
1013.494363261	128	50	64
1013.501349395	144	42	62
1013.600031135	128	84	64
1013.614569506	128	42	64
1013.638242194	144	50	69
1013.656990166	128	50	64
1013.696518896	144	42	62
1013.733166733	128	21	64
1013.803576852	144	50	70
1013.806482952	128	42	64
1013.844426671	128	50	64
1013.882289713	144	42	62
1013.98614853	128	42	64
1014.004383748	144	50	70
1014.044000538	128	50	64
1014.06646718	144	42	62
1014.186788569	128	42	64
1014.187922494	144	50	71
1014.205190854	144	21	127
1014.208124621	128	50	64
1014.26606868	144	93	69
1014.26642988	144	42	62
1014.304990241	144	52	17
1014.356142572	128	42	64
1014.363704424	144	50	70
1014.390774238	128	93	64
1014.428572597	128	50	64
1014.431387445	144	42	62
1014.540463872	144	84	98
1014.542985524	128	42	64
1014.612913655	128	84	64
1014.62033723	144	50	71
1014.62987777	144	42	60
1014.64266777	128	50	64
1014.737753182	128	42	64
1014.764877231	144	76	97
1014.767677231	144	89	25
1014.775934108	144	86	83
1014.800403725	128	89	64
1014.812516406	144	42	59
1014.827813586	128	86	64
1014.851652594	128	76	64
1014.889460012	144	51	81
1014.890284521	128	51	64
1014.938671709	144	50	70
1014.93890739	128	50	64
1014.939247759	128	42	64
1014.942985246	144	86	73
1014.945235822	144	89	27
1014.967713966	128	89	64
1015.018082555	128	52	64
1015.018780025	144	76	114
1015.065943225	144	42	63
1015.103339862	128	76	64
1015.111897713	144	89	27
1015.120731038	128	89	64
1015.166149844	128	42	64
1015.228537113	144	89	28
1015.259879865	144	84	111
1015.270215993	144	42	61
1015.271594967	128	89	64
1015.346842514	128	42	64
1015.371943992	128	84	64
1015.374725487	144	89	31
1015.420514904	128	89	64
1015.45014451	144	42	59
1015.524570372	144	84	125
1015.525135894	144	52	27
1015.528361419	144	89	31
1015.5347719	128	42	64
1015.5415427	128	35	64
1015.640535709	144	42	61
1015.73849608	128	42	64
1015.784635653	128	84	64
1015.805693747	128	86	64
1015.823384996	144	42	62
1015.92253301	128	42	64
1015.926815022	128	52	64
1016.021580529	144	42	61
1016.113126315	128	42	64
1016.216995537	144	42	62
1016.248883252	128	21	64
1016.297752925	144	93	111
1016.316023472	128	42	64
1016.340002184	128	93	64
1016.428732848	144	42	61
1016.516898837	144	84	118
1016.531719713	128	42	64
1016.58382534	128	84	64
1016.625301099	144	42	60
1016.695071178	144	35	104
1016.705292156	144	21	127
1016.730950549	128	42	64
1016.785618801	144	76	118
1016.850214071	144	42	61
1016.889211988	128	76	64
1016.956718602	128	42	64
1016.978733421	144	76	117
1017.004763646	144	86	61
1017.005762742	128	86	64
1017.049873948	144	86	102
1017.062377869	144	42	61
1017.07755894	128	76	64
1017.079129056	128	89	64
1017.131032364	128	86	64
1017.131842813	144	52	104
1017.167872425	128	42	64
1017.16891829	144	86	72
1017.209048235	144	89	34
1017.220061462	144	84	118
1017.237150977	128	52	64
1017.242098457	144	72	126
1017.255859983	128	72	64
1017.258569957	144	42	61
1017.269805264	128	89	64
1017.352392799	128	84	64
1017.396008034	128	42	64
1017.403942927	144	50	1
1017.417689698	144	89	37
1017.450499524	128	89	64
1017.487545328	144	42	61
1017.512310741	144	84	121
1017.551544461	128	50	64
1017.577821744	144	52	105
1017.594694392	144	89	36
1017.606968575	128	42	64
1017.627073698	128	52	64
1017.63155238	128	84	64
1017.701426607	144	42	63
1017.80785861	128	42	64
1017.812088046	144	72	127
1017.812633652	128	51	64
1017.820299347	144	52	108
1017.84573611	128	72	64
1017.877822781	128	52	64
1017.896775678	144	42	64
1017.909694595	128	86	64
1017.918182165	128	89	64
1018.012013288	128	42	64
1018.037575117	144	50	2
1018.069042865	144	68	69
1018.077644188	128	50	64
1018.099459193	144	89	39
1018.118584821	144	42	64
1018.133291081	128	89	64
1018.214879964	144	50	1
1018.223950053	144	93	77
1018.238864593	128	42	64
1018.243981553	128	50	64
1018.286139184	144	89	41
1018.28747075	128	89	64
1018.31788032	144	42	65
1018.322936097	128	93	64
1018.369693645	144	72	117
1018.382683093	128	68	64
1018.390652092	144	89	43
1018.39528564	128	72	64
1018.429334858	128	42	64
1018.448728222	144	84	120
1018.531939501	144	42	65
1018.537318976	128	84	64
1018.60734982	144	68	75
1018.647522151	128	42	64
1018.756547692	144	42	65
1018.777273922	144	76	124
1018.834914197	128	50	64
1018.866922954	128	76	64
1018.871958413	128	42	64
1018.888708419	128	89	64
1018.952163154	144	52	126
1018.973593686	144	42	65
1018.999630985	144	72	93
1019.023989664	128	21	64
1019.02982526	144	76	125
1019.058669678	128	72	64
1019.082414118	144	89	45
1019.090458813	128	42	64
1019.100369519	128	76	64
1019.104405906	128	89	64
1019.178544075	144	42	69
1019.275825436	144	84	114
1019.285268254	144	89	46
1019.285541657	128	89	64
1019.303127205	128	42	64
1019.339802701	128	52	64
1019.35256946	144	21	127
1019.36752517	128	84	64
1019.374803474	144	42	70
1019.432392491	144	89	47
1019.436543018	128	89	64
1019.508313677	128	42	64
1019.536479249	144	72	70
1019.539461953	144	84	108
1019.549755448	144	86	107
1019.58418436	144	89	52
1019.591761365	128	86	64
1019.598868289	128	72	64
1019.603316908	144	42	74
1019.616696745	128	89	64
1019.620186238	144	86	102
1019.722456321	128	42	64
1019.760893896	144	89	52
1019.790405346	128	89	64
1019.798566433	144	42	76
1019.800118002	144	52	1
1019.821060107	128	84	64
1019.884588097	144	89	55
1019.92389942	128	42	64
1019.936839877	128	89	64
1019.963213875	128	52	64
1020.076028538	144	52	1
1020.076848938	144	42	76
1020.080823528	144	89	57
1020.081081286	128	89	64
1020.1546797	144	72	53
1020.162081061	128	72	64
1020.162360104	128	42	64
1020.17496838	128	35	64
1020.178442299	144	89	73
1020.18964963	128	52	64
1020.221047004	128	89	64
1020.239199272	144	42	75
1020.256373793	144	52	1
1020.365478841	128	52	64
1020.365755866	144	89	92
1020.383265739	128	89	64
1020.389451665	128	42	64
1020.432267478	144	52	1
1020.448563498	144	93	86
1020.481904388	144	89	89
1020.505825879	128	93	64
1020.518077379	144	42	75
1020.526960184	144	84	117
1020.535809564	128	52	64
1020.610778618	144	52	3
1020.621163551	128	84	64
1020.697257076	128	42	64
1020.748198973	128	52	64
1020.75467797	144	72	57
1020.785769927	144	42	77
1020.802941501	144	76	125
1020.804086664	128	72	64
1020.813115957	144	35	108
1020.824945207	144	52	7
1020.834180769	128	86	64
1020.877534335	128	89	64
1020.902761611	128	76	64
1020.936595975	128	52	64
1020.941505931	144	89	17
1020.981619827	128	42	64
1021.020143724	144	52	10
1021.030349808	128	89	64
1021.045850723	144	76	123
1021.118240225	128	76	64
1021.127761835	144	89	22
1021.152701785	144	42	77
1021.15717225	128	52	64
1021.205057031	128	89	64
1021.287059294	144	84	120
1021.383690916	144	89	26
1021.387710786	128	84	64
1021.404186731	128	89	64
1021.404493145	144	72	77
1021.441652934	128	72	64
1021.523748779	144	84	117
1021.545489362	128	68	64
1021.566813329	144	89	36
1021.58065302	144	52	1
1021.608550968	128	52	64
1021.621082929	128	89	64
1021.646291882	144	68	84
1021.688943759	128	84	64
1021.715534704	128	21	64
1021.722780542	128	68	64
1021.766980199	144	89	37
1021.787787342	128	89	64
1021.79273615	144	52	1
1021.835085332	128	52	64
1021.887794726	144	68	87
1021.966398641	144	52	1
1021.991679317	128	68	64
1022.015461825	128	52	64
1022.062514494	144	68	86
1022.09463477	128	42	64
1022.098791073	144	93	94
1022.101434319	144	21	127
1022.144258004	144	52	1
1022.15502491	128	68	64
1022.1554895	128	93	64
1022.167121963	144	42	79
1022.185802846	128	52	64
1022.192216179	144	89	44
1022.243423962	144	68	89
1022.27187887	128	89	64
1022.308324927	144	52	1
1022.357724189	128	52	64
1022.387152142	128	68	64
1022.390526639	144	86	73
1022.435239234	144	89	46
1022.465400424	144	68	88
1022.474266758	128	86	64
1022.483370425	144	52	1
1022.540712136	144	86	74
1022.553854154	128	52	64
1022.599382289	128	86	64
1022.657209403	144	86	84
1022.684680449	144	52	6
1022.695703346	128	86	64
1022.705917849	144	86	92
1022.780822521	128	52	64
1022.847761868	144	52	11
1022.922210201	128	52	64
1022.938779898	128	89	64
1023.024704795	144	52	19
1023.067596268	128	42	64
1023.083936745	144	89	50
1023.085038367	128	52	64
1023.181602252	144	42	80
1023.185704848	128	89	64
1023.235085701	144	72	92
1023.260387768	144	52	27
1023.271622228	128	72	64
1023.306541089	128	52	64
1023.32667373	144	89	52
1023.345730614	128	86	64
1023.383493154	128	89	64
1023.424916869	144	52	36
1023.449631549	144	89	67
1023.478628615	128	52	64
1023.517159361	128	89	64
1023.58229527	144	52	48
1023.598422285	144	89	80
1023.615232366	128	52	64
1023.617501842	144	77	83
1023.654780723	128	89	64
1023.685460261	144	52	53
1023.732639788	144	89	94
1023.768418834	128	52	64
1023.792758557	128	89	64
1023.843774129	144	89	119
1023.84923417	144	52	64
1023.917073	128	89	64
1023.918888645	128	52	64
1023.971409542	128	77	64
1024.009074643	144	89	97
1024.014688947	128	21	64
1024.093703784	144	52	73
1024.142678668	128	52	64
1024.173518164	128	42	64
1024.264228383	144	52	79
1024.274971811	128	35	64
1024.301668041	144	42	85
1024.325412331	128	52	64
1024.405268264	144	77	85
1024.407522975	144	93	85
1024.462440461	144	21	127
1024.506913782	128	93	64
1024.663429758	144	35	107
1024.683239288	128	77	64
1024.876871019	128	89	64
1024.941661339	144	89	15
1024.952426548	144	86	70
1025.020257978	128	89	64
1025.066134837	144	72	97
1025.110260543	144	89	16
1025.116184179	128	72	64
1025.162935779	128	42	64
1025.184129635	128	68	64
1025.214073085	144	77	95
1025.275965334	128	89	64
1025.359920778	144	89	20
1025.402384272	144	42	89
1025.439783513	128	89	64
1025.504898968	128	77	64
1025.532466225	144	89	26
1025.585259667	128	89	64
1025.598973946	144	68	87
1025.62576138	128	68	64
1025.700107676	144	89	31
1025.711291716	144	68	91
1025.768664725	128	89	64
1025.788020957	128	68	64
1025.861293309	144	68	96
1025.863625355	144	89	39
1025.918456435	128	89	64
1025.921729745	128	68	64
1025.987160871	128	86	64
1025.9930938	144	68	97
1026.062857936	144	89	42
1026.084320828	128	89	64
1026.179864195	144	89	46
1026.223598595	128	89	64
1026.270220316	144	77	96
1026.283843302	128	68	64
1026.288258875	128	42	64
1026.307982137	144	89	54
1026.358190528	144	52	43
1026.370885833	144	76	93
1026.381179753	144	68	85
1026.401512092	128	89	64
1026.41105193	128	76	64
1026.431811294	144	93	86
1026.465640729	144	89	68
1026.506588961	128	93	64
1026.530979334	144	42	80
1026.550988299	128	89	64
1026.559089482	128	52	64
1026.584122187	128	77	64
1026.631982382	144	89	78
1026.684665443	128	89	64
1026.706375815	144	84	70
1026.771200744	128	84	64
1026.778878185	144	89	97
1026.819565417	128	89	64
1026.823690527	128	42	64
1026.888276056	144	72	93
1026.90840336	144	89	112
1026.938117036	128	72	64
1027.031957304	128	21	64
1027.128024887	144	52	127
1027.220052369	144	76	99
1027.228913839	144	21	127
1027.235013338	128	52	64
1027.270940729	128	76	64
1027.278454491	144	77	101
1027.363037201	128	89	64
1027.425581978	144	89	32
1027.483794349	128	89	64
1027.5936035	144	89	40
1027.630221358	128	77	64
1027.646935385	144	86	97
1027.650109721	128	89	64
1027.659731998	128	86	64
1027.706234001	144	84	97
1027.715153563	144	89	52
1027.749465092	128	68	64
1027.749643512	144	86	82
1027.791972202	128	35	64
1027.792924287	128	84	64
1028.084655747	144	68	73
1028.092619832	128	89	64
1028.137004644	144	76	112
1028.138132359	128	68	64
1028.146891515	144	35	108
1028.192607038	144	89	65
1028.203873794	128	76	64
1028.420747514	144	68	67
1028.532935464	144	84	124
1028.640672504	128	84	64
1028.693246638	128	89	64
1028.705412861	144	72	87
1028.740197751	128	72	64
1028.800852381	128	86	64
1028.988925612	144	76	115
1029.037530494	144	89	82
1029.053678424	128	76	64
1029.328758498	144	84	114
1029.374400239	128	84	64
1029.432822176	128	68	64
1029.453946239	144	76	105
1029.464073929	128	21	64
1029.505040329	128	76	64
1029.719465152	144	42	43
1029.763156591	144	84	112
1029.823617146	128	84	64
1029.841481364	128	89	64
1029.860362379	144	76	96
1029.925421094	144	89	7
1029.937087344	128	76	64
1029.940775629	144	72	90
1029.995443579	144	21	127
1029.997619665	128	42	64
1030.004768382	128	89	64
1030.013736864	128	72	64
1030.074416102	144	89	21
1030.148372538	128	89	64
1030.203832515	144	84	102
1030.216344453	144	89	35
1030.270296075	128	84	64
1030.271603863	128	89	64
1030.344173598	144	89	65
1030.369787852	144	76	107
1030.400349941	128	89	64
1030.420639144	128	76	64
1030.455884444	144	78	56
1030.460231897	144	86	79
1030.478932375	144	89	63
1030.494959685	128	78	64
1030.495458236	128	86	64
1030.50340948	144	86	93
1030.52263812	128	86	64
1030.537736438	128	89	64
1030.581251581	144	86	84
1030.62648296	144	89	37
1030.664327895	144	84	106
1030.683332596	128	89	64
1030.738813362	128	84	64
1030.762324281	144	89	38
1030.804894198	144	78	104
1030.822016668	128	89	64
1030.845482328	128	78	64
1030.85299481	144	76	104
1030.872637885	144	72	94
1030.908375854	144	89	43
1030.909842391	128	76	64
1030.928912851	128	72	64
1030.966730529	128	89	64
1030.968721695	144	84	104
1031.008474546	128	35	64
1031.037773168	128	84	64
1031.045696168	144	89	48
1031.103639724	144	76	101
1031.104283839	128	89	64
1031.169204582	128	76	64
1031.188766478	144	78	110
1031.189577662	144	42	22
1031.208250536	128	78	64
1031.218281912	144	84	101
1031.246771378	144	89	49
1031.260457596	128	89	64
1031.326375611	128	84	64
1031.345010112	144	89	49
1031.404055217	144	76	106
1031.404212271	128	89	64
1031.469286512	128	76	64
1031.491912964	144	89	52
1031.519747613	144	84	111
1031.538286572	144	78	114
1031.549833962	128	89	64
1031.579852095	128	78	64
1031.58435835	128	42	64
1031.589133437	128	84	64
1031.596284588	144	35	107
1031.635398839	128	86	64
1031.694475468	144	89	54
1031.717115744	128	89	64
1031.719400063	144	72	91
1031.766459374	128	72	64
1031.922254834	144	78	116
1031.961436524	128	78	64
1031.965906697	144	89	39
1031.973524581	128	89	64
1031.978468916	144	89	61
1032.039531399	128	89	64
1032.09888378	144	68	66
1032.157739457	128	68	64
1032.177111301	144	77	93
1032.186304308	144	89	41
1032.195294781	144	68	54
1032.204233335	128	89	64
1032.220313795	144	76	96
1032.252003138	144	89	54
1032.254296402	144	78	122
1032.274520562	128	78	64
1032.287139287	128	76	64
1032.288649975	128	89	64
1032.338903055	128	68	64
1032.339248221	144	68	70
1032.35690232	144	89	49
1032.392297774	144	42	66
1032.400291812	128	89	64
1032.40566342	128	68	64
1032.414948866	144	68	56
1032.432675512	144	89	39
1032.450257901	128	42	64
1032.468363177	128	89	64
1032.488464911	128	68	64
1032.531325915	128	77	64
1032.539356521	144	78	118
1032.54319958	144	68	72
1032.547251856	144	89	43
1032.578908717	128	78	64
1032.581069012	128	21	64
1032.587319463	128	89	64
1032.589427043	128	68	64
1032.599585449	144	68	57
1032.637803978	144	76	88
1032.640637981	144	89	60
1032.670415864	128	89	64
1032.671527969	128	68	64
1032.707705818	144	72	95
1032.721105878	128	76	64
1032.724780746	144	68	68
1032.734397692	144	89	58
1032.750265079	128	72	64
1032.772649866	128	68	64
1032.785774753	128	89	64
1032.789216597	144	78	119
1032.790462109	144	84	95
1032.791212061	144	68	52
1032.814533698	144	89	43
1032.828751899	128	78	64
1032.853370344	128	89	64
1032.853974527	128	68	64
1032.878799666	144	89	63
1032.91016506	128	84	64
1032.953767452	128	89	64
1032.957623545	144	89	49
1032.975509088	128	89	64
1032.988547597	144	78	115
1032.994430242	144	89	60
1033.016856493	144	68	36
1033.0278852	128	78	64
1033.05166954	128	89	64
1033.071941019	128	68	64
1033.07721986	144	89	44
1033.093022227	144	68	66
1033.105652996	128	89	64
1033.113216344	144	77	116
1033.121285377	128	68	64
1033.128883381	144	89	59
1033.192792447	144	68	37
1033.194680549	128	89	64
1033.204846842	144	78	116
1033.205932942	144	89	46
1033.227666332	128	78	64
1033.241963016	128	89	64
1033.248861981	144	89	61
1033.255207422	128	68	64
1033.305261536	144	76	100
1033.311333942	144	68	65
1033.320620152	144	21	127
1033.320827817	128	89	64
1033.322695999	144	86	81
1033.32768199	128	77	64
1033.342250029	144	89	48
1033.356459089	128	68	64
1033.357030694	128	76	64
1033.364242607	144	68	39
1033.366543406	128	89	64
1033.376644285	128	86	64
1033.40584908	144	78	116
1033.41331282	144	89	63
1033.434921684	144	86	99
1033.437109494	128	68	64
1033.444607924	128	78	64
1033.459949521	128	86	64
1033.471412397	144	76	102
1033.475642973	128	89	64
1033.494452899	144	89	42
1033.495697651	144	86	87
1033.517257162	128	89	64
1033.550738468	144	89	52
1033.568157159	128	76	64
1033.58215922	144	68	45
1033.587173379	128	89	64
1033.596060757	144	77	116
1033.607711184	144	78	116
1033.614163498	144	89	35
1033.633816111	128	89	64
1033.638797437	128	68	64
1033.643205617	128	78	64
1033.669341734	144	72	94
1033.67011064	128	77	64
1033.689235549	144	89	54
1033.692343333	144	84	87
1033.715012029	128	72	64
1033.722032698	128	89	64
1033.772120277	144	89	35
1033.772812762	128	84	64
1033.781261724	144	68	47
1033.787606575	144	78	117
1033.81773648	128	89	64
1033.821816053	144	89	57
1033.827557113	128	78	64
1033.838362475	128	68	64
1033.852913025	144	76	99
1033.856427629	128	89	64
1033.864051596	144	77	103
1033.905736363	144	89	35
1033.921464085	128	76	64
1033.925058068	128	89	64
1033.936801128	144	89	60
1033.972711311	144	34	83
1033.982341121	144	78	116
1033.997732789	128	78	64
1034.007530312	128	34	64
1034.029351161	128	89	64
1034.03431698	144	89	36
1034.044204482	128	77	64
1034.057583659	144	84	96
1034.060979809	128	89	64
1034.064482809	144	68	44
1034.097827012	144	89	57
1034.105104214	128	84	64
1034.128617415	144	34	110
1034.14126388	144	78	116
1034.15590933	144	76	100
1034.158464505	128	35	64
1034.171783344	128	86	64
1034.178052748	128	78	64
1034.183242899	128	89	64
1034.184508937	128	34	64
1034.185881379	144	89	35
1034.189462447	128	89	64
1034.221165037	144	89	56
1034.235666849	128	76	64
1034.263661765	144	78	116
1034.289068285	128	89	64
1034.291253952	144	89	35
1034.303794362	128	68	64
1034.304859556	128	89	64
1034.314401617	144	34	120
1034.328218932	128	78	64
1034.369318535	144	89	55
1034.385750618	128	34	64
1034.392035716	128	52	64
1034.399347633	144	68	50
1034.416512699	144	78	117
1034.426950349	128	89	64
1034.430924751	144	89	34
1034.454920357	128	89	64
1034.455804912	128	68	64
1034.456678167	144	34	126
1034.478385344	128	78	64
1034.514735462	144	86	114
1034.535841713	128	34	64
1034.542878322	144	68	47
1034.558311161	128	86	64
1034.559146579	144	89	36
1034.564209132	144	78	117
1034.583568372	144	72	95
1034.584462818	144	77	110
1034.585781886	128	89	64
1034.604973712	128	68	64
1034.606278752	144	34	126
1034.618258907	144	89	55
1034.628499374	128	78	64
1034.631382312	128	72	64
1034.647773732	144	86	116
1034.68447614	128	89	64
1034.685104673	128	34	64
1034.693114965	144	68	46
1034.71415561	144	78	118
1034.726820973	128	77	64
1034.740794558	144	34	126
1034.754139586	128	86	64
1034.769484704	144	76	96
1034.77836975	128	78	64
1034.782639639	144	89	56
1034.78531122	128	34	64
1034.808408356	128	76	64
1034.830403043	128	89	64
1034.830481626	144	89	35
1034.836622728	128	68	64
1034.840554287	144	34	125
1034.854595145	144	35	110
1034.861771047	144	78	118
1034.91404835	144	68	49
1034.92813809	128	78	64
1034.935021377	128	34	64
1034.968218717	144	76	99
1034.975379042	128	89	64
1034.976427952	144	34	127
1034.997588591	144	89	43
1035.005356061	128	68	64
1035.013645948	144	78	119
1035.019654166	128	76	64
1035.021229621	128	89	64
1035.036552163	128	34	64
1035.053637109	144	89	55
1035.078206968	128	78	64
1035.105994496	144	34	127
1035.12682407	144	84	99
1035.130179558	128	89	64
1035.134646096	144	89	39
1035.161224045	128	89	64
1035.16393534	144	78	120
1035.171421537	144	68	49
1035.179115175	144	89	54
1035.185032822	128	34	64
1035.185728496	144	42	127
1035.228183519	128	78	64
1035.238795089	128	68	64
1035.240887632	144	34	127
1035.242823288	128	84	64
1035.254381419	128	89	64
1035.26215205	128	21	64
1035.278905875	144	77	120
1035.284728766	128	34	64
1035.287804923	144	76	109
1035.311963151	144	89	52
1035.330547303	144	78	118
1035.337583166	128	76	64
1035.338528504	144	34	127
1035.372758158	128	77	64
1035.374638339	128	78	64
1035.399587181	128	89	64
1035.404127973	144	89	36
1035.427706106	128	89	64
1035.44545987	144	89	61
1035.468879971	128	34	64
1035.483147508	144	76	107
1035.500263326	128	89	64
1035.517889876	144	72	90
1035.530569916	128	72	64
1035.538291633	144	89	47
1035.551988198	128	76	64
1035.559688061	128	89	64
1035.588702105	144	89	54
1035.619831504	144	21	127
1035.620630769	128	89	64
1035.66272367	144	77	118
1035.666313112	144	89	40
1035.679097296	144	84	99
1035.704487649	128	89	64
1035.723485144	128	21	64
1035.748511873	144	89	56
1035.75482091	128	77	64
1035.783885703	128	89	64
1035.796467261	128	84	64
1035.817109111	144	89	42
1035.83468678	144	21	127
1035.842564028	128	89	64
1035.863938932	144	89	55
1035.882142705	144	93	92
1035.88345392	144	34	15
1035.903420959	144	76	103
1035.90547	128	93	64
1035.907479822	128	21	64
1035.922898288	128	89	64
1035.937041445	128	34	64
1035.951454396	128	76	64
1035.957176031	144	93	43
1035.969341156	144	89	50
1035.990163613	128	93	64
1036.006165349	128	89	64
1036.012486876	144	21	127
1036.024051941	144	89	60
1036.041766972	144	93	44
1036.044045889	144	34	15
1036.074593435	128	89	64
1036.079025288	128	21	64
1036.088888204	128	93	64
1036.099689755	144	89	50
1036.102962233	128	34	64
1036.125321187	144	93	90
1036.12672905	128	89	64
1036.149400067	144	89	67
1036.173322944	128	93	64
1036.182244873	144	21	127
1036.191329799	144	93	44
1036.212953387	144	76	105
1036.223852462	128	93	64
1036.225830754	128	89	64
1036.229278609	144	89	55
1036.239791836	128	89	64
1036.258497119	128	21	64
1036.286480919	128	76	64
1036.306061689	144	89	71
1036.307053772	144	93	39
1036.339250483	128	89	64
1036.340423681	128	93	64
1036.358219021	144	93	85
1036.359159109	144	89	59
1036.369778758	144	21	127
1036.379578539	144	77	119
1036.385781563	128	89	64
1036.414976249	144	89	69
1036.422566186	128	93	64
1036.425368152	128	21	64
1036.434345414	144	72	91
1036.442331016	144	93	37
1036.451574492	144	84	102
1036.456927914	128	89	64
1036.480134041	128	72	64
1036.482089456	144	89	60
1036.492857152	128	93	64
1036.506421518	128	89	64
1036.508040945	144	93	91
1036.515948107	144	21	127
1036.527749397	128	84	64
1036.552056119	144	89	76
1036.558199401	128	93	64
1036.558269274	144	93	42
1036.574162813	128	21	64
1036.604368103	128	89	64
1036.60640762	144	78	119
1036.606615421	128	93	64
1036.626453057	128	78	64
1036.627418489	144	89	64
1036.660660626	128	89	64
1036.664171277	144	89	80
1036.675390171	144	93	44
1036.676459904	144	21	127
1036.709872623	128	77	64
1036.724547194	128	93	64
1036.726752466	144	93	91
1036.734144648	128	89	64
1036.73700751	144	89	64
1036.737220318	144	76	102
1036.747238068	128	21	64
1036.786912212	128	89	64
1036.787438623	128	76	64
1036.790441925	128	93	64
1036.808308907	144	93	45
1036.849815049	144	21	127
1036.856491102	128	93	64
1036.866477878	144	89	83
1036.875289637	144	93	91
1036.925038427	128	21	64
1036.942557359	128	93	64
1036.944944064	144	93	46
1036.945219571	144	76	102
1036.968580319	128	89	64
1036.991246765	128	93	64
1037.004478073	128	76	64
1037.011086117	144	93	94
1037.013516495	144	21	127
1037.016157452	144	89	66
1037.050440802	128	89	64
1037.058120588	128	93	64
1037.073335801	128	21	64
1037.092581079	144	93	43
1037.131783642	144	89	72
1037.136006932	128	42	64
1037.139032483	144	77	117
1037.142507152	128	93	64
1037.159400536	144	93	99
1037.163182759	144	21	127
1037.206408225	128	89	64
1037.206961785	128	93	64
1037.210531098	144	89	60
1037.225566892	144	93	46
1037.233517923	128	89	64
1037.241974847	128	21	64
1037.286983882	144	89	79
1037.292430349	128	93	64
1037.306258319	144	93	101
1037.340069899	128	89	64
1037.340156409	144	89	66
1037.340462292	144	86	115
1037.345446039	144	21	127
1037.356538383	128	93	64
1037.373852605	144	93	49
1037.378783354	128	86	64
1037.400746629	128	89	64
1037.405235847	144	86	109
1037.406264708	128	21	64
1037.424636869	128	93	64
1037.432441152	128	86	64
1037.448969083	144	89	86
1037.459490776	144	93	99
1037.47663412	128	77	64
1037.507472755	128	93	64
1037.510988624	144	21	127
1037.524810162	144	42	22
1037.527242511	144	93	48
1037.535244102	128	89	64
1037.541196672	144	89	72
1037.558725434	128	89	64
1037.574042764	128	21	64
1037.575860348	128	93	64
1037.599035657	144	89	84
1037.608614924	144	93	98
1037.675314487	128	93	64
1037.677180247	144	93	50
1037.681613432	144	21	127
1037.682997076	128	89	64
1037.683074838	144	89	71
1037.738162889	128	89	64
1037.739785196	128	21	64
1037.755749474	128	93	64
1037.77491385	144	93	99
1037.780892671	144	89	83
1037.825136804	128	93	64
1037.845279674	144	21	127
1037.860040071	144	93	46
1037.876393558	128	89	64
1037.876492039	144	89	72
1037.894336882	144	77	113
1037.903688123	144	76	96
1037.908775089	128	93	64
1037.913698302	128	21	64
1037.921545012	128	89	64
1037.942623581	144	93	98
1037.971902164	128	76	64
1037.97521125	128	35	64
1037.998516341	144	89	89
1038.007339864	128	93	64
1038.021143203	144	21	127
1038.025835246	144	93	47
1038.039710899	128	89	64
1038.03976205	144	89	73
1038.067646534	128	89	64
1038.074417414	128	21	64
1038.093171749	128	93	64
1038.108113333	144	93	104
1038.147833321	144	89	91
1038.17196529	144	76	96
1038.173163259	128	93	64
1038.176884545	144	21	127
1038.19216336	144	93	53
1038.194105973	128	89	64
1038.194150985	144	89	75
1038.236777452	128	76	64
1038.246243641	128	21	64
1038.256189549	128	89	64
1038.25668751	128	93	64
1038.272616342	144	78	124
1038.275674232	144	93	112
1038.277011502	128	77	64
1038.284085063	144	86	93
1038.317718411	144	89	94
1038.323632128	128	93	64
1038.349437121	144	21	127
1038.363746683	128	86	64
1038.381635065	144	35	103
1038.393407546	144	93	55
1038.406445155	128	93	64
1038.40804616	128	21	64
1038.408741412	144	86	119
1038.413047707	128	89	64
1038.413098989	144	89	80
1038.425510904	144	93	108
1038.428437375	144	84	89
1038.441849341	128	86	64
1038.451577162	128	42	64
1038.490373854	128	93	64
1038.491826921	128	84	64
1038.500892824	128	89	64
1038.511583855	144	21	127
1038.525727783	144	93	51
1038.556018848	128	93	64
1038.573204211	128	21	64
1038.581901128	144	89	91
1038.591605117	144	93	106
1038.640919696	128	93	64
1038.658933548	128	89	64
1038.660951121	144	89	80
1038.663086587	144	77	116
1038.66581357	144	21	127
1038.67269704	144	76	106
1038.675131194	144	93	50
1038.684395274	128	89	64
1038.723348132	128	93	64
1038.737977179	128	76	64
1038.740284135	128	21	64
1038.741659593	144	89	90
1038.759376578	144	93	106
1038.790829498	128	93	64
1038.808883304	144	93	51
1038.825370485	128	89	64
1038.825447517	144	89	81
1038.843882763	144	21	127
1038.851021545	144	34	24
1038.872507675	128	93	64
1038.883527503	128	89	64
1038.892743087	144	93	103
1038.927860213	128	21	64
1038.939055912	144	89	102
1038.940004766	128	93	64
1038.958836351	144	93	53
1038.972312128	144	76	104
1038.984441752	128	77	64
1038.993401789	128	78	64
1039.008564517	128	89	64
1039.008625027	144	89	85
1039.014110067	144	21	127
1039.023519542	128	93	64
1039.036769607	128	76	64
1039.041307404	144	93	105
1039.05566761	128	89	64
1039.056488251	144	42	119
1039.074981099	128	21	64
1039.098521503	144	89	103
1039.106726685	128	93	64
1039.124571746	144	93	47
1039.175916803	144	21	127
1039.18287934	128	89	64
1039.182915468	144	89	90
1039.189899213	128	93	64
1039.208099785	144	93	100
1039.228740162	144	84	92
1039.239674561	128	21	64
1039.273535277	128	93	64
1039.291106372	144	93	43
1039.315837519	128	84	64
1039.322785843	144	68	88
1039.324049317	128	34	64
1039.343032042	128	89	64
1039.345430258	144	21	127
1039.356659391	128	93	64
1039.369954836	144	89	105
1039.375086435	144	93	97
1039.390481159	128	68	64
1039.412048613	144	77	118
1039.414853635	128	21	64
1039.420734939	144	78	119
1039.441334457	128	93	64
1039.458505244	144	93	38
1039.459045689	128	89	64
1039.459088424	144	89	94
1039.486777739	144	76	107
1039.512650684	144	21	127
1039.522341864	128	93	64
1039.533474161	128	89	64
1039.542125132	144	93	93
1039.554937718	128	76	64
1039.592007505	128	21	64
1039.607205163	128	93	64
1039.62501302	144	93	38
1039.632148792	144	89	105
1039.675197086	128	93	64
1039.698470238	144	68	90
1039.701471229	144	21	127
1039.708725401	144	93	94
1039.733708332	128	89	64
1039.73381688	144	89	95
1039.758447709	128	93	64
1039.758723854	128	21	64
1039.791473597	144	93	36
1039.806979834	128	89	64
1039.80778407	128	35	64
1039.83790663	128	42	64
1039.843478039	128	93	64
1039.852889995	128	77	64
1039.853785568	144	89	110
1039.863891484	144	21	127
1039.875288808	144	93	92
1039.886532991	144	76	109
1039.902404947	128	78	64
1039.924411987	128	89	64
1039.924490343	144	89	101
1039.933762203	128	68	64
1039.936786536	128	76	64
1039.940288083	128	93	64
1039.946165136	128	21	64
1039.958024039	144	93	37
1039.962293483	144	35	107
1040.02427138	128	93	64
1040.042246733	144	93	94
1040.046751698	144	21	127
1040.07633553	128	89	64
1040.0781965	144	68	87
1040.079877331	144	84	96
1040.090608073	128	93	64
1040.113175545	144	89	107
1040.126559827	144	93	37
1040.136992551	128	21	64
1040.160654139	128	84	64
1040.171792337	144	77	120
1040.190235583	128	93	64
1040.195235021	128	89	64
1040.19529437	144	89	106
1040.226033365	144	93	93
1040.234908954	144	21	127
1040.249342609	128	68	64
1040.270955013	144	76	102
1040.288322982	128	89	64
1040.292155324	128	93	64
1040.306557257	144	93	37
1040.307356792	128	21	64
1040.336423937	144	89	114
1040.336742241	128	76	64
1040.358669006	128	93	64
1040.393868645	144	93	90
1040.415494843	144	68	90
1040.422091028	144	78	122
1040.42455964	128	89	64
1040.424595862	144	89	107
1040.428710168	144	21	127
1040.441723489	144	86	108
1040.456832313	128	93	64
1040.472567042	144	93	33
1040.489399458	128	21	64
1040.524157711	128	93	64
1040.551568997	128	89	64
1040.559570205	144	93	87
1040.577962831	144	89	118
1040.582357037	128	68	64
1040.595027177	144	21	127
1040.605208819	128	93	64
1040.626546698	144	93	30
1040.662729819	128	21	64
1040.673388779	128	89	64
1040.676134734	144	89	110
1040.685502081	128	86	64
1040.690551242	128	93	64
1040.69226665	128	77	64
1040.70703399	144	93	86
1040.733729423	128	89	64
1040.754546427	144	76	105
1040.761171293	128	34	64
1040.7738522	128	93	64
1040.777173275	144	68	87
1040.778979561	144	21	127
1040.781239415	144	89	120
1040.791361637	144	93	30
1040.821569471	128	76	64
1040.825987314	128	78	64
1040.838872214	128	93	64
1040.840361938	128	68	64
1040.854863263	128	89	64
1040.854924111	144	89	112
1040.859470403	128	21	64
1040.875887806	144	93	88
1040.929031686	144	77	121
1040.963894796	128	89	64
1040.965683479	144	21	127
1040.966870868	144	89	127
1040.973126878	128	93	64
1040.974092702	144	93	27
1041.007981631	128	93	64
1041.05826927	128	21	64
1041.075968336	144	93	84
1041.079971885	128	89	64
1041.083958901	144	89	115
1041.089920877	128	93	64
1041.126134988	144	93	29
1041.145302334	144	21	127
1041.163627352	128	89	64
1041.172284654	144	84	104
1041.191344824	128	93	64
1041.19396435	144	93	87
1041.208657386	128	93	64
1041.208744091	144	93	116
1041.217182859	144	89	116
1041.224598782	128	21	64
1041.261677328	128	84	64
1041.272985102	128	93	64
1041.290293045	144	78	114
1041.292855353	144	93	28
1041.31052616	128	89	64
1041.310577562	144	89	100
1041.350516858	144	21	127
1041.357278954	128	93	64
1041.375039051	144	93	91
1041.404121938	128	89	64
1041.422412782	128	21	64
1041.423928237	144	86	94
1041.440239069	128	93	64
1041.447440599	128	68	64
1041.449985929	144	89	116
1041.458841899	144	93	28
1041.460480434	128	77	64
1041.529869394	144	21	126
1041.536256104	128	89	64
1041.536301553	144	89	107
1041.539937447	128	93	64
1041.543451007	128	86	64
1041.557995623	144	93	90
1041.600704922	128	89	64
1041.610678858	128	21	64
1041.623779101	128	93	64
1041.641851294	144	93	32
1041.658041951	144	89	123
1041.713292452	144	77	120
1041.713529043	144	21	127
1041.724142285	128	93	64
1041.738883944	144	93	85
1041.751665439	128	89	64
1041.751703819	144	89	111
1041.755509116	144	76	117
1041.768033762	128	78	64
1041.795699218	128	21	64
1041.823450794	128	93	64
1041.838870663	128	76	64
1041.842467177	144	93	31
1041.897955664	144	21	126
1041.899367085	128	89	64
1041.899724426	144	89	110
1041.906512899	128	93	64
1041.943100438	144	93	84
1041.974523517	128	21	64
1042.009260258	128	93	64
1042.01267717	144	93	27
1042.043544083	128	89	64
1042.04381097	144	89	84
1042.062889959	144	21	126
1042.086987575	128	89	64
1042.089879191	128	93	64
1042.107946749	144	93	81
1042.112410296	144	89	94
1042.156765781	128	21	64
1042.17542989	128	77	64
1042.178747988	144	84	95
1042.185896846	128	89	64
1042.185970536	144	89	80
1042.207050365	128	93	64
1042.210407998	144	93	26
1042.238513506	128	89	64
1042.248763201	144	21	126
1042.261041329	144	86	70
1042.273264508	128	93	64
1042.282660771	128	84	64
1042.325027879	144	93	86
1042.338895406	128	21	64
1042.342029109	144	89	76
1042.366500623	128	89	64
1042.374549563	128	35	64
1042.391088317	128	93	64
1042.393817246	144	93	31
1042.427730929	144	89	94
1042.434927241	144	21	125
1042.457103321	128	93	64
1042.492171271	144	93	89
1042.508156231	128	89	64
1042.508206823	144	89	76
1042.527546706	128	21	64
1042.548340826	144	77	117
1042.554549185	128	89	64
1042.555881768	144	78	117
1042.574065297	128	93	64
1042.576436873	144	93	32
1042.610666669	144	89	94
1042.614239816	144	21	127
1042.621246524	144	76	109
1042.663761272	128	93	64
1042.692838092	144	93	89
1042.700482181	128	78	64
1042.714279254	128	21	64
1042.722449084	128	76	64
1042.757085611	128	93	64
1042.792160472	144	93	29
1042.802337966	144	21	127
1042.809942943	128	89	64
1042.810082092	144	89	83
1042.828530597	144	42	27
1042.838013002	128	89	64
1042.873507314	128	93	64
1042.895822672	144	89	99
1042.896592525	128	21	64
1042.936078184	128	86	64
1042.960645412	128	77	64
1042.979966268	144	21	127
1042.981053382	128	89	64
1042.981088439	144	89	84
1043.018388699	128	89	64
1043.028139326	144	84	112
1043.058232712	128	21	64
1043.097543292	144	89	108
1043.12824259	128	84	64
1043.148429831	144	93	54
1043.160046726	128	93	64
1043.166817593	144	21	127
1043.224218828	128	21	64
1043.262850833	128	89	64
1043.262983821	144	89	92
1043.307670997	128	42	64
1043.320500574	128	89	64
1043.327803933	144	21	126
1043.345530532	144	77	116
1043.358445503	144	89	97
1043.400679641	128	21	64
1043.432375632	144	93	57
1043.442647419	128	93	64
1043.49162736	144	21	127
1043.50199837	144	76	123
1043.556015709	128	89	64
1043.556219297	144	89	89
1043.572399689	128	76	64
1043.604149003	128	21	64
1043.609300528	144	72	21
1043.693097527	128	72	64
1043.698661096	144	93	56
1043.716930912	144	21	127
1043.722316049	128	93	64
1043.759916956	144	42	117
1043.772383341	144	78	119
1043.773438222	128	21	64
1043.77744544	128	77	64
1043.88344062	144	72	37
1043.893420469	144	21	127
1043.896995416	144	84	125
1043.932475715	144	93	52
1043.963427577	128	21	64
1043.972670058	144	86	79
1043.97439229	128	93	64
1043.978602182	128	84	64
1044.022584417	128	78	64
1044.056721475	128	86	64
1044.06732822	144	86	102
1044.079287323	144	21	127
1044.095787544	128	72	64
1044.096702892	144	72	21
1044.153934027	144	77	117
1044.158482507	128	21	64
1044.215839831	144	93	52
1044.224288714	128	72	64
1044.259712926	128	93	64
1044.304053661	144	76	87
1044.32594134	144	72	51
1044.382190457	128	72	64
1044.394258286	128	76	64
1044.455830065	144	72	57
1044.460767627	128	77	64
1044.467281841	144	93	48
1044.481799634	144	35	107
1044.543256091	128	93	64
1044.547107395	128	72	64
1044.584461482	128	86	64
1044.648079714	144	72	66
1044.698187645	144	93	29
1044.714739866	128	72	64
1044.715150334	144	84	74
1044.73781523	128	89	64
1044.738024267	144	89	95
1044.738142094	128	89	64
1044.738255976	144	89	84
1044.738367316	128	89	64
1044.738466683	144	89	91
1044.738545535	128	89	64
1044.738847539	144	89	73
1044.738931077	128	89	64
1044.739063583	144	89	90
1044.739167666	128	89	64
1044.739286367	144	89	68
1044.739349869	128	89	64
1044.739447195	144	89	79
1044.739518004	128	89	64
1044.739630864	144	89	54
1044.739688795	128	89	64
1044.739779284	144	89	71
1044.739982322	128	89	64
1044.740134837	144	89	51
1044.740216533	128	89	64
1044.740322167	144	89	72
1044.771967778	144	72	66
1044.781891996	128	93	64
1044.831923326	128	72	64
1044.83281367	128	84	64
1044.874969911	144	93	26
1044.939156162	144	72	79
1044.94625292	144	77	116
1044.956709501	128	93	64
1044.999901551	128	42	64
1045.015921089	128	72	64
1045.057955717	144	93	20
1045.060944068	144	72	81
1045.154094873	128	72	64
1045.157039269	128	93	64
1045.20596111	144	50	96
1045.215898976	144	72	95
1045.221062265	144	76	94
1045.281641472	128	72	64
1045.298513822	128	77	64
1045.301270853	144	93	14
1045.311784676	144	72	90
1045.339201747	128	76	64
1045.351888514	128	72	64
1045.358293532	128	50	64
1045.374162418	128	93	64
1045.400278023	144	72	99
1045.464644341	128	72	64
1045.502638727	144	72	99
1045.535317276	128	72	64
1045.549702953	144	93	22
1045.559424977	128	93	64
1045.563677684	144	72	32
1045.56419834	128	72	64
1045.56423781	144	72	107
1045.619838689	128	72	64
1045.623934255	128	89	64
1045.623993912	144	89	51
1045.624072236	128	89	64
1045.624181918	144	89	64
1045.624357055	128	89	64
1045.624436373	144	89	44
1045.624496601	128	89	64
1045.624573679	144	89	53
1045.624635663	128	89	64
1045.62467248	144	89	42
1045.624750923	128	89	64
1045.624840712	144	89	54
1045.630730587	144	72	103
1045.642908758	144	93	22
1045.650771471	144	84	114
1045.681325569	128	72	64
1045.707201257	128	93	64
1045.727627056	144	72	113
1045.736567775	144	50	115
1045.78127201	128	89	64
1045.781339616	144	89	36
1045.795869655	128	72	64
1045.795921956	144	72	112
1045.810596185	144	77	116
1045.840834447	128	50	64
1045.864049278	128	72	64
1045.865920404	128	84	64
1045.918313997	144	72	116
1045.934541275	144	93	21
1045.956639119	128	93	64
1046.086625265	128	89	64
1046.086839866	144	89	59
1046.093407234	128	77	64
1046.103496772	128	72	64
1046.103804871	144	72	118
1046.103971658	128	72	64
1046.155424487	144	76	100
1046.171067966	144	72	122
1046.171249984	128	72	64
1046.171445297	144	72	117
1046.171767101	128	72	64
1046.239693103	128	76	64
1046.3133462	144	72	32
1046.313637739	128	72	64
1046.314240558	144	72	118
1046.31448372	128	72	64
1046.357882548	144	72	76
1046.430003384	128	72	64
1046.434470106	128	89	64
1046.435031888	144	89	44
1046.493511482	144	72	32
1046.518793371	128	89	64
1046.551864099	128	72	64
1046.579709212	144	77	114
1046.591239344	128	35	64
1046.661210877	144	72	33
1046.665916998	144	84	102
1046.677976204	128	72	64
1046.78905282	144	86	75
1046.80210599	128	84	64
1046.808982925	128	86	64
1046.899014393	144	86	109
1046.927490975	128	77	64
1046.978468819	128	86	64
1046.979323255	144	35	104
1047.104016821	144	76	99
1047.134947131	128	78	64
1047.188727245	128	76	64
1047.302019023	144	72	31
1047.336154807	128	72	64
1047.462741161	144	77	115
1047.54947824	144	84	98
1047.602492953	128	50	64
1047.642979124	144	93	1
1047.677816384	128	84	64
1047.710850925	144	72	35
1047.766788535	128	72	64
1047.76716917	128	93	64
1047.814894076	128	77	64
1047.85994403	144	93	3
1047.923409619	128	93	64
1047.972478591	144	76	98
1048.003834696	144	72	36
1048.020501219	144	86	88
1048.022915555	128	76	64
1048.026122134	144	93	4
1048.04445252	128	86	64
1048.091557413	128	93	64
1048.115079007	144	86	90
1048.125490605	128	72	64
1048.19463206	128	86	64
1048.194827674	144	86	103
1048.235412796	144	93	10
1048.241345657	128	93	64
1048.247982186	128	86	64
1048.25745441	128	35	64
1048.263387899	144	72	46
1048.340865453	144	93	13
1048.344289337	144	77	115
1048.353770572	128	72	64
1048.39028229	128	93	64
1048.433375082	144	84	110
1048.527872489	144	72	51
1048.568293445	128	84	64
1048.582023384	144	93	23
1048.604418893	128	72	64
1048.606369055	128	93	64
1048.760958499	128	77	64
1048.762965526	144	93	32
1048.791629978	128	93	64
1048.810278948	144	72	54
1048.84651148	144	76	76
1048.898906584	128	72	64
1048.935458987	144	93	38
1048.958450448	128	93	64
1048.990735877	128	76	64
1048.993686264	128	89	64
1049.165173795	144	93	44
1049.169822503	144	72	65
1049.204751114	144	77	115
1049.208439171	128	93	64
1049.22493422	144	84	97
1049.250363904	128	72	64
1049.267042399	128	84	64
1049.337489132	144	76	78
1049.352490745	144	93	49
1049.36855279	144	99	47
1049.389948488	128	76	64
1049.390105938	128	93	64
1049.424100898	128	99	64
1049.494735466	144	86	72
1049.508338961	144	99	58
1049.522086744	144	72	72
1049.548375852	144	93	53
1049.571905814	128	99	64
1049.57622356	128	93	64
1049.598209528	128	72	64
1049.659075012	128	77	64
1049.679132775	144	99	72
1049.72018793	144	93	60
1049.724517229	128	99	64
1049.758479377	128	93	64
1049.845798235	144	99	111
1049.869681627	144	76	88
1049.888840191	144	72	82
1049.902127424	144	93	62
1049.904758944	128	99	64
1049.922930329	128	76	64
1049.924174472	128	93	64
1049.952641776	128	72	64
1049.976876845	144	99	113
1050.025157777	144	93	69
1050.038922439	128	99	64
1050.045343594	144	77	115
1050.090905078	128	93	64
1050.175162708	144	93	75
1050.193717408	144	99	118
1050.218520918	144	84	99
1050.238019706	128	99	64
1050.242038982	128	93	64
1050.250840712	144	72	87
1050.278569764	128	84	64
1050.30129296	128	72	64
1050.340776889	144	93	81
1050.345106831	144	99	121
1050.349176635	144	76	102
1050.353517747	128	99	64
1050.423218015	128	76	64
1050.432355201	128	93	64
1050.499178313	128	77	64
1050.503528755	144	42	35
1050.504284534	128	86	64
1050.579263944	144	72	97
1050.585651295	144	93	91
1050.59882741	128	42	64
1050.625421309	128	93	64
1050.651177785	128	72	64
1050.727266693	144	93	97
1050.734554467	144	99	53
1050.788573201	128	99	64
1050.855674881	144	76	93
1050.862643423	144	77	116
1050.897062646	128	93	64
1050.900274685	144	21	127
1050.905477024	128	76	64
1050.909232177	128	21	64
1050.923266708	144	93	107
1050.961817339	144	99	47
1050.979018623	144	72	108
1051.028721131	144	21	127
1051.034879926	128	72	64
1051.039935657	128	99	64
1051.07339064	128	21	64
1051.073583374	128	93	64
1051.107481689	144	93	110
1051.128497881	144	86	57
1051.179402874	144	21	127
1051.214405	144	35	99
1051.227717522	128	21	64
1051.250226143	128	93	64
1051.2525216	128	77	64
1051.268373256	144	84	93
1051.268545105	144	99	83
1051.290327206	144	93	112
1051.302143807	144	72	118
1051.326941319	128	93	64
1051.330902966	144	21	127
1051.337054107	128	99	64
1051.355285604	128	84	64
1051.377558337	128	21	64
1051.385296322	128	72	64
1051.422622893	144	76	103
1051.452702492	144	21	127
1051.485454784	144	99	110
1051.489317994	128	76	64
1051.493660377	128	21	64
1051.500186417	144	93	105
1051.524494599	128	93	64
1051.538311223	128	99	64
1051.566146005	144	21	127
1051.611943446	128	21	64
1051.667024277	144	21	127
1051.667345535	144	93	100
1051.704703411	144	72	127
1051.725142056	128	93	64
1051.730533508	144	99	120
1051.747636111	144	77	115
1051.770530151	128	72	64
1051.788262979	128	99	64
1051.789987032	128	21	64
1051.791953087	144	93	94
1051.838390632	128	93	64
1051.87750092	144	21	127
1051.911195149	128	21	64
1051.938851804	144	76	102
1051.968465803	144	84	105
1051.9842512	144	93	91
1051.988800125	128	76	64
1051.997779023	144	21	127
1052.007705782	128	93	64
1052.025764443	128	35	64
1052.041177223	128	21	64
1052.134611277	144	21	127
1052.135866591	128	77	64
1052.152789174	128	84	64
1052.165316322	144	93	84
1052.173814216	128	21	64
1052.19164119	128	93	64
1052.198220159	144	72	127
1052.247388965	128	72	64
1052.268818512	144	99	98
1052.279717032	144	21	127
1052.308875452	128	21	64
1052.335782773	144	93	78
1052.356486235	128	93	64
1052.359014749	128	99	64
1052.415408997	144	21	127
1052.446245377	128	21	64
1052.500285799	144	93	72
1052.524826109	128	93	64
1052.53238591	144	21	127
1052.560714484	128	21	64
1052.6350988250001	144	99	105
1052.642028515	144	93	68
1052.665436536	144	21	127
1052.671279628	128	99	64
1052.690437847	128	93	64
1052.692994158	128	21	64
1052.722289691	144	72	127
1052.76246914	128	72	64
1052.791568147	144	93	65
1052.797892043	144	76	91
1052.799110888	144	21	127
1052.82856334	128	21	64
1052.858031425	128	93	64
1052.877507894	128	76	64
1052.885674954	144	84	91
1052.932724205	144	21	127
1052.957675823	144	93	62
1052.972411244	128	21	64
1052.985663836	144	99	101
1052.987033891	128	84	64
1053.008265735	128	93	64
1053.055022413	128	99	64
1053.072740301	144	21	127
1053.102713109	128	21	64
1053.125473078	144	93	59
1053.19276767	128	93	64
1053.201663261	144	21	127
1053.244653648	128	21	64
1053.281054449	144	76	89
1053.336080062	144	21	127
1053.33631643	144	93	51
1053.356492805	128	76	64
1053.368358346	144	99	103
1053.37545385	128	93	64
1053.376806068	128	21	64
1053.387952307	128	99	64
1053.46800025	144	21	127
1053.474652229	144	93	44
1053.511740913	128	21	64
1053.541947515	128	93	64
1053.598198437	144	21	127
1053.624541956	144	93	42
1053.637368267	128	21	64
1053.675218043	128	93	64
1053.686268003	128	86	64
1053.696508459	144	35	97
1053.734228507	144	21	127
1053.747470464	144	76	89
1053.774729091	144	93	41
1053.777214007	128	21	64
1053.798316694	144	86	73
1053.809750809	128	93	64
1053.822627538	128	76	64
1053.837002517	144	84	93
1053.881192158	128	86	64
1053.883148723	144	21	127
1053.916735397	128	21	64
1053.953227125	144	93	38
1054.006545623	128	93	64
1054.016080876	144	21	127
1054.0459975	128	21	64
1054.091507645	128	35	64
1054.121705083	128	84	64
1054.123891811	144	93	37
1054.149414261	144	21	127
1054.178390754	128	21	64
1054.224140646	128	93	64
1054.274509672	144	76	92
1054.282792488	144	21	127
1054.311232386	128	76	64
1054.314697325	128	21	64
1054.341720385	144	93	34
1054.391349454	128	93	64
1054.401588037	144	99	79
1054.416323718	144	21	127
1054.449720785	128	21	64
1054.472307774	128	99	64
1054.535505259	144	93	38
1054.549300165	144	21	127
1054.560957473	128	93	64
1054.579241019	128	21	64
1054.587974791	144	72	26
1054.646108211	128	72	64
1054.677985354	144	21	127
1054.70815191	128	21	64
1054.718342635	144	93	39
1054.739285667	144	76	95
1054.758598598	128	93	64
1054.769851893	144	84	106
1054.773374866	144	86	93
1054.774193346	128	76	64
1054.81189049	144	21	127
1054.812253037	144	72	25
1054.819083905	144	99	95
1054.841887563	128	86	64
1054.857158444	128	21	64
1054.85942116	144	93	40
1054.901971257	128	72	64
1054.916370287	128	84	64
1054.924121777	128	93	64
1054.959804743	144	21	127
1054.983322384	128	99	64
1054.983399398	144	99	51
1054.995784082	128	21	64
1054.997424002	144	72	24
1055.070208747	128	72	64
1055.081401103	144	93	45
1055.081803801	144	21	127
1055.113353291	128	21	64
1055.122326561	128	93	64
1055.142243782	128	99	64
1055.173039341	144	72	27
1055.235207287	144	21	127
1055.251467605	128	72	64
1055.252503579	144	99	97
1055.264476271	128	21	64
1055.265462805	144	76	107
1055.30629549	128	76	64
1055.314927937	144	93	41
1055.327147654	128	93	64
1055.357030462	144	72	28
1055.361341726	144	21	127
1055.375126977	128	99	64
1055.39175675	128	21	64
1055.421579662	128	72	64
1055.476678385	144	21	127
1055.486400899	144	72	28
1055.513009303	144	99	53
1055.514809576	128	21	64
1055.531991184	144	93	34
1055.558340943	128	93	64
1055.562137614	128	72	64
1055.610125665	128	99	64
1055.631886153	144	21	127
1055.667818174	128	21	64
1055.668644207	144	72	28
1055.721985046	144	76	107
1055.743010081	144	21	127
1055.749521246	144	93	28
1055.75605605	128	72	64
1055.771412548	144	84	120
1055.774570472	128	93	64
1055.776667267	128	76	64
1055.793074577	128	21	64
1055.871636776	128	84	64
1055.885083036	144	99	51
1055.89937318	144	21	127
1055.906312055	144	72	24
1055.923331965	128	72	64
1055.93000653	128	21	64
1055.945786467	128	99	64
1055.945882903	144	99	103
1055.965510288	144	93	26
1055.989921334	128	93	64
1055.995643018	144	35	83
1056.028904202	144	21	127
1056.047942781	128	99	64
1056.047996588	144	99	55
1056.063584979	128	21	64
1056.085949167	144	72	33
1056.114036892	128	72	64
1056.158357186	128	74	64
1056.161231718	128	99	64
1056.161453833	144	21	127
1056.17577092	128	35	64
1056.190314589	128	21	64
1056.191400846	144	93	27
1056.232408493	144	76	108
1056.24262942	128	93	64
1056.260285082	144	72	38
1056.28796222	128	76	64
1056.301520929	144	99	106
1056.30778719	128	99	64
1056.311996079	144	21	127
1056.32299517	128	72	64
1056.342096423	128	21	64
1056.429177834	144	99	110
1056.431965179	144	21	127
1056.434982798	144	86	65
1056.459844017	144	72	38
1056.461736402	128	86	64
1056.474649216	128	21	64
1056.48662721	128	99	64
1056.492619818	144	99	54
1056.534219237	128	72	64
1056.546267945	144	35	64
1056.583038057	144	21	127
1056.610073145	128	21	64
1056.622082499	144	72	40
1056.655315305	128	99	64
1056.690071577	144	76	109
1056.691821292	144	99	116
1056.692039409	128	35	64
1056.702033502	128	72	64
1056.71274507	144	21	127
1056.726604853	144	84	121
1056.739339976	128	76	64
1056.745203416	128	21	64
1056.813289539	144	72	41
1056.844239195	144	21	127
1056.866097879	128	72	64
1056.877018885	128	21	64
1056.877301609	128	99	64
1056.877351083	144	99	52
1056.965025376	144	72	45
1056.973317957	128	84	64
1056.996662716	144	21	127
1057.011636679	128	72	64
1057.022227642	128	21	64
1057.037478718	128	99	64
1057.045058021	144	99	116
1057.094819487	144	35	66
1057.129118291	144	21	127
1057.153578524	144	72	48
1057.156961907	128	21	64
1057.190376456	144	76	110
1057.199833425	128	72	64
1057.202142348	128	99	64
1057.203389102	128	35	64
1057.239128702	144	99	48
1057.255996455	128	76	64
1057.263698879	144	21	127
1057.298850921	128	21	64
1057.319769491	128	99	64
1057.37939255	144	72	51
1057.389323072	144	99	109
1057.396552349	144	21	127
1057.431937116	128	21	64
1057.433106057	128	72	64
1057.454007669	128	99	64
1057.474663598	144	99	49
1057.521053621	128	99	64
1057.543045905	144	21	127
1057.557742473	144	99	109
1057.572815525	144	86	104
1057.5777575	128	21	64
1057.600527315	144	76	115
1057.620189661	128	99	64
1057.625698591	144	99	51
1057.627343881	128	86	64
1057.642580273	144	72	50
1057.654686494	144	84	127
1057.67171056	128	99	64
1057.67346659	128	76	64
1057.678376704	144	21	127
1057.6959464	128	22	64
1057.708039979	144	99	102
1057.718126592	128	21	64
1057.735903477	128	99	64
1057.78462725	128	84	64
1057.790337222	144	99	49
1057.811964079	144	21	127
1057.837369428	128	99	64
1057.84322604	128	21	64
1057.843906261	144	99	102
1057.887280675	128	99	64
1057.926722182	144	99	50
1057.945092203	144	21	127
1057.970667813	128	99	64
1057.974008537	128	21	64
1057.974631464	144	99	105
1058.029728142	144	35	91
1058.035582824	128	99	64
1058.057614361	144	99	54
1058.08063294	144	21	127
1058.109743139	128	21	64
1058.120043981	128	99	64
1058.139278086	144	99	110
1058.139497088	144	76	110
1058.187238505	128	99	64
1058.190530896	128	76	64
1058.212917559	144	21	127
1058.24355741	128	21	64
1058.245794874	144	77	112
1058.347338944	144	21	127
1058.374796263	128	21	64
1058.441404447	128	72	64
1058.459427668	128	35	64
1058.483054409	144	21	127
1058.511085578	128	21	64
1058.588910633	144	76	108
1058.601871297	144	99	110
1058.61273219	144	21	127
1058.633098139	144	72	57
1058.64489052	128	76	64
1058.648220339	128	21	64
1058.655782636	128	99	64
1058.662934668	144	84	112
1058.733616776	128	84	64
1058.746165967	144	21	127
1058.763181997	128	77	64
1058.774645634	128	21	64
1058.880121736	144	21	127
1058.911445113	128	21	64
1058.987177708	144	99	121
1059.007458882	128	99	64
1059.01070985	144	21	127
1059.026859748	144	86	96
1059.041358871	128	21	64
1059.072142214	144	76	100
1059.130619713	144	35	79
1059.139755115	128	76	64
1059.159531183	144	21	127
1059.195225238	128	21	64
1059.294420723	144	21	127
1059.322254497	128	21	64
1059.32484073	128	35	64
1059.330954999	128	72	64
1059.352246087	144	99	122
1059.380450283	144	77	114
1059.390112064	128	99	64
1059.427258816	144	21	127
1059.458931612	128	21	64
1059.50673894	144	76	90
1059.525099774	144	72	64
1059.544985995	144	21	127
1059.545995623	144	84	104
1059.554787303	128	76	64
1059.565526311	128	72	64
1059.59061059	128	21	64
1059.615622547	144	99	123
1059.640576141	128	84	64
1059.671748262	128	99	64
1059.695287193	144	21	127
1059.730256358	128	21	64
1059.754806452	144	72	66
1059.828153249	144	21	127
1059.862478325	128	21	64
1059.975785541	128	77	64
1059.978850647	144	21	123
1060.002040167	144	99	124
1060.010202774	128	21	64
1060.02252677	144	76	91
1060.071673223	128	99	64
1060.089819334	128	76	64
1060.127417637	144	21	117
1060.155763138	128	21	64
1060.262031679	144	21	111
1060.285549304	128	72	64
1060.291143014	128	21	64
1060.346706841	144	77	112
1060.402396916	144	99	121
1060.408918041	144	21	107
1060.439069073	128	21	64
1060.45441511	144	76	85
1060.455354679	128	99	64
1060.49044345	128	76	64
1060.50394782	144	84	95
1060.562596494	144	21	99
1060.59648761	128	21	64
1060.611619635	144	35	94
1060.639122887	128	84	64
1060.668749068	144	99	104
1060.694707624	144	21	89
1060.73705472	128	99	64
1060.742761475	128	21	64
1060.756853252	128	35	64
1060.842211879	144	21	82
1060.877671922	128	21	64
1060.975304158	144	76	88
1060.99460144	144	21	73
1061.038434698	128	21	64
1061.03859886	128	76	64
1061.069386271	144	99	62
1061.102979287	128	86	64
1061.143666961	144	21	68
1061.174110366	128	21	64
1061.175692086	128	99	64
1061.260418379	128	77	64
1061.293209409	144	21	62
1061.326910839	128	21	64
1061.38967105	144	76	80
1061.422157701	144	99	58
1061.42240105	128	76	64
1061.426795828	144	21	52
1061.457139917	144	84	94
1061.472349921	128	21	64
1061.488010833	128	99	64
1061.530477904	144	77	112
1061.541661508	128	84	64
1061.576651707	144	21	45
1061.611322149	128	21	64
1061.673103494	144	35	83
1061.721592597	144	21	46
1061.757397526	128	21	64
1061.76410366	144	99	112
1061.820295515	128	99	64
1061.860700037	144	21	50
1061.892763579	128	35	64
1061.905504345	128	21	64
1061.97314801	144	86	92
1061.973328053	144	76	78
1062.013213125	144	21	59
1062.023332871	128	76	64
1062.047457793	128	86	64
1062.055253977	128	21	64
1062.061125824	128	77	64
1062.159801994	144	21	66
1062.169289182	144	99	109
1062.192385025	128	21	64
1062.239594531	128	99	64
1062.288651556	144	86	95
1062.294057283	144	21	69
1062.297045316	128	86	64
1062.339495493	128	21	64
1062.367390357	144	86	107
1062.415647374	128	86	64
1062.42404828	144	22	126
1062.443272859	144	21	73
1062.464038202	128	22	64
1062.466186081	144	77	114
1062.47547585	144	76	94
1062.489303961	128	21	64
1062.490371299	128	76	64
1062.49881124	144	86	119
1062.507875963	144	84	99
1062.529143773	128	86	64
1062.545683077	144	99	112
1062.566246961	144	22	127
1062.594026256	128	84	64
1062.594711249	144	21	79
1062.604940072	128	99	64
1062.623728534	128	21	64
1062.629341301	128	22	64
1062.715702721	144	22	125
1062.741618376	144	21	85
1062.763321836	144	35	80
1062.77454227	128	21	64
1062.778988621	128	22	64
1062.794692094	144	99	108
1062.853353101	128	99	64
1062.865946166	144	22	126
1062.892441723	144	21	90
1062.898728661	144	76	116
1062.928049216	128	21	64
1062.928455574	128	22	64
1062.957353456	144	86	82
1062.990830178	128	76	64
1063.010973267	128	86	64
1063.014981759	144	22	126
1063.025080734	128	35	64
1063.043756335	144	21	95
1063.043906131	128	77	64
1063.079224821	128	22	64
1063.079579824	128	21	64
1063.16619411	144	22	125
1063.178766301	144	21	101
1063.198897203	144	99	105
1063.223123291	128	21	64
1063.228953925	128	22	64
1063.272427468	128	99	64
1063.301484275	144	22	126
1063.305917409	144	86	58
1063.3266931	144	21	108
1063.373444302	128	21	64
1063.377358777	128	22	64
1063.396626701	144	77	112
1063.441197311	144	84	107
1063.457277335	144	76	105
1063.464251596	144	22	125
1063.476645552	144	21	112
1063.493604216	128	76	64
1063.513080722	128	21	64
1063.521147072	128	84	64
1063.528652836	128	22	64
1063.548701825	144	64	67
1063.600311577	128	64	64
1063.60284069	144	99	109
1063.614374028	144	22	124
1063.628096438	144	21	117
1063.656402616	128	99	64
1063.656695452	128	21	64
1063.693332317	128	22	64
1063.730133425	144	35	82
1063.761176322	144	64	65
1063.777148219	144	21	121
1063.780549549	144	22	121
1063.807602054	128	21	64
1063.835674402	144	99	109
1063.846834889	128	64	64
1063.859997018	128	22	64
1063.86106065	128	77	64
1063.905535246	128	99	64
1063.912533558	144	21	122
1063.934295042	144	64	62
1063.947932578	144	22	122
1063.955593259	128	21	64
1063.971408716	144	76	101
1063.993514415	128	76	64
1064.009097099	128	35	64
1064.013904099	128	22	64
1064.020182728	128	64	64
1064.060937124	144	21	125
1064.089541398	128	21	64
1064.10399451	144	64	59
1064.114721408	144	22	124
1064.17915281	128	22	64
1064.190676504	128	64	64
1064.195898995	144	21	127
1064.239654411	128	21	64
1064.252468641	144	99	107
1064.294045285	144	64	62
1064.321977878	128	99	64
1064.331335378	144	21	127
1064.373190051	128	21	64
1064.380243326	128	64	64
1064.395760076	144	77	106
1064.406664718	144	76	103
1064.424667224	144	84	104
1064.441732886	128	76	64
1064.475395842	144	21	127
1064.523187651	128	21	64
1064.54011348	128	77	64
1064.543077811	128	84	64
1064.585962448	144	99	104
1064.627933701	144	21	127
1064.656331507	128	99	64
1064.672500821	128	21	64
1064.758503434	144	21	127
1064.80706851	144	64	45
1064.807771979	144	35	87
1064.808786669	144	42	114
1064.819926238	128	42	64
1064.821453338	128	21	64
1064.848257134	144	76	106
1064.852623738	144	99	99
1064.904769189	128	99	64
1064.908808542	128	76	64
1064.924801841	144	21	127
1064.960274959	128	21	64
1064.960476622	144	42	127
1065.010581218	128	42	64
1065.042222433	128	35	64
1065.074707984	144	21	126
1065.083017924	128	64	64
1065.122681071	128	21	64
1065.139584535	144	42	104
1065.186221373	128	42	64
1065.226708433	144	21	123
1065.277362225	128	21	64
1065.286001722	144	99	103
1065.308801357	144	84	109
1065.319149615	144	76	119
1065.321662388	144	42	93
1065.331575579	144	64	56
1065.338071966	128	76	64
1065.353082757	128	42	64
1065.356861183	128	99	64
1065.374647517	144	21	121
1065.410089718	128	84	64
1065.422449723	128	21	64
1065.489393087	144	42	117
1065.536522763	128	42	64
1065.544291489	144	21	118
1065.574605393	128	21	64
1065.674414102	144	42	107
1065.686235572	144	99	101
1065.692748006	144	21	117
1065.716626194	128	42	64
1065.738580555	128	21	64
1065.739897582	128	99	64
1065.791598459	144	76	108
1065.826626272	144	21	116
1065.838968101	128	76	64
1065.856361738	144	42	109
1065.874137671	128	21	64
1065.889010352	144	22	126
1065.909702648	144	99	100
1065.921612212	128	64	64
1065.922757123	128	42	64
1065.993137806	144	21	113
1066.022701933	128	99	64
1066.022874345	128	21	64
1066.14247239	144	21	113
1066.150030556	128	86	64
1066.18875011	128	21	64
1066.256519142	144	76	78
1066.275743312	144	84	76
1066.292641335	128	76	64
1066.307428372	144	21	109
1066.319347933	144	64	92
1066.336236899	144	99	101
1066.343540691	128	21	64
1066.373698302	128	84	64
1066.381331491	144	42	122
1066.427020475	128	99	64
1066.437171873	128	64	64
1066.444504545	144	21	102
1066.473216225	128	42	64
1066.488280434	128	21	64
1066.516678395	144	42	127
1066.546887764	128	42	64
1066.59124792	144	21	97
1066.601599043	144	64	111
1066.638982227	128	21	64
1066.67218989	144	42	108
1066.717097649	128	42	64
1066.71988103	144	99	102
1066.736172016	128	64	64
1066.753098247	144	107	82
1066.758669814	144	21	92
1066.772267455	144	76	60
1066.789425635	128	99	64
1066.804330785	128	21	64
1066.826103956	128	76	64
1066.880529676	144	42	115
1066.928170927	144	21	87
1066.932326028	128	42	64
1066.957906482	128	21	64
1066.979463234	144	64	114
1066.986227236	144	99	99
1067.057167142	128	99	64
1067.077425713	144	21	84
1067.121545137	128	21	64
1067.162398744	144	42	86
1067.226223752	144	84	51
1067.241166821	144	21	78
1067.258114154	144	76	39
1067.273902233	128	21	64
1067.292017824	128	76	64
1067.325192135	128	42	64
1067.327555528	128	84	64
1067.331211736	144	42	88
1067.334429677	128	64	64
1067.361155834	128	42	64
1067.378397908	144	42	84
1067.39347197	144	21	71
1067.39716613	128	107	64
1067.430305408	144	77	124
1067.438213163	128	21	64
1067.438430578	144	99	102
1067.491256374	128	42	64
1067.50593558	144	64	112
1067.511653352	128	99	64
1067.547437105	144	42	78
1067.559201781	144	21	61
1067.592675756	128	42	64
1067.604316309	128	21	64
1067.610087215	128	64	64
1067.632869069	128	42	64
1067.680745587	144	35	105
1067.685118853	144	64	115
1067.716647772	144	76	21
1067.726232998	144	21	51
1067.752607189	128	77	64
1067.768572347	128	64	64
1067.771683162	128	21	64
1067.810092322	128	76	64
1067.836231867	144	99	101
1067.88955102	144	107	85
1067.910946017	128	99	64
1067.96314001	144	77	117
1067.967302545	144	64	115
1067.96833323	128	22	64
1067.978926085	144	21	43
1068.021793368	128	21	64
1068.036000521	128	77	64
1068.04119934	128	64	64
1068.101343855	144	99	96
1068.109265292	128	35	64
1068.172198551	128	99	64
1068.17959511	144	77	118
1068.221347875	128	77	64
1068.238723114	144	76	6
1068.244392324	144	84	36
1068.292696528	144	64	111
1068.324818672	128	76	64
1068.344961123	128	84	64
1068.362720513	144	77	117
1068.375743068	128	64	64
1068.406943687	128	77	64
1068.504166319	144	77	113
1068.513811127	144	99	98
1068.533001484	128	107	64
1068.570880812	128	77	64
1068.588518748	128	99	64
1068.640054412	144	76	1
1068.643556067	144	84	20
1068.6732195	144	22	127
1068.677289791	144	107	100
1068.68100465	144	35	103
1068.692366768	128	76	64
1068.709042521	128	84	64
1068.712359281	144	77	115
1068.718028283	128	107	64
1068.757778422	128	77	64
1068.787470857	144	72	18
1068.855492702	144	77	112
1068.86742169	128	72	64
1068.86839636	144	107	95
1068.869630814	144	99	99
1068.896366424	128	107	64
1068.921936087	128	77	64
1068.959669897	128	99	64
1069.040956156	144	107	95
1069.054077196	128	107	64
1069.065129581	144	77	115
1069.086029298	128	77	64
1069.135032366	144	107	92
1069.137171369	144	99	94
1069.208555551	144	77	115
1069.222535473	128	99	64
1069.271432379	128	77	64
1069.372825368	144	77	114
1069.425393765	128	77	64
1069.443958641	128	107	64
1069.568551908	144	77	114
1069.569889164	144	99	98
1069.584336123	128	77	64
1069.611562702	144	107	92
1069.623499828	128	99	64
1069.667697855	128	107	64
1069.731807736	144	77	113
1069.754999503	128	77	64
1069.81863897	144	107	93
1069.840395834	128	107	64
1069.856433671	144	77	110
1069.926380655	128	77	64
1069.986285406	144	99	99
1070.000618369	144	107	93
1070.002589155	128	107	64
1070.021972916	144	77	112
1070.042211023	128	99	64
1070.089974571	128	77	64
1070.167473161	144	107	95
1070.170455778	128	107	64
1070.190926942	144	77	113
1070.226188116	144	79	30
1070.236430475	144	99	95
1070.254720146	128	77	64
1070.334969737	144	107	96
1070.338410345	128	107	64
1070.344047909	128	99	64
1070.355617984	144	77	114
1070.359697148	128	35	64
1070.404576883	128	77	64
1070.485597738	144	107	97
1070.50452932	144	35	101
1070.505174686	144	77	116
1070.506248121	128	107	64
1070.536195901	128	35	64
1070.555164221	128	77	64
1070.622964952	144	35	98
1070.636689516	144	99	94
1070.642951603	128	79	64
1070.651637454	144	107	98
1070.686424361	128	35	64
1070.688597791	128	99	64
1070.864130018	144	35	100
1070.902895987	128	35	64
1070.989654017	144	35	99
1071.040594791	144	99	96
1071.052995234	128	35	64
1071.056428423	128	99	64
1071.129518743	144	21	127
1071.156133713	144	35	95
1071.255417056	128	35	64
1071.261028891	128	107	64
1071.270085358	144	99	96
1071.338441445	128	99	64
1071.340836937	144	35	95
1071.402789998	128	35	64
1071.409911431	144	77	116
1071.437596806	128	77	64
1071.5186181	144	107	100
1071.579332503	144	77	116
1071.589721357	128	107	64
1071.602822226	128	77	64
1071.694926947	144	107	100
1071.746768555	144	77	116
1071.756128551	128	107	64
1071.768474384	128	77	64
1071.859828662	144	107	101
1071.885974594	128	107	64
1071.930231381	144	77	119
1071.941785923	128	77	64
1072.035515886	144	107	102
1072.068089347	128	22	64
1072.108436501	144	77	117
1072.120292785	128	77	64
1072.22546275	128	21	64
1072.254869998	144	77	118
1072.29109907	128	77	64
1072.41571487	128	86	64
1072.480299203	144	77	114
1072.4804671	128	77	64
1072.606605551	144	77	118
1072.66191951	128	77	64
1072.77481946	144	77	115
1072.779903884	144	79	9
1072.863105019	128	77	64
1072.977371623	144	77	113
1072.982794251	128	79	64
1073.020559435	128	77	64
1073.229332038	144	84	104
1073.2575371	144	76	103
1073.324520645	128	76	64
1073.331225082	128	84	64
1073.383376757	144	93	47
1073.486682139	144	79	8
1073.51309814	128	79	64
1073.527969503	128	93	64
1073.643352045	144	79	18
1073.662002198	144	84	106
1073.673349689	144	76	104
1073.684355798	144	93	45
1073.701449077	128	79	64
1073.701513765	144	79	41
1073.740131943	128	76	64
1073.744148597	128	107	64
1073.764332617	128	84	64
1073.775113058	128	93	64
1073.967897769	144	107	96
1073.983215356	144	93	48
1074.058132675	128	93	64
1074.108667785	144	84	107
1074.122554986	144	76	107
1074.136198173	128	79	64
1074.174256499	128	76	64
1074.191268271	144	93	46
1074.198020561	128	84	64
1074.273387755	128	93	64
1074.380497209	144	35	99
1074.391435769	144	93	48
1074.419878442	128	35	64
1074.455251704	144	79	81
1074.455384171	128	79	64
1074.455416723	144	79	93
1074.457335322	128	93	64
1074.49149325	144	35	103
1074.503363044	128	107	64
1074.531809637	144	84	108
1074.5559676	144	76	108
1074.56776484	128	35	64
1074.611601775	144	35	105
1074.63282308	144	93	53
1074.641478463	128	76	64
1074.648312243	128	84	64
1074.674193733	128	93	64
1074.674921018	144	88	38
1074.686035755	128	35	64
1074.740866556	144	35	103
1074.750814116	144	72	34
1074.791680968	144	93	53
1074.800629784	128	35	64
1074.840812746	128	79	64
1074.873168538	128	93	64
1074.87425687	144	35	105
1074.916896673	128	35	64
1074.922158398	144	77	113
1074.962398131	144	84	108
1074.973816495	144	76	108
1074.974338954	144	93	59
1074.988148038	128	77	64
1075.009446927	128	88	64
1075.040148637	128	93	64
1075.060316291	144	35	105
1075.060576094	128	35	64
1075.079223949	128	84	64
1075.090260883	144	77	114
1075.102504111	144	88	65
1075.134871383	128	76	64
1075.139148271	144	35	105
1075.156668568	128	77	64
1075.182687122	128	35	64
1075.183740191	144	93	69
1075.224016434	128	93	64
1075.232487279	144	79	80
1075.254906448	128	79	64
1075.272588982	144	35	103
1075.285571122	128	88	64
1075.313810739	144	77	113
1075.316186543	128	35	64
1075.336249123	128	77	64
1075.355852986	144	22	127
1075.367608462	144	93	74
1075.379359073	144	84	106
1075.390481823	144	76	107
1075.40618351	144	35	102
1075.40654592	128	93	64
1075.441405782	144	77	113
1075.444024396	128	107	64
1075.469602281	128	35	64
1075.474195806	128	76	64
1075.480357287	144	88	94
1075.485038581	128	77	64
1075.495178757	128	84	64
1075.508185424	144	93	81
1075.541268308	144	35	100
1075.558882998	128	93	64
1075.592597804	128	88	64
1075.603256807	128	35	64
1075.645877128	144	77	114
1075.67268081	128	77	64
1075.673822612	144	35	97
1075.723453065	128	72	64
1075.736313166	128	35	64
1075.758592518	144	93	70
1075.760373031	144	88	105
1075.807404107	128	93	64
1075.818881547	144	77	115
1075.822142872	144	35	96
1075.829193117	144	76	109
1075.830585264	144	84	109
1075.834683341	128	77	64
1075.874598402	128	35	64
1075.908362076	128	76	64
1075.93168257	128	84	64
1075.975213539	144	77	118
1076.017413379	144	93	43
1076.024097427	128	77	64
1076.036522452	128	88	64
1076.038760011	128	93	64
1076.044383687	144	79	14
1076.10441567	128	79	64
1076.167653668	144	77	120
1076.171795405	128	77	64
1076.19387548	144	79	10
1076.216249414	144	93	39
1076.226336165	128	93	64
1076.246698228	144	84	109
1076.257647817	144	76	109
1076.269938659	128	79	64
1076.323612127	144	79	10
1076.331434322	144	77	119
1076.351877044	128	77	64
1076.377793093	128	76	64
1076.379128605	128	84	64
1076.385561243	128	79	64
1076.442630735	144	88	90
1076.61277009	144	35	91
1076.655181675	128	88	64
1076.668043974	128	35	64
1076.692747443	144	84	109
1076.707415652	144	76	106
1076.769605801	144	35	94
1076.774359608	128	76	64
1076.800267746	128	84	64
1076.831621786	144	88	111
1076.917135574	128	35	64
1076.963472379	144	35	93
1076.96548892	128	35	64
1077.002658496	128	22	64
1077.007184885	144	35	92
1077.049345563	128	35	64
1077.11472114	144	84	106
1077.138291602	144	35	91
1077.140169364	144	76	104
1077.184511392	128	35	64
1077.23416831	128	76	64
1077.243638029	144	21	32
1077.2478188	128	84	64
1077.258421684	144	35	89
1077.300834501	128	35	64
1077.407987307	144	35	82
1077.435893138	128	35	64
1077.522355329	144	35	79
1077.56610869	128	35	64
1077.572360871	144	84	108
1077.590685934	144	76	104
1077.624089592	144	35	81
1077.657914546	128	76	64
1077.683153037	128	84	64
1077.702507206	128	35	64
1077.774399605	144	35	81
1077.85110816	128	35	64
1077.907090908	144	22	127
1077.982101836	144	76	102
1077.988270764	144	84	107
1078.133276848	128	76	64
1078.167178302	128	84	64
1078.239509742	144	35	69
1078.421571653	128	88	64
1078.448728927	144	84	106
1078.457015199	144	76	102
1078.475468241	128	35	64
1078.532223716	144	77	107
1078.558460525	128	76	64
1078.570092554	128	77	64
1078.583530648	128	84	64
1078.628964268	144	35	70
1078.657509017	144	77	111
1078.676625988	128	21	64
1078.704020494	128	77	64
1078.805997535	144	77	113
1078.834127584	144	93	58
1078.835480307	128	22	64
1078.852183946	128	77	64
1078.858005121	128	93	64
1078.858325899	128	35	64
1078.877439051	144	21	35
1078.878492134	144	84	104
1078.892797545	144	88	112
1078.893213632	144	76	102
1078.913475134	144	67	126
1078.955155434	144	77	115
1079.002544158	128	77	64
1079.00782434	128	67	64
1079.03723145	128	76	64
1079.044850975	128	84	64
1079.063582893	144	35	68
1079.143089962	128	88	64
1079.14696112	144	77	115
1079.15358868	128	77	64
1079.275857333	128	35	64
1079.29839771	144	77	115
1079.304196157	128	77	64
1079.351650204	144	84	104
1079.356738704	144	76	103
1079.383999644	144	88	109
1079.385439977	144	67	121
1079.407157158	144	77	114
1079.440189855	128	67	64
1079.441672702	128	76	64
1079.453748372	128	77	64
1079.481115733	128	84	64
1079.528576888	144	35	78
1079.53825209	144	77	113
1079.605462581	128	77	64
1079.634210272	128	88	64
1079.690806267	144	77	112
1079.735539219	128	77	64
1079.776903168	144	88	108
1079.798684408	144	84	105
1079.802548518	144	67	119
1079.807156717	144	76	101
1079.827680161	144	77	108
1079.908835266	128	76	64
1079.90917298	128	77	64
1079.933496767	128	84	64
1079.948238981	128	67	64
1079.977157447	144	77	107
1080.023096437	128	77	64
1080.102302543	128	88	64
1080.107333624	144	77	105
1080.153322691	128	77	64
1080.200672658	144	88	108
1080.217390216	144	76	100
1080.238554169	144	77	105
1080.238855685	144	84	104
1080.255859684	144	67	126
1080.284734817	128	77	64
1080.293414988	128	67	64
1080.363121629	128	76	64
1080.367691096	128	84	64
1080.378539056	144	77	105
1080.395868825	144	67	127
1080.43456999	128	77	64
1080.476441141	128	67	64
1080.522048732	144	77	104
1080.522245063	128	88	64
1080.571439931	128	77	64
1080.65630129	144	84	105
1080.669173185	144	67	123
1080.685925249	144	88	109
1080.691978213	144	76	102
1080.716336469	144	93	95
1080.741578522	128	67	64
1080.775336616	128	76	64
1080.794039534	128	84	64
1080.824413541	144	60	47
1080.859931545	128	93	64
1080.902303771	144	67	124
1080.953836279	128	88	64
1081.044989105	128	67	64
1081.103377224	144	88	110
1081.105617707	128	60	64
1081.106916571	144	84	104
1081.124781993	144	76	101
1081.166559769	144	93	111
1081.166823313	144	79	5
1081.209305263	128	76	64
1081.24118467	128	93	64
1081.251983485	128	84	64
1081.261019146	128	79	64
1081.335405803	144	67	123
1081.382832001	128	88	64
1081.408242732	128	67	64
1081.462003665	144	77	91
1081.519492159	128	77	64
1081.549369424	144	84	104
1081.569010138	144	67	123
1081.574922823	144	76	102
1081.576026333	144	60	65
1081.592654413	144	88	111
1081.614219486	144	93	119
1081.626803002	128	21	64
1081.659094478	128	76	64
1081.692517746	128	93	64
1081.702977775	128	84	64
1081.71014223	128	67	64
1081.781924844	144	77	99
1081.793442266	128	60	64
1081.798856713	144	64	81
1081.818727675	128	88	64
1081.857068964	128	77	64
1081.882850089	128	64	64
1081.999416138	144	84	104
1082.017433697	144	76	102
1082.035589023	144	88	109
1082.099734351	144	93	125
1082.106923273	128	76	64
1082.137815838	144	60	63
1082.151856754	128	84	64
1082.155123001	144	64	87
1082.157573437	128	93	64
1082.170986897	144	67	127
1082.183886406	144	21	36
1082.223641827	128	67	64
1082.237903668	128	60	64
1082.270982119	128	88	64
1082.466796594	144	84	105
1082.473808581	144	76	101
1082.47551545	144	88	78
1082.501034794	144	79	60
1082.532968914	144	93	105
1082.541059338	128	79	64
1082.607925132	128	93	64
1082.611600213	128	21	64
1082.619826189	128	64	64
1082.63352359	128	76	64
1082.63594829	128	84	64
1082.642352795	128	35	64
1082.650892347	144	79	60
1082.668261678	144	67	109
1082.705385559	128	79	64
1082.72031211	128	88	64
1082.757446759	128	67	64
1082.758085659	144	79	62
1082.778304272	144	60	66
1082.849791626	144	64	97
1082.855764928	128	79	64
1082.856792282	128	60	64
1082.914931237	144	88	78
1082.92738849	144	79	58
1082.933158846	144	84	102
1082.935555031	144	76	101
1082.966153186	144	93	91
1082.989200567	128	79	64
1083.015447915	144	21	66
1083.040768823	128	93	64
1083.057642341	144	79	58
1083.085042326	128	84	64
1083.100324232	128	76	64
1083.138654967	128	79	64
1083.15298283	144	67	103
1083.188051489	128	88	64
1083.189704483	128	64	64
1083.191549084	144	79	60
1083.207383046	128	67	64
1083.272189462	128	79	64
1083.312853589	144	67	105
1083.341324463	144	79	60
1083.341615115	144	88	79
1083.355628329	144	64	90
1083.383693435	144	84	103
1083.391350184	144	76	100
1083.391895867	128	67	64
1083.406684301	128	79	64
1083.411774426	128	21	64
1083.439123318	144	93	88
1083.494044574	144	79	60
1083.537053472	144	67	109
1083.539725489	128	79	64
1083.550916471	128	76	64
1083.552990394	128	84	64
1083.574892249	144	60	64
1083.586577259	144	72	66
1083.607080865	128	67	64
1083.615053826	128	93	64
1083.624939868	144	79	62
1083.637803905	128	88	64
1083.642270786	128	60	64
1083.652554287	128	72	64
1083.671680231	128	64	64
1083.689103356	128	79	64
1083.757897181	144	79	61
1083.812191676	144	88	78
1083.823060586	128	79	64
1083.830601538	144	64	93
1083.8414928	144	93	82
1083.849612021	144	76	102
1083.867703698	144	84	105
1083.924428375	144	21	61
1083.964255028	128	64	64
1084.013868038	128	93	64
1084.019408584	128	84	64
1084.021289484	128	21	64
1084.033659729	128	76	64
1084.103540258	144	67	105
1084.121609775	128	88	64
1084.142211916	144	21	60
1084.174087229	128	67	64
1084.222741473	128	21	64
1084.263741858	144	72	80
1084.301601915	144	88	74
1084.313680525	144	21	57
1084.31773147	144	84	102
1084.324652196	144	76	102
1084.336129865	128	72	64
1084.352581281	144	67	107
1084.367944334	144	93	80
1084.372442347	128	21	64
1084.415280315	128	67	64
1084.480646427	144	21	56
1084.486298394	128	84	64
1084.499662659	128	76	64
1084.512672558	128	35	64
1084.519259288	144	79	58
1084.537876045	128	21	64
1084.544295884	128	93	64
1084.545693601	144	67	110
1084.580268425	128	88	64
1084.592795923	128	79	64
1084.625796016	128	67	64
1084.628192925	144	21	55
1084.706666743	128	21	64
1084.74660243	144	88	74
1084.775282548	144	84	104
1084.785136412	144	76	100
1084.800189214	144	67	109
1084.813136294	144	21	56
1084.890819379	128	67	64
1084.89630387	144	93	83
1084.897507657	144	99	121
1084.921652867	128	21	64
1084.940953932	128	93	64
1084.97061411	128	84	64
1084.982263608	128	76	64
1085.033816307	128	99	64
1085.034300388	128	88	64
1085.101992851	144	79	62
1085.141930132	128	79	64
1085.193180649	144	88	73
1085.254379581	144	84	107
1085.260968788	144	99	119
1085.274868422	144	76	103
1085.291420412	144	93	96
1085.294584323	144	67	107
1085.337079593	144	72	76
1085.34383835	128	99	64
1085.3572883	128	67	64
1085.372617424	128	72	64
1085.424426798	128	93	64
1085.425022329	128	88	64
1085.43623526	128	84	64
1085.449461348	128	76	64
1085.535903301	144	67	107
1085.613837001	144	21	54
1085.629833864	144	64	98
1085.678835376	128	67	64
1085.706343675	144	88	73
1085.71870257	144	84	104
1085.725087944	144	76	100
1085.728998118	144	99	101
1085.799536359	144	93	86
1085.813167099	128	99	64
1085.861481781	128	64	64
1085.876292742	128	76	64
1085.904114505	128	84	64
1085.90726387	128	93	64
1085.943061138	128	88	64
1085.995522598	144	67	100
1086.072114819	144	99	48
1086.121000679	144	64	96
1086.139225461	128	67	64
1086.155517894	144	88	74
1086.163107399	128	99	64
1086.163359236	144	77	113
1086.184558901	144	84	105
1086.193123311	144	76	100
1086.266958422	144	93	86
1086.292776891	128	64	64
1086.370552475	128	84	64
1086.379655098	144	72	99
1086.383930495	128	76	64
1086.386453499	128	88	64
1086.411166973	128	93	64
1086.435887669	128	72	64
1086.536792011	144	88	75
1086.564249533	144	64	93
1086.611363386	144	99	68
1086.635850615	144	84	106
1086.640585201	144	76	99
1086.682825299	144	93	74
1086.710178454	128	77	64
1086.730396129	128	99	64
1086.750698904	128	21	64
1086.774997536	128	93	64
1086.780940359	128	88	64
1086.793737054	128	64	64
1086.808400897	128	76	64
1086.838234158	128	84	64
1086.986882027	144	79	25
1087.024241808	144	99	82
1087.024500402	144	88	77
1087.027560366	144	64	92
1087.058307278	128	79	64
1087.069733053	144	76	99
1087.086205678	144	84	105
1087.133087246	144	93	76
1087.147342981	144	79	25
1087.152480965	128	99	64
1087.225572237	128	79	64
1087.240686459	128	93	64
1087.245616592	128	88	64
1087.286810781	128	84	64
1087.305954421	128	76	64
1087.469761403	128	64	64
1087.475678629	144	99	90
1087.481036521	144	88	80
1087.536529387	144	93	80
1087.5419638	144	84	104
1087.572603649	128	99	64
1087.574992004	144	76	100
1087.631433575	144	21	127
1087.698098943	128	93	64
1087.717122092	144	79	22
1087.721373653	128	21	64
1087.751774496	128	84	64
1087.753881746	128	88	64
1087.767484781	128	76	64
1087.780444865	128	79	64
1087.931823202	144	99	96
1087.965695322	144	88	78
1087.969298031	144	67	110
1088.000298741	144	76	100
1088.002620611	144	84	106
1088.016328679	144	93	77
1088.023965286	128	67	64
1088.028167738	128	99	64
1088.117987903	144	72	100
1088.124512312	128	93	64
1088.129272454	128	88	64
1088.205441702	128	84	64
1088.216038367	128	72	64
1088.228883193	128	76	64
1088.246743921	144	67	101
1088.275982179	128	67	64
1088.332307386	144	67	102
1088.39110988	128	67	64
1088.42257052	144	99	86
1088.437435362	144	88	75
1088.449513772	144	93	75
1088.464578286	144	67	102
1088.471242619	144	84	108
1088.474383088	144	76	101
1088.511810949	128	67	64
1088.513161078	128	99	64
1088.532559632	144	21	127
1088.565710489	144	67	102
1088.598244285	128	93	64
1088.626778862	128	67	64
1088.636487066	128	21	64
1088.637918681	128	88	64
1088.653379138	128	84	64
1088.667644015	128	76	64
1088.685135481	144	67	105
1088.757095784	128	67	64
1088.902431608	144	99	78
1088.953151745	144	84	108
1088.958447323	144	76	102
1088.966890233	144	93	75
1088.996537185	128	99	64
1089.077339671	144	72	103
1089.103281129	128	72	64
1089.114834189	128	93	64
1089.13471346	128	76	64
1089.139117178	128	84	64
1089.394139527	144	88	74
1089.405299351	144	99	79
1089.416652169	144	84	106
1089.424179796	144	76	100
1089.432123152	144	93	77
1089.449184348	144	21	127
1089.496223354	128	99	64
1089.538814117	128	21	64
1089.58176565	128	93	64
1089.588945192	128	84	64
1089.617955409	128	76	64
1089.770522055	128	88	64
1089.840766606	144	67	119
1089.856199638	128	67	64
1089.88925761	144	99	77
1089.90830874	144	93	78
1089.918511818	144	67	126
1089.960318084	128	99	64
1089.976730275	128	67	64
1089.983375241	144	72	97
1090.049636421	144	67	127
1090.052918805	128	72	64
1090.12570121	128	67	64
1090.160080384	144	88	73
1090.169132442	144	67	124
1090.223572818	128	67	64
1090.249864489	128	93	64
1090.353778249	128	88	64
1090.372743163	144	99	78
1090.408334656	144	21	127
1090.426213932	128	99	64
1090.445072037	144	93	83
1090.498798288	144	88	75
1090.55287921	128	21	64
1090.649101947	128	93	64
1090.669418108	144	67	127
1090.713874824	128	67	64
1090.82119315	128	88	64
1090.850930809	144	93	84
1090.912254367	144	72	95
1090.950014423	144	67	126
1090.966830965	144	88	77
1090.972915264	128	67	64
1091.025722781	128	72	64
1091.026187394	128	93	64
1091.047085582	144	67	127
1091.088935839	128	67	64
1091.163752335	144	67	127
1091.201037174	128	88	64
1091.225327335	128	67	64
1091.322539551	144	99	1
1091.374546524	144	76	111
1091.374838849	128	99	64
1091.379143888	144	93	104
1091.397863549	144	88	77
1091.464074485	144	21	127
1091.570119111	128	21	64
1091.580248821	128	93	64
1091.58418544	128	76	64
1091.620385063	128	88	64
1091.802748139	144	67	123
1091.858848024	144	76	109
1091.87378796	128	67	64
1091.910204745	144	93	100
1091.969378879	144	72	101
1092.015897059	128	72	64
1092.067871452	128	76	64
1092.068149669	144	67	126
1092.069113371	128	93	64
1092.123873153	128	67	64
1092.336061766	144	67	122
1092.340584317	144	76	109
1092.376760978	144	93	97
1092.399096155	144	21	127
1092.407894465	128	67	64
1092.520111245	128	21	64
1092.534273804	128	76	64
1092.54841523	128	93	64
1092.763589245	144	60	62
1092.825702895	144	76	102
1092.843396012	144	72	96
1092.899636846	144	93	92
1092.933860355	128	79	64
1092.948285259	128	72	64
1093.008049367	128	93	64
1093.011133347	128	76	64
1093.091236614	128	84	64
1093.299797955	128	60	64
1093.325333041	144	76	100
1093.348941735	144	93	81
1093.372841175	144	21	127
1093.428253738	144	67	98
1093.457316728	128	93	64
1093.519865238	128	21	64
1093.533880829	128	76	64
1093.597893096	128	67	64
1093.824800413	144	60	78
1093.831921289	144	93	108
1093.840648169	144	76	97
1093.87761979	128	88	64
1093.956762978	128	93	64
1093.957224052	144	72	97
1093.997879973	128	72	64
1094.053950481	128	76	64
1094.283380439	128	60	64
1094.32032232	144	76	95
1094.325527769	144	93	119
1094.357549669	144	21	127
1094.435594213	144	67	91
1094.485442632	128	21	64
1094.494137348	128	93	64
1094.512975245	128	76	64
1094.700400653	128	67	64
1094.841939108	144	76	95
1094.853697219	144	60	77
1094.927882327	144	72	99
1094.938734611	144	93	120
1094.967663128	128	72	64
1095.007079999	128	93	64
1095.01721107	128	76	64
1095.17054192	128	60	64
1095.414033791	144	21	127
1095.4246519	144	76	102
1095.469129291	144	67	95
1095.483455091	144	93	107
1095.5363519	128	21	64
1095.568159659	128	76	64
1095.697678166	128	93	64
1095.71499411	128	67	64
1095.92575444	144	76	101
1095.952074074	144	72	96
1096.008284494	128	72	64
1096.033190574	144	57	80
1096.04951778	144	93	108
1096.084858797	128	76	64
1096.172112045	128	57	64
1096.447751698	128	93	64
1096.481560666	144	21	127
1096.492479029	144	76	109
1096.58530747	128	21	64
1096.651204834	128	76	64
1096.658303385	144	93	103
1096.968046054	144	57	88
1097.042042357	144	76	107
1097.045622226	144	72	99
1097.086993933	128	72	64
1097.11643762	128	57	64
1097.186826892	128	76	64
1097.265532101	128	93	64
1097.442025254	144	93	89
1097.538532676	144	76	107
1097.548394687	144	21	127
1097.627265107	128	76	64
1097.639035866	128	21	64
1098.002022276	128	93	64
1098.020101899	144	76	110
1098.100900268	144	72	101
1098.121852317	144	57	86
1098.126919838	128	76	64
1098.174009215	128	72	64
1098.259728908	128	57	64
1098.397584335	144	93	66
1098.591548905	144	76	111
1098.614809926	144	21	127
1098.659738817	128	76	64
1098.707056579	128	21	64
1099.007752195	128	93	64
1099.109563415	144	76	113
1099.17046264	144	72	98
1099.193156943	128	76	64
1099.214662042	144	57	80
1099.244625954	128	72	64
1099.283068196	144	93	51
1099.346653957	128	57	64
1099.365257883	128	77	64
1099.656154163	144	21	127
1099.659635744	144	76	113
1099.72678479	128	76	64
1099.785238202	128	21	64
1099.874401517	128	22	64
1099.964365435	128	93	64
1100.176006466	144	76	113
1100.243508551	128	76	64
1100.327110691	144	57	77
1100.333214604	144	93	33
1100.500944093	128	57	64
1100.693388055	144	76	114
1100.714162985	144	21	127
1100.760089683	128	76	64
1100.788343864	144	72	98
1100.788610311	128	72	64
1100.807039131	128	21	64
1101.032559087	128	93	64
1101.242369809	144	76	114
1101.282436305	144	72	98
1101.309587581	128	76	64
1101.334251093	128	72	64
1101.482992766	144	93	62
1101.485714511	144	57	76
1101.653348895	128	57	64
1101.751505151	144	76	117
1101.78161941	144	21	127
1101.844509568	128	76	64
1101.90120057	128	21	64
1102.284919845	144	76	116
1102.307916057	144	72	97
1102.368109873	128	72	64
1102.377031815	128	76	64
1102.431830408	144	94	72
1102.513521992	128	94	64
1102.601321347	144	57	74
1102.776980674	128	57	64
1102.846478325	144	21	127
1102.85654938	144	76	116
1102.899143063	144	94	74
1102.944150284	128	76	64
1102.96857558	128	21	64
1103.033190461	128	94	64
1103.231172325	144	94	108
1103.372727354	128	94	64
1103.376613034	144	76	114
1103.392827356	144	65	40
1103.408933521	144	72	97
1103.443907271	128	76	64
1103.45929992	144	94	104
1103.514018119	128	72	64
1103.514533115	128	94	64
1103.539988689	128	65	64
1103.692964368	128	93	64
1103.697046968	144	94	109
1103.740448525	128	94	64
1103.791194813	144	57	56
1103.905272482	144	21	127
1103.923410244	128	57	64
1103.950756922	144	72	95
1103.953319151	144	94	107
1103.95452944	144	65	65
1103.97665527	144	76	115
1104.01509902	128	72	64
1104.017282245	128	94	64
1104.042477836	128	76	64
1104.051053934	128	21	64
1104.100090277	128	65	64
1104.200127388	144	65	73
1104.203616069	144	94	91
1104.245207976	128	94	64
1104.376492476	128	65	64
1104.454607909	144	94	86
1104.475297373	144	76	115
1104.492468124	144	72	96
1104.497522493	128	94	64
1104.544055649	128	76	64
1104.549654633	128	72	64
1104.556719836	144	65	81
1104.686326657	144	94	80
1104.741088311	128	94	64
1104.758095276	128	65	64
1104.859052055	144	65	89
1104.965685718	144	57	57
1104.97855643	144	94	80
1105.013332855	128	94	64
1105.043535167	144	76	121
1105.080129874	144	21	127
1105.125181107	128	57	64
1105.127945541	128	76	64
1105.163511814	128	65	64
1105.218868364	128	21	64
1105.264502512	144	94	72
1105.308334918	128	94	64
1105.326604324	144	93	72
1105.477077548	128	93	64
1105.558986551	144	93	78
1105.591813888	144	76	112
1105.593913814	144	94	71
1105.605028408	144	72	95
1105.609411795	128	93	64
1105.625717098	128	94	64
1105.677176719	128	76	64
1105.683937731	128	72	64
1105.782695819	144	93	83
1105.807294031	128	93	64
1105.999710813	144	93	89
1106.024482983	128	93	64
1106.075286276	144	57	59
1106.156922013	144	21	127
1106.17612365	144	76	116
1106.199547639	144	93	90
1106.237153172	128	57	64
1106.241333199	128	93	64
1106.243858157	128	76	64
1106.318856358	128	21	64
1106.415504644	144	93	90
1106.457973684	128	93	64
1106.579984954	144	94	50
1106.626777541	128	94	64
1106.649644613	144	93	87
1106.672453428	128	93	64
1106.721809224	144	76	111
1106.765762123	144	72	93
1106.775108788	128	76	64
1106.817241483	128	72	64
1106.880407005	144	94	67
1106.900092483	144	93	92
1106.911713844	128	94	64
1106.924383042	128	93	64
1107.134417806	144	93	99
1107.158678285	128	93	64
1107.23020711	144	94	72
1107.243440937	144	76	112
1107.246696083	144	57	64
1107.262258673	128	94	64
1107.297736471	144	21	127
1107.311154651	128	76	64
1107.350581283	144	93	90
1107.361011677	128	65	64
1107.374722265	128	93	64
1107.406454182	128	57	64
1107.4344515	128	21	64
1107.566424596	144	93	87
1107.590465402	128	93	64
1107.73389298	144	93	82
1107.758479817	128	93	64
1107.776683905	144	76	114
1107.832571188	144	72	96
1107.861777353	128	76	64
1107.875234061	144	93	84
1107.889464733	128	72	64
1107.941357257	128	93	64
1108.084113155	144	93	103
1108.108655348	128	93	64
1108.209972964	144	93	110
1108.274940679	128	93	64
1108.293402203	144	57	64
1108.360355746	144	76	119
1108.375550502	144	93	114
1108.388919667	144	21	127
1108.42739989	128	76	64
1108.441207671	128	93	64
1108.4468961	128	57	64
1108.599815346	144	93	115
1108.624754899	128	93	64
1108.642297411	128	21	64
1108.768412327	144	93	110
1108.795207408	128	93	64
1108.910945139	144	76	115
1108.939372517	144	93	114
1108.976041769	128	93	64
1108.976216009	144	72	96
1108.995508272	128	76	64
1109.020376005	128	72	64
1109.166206949	144	93	114
1109.17669777	128	93	64
1109.333961729	144	93	113
1109.357617662	128	93	64
1109.459760541	144	76	111
1109.541029498	144	57	61
1109.549791124	144	93	111
1109.561352944	128	76	64
1109.562432041	144	21	127
1109.572254957	128	93	64
1109.692763634	128	57	64
1109.725224065	144	93	109
1109.825163225	128	21	64
1109.890831511	128	93	64
1109.908221807	144	93	107
1109.995820377	144	96	13
1110.059518571	128	96	64
1110.076473976	128	93	64
1110.077335661	144	76	118
1110.146891308	144	72	93
1110.178318254	128	76	64
1110.191259033	128	72	64
1110.259265881	144	93	103
1110.25941911	128	93	64
1110.325380461	144	93	100
1110.347342472	128	45	64
1110.478783401	144	94	68
1110.527959699	128	93	64
1110.528184321	144	93	101
1110.533418109	128	94	64
1110.637370665	144	57	64
1110.691855099	144	76	118
1110.696267271	144	21	127
1110.72366759	144	64	86
1110.728483483	128	93	64
1110.76141219	128	76	64
1110.798010775	128	57	64
1110.800697419	128	21	64
1110.832859537	144	94	82
1110.87826697	128	94	64
1110.917998647	144	93	98
1110.918158894	128	93	64
1110.937739738	144	21	127
1111.078924528	144	94	87
1111.117096075	128	94	64
1111.207824444	128	21	64
1111.277011103	144	76	116
1111.284744504	144	93	90
1111.284827527	128	93	64
1111.285130658	144	93	86
1111.285221728	128	93	64
1111.290595277	144	72	100
1111.306303431	144	94	87
1111.318300018	128	72	64
1111.346142129	128	94	64
1111.361476195	128	76	64
1111.423443828	144	93	82
1111.441584368	128	93	64
1111.490384183	144	94	87
1111.532032605	128	94	64
1111.59916893	144	93	78
1111.691343566	128	64	64
1111.722401231	144	94	86
1111.762620504	128	94	64
1111.776001417	128	93	64
1111.836204288	144	96	40
1111.839609548	144	57	68
1111.843900273	144	76	109
1111.86050204	144	21	127
1111.905623395	144	64	106
1111.955982115	144	94	85
1111.980866562	128	57	64
1111.987972546	128	76	64
1111.992723643	144	93	74
1111.996016877	128	94	64
1112.127606078	128	93	64
1112.174440368	144	94	85
1112.215997258	128	94	64
1112.306871128	144	93	73
1112.324613747	128	21	64
1112.357097612	128	93	64
1112.413102313	144	94	85
1112.429616059	128	94	64
1112.443466721	144	76	114
1112.472651596	144	72	92
1112.512838558	128	72	64
1112.548169396	144	93	80
1112.602746636	128	76	64
1112.63271104	144	94	83
1112.640489494	128	64	64
1112.663908472	128	94	64
1112.703725323	128	93	64
1112.856284248	144	94	79
1112.858278004	144	93	78
1112.867253284	128	94	64
1112.9406468	144	64	111
1112.958172593	128	93	64
1113.059831973	144	57	68
1113.060143142	144	76	117
1113.079627312	144	21	127
1113.095749802	144	94	77
1113.128197317	128	76	64
1113.151393617	128	21	64
1113.162513514	128	94	64
1113.184115284	144	93	79
1113.211195013	128	57	64
1113.307606039	144	21	127
1113.32243793	144	94	76
1113.328540661	128	93	64
1113.363309624	128	94	64
1113.409126495	144	93	79
1113.507962253	128	93	64
1113.537317159	144	94	76
1113.548394769	128	94	64
1113.611562129	144	76	119
1113.641534298	128	21	64
1113.682973263	144	93	88
1113.712023322	128	76	64
1113.720732951	128	64	64
1113.747853553	144	72	98
1113.750493091	128	72	64
1113.773836771	144	94	73
1113.775699189	128	93	64
1113.796863886	128	94	64
1113.970621354	144	94	75
1113.976196063	144	93	79
1114.014435883	128	94	64
1114.059071138	128	93	64
1114.163734369	144	64	108
1114.19010847	144	57	71
1114.207561071	144	94	86
1114.227718147	144	76	105
1114.22892905	128	94	64
1114.261386606	144	21	127
1114.313390219	128	76	64
1114.332567378	144	93	71
1114.362484939	128	57	64
1114.391534408	128	93	64
1114.433101117	144	94	87
1114.448328878	128	94	64
1114.632935067	144	93	66
1114.640747154	144	94	80
1114.697331427	128	94	64
1114.706935783	128	93	64
1114.743546378	144	76	109
1114.774082639	128	21	64
1114.82173659	144	72	97
1114.844475913	128	76	64
1114.85338082	128	72	64
1114.855098361	144	67	2
1114.860554337	144	94	93
1114.867139613	128	64	64
1114.88382773	128	67	64
1114.902397771	128	94	64
1114.933478053	144	93	77
1115.008366436	128	93	64
1115.059689188	144	94	100
1115.114843349	128	94	64
1115.200135001	144	93	78
1115.240612583	128	93	64
1115.258419741	144	94	98
1115.27212339	144	67	32
1115.314794251	128	94	64
1115.325813835	128	67	64
1115.336279549	144	72	96
1115.34298304	144	76	102
1115.374278228	144	64	100
1115.402831379	144	57	71
1115.421524942	144	93	83
1115.427738045	144	21	127
1115.428897321	128	76	64
1115.429103508	128	72	64
1115.474667661	144	94	98
1115.474828453	128	93	64
1115.51763312	128	21	64
1115.518162241	128	94	64
1115.622256392	144	93	89
1115.666960237	128	93	64
1115.670980971	144	21	127
1115.709245189	144	94	98
1115.712847369	128	57	64
1115.730831817	128	94	64
1115.741985142	144	93	96
1115.811076556	128	93	64
1115.818893671	144	67	58
1115.909514549	144	93	101
1115.909721977	144	94	93
1115.94802359	128	94	64
1115.963118196	128	67	64
1115.971085601	144	76	105
1115.974944659	128	93	64
1115.986224962	144	72	94
1116.024539892	128	21	64
1116.062045942	128	76	64
1116.0638613	128	72	64
1116.111312502	128	64	64
1116.119479674	144	93	110
1116.126738641	144	94	85
1116.146475792	128	94	64
1116.158290747	128	93	64
1116.308853761	144	94	83
1116.335308948	144	93	106
1116.350576129	128	94	64
1116.353034645	144	67	49
1116.359474237	128	93	64
1116.408170138	128	67	64
1116.508350814	144	94	84
1116.526886088	144	57	71
1116.552933334	144	67	52
1116.554568413	144	93	93
1116.560605397	144	76	107
1116.564504851	128	94	64
1116.572397919	128	93	64
1116.574266772	128	67	64
1116.576360992	144	21	127
1116.617598417	144	64	96
1116.704873215	128	76	64
1116.710236072	144	94	89
1116.765613939	128	94	64
1116.783620849	144	93	88
1116.808274902	128	93	64
1116.908666049	144	94	86
1116.958423469	128	57	64
1116.964976385	128	94	64
1116.983668545	144	93	81
1117.037290919	144	67	47
1117.040595454	128	93	64
1117.09201679	144	94	87
1117.162021786	144	76	105
1117.165731875	128	94	64
1117.17389052	128	21	64
1117.178818694	144	72	96
1117.183066966	128	67	64
1117.21675455	144	93	80
1117.21692094	128	64	64
1117.24245271	128	93	64
1117.245567518	128	76	64
1117.255790393	128	72	64
1117.292333469	144	94	87
1117.366452618	128	94	64
1117.401040198	144	93	77
1117.458555843	128	93	64
1117.509251693	144	94	84
1117.55353217	144	67	44
1117.564274769	128	94	64
1117.617920364	144	93	75
1117.659751162	144	57	71
1117.675209118	128	93	64
1117.68944401	144	94	82
1117.699451844	128	67	64
1117.748985465	128	94	64
1117.770853423	144	64	90
1117.776396211	144	76	110
1117.811544335	144	21	127
1117.834541052	144	93	75
1117.844452845	128	76	64
1117.870045214	128	21	64
1117.893081711	144	94	82
1117.908203605	128	93	64
1117.948718284	128	94	64
1117.95812032	128	96	64
1117.958263273	144	96	38
1117.958339589	128	96	64
1117.958541134	144	96	37
1117.958608554	128	96	64
1117.958695193	144	96	49
1117.958762615	128	96	64
1118.070562693	144	21	127
1118.083632719	144	93	73
1118.110383049	144	94	82
1118.124324285	128	93	64
1118.148898056	128	94	64
1118.206908377	128	57	64
1118.268759063	144	96	50
1118.276722214	144	93	69
1118.292159418	144	94	84
1118.341770958	128	93	64
1118.349443452	128	94	64
1118.359310209	144	76	108
1118.371895373	128	96	64
1118.381790582	128	21	64
1118.40681224	144	72	92
1118.445064615	128	76	64
1118.460700113	128	64	64
1118.469176963	128	72	64
1118.487799885	144	94	87
1118.516938135	144	93	71
1118.547400912	128	94	64
1118.558329207	128	93	64
1118.701902332	144	94	88
1118.750874384	144	93	73
1118.764056873	128	94	64
1118.791628465	128	93	64
1118.905689048	144	94	83
1118.950570775	144	93	76
1118.959558654	144	57	73
1118.97744583	144	76	107
1118.986025135	128	94	64
1119.007432022	128	93	64
1119.010698092	144	64	95
1119.011122404	144	21	127
1119.048464192	128	64	64
1119.06254943	128	76	64
1119.147168508	144	94	89
1119.181191	128	94	64
1119.200265444	144	93	78
1119.241059169	128	93	64
1119.263268631	144	96	45
1119.309942083	144	94	89
1119.327589505	144	64	94
1119.373190262	128	94	64
1119.379204908	128	96	64
1119.41425744	128	64	64
1119.434143612	144	93	74
1119.446362176	128	57	64
1119.457372842	128	93	64
1119.51930855	144	94	85
1119.58370479	128	94	64
1119.630569349	144	72	92
1119.65110821	144	93	63
1119.651322512	128	21	64
1119.658965406	128	72	64
1119.691656649	128	93	64
1119.719582562	144	94	87
1119.767623756	128	94	64
1119.900886179	144	93	59
1119.925708445	128	93	64
1120.058277733	144	96	43
1120.117097589	144	93	52
1120.141791033	128	93	64
1120.184867518	128	96	64
1120.210466365	144	57	71
1120.261359172	144	64	91
1120.27816276	144	21	127
1120.286991914	128	94	64
1120.309073036	128	64	64
1120.312029506	144	76	111
1120.318845204	144	93	51
1120.37516345	128	93	64
1120.37922897	128	76	64
1120.429046423	128	57	64
1120.548007045	144	93	58
1120.567386606	144	64	92
1120.570520358	144	57	73
1120.608653843	128	93	64
1120.611589554	128	64	64
1120.738827573	128	57	64
1120.741814512	144	93	71
1120.824299432	128	93	64
1120.87641393	144	96	43
1120.938663532	144	72	93
1120.955863441	128	21	64
1120.983063375	144	93	77
1121.003808868	128	96	64
1121.007264312	128	72	64
1121.009038836	128	93	64
1121.122601764	144	96	44
1121.183300457	144	93	75
1121.21431181	128	96	64
1121.241740189	128	93	64
1121.312795943	144	96	43
1121.342322705	144	93	81
1121.417461391	128	96	64
1121.441251412	128	93	64
1121.542257222	144	93	86
1121.545778642	144	57	75
1121.570846201	144	64	92
1121.578008575	144	76	110
1121.619085254	128	64	64
1121.624651818	128	93	64
1121.660907574	144	21	127
1121.706296107	128	57	64
1121.756179168	128	76	64
1121.801904807	144	93	90
1121.840806876	128	93	64
1121.878309162	144	64	94
1121.884583734	144	57	76
1121.935331661	128	64	64
1121.984501532	144	93	93
1122.025441137	128	93	64
1122.065858973	128	57	64
1122.199598031	144	93	91
1122.200581101	144	96	39
1122.226779597	128	93	64
1122.295539729	144	72	93
1122.306711206	128	21	64
1122.340338209	128	96	64
1122.357224538	128	72	64
1122.41571462	144	93	88
1122.441412617	128	93	64
1122.474630184	144	96	41
1122.548031905	128	96	64
1122.64967794	144	93	90
1122.669810184	144	96	43
1122.691777014	128	93	64
1122.774602299	128	96	64
1122.868961525	144	93	91
1122.878852976	144	96	41
1122.902595977	144	57	74
1122.925031252	128	93	64
1122.944782324	144	76	114
1122.950851845	144	64	90
1122.97961742	128	96	64
1122.991245152	128	64	64
1122.993817401	144	21	127
1123.029771988	128	76	64
1123.075683909	128	57	64
1123.098660816	144	96	44
1123.116995772	144	93	97
1123.140973831	128	93	64
1123.184308544	128	96	64
1123.246156359	144	64	96
1123.24734365	144	57	75
1123.293186249	144	96	45
1123.334451636	128	64	64
1123.367259083	144	93	96
1123.387241688	128	96	64
1123.424633819	128	93	64
1123.442184714	128	57	64
1123.569422109	144	93	100
1123.622926176	144	72	93
1123.640921669	128	93	64
1123.686984345	128	72	64
1123.705661971	128	21	64
1123.850276535	144	93	100
1123.874147429	128	93	64
1124.083952249	144	93	97
1124.142420549	128	93	64
1124.230413341	144	57	72
1124.23090289	144	64	91
1124.292070892	128	64	64
1124.294750545	144	21	127
1124.31218403	144	76	93
1124.362858302	128	76	64
1124.383993835	144	93	104
1124.396008561	128	57	64
1124.441078558	128	93	64
1124.469814054	144	96	122
1124.519818272	144	64	94
1124.558187235	128	96	64
1124.575261722	144	57	73
1124.598044999	128	64	64
1124.668524505	144	93	96
1124.726952295	128	93	64
1124.753820772	128	57	64
1124.769721768	128	21	64
1124.896785495	144	67	61
1124.917483838	144	93	86
1124.928878302	144	72	88
1124.941761527	128	93	64
1124.967375343	144	21	127
1124.969183379	128	72	64
1125.048789733	128	67	64
1125.13885726	144	96	127
1125.184315493	144	93	77
1125.225158057	128	93	64
1125.233720292	128	96	64
1125.400106557	144	93	75
1125.438347379	128	21	64
1125.441638915	128	93	64
1125.601169914	144	21	127
1125.610720525	144	76	107
1125.634132162	144	93	66
1125.660830914	128	76	64
1125.672538015	144	57	76
1125.69187013	128	93	64
1125.775756885	128	91	64
1125.861290694	128	57	64
1125.86661992	144	93	63
1125.886960248	144	67	60
1125.940880754	128	93	64
1125.978026303	144	57	75
1126.032354803	128	67	64
1126.084092647	144	93	71
1126.122143736	128	21	64
1126.174319179	128	93	64
1126.18842477	128	57	64
1126.201854716	144	67	57
1126.301657524	144	21	127
1126.317851778	144	93	74
1126.34503057	128	67	64
1126.360284602	144	64	95
1126.37526254	128	93	64
1126.401374892	144	72	95
1126.413815687	128	64	64
1126.444858275	144	67	60
1126.473599906	128	72	64
1126.518916511	144	93	75
1126.541691295	128	67	64
1126.591388843	128	93	64
1126.686956832	144	67	63
1126.735405673	144	93	64
1126.774738421	128	67	64
1126.791842505	128	93	64
1126.838906861	128	21	64
1126.950073389	144	93	56
1126.980007359	144	96	14
1127.00752868	128	93	64
1127.036665226	144	21	127
1127.045178077	144	76	113
1127.092325067	144	57	76
1127.092600426	128	96	64
1127.100357559	128	76	64
1127.161337038	144	60	67
1127.166337201	144	93	61
1127.169165606	144	67	66
1127.22439739	128	93	64
1127.282534	128	57	64
1127.299865812	144	96	20
1127.359812606	128	96	64
1127.368137133	144	93	67
1127.382596657	128	67	64
1127.410725505	144	72	90
1127.432417671	144	64	95
1127.441296145	128	93	64
1127.456590096	144	57	77
1127.47617813	128	60	64
1127.491872147	128	72	64
1127.492084479	128	64	64
1127.522383269	144	96	19
1127.553005245	144	67	68
1127.555025227	128	21	64
1127.585339609	144	93	65
1127.585738888	128	96	64
1127.641688034	128	93	64
1127.734113341	144	96	20
1127.786597447	128	96	64
1127.800624818	144	60	79
1127.80994477	144	21	127
1127.833696322	144	93	59
1127.892008496	128	93	64
1127.942342633	144	96	21
1128.066295503	144	93	65
1128.071839087	128	96	64
1128.076464149	144	96	19
1128.082560103	128	60	64
1128.124403599	128	93	64
1128.149245009	128	67	64
1128.152313477	128	96	64
1128.243156864	144	72	89
1128.251733803	144	96	19
1128.299698837	144	93	54
1128.33076945	128	72	64
1128.347269247	128	96	64
1128.356063503	128	21	64
1128.357775743	128	93	64
1128.403248534	144	67	66
1128.476257818	144	76	102
1128.561248168	128	57	64
1128.565120611	128	76	64
1128.569342962	144	21	127
1128.648988733	144	60	70
1128.655867454	144	57	76
1128.746200104	128	60	64
1128.797831537	128	67	64
1128.931548307	144	64	101
1128.95468898	128	57	64
1128.995264777	144	72	90
1128.996664375	128	64	64
1129.052360776	128	72	64
1129.064701437	144	57	78
1129.114580738	144	67	71
1129.120000183	144	96	127
1129.120613951	128	21	64
1129.161017993	144	60	68
1129.198057944	128	96	64
1129.225664901	128	60	64
1129.319251823	144	21	127
1129.346825779	144	96	127
1129.369689642	128	96	64
1129.443580188	128	67	64
1129.537929334	144	60	66
1129.701369569	128	60	64
1129.749039139	144	72	90
1129.750553158	144	67	67
1129.825683061	128	72	64
1129.921248803	128	21	64
1129.935843432	128	67	64
1129.960951906	144	60	69
1129.96117138	144	76	108
1130.013546332	128	76	64
1130.025697815	128	60	64
1130.051586673	144	79	56
1130.084615139	144	21	127
1130.085122142	144	64	98
1130.224529917	128	79	64
1130.367192203	144	60	68
1130.397292687	144	79	73
1130.422345982	128	64	64
1130.439926167	144	96	127
1130.441832062	128	96	64
1130.445504645	128	60	64
1130.510260088	144	72	90
1130.552378256	144	64	92
1130.568533008	128	72	64
1130.574889588	128	79	64
1130.638337587	128	21	64
1130.720524021	144	79	86
1130.792884052	144	60	67
1130.835126143	144	21	127
1130.835479394	128	64	64
1130.890446339	128	60	64
1130.93371693	144	64	88
1130.958160562	128	79	64
1130.972318782	128	57	64
1131.133691095	128	64	64
1131.293708506	144	64	88
1131.308672973	144	60	72
1131.326356481	144	72	87
1131.355307348	128	72	64
1131.356889059	128	60	64
1131.396419463	128	21	64
1131.404250908	128	64	64
1131.49568283	144	96	124
1131.60060081	128	96	64
1131.693769183	144	21	127
1131.712777693	144	76	102
1131.740600166	144	64	87
1131.750942045	128	76	64
1131.769087536	144	60	71
1131.778458797	144	96	127
1131.800238129	128	64	64
1131.850557999	128	60	64
1131.85991749	128	96	64
1131.918976857	144	79	89
1131.985167614	128	79	64
1132.111648379	144	72	86
1132.142480864	144	79	90
1132.18124295	144	64	90
1132.204632946	128	72	64
1132.214804702	128	79	64
1132.238629105	128	21	64
1132.239574817	128	64	64
1132.385407671	144	79	91
1132.53018886	128	79	64
1132.568616025	144	60	70
1132.574110126	144	64	91
1132.608151119	144	21	127
1132.617803492	128	64	64
1132.717758696	128	60	64
1132.730330611	144	96	127
1132.999736537	144	72	87
1133.024686695	144	64	87
1133.07449363	128	72	64
1133.099926516	128	64	64
1133.120739095	128	21	64
1133.446149104	144	79	74
1133.500765926	144	21	127
1133.512564396	144	60	70
1133.5131931	144	83	43
1133.53043819	144	76	106
1133.546676276	128	76	64
1133.560917574	128	83	64
1133.802058289	144	83	64
1133.811548678	128	60	64
1133.842382961	128	83	64
1133.919991266	128	96	64
1133.966363392	144	72	84
1133.992814055	144	60	67
1134.017443192	144	83	68
1134.022440339	128	72	64
1134.054104832	128	21	64
1134.058251724	128	60	64
1134.059443314	128	79	64
1134.073761838	128	83	64
1134.235309748	144	83	100
1134.290530288	128	83	64
1134.314385922	144	96	125
1134.476205574	144	79	68
1134.484530482	144	83	108
1134.489362883	144	60	69
1134.540744458	128	83	64
1134.555555727	128	60	64
1134.57476017	144	21	124
1134.73534361	144	83	100
1134.791381658	128	83	64
1134.98551943	144	60	70
1134.985743464	144	83	97
1134.990620059	128	79	64
1135.029610948	128	83	64
1135.067171624	128	60	64
1135.079143627	144	72	83
1135.129834219	128	21	64
1135.136767295	128	72	64
1135.184575938	144	83	95
1135.264608103	128	83	64
1135.418495935	144	83	97
1135.492075261	128	83	64
1135.52823062	144	79	73
1135.56303736	144	76	100
1135.576647343	144	21	119
1135.648531542	128	76	64
1135.663905236	144	50	43
1135.668809773	144	83	92
1135.738870156	128	50	64
1135.749140764	128	83	64
1135.877154955	144	83	89
1135.955831459	128	83	64
1136.061846014	144	50	42
1136.097650107	144	72	83
1136.100965077	128	96	64
1136.110333835	144	83	89
1136.134140141	144	93	92
1136.161092208	128	72	64
1136.174672672	128	50	64
1136.175107174	128	79	64
1136.19093925	128	93	64
1136.195800094	128	83	64
1136.237563577	128	21	64
1136.323539356	144	83	91
1136.359437433	144	50	42
1136.392310926	128	83	64
1136.4565299	128	50	64
1136.505274928	144	50	43
1136.578278066	144	83	86
1136.61161698	128	83	64
1136.622295696	128	50	64
1136.646361339	144	76	89
1136.671729183	144	50	44
1136.676550689	144	79	73
1136.685747244	128	76	64
1136.771041264	128	50	64
1136.790434207	144	83	89
1136.807461841	144	21	120
1136.822382366	128	79	64
1136.842284462	128	83	64
1136.859381147	144	50	46
1136.889058394	144	79	74
1136.939659096	128	50	64
1137.000240102	144	83	92
1137.001158857	144	96	127
1137.026105331	144	50	46
1137.059031386	128	83	64
1137.075199648	128	79	64
1137.123208382	128	50	64
1137.171822016	144	50	45
1137.235502263	144	83	90
1137.2465636	144	79	74
1137.284631649	128	50	64
1137.308911353	128	83	64
1137.309222116	144	93	65
1137.374937517	144	72	83
1137.391120314	128	93	64
1137.407398583	128	79	64
1137.441000908	128	72	64
1137.452934982	144	83	89
1137.524601869	128	83	64
1137.564433597	144	79	75
1137.569712372	128	21	64
1137.635835917	128	96	64
1137.684282927	144	83	85
1137.708423652	128	79	64
1137.757621646	128	83	64
1137.852759705	144	79	74
1137.879195697	144	50	45
1137.881619651	144	60	77
1137.896183691	144	83	87
1137.896375219	144	76	107
1137.934474978	128	76	64
1137.93760271	128	50	64
1137.97452365	128	83	64
1137.980603433	128	60	64
1138.006590336	144	21	115
1138.008931517	128	79	64
1138.092189979	144	79	74
1138.149561193	144	83	87
1138.199372127	128	79	64
1138.226000534	128	83	64
1138.365624599	144	79	70
1138.383457041	144	83	87
1138.411025747	144	60	90
1138.432338347	128	79	64
1138.447237483	128	83	64
1138.458794543	128	60	64
1138.482822572	144	50	49
1138.55064004	144	93	88
1138.580542058	128	50	64
1138.597118353	144	72	92
1138.597743616	144	83	89
1138.607769245	128	93	64
1138.610083959	144	79	70
1138.643007375	128	72	64
1138.674060611	144	50	51
1138.675690856	128	83	64
1138.7070554	144	96	118
1138.756382413	128	50	64
1138.75767211	128	79	64
1138.818861697	144	83	89
1138.837218433	144	50	50
1138.892208709	128	83	64
1138.901568606	144	79	71
1138.922151123	128	50	64
1138.98740136	144	50	49
1139.029155687	144	83	84
1139.035201258	128	50	64
1139.045598538	128	79	64
1139.108673017	128	83	64
1139.118494779	128	21	64
1139.124718138	144	50	51
1139.185342373	128	50	64
1139.189599742	144	79	71
1139.196231636	144	76	95
1139.199848767	128	96	64
1139.200758353	144	57	83
1139.234313519	128	76	64
1139.253336293	144	83	80
1139.254403953	144	50	51
1139.326072709	128	83	64
1139.34183743	128	79	64
1139.356378586	128	50	64
1139.410835246	128	57	64
1139.425181309	144	50	52
1139.459152664	144	21	113
1139.481652423	144	83	84
1139.486239856	144	79	71
1139.543524258	128	83	64
1139.583321745	128	79	64
1139.643387053	128	50	64
1139.698677317	144	83	83
1139.758847674	128	83	64
1139.763567817	144	50	52
1139.79665123	144	79	68
1139.803055314	128	50	64
1139.871518901	144	50	53
1139.87496815	128	93	64
1139.896934414	144	72	89
1139.932870901	144	83	76
1139.93959346	128	79	64
1139.953409822	128	50	64
1139.96114175	128	83	64
1139.991147724	128	72	64
1140.03995053	144	79	69
1140.044400459	144	50	56
1140.139351346	144	69	96
1140.141287216	128	50	64
1140.15483938	144	83	73
1140.19438729	128	83	64
1140.206660617	144	50	56
1140.20781751	128	79	64
1140.273680463	128	69	64
1140.290015584	144	79	71
1140.306095583	128	50	64
1140.369082315	144	83	73
1140.371313459	144	50	56
1140.41357678	128	83	64
1140.440685137	128	79	64
1140.475134356	128	50	64
1140.542171315	144	50	56
1140.582969404	144	83	76
1140.584548186	144	79	71
1140.625064747	128	50	64
1140.63401544	128	83	64
1140.683230638	128	79	64
1140.692323377	144	50	57
1140.730775314	144	76	99
1140.767835935	128	76	64
1140.769002106	128	50	64
1140.803946418	144	83	76
1140.831432389	144	79	66
1140.842887546	128	83	64
1140.86095824	144	50	58
1140.913070593	144	69	89
1140.933264485	128	79	64
1140.958571044	128	50	64
1141.001377068	128	21	64
1141.00786823	144	50	58
1141.01364384	144	83	82
1141.033264852	128	69	64
1141.063763885	128	83	64
1141.080428367	144	79	67
1141.0858692	128	50	64
1141.175960922	144	50	58
1141.182215099	144	21	111
1141.18354485	128	79	64
1141.216702698	144	83	78
1141.273741583	128	50	64
1141.27746024	128	83	64
1141.300370836	144	69	91
1141.330793323	144	79	66
1141.34290367	144	50	60
1141.400167656	128	69	64
1141.433328073	128	79	64
1141.435704582	128	50	64
1141.450167903	144	83	75
1141.491559125	144	69	90
1141.492999325	128	83	64
1141.528422867	144	50	62
1141.538811792	144	72	91
1141.580291927	128	69	64
1141.580434754	144	79	66
1141.605673983	128	72	64
1141.640430923	128	50	64
1141.65171135	144	83	74
1141.666933025	128	79	64
1141.674334743	144	69	89
1141.6916876	144	50	62
1141.709895981	128	83	64
1141.764860968	128	69	64
1141.773624513	128	50	64
1141.789660473	144	79	66
1141.814123789	144	69	90
1141.838992648	144	50	63
1141.867288046	144	83	70
1141.911112538	128	83	64
1141.921609469	128	69	64
1141.941695079	128	50	64
1141.957388068	128	79	64
1141.971924907	144	69	90
1142.010748082	144	50	64
1142.022182102	144	76	76
1142.071846435	128	69	64
1142.084109665	144	83	74
1142.10642479	144	79	64
1142.108659849	128	50	64
1142.125565175	144	69	91
1142.144333489	128	83	64
1142.167878538	128	76	64
1142.221066223	144	76	71
1142.222439733	128	69	64
1142.25113737	128	79	64
1142.287952563	144	69	90
1142.300728228	144	83	71
1142.312833298	128	76	64
1142.339313332	144	79	65
1142.344446927	128	83	64
1142.382008546	144	50	62
1142.395266067	128	69	64
1142.423695891	128	50	64
1142.439893246	144	69	90
1142.462086913	144	76	72
1142.490831978	128	79	64
1142.500603976	144	83	63
1142.512289257	128	76	64
1142.51274264	144	50	64
1142.555343773	128	69	64
1142.561539807	128	83	64
1142.572849036	128	50	64
1142.589818666	144	79	62
1142.606588178	144	69	90
1142.661718699	144	50	64
1142.679804629	144	76	73
1142.712490377	128	69	64
1142.713796049	128	76	64
1142.734084833	144	83	60
1142.740667556	128	50	64
1142.756183392	128	79	64
1142.764310129	144	69	91
1142.795073892	128	83	64
1142.824997322	144	50	62
1142.856636279	144	79	62
1142.87523176	144	72	88
1142.87888248	128	69	64
1142.896476695	144	76	75
1142.907522014	128	50	64
1142.926834559	144	69	90
1142.951184524	144	83	58
1142.9522301	128	76	64
1142.957507976	128	72	64
1142.967045657	128	79	64
1143.011902231	128	83	64
1143.021342409	128	69	64
1143.031462056	144	50	65
1143.054032527	128	50	64
1143.086442801	144	69	89
1143.112445764	144	76	72
1143.123298492	144	79	60
1143.142472154	144	50	65
1143.162831036	128	76	64
1143.168051813	144	83	58
1143.200245011	128	79	64
1143.226440049	128	50	64
1143.230729138	128	83	64
1143.312791317	144	50	66
1143.322327304	144	76	72
1143.348582522	144	79	61
1143.382216267	128	76	64
1143.393254859	128	50	64
1143.401063327	144	83	54
1143.445729023	128	83	64
1143.450050405	128	79	64
1143.479294098	144	50	67
1143.537745996	128	50	64
1143.563437777	144	76	69
1143.598183216	144	79	63
1143.60155042	144	83	55
1143.61227142	128	76	64
1143.626007941	144	50	66
1143.661842133	128	83	64
1143.665471113	128	79	64
1143.710458534	128	50	64
1143.713626572	144	67	63
1143.722516396	128	69	64
1143.722685275	144	69	88
1143.722850455	128	69	64
1143.724491746	144	69	87
1143.724681514	128	69	64
1143.724978706	144	69	87
1143.729038714	128	69	64
1143.779018985	144	76	70
1143.792761363	144	50	67
1143.81410049	144	79	64
1143.819460264	144	83	62
1143.837284041	128	50	64
1143.845533849	128	76	64
1143.868279176	128	79	64
1143.881068662	128	83	64
1143.942537215	128	67	64
1144.014647825	144	79	65
1144.018544094	144	76	71
1144.052295559	144	83	88
1144.06170497	128	76	64
1144.068208335	128	79	64
1144.112748202	128	83	64
1144.185278344	144	76	71
1144.186865399	144	79	67
1144.236394888	144	72	88
1144.258870527	128	72	64
1144.279867525	128	76	64
1144.284436092	128	79	64
1144.288275468	144	83	97
1144.344672368	128	83	64
1144.428694933	144	76	71
1144.458642667	144	79	76
1144.479317633	128	76	64
1144.48504969	144	83	108
1144.516204858	128	79	64
1144.561216901	128	83	64
1144.620971714	144	76	74
1144.65969456	144	79	82
1144.69651971	128	76	64
1144.715674765	128	79	64
1144.718994545	144	83	109
1144.798031545	128	83	64
1144.814601485	144	50	28
1144.841211494	144	79	91
1144.842113773	144	76	75
1144.905821255	144	69	86
1144.912596784	128	76	64
1144.918536799	144	83	109
1144.933092474	128	79	64
1144.994868001	128	83	64
1145.080383792	144	76	77
1145.097536734	144	79	102
1145.147381347	128	76	64
1145.152264403	144	83	109
1145.165973129	128	79	64
1145.213168203	128	83	64
1145.307363339	144	76	77
1145.317129109	144	79	110
1145.362635311	128	76	64
1145.36877466	144	83	108
1145.417130133	128	79	64
1145.433593219	128	83	64
1145.479627172	128	69	64
1145.485629232	144	76	77
1145.55675321	144	79	117
1145.579075108	128	76	64
1145.585802913	144	83	109
1145.627851249	144	72	86
1145.635488429	128	72	64
1145.661979054	128	83	64
1145.700713112	128	79	64
1145.729512917	144	76	78
1145.779362739	128	76	64
1145.7962318310001	128	50	64
1145.80300515	144	83	110
1145.842745754	128	21	64
1145.882076733	128	83	64
1145.929939776	144	76	80
1146.000313979	128	76	64
1146.035953904	144	83	107
1146.096972109	144	96	121
1146.102333141	128	96	64
1146.115447389	128	83	64
1146.147728578	144	76	81
1146.195842633	128	76	64
1146.269428332	144	83	108
1146.270506138	144	52	55
1146.323541366	128	52	64
1146.330067189	128	83	64
1146.347089165	144	76	82
1146.411353369	144	52	63
1146.412505887	128	76	64
1146.439369938	144	79	116
1146.486204832	144	83	102
1146.490590059	128	52	64
1146.503336366	144	64	90
1146.514722144	128	79	64
1146.549295853	128	83	64
1146.557820806	128	64	64
1146.559630608	144	52	68
1146.563669273	144	76	83
1146.613208715	128	76	64
1146.630514042	128	52	64
1146.642743808	144	64	88
1146.699484676	144	79	116
1146.702259435	144	52	80
1146.703029929	144	83	96
1146.722209176	128	64	64
1146.758427584	128	52	64
1146.762316069	144	76	83
1146.762765602	128	83	64
1146.796645178	144	64	89
1146.829533392	128	76	64
1146.831712057	144	52	93
1146.842730427	128	79	64
1146.87210748	144	21	127
1146.879107656	128	64	64
1146.921995289	128	52	64
1146.93585418	144	79	114
1146.946050441	144	72	84
1146.947773198	144	83	101
1146.958416901	144	64	89
1146.97573265	144	76	85
1146.978107132	128	72	64
1147.011248503	128	83	64
1147.024889127	128	64	64
1147.030401326	144	96	117
1147.047258204	128	76	64
1147.067127048	144	52	109
1147.086003819	128	52	64
1147.090717828	128	79	64
1147.162590772	128	96	64
1147.166188351	144	52	117
1147.169119895	144	83	101
1147.169991502	144	76	81
1147.18577997	144	79	110
1147.205690334	128	52	64
1147.245376375	128	83	64
1147.245908492	128	76	64
1147.271064788	144	67	40
1147.327999112	128	79	64
1147.358448913	128	67	64
1147.392574805	128	50	64
1147.398446869	144	76	78
1147.415813399	144	83	100
1147.419205883	144	79	108
1147.44639742	144	67	40
1147.462872431	128	76	64
1147.482653283	128	83	64
1147.532660603	128	79	64
1147.606240273	144	76	76
1147.637034889	144	83	98
1147.639789402	128	67	64
1147.661258785	144	79	107
1147.678351329	144	52	67
1147.679745547	128	76	64
1147.682552818	144	67	40
1147.698072282	128	83	64
1147.736351291	128	52	64
1147.749620312	128	79	64
1147.824095529	144	76	77
1147.831705963	144	52	73
1147.831899459	128	67	64
1147.853837128	144	83	96
1147.874257549	128	52	64
1147.880847612	128	76	64
1147.895839345	144	67	41
1147.913924344	128	83	64
1147.914253354	144	79	106
1147.936168317	144	96	112
1147.960638422	144	52	92
1148.000689309	128	79	64
1148.012029588	128	52	64
1148.020492561	128	96	64
1148.026955026	144	76	77
1148.049296413	128	67	64
1148.069662827	144	83	94
1148.079503977	128	76	64
1148.091942996	144	64	95
1148.09616746	144	52	103
1148.097770243	144	67	38
1148.128108822	144	79	106
1148.134158955	144	69	78
1148.139609264	128	64	64
1148.140082292	128	52	64
1148.161933778	128	83	64
1148.198629854	144	52	111
1148.235776474	128	79	64
1148.236131622	144	76	75
1148.279186617	128	69	64
1148.295979152	128	76	64
1148.299126758	144	83	101
1148.300734059	128	67	64
1148.312262035	144	64	95
1148.32187349	144	86	53
1148.324340662	144	72	91
1148.362285032	128	52	64
1148.367939591	128	72	64
1148.381024792	128	83	64
1148.381594816	128	64	64
1148.395282303	128	86	64
1148.417931816	144	52	125
1148.447607416	144	76	78
1148.508283452	128	52	64
1148.512555145	128	76	64
1148.526639954	144	83	95
1148.530761874	144	64	96
1148.582094611	144	52	97
1148.597144442	128	83	64
1148.606245017	128	64	64
1148.656820774	144	76	75
1148.670891497	128	52	64
1148.712764491	128	76	64
1148.747956889	144	64	97
1148.749359868	144	83	96
1148.754355514	144	67	41
1148.761465195	144	69	78
1148.809992075	128	64	64
1148.830060415	128	83	64
1148.858784911	128	67	64
1148.862773414	144	76	78
1148.913029838	128	76	64
1148.954299772	144	64	97
1148.984389219	144	86	54
1148.991708809	144	83	95
1149.003803232	144	67	46
1149.010251402	144	79	106
1149.02773588	128	64	64
1149.064519228	128	83	64
1149.079694682	144	76	77
1149.084928274	128	79	64
1149.131074144	128	76	64
1149.148158573	128	67	64
1149.149586797	128	86	64
1149.151186568	144	52	80
1149.151328101	128	52	64
1149.17639789	144	64	97
1149.232072672	144	79	106
1149.237616399	144	83	98
1149.246967691	144	67	49
1149.25961951	128	64	64
1149.279778036	144	76	77
1149.298386399	128	83	64
1149.316257742	144	52	94
1149.316406734	128	52	64
1149.34752483	128	76	64
1149.375672027	128	79	64
1149.412655904	144	64	95
1149.453749069	144	83	91
1149.46435806	128	67	64
1149.469445564	144	79	104
1149.487888874	128	64	64
1149.493129529	144	52	72
1149.493245835	128	52	64
1149.496242041	144	76	77
1149.515146799	128	83	64
1149.515430249	128	69	64
1149.528705814	144	52	82
1149.546229667	128	76	64
1149.579707797	144	72	86
1149.62016922	144	86	58
1149.624167476	128	79	64
1149.657351631	128	72	64
1149.658481509	144	64	93
1149.670342334	128	52	64
1149.670598021	144	52	121
1149.670688287	128	52	64
1149.671781566	144	52	89
1149.697932806	128	52	64
1149.70470169	144	83	98
1149.713325723	144	76	76
1149.71954168	144	52	118
1149.736721608	128	64	64
1149.763720405	128	76	64
1149.765145256	128	83	64
1149.781726287	128	86	64
1149.792605044	144	79	104
1149.797135846	128	52	64
1149.804559342	144	52	101
1149.810377458	128	52	64
1149.839452055	144	52	117
1149.89052687	128	52	64
1149.911767486	144	64	94
1149.915163166	144	52	105
1149.936865226	144	76	76
1149.937053414	128	52	64
1149.942952307	128	79	64
1149.947115377	144	69	78
1149.955264364	144	83	95
1149.955773664	128	64	64
1149.979972406	128	76	64
1149.985232661	144	52	121
1150.002783282	128	52	64
1150.015377326	128	83	64
1150.035008765	144	52	107
1150.041852056	144	79	104
1150.050055696	128	69	64
1150.076611674	128	52	64
1150.100860403	144	76	75
1150.103941896	144	52	125
1150.128155675	144	69	76
1150.137607438	128	52	64
1150.147745296	144	64	90
1150.170756305	144	52	120
1150.188672326	128	52	64
1150.194007126	144	83	92
1150.196540506	128	76	64
1150.209550348	128	79	64
1150.210532264	128	64	64
1150.226138123	128	69	64
1150.246779676	144	52	122
1150.249208482	128	83	64
1150.268173985	144	86	58
1150.275925084	128	52	64
1150.302789617	144	52	116
1150.321989255	128	52	64
1150.32239204	144	69	75
1150.340690071	144	76	73
1150.360970716	144	52	118
1150.365858866	144	64	92
1150.396643243	128	69	64
1150.397696172	128	76	64
1150.406628039	144	79	105
1150.407169828	128	52	64
1150.412391433	128	86	64
1150.42946556	144	83	93
1150.441969821	128	64	64
1150.443166322	144	69	75
1150.454977055	144	52	116
1150.476965143	128	52	64
1150.480638714	128	83	64
1150.501828742	128	79	64
1150.504480287	144	52	117
1150.546010997	144	76	73
1150.557219957	128	69	64
1150.559813434	128	52	64
1150.587016831	144	52	113
1150.604770434	128	52	64
1150.60855924	144	64	90
1150.612965416	128	76	64
1150.620950811	144	69	75
1150.639446029	144	52	114
1150.659497152	144	83	93
1150.669544453	128	64	64
1150.708435127	128	52	64
1150.71453966	144	52	111
1150.721689083	128	69	64
1150.725589992	128	52	64
1150.73209584	128	83	64
1150.768863558	144	52	117
1150.780460095	144	76	76
1150.786570229	144	69	76
1150.803457835	128	52	64
1150.839183207	144	52	109
1150.847345955	128	76	64
1150.861306866	128	52	64
1150.878007806	144	64	85
1150.884997468	128	69	64
1150.890114687	144	83	90
1150.898305242	144	52	116
1150.9315574	128	83	64
1150.933586875	128	64	64
1150.939322232	128	52	64
1150.943920415	144	69	76
1150.965976478	144	52	109
1150.987086612	128	52	64
1150.997158285	144	76	75
1151.035483843	144	52	115
1151.057075121	128	69	64
1151.058964873	144	79	100
1151.062701977	128	76	64
1151.075438046	128	52	64
1151.094551029	144	52	107
1151.111283006	144	69	75
1151.118407967	128	52	64
1151.140566143	144	83	89
1151.164015877	144	52	112
1151.165735256	128	83	64
1151.204558698	128	79	64
1151.206785175	128	52	64
1151.213968377	144	76	73
1151.224207081	128	69	64
1151.228988052	144	52	104
1151.251698764	128	52	64
1151.263093221	128	76	64
1151.268889016	144	69	75
1151.282356094	128	21	64
1151.299361	144	52	109
1151.347480558	128	52	64
1151.350804213	144	52	100
1151.364515995	144	83	91
1151.385169053	128	69	64
1151.392094252	128	52	64
1151.41276085	144	21	127
1151.412905355	144	76	73
1151.41669352	128	83	64
1151.438447293	144	69	75
1151.440580434	144	52	102
1151.473020165	128	52	64
1151.479646776	128	76	64
1151.505712991	144	52	91
1151.543266312	128	52	64
1151.562460327	128	69	64
1151.568632921	144	52	92
1151.593058638	144	79	101
1151.598328744	144	83	91
1151.605952584	128	52	64
1151.630921955	144	76	69
1151.636389084	144	52	86
1151.650145128	128	83	64
1151.661107831	128	52	64
1151.696374551	128	76	64
1151.704694692	144	52	94
1151.757140106	128	52	64
1151.779628345	144	52	96
1151.790471514	128	79	64
1151.831999403	144	83	88
1151.841788307	144	76	71
1151.847385695	128	52	64
1151.851457475	144	52	107
1151.88272041	128	83	64
1151.913029096	128	76	64
1151.917815573	128	52	64
1151.917872199	144	52	103
1151.943005491	128	52	64
1152.005537612	144	52	116
1152.040767462	144	96	114
1152.041161256	144	83	93
1152.042808001	128	96	64
1152.049120467	128	52	64
1152.049152182	144	52	116
1152.063657128	144	76	71
1152.089335699	128	52	64
1152.098712682	128	83	64
1152.129625331	128	76	64
1152.138193273	144	52	127
1152.177660236	128	52	64
1152.177735579	144	52	127
1152.198584621	144	79	88
1152.237819969	128	52	64
1152.273519719	144	83	103
1152.27788994	144	52	127
1152.279448758	144	76	73
1152.333550884	128	83	64
1152.346469433	128	76	64
1152.348021153	128	52	64
1152.348130125	144	52	127
1152.373591059	128	52	64
1152.397901878	144	52	127
1152.457992117	128	52	64
1152.460821707	128	79	64
1152.492638274	144	52	127
1152.497617446	144	76	75
1152.514433423	144	83	111
1152.523656627	128	52	64
1152.562806039	128	76	64
1152.568152109	128	83	64
1152.625900224	144	79	64
1152.686305801	144	76	72
1152.700347356	144	86	57
1152.722914989	128	52	64
1152.742996166	128	86	64
1152.748289523	144	83	110
1152.779787255	128	76	64
1152.799643002	128	83	64
1152.805144624	144	96	108
1152.851350233	128	96	64
1152.901231732	128	79	64
1152.944883895	144	76	74
1152.975382492	144	83	109
1153.009953702	144	79	55
1153.012757517	128	76	64
1153.032952244	128	83	64
1153.18025744	144	76	72
1153.195532368	144	96	118
1153.20632461	144	83	108
1153.247842579	128	76	64
1153.267239839	128	83	64
1153.27549865	128	96	64
1153.305413358	144	67	47
1153.402269544	144	76	73
1153.427861457	128	79	64
1153.437016961	144	83	112
1153.463361077	128	76	64
1153.499736052	128	83	64
1153.566231116	128	67	64
1153.647795819	144	76	74
1153.648745357	144	79	52
1153.677826151	144	83	109
1153.709889283	144	67	49
1153.713196119	128	76	64
1153.733903002	128	83	64
1153.862971624	144	76	73
1153.89199443	144	83	110
1153.91716779	128	67	64
1153.944857321	128	79	64
1153.946333202	128	76	64
1153.950510331	128	83	64
1154.042832356	144	79	54
1154.069938742	144	67	47
1154.088656693	144	76	74
1154.144206522	144	83	110
1154.163489517	128	76	64
1154.188027766	128	79	64
1154.211363968	128	67	64
1154.21702118	128	83	64
1154.291658027	144	79	61
1154.314936737	128	21	64
1154.33054399	144	72	80
1154.347586914	144	76	76
1154.366866316	144	86	117
1154.372585496	144	67	46
1154.376531806	128	72	64
1154.393485735	144	83	106
1154.413473681	128	76	64
1154.425455054	128	86	64
1154.445796708	144	21	125
1154.450815652	128	83	64
1154.476773621	128	79	64
1154.579388258	144	76	67
1154.606866955	144	83	101
1154.633045253	144	79	67
1154.647793225	128	76	64
1154.68319727	128	83	64
1154.751716739	128	67	64
1154.77752851	128	79	64
1154.788826724	144	76	75
1154.837499167	144	83	100
1154.863495739	128	76	64
1154.900605563	128	83	64
1155.030233851	144	76	73
1155.061579957	144	83	99
1155.080444829	128	76	64
1155.11781397	128	83	64
1155.118120429	144	86	125
1155.192177162	128	86	64
1155.253935877	144	83	98
1155.262818316	144	76	75
1155.312850811	128	76	64
1155.333867157	128	83	64
1155.390813583	144	69	117
1155.459992703	128	99	64
1155.475004149	144	76	76
1155.495997976	144	83	96
1155.547319295	128	76	64
1155.551389276	128	83	64
1155.573346496	128	21	64
1155.574121487	144	79	65
1155.662977136	128	69	64
1155.729624968	144	83	87
1155.730168628	144	76	78
1155.74159223	128	79	64
1155.773462561	128	83	64
1155.784090523	144	86	124
1155.799144386	128	76	64
1155.903897913	144	69	114
1155.928916014	128	86	64
1155.9443385	144	83	88
1155.963565802	144	76	75
1155.983955564	128	83	64
1156.021523352	144	79	84
1156.030536544	128	76	64
1156.031922459	128	69	64
1156.144799937	144	83	82
1156.177273709	128	79	64
1156.197449673	144	76	75
1156.217722494	128	83	64
1156.223369249	144	72	80
1156.262682975	128	76	64
1156.270095118	128	72	64
1156.387567078	144	67	42
1156.395756822	144	83	79
1156.397777145	144	69	117
1156.408226845	144	76	69
1156.452566899	128	83	64
1156.484540386	144	86	119
1156.496475053	128	76	64
1156.502428616	128	69	64
1156.512461636	144	79	87
1156.568099664	128	79	64
1156.575481182	128	86	64
1156.615614366	128	67	64
1156.629163045	144	83	76
1156.645902675	144	76	70
1156.685907233	128	83	64
1156.718404811	144	79	86
1156.752756417	128	76	64
1156.802035378	128	79	64
1156.842831772	144	83	78
1156.854563164	144	69	115
1156.855917748	144	76	76
1156.917551228	128	83	64
1156.92289448	144	67	48
1156.946680297	128	76	64
1156.95212058	144	79	83
1156.978358243	128	69	64
1157.005110512	128	96	64
1157.078456232	144	83	81
1157.088070587	144	76	73
1157.092898156	144	69	116
1157.117779281	144	86	117
1157.124601231	128	83	64
1157.181705908	128	76	64
1157.191543709	128	86	64
1157.211863207	128	69	64
1157.218730538	128	67	64
1157.275757151	128	79	64
1157.295109506	144	83	87
1157.31020177	144	69	117
1157.33097633	144	76	74
1157.368156309	128	83	64
1157.397992632	128	76	64
1157.404654563	128	69	64
1157.485746123	144	69	116
1157.504585579	144	67	51
1157.524714169	144	83	89
1157.561891941	144	76	73
1157.585681484	128	83	64
1157.591684879	128	67	64
1157.601380173	128	69	64
1157.613747769	128	76	64
1157.657555458	144	69	116
1157.74193563	144	83	87
1157.750660373	144	86	112
1157.754177347	144	67	50
1157.755060542	144	21	16
1157.764935401	144	76	72
1157.777155862	128	69	64
1157.819330702	128	83	64
1157.825653273	128	86	64
1157.827384289	144	69	116
1157.830174642	128	76	64
1157.843327301	128	67	64
1157.930447328	144	67	47
1157.956846201	128	69	64
1157.970442322	144	83	89
1157.994808179	144	69	116
1157.996995905	144	76	75
1158.033833747	128	83	64
1158.065057105	128	76	64
1158.073009242	128	67	64
1158.125756812	128	69	64
1158.126283123	144	79	41
1158.129739281	144	67	48
1158.135362956	128	79	64
1158.175473585	128	21	64
1158.190606682	144	76	75
1158.208218563	144	83	88
1158.251007626	144	21	119
1158.272262789	128	67	64
1158.273605179	128	83	64
1158.278992033	144	79	51
1158.280517586	128	76	64
1158.363956084	144	67	50
1158.418076005	144	86	108
1158.451097818	144	83	89
1158.465312553	144	76	75
1158.504758777	128	83	64
1158.506784994	128	67	64
1158.509156381	128	86	64
1158.529530896	128	76	64
1158.576632626	128	79	64
1158.596364739	144	67	50
1158.618271977	144	64	95
1158.676122931	144	83	89
1158.680663202	144	76	77
1158.692652363	128	67	64
1158.741214156	144	79	61
1158.748146465	128	76	64
1158.753394033	128	83	64
1158.837332593	144	67	50
1158.886301575	144	82	117
1158.90654417	128	82	64
1158.909007353	128	67	64
1158.931582508	144	83	86
1158.947497278	144	76	85
1158.986238754	128	83	64
1158.996370322	144	67	50
1158.997259531	128	76	64
1159.006598655	128	64	64
1159.009666697	144	82	126
1159.059450812	128	79	64
1159.074658385	128	82	64
1159.11765084	144	86	78
1159.138372256	128	67	64
1159.154198145	144	83	86
1159.196351419	144	67	48
1159.203266828	144	79	77
1159.205472503	144	69	115
1159.20888251	128	86	64
1159.217479883	128	83	64
1159.222409396	144	82	127
1159.22413277	128	82	64
1159.247640796	128	21	64
1159.30270363	128	79	64
1159.327127408	144	82	124
1159.339496174	128	67	64
1159.354012477	128	69	64
1159.371238115	128	82	64
1159.391299174	128	72	64
1159.412668259	144	83	90
1159.454871557	128	83	64
1159.476982573	144	82	122
1159.481540839	144	79	79
1159.492649724	144	64	93
1159.541320701	128	82	64
1159.564158732	144	69	115
1159.626655542	144	82	124
1159.633882641	144	83	91
1159.676273039	128	79	64
1159.686425468	128	83	64
1159.690864615	128	82	64
1159.706547318	128	69	64
1159.713473699	128	64	64
1159.75499973	144	67	51
1159.772877467	144	69	115
1159.776504322	144	82	124
1159.835067997	144	86	74
1159.840594966	128	82	64
1159.842832545	128	67	64
1159.859869962	144	83	91
1159.864945525	144	76	107
1159.89136369	128	69	64
1159.904111991	128	76	64
1159.922313734	128	83	64
1159.926293829	144	82	124
1159.984904127	128	86	64
1159.992190639	128	82	64
1159.99318155	144	69	115
1160.025271714	144	67	51
1160.052344367	144	60	56
1160.059901119	144	64	89
1160.09320621	144	83	95
1160.09343158	144	82	124
1160.125933684	128	67	64
1160.13718124	128	82	64
1160.17048936	128	83	64
1160.197523251	128	60	64
1160.244452874	144	82	120
1160.269894053	144	67	53
1160.287154673	128	82	64
1160.311990674	128	64	64
1160.325318974	128	67	64
1160.343833685	144	83	93
1160.37979083	144	76	93
1160.386351497	144	86	72
1160.394324916	144	82	119
1160.420751114	128	83	64
1160.422697148	144	21	117
1160.457252801	128	82	64
1160.468040305	128	76	64
1160.468560674	144	67	53
1160.485448454	144	60	47
1160.509274187	128	86	64
1160.541693668	144	82	118
1160.54886982	144	64	86
1160.559539535	128	67	64
1160.560254944	144	83	90
1160.582551986	128	60	64
1160.588329185	128	82	64
1160.610848537	144	86	70
1160.654344844	128	83	64
1160.695250155	144	79	67
1160.731060876	144	82	114
1160.753887954	128	86	64
1160.757902282	128	82	64
1160.779842024	128	64	64
1160.785754081	128	79	64
1160.809825661	144	83	95
1160.827673905	144	86	65
1160.844642539	144	82	112
1160.887563203	128	83	64
1160.906922138	128	82	64
1160.920487198	144	64	86
1160.925884392	128	86	64
1160.931569924	144	79	75
1160.937763891	144	67	50
1160.963657363	144	76	95
1161.010500619	144	86	61
1161.010688546	144	82	111
1161.01898633	128	76	64
1161.054969536	128	82	64
1161.06024267	144	83	90
1161.081917428	128	67	64
1161.109854186	128	86	64
1161.121682097	128	83	64
1161.161571157	128	69	64
1161.169982138	144	67	51
1161.194140646	144	86	59
1161.198796373	144	82	113
1161.203603632	128	82	64
1161.208497625	128	64	64
1161.2576381	128	79	64
1161.310008591	144	83	84
1161.313927406	128	67	64
1161.338603087	128	86	64
1161.347921773	144	82	110
1161.353828174	128	82	64
1161.35533158	144	64	83
1161.374204587	128	83	64
1161.379793474	144	67	53
1161.410193586	144	86	57
1161.451294463	128	64	64
1161.461097097	144	82	111
1161.466664021	144	69	58
1161.497917852	144	76	119
1161.509423749	128	67	64
1161.530689178	128	82	64
1161.543324466	128	86	64
1161.544212278	144	83	86
1161.548439363	128	76	64
1161.602397258	128	69	64
1161.6213768	128	83	64
1161.627539811	144	86	54
1161.627658881	144	82	115
1161.654747729	144	67	55
1161.690962919	128	82	64
1161.742913184	128	67	64
1161.777519805	144	83	95
1161.785464134	128	86	64
1161.793316549	144	82	120
1161.837401278	128	82	64
1161.838008892	128	83	64
1161.842869619	144	86	50
1161.846185561	144	67	54
1161.920120723	144	69	47
1161.944856783	144	82	122
1162.000520202	128	67	64
1162.000656269	128	86	64
1162.00772787	128	82	64
1162.027142838	144	83	96
1162.030577722	144	76	117
1162.05535633	128	69	64
1162.059568392	144	86	44
1162.079829182	144	67	57
1162.087971349	128	83	64
1162.110601565	144	82	125
1162.118541928	128	76	64
1162.131916094	128	21	64
1162.142569404	128	86	64
1162.154145774	128	82	64
1162.226733569	144	86	39
1162.261235689	144	82	122
1162.262868996	144	83	97
1162.276240136	128	79	64
1162.285827376	128	67	64
1162.324214284	128	82	64
1162.326260538	128	86	64
1162.33847952	128	83	64
1162.346657703	144	67	56
1162.350548683	144	69	97
1162.363020598	144	21	126
1162.410076935	144	82	124
1162.443514014	144	86	36
1162.467874813	128	69	64
1162.475692744	128	67	64
1162.476194813	128	82	64
1162.494268557	144	83	99
1162.52611496	128	86	64
1162.543620542	144	69	108
1162.577716105	128	83	64
1162.578561882	144	86	34
1162.583088316	144	76	117
1162.619887359	144	82	121
1162.620097515	144	67	60
1162.632806667	128	76	64
1162.636887345	128	82	64
1162.654285468	128	69	64
1162.659302236	128	86	64
1162.710530689	144	69	112
1162.727120098	144	86	32
1162.744520297	144	83	97
1162.761979945	128	67	64
1162.782543993	144	82	115
1162.790457255	128	82	64
1162.804802615	128	83	64
1162.805800941	128	69	64
1162.826563527	128	86	64
1162.883396202	144	69	114
1162.910329324	144	86	31
1162.934107915	144	82	115
1162.954089883	128	82	64
1162.984996214	128	69	64
1162.99452347	144	83	92
1163.009794188	128	86	64
1163.051231942	144	69	114
1163.072218818	128	83	64
1163.084098649	144	86	34
1163.114071162	144	76	122
1163.128242319	144	82	114
1163.128432643	128	82	64
1163.149140082	128	69	64
1163.167134081	128	76	64
1163.17500752	128	86	64
1163.202361095	144	69	113
1163.226691727	144	82	120
1163.265810096	144	83	94
1163.270157216	128	82	64
1163.30510014	144	67	58
1163.308998486	128	69	64
1163.338937191	128	83	64
1163.377842801	144	82	123
1163.386894324	144	69	112
1163.391853364	128	67	64
1163.440919326	128	82	64
1163.463862203	144	67	54
1163.485242386	128	69	64
1163.511578039	144	83	89
1163.543346471	144	82	127
1163.550599445	144	69	113
1163.558992035	128	83	64
1163.586942065	128	82	64
1163.596615502	128	21	64
1163.61551683	128	67	64
1163.646348078	144	76	126
1163.659527592	128	69	64
1163.662764814	144	67	54
1163.698978476	128	76	64
1163.718293195	144	69	112
1163.728180541	144	83	87
1163.732717758	144	82	127
1163.753405597	128	82	64
1163.791248803	128	83	64
1163.816138009	128	67	64
1163.830556986	128	69	64
1163.865130568	144	67	59
1163.881704356	144	69	113
1163.882101496	144	76	122
1163.897310669	144	82	127
1163.924570825	128	82	64
1163.966835522	128	76	64
1163.983993364	144	83	88
1163.987892947	128	69	64
1164.008335779	128	67	64
1164.009705444	144	82	127
1164.044563099	144	69	114
1164.057058672	128	83	64
1164.063362162	144	67	58
1164.074073067	128	82	64
1164.110199333	144	76	127
1164.130387694	128	76	64
1164.166571805	128	69	64
1164.17637044	144	82	123
1164.206771303	128	67	64
1164.220536234	128	82	64
1164.22216598	144	69	114
1164.228300173	144	83	89
1164.247794491	144	67	60
1164.291694922	128	83	64
1164.314791019	144	76	127
1164.32932812	128	69	64
1164.363941316	128	76	64
1164.367043345	144	82	124
1164.375472981	128	67	64
1164.38219946	144	69	115
1164.388091555	128	82	64
1164.449524893	144	67	62
1164.462257497	144	83	88
1164.505455829	128	69	64
1164.513880714	144	76	127
1164.522490577	128	83	64
1164.532460777	144	82	123
1164.557351908	128	82	64
1164.558496589	144	69	114
1164.564082228	128	76	64
1164.601126789	128	67	64
1164.650260246	144	67	61
1164.659706408	144	82	121
1164.684226077	128	69	64
1164.695101999	144	83	84
1164.724467599	128	82	64
1164.730493417	144	76	127
1164.740262022	144	69	114
1164.741130715	128	83	64
1164.764772595	128	76	64
1164.793651316	128	67	64
1164.826723737	144	82	120
1164.844504169	128	69	64
1164.87041536	128	82	64
1164.895424308	144	83	82
1164.908518184	144	69	115
1164.935575888	144	67	63
1164.955857593	128	83	64
1164.961200427	128	67	64
1165.014900772	144	82	122
1165.015933869	144	76	127
1165.038352172	128	82	64
1165.044857379	128	69	64
1165.081695842	128	76	64
1165.097865957	144	69	115
1165.111808393	144	83	87
1165.131918842	144	67	67
1165.174863225	128	83	64
1165.182633338	144	82	121
1165.216150798	128	69	64
1165.222357363	128	82	64
1165.265102506	144	76	127
1165.281425769	128	67	64
1165.281918864	144	69	116
1165.309752307	144	82	120
1165.315025799	128	76	64
1165.328845611	144	83	85
1165.374029758	128	82	64
1165.379565552	144	67	70
1165.389698488	128	83	64
1165.394630584	128	69	64
1165.471490796	144	69	116
1165.475484274	128	67	64
1165.47669746	144	82	119
1165.503430659	144	21	16
1165.540591852	128	82	64
1165.546525822	144	83	85
1165.579358306	128	69	64
1165.606712342	128	83	64
1165.620904338	144	67	72
1165.643060584	144	82	119
1165.65004089	144	69	115
1165.692214783	128	67	64
1165.707288057	128	82	64
1165.747245656	144	83	88
1165.776069234	128	69	64
1165.806910321	128	83	64
1165.809771161	144	82	122
1165.84314744	144	69	117
1165.85615061	144	67	70
1165.874361503	128	82	64
1165.936667719	128	69	64
1165.946264114	144	83	89
1165.961229011	128	67	64
1165.976968341	144	82	125
1166.017053741	144	69	117
1166.02240971	128	83	64
1166.040824909	128	82	64
1166.047787632	128	21	64
1166.136122017	128	69	64
1166.143550841	144	82	124
1166.162556184	144	83	95
1166.171846803	144	67	72
1166.195742356	144	21	29
1166.205589535	144	69	117
1166.208586822	128	82	64
1166.224448609	128	83	64
1166.258913909	128	67	64
1166.309657533	144	82	124
1166.31357697	128	69	64
1166.330585582	144	83	90
1166.349916345	144	76	127
1166.374063196	128	82	64
1166.386283125	144	69	117
1166.405890779	128	83	64
1166.415365736	128	76	64
1166.476976509	144	82	120
1166.497935435	128	69	64
1166.540908113	128	82	64
1166.545978201	144	83	92
1166.591430605	144	67	71
1166.600255019	144	69	117
1166.609346042	128	83	64
1166.643137887	144	82	120
1166.693903449	128	67	64
1166.707927674	128	69	64
1166.721510354	128	82	64
1166.730140679	144	83	93
1166.731720836	144	76	127
1166.732253363	128	21	64
1166.762936517	144	67	69
1166.79292019	128	83	64
1166.80461083	144	69	117
1166.809695513	144	82	123
1166.817025023	128	76	64
1166.872265175	128	69	64
1166.874471092	128	82	64
1166.90421239	128	67	64
1166.912791109	144	83	95
1166.92747625	144	57	121
1166.949524614	144	67	72
1166.965892585	144	69	116
1166.973763092	128	83	64
1166.976368682	144	82	123
1167.041089328	128	82	64
1167.04218275	128	67	64
1167.054825211	128	69	64
1167.070504861	144	21	110
1167.096535012	144	83	98
1167.130334636	144	67	77
1167.143632878	144	82	124
1167.156339216	144	69	116
1167.156953068	128	83	64
1167.163322865	128	57	64
1167.207596402	128	82	64
1167.244142975	128	69	64
1167.248948744	144	76	124
1167.273076587	128	67	64
1167.298862996	144	83	99
1167.300380401	128	76	64
1167.311788779	144	82	126
1167.314084318	144	67	76
1167.324209602	128	83	64
1167.331761724	144	69	117
1167.354328112	128	82	64
1167.439742221	128	69	64
1167.448820003	144	83	99
1167.462205816	144	82	122
1167.463274444	128	67	64
1167.496128791	128	83	64
1167.519558617	144	69	117
1167.520177108	144	67	74
1167.524095192	128	82	64
1167.630614931	144	83	100
1167.644122178	128	69	64
1167.657301272	144	76	124
1167.666490608	128	67	64
1167.674451312	128	83	64
1167.683906247	144	82	126
1167.696316718	144	67	71
1167.72057634	144	69	117
1167.724638292	128	82	64
1167.734904178	128	76	64
1167.746370567	144	82	93
1167.807794223	128	82	64
1167.814505005	144	83	101
1167.835283724	128	69	64
1167.83829837	128	67	64
1167.857642106	128	83	64
1167.878854258	144	82	127
1167.897532669	144	67	70
1167.910310219	144	69	117
1167.94343244	128	82	64
1167.950789837	144	82	91
1167.977796257	144	83	100
1168.005585793	128	82	64
1168.014414633	144	76	127
1168.032230117	128	69	64
1168.041066533	128	83	64
1168.048348314	128	76	64
1168.049779498	128	67	64
1168.053547838	144	82	125
1168.098202308	144	67	66
1168.104132081	144	69	118
1168.129908736	128	82	64
1168.129981762	144	82	90
1168.162672372	128	21	64
1168.1639789	144	83	100
1168.205384071	128	82	64
1168.209573678	128	83	64
1168.235261004	128	69	64
1168.240662006	128	67	64
1168.252047651	144	82	122
1168.280546985	144	76	127
1168.309725559	144	69	118
1168.312966967	144	67	60
1168.321949333	128	82	64
1168.32202186	144	82	90
1168.334518062	128	76	64
1168.347343783	144	83	99
1168.391350814	128	82	64
1168.391768294	128	83	64
1168.422682356	128	69	64
1168.430246971	144	82	122
1168.439899577	144	60	37
1168.468667063	128	67	64
1168.488775045	144	21	126
1168.50884923	128	82	64
1168.508902262	144	82	87
1168.509653368	144	69	118
1168.51453603	144	83	99
1168.532457552	144	76	127
1168.569647718	128	76	64
1168.574676571	128	82	64
1168.574823355	128	83	64
1168.581884004	128	60	64
1168.620010207	128	69	64
1168.630039133	144	82	120
1168.6929233	128	82	64
1168.692998867	144	82	101
1168.697960887	144	83	100
1168.702380092	144	69	117
1168.717039838	144	76	127
1168.747825328	128	76	64
1168.754508571	128	82	64
1168.760274006	128	83	64
1168.76616186	144	82	69
1168.81125402	128	69	64
1168.821705339	128	82	64
1168.843225138	144	62	33
1168.864695035	144	83	99
1168.871455918	144	82	119
1168.88496361	144	69	118
1168.898338572	144	76	127
1168.899481161	128	82	64
1168.899514215	144	82	106
1168.929997958	128	21	64
1168.939692644	128	62	64
1168.93985789	128	83	64
1168.947167835	128	76	64
1168.958553759	128	82	64
1168.958615485	144	82	68
1169.004805099	144	60	41
1169.00676374	144	62	33
1169.007994398	128	69	64
1169.024528288	128	82	64
1169.036831512	128	62	64
1169.064121576	144	82	117
1169.074928492	144	83	100
1169.092401127	128	82	64
1169.092437518	144	82	104
1169.09751041	144	76	127
1169.100357752	144	69	118
1169.123725634	128	83	64
1169.13052303	128	76	64
1169.158216509	128	82	64
1169.174498806	128	60	64
1169.181297971	144	82	73
1169.226945386	128	69	64
1169.237185283	128	82	64
1169.259802837	144	83	100
1169.29382855	144	76	127
1169.307369598	128	83	64
1169.313865623	144	69	117
1169.31437263	144	82	109
1169.31712321	128	82	64
1169.317216148	144	82	89
1169.331696029	128	76	64
1169.348652619	144	62	40
1169.371934587	128	82	64
1169.37200226	144	82	99
1169.398688766	144	41	94
1169.410056835	128	82	64
1169.421790975	128	62	64
1169.444300957	128	69	64
1169.444477543	144	82	60
1169.450048659	144	83	101
1169.474184639	128	82	64
1169.511999189	144	62	42
1169.512186843	144	76	127
1169.514097495	144	69	115
1169.524022632	128	83	64
1169.530534291	144	82	101
1169.547266319	128	76	64
1169.565911996	144	60	40
1169.597950483	128	82	64
1169.598015785	144	82	113
1169.60167686	128	62	64
1169.625730482	128	82	64
1169.625805546	144	82	102
1169.634092805	128	69	64
1169.655241435	144	83	102
1169.66943076	144	76	127
1169.669608688	144	62	45
1169.707830182	128	83	64
1169.714353983	144	69	116
1169.723180898	128	82	64
1169.747943358	128	76	64
1169.748786184	128	60	64
1169.767230242	144	82	109
1169.767369078	128	62	64
1169.817661774	128	69	64
1169.835848704	144	62	45
1169.838236198	128	82	64
1169.838282696	144	82	122
1169.865293487	144	83	103
1169.867231092	128	82	64
1169.867305191	144	82	109
1169.896483215	144	76	127
1169.898806609	128	82	64
1169.898848325	144	82	47
1169.907540797	128	83	64
1169.910916892	128	82	64
1169.910961178	144	82	80
1169.934165411	128	76	64
1169.936422665	128	62	64
1170.007425084	144	62	44
1170.047956587	144	83	101
1170.084332661	128	82	64
1170.084402115	144	82	120
1170.084499777	128	82	64
1170.08455524	144	82	105
1170.097160372	144	76	127
1170.108395753	128	83	64
1170.109354811	128	82	64
1170.109391997	144	82	119
1170.118439854	128	62	64
1170.131400403	128	76	64
1170.142582012	128	82	64
1170.142671972	144	82	84
1170.161761351	128	82	64
1170.161805686	144	82	55
1170.20738802	144	62	45
1170.231618239	144	60	40
1170.242657194	144	83	102
1170.271767916	128	62	64
1170.278269094	144	76	127
1170.306642887	128	83	64
1170.306780875	128	82	64
1170.30719322	144	82	127
1170.312771703	128	82	64
1170.312819243	144	82	117
1170.317260138	128	60	64
1170.327920347	144	95	63
1170.33043424	128	76	64
1170.332959288	144	69	113
1170.355372445	128	95	64
1170.355667339	144	62	46
1170.372455152	128	82	64
1170.394358766	144	82	80
1170.452249562	128	62	64
1170.458151301	128	82	64
1170.467457536	144	83	101
1170.478012693	144	82	124
1170.501818101	144	95	82
1170.519150773	128	82	64
1170.519228496	144	82	112
1170.520234561	144	62	46
1170.524483792	128	83	64
1170.534841342	128	95	64
1170.57806311	128	82	64
1170.582170548	144	82	77
1170.588525241	144	67	67
1170.600947964	128	62	64
1170.637273965	128	82	64
1170.673184368	144	83	101
1170.678061305	144	82	127
1170.67827376	144	95	93
1170.686390384	144	62	47
1170.709598414	128	67	64
1170.719374101	128	82	64
1170.719458882	144	82	117
1170.725672362	128	83	64
1170.752426726	128	95	64
1170.783744722	128	82	64
1170.783852911	144	82	85
1170.784107109	128	62	64
1170.837878998	128	82	64
1170.865155153	144	83	101
1170.882151046	144	82	127
1170.891471824	144	62	46
1170.89673177	144	95	98
1170.924123463	128	82	64
1170.924272482	144	82	117
1170.925934663	128	83	64
1170.952759077	128	62	64
1170.953633362	128	95	64
1170.974016506	128	82	64
1170.997706322	144	82	91
1171.038775547	144	62	47
1171.041195433	128	82	64
1171.057074175	144	95	103
1171.06623391	144	83	102
1171.094886478	144	82	127
1171.109884829	128	83	64
1171.127970592	128	82	64
1171.128061184	144	82	114
1171.134206641	128	62	64
1171.135887251	128	69	64
1171.156035693	144	67	67
1171.195404725	128	82	64
1171.195472618	144	82	80
1171.211971654	128	95	64
1171.231332755	144	62	48
1171.258006916	128	82	64
1171.261470636	144	83	104
1171.279242445	144	82	126
1171.29358091	144	95	104
1171.318009668	128	62	64
1171.325696449	128	83	64
1171.33189082	128	82	64
1171.33195078	144	82	111
1171.383880511	128	67	64
1171.389715819	128	82	64
1171.389783679	144	82	77
1171.401154409	144	86	24
1171.403101241	144	62	47
1171.413150463	144	69	117
1171.443196222	144	83	104
1171.44408662	128	86	64
1171.45770196	128	82	64
1171.461358637	128	95	64
1171.479068233	144	82	127
1171.502663984	128	62	64
1171.507157629	128	83	64
1171.519955224	128	69	64
1171.549183497	128	82	64
1171.549241261	144	82	113
1171.585088975	144	69	118
1171.589516792	144	62	46
1171.596826508	128	82	64
1171.59687893	144	82	81
1171.640383672	128	82	64
1171.663176797	144	82	127
1171.666814849	128	69	64
1171.673707095	128	62	64
1171.674053545	144	83	100
1171.708059984	128	83	64
1171.724480782	128	82	64
1171.724589568	144	82	114
1171.735094863	144	86	34
1171.749052091	144	69	118
1171.773363594	144	62	46
1171.791006674	128	82	64
1171.792829226	128	86	64
1171.801936528	144	82	81
1171.829212671	144	95	103
1171.83715108	144	67	70
1171.843697994	128	69	64
1171.85305176	128	62	64
1171.855606491	128	82	64
1171.874093345	144	83	100
1171.900888225	144	82	124
1171.925866573	128	83	64
1171.929118391	144	69	118
1171.931308438	128	82	64
1171.931347774	144	82	113
1171.956186849	144	62	45
1171.976309072	144	76	127
1171.990715171	128	82	64
1172.000120362	144	82	82
1172.018607393	128	76	64
1172.021680102	128	67	64
1172.021961245	128	69	64
1172.036595231	128	62	64
1172.053964976	128	82	64
1172.08666838	144	69	119
1172.103429935	144	82	120
1172.10538507	128	82	64
1172.105415664	144	82	127
1172.139867644	144	62	45
1172.179556652	128	69	64
1172.196520516	128	95	64
1172.208039534	128	82	64
1172.208094794	144	82	78
1172.255751185	128	62	64
1172.261976118	128	82	64
1172.266358992	144	69	118
1172.266532727	144	82	127
1172.293883567	144	95	101
1172.307267252	144	62	44
1172.313062964	144	67	60
1172.329381532	128	82	64
1172.3294463	144	82	115
1172.359364218	128	69	64
1172.377412911	144	86	31
1172.385082912	128	62	64
1172.406939222	128	82	64
1172.406998023	144	82	80
1172.434692459	144	69	117
1172.440744321	128	82	64
1172.471847216	144	62	44
1172.477406497	128	67	64
1172.522662648	128	86	64
1172.540441107	128	69	64
1172.542642963	144	82	103
1172.552504896	128	62	64
1172.559012519	144	86	31
1172.588881795	128	82	64
1172.638064733	144	67	72
1172.654258797	144	62	46
1172.659408598	128	86	64
1172.66064355	144	69	118
1172.662781277	128	95	64
1172.696129238	144	82	110
1172.719706001	128	62	64
1172.725548677	128	67	64
1172.743677765	144	86	31
1172.744103963	144	95	102
1172.754806424	128	69	64
1172.758093619	128	82	64
1172.809176171	128	86	64
1172.822599299	144	62	46
1172.860718933	144	82	115
1172.867499947	144	67	69
1172.876965618	144	69	118
1172.893758821	144	86	33
1172.910703618	128	67	64
1172.924665471	128	82	64
1172.939108978	128	62	64
1172.959357832	128	86	64
1172.970860158	128	69	64
1173.007331515	144	62	46
1173.010258851	144	82	119
1173.013441976	144	67	66
1173.027218582	144	86	35
1173.062102586	128	86	64
1173.062871186	128	95	64
1173.068554171	144	76	127
1173.068953486	144	69	117
1173.069759325	128	62	64
1173.074876316	128	82	64
1173.108833447	128	67	64
1173.124508045	128	76	64
1173.160261478	144	82	122
1173.169131942	128	69	64
1173.190069882	144	62	47
1173.219880873	128	62	64
1173.224343274	128	82	64
1173.250294647	144	69	117
1173.251465804	144	67	64
1173.295714768	144	82	124
1173.301556729	144	86	32
1173.306619021	144	62	45
1173.30911986	128	67	64
1173.325856867	128	86	64
1173.357223894	128	69	64
1173.370328473	128	62	64
1173.371995563	128	82	64
1173.398390116	144	67	65
1173.442925057	144	69	117
1173.460102293	144	82	125
1173.465105187	128	83	64
1173.489917317	144	62	48
1173.508079389	128	67	64
1173.52434579	128	82	64
1173.544947382	128	69	64
1173.553967911	128	62	64
1173.596658632	144	67	65
1173.609223027	144	86	32
1173.622310868	144	69	117
1173.627054022	144	82	127
1173.691582702	128	82	64
1173.709399518	128	86	64
1173.709540421	128	67	64
1173.727447823	128	69	64
1173.777443286	144	86	30
1173.782520826	144	62	46
1173.793288681	144	82	127
1173.799097981	144	67	64
1173.801247254	144	69	116
1173.809796013	144	95	92
1173.843101143	128	86	64
1173.853557263	128	62	64
1173.857662176	128	82	64
1173.893195247	128	69	64
1173.904301549	128	95	64
1173.929066938	144	86	32
1173.940176703	128	67	64
1173.943697757	144	82	127
1173.961513062	144	62	43
1173.969476638	144	69	117
1173.996917444	144	67	66
1174.007580569	128	82	64
1174.012521963	128	86	64
1174.042604936	128	62	64
1174.052116542	144	95	90
1174.078836573	144	86	30
1174.079129932	128	69	64
1174.079988845	128	41	64
1174.109822082	144	82	123
1174.110084342	128	86	64
1174.138809838	128	67	64
1174.144172846	144	86	27
1174.162079922	144	62	44
1174.164318525	144	69	117
1174.205786971	128	82	64
1174.2172616	144	67	67
1174.220356664	128	62	64
1174.227100464	128	86	64
1174.245291845	128	95	64
1174.257754487	128	69	64
1174.276705698	144	82	119
1174.334313298	144	76	114
1174.341448004	128	82	64
1174.341704972	144	69	116
1174.344914692	144	62	47
1174.361076279	128	67	64
1174.398748872	128	76	64
1174.404000454	128	62	64
1174.429549562	144	67	74
1174.436604978	128	69	64
1174.443240158	144	82	120
1174.507691019	128	82	64
1174.573379514	128	67	64
1174.611563293	144	82	122
1174.63017181	144	69	115
1174.667141845	144	67	75
1174.674147809	128	82	64
1174.737091934	128	69	64
1174.743429682	128	67	64
1174.745207253	144	62	45
1174.828042265	128	62	64
1174.841642342	144	82	121
1174.846470038	144	69	116
1174.846955781	144	67	76
1174.867057336	144	76	113
1174.888742355	128	82	64
1174.921928002	128	76	64
1174.948338992	128	69	64
1174.992101958	128	67	64
1174.995757902	144	95	89
1174.997434353	144	62	45
1175.037499648	128	95	64
1175.038542463	128	62	64
1175.04645528	144	67	73
1175.074653019	144	69	118
1175.12168665	144	41	76
1175.160293827	144	62	43
1175.172869038	128	69	64
1175.184749135	144	82	119
1175.1887482	128	67	64
1175.201153452	144	95	90
1175.204108099	128	82	64
1175.217886648	144	26	40
1175.242523181	128	62	64
1175.246399449	144	67	79
1175.290108347	144	69	120
1175.362631781	144	62	43
1175.387925106	128	69	64
1175.399195589	144	76	112
1175.400537458	128	67	64
1175.423494847	128	62	64
1175.453670552	128	76	64
1175.479172923	128	95	64
1175.480030647	144	67	76
1175.495026822	144	69	122
1175.549237757	144	82	127
1175.557708241	128	82	64
1175.562317813	144	62	43
1175.598177395	128	69	64
1175.623689492	144	95	70
1175.631842073	128	67	64
1175.67213376	128	26	64
1175.679012838	128	62	64
1175.685217331	128	95	64
1175.694588722	144	41	87
1175.699241066	144	67	77
1175.709363282	144	69	122
1175.763149642	144	62	41
1175.824453831	128	69	64
1175.842582537	128	62	64
1175.843027181	128	67	64
1175.867793	144	95	56
1175.89705365	144	67	77
1175.902986432	128	95	64
1175.918003834	144	82	124
1175.948747277	144	69	124
1175.952640684	144	76	106
1175.957877376	128	82	64
1175.963280104	144	62	43
1176.016922154	128	76	64
1176.038679845	128	67	64
1176.043271903	128	62	64
1176.053540256	128	69	64
1176.057845412	144	95	55
1176.097351644	144	67	77
1176.163655222	144	62	44
1176.165048357	144	69	124
1176.249053349	128	67	64
1176.256966542	128	62	64
1176.266680502	128	95	64
1176.269597341	128	69	64
1176.301414597	144	82	120
1176.320685935	128	82	64
1176.344062351	144	95	60
1176.347380316	144	67	72
1176.381113772	144	69	125
1176.484936627	128	69	64
1176.487925642	128	67	64
1176.516434407	144	76	103
1176.547107084	144	67	74
1176.560634021	144	69	125
1176.568692476	128	76	64
1176.57925916	128	95	64
1176.666438787	144	95	62
1176.676822951	128	69	64
1176.690239516	128	67	64
1176.733087063	144	82	116
1176.741383818	144	26	59
1176.742536819	144	64	84
1176.746947753	144	67	76
1176.774835084	128	82	64
1176.789027894	128	64	64
1176.821083417	128	95	64
1176.908008812	144	64	80
1176.911129278	144	95	63
1176.914372029	128	67	64
1176.963670535	144	67	78
1176.991249186	128	64	64
1177.071212564	144	64	84
1177.082752108	144	76	114
1177.105588502	128	67	64
1177.132611433	128	76	64
1177.142421342	128	64	64
1177.163606061	128	95	64
1177.18380659	144	82	110
1177.184817971	144	67	79
1177.239188508	128	82	64
1177.244242072	144	60	47
1177.244438568	144	95	62
1177.244683462	144	64	80
1177.305343732	128	64	64
1177.336133611	128	67	64
1177.379899241	144	67	79
1177.412704828	128	60	64
1177.445468282	128	95	64
1177.526899888	144	95	65
1177.533356894	128	67	64
1177.668699329	144	82	104
1177.67304042	128	95	64
1177.686931756	144	76	115
1177.70775195	128	82	64
1177.720399868	128	76	64
1177.744886736	144	95	81
1177.746995415	144	62	45
1177.786118563	144	60	55
1177.807875169	128	26	64
1177.885090109	144	86	19
1177.889393261	128	95	64
1177.890809244	128	62	64
1177.959597941	128	86	64
1177.977234905	144	95	86
1178.095507253	128	60	64
1178.122792363	144	82	100
1178.174789589	128	82	64
1178.226579438	144	76	113
1178.274536645	144	60	54
1178.3181715	128	76	64
1178.350271416	144	86	40
1178.405340113	144	69	120
1178.494699041	128	86	64
1178.5382177	128	69	64
1178.54564268	128	60	64
1178.559727235	144	82	119
1178.624347649	128	82	64
1178.692889938	144	69	115
1178.714843012	144	62	44
1178.75180695	144	86	63
1178.812135263	144	60	55
1178.841451829	128	69	64
1178.843800343	128	62	64
1178.85465604	144	67	75
1178.855186883	128	95	64
1178.883168126	144	76	111
1178.900458099	128	86	64
1178.950409893	128	76	64
1178.958303854	144	69	113
1179.012173209	128	60	64
1179.034653661	144	82	127
1179.049057639	128	67	64
1179.053702937	128	82	64
1179.099756113	128	69	64
1179.101150414	144	86	84
1179.105162851	144	85	66
1179.152145937	128	85	64
1179.249642379	128	86	64
1179.304561487	144	60	61
1179.308389871	144	85	74
1179.318136901	144	95	96
1179.331731411	128	85	64
1179.339558915	128	60	64
1179.418817548	144	86	94
1179.476539969	128	86	64
1179.485225109	144	82	127
1179.496823518	144	60	66
1179.508505444	144	85	83
1179.5175619	144	76	117
1179.524129382	128	82	64
1179.542401878	128	60	64
1179.550547969	128	85	64
1179.584304441	128	76	64
1179.647833297	144	86	101
1179.654356718	144	69	119
1179.685493828	144	60	69
1179.69303958	128	86	64
1179.706616664	128	60	64
1179.707676488	144	85	106
1179.747325196	128	85	64
1179.852220738	144	60	77
1179.889046814	128	60	64
1179.889935701	144	86	108
1179.90832965	144	85	117
1179.926373071	128	86	64
1179.927944763	144	82	127
1179.9634851	128	85	64
1179.96371051	128	95	64
1179.971047742	128	82	64
1180.004414547	144	67	85
1180.013189852	128	69	64
1180.032925347	144	60	73
1180.062832938	144	95	84
1180.076342606	128	60	64
1180.084712793	144	62	45
1180.101720283	144	85	123
1180.119036119	144	86	114
1180.143697169	128	62	64
1180.152511012	128	95	64
1180.154181847	128	86	64
1180.161954339	144	26	55
1180.162018222	128	26	64
1180.162146932	144	26	46
1180.162237093	128	26	64
1180.163172557	128	85	64
1180.202080218	128	67	64
1180.216480231	144	76	106
1180.219295521	144	60	72
1180.23521152	144	82	126
1180.253855949	128	82	64
1180.254322321	128	60	64
1180.271906708	128	76	64
1180.304884521	144	85	119
1180.334279056	144	95	85
1180.336470809	144	86	115
1180.362922889	128	85	64
1180.393003548	128	86	64
1180.400365154	144	69	114
1180.500971462	144	82	127
1180.509303611	144	85	119
1180.520413131	128	82	64
1180.562850956	128	69	64
1180.564145905	128	85	64
1180.729013321	144	85	116
1180.730497883	144	67	76
1180.75207108	144	82	127
1180.76407814	128	85	64
1180.793086701	128	82	64
1180.801161259	144	86	83
1180.816914453	144	76	94
1180.858860892	128	86	64
1180.901360134	128	76	64
1180.908048909	144	85	118
1180.964787171	128	85	64
1180.969264026	144	82	126
1180.969502956	144	60	127
1180.999132681	128	67	64
1181.007672602	128	82	64
1181.084230314	144	69	116
1181.092457882	144	85	120
1181.14337811	128	95	64
1181.148389851	128	85	64
1181.167696443	144	82	125
1181.207606868	128	82	64
1181.25193122	144	86	72
1181.279878113	128	60	64
1181.285601707	144	85	120
1181.286025511	144	95	88
1181.292693525	128	86	64
1181.310682507	144	82	123
1181.314908622	128	69	64
1181.329566413	128	85	64
1181.353702631	128	82	64
1181.370186454	128	95	64
1181.377652722	144	95	74
1181.396583594	144	67	79
1181.46009005	144	82	119
1181.460644254	144	86	58
1181.469199242	128	95	64
1181.477155316	144	76	94
1181.487895496	144	85	123
1181.489288549	144	41	49
1181.504542407	128	82	64
1181.506568553	144	95	91
1181.531186373	128	85	64
1181.542630836	128	86	64
1181.551883242	128	76	64
1181.586299889	144	62	114
1181.593465613	144	82	122
1181.599888593	144	69	115
1181.650209359	128	67	64
1181.650680666	128	95	64
1181.650732575	144	95	80
1181.657845667	128	82	64
1181.660360862	128	62	64
1181.686007739	144	85	123
1181.701328782	144	86	51
1181.743560172	144	82	127
1181.749060661	128	85	64
1181.761543682	144	62	114
1181.776095328	128	86	64
1181.808228475	128	82	64
1181.817538039	144	60	116
1181.826111848	128	62	64
1181.838956006	128	69	64
1181.872588186	144	85	123
1181.87746115	144	86	54
1181.893942457	144	82	127
1181.91523301	128	85	64
1181.943150355	128	86	64
1181.944110586	144	62	114
1181.957686611	128	82	64
1181.986366102	144	67	72
1182.00765865	128	62	64
1182.04369333	144	82	127
1182.054314094	144	85	120
1182.057154518	128	60	64
1182.102668706	144	69	115
1182.107887068	128	82	64
1182.109142057	144	62	116
1182.115962602	128	85	64
1182.118466819	144	86	55
1182.142191617	128	86	64
1182.167368478	144	76	97
1182.174321893	128	62	64
1182.195683493	144	82	125
1182.203641106	144	94	81
1182.215984984	128	67	64
1182.217392944	128	76	64
1182.235455515	144	60	126
1182.236668874	128	94	64
1182.250117594	144	85	121
1182.257785441	128	82	64
1182.278102355	144	62	115
1182.302182771	144	86	53
1182.31352639	128	85	64
1182.326151378	128	86	64
1182.328488243	128	69	64
1182.35858808	128	62	64
1182.359448689	144	82	121
1182.363580893	128	95	64
1182.379522038	128	60	64
1182.381831135	144	94	103
1182.382223861	128	94	64
1182.403915282	128	82	64
1182.432793705	144	85	122
1182.445437797	144	62	114
1182.463408587	144	94	108
1182.496530576	128	85	64
1182.507626415	144	67	77
1182.507789139	128	94	64
1182.519124452	144	86	49
1182.523176822	144	60	123
1182.525319877	128	62	64
1182.53507572	144	95	90
1182.540504216	128	86	64
1182.546545793	144	82	123
1182.572781186	128	82	64
1182.5765449	128	60	64
1182.594056563	144	69	115
1182.602069896	144	94	113
1182.611419665	144	62	115
1182.638088576	128	95	64
1182.640700465	128	94	64
1182.64300735	144	85	120
1182.660389359	144	82	126
1182.666729965	128	67	64
1182.691173443	128	62	64
1182.697841073	128	85	64
1182.720269602	144	60	124
1182.723801256	128	82	64
1182.730749831	144	94	116
1182.766485189	128	60	64
1182.778133844	144	62	115
1182.77993852	128	94	64
1182.78399491	128	69	64
1182.786172411	144	95	93
1182.796176412	144	82	127
1182.801998508	144	76	112
1182.852575938	128	95	64
1182.855015568	144	85	116
1182.857877609	128	62	64
1182.868559117	144	60	124
1182.868727253	144	94	113
1182.868964766	128	76	64
1182.870808456	128	82	64
1182.888690496	144	67	81
1182.910131176	128	94	64
1182.915122727	128	85	64
1182.92249325	128	60	64
1182.928298224	144	95	88
1182.99715349	144	94	118
1183.015295238	144	82	119
1183.02248178	144	85	119
1183.032653841	128	67	64
1183.039281379	144	69	116
1183.039733827	128	82	64
1183.047138927	128	94	64
1183.068745928	144	60	124
1183.101970327	128	60	64
1183.116835387	128	85	64
1183.133857918	144	94	117
1183.177363719	144	67	73
1183.185411637	144	82	123
1183.186489035	128	94	64
1183.18892173	128	69	64
1183.193400451	144	60	126
1183.224609218	128	82	64
1183.255522259	144	85	120
1183.278218524	128	60	64
1183.279305382	144	94	121
1183.310917376	144	82	123
1183.317045467	128	85	64
1183.32153345	128	67	64
1183.336859585	128	94	64
1183.374778107	128	82	64
1183.382621469	144	64	122
1183.459951607	144	76	116
1183.473022471	144	85	116
1183.476622979	144	82	117
1183.484071925	144	69	114
1183.487449923	144	94	120
1183.487748791	144	67	77
1183.494509766	144	62	112
1183.507458298	128	94	64
1183.516088167	128	85	64
1183.541744861	128	82	64
1183.542081578	128	76	64
1183.542204955	128	64	64
1183.58104868	128	62	64
1183.612528791	128	69	64
1183.64420978	144	82	111
1183.6506864	128	67	64
1183.666595718	144	62	110
1183.672234402	144	85	115
1183.68653578	144	94	122
1183.707817739	128	82	64
1183.713624983	128	94	64
1183.735206822	128	85	64
1183.758318177	144	60	25
1183.76444829	144	26	42
1183.764566203	128	26	64
1183.764707201	128	62	64
1183.841198863	128	60	64
1183.851689768	144	82	113
1183.852559904	144	64	118
1183.866073337	144	69	114
1183.871704821	144	94	121
1183.871874509	128	94	64
1183.871991701	144	85	115
1183.875947398	128	82	64
1183.885615047	144	62	110
1183.904952686	144	67	75
1183.933043365	128	85	64
1183.944340448	128	62	64
1183.953879483	128	64	64
1183.99830763	128	69	64
1184.020599571	144	94	120
1184.022367556	128	94	64
1184.052102999	128	41	64
1184.055438239	144	85	116
1184.06779476	144	82	114
1184.07524755	128	82	64
1184.099861619	128	67	64
1184.107500616	144	60	7
1184.118517616	144	76	90
1184.130618391	144	94	121
1184.131392624	128	85	64
1184.158226812	128	94	64
1184.172864772	128	76	64
1184.181546938	128	95	64
1184.255293913	144	85	118
1184.261098322	144	69	113
1184.289090379	144	67	71
1184.306604522	144	94	122
1184.309269992	128	94	64
1184.310208059	128	60	64
1184.331748755	128	85	64
1184.38508444	144	82	112
1184.400589564	128	69	64
1184.405761138	128	82	64
1184.433618233	128	67	64
1184.454259076	144	94	122
1184.454424662	144	60	7
1184.45563795	144	85	118
1184.472414902	128	94	64
1184.531661304	128	85	64
1184.622314244	144	69	113
1184.629321696	128	60	64
1184.638484814	144	94	124
1184.638949408	144	67	71
1184.639078297	128	94	64
1184.674603529	144	85	116
1184.718505606	144	82	108
1184.726606064	128	67	64
1184.732080553	128	85	64
1184.745600562	144	94	125
1184.757990346	128	82	64
1184.761170728	128	69	64
1184.767760416	144	76	65
1184.772733954	128	94	64
1184.796524475	144	60	63
1184.821721196	128	76	64
1184.868315094	144	85	119
1184.880400215	144	94	123
1184.889158493	144	67	70
1184.893667013	128	60	64
1184.924363745	128	94	64
1184.931361716	128	85	64
1184.966552762	144	60	87
1184.974758691	128	67	64
1185.029399965	144	94	123
1185.041058413	128	60	64
1185.056195716	128	94	64
1185.067996849	128	95	64
1185.070755493	144	85	121
1185.10404087	144	82	107
1185.121696363	128	82	64
1185.122545264	144	67	76
1185.129262065	144	41	61
1185.13318345	128	85	64
1185.140318826	144	60	98
1185.178554281	144	94	123
1185.209589258	128	67	64
1185.217207807	128	60	64
1185.223405418	128	94	64
1185.233718226	144	69	112
1185.276371542	144	85	125
1185.299426299	144	60	112
1185.34975139	128	85	64
1185.356643141	144	67	74
1185.370550659	144	94	123
1185.372485978	128	69	64
1185.390275305	128	60	64
1185.396809191	128	94	64
1185.404236674	144	76	115
1185.426900524	128	67	64
1185.461377272	144	82	108
1185.466313269	144	60	122
1185.467708604	128	76	64
1185.493092689	144	85	126
1185.524480533	128	82	64
1185.541022588	144	94	122
1185.549864484	128	85	64
1185.571950807	128	94	64
1185.620994846	144	67	71
1185.638246771	128	60	64
1185.667339051	144	69	111
1185.702076849	128	41	64
1185.706488265	144	85	121
1185.716564509	144	94	121
1185.728293152	128	67	64
1185.736640454	128	94	64
1185.752359816	128	85	64
1185.787028796	128	69	64
1185.830495299	144	67	72
1185.884818358	144	82	107
1185.886744919	144	94	120
1185.888028092	144	85	123
1185.907796601	128	94	64
1185.924554956	128	82	64
1185.965949953	128	85	64
1185.972242508	128	67	64
1186.037289604	144	69	113
1186.047823949	144	67	71
1186.052509448	144	94	123
1186.067056262	144	76	81
1186.089244649	128	26	64
1186.098300029	144	85	123
1186.116471354	128	76	64
1186.136254339	128	85	64
1186.157235522	128	69	64
1186.171636174	128	94	64
1186.180057938	128	67	64
1186.189050913	144	60	126
1186.197611962	144	41	83
1186.260384261	144	82	111
1186.267346028	144	67	71
1186.280025536	128	60	64
1186.292025591	144	85	121
1186.304211182	128	82	64
1186.350230464	128	85	64
1186.420056403	144	94	121
1186.453180785	128	67	64
1186.478267025	144	85	118
1186.500953067	144	67	72
1186.512677705	144	60	100
1186.534077263	128	85	64
1186.579971589	128	94	64
1186.588251665	144	62	107
1186.592487977	128	60	64
1186.639140147	128	41	64
1186.643318077	144	82	113
1186.651570248	128	67	64
1186.687930717	144	85	113
1186.69272712	144	21	127
1186.697349229	128	62	64
1186.705530571	128	21	64
1186.713202115	144	67	68
1186.714355603	128	82	64
1186.733411249	128	85	64
1186.750775664	144	76	127
1186.768746161	144	21	127
1186.784316323	144	62	107
1186.80323566	144	94	120
1186.818083039	128	76	64
1186.838539337	128	21	64
1186.848786953	144	41	114
1186.870143946	128	67	64
1186.879341117	144	21	127
1186.885822196	144	85	113
1186.897433681	128	62	64
1186.910647455	144	60	70
1186.948972388	128	94	64
1186.949110151	128	85	64
1186.955259302	128	21	64
1187.01301538	144	67	67
1187.031359163	144	21	127
1187.033058331	144	82	109
1187.042229676	128	82	64
1187.065732231	128	60	64
1187.086452229	128	21	64
1187.091760009	128	67	64
1187.1068062	144	85	107
1187.146098133	144	21	127
1187.167745982	128	85	64
1187.170378863	144	94	117
1187.187312841	144	69	111
1187.220826118	128	21	64
1187.222969585	128	41	64
1187.250249182	144	60	44
1187.25986604	144	21	126
1187.271303443	128	94	64
1187.285226967	144	67	65
1187.294374292	144	85	112
1187.300013714	128	69	64
1187.320003934	128	21	64
1187.352567534	128	85	64
1187.379703459	144	21	127
1187.385947456	144	82	103
1187.393015991	144	64	118
1187.395867118	128	60	64
1187.401396593	144	76	102
1187.404423846	128	82	64
1187.435826798	128	67	64
1187.44156647	128	21	64
1187.468207488	128	76	64
1187.496232766	144	21	123
1187.511199418	144	85	109
1187.553011103	128	21	64
1187.560241537	144	69	111
1187.568201591	128	85	64
1187.580405523	144	60	31
1187.60423627	144	94	117
1187.606378904	144	41	126
1187.625591948	144	21	126
1187.637437174	144	67	63
1187.644346516	128	64	64
1187.644719934	128	60	64
1187.678357913	128	69	64
1187.685545311	128	21	64
1187.725321346	144	85	113
1187.725583522	144	21	122
1187.734400629	144	82	117
1187.759408194	128	82	64
1187.763121478	128	94	64
1187.770858361	128	85	64
1187.781716988	128	67	64
1187.786931579	128	21	64
1187.807647239	128	41	64
1187.807711802	144	41	114
1187.863454548	144	21	124
1187.871864473	144	69	111
1187.936813955	128	21	64
1187.943542024	144	85	116
1187.960113053	144	21	122
1187.981681505	128	69	64
1188.001230851	144	82	103
1188.017147784	144	76	121
1188.017370208	128	85	64
1188.020610236	144	94	113
1188.024522963	144	67	74
1188.037585674	128	21	64
1188.056835799	128	82	64
1188.084715393	128	76	64
1188.09559424	144	21	123
1188.099368755	144	69	112
1188.109474935	128	67	64
1188.172456806	128	21	64
1188.179800733	128	94	64
1188.180297393	144	85	109
1188.216144646	128	69	64
1188.217800175	144	21	122
1188.233503342	128	85	64
1188.280131701	144	69	113
1188.288181159	144	67	81
1188.297576769	128	21	64
1188.326834866	144	21	125
1188.33485201	144	82	109
1188.357908294	128	82	64
1188.370975048	144	85	110
1188.39558739	128	69	64
1188.408513494	128	21	64
1188.422933973	128	41	64
1188.423002929	144	41	81
1188.431990375	128	67	64
1188.435142283	128	85	64
1188.442479122	144	21	121
1188.453726685	144	94	106
1188.461607676	144	69	113
1188.521172751	128	21	64
1188.530235843	128	41	64
1188.530295778	144	41	112
1188.554445193	128	69	64
1188.560728759	144	21	123
1188.586682292	144	67	77
1188.591013993	144	85	114
1188.598613925	128	94	64
1188.615964718	144	76	124
1188.622386696	144	69	113
1188.650414487	128	21	64
1188.650914212	144	82	103
1188.651460147	128	41	64
1188.651508255	144	41	114
1188.652304854	128	76	64
1188.668855437	128	85	64
1188.688545578	144	21	121
1188.691149037	128	82	64
1188.729960116	128	69	64
1188.730059607	128	67	64
1188.75324408	128	21	64
1188.784228411	144	69	113
1188.793488183	144	21	124
1188.808040875	144	85	113
1188.869697004	128	85	64
1188.870857593	144	94	110
1188.877437272	128	21	64
1188.89115657	128	69	64
1188.895745371	144	21	125
1188.951734989	144	82	100
1188.961870309	144	69	113
1188.969822982	128	21	64
1188.971875605	144	67	73
1188.991523017	128	82	64
1189.00802238	144	85	111
1189.010254021	144	21	127
1189.03012959	128	94	64
1189.070820747	128	85	64
1189.071577079	128	69	64
1189.102540749	128	21	64
1189.117117917	128	67	64
1189.126173604	144	69	112
1189.132427431	144	21	126
1189.199214216	144	76	127
1189.204134893	128	21	64
1189.207812039	144	85	107
1189.236363731	144	21	127
1189.240559587	128	76	64
1189.247844325	128	69	64
1189.251601781	144	82	120
1189.270708175	128	82	64
1189.285611674	128	85	64
1189.286894959	144	94	110
1189.302153413	144	69	110
1189.320693236	144	67	66
1189.339982047	128	21	64
1189.342645515	144	21	127
1189.391432233	128	94	64
1189.397065956	144	85	116
1189.401684961	128	21	64
1189.414612921	128	69	64
1189.415400317	144	82	121
1189.442002065	128	82	64
1189.442447453	128	67	64
1189.458048347	144	69	112
1189.459904633	144	21	127
1189.469661922	144	94	109
1189.486733297	128	85	64
1189.50626386	128	94	64
1189.513043773	144	82	120
1189.543856612	128	21	64
1189.543935185	144	21	127
1189.575285844	128	82	64
1189.577781973	128	69	64
1189.610345264	144	85	114
1189.63344765	128	21	64
1189.650066996	144	94	113
1189.658531592	128	94	64
1189.675265317	144	21	127
1189.67777978	144	82	127
1189.684450588	128	85	64
1189.741760107	128	82	64
1189.746808682	144	94	115
1189.759981697	128	21	64
1189.76001758	144	21	127
1189.791094872	128	94	64
1189.842727918	144	85	114
1189.844182227	144	82	126
1189.867345483	128	21	64
1189.880179283	144	94	114
1189.889343623	128	82	64
1189.896513715	144	21	127
1189.918067714	128	85	64
1189.937483659	128	94	64
1189.972887145	128	21	64
1189.988210787	144	67	83
1189.990750633	144	21	127
1189.993890333	144	82	123
1190.034785231	144	94	114
1190.0596982	128	82	64
1190.062350185	144	85	114
1190.074675629	128	94	64
1190.087943704	128	21	64
1190.094992754	128	67	64
1190.130689222	144	21	127
1190.134759394	128	85	64
1190.144733215	144	82	123
1190.177167287	144	94	116
1190.20295337	128	21	64
1190.207893319	128	82	64
1190.223513428	128	94	64
1190.254268804	144	67	80
1190.265725468	144	21	126
1190.275632613	144	85	114
1190.294037354	144	82	125
1190.313534327	144	94	116
1190.335949809	128	21	64
1190.34263249	128	67	64
1190.350638623	128	85	64
1190.357899057	128	82	64
1190.360338543	144	21	127
1190.390385287	128	94	64
1190.423758881	128	41	64
1190.423816854	144	41	112
1190.453213703	128	21	64
1190.46051246	144	82	126
1190.476750222	144	85	118
1190.480188502	144	21	127
1190.50032284	144	76	93
1190.523025318	128	82	64
1190.537258367	144	94	101
1190.551711632	128	85	64
1190.568013454	128	76	64
1190.592894118	128	21	64
1190.594430809	144	21	127
1190.610718429	144	82	127
1190.623970703	128	94	64
1190.675007363	128	82	64
1190.692629644	128	21	64
1190.694814704	144	21	125
1190.712823586	144	85	117
1190.764364629	144	82	127
1190.769131159	128	85	64
1190.76940824	144	94	110
1190.769691533	128	94	64
1190.79784712	144	94	109
1190.811879226	128	21	64
1190.816247248	144	21	127
1190.823278196	128	94	64
1190.824353032	128	82	64
1190.870849256	144	94	115
1190.889276845	144	85	120
1190.89053992	128	94	64
1190.904220133	144	94	105
1190.910955107	144	82	127
1190.91878937	128	21	64
1190.921802027	144	21	127
1190.940072243	128	94	64
1190.96570533	144	94	116
1190.968147519	128	85	64
1190.974430191	128	82	64
1190.994144887	128	41	64
1190.994208755	144	41	110
1191.007490923	128	94	64
1191.016844734	128	21	64
1191.036877423	144	94	113
1191.044817559	144	21	127
1191.05392547	128	94	64
1191.06292999	144	82	127
1191.088287857	144	94	110
1191.104248211	144	85	122
1191.124567864	128	94	64
1191.124757387	128	82	64
1191.144292542	128	21	64
1191.146979279	144	69	21
1191.147936731	144	21	126
1191.168586493	144	76	86
1191.170070279	144	94	103
1191.184085305	128	85	64
1191.187934045	128	94	64
1191.215684567	144	94	112
1191.219488293	128	69	64
1191.234863269	128	76	64
1191.256929591	128	94	64
1191.275645412	128	21	64
1191.277629202	144	21	126
1191.333218529	144	85	122
1191.345875763	144	94	114
1191.350126679	128	21	64
1191.380869984	144	21	126
1191.401221436	128	85	64
1191.422668263	128	94	64
1191.426180045	144	94	108
1191.446215829	128	94	64
1191.507450229	128	21	64
1191.507576844	144	21	127
1191.512069895	144	94	122
1191.519191353	144	69	24
1191.535540528	128	94	64
1191.537465899	144	94	112
1191.551051627	128	21	64
1191.568058274	144	85	120
1191.574909233	128	94	64
1191.595928618	144	21	126
1191.618813791	144	94	122
1191.619514192	128	85	64
1191.648465098	128	69	64
1191.655405283	128	94	64
1191.691226356	144	94	118
1191.713502659	128	94	64
1191.721701928	128	21	64
1191.725858559	144	21	127
1191.74042507	144	94	123
1191.74065611	144	85	119
1191.774087027	128	94	64
1191.783152775	128	21	64
1191.801156949	144	94	119
1191.818743116	128	85	64
1191.822142415	144	21	124
1191.822401176	128	94	64
1191.874293959	144	94	125
1191.922142098	144	69	37
1191.923795739	128	94	64
1191.951011166	128	21	64
1191.954673743	144	21	126
1191.961212063	144	94	120
1191.963472585	144	85	120
1191.984527384	128	94	64
1191.991899139	128	69	64
1192.018615901	128	21	64
1192.020327744	128	85	64
1192.023800549	144	94	124
1192.045196348	144	21	124
1192.060576064	128	94	64
1192.076276996	144	94	122
1192.125420878	128	94	64
1192.142728135	144	85	120
1192.147803795	144	94	127
1192.152759695	128	21	64
1192.154850225	144	21	127
1192.176921829	128	94	64
1192.20092422	144	94	120
1192.201093587	144	76	118
1192.202991251	128	21	64
1192.224213023	128	94	64
1192.226564076	144	21	122
1192.235584427	128	85	64
1192.250759186	144	69	65
1192.268133747	128	76	64
1192.271349756	144	94	127
1192.29343357	128	94	64
1192.30699482	128	21	64
1192.323200505	128	69	64
1192.325729303	144	21	127
1192.328586301	144	94	122
1192.361487567	128	94	64
1192.382569051	144	85	116
1192.401208132	144	94	127
1192.413415166	128	21	64
1192.418766077	144	21	127
1192.440558652	128	94	64
1192.452388858	128	85	64
1192.484156372	128	21	64
1192.517971632	144	69	88
1192.528903464	144	21	125
1192.548156577	144	94	122
1192.553460378	128	41	64
1192.553503148	144	41	111
1192.57152524	128	94	64
1192.57376567	128	69	64
1192.603108373	144	94	119
1192.614017631	144	85	116
1192.619770941	128	21	64
1192.619829139	144	21	122
1192.66227539	128	94	64
1192.670202963	128	85	64
1192.6797877	144	94	126
1192.706256725	128	94	64
1192.70632057	144	94	119
1192.730921672	144	69	104
1192.76550936	128	21	64
1192.765596438	144	21	127
1192.784842424	144	76	83
1192.806727384	144	85	113
1192.817637859	128	69	64
1192.850909129	128	94	64
1192.870454614	128	85	64
1192.871544324	128	76	64
1192.970461947	144	69	117
1193.01837282	144	60	116
1193.031203374	144	85	114
1193.033331459	128	69	64
1193.07066468	128	85	64
1193.199523264	144	69	116
1193.204251768	144	94	95
1193.254219306	144	85	121
1193.275137994	128	69	64
1193.288728951	128	94	64
1193.304787628	128	85	64
1193.42434111	128	21	64
1193.449006216	144	76	99
1193.450292459	144	69	110
1193.455520227	144	85	122
1193.485998693	128	76	64
1193.509553401	144	62	104
1193.518469326	128	85	64
1193.521408163	128	69	64
1193.569425089	144	94	100
1193.602160998	128	62	64
1193.678361712	144	69	105
1193.684498801	144	85	122
1193.731137793	128	69	64
1193.736299614	128	85	64
1193.846380919	144	69	97
1193.863206854	128	94	64
1193.8795701	144	85	115
1193.922081644	128	60	64
1193.936588107	128	85	64
1193.938523968	128	69	64
1193.999953582	144	62	98
1194.069635635	144	94	116
1194.07724004	144	85	114
1194.077965423	144	44	52
1194.083814003	144	76	100
1194.085988547	144	69	96
1194.135092613	128	76	64
1194.137684281	128	85	64
1194.13791075	128	94	64
1194.203293994	128	69	64
1194.283287637	144	69	98
1194.283531382	144	94	118
1194.291691489	128	94	64
1194.294318605	144	85	112
1194.361247379	128	69	64
1194.370025503	128	85	64
1194.379621859	144	94	119
1194.43735894	144	69	97
1194.463759941	128	44	64
1194.511018694	144	85	121
1194.531975184	128	69	64
1194.537868407	144	64	118
1194.547728776	144	44	61
1194.571552433	128	85	64
1194.639653884	144	69	95
1194.659681438	144	76	77
1194.709769826	128	62	64
1194.713414336	128	94	64
1194.739270004	128	76	64
1194.742760635	128	69	64
1194.746406276	144	85	112
1194.780077887	128	44	64
1194.805984918	128	85	64
1194.830109229	144	69	95
1194.881853954	144	44	68
1194.903659461	144	94	118
1194.918980692	128	69	64
1194.961131538	144	85	109
1194.989373119	128	94	64
1195.01060099	144	69	95
1195.021402234	128	85	64
1195.062214556	128	64	64
1195.100361888	128	69	64
1195.153010227	144	94	120
1195.165272946	144	85	108
1195.167208325	144	69	95
1195.18753977	128	94	64
1195.223256767	128	85	64
1195.26090303	128	69	64
1195.286232473	144	76	90
1195.337131561	144	94	122
1195.343593788	128	94	64
1195.34886365	144	69	98
1195.352329898	128	76	64
1195.371774565	128	82	64
1195.381249803	144	85	106
1195.428147903	128	69	64
1195.438137915	128	85	64
1195.462120981	144	94	123
1195.52591513	144	69	98
1195.588831941	144	85	117
1195.605897243	128	69	64
1195.630622412	128	44	64
1195.669884466	128	85	64
1195.670950894	144	69	99
1195.718325945	144	44	72
1195.780255301	144	85	123
1195.787039672	128	69	64
1195.804175181	128	44	64
1195.852450445	144	69	97
1195.870250319	128	85	64
1195.89083516	144	44	77
1195.900784107	144	76	97
1195.934715689	144	64	123
1195.955551873	128	69	64
1195.96896304	128	76	64
1195.988123358	128	44	64
1196.022057925	144	69	99
1196.023305537	144	85	124
1196.071978014	128	85	64
1196.075893725	144	44	82
1196.104311421	144	67	73
1196.125427356	128	69	64
1196.129703903	128	94	64
1196.190890632	144	69	101
1196.216679329	144	85	123
1196.272312876	128	85	64
1196.288521928	128	69	64
1196.312313626	144	41	61
1196.314520677	128	41	64
1196.314560467	144	41	64
1196.354927818	144	69	101
1196.360848542	128	67	64
1196.395135136	144	67	68
1196.41651274	128	64	64
1196.42903546	144	85	124
1196.437205209	144	94	122
1196.462107664	128	69	64
1196.467558673	144	76	103
1196.489161322	128	85	64
1196.504948987	128	94	64
1196.534263334	128	76	64
1196.555328965	144	69	101
1196.628381346	144	85	125
1196.632650636	128	69	64
1196.676018376	144	94	122
1196.704554631	128	85	64
1196.705281905	144	69	102
1196.723519026	128	94	64
1196.833535572	128	69	64
1196.845111362	144	85	127
1196.894858391	144	69	99
1196.900639991	128	67	64
1196.903084978	144	94	126
1196.922795774	128	85	64
1196.989150992	128	94	64
1196.990520869	128	69	64
1197.033784825	144	76	110
1197.061871594	144	85	126
1197.087936832	144	69	101
1197.121681682	128	76	64
1197.122615783	128	85	64
1197.154304621	144	94	127
1197.19621232	128	69	64
1197.219288226	128	41	64
1197.219349493	144	41	64
1197.255188178	128	94	64
1197.256480171	128	41	64
1197.267704295	144	69	100
1197.279151783	144	85	125
1197.341566358	128	85	64
1197.356969321	128	69	64
1197.44826174	144	69	100
1197.495228774	144	85	127
1197.505952605	144	94	127
1197.536870086	128	69	64
1197.555927164	128	85	64
1197.58957589	128	94	64
1197.615402739	144	69	100
1197.650523043	144	76	125
1197.696878719	144	85	127
1197.71903928	128	76	64
1197.734586893	128	69	64
1197.766254125	128	44	64
1197.771697461	128	85	64
1197.784220791	144	94	127
1197.809701568	144	69	100
1197.847051929	144	44	86
1197.855284181	128	94	64
1197.912348883	144	85	124
1197.914733003	128	69	64
1197.972901559	128	85	64
1198.01147371	144	69	101
1198.022201196	144	94	127
1198.088951556	128	94	64
1198.101127078	128	69	64
1198.111231315	144	62	103
1198.128975212	144	85	125
1198.169044655	144	69	101
1198.17226497	128	62	64
1198.192076735	128	85	64
1198.194109965	128	44	64
1198.210202722	144	76	101
1198.212650745	144	94	127
1198.23506459	144	62	71
1198.247032437	144	44	95
1198.281338306	128	69	64
1198.287420951	128	94	64
1198.287666172	128	76	64
1198.314490071	144	85	124
1198.332319852	128	62	64
1198.372304204	144	69	102
1198.401177214	144	62	100
1198.406411558	128	85	64
1198.486908535	128	62	64
1198.487497079	144	94	127
1198.514064439	128	69	64
1198.529768198	144	85	125
1198.572646299	144	62	100
1198.58890406	128	94	64
1198.599352433	144	69	103
1198.605676032	128	85	64
1198.671729056	128	62	64
1198.712969239	128	69	64
1198.729633087	144	85	126
1198.73932227	144	62	100
1198.7854011700001	144	76	108
1198.792140779	144	69	101
1198.799197672	128	44	64
1198.80717394	128	85	64
1198.809261583	128	21	64
1198.821549851	128	62	64
1198.834762394	144	44	101
1198.835267745	128	76	64
1198.886616867	144	94	127
1198.907182893	128	69	64
1198.910360293	144	62	99
1198.963642769	144	85	124
1198.967712873	128	62	64
1198.996174481	144	69	102
1199.023470582	128	85	64
1199.055995761	144	62	100
1199.102867611	128	69	64
1199.11336209	128	94	64
1199.134467615	128	62	64
1199.163585125	144	85	121
1199.191079571	144	69	105
1199.202875804	144	62	100
1199.241134119	128	85	64
1199.287405263	128	62	64
1199.307044444	128	69	64
1199.351144975	144	76	101
1199.375456341	144	62	100
1199.379813798	144	85	122
1199.385408128	144	86	75
1199.395827012	128	86	64
1199.405597806	144	69	108
1199.406784647	128	76	64
1199.451008088	128	62	64
1199.45622443	128	85	64
1199.507443585	128	69	64
1199.518726988	144	62	99
1199.527819978	144	86	103
1199.562218323	128	86	64
1199.562535652	144	94	126
1199.596967271	144	85	125
1199.600373599	128	62	64
1199.60806018	144	69	104
1199.670192831	144	62	100
1199.673014365	128	85	64
1199.719218176	144	86	102
1199.729706622	128	94	64
1199.741338716	128	86	64
1199.754727248	128	62	64
1199.80196942	128	69	64
1199.803150872	144	62	100
1199.811680412	144	85	127
1199.825651057	144	69	103
1199.885897596	144	86	101
1199.889895346	128	85	64
1199.903953227	128	62	64
1199.908744276	128	86	64
1199.937198639	144	62	99
1199.954837487	128	69	64
1199.966200092	128	44	64
1199.985635781	144	76	99
1200.000523686	128	62	64
1200.014245388	144	85	127
1200.021236212	128	76	64
1200.02830247	144	69	105
1200.035421179	144	44	98
1200.068603331	144	86	92
1200.068819749	144	62	100
1200.090149255	128	85	64
1200.093647013	128	86	64
1200.134892428	128	69	64
1200.149700465	128	62	64
1200.205030866	144	94	125
1200.218773341	144	62	104
1200.219995963	144	69	103
1200.23031833	144	85	125
1200.230782581	128	44	64
1200.251893136	144	86	82
1200.25693094	128	94	64
1200.276277201	128	86	64
1200.293541386	128	85	64
1200.299425398	128	62	64
1200.327132428	128	69	64
1200.330017797	144	44	104
1200.404040216	144	62	110
1200.424236368	144	69	104
1200.430286974	144	85	127
1200.434150722	128	62	64
1200.435085823	144	86	82
1200.478505322	128	86	64
1200.509608543	128	85	64
1200.528820695	144	41	29
1200.558010234	128	69	64
1200.635608355	144	86	101
1200.64113098	144	69	103
1200.647009411	144	85	127
1200.651555932	144	94	126
1200.659090871	128	86	64
1200.667846916	128	41	64
1200.72618354	128	85	64
1200.734519417	128	69	64
1200.739247444	128	94	64
1200.832626897	144	69	103
1200.852402231	144	86	92
1200.860349266	128	86	64
1200.863825637	144	85	127
1200.887546253	144	94	126
1200.944349663	128	85	64
1200.948017718	128	69	64
1200.954638524	128	94	64
1201.047835826	144	69	104
1201.048948181	144	85	126
1201.059149111	144	41	55
1201.140307593	128	41	64
1201.158137207	128	85	64
1201.175427495	128	69	64
1201.247992185	144	85	126
1201.292351466	144	69	97
1201.310482139	128	85	64
1201.370731415	144	94	124
1201.385905962	128	69	64
1201.388300539	144	41	74
1201.42426881	128	94	64
1201.447610245	144	85	121
1201.482122459	128	41	64
1201.487798859	144	69	92
1201.52532282	128	85	64
1201.569857288	144	94	122
1201.593399744	128	69	64
1201.622114749	128	94	64
1201.664820366	144	85	123
1201.693933954	144	69	99
1201.72040572	144	41	86
1201.724272451	128	85	64
1201.79595252	128	69	64
1201.815816935	128	44	64
1201.822237438	128	41	64
1201.864119007	144	69	102
1201.881479301	144	85	123
1201.901816003	144	44	86
1201.975224004	144	41	90
1201.977692012	128	69	64
1201.997939609	128	85	64
1202.031112031	144	62	98
1202.061159965	128	41	64
1202.069468184	144	69	107
1202.08367462	144	64	109
1202.087736434	144	94	123
1202.093374001	144	85	124
1202.097712393	128	44	64
1202.109053994	128	62	64
1202.14898609	128	64	64
1202.15687553	128	85	64
1202.159203937	144	44	82
1202.172539459	128	94	64
1202.185586092	128	69	64
1202.18981371	144	64	107
1202.193032267	144	62	99
1202.246655033	144	41	104
1202.249514001	144	69	109
1202.273528312	128	62	64
1202.278265464	144	85	124
1202.291303815	128	41	64
1202.299368744	128	64	64
1202.339844245	144	62	99
1202.352788136	144	64	103
1202.357487637	128	85	64
1202.361100888	128	69	64
1202.418043716	128	62	64
1202.429588146	144	69	111
1202.453878396	128	64	64
1202.469852493	144	41	102
1202.498964694	144	85	125
1202.507234651	144	62	99
1202.525518057	144	64	93
1202.52563697	128	41	64
1202.551112424	128	62	64
1202.555690615	128	69	64
1202.575804321	128	85	64
1202.621501063	128	64	64
1202.626545362	144	69	110
1202.636588472	144	94	126
1202.65900405	144	41	111
1202.672930007	144	62	98
1202.677892569	144	64	114
1202.710337707	128	94	64
1202.731911098	144	85	122
1202.735928833	128	62	64
1202.739553085	128	41	64
1202.745385939	128	69	64
1202.76543408	128	44	64
1202.77518866	128	64	64
1202.779817381	128	85	64
1202.825755034	144	69	113
1202.826592264	144	62	96
1202.844788992	144	64	110
1202.876927617	144	41	114
1202.907088856	128	62	64
1202.915677761	144	85	127
1202.928108743	144	44	71
1202.943805819	128	69	64
1202.947770687	128	41	64
1202.95944424	128	64	64
1202.994638776	128	85	64
1203.026121288	144	64	109
1203.029425313	144	62	97
1203.053496714	144	69	114
1203.075321964	128	62	64
1203.107022502	144	41	120
1203.132895336	144	85	123
1203.147130414	128	64	64
1203.149085081	128	41	64
1203.174537397	144	62	96
1203.183729395	144	76	88
1203.189453616	128	69	64
1203.190348701	144	64	107
1203.193192222	128	86	64
1203.208975006	128	85	64
1203.23588783	128	62	64
1203.254373615	144	94	123
1203.265397861	144	69	115
1203.271799499	128	76	64
1203.276438309	128	64	64
1203.312840884	144	64	121
1203.315646084	128	44	64
1203.320851112	128	94	64
1203.328441802	144	76	87
1203.336757808	144	62	96
1203.342744939	144	41	125
1203.347083363	144	85	124
1203.375423231	128	69	64
1203.400420646	128	76	64
1203.402437402	128	62	64
1203.408793321	128	85	64
1203.433408432	128	64	64
1203.440270156	128	41	64
1203.455633558	144	76	87
1203.460079083	144	69	116
1203.468761656	144	94	125
1203.48894941	144	62	95
1203.501439708	144	64	105
1203.53893228	128	94	64
1203.545970394	144	44	55
1203.55198491	128	64	64
1203.552050748	144	64	116
1203.566555104	128	76	64
1203.568111543	128	62	64
1203.57541237	128	69	64
1203.582073563	144	85	122
1203.603687772	144	76	87
1203.63734041	144	69	117
1203.638883225	128	64	64
1203.64242856	128	85	64
1203.654824761	144	64	105
1203.656451624	144	62	96
1203.700315924	128	76	64
1203.701816482	128	64	64
1203.706250036	144	64	113
1203.719409401	128	62	64
1203.745440336	128	69	64
1203.756798772	144	76	89
1203.802720469	144	85	119
1203.803869611	128	64	64
1203.804135885	144	62	95
1203.809685268	144	69	116
1203.818723029	144	64	106
1203.841858664	128	85	64
1203.850338732	128	76	64
1203.903000732	128	62	64
1203.920899775	144	76	90
1203.92175171	128	69	64
1203.96558837	128	64	64
1203.975938452	128	44	64
1203.987194964	144	94	123
1203.989450959	144	62	96
1203.998455075	144	69	115
1204.000374444	144	64	104
1204.00052145	128	76	64
1204.001725838	144	85	121
1204.036039923	128	64	64
1204.036108353	144	64	117
1204.06217895	144	44	55
1204.075440443	128	85	64
1204.086014287	128	62	64
1204.088650189	144	76	91
1204.103414171	128	69	64
1204.117901658	128	64	64
1204.132685734	128	94	64
1204.150484508	128	76	64
1204.160619047	128	44	64
1204.169643046	144	69	113
1204.195537754	144	64	115
1204.19581298	144	85	120
1204.240135658	144	76	90
1204.249702455	144	44	56
1204.274708067	128	69	64
1204.290214384	128	64	64
1204.290656912	128	85	64
1204.317364712	128	76	64
1204.322197159	128	44	64
1204.353630492	144	69	113
1204.359125268	144	64	112
1204.40539317	144	76	91
1204.409719672	144	44	61
1204.410174663	144	85	127
1204.4557251	128	64	64
1204.463848053	128	69	64
1204.484468998	128	76	64
1204.493571218	128	85	64
1204.506993134	128	44	64
1204.529887402	144	64	110
1204.547482958	144	69	114
1204.5567231	144	76	93
1204.588424731	144	94	127
1204.593910624	128	64	64
1204.596745983	144	44	64
1204.6349923	128	76	64
1204.641514098	144	41	47
1204.654538644	144	85	122
1204.662340611	128	69	64
1204.671974422	128	44	64
1204.672967507	128	94	64
1204.68806441	128	41	64
1204.70706858	144	76	95
1204.709574485	128	85	64
1204.744615701	144	69	113
1204.760206162	144	44	66
1204.801169709	128	76	64
1204.849361724	144	85	127
1204.851300196	128	69	64
1204.853206851	144	41	67
1204.856498795	128	44	64
1204.857816816	144	76	96
1204.908744571	128	85	64
1204.91096818	128	41	64
1204.934008436	128	76	64
1204.939179302	144	69	114
1204.947009934	144	44	68
1205.021035747	144	76	99
1205.027851371	144	41	73
1205.040969263	128	44	64
1205.052815733	144	85	119
1205.062565383	128	69	64
1205.075517431	128	41	64
1205.101512306	128	76	64
1205.125683287	128	85	64
1205.14451168	144	69	118
1205.146195983	144	44	65
1205.172138406	144	76	98
1205.183934778	144	41	78
1205.203925328	144	94	127
1205.215387897	128	41	64
1205.236547924	128	69	64
1205.251147885	128	76	64
1205.257951172	128	94	64
1205.263320209	144	85	114
1205.298602465	128	44	64
1205.314397473	144	41	84
1205.327935021	144	69	119
1205.32818593	128	85	64
1205.339478485	144	76	99
1205.377205077	128	41	64
1205.39593822	144	44	62
1205.417314194	128	76	64
1205.421175861	144	94	127
1205.438126849	128	69	64
1205.478161741	144	41	95
1205.482942956	144	85	113
1205.4879969	128	94	64
1205.504574333	144	69	118
1205.506643267	144	76	99
1205.523755262	128	41	64
1205.544428124	128	85	64
1205.547970326	128	44	64
1205.584648029	128	76	64
1205.593179399	144	44	58
1205.61972092	128	69	64
1205.634557169	144	41	104
1205.677627601	128	41	64
1205.696687576	144	69	117
1205.706810375	144	85	113
1205.712084417	144	76	99
1205.738640116	128	44	64
1205.751249251	128	76	64
1205.758883202	128	85	64
1205.765846948	144	41	110
1205.79650508	144	44	66
1205.806456492	128	69	64
1205.811494644	128	41	64
1205.822463092	144	76	100
1205.872554345	128	44	64
1205.875641059	144	69	119
1205.919340899	128	76	64
1205.937195281	144	94	127
1205.938478536	144	85	101
1205.941396538	144	41	121
1205.979044138	144	44	66
1205.992948995	128	69	64
1205.994252159	128	85	64
1205.995028685	144	76	100
1205.998295283	128	41	64
1206.004878118	128	94	64
1206.0573823	144	69	119
1206.068947158	128	76	64
1206.072343069	128	44	64
1206.093396894	144	41	127
1206.131852516	144	85	113
1206.140336066	144	76	100
1206.161281141	128	69	64
1206.197526688	144	44	65
1206.209654398	128	85	64
1206.218273943	128	76	64
1206.249162755	144	69	119
1206.265776115	144	62	93
1206.293351598	144	76	101
1206.306358848	128	62	64
1206.36531118	128	44	64
1206.365629597	144	85	109
1206.365839801	128	69	64
1206.385969146	128	76	64
1206.424945685	128	85	64
1206.437378096	144	94	127
1206.444043186	144	69	119
1206.447847032	144	62	89
1206.458377883	144	76	102
1206.487594899	128	62	64
1206.505204496	128	94	64
1206.533984083	128	76	64
1206.538369023	144	44	51
1206.558921685	128	69	64
1206.562909458	144	85	103
1206.607056256	144	76	103
1206.611137159	144	62	88
1206.623034154	128	44	64
1206.625235045	128	85	64
1206.634243017	144	69	118
1206.684159973	128	76	64
1206.690849367	128	62	64
1206.741796557	144	76	102
1206.749832899	128	69	64
1206.766897382	144	44	56
1206.779272333	144	85	104
1206.834054311	128	76	64
1206.842843677	128	85	64
1206.847440219	144	69	119
1206.856726175	128	44	64
1206.898952604	144	62	89
1206.907040245	144	76	101
1206.951496955	128	69	64
1206.95490749	128	62	64
1206.965280335	144	44	58
1206.984798054	128	76	64
1207.017287504	144	85	105
1207.027504955	144	69	119
1207.037211379	144	94	127
1207.056995079	144	76	101
1207.061113748	128	85	64
1207.120111133	128	94	64
1207.136882551	128	76	64
1207.147085855	144	62	90
1207.155380499	128	69	64
1207.214534702	144	94	127
1207.223067684	144	76	101
1207.225258731	144	69	124
1207.234209861	144	85	110
1207.242886401	128	62	64
1207.294743579	128	85	64
1207.301620728	128	76	64
1207.321309556	128	69	64
1207.323014085	128	94	64
1207.349516762	128	44	64
1207.356364248	144	76	100
1207.410437022	144	69	122
1207.411564081	144	62	95
1207.434415905	144	85	106
1207.450706883	128	76	64
1207.451795732	144	44	73
1207.471920271	128	62	64
1207.493668335	128	85	64
1207.526145479	128	69	64
1207.540841785	144	76	100
1207.541116627	144	62	93
1207.601123691	128	76	64
1207.615088037	144	69	121
1207.641494171	128	62	64
1207.69041115	144	76	99
1207.69972494	128	44	64
1207.742488196	128	69	64
1207.768068916	128	76	64
1207.796745617	144	69	122
1207.821773219	144	94	127
1207.859879417	144	76	99
1207.888424887	128	94	64
1207.913758687	128	69	64
1207.934619121	128	76	64
1207.999117363	144	69	124
1208.006952655	144	76	98
1208.016891931	128	41	64
1208.082625452	144	85	108
1208.082885067	144	62	92
1208.084078481	128	76	64
1208.113266643	128	85	64
1208.11863982	128	69	64
1208.171515996	144	76	96
1208.19343456	144	69	125
1208.220181136	144	94	127
1208.227859053	128	62	64
1208.244697031	128	94	64
1208.248055888	144	85	107
1208.251697452	128	76	64
1208.2953939	128	85	64
1208.30433453	128	69	64
1208.340005519	144	76	97
1208.379144511	144	94	127
1208.380997727	144	62	95
1208.398152526	144	69	125
1208.418226391	128	76	64
1208.419221583	144	85	108
1208.478532121	128	85	64
1208.489014184	128	69	64
1208.495374207	128	62	64
1208.509808069	144	76	96
1208.530084467	128	94	64
1208.56396489	144	69	125
1208.583983547	128	76	64
1208.585610175	144	85	106
1208.611919174	128	85	64
1208.671168511	144	76	96
1208.674958371	144	62	83
1208.677975099	128	69	64
1208.732806127	144	85	108
1208.740927055	128	62	64
1208.751637356	128	76	64
1208.76810315	144	69	124
1208.795673205	128	85	64
1208.800800461	144	41	37
1208.803392324	144	94	125
1208.808294097	144	60	102
1208.82489038	144	62	81
1208.837024756	128	94	64
1208.83885381	144	76	95
1208.858304198	128	41	64
1208.87453873	128	69	64
1208.886014359	144	85	101
1208.904271672	128	62	64
1208.918009142	128	76	64
1208.944493053	128	85	64
1208.960781161	144	41	44
1208.971994271	144	69	126
1208.982536595	144	94	127
1208.985558092	144	85	101
1208.993420422	128	94	64
1209.004962766	144	76	95
1209.023044182	128	41	64
1209.07695451	128	85	64
1209.085005815	128	76	64
1209.091878079	128	69	64
1209.117777381	144	41	50
1209.165089489	144	85	99
1209.169643075	144	69	123
1209.175596618	128	41	64
1209.17762168	144	76	98
1209.185317	144	62	79
1209.230078593	128	85	64
1209.23855844	128	62	64
1209.252370113	128	76	64
1209.269390171	144	85	106
1209.273520964	144	41	63
1209.324512452	128	69	64
1209.329048702	128	85	64
1209.334175325	128	41	64
1209.381276039	144	69	125
1209.396578637	144	76	98
1209.416619102	144	41	76
1209.41770493	128	76	64
1209.422023402	128	60	64
1209.446480576	144	62	77
1209.468547021	144	85	127
1209.49707806	128	69	64
1209.501947072	128	41	64
1209.512161726	128	85	64
1209.549991114	144	85	90
1209.561377571	144	76	98
1209.569899084	144	41	86
1209.577418474	128	62	64
1209.579282735	144	69	124
1209.594789137	128	85	64
1209.601653555	128	76	64
1209.608606343	144	94	127
1209.623802633	128	94	64
1209.626816197	144	41	125
1209.658973763	144	85	101
1209.67822093	128	85	64
1209.690365422	144	76	99
1209.692212628	128	69	64
1209.71474182	144	85	85
1209.728193382	128	41	64
1209.728258347	144	41	94
1209.746710098	144	62	72
1209.760010165	128	85	64
1209.76775387	128	76	64
1209.79694673	144	85	96
1209.801444864	144	69	125
1209.806581249	128	62	64
1209.838424939	144	76	99
1209.844210696	128	85	64
1209.896817979	144	62	75
1209.897232263	144	85	83
1209.918695347	128	76	64
1209.919855532	128	69	64
1209.927977049	128	85	64
1209.938930838	144	33	97
1209.976777376	128	62	64
1210.005674665	144	69	122
1210.007439094	144	76	101
1210.025167302	144	62	77
1210.029835393	128	33	64
1210.062815213	144	85	87
1210.072918793	144	94	127
1210.084347516	128	76	64
1210.096048145	128	85	64
1210.142189358	128	94	64
1210.144138352	128	62	64
1210.159224419	128	69	64
1210.174064089	144	76	100
1210.21173363	144	69	125
1210.214588839	144	85	87
1210.26514869	128	85	64
1210.317654822	128	76	64
1210.331581143	144	64	124
1210.346057681	128	69	64
1210.355698034	144	76	104
1210.382612124	144	85	85
1210.412384426	128	85	64
1210.418451749	128	76	64
1210.438035352	144	69	124
1210.545258839	144	85	108
1210.562407093	144	76	103
1210.569414216	128	69	64
1210.596772481	128	85	64
1210.601692488	128	76	64
1210.620094	144	94	127
1210.652356373	144	69	126
1210.674125149	144	76	101
1210.674327239	128	94	64
1210.751959422	128	76	64
1210.756124696	128	69	64
1210.77002142	144	85	100
1210.812875586	128	85	64
1210.821781776	144	94	127
1210.840895225	144	76	100
1210.846600743	144	69	123
1210.88853664	128	94	64
1210.917549428	128	76	64
1210.952528586	144	85	108
1210.95587428	128	69	64
1210.981527229	128	41	64
1210.996161174	128	85	64
1211.00714942	144	76	100
1211.019630312	144	85	94
1211.040814188	144	69	123
1211.052559372	144	33	107
1211.062006785	128	85	64
1211.067893429	128	76	64
1211.084128592	144	85	114
1211.145251839	128	85	64
1211.151571039	128	69	64
1211.155378839	144	76	101
1211.183228845	144	85	102
1211.203102471	128	64	64
1211.228573411	128	85	64
1211.230513121	144	69	125
1211.233452362	128	33	64
1211.235154453	128	76	64
1211.265084881	144	85	107
1211.309745835	144	76	101
1211.312161006	128	85	64
1211.34898453	144	85	98
1211.358531627	128	69	64
1211.371468658	144	94	127
1211.395247432	128	85	64
1211.400859675	128	76	64
1211.424307482	128	94	64
1211.431564072	144	85	109
1211.447822473	144	69	126
1211.461788904	128	85	64
1211.493746244	144	76	99
1211.515671184	144	85	101
1211.550610244	128	69	64
1211.561552107	128	85	64
1211.568385352	128	76	64
1211.599926305	144	85	109
1211.642853656	144	69	125
1211.646968806	128	85	64
1211.660934103	144	76	100
1211.683170519	144	85	98
1211.71781568	128	76	64
1211.730590701	128	85	64
1211.756637034	128	69	64
1211.767099644	144	85	98
1211.811640781	128	85	64
1211.83541689	144	69	124
1211.861154583	144	76	99
1211.868584865	144	85	92
1211.878783859	128	85	64
1211.887221198	144	94	127
1211.901750615	128	76	64
1211.949778055	128	69	64
1211.955085873	128	94	64
1211.989961333	144	76	97
1212.031710508	144	69	125
1212.051410484	128	76	64
1212.101387866	144	62	111
1212.102086858	144	85	114
1212.133896783	128	85	64
1212.137084092	128	69	64
1212.137634112	128	62	64
1212.139957897	144	76	99
1212.171490807	144	33	98
1212.205103595	144	69	125
1212.219320901	128	76	64
1212.287908588	144	85	107
1212.298980836	128	69	64
1212.307221169	144	76	100
1212.346813651	128	85	64
1212.36862856	128	76	64
1212.4501905	144	85	109
1212.454953874	144	94	127
1212.457231135	144	76	101
1212.484524518	144	62	108
1212.508597104	128	94	64
1212.533738324	128	85	64
1212.53567094	128	76	64
1212.578311215	128	62	64
1212.600516604	144	85	105
1212.623240206	144	76	104
1212.663942076	128	85	64
1212.67049584	144	94	127
1212.691899246	128	94	64
1212.701952075	128	76	64
1212.718878579	144	85	112
1212.784507826	128	33	64
1212.784852165	144	62	116
1212.790548265	144	76	106
1212.814902874	128	85	64
1212.852102278	128	76	64
1212.874381637	128	62	64
1212.882335831	144	41	53
1212.921745667	144	85	103
1212.940963812	144	76	105
1212.9417555	128	41	64
1212.980965794	128	85	64
1213.018812143	128	76	64
1213.050744019	144	85	106
1213.054985081	144	41	57
1213.082171001	144	62	117
1213.098646155	128	41	64
1213.107219014	144	76	105
1213.11226064	128	85	64
1213.137229026	144	94	127
1213.144232294	128	62	64
1213.168958471	128	76	64
1213.182088504	144	85	102
1213.193645634	144	41	66
1213.217240131	144	62	117
1213.222979448	128	94	64
1213.256704521	144	76	102
1213.259840204	128	41	64
1213.263015683	128	85	64
1213.310386955	128	62	64
1213.311972809	144	33	63
1213.334231367	144	85	112
1213.334393626	128	76	64
1213.352626068	144	41	72
1213.410151259	128	41	64
1213.413202635	128	85	64
1213.424096739	144	76	106
1213.472722061	144	85	103
1213.484532936	128	76	64
1213.485154694	144	41	80
1213.519232141	144	62	114
1213.546670878	128	85	64
1213.551005484	128	41	64
1213.574089955	144	76	108
1213.590436936	144	67	98
1213.602866084	144	85	114
1213.612838032	128	62	64
1213.639434887	144	41	90
1213.6519786	128	76	64
1213.670309788	144	94	126
1213.679868479	128	85	64
1213.682511239	128	41	64
1213.722054995	144	85	103
1213.723858531	128	94	64
1213.728956795	128	67	64
1213.739684151	144	76	111
1213.796767557	128	85	64
1213.818601279	128	76	64
1213.820716835	144	62	117
1213.827354929	144	41	98
1213.852046706	144	85	114
1213.880147147	128	41	64
1213.91082193	144	76	113
1213.914268898	128	85	64
1213.92799284	128	62	64
1213.928301694	144	41	107
1213.967560717	144	85	104
1213.985407768	128	76	64
1214.008596786	128	41	64
1214.029857061	128	85	64
1214.074499948	144	76	112
1214.077974846	144	41	114
1214.083492072	128	33	64
1214.101784344	144	85	115
1214.116091924	144	62	118
1214.135179021	128	76	64
1214.146083449	128	41	64
1214.146179758	128	85	64
1214.177098634	128	62	64
1214.18438358	144	85	100
1214.228863095	144	41	121
1214.242114117	144	76	109
1214.243895617	144	62	118
1214.247517327	128	85	64
1214.287352539	144	94	126
1214.297001076	128	41	64
1214.316446884	144	85	110
1214.318257893	128	76	64
1214.328990576	128	62	64
1214.338200175	128	94	64
1214.378091261	144	62	116
1214.385817433	144	41	127
1214.391145779	144	76	104
1214.396331788	128	85	64
1214.417452668	144	85	100
1214.440420922	128	62	64
1214.444064476	128	41	64
1214.464847289	144	64	127
1214.48561675	128	76	64
1214.496934278	128	85	64
1214.504333897	144	94	126
1214.519411494	144	33	79
1214.539828909	144	85	113
1214.54544163	144	41	127
1214.557668689	144	76	101
1214.572103269	128	94	64
1214.598217647	128	85	64
1214.627756797	144	62	120
1214.634967709	128	76	64
1214.636829712	144	85	106
1214.697219197	128	85	64
1214.707279865	128	62	64
1214.725333579	144	76	97
1214.735966887	144	85	123
1214.779944525	128	85	64
1214.801527178	128	76	64
1214.819869762	144	85	109
1214.865221685	128	85	64
1214.891406149	144	76	90
1214.90131037	144	85	117
1214.911384132	144	62	127
1214.963779154	128	85	64
1214.985286951	128	76	64
1215.001863886	144	85	106
1215.025273689	128	62	64
1215.042559168	144	76	84
1215.047617007	128	85	64
1215.054133843	144	94	126
1215.085046546	144	85	119
1215.13121889	128	85	64
1215.140095874	128	94	64
1215.183956475	144	85	108
1215.187307614	128	76	64
1215.19809	144	62	127
1215.224866516	128	64	64
1215.226644779	144	76	77
1215.231514537	128	85	64
1215.268236351	144	85	121
1215.274896994	128	62	64
1215.316444259	128	85	64
1215.31831641	128	76	64
1215.352988818	144	85	107
1215.354480832	144	76	70
1215.361900487	144	62	127
1215.401413372	128	33	64
1215.413759641	128	85	64
1215.442108832	128	62	64
1215.449799591	144	85	115
1215.498184923	128	76	64
1215.524918546	144	76	62
1215.530160935	128	85	64
1215.554272935	144	94	127
1215.600338879	144	85	100
1215.618349469	128	76	64
1215.639869935	128	94	64
1215.648785648	144	62	127
1215.664319498	128	85	64
1215.690620219	144	76	50
1215.725823145	128	62	64
1215.746826683	144	85	111
1215.764641732	128	85	64
1215.768962981	144	33	116
1215.785623066	128	76	64
1215.835122112	144	85	108
1215.842031814	144	76	40
1215.898971329	128	85	64
1215.934855224	128	76	64
1215.953809217	144	85	117
1215.969951893	144	62	127
1215.999543976	128	85	64
1216.023662053	144	76	29
1216.045307384	128	62	64
1216.067964873	144	85	106
1216.102249667	128	76	64
1216.116155281	128	85	64
1216.169524484	144	85	116
1216.170993306	144	94	126
1216.190868047	144	76	23
1216.213768554	128	85	64
1216.22355343	128	94	64
1216.253529675	144	62	127
1216.267190712	144	85	107
1216.268938184	128	76	64
1216.308406287	128	62	64
1216.357872973	144	76	28
1216.363193343	128	85	64
1216.36913923	144	94	127
1216.384452878	144	85	114
1216.387056551	128	94	64
1216.414410351	144	62	127
1216.434954697	128	76	64
1216.463938713	128	85	64
1216.497597789	128	62	64
1216.50230096	144	85	107
1216.523658561	144	76	34
1216.564711676	128	85	64
1216.602642318	128	76	64
1216.603402648	144	85	111
1216.680845233	128	85	64
1216.691232515	144	76	41
1216.701593504	144	85	105
1216.740134012	144	62	127
1216.752546351	128	76	64
1216.798166474	128	85	64
1216.812942109	128	62	64
1216.839942021	144	85	112
1216.841556276	144	76	48
1216.899787051	128	85	64
1216.918872691	128	76	64
1216.920801215	144	94	126
1216.953591788	144	85	108
1216.988888651	128	94	64
1217.011812696	144	76	57
1217.016695302	128	85	64
1217.070572315	144	62	127
1217.085548164	128	76	64
1217.085890879	144	85	116
1217.11439375	128	62	64
1217.149527395	128	85	64
1217.157728423	144	76	59
1217.198999106	144	62	127
1217.219607694	144	85	109
1217.234862531	128	76	64
1217.258318488	128	62	64
1217.290756819	128	85	64
1217.323889747	144	76	63
1217.35112138	144	85	108
1217.401891721	128	76	64
1217.447249925	128	85	64
1217.474414881	144	76	66
1217.48412164	144	85	110
1217.504479697	144	62	126
1217.5769744	128	62	64
1217.581306495	128	85	64
1217.618039729	128	76	64
1217.641213737	144	85	112
1217.642339604	144	76	73
1217.654601566	144	94	124
1217.698563205	128	85	64
1217.718489901	128	76	64
1217.72265106	128	94	64
1217.736232481	144	85	110
1217.807651489	144	76	75
1217.815227953	128	85	64
1217.82542438	144	62	124
1217.869145628	144	85	116
1217.876971217	128	62	64
1217.885361184	128	76	64
1217.932009224	128	85	64
1217.972132673	144	85	108
1217.974226666	144	76	81
1218.065570823	128	85	64
1218.068978692	128	76	64
1218.104851847	144	85	115
1218.109022317	144	62	122
1218.143830076	144	76	84
1218.160287047	128	62	64
1218.165516349	128	85	64
1218.200435166	128	33	64
1218.206331546	144	85	111
1218.219200232	128	76	64
1218.279544589	144	94	125
1218.284806487	144	62	116
1218.299290973	128	85	64
1218.308875437	144	76	87
1218.341634662	144	85	119
1218.347021294	128	62	64
1218.385928735	128	76	64
1218.389637057	128	94	64
1218.398829929	128	85	64
1218.470943871	144	85	107
1218.473542848	144	76	90
1218.515233094	128	85	64
1218.55203728	144	85	114
1218.552522903	128	76	64
1218.585122362	144	62	116
1218.615111431	128	85	64
1218.639329834	144	76	95
1218.651407235	144	85	106
1218.700053412	128	62	64
1218.719003638	128	76	64
1218.732156004	128	85	64
1218.770365897	144	85	120
1218.807230423	144	76	95
1218.832542199	128	85	64
1218.88586958	144	85	110
1218.886012329	128	76	64
1218.922636932	144	62	120
1218.949203495	128	85	64
1218.955727746	144	76	99
1218.974830097	144	94	125
1218.997344855	128	62	64
1219.004516703	144	85	121
1219.051259676	128	85	64
1219.052785343	128	76	64
1219.055686065	128	94	64
1219.08749567	144	62	80
1219.119597812	144	85	110
1219.123861457	144	76	106
1219.132261063	128	62	64
1219.16641144	128	85	64
1219.219203322	128	76	64
1219.21977586	144	85	117
1219.276186626	144	76	109
1219.282693385	128	85	64
1219.321761287	144	85	104
1219.368670064	128	76	64
1219.399319377	128	85	64
1219.405468325	144	85	116
1219.449539061	128	85	64
1219.449959321	144	60	101
1219.457622115	144	76	115
1219.535961196	128	76	64
1219.608076576	144	76	120
1219.629969848	144	94	125
1219.66587186	144	85	115
1219.68493355	128	76	64
1219.706091357	128	85	64
1219.775182469	144	76	126
1219.775988101	128	94	64
1219.792281693	144	85	101
1219.869151922	128	76	64
1219.870247869	128	85	64
1219.962307973	144	76	124
1219.996209306	144	85	112
1220.035252163	128	76	64
1220.051031658	128	85	64
1220.107864025	144	76	118
1220.147322668	144	85	106
1220.202791938	128	76	64
1220.237773594	128	85	64
1220.276810557	144	76	114
1220.30115928	128	60	64
1220.304466917	144	85	110
1220.387381041	128	85	64
1220.421280174	128	76	64
1220.441858022	144	76	109
1220.454541833	144	85	100
1220.535446974	128	76	64
1220.556269682	128	85	64
1220.608077518	144	76	104
1220.624937879	144	85	106
1220.684629502	128	85	64
1220.702522035	128	76	64
1220.72423953	144	62	116
1220.755814863	144	85	96
1220.7589695	128	62	64
1220.778897167	144	76	100
1220.856137456	128	85	64
1220.869289097	128	76	64
1220.925768372	144	76	96
1220.945313141	144	85	104
1221.004037717	128	85	64
1221.072930279	128	76	64
1221.090019999	144	76	91
1221.109400115	144	85	95
1221.185771	128	76	64
1221.189957223	128	85	64
1221.258318994	144	76	88
1221.262905251	144	85	109
1221.318540779	128	85	64
1221.35200315	128	76	64
1221.409337437	144	85	106
1221.40991641	144	76	83
1221.424017894	144	64	127
1221.50248562	128	76	64
1221.506535966	128	85	64
1221.572208424	144	76	79
1221.612100131	144	85	96
1221.669343541	128	85	64
1221.669464897	128	76	64
1221.741247427	144	76	74
1221.790540413	144	85	88
1221.83626827	128	76	64
1221.849438208	128	85	64
1221.908066748	144	76	71
1221.951560059	144	33	116
1221.958636224	144	85	103
1222.002741898	128	76	64
1222.017700667	128	85	64
1222.075478253	144	76	66
1222.14034119	144	62	125
1222.16884448	144	85	125
1222.169464151	128	76	64
1222.218117381	128	85	64
1222.218447056	128	62	64
1222.240823517	144	76	61
1222.336176231	128	76	64
1222.362798591	144	85	114
1222.392629801	144	76	59
1222.418869376	128	85	64
1222.436282207	144	62	127
1222.511673898	144	85	109
1222.511857588	128	85	64
1222.511907069	144	85	84
1222.534400264	128	62	64
1222.536873771	128	76	64
1222.555024851	128	85	64
1222.559358335	144	76	53
1222.626665732	128	64	64
1222.703317114	128	76	64
1222.712754538	144	85	89
1222.725566676	144	76	48
1222.751229247	128	85	64
1222.753566414	144	62	124
1222.815847007	128	62	64
1222.818853717	128	76	64
1222.891563628	144	76	43
1222.904627413	144	62	125
1222.907161386	144	85	114
1222.917465855	128	85	64
1222.986453404	128	76	64
1223.001452646	128	62	64
1223.077710116	144	76	42
1223.079726162	144	85	109
1223.118768351	128	85	64
1223.135586306	128	76	64
1223.209634045	144	76	48
1223.225243873	144	85	95
1223.255662181	144	62	127
1223.284934227	128	85	64
1223.285649192	128	76	64
1223.313088326	128	62	64
1223.341732229	128	94	64
1223.358306865	144	76	51
1223.405652428	144	85	103
1223.433153503	144	64	127
1223.435479171	128	76	64
1223.451747639	128	85	64
1223.508626671	144	76	55
1223.575828549	144	62	127
1223.586458292	128	76	64
1223.5922463	144	85	104
1223.619647866	128	85	64
1223.62845627	128	62	64
1223.675762809	144	76	62
1223.752921345	128	76	64
1223.760329739	144	85	112
1223.801978622	128	85	64
1223.803810522	144	62	127
1223.825033495	144	76	67
1223.884762526	128	62	64
1223.902942968	128	76	64
1223.938451283	144	85	111
1223.976792508	144	76	71
1224.001258164	128	85	64
1224.004067031	144	62	127
1224.053143087	128	76	64
1224.089480503	128	41	64
1224.101411843	128	62	64
1224.139131421	144	85	105
1224.144716995	128	64	64
1224.14584653	144	76	74
1224.185331921	128	85	64
1224.219080276	128	76	64
1224.289813138	144	76	77
1224.305895255	144	85	102
1224.340665305	144	62	127
1224.369332648	128	76	64
1224.369501631	128	85	64
1224.395596712	128	62	64
1224.458582499	144	76	80
1224.492332276	144	85	102
1224.53628636	128	76	64
1224.536836059	128	85	64
1224.624703084	144	76	84
1224.67587319	144	85	105
1224.702213535	128	76	64
1224.718756161	128	85	64
1224.842710497	144	85	92
1224.846429018	144	76	93
1224.869311703	128	76	64
1224.886797612	128	85	64
1224.898881524	144	69	101
1224.957669293	144	76	93
1224.992795249	144	85	92
1225.017557139	128	69	64
1225.036383233	128	76	64
1225.053824459	128	85	64
1225.124458677	144	76	98
1225.129133628	144	41	49
1225.158420976	128	41	64
1225.176274759	144	85	92
1225.205558018	128	76	64
1225.241948254	128	85	64
1225.275684993	144	76	102
1225.323722739	144	85	94
1225.36949629	128	76	64
1225.371664867	144	41	53
1225.399389469	128	41	64
1225.40251538	128	85	64
1225.456778052	144	76	112
1225.523861947	144	85	93
1225.536203573	128	76	64
1225.580527683	144	41	61
1225.58833474	128	85	64
1225.611863827	128	41	64
1225.625551378	144	76	116
1225.703159051	128	76	64
1225.726550048	144	85	103
1225.729379156	144	41	64
1225.767055968	128	33	64
1225.783212993	128	41	64
1225.794468515	144	76	120
1225.80275831	128	85	64
1225.855617973	144	60	90
1225.869765878	128	76	64
1225.887828691	144	41	75
1225.916144851	128	41	64
1225.92396298	144	85	104
1225.958593941	144	76	120
1226.00417456	128	85	64
1226.018322172	144	41	78
1226.018518679	144	33	117
1226.037072731	128	76	64
1226.059977621	128	41	64
1226.12554214	144	76	121
1226.127114294	144	85	104
1226.159440307	144	41	84
1226.186551173	128	85	64
1226.20310015	128	76	64
1226.228353934	128	41	64
1226.229527635	144	41	51
1226.229754745	128	41	64
1226.256712722	144	41	88
1226.291296339	144	76	120
1226.325268956	128	41	64
1226.326542406	144	85	109
1226.369961235	128	76	64
1226.403301089	128	85	64
1226.412781039	144	41	93
1226.44720937	128	41	64
1226.458305794	144	76	117
1226.511514894	144	85	115
1226.536597617	128	76	64
1226.542047435	144	41	103
1226.58751403	128	41	64
1226.604152322	128	85	64
1226.625422761	144	76	108
1226.664280685	144	41	52
1226.672747568	128	41	64
1226.672800479	144	41	105
1226.694408271	144	85	116
1226.702655047	128	41	64
1226.702711161	144	41	52
1226.720503279	128	76	64
1226.746001893	128	60	64
1226.787562264	128	85	64
1226.790395765	144	76	99
1226.807371085	128	41	64
1226.861589435	144	41	111
1226.862614444	128	41	64
1226.862662089	144	41	53
1226.871333423	128	76	64
1226.910399816	144	85	121
1226.959527713	144	76	94
1226.973046809	128	41	64
1226.973112649	144	41	122
1226.973351688	128	85	64
1227.028786678	128	41	64
1227.028860217	144	41	53
1227.036385525	128	76	64
1227.043759893	128	41	64
1227.088495018	144	60	98
1227.11153873	144	85	125
1227.125764479	144	76	88
1227.136279099	144	41	127
1227.190061145	128	85	64
1227.219936567	128	76	64
1227.276896699	144	76	84
1227.327258725	144	85	122
1227.370128515	128	76	64
1227.405630514	128	85	64
1227.424429333	144	76	79
1227.518957501	128	76	64
1227.527629252	144	85	118
1227.589969633	144	76	74
1227.605027171	128	85	64
1227.686446559	128	76	64
1227.744403844	144	85	117
1227.758741785	144	76	71
1227.820690959	128	85	64
1227.853679645	128	76	64
1227.910361838	144	76	65
1227.961428175	144	85	120
1228.003511426	128	76	64
1228.05475912	128	85	64
1228.075673058	144	76	62
1228.170206	128	76	64
1228.17758036	144	85	119
1228.22549956	144	76	57
1228.257507781	128	85	64
1228.26716811	128	60	64
1228.307871601	128	41	64
1228.307953486	144	41	32
1228.368980764	128	76	64
1228.37562854	144	62	127
1228.379397952	144	85	118
1228.393190056	144	76	53
1228.40253168	128	62	64
1228.455665678	128	85	64
1228.485906122	128	76	64
1228.512724886	144	60	95
1228.523235744	144	62	127
1228.559817824	144	76	52
1228.5613299	144	85	115
1228.566878226	128	62	64
1228.601484157	128	33	64
1228.640816385	128	85	64
1228.652441318	128	76	64
1228.687240977	144	62	126
1228.710200781	144	76	55
1228.733204959	128	62	64
1228.761145356	144	85	115
1228.802847937	128	76	64
1228.837615463	128	85	64
1228.873178902	144	76	57
1228.926401505	144	62	126
1228.953254457	128	76	64
1228.962095088	144	85	117
1228.965998508	128	62	64
1229.001830141	128	60	64
1229.032338258	144	76	61
1229.038833731	128	85	64
1229.071368618	144	62	127
1229.10308298	128	76	64
1229.149882625	128	62	64
1229.158887942	144	76	63
1229.162519837	144	85	115
1229.173576269	144	44	60
1229.21849846	144	62	127
1229.239385692	128	85	64
1229.253558018	128	76	64
1229.301049991	128	62	64
1229.318423433	128	44	64
1229.325740391	144	76	68
1229.378849405	144	85	102
1229.399637961	144	44	65
1229.404287755	128	76	64
1229.440221297	128	85	64
1229.45717261	144	62	126
1229.475037541	144	76	71
1229.51634495	128	62	64
1229.553744836	128	76	64
1229.561844065	144	85	108
1229.567226052	128	44	64
1229.623841702	144	62	126
1229.62404036	128	85	64
1229.628187244	144	44	69
1229.64702488	144	76	76
1229.652323628	144	33	116
1229.703802862	128	62	64
1229.719208657	128	76	64
1229.761875985	144	85	109
1229.77569206	144	76	77
1229.800658584	128	44	64
1229.813937647	144	64	126
1229.824406816	128	85	64
1229.869696845	128	76	64
1229.877613928	144	44	63
1229.90742639	144	62	125
1229.939805734	144	76	83
1229.94544217	144	85	110
1229.966074263	128	62	64
1230.020246263	128	76	64
1230.021527192	128	85	64
1230.033996086	144	62	125
1230.109396318	144	76	89
1230.117034952	128	62	64
1230.145573946	144	85	111
1230.186912617	128	76	64
1230.206192214	128	85	64
1230.258360434	144	76	91
1230.321475836	144	62	124
1230.336737308	128	76	64
1230.345795369	144	85	108
1230.386213868	128	62	64
1230.408320739	144	76	96
1230.421924276	128	85	64
1230.503701956	128	76	64
1230.545568479	144	85	109
1230.563878098	144	76	99
1230.574377084	144	62	126
1230.607247141	128	85	64
1230.653737872	128	76	64
1230.654715851	128	62	64
1230.710013049	144	76	102
1230.729400048	144	85	104
1230.802795038	128	44	64
1230.803252877	128	76	64
1230.805287933	128	85	64
1230.861335381	144	62	125
1230.875040264	144	76	107
1230.894406202	144	44	58
1230.936140811	128	62	64
1230.936965178	144	67	99
1230.945806321	144	85	105
1230.953795801	128	76	64
1230.977261099	128	44	64
1231.006569439	128	85	64
1231.024274841	144	76	110
1231.058455873	144	62	125
1231.066699311	144	44	65
1231.071528184	144	41	32
1231.122160091	128	76	64
1231.138411751	128	62	64
1231.146078665	144	85	110
1231.189466422	128	85	64
1231.195063057	144	76	116
1231.241389548	144	62	126
1231.270440813	128	76	64
1231.322165422	128	62	64
1231.341510956	144	76	118
1231.34600225	144	85	106
1231.407961644	128	85	64
1231.436956203	128	76	64
1231.441385777	144	62	125
1231.500646531	128	62	64
1231.527174065	144	76	119
1231.546405439	144	85	83
1231.603801789	128	76	64
1231.606591321	128	85	64
1231.635816089	128	67	64
1231.666776665	144	62	126
1231.685734764	128	44	64
1231.691375271	144	76	117
1231.761723656	144	69	107
1231.783114765	128	62	64
1231.790360821	128	76	64
1231.880486495	144	76	112
1231.892017652	144	62	125
1231.956268367	128	76	64
1232.032320372	128	62	64
1232.04533943	144	76	107
1232.137234113	128	76	64
1232.178542531	128	44	64
1232.202372377	144	62	127
1232.209080561	144	76	100
1232.21519992	128	62	64
1232.261331372	144	85	54
1232.30377881	128	76	64
1232.363698547	144	76	94
1232.37209287	144	62	127
1232.398524944	128	62	64
1232.445195932	144	67	109
1232.45282581	128	76	64
1232.523901057	144	76	91
1232.560912332	144	62	127
1232.597907335	128	85	64
1232.599558959	128	62	64
1232.667468158	128	76	64
1232.696480337	144	76	85
1232.733143868	144	62	127
1232.765774937	128	62	64
1232.786152165	128	76	64
1232.858664037	144	76	79
1232.899597527	128	64	64
1232.901012239	144	62	127
1232.953826773	128	76	64
1232.96783936	128	67	64
1232.991332147	128	62	64
1232.999649176	144	64	127
1233.026318539	144	76	75
1233.053892483	128	41	64
1233.101066339	144	62	126
1233.120766382	128	76	64
1233.177098608	144	76	70
1233.183553718	128	62	64
1233.346969344	128	76	64
1233.347215127	144	76	65
1233.454201437	128	76	64
1233.51022776	144	76	61
1233.603062058	128	76	64
1233.675945849	144	76	59
1233.770509511	128	76	64
1233.78093902	144	85	118
1233.843221217	144	76	58
1233.890539756	128	69	64
1233.920519866	128	76	64
1233.926956055	128	33	64
1233.934160741	144	62	126
1233.987443708	128	62	64
1234.009344249	144	76	60
1234.086487479	128	76	64
1234.092915041	144	62	126
1234.159016849	144	76	62
1234.168976956	128	62	64
1234.253943782	128	76	64
1234.329208617	144	76	67
1234.404544176	128	76	64
1234.438800304	128	85	64
1234.492153987	144	76	69
1234.49356381	144	60	88
1234.570784736	128	76	64
1234.614718806	144	62	126
1234.658781741	144	76	73
1234.67229418	128	62	64
1234.737543455	128	76	64
1234.805370346	144	62	125
1234.810777107	144	76	76
1234.821753565	144	41	36
1234.887532795	128	76	64
1234.913040042	128	41	64
1234.959365377	144	76	79
1234.969363518	144	33	124
1235.025632911	144	96	26
1235.03174979	144	41	43
1235.037404254	128	76	64
1235.090225547	128	41	64
1235.125750122	144	76	82
1235.187117081	144	41	51
1235.203802033	128	76	64
1235.259328861	128	41	64
1235.29247363	144	76	88
1235.333916922	128	60	64
1235.34102638	144	41	59
1235.354060546	128	76	64
1235.443061888	144	76	91
1235.447593687	128	41	64
1235.521433718	128	76	64
1235.528879754	144	41	68
1235.532123827	128	64	64
1235.596155315	128	41	64
1235.607354267	144	76	95
1235.62686362	128	96	64
1235.687593345	128	76	64
1235.699543162	144	96	43
1235.704119349	144	41	74
1235.724956584	128	41	64
1235.75965044	144	76	98
1235.85405137	128	76	64
1235.855755011	144	41	82
1235.884957098	128	41	64
1235.925850878	144	60	89
1235.929768178	144	76	101
1235.99316695	144	41	90
1236.020730533	128	76	64
1236.063921123	128	41	64
1236.093913078	144	76	106
1236.157549679	144	41	97
1236.171697523	128	76	64
1236.211160544	128	41	64
1236.242440662	144	76	110
1236.327394197	144	64	126
1236.327978809	144	41	105
1236.337297643	128	76	64
1236.352012893	128	96	64
1236.39903432	128	41	64
1236.40948395	128	62	64
1236.414054871	144	76	115
1236.449455946	144	96	64
1236.487420427	128	76	64
1236.55102154	144	41	116
1236.578968838	144	76	119
1236.601619504	128	96	64
1236.64344042	128	64	64
1236.672081841	128	76	64
1236.683729861	144	96	80
1236.734728312	144	62	121
1236.763078108	144	76	112
1236.83764613	128	76	64
1236.88488851	128	96	64
1236.928829373	144	76	106
1236.968126506	144	96	84
1237.004471484	128	76	64
1237.097304077	144	76	99
1237.134272459	144	64	125
1237.1714669	128	76	64
1237.243034413	144	76	94
1237.26243723	128	60	64
1237.302211034	128	96	64
1237.386954619	128	76	64
1237.411063925	144	76	89
1237.504161056	128	76	64
1237.575760881	144	76	82
1237.58509873	144	96	96
1237.670920542	128	76	64
1237.700652377	128	33	64
1237.741064652	144	76	77
1237.769584424	128	96	64
1237.807060115	144	67	74
1237.837526332	128	76	64
1237.897365633	144	76	72
1237.915020342	144	96	104
1237.987400132	128	76	64
1238.07381896	144	76	67
1238.153698581	128	76	64
1238.161134663	128	62	64
1238.224325905	144	76	60
1238.233073919	128	96	64
1238.284616485	128	67	64
1238.320736513	128	76	64
1238.377672056	144	76	54
1238.470100549	128	76	64
1238.54095125	144	76	49
1238.590212094	144	69	108
1238.637863927	128	76	64
1238.694372573	144	76	44
1238.716677766	144	96	97
1238.838637644	128	76	64
1238.864481751	144	76	39
1238.953450475	128	76	64
1239.015270121	144	62	121
1239.025660584	144	76	37
1239.068427224	128	96	64
1239.103772889	128	76	64
1239.210624497	144	96	96
1239.339335759	144	67	73
1239.374337705	128	64	64
1239.454561298	128	69	64
1239.569585518	128	96	64
1239.756992912	128	41	64
1239.785202123	144	64	124
1239.965024184	128	62	64
1240.167615618	144	62	116
1240.268971783	128	67	64
1240.447020067	144	41	31
1240.491960627	128	41	64
1240.649079777	144	41	33
1240.657990606	144	60	85
1240.687268583	144	76	114
1240.710466767	128	41	64
1240.742385324	128	76	64
1240.777938901	144	41	38
1240.851334632	128	41	64
1240.957436006	144	41	46
1241.000084036	128	41	64
1241.065834939	128	62	64
1241.080822649	144	67	70
1241.098511038	144	41	53
1241.149395288	144	62	109
1241.159292819	128	41	64
1241.261694079	144	41	61
1241.296735867	128	41	64
1241.386994765	128	60	64
1241.391747263	144	41	69
1241.424045931	128	41	64
1241.519625157	144	41	79
1241.572319933	128	41	64
1241.674214884	144	41	84
1241.745617384	128	41	64
1241.757023747	144	76	126
1241.789572383	128	76	64
1241.831008819	144	41	91
1241.877113115	128	41	64
1241.885099113	144	96	97
1241.987462172	144	41	101
1242.045544935	128	41	64
1242.116713685	144	41	108
1242.154088769	128	67	64
1242.201386709	128	41	64
1242.253565634	128	96	64
1242.294348564	144	41	116
1242.326062536	128	41	64
1242.352804793	144	85	127
1242.453940489	144	41	123
1242.46691751	128	41	64
1242.58611889	144	41	127
1242.607241366	144	67	68
1242.613276417	128	41	64
1242.716642738	144	41	125
1242.761526191	128	41	64
1242.769430795	144	96	96
1242.889832126	144	41	109
1242.944112417	128	41	64
1242.989545422	144	76	110
1242.995766489	128	62	64
1243.056142339	128	76	64
1243.131173946	144	41	101
1243.131425241	128	41	64
1243.148521222	144	69	104
1243.16907445	128	85	64
1243.200511831	144	62	107
1243.212957858	144	41	90
1243.231808605	128	96	64
1243.280859282	128	41	64
1243.368018615	128	67	64
1243.408956229	144	41	78
1243.449258858	128	41	64
1243.578374627	144	41	66
1243.651760313	128	41	64
1243.767256372	144	41	59
1243.829415993	128	41	64
1243.929623854	128	69	64
1243.960595723	144	41	51
1244.011828323	144	67	105
1244.012096984	128	41	64
1244.138120637	144	96	91
1244.168556703	144	41	42
1244.206007231	128	41	64
1244.234001835	144	76	102
1244.27354909	128	76	64
1244.362917241	144	41	39
1244.391035015	144	69	104
1244.466429022	128	41	64
1244.548978041	128	96	64
1244.563764558	144	41	39
1244.610445143	128	41	64
1244.71893725	128	64	64
1244.780373345	128	62	64
1244.879083181	144	64	127
1244.896768947	128	67	64
1244.90231009	144	96	97
1244.903297103	144	62	110
1244.994743293	128	64	64
1245.085713931	128	96	64
1245.280702439	144	64	127
1245.315752321	144	67	101
1245.390198006	128	64	64
1245.53939332	144	76	103
1245.588544947	128	76	64
1245.653322194	144	64	127
1245.712832342	144	96	90
1245.714284899	128	62	64
1245.738309117	128	64	64
1245.818875172	144	62	110
1245.885888822	128	96	64
1245.978099857	144	64	127
1246.03805176	128	64	64
1246.10728251	144	60	96
1246.148457421	128	67	64
1246.16745362	128	69	64
1246.394582059	144	64	127
1246.445225171	144	69	109
1246.531187342	128	62	64
1246.539776663	144	67	101
1246.540224125	128	64	64
1246.653823795	144	96	77
1246.677617268	128	69	64
1246.68956413	144	76	106
1246.768558014	144	62	106
1246.776087768	128	76	64
1246.870225625	128	96	64
1246.902865268	128	60	64
1247.011528369	144	69	105
1247.028890507	144	64	127
1247.131577085	128	69	64
1247.161483438	144	96	71
1247.316208548	128	67	64
1247.554566831	128	64	64
1247.57008018	128	96	64
1247.66733632	144	96	70
1247.732384331	144	76	112
1247.812995549	128	76	64
1247.815184414	144	69	102
1247.930287238	128	69	64
1247.941303206	144	67	95
1247.965520678	128	96	64
1248.031385895	144	96	80
1248.187152097	144	85	114
1248.222156413	144	69	102
1248.316747555	128	96	64
1248.383364774	128	69	64
1248.397281541	144	96	84
1248.416789246	144	64	127
1248.481133507	144	60	101
1248.649407136	128	62	64
1248.744943259	128	60	64
1248.753865723	128	85	64
1248.762817128	144	69	101
1248.767370855	144	62	104
1248.847193423	128	62	64
1248.862792624	128	96	64
1248.886937164	128	67	64
1248.93258386	144	62	107
1249.008890562	144	76	106
1249.025180638	128	64	64
1249.048256287	128	62	64
1249.05942448	128	76	64
1249.099397895	144	62	108
1249.133340501	128	69	64
1249.160031322	128	62	64
1249.182983731	144	67	102
1249.387390506	144	69	105
1249.420391046	144	62	102
1249.47593547	128	62	64
1249.499589078	128	69	64
1249.591630829	128	96	64
1249.614688243	144	64	124
1249.716531823	144	62	101
1249.793238446	128	62	64
1249.817552345	144	69	104
1249.914329362	128	69	64
1250.069756093	144	69	104
1250.169428561	128	64	64
1250.187928573	128	69	64
1250.189694528	144	76	104
1250.227562312	128	67	64
1250.267858391	128	76	64
1250.526850984	144	69	109
1250.640981976	144	67	108
1250.64445227	128	69	64
1250.689027601	144	60	95
1250.826965906	144	69	108
1250.940688613	128	69	64
1251.054337802	144	69	107
1251.144525408	128	69	64
1251.246056994	144	69	106
1251.37182132	128	69	64
1251.453257588	144	69	107
1251.48984725	144	62	95
1251.545292442	128	67	64
1251.551157784	128	69	64
1251.583982173	144	64	127
1251.637296714	128	64	64
1251.713599188	128	60	64
1251.735193169	144	64	127
1251.800098499	128	64	64
1251.947905554	144	67	106
1252.279024324	144	64	126
1252.338332625	128	64	64
1252.411063079	144	64	127
1252.468364693	128	62	64
1252.483348463	128	64	64
1252.63739257	144	69	106
1252.787526502	128	69	64
1252.80181885	128	67	64
1252.871263807	144	41	44
1252.886957088	128	41	64
1253.016311043	144	41	43
1253.058525139	128	41	64
1253.140034673	144	67	89
1253.187325286	144	41	45
1253.213397502	128	41	64
1253.311334589	144	41	55
1253.370951493	128	41	64
1253.372126398	144	85	127
1253.47980218	144	41	61
1253.528562224	128	67	64
1253.528946597	128	41	64
1253.571434133	144	62	92
1253.634406583	144	69	106
1253.641744151	144	41	68
1253.686491032	128	41	64
1253.749036864	128	69	64
1253.783011233	144	41	73
1253.82695085	144	64	127
1253.835773744	128	41	64
1253.972887603	144	41	77
1254.046760971	128	41	64
1254.057989175	128	85	64
1254.090089241	144	67	94
1254.149402715	144	41	80
1254.1969186	128	64	64
1254.210891414	128	41	64
1254.315112828	144	41	84
1254.318820758	128	62	64
1254.361716544	128	41	64
1254.456447261	144	41	93
1254.485601758	144	69	112
1254.512205609	128	41	64
1254.5926253	144	41	96
1254.639502391	144	76	103
1254.657958483	128	76	64
1254.660490876	128	41	64
1254.718164542	144	41	98
1254.831682005	128	41	64
1254.901937095	144	41	105
1254.928753862	128	41	64
1254.951950654	128	67	64
1255.065145232	144	41	111
1255.128429112	128	41	64
1255.260167973	144	41	113
1255.382521172	144	67	95
1255.523875272	144	76	89
1255.590869087	128	76	64
1255.793381943	128	69	64
1256.328918056	128	67	64
1256.475885325	144	76	92
1256.540614294	128	76	64
1256.772966111	144	67	91
1257.16451175	144	85	117
1257.204600619	144	72	36
1257.221493041	128	67	64
1257.29166245	128	41	64
1257.291733665	144	41	87
1257.306888874	144	76	91
1257.340687271	128	41	64
1257.340793249	144	41	83
1257.357042649	128	76	64
1257.520209762	128	41	64
1257.520281372	144	41	85
1257.553404941	128	72	64
1257.617364629	144	72	65
1257.666033932	144	69	110
1257.791659393	128	41	64
1257.791727728	144	41	83
1257.844071017	128	69	64
1257.894867257	128	41	64
1257.894930275	144	41	85
1257.895259242	128	72	64
1257.981945705	144	72	87
1258.010358879	128	41	64
1258.010403457	144	41	85
1258.072527661	128	85	64
1258.142755589	128	41	64
1258.142818835	144	41	83
1258.21564186	128	41	64
1258.215730105	144	41	84
1258.24877405	128	72	64
1258.321909775	144	69	85
1258.329168975	128	41	64
1258.329219269	144	41	84
1258.335487562	144	72	91
1258.440351396	128	69	64
1258.570118099	128	72	64
1258.611366035	128	41	64
1258.611439043	144	41	90
1258.635462234	144	72	111
1258.95731939	144	69	93
1259.065008584	128	69	64
1259.131761842	128	41	64
1259.188140268	128	72	64
1259.301450867	144	72	127
1259.459331831	144	85	112
1259.474783647	144	69	115
1259.582714773	128	69	64
1260.010517456	128	85	64
1260.021980438	128	72	64
1260.554410782	144	72	105
1260.736468124	128	72	64
1261.009125422	144	85	116
1261.332653519	144	60	102
1261.363304562	128	85	64
1261.376770725	144	41	29
1261.425115777	144	76	78
1261.430782129	128	41	64
1261.569746969	128	76	64
1261.588445344	144	41	36
1261.661906301	128	41	64
1261.710943056	144	62	97
1261.736973363	144	72	102
1261.754871217	144	41	43
1261.817081676	128	41	64
1261.873770351	144	64	127
1261.909312647	128	64	64
1261.912050415	144	41	50
1261.979339662	128	41	64
1262.076833521	144	41	63
1262.113555492	128	72	64
1262.136576274	128	41	64
1262.176649726	144	85	115
1262.239072227	144	41	66
1262.294549689	128	41	64
1262.390403177	144	41	69
1262.446038393	128	41	64
1262.462557434	128	85	64
1262.498130132	144	64	123
1262.545564251	144	72	100
1262.577822523	128	64	64
1262.641925922	144	41	78
1262.642164527	128	41	64
1262.686961033	144	41	83
1262.74528561	128	41	64
1262.855875094	144	41	90
1262.905140642	128	41	64
1262.918525154	128	72	64
1262.994392889	144	41	100
1263.023090071	128	62	64
1263.043433027	128	41	64
1263.073163394	144	76	84
1263.090234233	144	85	107
1263.161994477	144	41	105
1263.209464695	128	41	64
1263.217777467	128	76	64
1263.310846456	144	41	110
1263.346404277	128	85	64
1263.380504985	128	41	64
1263.411302317	144	62	100
1263.477401235	144	41	120
1263.482911497	144	72	98
1263.525540128	128	41	64
1263.640473364	144	41	127
1263.820886421	128	72	64
1263.909476499	144	85	107
1263.974412634	144	76	77
1264.075271196	128	76	64
1264.227163709	128	60	64
1264.241356983	128	85	64
1264.253543356	144	72	95
1264.512417582	128	72	64
1264.661920856	144	72	93
1264.698939437	144	85	108
1264.734013167	144	69	102
1264.818353017	144	60	94
1264.957810763	128	62	64
1264.962383512	128	85	64
1265.173284115	144	64	123
1265.174596116	144	62	101
1265.249752418	128	64	64
1265.340104606	144	64	121
1265.432701797	128	64	64
1265.611647727	144	85	118
1265.9773485	128	85	64
1265.984368527	128	72	64
1266.004511498	144	64	122
1266.066973654	144	76	68
1266.069674004	144	72	102
1266.094350543	128	64	64
1266.212555206	128	76	64
1266.478443474	144	85	117
1266.496396187	128	69	64
1266.608908723	128	62	64
1266.664562671	128	72	64
1266.856020937	144	69	102
1266.86250697	144	33	89
1266.862959055	144	62	109
1266.863769511	128	85	64
1266.864672578	144	72	102
1266.900066906	144	76	68
1266.975758746	128	76	64
1267.017827292	128	33	64
1267.278308823	144	85	110
1267.356483562	128	72	64
1267.456008637	128	69	64
1267.648148315	128	85	64
1267.719967515	144	33	104
1267.727353041	128	60	64
1267.734240062	144	76	88
1267.901691236	128	76	64
1268.082004282	144	69	104
1268.165069145	144	85	113
1268.165761675	144	64	116
1268.200781625	144	67	103
1268.2381698	144	60	109
1268.292873507	128	62	64
1268.451577724	128	72	64
1268.513796934	128	85	64
1268.545671567	128	41	64
1268.616156966	144	62	110
1268.676408618	144	76	88
1268.776204159	128	76	64
1268.809529286	144	41	73
1269.02919575	144	85	112
1269.049078234	128	85	64
1269.049138434	144	85	13
1269.38087773	128	85	64
1269.383187455	128	41	64
1269.383240304	144	41	119
1269.426295263	128	69	64
1269.548628564	144	76	88
1269.616768383	128	41	64
1269.616823839	144	41	117
1269.659612781	128	76	64
1269.798666062	128	41	64
1269.798739559	144	41	120
1269.857230219	128	41	64
1269.857311453	144	41	121
1269.923004678	144	69	98
1269.935262532	128	33	64
1269.98391319	144	85	112
1270.077083819	128	62	64
1270.268665495	144	33	113
1270.315541267	144	62	108
1270.332880783	128	85	64
1270.389095529	144	76	80
1270.493565701	128	76	64
1270.507453052	128	41	64
1270.785245632	144	85	102
1270.834855498	128	67	64
1270.875086864	128	64	64
1270.958090585	144	41	112
1271.07215075	128	69	64
1271.166341863	128	85	64
1271.195216354	144	64	116
1271.219015591	144	76	79
1271.272952353	128	60	64
1271.369272008	128	76	64
1271.529151779	144	69	99
1271.644533478	128	62	64
1271.646789931	144	85	109
1271.743655194	144	67	109
1271.809939284	144	60	87
1271.901142045	128	33	64
1272.100216308	128	85	64
1272.165716843	144	62	106
1272.284140894	144	76	80
1272.314214951	144	33	115
1272.408851711	128	76	64
1272.566452401	144	85	100
1272.622432931	144	77	50
1272.922080779	128	77	64
1272.952465873	128	67	64
1272.983786418	128	85	64
1273.026728555	144	77	59
1273.157429247	144	76	82
1273.176908434	128	69	64
1273.215110398	128	41	64
1273.215374861	144	41	71
1273.25371609	128	77	64
1273.319581751	128	41	64
1273.319775569	144	77	70
1273.335703619	128	76	64
1273.430493737	144	69	99
1273.465690301	144	85	104
1273.484277255	144	67	102
1273.595433523	128	64	64
1273.694961924	128	62	64
1273.833715759	128	85	64
1273.905448634	144	64	114
1273.94206566	144	41	27
1273.945381511	144	62	100
1273.970171807	128	41	64
1274.040510088	128	77	64
1274.058321181	144	76	74
1274.115551951	144	41	33
1274.12789205	128	76	64
1274.158147274	128	41	64
1274.279316666	144	41	42
1274.302884853	144	77	86
1274.317137593	144	85	111
1274.331895418	128	41	64
1274.41179759	144	41	48
1274.461926926	128	41	64
1274.554239335	144	41	55
1274.615108487	128	41	64
1274.63653344	128	67	64
1274.681200472	128	85	64
1274.745843671	144	41	67
1274.770551981	128	41	64
1274.789946404	144	67	89
1274.797015584	128	60	64
1274.813675277	128	69	64
1274.855487833	144	41	77
1274.878689181	128	67	64
1274.887717641	128	77	64
1275.011270113	128	41	64
1275.011889397	144	41	108
1275.026025445	144	76	99
1275.030789559	128	62	64
1275.092419476	128	76	64
1275.201588794	144	77	86
1275.215517444	144	85	97
1275.22357721	144	69	98
1275.223725612	144	67	106
1275.251285129	128	64	64
1275.283620696	144	60	86
1275.391814168	128	41	64
1275.471499623	144	41	110
1275.51519199	128	41	64
1275.618927002	128	85	64
1275.621573708	144	64	115
1275.625398985	144	41	115
1275.662868793	128	67	64
1275.670057526	128	41	64
1275.782126366	144	41	123
1275.845361551	128	41	64
1275.922829394	144	67	93
1275.948314961	128	77	64
1275.976391812	144	41	125
1276.026677474	128	41	64
1276.07150827	144	77	91
1276.11822774	144	85	105
1276.159905671	144	41	126
1276.240409606	128	67	64
1276.453229828	128	85	64
1276.481894243	128	69	64
1276.495319852	128	64	64
1276.50327396	128	33	64
1276.525412443	144	76	97
1276.539294826	144	67	97
1276.585526583	128	77	64
1276.592503956	128	76	64
1276.602801081	144	64	116
1276.95555835	144	77	95
1276.966229573	144	85	104
1276.986647768	128	67	64
1277.13716965	144	33	122
1277.17880666	128	33	64
1277.256831255	144	67	92
1277.263327082	144	33	123
1277.312627847	128	33	64
1277.35544585	128	64	64
1277.379682276	144	33	121
1277.411809277	128	33	64
1277.419600346	128	85	64
1277.452204287	128	77	64
1277.479575209	144	33	123
1277.537316661	128	41	64
1277.642196435	144	76	94
1277.659501597	144	69	94
1277.728026823	128	76	64
1277.736383343	128	67	64
1277.85058884	144	85	109
1277.86365878	144	64	119
1277.973629563	144	67	94
1278.080194235	128	64	64
1278.191067314	128	67	64
1278.248661153	128	85	64
1278.268109841	128	60	64
1278.309265389	144	64	118
1278.406847495	144	67	84
1278.409748425	128	69	64
1278.474193337	144	76	92
1278.507143121	128	64	64
1278.522813956	128	77	64
1278.586546171	128	67	64
1278.594932419	128	76	64
1278.703688257	144	64	115
1278.73852715	144	85	108
1278.791346537	144	60	93
1278.809368967	144	67	98
1278.931120122	128	64	64
1279.115310447	144	64	114
1279.237016407	128	67	64
1279.259228411	144	76	92
1279.264724932	128	64	64
1279.270170473	128	85	64
1279.403969034	128	76	64
1279.45649702	144	67	104
1279.482065957	144	64	26
1279.608673691	128	64	64
1279.769706705	144	41	106
1279.782201129	144	85	99
1279.838588248	128	41	64
1279.841025954	144	64	20
1279.893406202	128	67	64
1279.917078522	128	64	64
1280.024813159	144	76	97
1280.05213398	144	64	46
1280.075841196	128	76	64
1280.106088458	144	67	113
1280.135239211	128	64	64
1280.18752309	128	85	64
1280.220151729	144	64	49
1280.294888978	128	64	64
1280.362192119	144	64	54
1280.442310285	128	64	64
1280.534566171	144	64	61
1280.585812143	128	67	64
1280.609652693	128	64	64
1280.67716237	144	64	68
1280.719235766	144	85	79
1280.732619583	144	67	112
1280.749513672	128	64	64
1280.819005608	144	64	72
1280.901642633	128	64	64
1280.960287331	144	64	75
1281.059900267	128	64	64
1281.112371558	144	64	83
1281.138216842	128	85	64
1281.193546663	128	64	64
1281.2188716	128	67	64
1281.227339222	144	69	92
1281.235373777	128	33	64
1281.254713402	144	64	89
1281.272231394	128	62	64
1281.350516643	128	64	64
1281.381980772	144	67	113
1281.412371268	144	64	98
1281.499307199	128	64	64
1281.52283878	144	85	79
1281.535733444	128	67	64
1281.54195948	144	64	111
1281.620147521	128	69	64
1281.646229268	128	64	64
1281.691604857	144	64	118
1281.760312087	128	76	64
1281.778575922	128	64	64
1281.801256594	144	67	113
1281.856504092	144	64	120
1281.876255079	128	60	64
1281.917484687	128	85	64
1281.941217483	128	64	64
1281.945062936	128	67	64
1282.0053882	144	64	102
1282.053714554	144	69	91
1282.092691737	128	64	64
1282.168883971	144	64	85
1282.198854744	144	67	118
1282.216157877	128	69	64
1282.247136062	128	64	64
1282.333613726	144	64	72
1282.382458098	144	85	89
1282.401797082	128	64	64
1282.474935889	144	60	96
1282.488906833	144	64	62
1282.544012987	128	64	64
1282.640940405	144	64	51
1282.701603417	128	67	64
1282.725371875	128	64	64
1282.726360731	144	41	51
1282.745474603	128	41	64
1282.766339399	144	72	37
1282.772228615	128	85	64
1282.810906421	144	64	40
1282.885456454	128	64	64
1282.95607133	128	72	64
1282.958574561	144	67	113
1283.00085802	144	69	92
1283.103626549	128	69	64
1283.172809801	144	64	25
1283.172976527	128	64	64
1283.173162476	144	64	18
1283.173328538	128	64	64
1283.20066419	144	72	63
1283.200732654	128	72	64
1283.241292033	144	41	36
1283.287786563	144	72	83
1283.288621832	144	85	78
1283.305662047	128	41	64
1283.426232965	128	67	64
1283.511758846	128	72	64
1283.588019613	144	72	101
1283.671540476	144	67	110
1283.720282913	128	85	64
1283.77692815	144	41	85
1283.783288511	128	41	64
1284.067706399	144	64	1
1284.067957583	128	64	64
1284.09105538	128	72	64
1284.096825055	144	64	1
1284.168757041	144	72	102
1284.183625478	128	64	64
1284.184795343	128	67	64
1284.185489352	144	85	80
1284.228833769	144	64	1
1284.280842916	128	64	64
1284.311159758	144	41	44
1284.334646219	144	67	108
1284.342399019	128	41	64
1284.345289663	144	64	1
1284.41096955	128	64	64
1284.477213201	144	64	1
1284.546709566	128	64	64
1284.573229473	128	85	64
1284.591499338	128	72	64
1284.608409901	144	64	1
1284.680890803	128	64	64
1284.739954559	144	72	78
1284.740319912	144	64	1
1284.807725812	128	64	64
1284.817770279	128	67	64
1284.858494196	144	64	2
1284.908734513	144	41	83
1284.934543013	128	72	64
1284.945733631	128	64	64
1284.952621173	128	41	64
1284.982357064	144	67	108
1284.989120922	144	64	6
1285.062179136	128	64	64
1285.071398376	144	85	76
1285.130044515	144	64	10
1285.136017239	128	67	64
1285.207191182	128	64	64
1285.252283899	144	64	12
1285.331507705	128	64	64
1285.38674443	144	64	13
1285.42729698	144	67	104
1285.431202733	128	57	64
1285.433458591	144	69	92
1285.443822301	128	64	64
1285.472432109	128	60	64
1285.473815006	128	85	64
1285.494740823	128	67	64
1285.533915361	144	64	17
1285.594109293	128	64	64
1285.642134396	144	64	19
1285.675771627	128	72	64
1285.683629599	128	69	64
1285.705811504	128	64	64
1285.772553447	144	64	22
1285.836119704	128	64	64
1285.849361307	144	67	107
1285.891052464	144	64	23
1285.901218683	144	60	94
1285.923021392	144	85	79
1285.96903893	128	64	64
1285.984732786	144	69	89
1286.023765977	144	64	25
1286.086477864	128	64	64
1286.101851509	144	41	83
1286.131710065	128	41	64
1286.141243585	144	64	27
1286.207476641	128	64	64
1286.260595454	144	64	29
1286.291828827	128	85	64
1286.341527763	128	64	64
1286.345442533	128	67	64
1286.392581415	144	64	32
1286.456263596	128	64	64
1286.510029426	128	69	64
1286.5152454	144	64	35
1286.556249799	144	67	104
1286.586307062	128	64	64
1286.640250043	144	64	38
1286.718638721	128	64	64
1286.771671398	144	64	41
1286.843635674	128	64	64
1286.903752552	144	64	44
1286.90632329	144	85	76
1286.968215561	128	64	64
1287.002084548	128	67	64
1287.033561546	144	64	47
1287.110358795	128	64	64
1287.167045044	144	64	50
1287.215509627	144	41	87
1287.22552489	144	67	103
1287.228001362	128	41	64
1287.239811042	128	64	64
1287.257558448	128	85	64
1287.298784401	144	64	53
1287.364821226	128	64	64
1287.425015822	144	64	56
1287.503490321	128	64	64
1287.559116637	144	64	60
1287.630102597	128	64	64
1287.684808495	144	64	63
1287.69530896	128	67	64
1287.765690711	128	64	64
1287.769451715	144	85	78
1287.816326574	144	64	66
1287.887702584	128	64	64
1287.923764518	144	67	101
1287.956783055	144	64	69
1288.028321694	128	64	64
1288.089249976	144	64	72
1288.150834315	128	64	64
1288.209968368	144	64	75
1288.224956429	128	85	64
1288.279874989	128	64	64
1288.327555663	144	64	78
1288.359609702	144	41	94
1288.386635126	128	67	64
1288.397964344	128	41	64
1288.405942658	144	33	124
1288.406593092	128	64	64
1288.414908899	128	60	64
1288.447098964	144	64	82
1288.462452525	128	33	64
1288.519025496	128	64	64
1288.529797702	144	33	117
1288.563079479	128	33	64
1288.582041347	144	64	88
1288.583696796	144	67	97
1288.63981996	128	64	64
1288.64690078	144	33	117
1288.672977412	144	85	87
1288.679307538	128	33	64
1288.708229327	144	64	96
1288.731894902	144	33	118
1288.736913226	128	67	64
1288.762121595	128	33	64
1288.780805991	128	64	64
1288.830075195	144	33	117
1288.834312434	144	60	98
1288.838971082	144	64	102
1288.895713688	128	33	64
1288.904707531	128	64	64
1288.930892433	144	33	117
1288.958686107	144	64	109
1288.979915039	128	33	64
1288.991796379	144	67	98
1289.030853314	144	33	116
1289.038704879	128	64	64
1289.079069973	128	67	64
1289.080304909	128	33	64
1289.093447548	144	64	117
1289.159235665	128	85	64
1289.178265001	128	64	64
1289.198564532	144	64	121
1289.280490232	128	64	64
1289.350683105	144	64	112
1289.424115796	144	67	101
1289.425100456	128	64	64
1289.451135549	144	64	98
1289.50603464	144	85	76
1289.542799129	128	64	64
1289.569272559	144	64	88
1289.571385843	144	69	87
1289.653953414	128	64	64
1289.701894465	144	64	76
1289.702776549	144	41	77
1289.732883756	128	41	64
1289.775910574	128	64	64
1289.840259322	144	64	68
1289.857410622	128	67	64
1289.892570822	128	85	64
1289.901099297	128	64	64
1289.973061113	144	64	59
1290.026733297	128	64	64
1290.083258583	144	67	93
1290.100807121	144	64	50
1290.171612701	128	64	64
1290.220327062	128	69	64
1290.242975197	144	64	39
1290.316292614	128	64	64
1290.326409274	144	85	73
1290.385037752	144	64	34
1290.436709443	128	67	64
1290.456366974	128	64	64
1290.537453304	144	64	28
1290.54092278	128	85	64
1290.580528026	128	64	64
1290.666548187	144	64	23
1290.673721843	144	41	102
1290.700688154	144	67	92
1290.717784617	128	41	64
1290.726903386	128	64	64
1290.796880675	144	64	19
1290.873159418	128	64	64
1290.929949362	144	64	14
1291.000742908	128	64	64
1291.068894148	144	64	9
1291.090764238	144	53	67
1291.142579862	128	64	64
1291.169218572	128	67	64
1291.212756375	144	64	5
1291.298647084	128	64	64
1291.321543105	144	85	63
1291.344938634	144	64	2
1291.356875293	144	67	83
1291.455366097	128	60	64
1291.70350956	144	41	102
1291.710731866	128	85	64
1291.750099103	128	41	64
1291.80275661	128	67	64
1291.809500822	128	64	64
1291.809638975	144	69	93
1292.05662344	144	67	88
1292.091069855	144	85	93
1292.115929007	144	64	1
1292.172256841	144	60	97
1292.201710845	128	67	64
1292.257857494	128	53	64
1292.358813269	144	53	77
1292.386460583	128	69	64
1292.386744828	144	69	94
1292.523377415	144	67	91
1292.535771675	128	64	64
1292.543809721	128	85	64
1292.611717435	128	67	64
1292.657191781	144	72	86
1292.750029558	128	72	64
1292.785842116	144	64	1
1292.808192688	128	53	64
1292.906622109	144	53	80
1292.958002965	144	85	83
1292.961803195	128	69	64
1292.96202441	144	69	91
1292.983217235	144	67	118
1293.219224423	128	69	64
1293.255782525	128	64	64
1293.394389579	144	72	74
1293.39534326	128	67	64
1293.408069108	128	85	64
1293.415928594	144	69	107
1293.428906947	128	53	64
1293.482392547	128	72	64
1293.515951639	128	69	64
1293.574442358	144	64	1
1293.662249757	144	53	82
1293.707184997	144	67	110
1293.825255367	144	85	86
1294.056494425	128	64	64
1294.086484376	144	69	111
1294.130127624	128	67	64
1294.163195628	128	69	64
1294.210265647	144	72	75
1294.224537866	128	53	64
1294.227790097	128	85	64
1294.295284919	128	72	64
1294.352198387	144	67	100
1294.476956624	144	57	78
1294.481047302	144	53	84
1294.55883771	144	85	79
1294.56871658	144	69	106
1294.654637576	128	69	64
1294.872064208	128	57	64
1294.881653724	144	64	1
1294.885022246	128	67	64
1294.94963941	144	69	106
1295.000309758	128	53	64
1295.040318756	128	69	64
1295.040423654	128	85	64
1295.054278205	128	60	64
1295.136014862	128	64	64
1295.324313274	144	64	1
1295.365521555	144	53	80
1295.383916693	144	69	106
1295.393496615	144	85	92
1295.450884314	144	60	97
1295.466521383	128	69	64
1295.55087115	144	69	109
1295.592718323	144	67	100
1295.609198173	128	69	64
1295.628579948	128	64	64
1295.695173482	128	67	64
1295.795502273	128	85	64
1295.83597205	144	64	1
1295.908463815	128	53	64
1296.001213133	144	57	76
1296.007118555	144	67	98
1296.027194998	128	67	64
1296.075168558	128	64	64
1296.114024779	144	69	87
1296.138256953	144	53	85
1296.179283448	128	69	64
1296.260714413	144	85	77
1296.293209761	144	64	1
1296.467098113	144	67	103
1296.479845288	128	64	64
1296.630347887	144	64	1
1296.645361368	128	85	64
1296.657882185	128	53	64
1296.727038305	128	57	64
1296.755911415	128	64	64
1296.891033755	144	64	1
1296.9400074	144	53	86
1296.976933924	144	69	93
1296.985956102	128	64	64
1297.043512972	144	85	82
1297.052923667	128	67	64
1297.131311651	144	64	1
1297.205951822	128	64	64
1297.304518285	144	64	2
1297.315779124	144	67	95
1297.382784425	128	64	64
1297.384260208	128	53	64
1297.386935368	144	72	78
1297.413460781	128	85	64
1297.446875237	128	69	64
1297.487734225	144	64	5
1297.548322893	128	72	64
1297.559557171	128	64	64
1297.645132726	144	64	9
1297.728579558	128	64	64
1297.787134625	144	64	11
1297.788074545	128	67	64
1297.797020581	144	53	83
1297.862428521	144	85	77
1297.864437071	128	64	64
1297.900337251	144	69	94
1297.922215109	144	57	75
1297.924015997	144	64	14
1298.020480225	128	64	64
1298.067592011	144	64	17
1298.162970143	128	64	64
1298.197823743	128	69	64
1298.212791756	144	64	21
1298.222772867	144	67	95
1298.275975811	128	85	64
1298.28547199	128	64	64
1298.320455832	144	72	80
1298.351405065	128	60	64
1298.351850973	144	64	24
1298.397241346	128	53	64
1298.43898217	128	64	64
1298.469974563	128	72	64
1298.482096451	144	64	28
1298.572937674	128	64	64
1298.622382297	144	64	32
1298.696634525	128	64	64
1298.721219735	144	85	79
1298.73943221	144	53	84
1298.742506886	144	69	90
1298.754270012	144	64	34
1298.777744078	128	57	64
1298.785887215	128	67	64
1298.836362338	144	60	102
1298.837365571	128	64	64
1298.892869169	144	64	38
1298.965053408	128	64	64
1299.025782155	144	64	42
1299.108137886	144	67	93
1299.108651725	128	64	64
1299.148676867	128	85	64
1299.156531492	144	64	44
1299.199817046	144	62	127
1299.241927742	128	53	64
1299.24704507	128	64	64
1299.26119196	144	72	78
1299.296895867	144	64	48
1299.345462605	128	72	64
1299.377955281	128	64	64
1299.400533194	128	69	64
1299.427146219	144	64	51
1299.521327938	128	64	64
1299.570998661	144	64	57
1299.573414144	144	53	86
1299.599017225	144	85	80
1299.619303575	144	57	74
1299.634374885	128	64	64
1299.710130224	144	64	59
1299.736642252	128	67	64
1299.783787243	128	64	64
1299.840639349	144	64	62
1299.935489356	128	64	64
1299.969867027	144	64	64
1300.03096214	128	85	64
1300.056051112	128	64	64
1300.057673373	128	53	64
1300.077683461	144	72	76
1300.090836624	144	67	90
1300.12391061	144	64	67
1300.144597901	128	72	64
1300.204545989	128	64	64
1300.263838839	144	64	71
1300.362836298	128	64	64
1300.405036418	144	64	72
1300.485192362	128	57	64
1300.492055541	128	64	64
1300.493703762	144	53	86
1300.511716093	144	85	75
1300.555835724	128	67	64
1300.560548918	144	64	77
1300.589170681	144	69	89
1300.622637893	128	64	64
1300.688021592	144	64	83
1300.759912075	128	64	64
1300.821703128	144	64	85
1300.909647663	128	64	64
1300.915238016	128	85	64
1300.95095403	144	64	90
1301.012215125	144	72	77
1301.025058711	128	53	64
1301.032887377	128	64	64
1301.061272386	144	67	99
1301.095491985	128	72	64
1301.114768106	144	64	98
1301.194499004	128	64	64
1301.254723303	144	64	100
1301.308858976	144	57	73
1301.341681891	128	64	64
1301.37939383	144	85	80
1301.395673765	144	64	106
1301.478026117	128	64	64
1301.478602153	128	67	64
1301.489803208	144	53	84
1301.545159658	144	64	109
1301.626281596	128	64	64
1301.701407528	144	64	111
1301.777396308	128	64	64
1301.797462469	128	85	64
1301.833950857	144	64	108
1301.914964178	128	64	64
1301.924901069	128	53	64
1301.944366709	144	72	74
1301.946712444	128	69	64
1301.956136852	144	67	93
1301.972963657	144	64	105
1302.011795768	128	60	64
1302.029134595	128	72	64
1302.043750268	128	64	64
1302.113292642	144	64	98
1302.12502446	128	57	64
1302.186785544	128	64	64
1302.266206272	144	64	92
1302.270430568	144	85	82
1302.306694221	144	53	114
1302.360803849	128	64	64
1302.405443866	144	69	86
1302.409289018	144	64	82
1302.435640023	128	67	64
1302.448802007	128	62	64
1302.452868805	144	60	100
1302.515713894	128	64	64
1302.595798604	144	64	78
1302.632889503	128	85	64
1302.680976717	128	64	64
1302.724036429	128	53	64
1302.767172115	144	64	72
1302.852674118	128	64	64
1302.8604571	144	67	96
1302.874751268	144	62	126
1302.895132467	128	69	64
1302.91153767	144	72	74
1302.978611365	128	72	64
1303.034974262	144	57	85
1303.062600022	144	64	55
1303.10787867	144	53	120
1303.179549711	128	64	64
1303.352946955	128	67	64
1303.365220532	144	85	71
1303.39081673	128	53	64
1303.682101851	128	53	64
1303.703034542	144	67	90
1303.703640715	128	85	64
1303.74627318	144	64	101
1303.833041314	128	57	64
1303.837242011	144	72	77
1303.931292686	128	72	64
1304.150902571	144	69	88
1304.169421574	128	67	64
1304.230408295	144	85	73
1304.533657466	128	85	64
1304.573163076	128	69	64
1304.657208899	144	67	95
1304.712893077	144	72	79
1304.72702559	144	57	87
1304.79735894	128	72	64
1305.116500883	144	85	74
1305.154106649	128	67	64
1305.367696797	128	85	64
1305.469843313	128	57	64
1305.578526124	128	60	64
1305.66066373	144	67	91
1305.668403361	128	64	64
1305.953706424	144	60	92
1305.997470549	144	85	74
1306.129702357	144	64	106
1306.129885214	144	72	77
1306.136115443	128	67	64
1306.170948818	144	69	82
1306.195881972	128	72	64
1306.280343378	144	41	49
1306.280882396	128	41	64
1306.334593215	128	85	64
1306.363036375	144	41	53
1306.363168084	128	62	64
1306.413625415	128	41	64
1306.538173367	128	69	64
1306.592850779	144	62	123
1306.597894138	144	57	85
1306.6233987	144	67	91
1306.696806579	128	64	64
1306.781799256	144	85	74
1306.900312317	144	41	50
1306.979052596	128	41	64
1307.020159162	144	69	84
1307.086275519	144	64	107
1307.088503412	128	67	64
1307.234285584	144	41	66
1307.236257345	128	69	64
1307.262308871	128	41	64
1307.482437373	128	57	64
1307.486403204	128	85	64
1307.496913016	144	72	76
1307.524318682	144	69	83
1307.581793242	128	72	64
1307.5836291	144	67	90
1307.6566447	128	69	64
1307.658356618	144	44	51
1307.999376761	144	85	72
1308.036424046	128	67	64
1308.057939315	128	44	64
1308.133322913	144	41	79
1308.149424742	128	41	64
1308.158495094	144	44	62
1308.20681472	144	69	84
1308.30527882	128	69	64
1308.402027356	128	85	64
1308.513740048	144	72	77
1308.514484812	144	57	85
1308.53812393	128	64	64
1308.540811344	144	67	87
1308.625336642	128	60	64
1308.657982658	128	72	64
1308.875950305	128	44	64
1308.936508535	144	64	106
1308.978859734	128	67	64
1309.012235281	144	85	70
1309.012961156	128	64	64
1309.090433204	144	64	104
1309.127290672	144	41	69
1309.135332591	144	60	95
1309.158021193	144	44	65
1309.164185554	128	41	64
1309.304415907	128	64	64
1309.335676096	128	85	64
1309.494509924	144	72	77
1309.518861304	128	57	64
1309.568722397	144	67	85
1309.631761615	128	72	64
1309.805953328	144	64	68
1309.827407533	128	44	64
1309.849675784	144	85	64
1309.89666092	128	64	64
1310.047202431	144	44	63
1310.052052669	128	67	64
1310.061419077	144	69	89
1310.073297179	144	75	94
1310.168303721	144	64	34
1310.209667814	144	57	79
1310.276755373	128	64	64
1310.329943517	128	62	64
1310.503354136	128	85	64
1310.541217519	144	67	86
1310.543680251	128	69	64
1310.562154883	144	64	31
1310.563157553	144	72	75
1310.564990189	144	62	122
1310.646757905	128	72	64
1310.666188774	128	64	64
1310.688061535	128	57	64
1310.699330133	128	75	64
1310.70396906	128	44	64
1310.842657655	144	64	51
1310.939663562	128	64	64
1311.00185188	144	85	64
1311.082898245	144	64	65
1311.089952991	128	67	64
1311.170833164	128	64	64
1311.300546752	144	64	77
1311.392710345	128	64	64
1311.426928102	144	57	83
1311.437046898	128	85	64
1311.505743662	144	64	94
1311.518806676	144	67	84
1311.554682857	144	33	94
1311.608300247	128	64	64
1311.72291964	144	64	118
1311.807668074	128	64	64
1311.98313331	144	69	89
1312.018444004	128	67	64
1312.024657186	144	44	64
1312.045595383	144	72	74
1312.080455204	144	85	67
1312.189119114	128	72	64
1312.329193996	128	57	64
1312.370441387	128	60	64
1312.434924647	128	85	64
1312.472121787	128	69	64
1312.523827769	144	67	80
1312.539486242	144	75	111
1312.95308864	128	67	64
1312.955673379	144	69	82
1312.968617454	144	85	67
1313.003711611	144	60	91
1313.012209119	144	72	71
1313.112868263	128	62	64
1313.127226597	128	72	64
1313.137476553	144	64	104
1313.165637594	128	75	64
1313.421501854	128	85	64
1313.422870479	144	57	90
1313.458376999	144	62	127
1313.481331954	128	69	64
1313.484588318	128	41	64
1313.490685888	144	67	75
1314.001655865	128	67	64
1314.021720878	144	69	83
1314.170730668	128	57	64
1314.174748758	128	44	64
1314.469292181	144	67	75
1314.600208224	144	85	60
1314.951156205	128	67	64
1315.006577464	144	75	110
1315.038969647	128	85	64
1315.101213228	128	44	64
1315.316725531	144	85	60
1315.400403219	128	33	64
1315.457668176	144	67	78
1315.469269745	144	57	85
1315.538621362	128	85	64
1315.543840473	144	33	116
1315.545749802	144	72	69
1315.885438946	128	69	64
1316.042893714	128	67	64
1316.071001546	128	72	64
1316.249344704	128	75	64
1316.27073456	128	60	64
1316.311966829	128	57	64
1316.476597549	128	64	64
1316.506610178	144	67	77
1316.809051922	144	60	96
1316.884738276	128	67	64
1317.04105025	144	67	92
1317.060250568	128	67	64
1317.104191729	128	62	64
1317.223721018	144	67	96
1317.239187497	144	62	127
1317.243646752	128	67	64
1317.256572312	144	64	110
1317.424518201	144	67	94
1317.464303733	128	67	64
1317.56266539	144	57	88
1317.611809492	144	69	96
1317.693242793	144	67	87
1317.757164208	128	67	64
1317.90982131	144	67	84
1317.952828898	128	67	64
1318.126210127	144	81	43
1318.141641136	144	67	81
1318.161477285	128	69	64
1318.18128276	128	67	64
1318.391023368	144	67	82
1318.431403636	128	67	64
1318.49497967	128	81	64
1318.590463982	144	81	68
1318.623519698	144	67	83
1318.664785017	128	67	64
1318.925274097	144	67	80
1318.926561282	128	64	64
1318.943461304	128	81	64
1318.979352773	128	67	64
1319.024869924	144	81	75
1319.074277642	144	64	111
1319.118932927	128	33	64
1319.141995166	144	67	85
1319.182764186	128	67	64
1319.425633354	144	67	82
1319.475885689	128	67	64
1319.476640178	128	81	64
1319.543102284	128	57	64
1319.557745835	144	81	81
1319.626779222	144	57	88
1319.638953151	144	33	48
1319.651504097	144	69	83
1319.672795507	144	67	84
1319.702953757	128	69	64
1319.715261369	128	67	64
1319.817563671	128	64	64
1319.975743848	144	67	91
1319.983995771	144	64	108
1320.029493637	128	67	64
1320.057542959	144	85	85
1320.09569941	128	60	64
1320.258579787	144	67	84
1320.307459704	128	67	64
1320.396755904	128	64	64
1320.511856735	144	67	84
1320.534783702	144	60	97
1320.535363512	144	69	96
1320.547680399	128	67	64
1320.552090801	128	62	64
1320.620565043	128	69	64
1320.660737239	128	81	64
1320.774083887	144	67	81
1320.815933412	128	67	64
1320.982778684	144	62	127
1320.992850693	144	81	82
1320.996707053	144	64	110
1321.040587976	144	69	107
1321.059228822	128	85	64
1321.086652255	128	69	64
1321.10827256	144	67	86
1321.162915771	128	67	64
1321.342156413	144	67	87
1321.343553229	128	81	64
1321.360023131	128	57	64
1321.380845804	128	67	64
1321.407743434	144	81	85
1321.454537134	144	57	87
1321.570705527	144	67	84
1321.637638258	128	67	64
1321.753624003	128	62	64
1321.78455113	128	64	64
1321.844635448	144	67	84
1321.88135994	128	67	64
1321.902036864	144	64	111
1321.906922682	144	85	89
1321.927424808	144	69	106
1321.932744606	144	62	127
1322.034173246	128	69	64
1322.15814182	144	67	83
1322.204758539	128	57	64
1322.212570092	128	67	64
1322.406509012	144	67	84
1322.419186724	144	69	106
1322.426161742	128	85	64
1322.439844361	144	75	104
1322.455177487	128	67	64
1322.51197763	128	69	64
1322.513590128	144	72	113
1322.621052066	128	62	64
1322.662268686	144	67	84
1322.697918578	128	67	64
1322.70465219	128	72	64
1322.728284007	128	64	64
1322.730507209	144	69	103
1322.813120064	128	69	64
1322.878984727	144	64	110
1322.910107722	144	67	84
1322.933114957	144	62	122
1322.97899772	128	67	64
1323.108650219	144	57	92
1323.153366651	128	33	64
1323.165896477	144	69	103
1323.191468086	144	67	80
1323.246308861	128	67	64
1323.263797048	128	69	64
1323.264349715	128	75	64
1323.402519477	144	69	103
1323.423356649	144	67	83
1323.430295497	144	72	110
1323.461092193	128	81	64
1323.480203007	128	67	64
1323.526473419	128	69	64
1323.589605545	128	62	64
1323.626653312	144	67	82
1323.656805772	128	64	64
1323.664622413	128	67	64
1323.688623029	128	72	64
1323.738144828	144	33	60
1323.822464377	128	60	64
1323.826143669	144	81	99
1323.877594343	144	62	122
1323.888504507	144	64	105
1323.906339153	144	69	102
1323.924397175	144	67	82
1323.979107734	128	67	64
1323.993840073	128	69	64
1324.142371877	128	75	64
1324.158950036	144	67	87
1324.198276028	128	67	64
1324.390301964	144	67	87
1324.414228591	144	85	94
1324.420047781	128	67	64
1324.422921575	144	60	96
1324.454726334	128	62	64
1324.51784732	144	69	56
1324.527639563	128	81	64
1324.622135948	128	64	64
1324.624918451	144	67	84
1324.665078555	128	67	64
1324.669954136	128	33	64
1324.870080212	144	62	114
1324.895864754	144	64	106
1324.899912603	128	69	64
1324.941563084	144	67	88
1324.947641133	144	81	109
1324.961580086	144	72	99
1324.996045411	128	67	64
1325.066659477	128	57	64
1325.127239152	128	62	64
1325.14267829	128	85	64
1325.154864409	144	67	98
1325.155342315	128	72	64
1325.197930731	128	67	64
1325.404870706	144	69	25
1325.415806436	144	85	91
1325.424223724	144	67	99
1325.469131894	128	67	64
1325.493845315	128	81	64
1325.666437268	144	67	104
1325.69887326	128	67	64
1325.736911938	128	64	64
1325.81430849	128	85	64
1325.835287441	144	62	116
1325.849978754	144	64	107
1325.895865343	128	69	64
1325.971035478	144	33	64
1325.973493392	144	67	115
1325.978720086	144	72	99
1326.026918946	144	81	112
1326.031488483	128	67	64
1326.171445961	128	72	64
1326.205119693	144	67	115
1326.248876766	128	67	64
1326.410840421	128	81	64
1326.439885757	144	69	67
1326.456763838	144	67	114
1326.497326717	128	67	64
1326.511993641	144	85	92
1326.658834391	144	81	111
1326.666712615	144	67	116
1326.678843509	128	64	64
1326.747508314	128	67	64
1326.75638492	128	62	64
1326.856933879	128	69	64
1326.89224551	128	85	64
1326.943640582	144	62	122
1326.952396918	144	64	107
1326.973891927	144	67	117
1326.978154945	128	81	64
1327.015356704	128	67	64
1327.029998877	144	72	98
1327.052439501	128	33	64
1327.14907201	144	33	75
1327.222628117	144	67	112
1327.265174471	128	67	64
1327.272353116	128	72	64
1327.476847122	144	81	111
1327.491538092	144	67	109
1327.529307637	144	69	123
1327.531300225	128	67	64
1327.543305962	144	85	85
1327.720521045	128	33	64
1327.737072591	128	64	64
1327.740361729	128	62	64
1327.740932838	144	67	111
1327.805257457	128	67	64
1327.928739813	128	85	64
1327.977418896	144	64	108
1327.983726495	128	69	64
1328.010853065	128	81	64
1328.032950064	144	67	109
1328.048003124	144	72	104
1328.080658397	128	67	64
1328.087957533	144	33	73
1328.238166565	128	60	64
1328.291826422	144	67	113
1328.321998729	128	72	64
1328.335041266	128	67	64
1328.508300768	144	67	98
1328.543246102	144	85	87
1328.56369436	128	67	64
1328.609647178	144	69	35
1328.64689247	128	64	64
1328.716682682	144	60	102
1328.774593467	144	67	81
1328.814684126	128	67	64
1328.962252852	128	85	64
1328.985979194	144	81	110
1329.007301651	144	67	72
1329.038486415	128	69	64
1329.062696541	128	67	64
1329.104340042	144	72	109
1329.217081648	144	64	108
1329.275081547	144	67	60
1329.289458616	128	72	64
1329.329807216	128	67	64
1329.469246971	144	57	110
1329.521961536	144	69	127
1329.524969646	144	67	52
1329.527351478	128	81	64
1329.54334399	144	85	87
1329.580724253	128	67	64
1329.612759625	128	57	64
1329.656898774	144	57	111
1329.758139597	144	67	36
1329.806877556	128	57	64
1329.812427456	128	67	64
1329.859214183	128	85	64
1329.864307517	144	57	111
1329.886143539	128	33	64
1329.990423198	144	67	18
1330.003451666	128	57	64
1330.031256955	144	33	77
1330.031916132	128	67	64
1330.047939397	128	69	64
1330.052715624	128	64	64
1330.080346136	144	72	100
1330.08789351	144	57	112
1330.206921631	144	67	2
1330.242710494	128	57	64
1330.263373351	128	67	64
1330.305340742	128	72	64
1330.327822719	144	81	110
1330.359316496	144	62	115
1330.425118842	144	67	1
1330.465558629	128	67	64
1330.492416583	128	62	64
1330.511667152	144	64	105
1330.625738615	144	69	30
1330.638765336	128	81	64
1330.644592069	144	67	1
1330.676887132	144	85	79
1330.681968897	128	67	64
1330.725416899	128	64	64
1330.841069773	144	67	3
1330.881045145	128	67	64
1330.888008479	144	64	79
1330.949112307	128	64	64
1331.030797527	128	85	64
1331.034972991	144	67	44
1331.039736502	144	64	107
1331.049748181	144	72	116
1331.064841377	128	67	64
1331.129635411	128	69	64
1331.136624013	128	64	64
1331.19254958	144	64	74
1331.207481216	144	67	81
1331.235899326	128	64	64
1331.250348807	128	67	64
1331.272195991	128	72	64
1331.337155466	144	64	107
1331.354411152	144	67	96
1331.395801871	128	64	64
1331.414376358	128	67	64
1331.438486488	144	64	71
1331.466021749	128	64	64
1331.516533188	144	67	105
1331.522040498	144	64	109
1331.553756956	144	81	105
1331.56082861	128	67	64
1331.568967734	128	64	64
1331.598676165	144	64	65
1331.639065508	128	64	64
1331.6686399	144	67	107
1331.681289705	144	64	105
1331.713397753	128	67	64
1331.722254404	128	64	64
1331.736564041	128	33	64
1331.757886315	144	64	59
1331.79005195	128	64	64
1331.800144316	144	67	107
1331.827324725	144	64	100
1331.86129253	128	81	64
1331.865121322	128	67	64
1331.881406602	144	62	118
1331.883841979	128	64	64
1331.885444005	144	69	127
1331.910374826	144	64	58
1331.950807494	144	67	108
1331.952925241	128	64	64
1331.988403202	144	64	97
1332.007685507	128	62	64
1332.011488176	144	85	81
1332.020223059	128	67	64
1332.026647241	128	64	64
1332.030757651	144	72	101
1332.051505776	144	64	53
1332.079710743	144	33	95
1332.102892642	144	67	106
1332.122372127	128	64	64
1332.131717729	144	64	94
1332.151469757	128	67	64
1332.185120124	128	64	64
1332.214925103	144	64	52
1332.221748448	128	72	64
1332.233801022	144	67	106
1332.283219801	128	64	64
1332.29527233	144	64	95
1332.298323633	128	67	64
1332.339044952	128	64	64
1332.353577559	144	67	110
1332.364468549	128	85	64
1332.372027769	144	64	50
1332.41207814	128	64	64
1332.41746233	128	67	64
1332.445704242	144	64	92
1332.487823551	144	67	106
1332.494804118	128	64	64
1332.498762851	128	69	64
1332.532517966	128	67	64
1332.534908337	144	64	48
1332.580538475	128	64	64
1332.593472379	144	81	106
1332.597299122	144	64	93
1332.617343013	144	67	102
1332.629766277	144	62	124
1332.661572365	128	64	64
1332.685248025	144	64	51
1332.708718869	128	67	64
1332.744139615	128	64	64
1332.752730535	144	67	103
1332.761131521	144	64	93
1332.79775307	128	67	64
1332.812584838	128	64	64
1332.854916371	144	64	51
1332.888037391	144	67	99
1332.92230026	128	64	64
1332.941487069	144	64	94
1332.951934387	128	67	64
1332.999802244	128	64	64
1333.034038048	144	64	53
1333.04897761	144	67	95
1333.056973069	128	60	64
1333.075540623	128	64	64
1333.098288713	144	64	94
1333.098452496	128	67	64
1333.099060008	144	69	70
1333.114090381	144	72	97
1333.128768559	144	85	85
1333.15020105	128	64	64
1333.163515126	144	74	73
1333.196951706	144	64	52
1333.201124313	144	67	97
1333.245997955	128	81	64
1333.257622033	128	64	64
1333.273457984	128	74	64
1333.276444214	144	64	95
1333.337682129	128	64	64
1333.371234867	144	64	54
1333.42235753	128	72	64
1333.428648501	128	64	64
1333.437899994	128	67	64
1333.460975459	144	64	94
1333.484052825	144	67	87
1333.507715752	128	64	64
1333.542213074	144	81	102
1333.544400502	128	85	64
1333.546655557	144	64	51
1333.54776189	128	67	64
1333.56479558	128	69	64
1333.603930127	128	64	64
1333.621030193	144	64	93
1333.664336835	144	60	105
1333.673232179	144	76	74
1333.691957794	144	67	87
1333.699974311	128	64	64
1333.719075695	144	64	58
1333.744580565	128	67	64
1333.790164018	128	64	64
1333.790270506	144	64	98
1333.84214539	144	67	83
1333.86207509	128	64	64
1333.883186661	144	64	62
1333.895838214	128	81	64
1333.8983673	128	67	64
1333.952287924	128	33	64
1333.956375643	128	64	64
1333.969545155	144	64	106
1334.041966089	128	62	64
1334.042442806	128	64	64
1334.067095431	144	64	77
1334.073121796	144	69	123
1334.092131467	144	67	75
1334.13290313	144	85	124
1334.145653826	128	67	64
1334.177886261	144	72	96
1334.18083764	144	62	127
1334.186510775	144	74	83
1334.19592652	128	64	64
1334.196540657	144	64	120
1334.196697298	128	64	64
1334.218116314	144	67	78
1334.229834337	144	64	93
1334.230964346	128	74	64
1334.254973686	144	33	102
1334.292575267	128	64	64
1334.296572056	128	67	64
1334.30753343	144	64	124
1334.366925856	128	76	64
1334.370125449	128	64	64
1334.407029702	144	64	107
1334.53944437	128	72	64
1334.543262897	128	64	64
1334.543627517	144	64	126
1334.543821217	128	64	64
1334.576540311	144	64	109
1334.614230242	128	85	64
1334.63502668	128	64	64
1334.686292008	144	64	123
1334.693067115	144	67	90
1334.730478161	128	64	64
1334.730699924	128	69	64
1334.740143712	144	76	66
1334.763873018	144	64	111
1334.823570208	128	64	64
1334.850426567	144	64	121
1334.940278713	128	64	64
1334.95930504	144	64	112
1335.027024212	144	81	103
1335.039482763	128	64	64
1335.057023911	144	64	119
1335.179656627	144	85	116
1335.201834365	144	69	67
1335.233164542	144	74	87
1335.247227455	128	64	64
1335.247836941	144	64	117
1335.247979069	128	64	64
1335.265189915	144	64	127
1335.265431196	144	72	93
1335.295612354	128	81	64
1335.299848741	128	76	64
1335.338481309	128	64	64
1335.362619316	144	64	124
1335.404734112	128	67	64
1335.434016408	128	64	64
1335.550360981	144	67	93
1335.550812511	144	64	126
1335.606058808	128	67	64
1335.606175199	128	72	64
1335.630532376	128	64	64
1335.653274394	144	67	93
1335.694506015	128	62	64
1335.694777289	128	85	64
1335.719814703	144	64	126
1335.731805607	128	67	64
1335.754885901	128	69	64
1335.777767733	144	81	105
1335.795992877	144	76	84
1335.807126247	128	64	64
1335.822011582	128	74	64
1335.866642322	144	62	127
1335.908749572	144	64	127
1335.925664383	144	67	95
1335.986410822	128	67	64
1336.002548034	128	64	64
1336.078945399	144	64	127
1336.102245083	128	33	64
1336.174351948	128	64	64
1336.211889578	128	81	64
1336.257124923	144	69	107
1336.297321288	144	85	108
1336.304686365	144	33	91
1336.306499107	144	67	96
1336.307561792	144	74	99
1336.363671214	144	72	93
1336.443526216	128	76	64
1336.448566996	128	67	64
1336.502405577	128	69	64
1336.589396401	128	72	64
1336.666946941	128	85	64
1336.729349439	128	62	64
1336.762349477	144	69	112
1336.87477438	144	76	87
1336.898981139	144	62	127
1336.930143038	144	67	93
1337.045165693	128	67	64
1337.289951697	128	69	64
1337.294398562	144	67	96
1337.398365087	144	85	108
1337.430751895	144	72	96
1337.500441038	128	76	64
1337.560546194	144	81	102
1337.652849	128	67	64
1337.699996087	144	69	97
1337.706129775	128	72	64
1337.785976541	128	60	64
1337.794262592	128	81	64
1337.800058845	144	67	95
1337.800393361	128	85	64
1337.828073384	128	67	64
1337.831107985	128	74	64
1337.931742041	144	67	92
1337.974236501	144	76	85
1337.997515702	128	67	64
1338.05719386	144	67	96
1338.138404269	128	67	64
1338.251945889	144	60	110
1338.287266448	144	67	100
1338.309450006	144	81	105
1338.33076854	128	67	64
1338.344156727	128	33	64
1338.398298836	144	85	106
1338.430431892	144	67	95
1338.466917076	128	69	64
1338.499405992	144	74	113
1338.530055202	128	62	64
1338.546791066	144	72	92
1338.573104852	128	74	64
1338.583263672	128	76	64
1338.585881322	144	33	93
1338.594639151	128	81	64
1338.702172526	128	67	64
1338.781066246	144	67	98
1338.823641513	128	72	64
1338.840333566	144	62	127
1338.847152211	128	67	64
1338.90123976	128	85	64
1338.910491676	144	69	104
1339.028792891	144	67	101
1339.038173992	128	69	64
1339.108723385	128	60	64
1339.132514976	144	76	95
1339.187861122	128	67	64
1339.247730418	144	69	97
1339.33539635	128	69	64
1339.388794087	144	67	104
1339.427542367	144	69	97
1339.432514976	144	85	108
1339.444629414	144	81	101
1339.501161052	128	69	64
1339.59618693	144	69	95
1339.65355957	128	81	64
1339.664582032	144	72	91
1339.66974368	128	69	64
1339.683297685	128	76	64
1339.746335497	144	69	91
1339.793619025	128	62	64
1339.823403709	128	72	64
1339.830808689	128	67	64
1339.831924849	128	69	64
1339.906861437	144	69	90
1339.935262133	128	85	64
1339.950250899	144	62	127
1339.974871763	144	67	103
1340.00286413	128	69	64
1340.014177491	128	67	64
1340.075067142	144	69	90
1340.119359174	144	64	101
1340.129773584	128	64	64
1340.129829327	144	64	116
1340.140107531	128	64	64
1340.14014777	144	64	119
1340.15837812	144	76	64
1340.159571224	144	67	101
1340.161778454	128	69	64
1340.220699013	144	69	89
1340.22951826	128	67	64
1340.266784798	128	64	64
1340.266888451	144	64	112
1340.287985868	128	64	64
1340.333534666	128	69	64
1340.392979865	144	69	91
1340.432714016	144	85	103
1340.465762341	144	81	100
1340.475247286	144	64	94
1340.482328502	128	69	64
1340.490020966	144	67	109
1340.519362852	128	64	64
1340.519464651	144	64	112
1340.52954134	144	74	95
1340.547260426	128	67	64
1340.552373067	128	64	64
1340.552416985	144	64	114
1340.603693502	128	33	64
1340.68006547	128	64	64
1340.680143021	144	64	109
1340.697772391	144	72	97
1340.705126177	144	67	107
1340.716596397	128	64	64
1340.716800237	128	76	64
1340.748718438	144	33	95
1340.855612464	144	64	102
1340.861904727	128	81	64
1340.880049355	144	69	113
1340.885731856	128	67	64
1340.890003681	128	72	64
1340.89159303	128	64	64
1340.891645698	144	64	122
1340.936425772	128	64	64
1340.936495607	144	64	121
1340.968978628	128	85	64
1341.005693613	144	64	111
1341.014717589	144	67	106
1341.031046483	128	62	64
1341.057680115	128	64	64
1341.080867979	128	67	64
1341.215575342	144	64	96
1341.244185786	144	62	127
1341.255130988	144	67	102
1341.257887551	128	64	64
1341.257928348	144	64	119
1341.279672507	128	67	64
1341.285002032	128	64	64
1341.285059161	144	64	120
1341.293264823	144	76	93
1341.368870765	128	64	64
1341.36894984	144	64	110
1341.401544246	128	64	64
1341.435007964	128	69	64
1341.467434566	144	85	112
1341.529045884	128	74	64
1341.560822689	144	81	86
1341.586855837	144	67	92
1341.629630019	128	67	64
1341.68527688	144	64	89
1341.71355025	128	64	64
1341.713604366	144	64	115
1341.772233964	128	64	64
1341.772309052	144	64	118
1341.797353547	144	72	101
1341.806963962	128	72	64
1341.807033907	144	72	96
1341.816389084	128	64	64
1341.816473541	144	64	102
1341.816803023	144	69	79
1341.824031223	144	67	92
1341.837787051	128	64	64
1341.867055874	128	76	64
1341.879011377	128	67	64
1341.893367956	128	69	64
1341.956571801	144	74	49
1341.969599104	128	85	64
1342.008049133	128	74	64
1342.040179232	128	69	64
1342.171756693	128	72	64
1342.180639704	144	67	86
1342.188957392	128	81	64
1342.247039385	128	67	64
1342.274125281	144	72	99
1342.365063446	128	72	64
1342.404890798	144	67	87
1342.428797884	128	67	64
1342.4502242	144	85	110
1342.456868027	144	76	89
1342.46941705	144	74	53
1342.530658216	128	62	64
1342.547438465	144	67	93
1342.585693608	128	74	64
1342.615506665	128	67	64
1342.663119703	144	72	90
1342.69745642	144	67	86
1342.719401849	128	33	64
1342.750184684	128	72	64
1342.775231215	144	72	98
1342.778251633	128	67	64
1342.912004042	144	81	69
1342.917888692	144	67	89
1342.936564979	128	85	64
1342.95903971	128	72	64
1342.981487866	128	67	64
1342.988146893	144	33	103
1343.057591274	144	74	82
1343.102152655	128	74	64
1343.13819207	144	67	94
1343.211011857	128	67	64
1343.219511749	144	64	97
1343.219705181	128	64	64
1343.219744719	144	64	112
1343.219942833	128	64	64
1343.220105434	144	64	107
1343.247061774	128	64	64
1343.247109625	144	64	97
1343.299442039	144	72	82
1343.364289322	128	72	64
1343.38546647	144	72	94
1343.402209208	144	85	114
1343.442467756	144	67	101
1343.481512271	128	72	64
1343.482058788	128	67	64
1343.496335648	128	81	64
1343.53742176	128	64	64
1343.537688601	144	64	90
1343.537834693	128	64	64
1343.537873675	144	64	112
1343.538066792	128	64	64
1343.538160691	144	64	113
1343.585496191	144	74	95
1343.615485336	144	67	95
1343.65002927	128	74	64
1343.683004699	128	76	64
1343.68365185	128	67	64
1343.817597124	128	64	64
1343.817678234	144	64	102
1343.817899633	128	64	64
1343.818100046	144	64	88
1343.830977745	128	64	64
1343.831043756	144	64	111
1343.864700043	144	72	94
1343.870524401	144	67	101
1343.886578183	128	85	64
1343.912329994	144	81	71
1343.913243643	128	67	64
1343.931771424	128	72	64
1344.003725524	144	72	88
1344.099484431	128	72	64
1344.102945775	144	67	100
1344.116822683	144	64	114
1344.117018988	128	64	64
1344.117056086	144	64	102
1344.117177495	128	64	64
1344.119843838	144	64	87
1344.128027831	144	74	67
1344.150491384	128	64	64
1344.150560936	144	64	110
1344.187633991	128	74	64
1344.225966038	128	64	64
1344.226022308	144	64	114
1344.258647531	128	64	64
1344.258691993	144	64	101
1344.283637156	128	64	64
1344.414414479	144	72	91
1344.451625883	144	85	121
1344.480630429	128	72	64
1344.507194956	128	81	64
1344.537279909	144	72	87
1344.557234297	144	64	88
1344.592018667	128	64	64
1344.592132409	144	64	112
1344.605746782	128	64	64
1344.60579812	144	64	113
1344.612852777	128	67	64
1344.630467969	128	72	64
1344.674016058	144	74	106
1344.677349313	128	64	64
1344.677398429	144	64	97
1344.699953428	128	64	64
1344.717220313	128	74	64
1344.853972892	128	85	64
1344.948581264	144	72	89
1344.980269593	144	81	85
1344.981125391	128	72	64
1345.036937246	144	72	86
1345.070287957	128	33	64
1345.180520859	128	72	64
1345.304421971	144	33	106
1345.378793703	144	74	97
1345.403004471	128	74	64
1345.423118384	144	85	116
1345.497071281	144	72	88
1345.529503066	128	81	64
1345.535682907	128	72	64
1345.537981196	144	67	83
1345.595425432	128	67	64
1345.627516468	144	72	87
1345.682748408	128	72	64
1345.738445805	144	67	89
1345.7565993	144	57	93
1345.783346971	128	67	64
1345.834480569	128	85	64
1345.924609043	144	67	90
1345.981305142	128	67	64
1345.998298846	144	72	89
1346.018143268	144	81	86
1346.047256822	128	72	64
1346.051876162	128	81	64
1346.106864131	144	72	88
1346.12305185	144	67	99
1346.15054799	144	74	100
1346.163335787	128	67	64
1346.185873976	128	74	64
1346.251018491	128	72	64
1346.263977808	144	67	100
1346.329982078	128	67	64
1346.419099373	144	85	117
1346.487082531	144	67	101
1346.531724562	128	67	64
1346.5328044	144	72	89
1346.597578995	128	72	64
1346.610230183	128	57	64
1346.639785289	144	72	87
1346.807475159	128	72	64
1346.907521276	144	67	95
1346.921744297	128	85	64
1346.983656258	144	60	95
1347.003728767	144	74	100
1347.049222745	144	72	89
1347.052467584	128	74	64
1347.086383472	128	67	64
1347.114061598	128	72	64
1347.153301496	144	72	83
1347.247595728	128	72	64
1347.281581929	128	60	64
1347.402633392	128	33	64
1347.480414848	144	62	116
1347.511686068	144	60	94
1347.529511431	144	85	111
1347.565607313	144	72	91
1347.604975493	144	33	100
1347.61340949	144	81	87
1347.614485998	128	72	64
1347.635591801	144	72	93
1347.674944436	144	76	87
1347.681840654	128	60	64
1347.767090048	128	62	64
1347.771679813	144	57	88
1347.791780554	128	72	64
1347.889036568	128	85	64
1347.990893356	144	60	96
1348.014051802	144	74	102
1348.034079007	144	62	115
1348.039738985	128	74	64
1348.081905518	144	72	92
1348.155200878	128	72	64
1348.156978887	144	72	88
1348.184747133	128	62	64
1348.207650488	144	67	55
1348.229575092	128	81	64
1348.291841813	128	60	64
1348.301980522	128	72	64
1348.420298602	144	62	113
1348.519070949	144	60	97
1348.548077052	128	62	64
1348.581507712	144	72	90
1348.654172807	128	72	64
1348.704104786	128	67	64
1348.721351124	144	62	114
1348.721503047	144	72	93
1348.773439668	128	57	64
1348.801136991	128	60	64
1348.865904286	128	72	64
1348.900755052	128	62	64
1349.071468057	144	62	115
1349.083571106	144	74	100
1349.115383492	144	72	87
1349.131193261	128	74	64
1349.145858938	144	81	83
1349.160127828	144	60	100
1349.174393275	144	67	103
1349.198071124	128	72	64
1349.19818337	144	72	88
1349.2128457	128	62	64
1349.299111742	128	72	64
1349.333547028	128	76	64
1349.394189244	128	81	64
1349.435733315	128	67	64
1349.46284831	144	62	115
1349.487380741	128	85	64
1349.495129942	144	81	86
1349.51961827	128	81	64
1349.53714138	128	60	64
1349.595488331	128	62	64
1349.626354727	144	81	86
1349.640874589	144	72	88
1349.648339588	144	67	104
1349.721825912	128	72	64
1349.721899206	144	72	84
1349.751958508	144	60	103
1349.753498297	144	57	87
1349.773048142	144	76	91
1349.798016335	128	72	64
1349.827451428	144	62	112
1349.952107074	128	67	64
1349.962761975	128	33	64
1349.984406688	128	62	64
1349.998828975	144	67	95
1350.09668748	128	60	64
1350.164041096	144	62	108
1350.314158358	144	72	88
1350.318720845	128	72	64
1350.318770227	144	72	87
1350.33422693	128	62	64
1350.346217539	128	81	64
1350.35472316	144	33	99
1350.389279274	144	74	95
1350.389509511	128	74	64
1350.390152166	144	60	101
1350.418174365	128	72	64
1350.564551367	144	62	108
1350.569098155	128	67	64
1350.596518142	144	81	75
1350.610192607	128	60	64
1350.649815784	144	67	95
1350.747484484	128	62	64
1350.755933745	128	57	64
1350.791701776	128	67	64
1350.865749815	144	72	85
1350.897972874	128	81	64
1350.903397936	128	72	64
1350.903445893	144	72	86
1350.943503909	144	62	107
1350.944194361	144	60	101
1350.965732578	128	72	64
1351.02326982	144	67	92
1351.151844049	128	62	64
1351.170127606	128	67	64
1351.206675157	128	60	64
1351.248264514	144	67	93
1351.330125343	128	67	64
1351.465247092	144	72	86
1351.506778547	144	81	79
1351.516595732	128	72	64
1351.537613108	144	64	114
1351.547845245	144	67	98
1351.552101435	144	74	120
1351.585368862	128	74	64
1351.616050289	128	67	64
1351.633726042	128	64	64
1351.759432175	144	64	114
1351.855698041	144	67	103
1351.878498163	128	64	64
1351.962492316	128	81	64
1351.965459564	144	72	80
1351.982245939	144	64	111
1351.991434769	144	57	85
1351.99800799	128	67	64
1352.069076724	128	72	64
1352.101940812	144	72	86
1352.107104557	128	64	64
1352.133665508	144	67	102
1352.197372351	128	67	64
1352.197637355	128	72	64
1352.240674405	144	64	115
1352.300238694	128	76	64
1352.370873373	128	64	64
1352.423223224	144	67	103
1352.463890136	128	67	64
1352.480333391	144	64	122
1352.498991351	144	72	78
1352.565804531	128	72	64
1352.572161476	128	64	64
1352.636943004	144	72	79
1352.669668636	128	33	64
1352.681109243	144	67	103
1352.690326253	144	81	66
1352.692063271	144	64	124
1352.712884737	128	57	64
1352.730177896	144	33	98
1352.734084369	144	74	121
1352.756938008	144	76	93
1352.765983407	128	67	64
1352.772433168	128	74	64
1352.775823569	128	64	64
1352.823163783	128	72	64
1352.927654683	144	64	126
1353.00380554	128	64	64
1353.005466926	144	67	106
1353.047938699	128	67	64
1353.081884757	144	72	78
1353.115987087	144	67	103
1353.166496978	128	72	64
1353.166970307	144	64	124
1353.181702532	128	67	64
1353.252284903	144	67	93
1353.267201014	128	64	64
1353.311687358	144	72	81
1353.364647636	128	72	64
1353.401825075	144	64	125
1353.508916239	128	64	64
1353.530924624	128	81	64
1353.655621663	144	64	124
1353.661858936	128	67	64
1353.70145805	144	81	73
1353.750997797	128	64	64
1353.764381827	144	72	78
1353.80483125	144	67	89
1353.846713535	128	81	64
1353.846965696	128	67	64
1353.910065068	128	72	64
1353.927511022	144	64	122
1353.989876866	144	74	109
1353.990075839	144	81	76
1354.023131804	128	74	64
1354.028961131	128	64	64
1354.082754338	144	72	74
1354.107419031	128	72	64
1354.180384695	144	64	123
1354.239331137	144	67	50
1354.277038683	128	64	64
1354.282426542	128	67	64
1354.301170483	144	67	110
1354.363887537	128	67	64
1354.384146893	144	67	44
1354.441263256	144	64	122
1354.44707034	128	67	64
1354.465951277	144	72	74
1354.466602058	144	67	107
1354.514746935	128	72	64
1354.533819903	128	76	64
1354.534812923	128	64	64
1354.553163616	144	45	67
1354.561317046	128	67	64
1354.567957579	144	67	40
1354.614480232	128	67	64
1354.637257727	144	67	101
1354.6393897	128	81	64
1354.649516517	128	45	64
1354.664882518	144	64	122
1354.711205962	128	67	64
1354.717314488	144	67	39
1354.770069514	128	64	64
1354.779133244	144	81	81
1354.78154551	128	67	64
1354.797764879	144	72	71
1354.79992597	144	67	99
1354.878878706	128	67	64
1354.884672509	144	67	35
1354.891583659	144	76	93
1354.906157	128	72	64
1354.937373456	128	33	64
1354.941162396	144	64	116
1354.946945698	128	67	64
1354.966575043	144	67	106
1355.020942879	128	64	64
1355.044702239	128	67	64
1355.05296475	144	67	39
1355.091411713	144	72	74
1355.114252155	128	67	64
1355.116505208	144	45	106
1355.151455113	144	67	103
1355.164507232	128	72	64
1355.169073394	144	64	117
1355.189490504	144	33	111
1355.213905523	128	67	64
1355.232750305	144	67	37
1355.246888009	128	81	64
1355.271417816	144	74	102
1355.273478388	128	64	64
1355.283471365	128	67	64
1355.289457416	128	74	64
1355.31094347	144	81	89
1355.31634188	144	67	101
1355.330071627	128	45	64
1355.39484137	128	67	64
1355.408150498	144	64	117
1355.410793428	144	60	97
1355.41400703	144	67	29
1355.43264366	144	72	77
1355.480696589	128	67	64
1355.499363773	128	72	64
1355.499711186	144	67	97
1355.528895391	128	64	64
1355.563795265	128	67	64
1355.579629865	128	60	64
1355.582090133	144	67	34
1355.583991017	144	45	111
1355.631700842	128	67	64
1355.64855741	144	64	114
1355.666405095	144	67	99
1355.680929041	128	81	64
1355.681801977	144	72	79
1355.701063707	144	62	113
1355.730069674	128	67	64
1355.744806865	128	45	64
1355.748820472	144	67	29
1355.771872423	128	64	64
1355.781944536	128	72	64
1355.803647055	128	62	64
1355.813408956	128	67	64
1355.832159711	144	67	96
1355.833760165	128	76	64
1355.852337808	144	81	87
1355.870628639	144	72	70
1355.89825402	144	64	113
1355.913303534	128	67	64
1355.931052017	144	67	23
1355.980510057	128	67	64
1355.991817686	144	76	95
1356.015733779	128	64	64
1356.017766029	144	67	97
1356.025069839	128	72	64
1356.026987835	144	60	84
1356.053422698	144	72	79
1356.059801048	128	76	64
1356.094926555	128	67	64
1356.099853987	128	60	64
1356.119201891	144	67	25
1356.137651199	144	64	112
1356.1419079	144	76	95
1356.153435353	144	62	112
1356.162572962	128	81	64
1356.194772917	128	67	64
1356.19761004	128	72	64
1356.200224499	144	67	100
1356.209815166	128	76	64
1356.217814135	128	62	64
1356.238974299	144	72	67
1356.253637763	128	64	64
1356.273153801	144	76	98
1356.294582066	128	67	64
1356.31396241	144	67	23
1356.314858595	128	72	64
1356.315105175	144	81	91
1356.328063702	128	76	64
1356.380958543	128	67	64
1356.387885202	144	72	78
1356.388230275	144	64	109
1356.398920451	144	67	99
1356.410054877	144	62	106
1356.43608362	144	60	96
1356.459382734	144	45	107
1356.479134687	128	64	64
1356.481736874	128	67	64
1356.481895773	128	72	64
1356.484136219	144	67	27
1356.50733356	144	76	106
1356.527746731	128	76	64
1356.535848193	144	72	65
1356.536898638	128	62	64
1356.547047912	128	67	64
1356.555500322	144	74	108
1356.580029554	144	76	70
1356.583788758	128	45	64
1356.584510147	128	74	64
1356.588183159	128	60	64
1356.589089491	144	67	99
1356.597550719	128	72	64
1356.609235431	128	76	64
1356.60928984	144	76	109
1356.616285101	144	64	114
1356.636164728	144	72	77
1356.663431315	128	67	64
1356.671020792	144	67	28
1356.68070687	128	81	64
1356.709105688	128	76	64
1356.723745267	128	64	64
1356.730657274	128	72	64
1356.734618109	144	62	100
1356.741134012	128	67	64
1356.770417313	144	67	98
1356.785509315	144	72	65
1356.829064155	128	67	64
1356.836139675	144	45	106
1356.850979976	144	67	28
1356.855888758	144	64	119
1356.88079009	128	72	64
1356.913482367	128	67	64
1356.936964416	144	67	106
1356.937786003	144	72	75
1356.93868828	128	62	64
1356.942474736	128	45	64
1356.956619343	144	76	86
1356.959794294	128	64	64
1357.000675675	128	76	64
1357.011186276	128	67	64
1357.031041035	144	67	34
1357.042235244	144	60	76
1357.073260449	144	76	106
1357.091021299	128	72	64
1357.091261622	144	72	64
1357.095717008	144	64	120
1357.101595479	128	67	64
1357.109490391	144	62	101
1357.118011731	144	67	102
1357.123641131	128	60	64
1357.130628897	128	72	64
1357.163459209	128	76	64
1357.186127637	144	72	75
1357.186329654	144	76	79
1357.202542018	128	64	64
1357.211437016	128	67	64
1357.217551604	144	67	29
1357.221739512	128	62	64
1357.227274145	128	76	64
1357.27468374	144	76	116
1357.28086312	128	67	64
1357.285726839	128	72	64
1357.289761043	144	72	64
1357.300976008	144	67	95
1357.303858668	128	33	64
1357.322457004	128	76	64
1357.327112667	144	76	81
1357.346056904	144	64	121
1357.363839807	128	72	64
1357.364587042	128	76	64
1357.380766291	128	67	64
1357.385436611	144	72	74
1357.392815232	144	62	97
1357.417733903	144	76	116
1357.423528415	144	60	96
1357.456676128	128	64	64
1357.465383847	128	76	64
1357.467473481	144	76	82
1357.481621363	128	72	64
1357.485751163	128	76	64
1357.499561762	144	67	101
1357.516085403	144	76	115
1357.521930777	144	72	65
1357.545354535	128	76	64
1357.571839136	128	62	64
1357.575602785	144	76	80
1357.577829015	128	67	64
1357.588401287	144	33	112
1357.597450296	144	67	26
1357.611206068	128	76	64
1357.61398096	128	72	64
1357.617706438	144	64	118
1357.636055664	144	76	109
1357.65605976	144	72	75
1357.662098188	128	76	64
1357.663268097	128	67	64
1357.701019555	144	76	74
1357.704559664	144	67	107
1357.709395863	144	62	93
1357.709503474	128	60	64
1357.723241198	128	64	64
1357.729919207	128	76	64
1357.733197428	144	74	103
1357.74974576	144	76	103
1357.750513112	128	72	64
1357.771536618	144	72	63
1357.773012217	128	74	64
1357.780003658	128	67	64
1357.793119499	128	76	64
1357.799181787	144	67	32
1357.822682399	144	76	72
1357.830175527	128	67	64
1357.84605714	144	64	119
1357.847374831	128	72	64
1357.847948621	128	76	64
1357.874310974	144	76	116
1357.884212098	144	67	106
1357.911407768	128	76	64
1357.917458643	128	62	64
1357.917636934	144	72	75
1357.943951263	128	64	64
1357.961192637	128	67	64
1357.964234298	128	72	64
1357.98940571	144	76	119
1358.000910411	144	67	31
1358.023921157	128	76	64
1358.034880148	144	60	92
1358.058733253	144	76	82
1358.062334211	128	67	64
1358.068706765	144	67	103
1358.085847086	144	64	118
1358.093312511	128	76	64
1358.118018141	144	62	93
1358.127093941	144	72	64
1358.140584081	144	76	113
1358.166239573	128	76	64
1358.198374091	128	72	64
1358.20433322	128	60	64
1358.205025044	128	64	64
1358.207460487	144	76	77
1358.221667179	128	67	64
1358.232383865	144	67	12
1358.247758384	128	76	64
1358.252149238	144	76	111
1358.254505188	128	62	64
1358.256877068	144	72	77
1358.268085142	128	67	64
1358.299345922	144	67	92
1358.309241874	128	45	64
1358.322933132	128	76	64
1358.324221481	144	64	116
1358.326929154	144	76	81
1358.347530533	128	72	64
1358.349110502	128	76	64
1358.367273495	144	76	119
1358.381338633	144	87	82
1358.395793348	128	67	64
1358.400924099	144	67	17
1358.411852218	144	62	91
1358.430171005	128	64	64
1358.434742173	128	76	64
1358.440195137	144	76	87
1358.447466536	144	60	113
1358.463296936	128	67	64
1358.474656231	128	76	64
1358.523012322	144	67	96
1358.528204094	144	76	111
1358.53851723	128	62	64
1358.553193646	144	64	116
1358.57487613	128	76	64
1358.577395921	144	76	74
1358.580457177	128	67	64
1358.595129159	128	60	64
1358.600593593	144	67	19
1358.617007026	128	76	64
1358.624791598	128	87	64
1358.625920372	144	76	105
1358.632251657	144	72	83
1358.648185986	128	67	64
1358.657397969	128	64	64
1358.659914054	128	76	64
1358.660579245	144	62	92
1358.681932104	128	72	64
1358.689204507	144	76	58
1358.708867012	144	67	102
1358.730891361	144	57	33
1358.767315419	144	72	79
1358.767483018	128	76	64
1358.767588758	144	76	102
1358.780603786	128	67	64
1358.786000302	144	67	24
1358.792065875	144	64	114
1358.807963319	128	76	64
1358.841278447	144	76	65
1358.847147085	128	67	64
1358.848023097	128	57	64
1358.848415198	128	72	64
1358.864628412	128	76	64
1358.887762537	144	67	104
1358.889530807	128	62	64
1358.892411885	144	76	107
1358.908879255	128	64	64
1358.923884384	144	57	34
1358.929601469	128	76	64
1358.930063271	144	87	122
1358.945825691	128	67	64
1358.951270827	144	67	24
1358.962215375	144	60	100
1358.962817343	144	76	66
1358.991406222	128	76	64
1359.010597763	144	74	98
1359.013203894	128	67	64
1359.023499374	144	76	107
1359.023769859	128	74	64
1359.026872481	144	62	94
1359.036872194	128	57	64
1359.042145757	128	87	64
1359.042910728	144	64	114
1359.053627081	144	67	105
1359.097264782	144	72	77
1359.106484111	144	57	39
1359.108167406	128	76	64
1359.112321346	144	76	64
1359.113878864	128	76	64
1359.141851256	128	62	64
1359.14486889	128	67	64
1359.148477754	128	60	64
1359.14949779	144	76	103
1359.150980457	144	67	22
1359.152073541	128	64	64
1359.164947641	128	72	64
1359.180373479	128	67	64
1359.199754649	144	67	122
1359.213001265	128	76	64
1359.218277283	128	57	64
1359.222338393	144	76	62
1359.254587892	144	72	75
1359.260842885	128	76	64
1359.276951662	144	57	44
1359.277157543	144	62	87
1359.27825896	128	67	64
1359.281494606	144	64	114
1359.281691384	144	76	106
1359.317923	144	67	24
1359.331120278	144	60	95
1359.332529985	128	76	64
1359.348386588	128	67	64
1359.35157587	144	76	65
1359.367055472	128	72	64
1359.381187314	144	67	120
1359.381412745	128	76	64
1359.392551873	128	64	64
1359.393934759	128	57	64
1359.43955879	144	57	47
1359.445106179	128	67	64
1359.501637799	144	67	33
1359.514651049	144	72	76
1359.517122491	128	60	64
1359.522360892	144	64	114
1359.529889016	128	67	64
1359.551864401	144	67	115
1359.562614481	128	57	64
1359.564903931	128	72	64
1359.573257321	144	76	104
1359.605998201	128	62	64
1359.616067341	128	76	64
1359.61925751	128	64	64
1359.620481407	144	76	67
1359.631180229	128	67	64
1359.632364816	144	57	52
1359.656847651	128	76	64
1359.667976459	144	60	94
1359.668512682	144	67	25
1359.713194581	128	67	64
1359.713778188	144	76	105
1359.715958674	144	72	77
1359.724047504	128	57	64
1359.751514155	144	67	114
1359.759346313	128	76	64
1359.762735674	144	76	69
1359.781327781	144	57	55
1359.781958363	128	72	64
1359.782420656	144	64	113
1359.797707665	128	76	64
1359.829563846	128	67	64
1359.83715965	128	33	64
1359.846210069	144	62	87
1359.847736382	144	67	25
1359.849994661	144	76	111
1359.854016114	128	60	64
1359.879419268	128	64	64
1359.903403052	128	67	64
1359.906135349	128	57	64
1359.921096172	128	76	64
1359.925290262	144	76	70
1359.948814997	144	67	109
1359.949661533	144	57	57
1359.950380577	128	76	64
1359.969550982	144	76	113
1359.97774444	144	87	119
1360.010821754	128	76	64
1360.012578162	144	64	117
1360.014488873	128	67	64
1360.043872052	144	76	66
1360.047222244	144	72	81
1360.050451756	144	67	21
1360.054087747	144	33	114
1360.073812976	128	76	64
1360.074984213	128	57	64
1360.09025629	128	62	64
1360.094911141	128	67	64
1360.116895665	128	64	64
1360.124761776	144	76	104
1360.132661033	144	67	114
1360.133225773	144	57	62
1360.134707888	128	72	64
1360.162364416	144	60	106
1360.164096695	144	74	103
1360.196483889	128	67	64
1360.201182237	128	76	64
1360.204559273	144	76	57
1360.217460553	144	67	23
1360.218457696	128	74	64
1360.235646646	128	57	64
1360.24701622	128	87	64
1360.255021244	128	76	64
1360.257240139	144	76	107
1360.269360527	144	62	91
1360.269956838	144	64	113
1360.279775018	128	67	64
1360.286310068	144	57	67
1360.3006412	144	72	81
1360.306529784	128	60	64
1360.308286802	128	76	64
1360.311466019	144	76	64
1360.334170004	128	62	64
1360.347519621	144	67	113
1360.361207153	128	76	64
1360.364953798	128	72	64
1360.39857156	128	57	64
1360.400248534	128	64	64
1360.400635334	144	87	119
1360.416215718	128	67	64
1360.422378056	144	67	21
1360.427640474	144	76	107
1360.430033511	144	81	75
1360.437791075	128	81	64
1360.445601885	128	76	64
1360.457782509	144	57	77
1360.473351969	144	62	85
1360.476748086	144	76	58
1360.481141731	128	67	64
1360.486381262	144	64	115
1360.490579675	144	81	75
1360.495648637	128	87	64
1360.511598763	128	76	64
1360.517012491	144	72	81
1360.519341911	144	60	106
1360.519622324	144	67	116
1360.565159863	128	72	64
1360.568802047	128	81	64
1360.576775773	128	57	64
1360.58332993	144	76	96
1360.587165658	128	62	64
1360.596182162	128	60	64
1360.615410403	128	64	64
1360.617690153	144	87	122
1360.621819639	128	67	64
1360.622778578	144	67	20
1360.62356371	144	57	80
1360.636733569	128	76	64
1360.654823409	144	72	80
1360.65715675	144	81	80
1360.676060454	128	87	64
1360.676672975	144	76	58
1360.694850264	128	67	64
1360.72019538	128	81	64
1360.725409695	128	76	64
1360.729264911	144	76	99
1360.732040694	128	72	64
1360.735798267	128	57	64
1360.737708234	144	67	107
1360.752013926	144	62	88
1360.762207218	144	64	113
1360.762885774	128	76	64
1360.775552202	144	76	60
1360.784697812	144	60	110
1360.80117655	144	57	84
1360.801799558	144	87	118
1360.804302298	144	72	76
1360.807338407	144	81	78
1360.828268949	128	67	64
1360.830963802	128	76	64
1360.833135013	144	67	25
1360.835534383	144	76	101
1360.87098689	128	81	64
1360.880135236	128	87	64
1360.881815198	128	76	64
1360.886160209	128	64	64
1360.88795214	144	76	61
1360.896487496	128	67	64
1360.904683389	128	57	64
1360.908226709	128	72	64
1360.910677469	128	76	64
1360.928584063	128	60	64
1360.936757573	144	67	111
1360.957161871	144	81	79
1360.963224522	144	76	98
1360.979376686	144	57	87
1360.997835693	128	76	64
1361.001012427	144	87	127
1361.007283851	144	72	72
1361.013365781	128	67	64
1361.018828505	144	76	65
1361.020086758	128	81	64
1361.033475016	144	64	114
1361.040579765	128	62	64
1361.040679219	128	87	64
1361.046353842	128	76	64
1361.050626868	144	67	22
1361.080355112	144	76	109
1361.081953781	128	67	64
1361.083879512	128	72	64
1361.092268727	128	57	64
1361.107371047	128	76	64
1361.108143517	144	60	108
1361.111572669	144	87	110
1361.124204435	144	81	76
1361.139658392	128	87	64
1361.139834128	128	64	64
1361.14437022	144	76	67
1361.1446767	144	57	91
1361.147566396	144	67	116
1361.170161799	144	72	69
1361.175761772	128	76	64
1361.192597235	144	87	123
1361.202923208	128	81	64
1361.203979889	144	62	93
1361.219500692	144	76	110
1361.22845411	128	72	64
1361.228511265	144	72	76
1361.239551244	128	87	64
1361.247515566	128	76	64
1361.252479939	128	60	64
1361.263518413	128	57	64
1361.274546373	144	81	77
1361.276638393	144	76	75
1361.279293838	144	87	104
1361.291294292	128	67	64
1361.29165871	144	67	26
1361.294942725	144	64	116
1361.299486185	128	67	64
1361.300924819	128	76	64
1361.313037813	144	57	97
1361.314864757	128	72	64
1361.323508194	128	62	64
1361.325399621	128	87	64
1361.333834894	144	76	116
1361.350048569	144	67	116
1361.352981865	128	81	64
1361.376634745	144	87	111
1361.37815321	128	76	64
1361.388909254	144	72	63
1361.393609439	128	64	64
1361.398756593	144	74	96
1361.405089621	144	76	78
1361.405369271	128	87	64
1361.415535558	128	72	64
1361.415596902	144	72	75
1361.428052837	128	67	64
1361.445604839	128	57	64
1361.447335094	144	67	22
1361.449148044	128	74	64
1361.474510548	128	76	64
1361.475512338	144	87	98
1361.477273476	144	76	119
1361.480468568	144	57	103
1361.480844423	128	72	64
1361.488748997	128	87	64
1361.495518569	144	62	89
1361.4971141	144	81	79
1361.51383234	128	67	64
1361.514396829	128	76	64
1361.514461572	144	76	84
1361.521558492	144	60	114
1361.540644518	144	64	113
1361.550833381	144	72	74
1361.567058081	144	67	111
1361.57066692	128	72	64
1361.57072247	144	72	62
1361.577263812	128	76	64
1361.610327221	144	87	99
1361.619556776	144	76	120
1361.62353761	128	62	64
1361.630140473	128	57	64
1361.644105409	128	64	64
1361.661388416	128	67	64
1361.66487502	144	57	108
1361.665516092	128	72	64
1361.666682552	144	67	23
1361.673669492	128	87	64
1361.690862454	128	76	64
1361.694055849	144	76	87
1361.730296414	128	67	64
1361.735606221	128	76	64
1361.73891696	144	76	118
1361.755296142	144	62	82
1361.756372169	144	72	72
1361.757560389	128	72	64
1361.757607916	144	72	61
1361.782612814	144	87	88
1361.788267829	128	60	64
1361.798761947	128	57	64
1361.799006876	144	67	110
1361.80712346	144	64	111
1361.811271921	128	76	64
1361.83317258	144	57	114
1361.835468597	144	76	83
1361.84972664	128	72	64
1361.856008432	128	87	64
1361.882597417	128	76	64
1361.894758702	128	67	64
1361.900703141	144	67	25
1361.901024192	144	76	113
1361.913880052	128	81	64
1361.923048862	128	64	64
1361.940320058	144	72	75
1361.957996267	128	57	64
1361.960669213	128	72	64
1361.960718036	144	72	59
1361.963198196	128	67	64
1361.970749599	128	62	64
1361.980355557	144	87	95
1361.989787996	128	76	64
1361.989841287	144	76	85
1362.003448379	144	57	115
1362.025371074	128	76	64
1362.031089687	144	67	108
1362.032137786	128	72	64
1362.040897252	128	87	64
1362.069029739	144	64	110
1362.079171171	144	76	111
1362.112618194	128	57	64
1362.12012024	144	72	76
1362.125888092	128	76	64
1362.125929416	144	76	83
1362.128309792	128	67	64
1362.133641821	144	67	18
1362.152474453	128	72	64
1362.152517852	144	72	59
1362.164657727	144	87	96
1362.165474929	128	76	64
1362.172128606	128	64	64
1362.179948466	144	57	114
1362.183629385	144	76	112
1362.196316434	128	67	64
1362.207995164	128	87	64
1362.228251325	128	76	64
1362.231767057	128	72	64
1362.25007319	144	67	112
1362.258351951	144	76	80
1362.288769492	128	57	64
1362.295015708	144	62	82
1362.304349955	144	72	77
1362.308847145	128	76	64
1362.309887003	144	64	108
1362.316156026	144	60	108
1362.332790323	144	87	101
1362.338872398	144	57	108
1362.34514967	128	67	64
1362.350404454	144	67	24
1362.361895557	144	76	120
1362.386820248	128	62	64
1362.390343716	128	72	64
1362.390397683	144	72	59
1362.391462274	128	87	64
1362.413436804	128	67	64
1362.425869539	128	64	64
1362.433052981	128	76	64
1362.43313137	144	76	78
1362.443394352	128	57	64
1362.461035485	128	76	64
1362.466404845	144	67	109
1362.477513346	128	60	64
1362.494217045	144	87	96
1362.505761914	144	57	104
1362.509377854	144	62	82
1362.518211344	144	76	120
1362.533751245	128	72	64
1362.534006347	144	72	78
1362.544879585	128	67	64
1362.547810403	144	64	107
1362.550196963	144	67	18
1362.559705327	128	87	64
1362.565599309	128	81	64
1362.575118574	128	76	64
1362.57860026	144	76	78
1362.594780548	128	57	64
1362.597300214	144	74	112
1362.628060805	128	76	64
1362.6283095	128	67	64
1362.633365952	128	72	64
1362.644752699	128	74	64
1362.651757847	128	64	64
1362.667461878	144	67	104
1362.67403439	144	57	97
1362.680633017	144	87	99
1362.688292935	144	76	113
1362.690596156	144	72	58
1362.707518289	128	62	64
1362.725002808	128	87	64
1362.761543686	128	67	64
1362.768517382	128	76	64
1362.76858531	144	76	73
1362.778454214	128	57	64
1362.781066715	144	67	18
1362.781784305	128	72	64
1362.795416545	128	76	64
1362.799268983	144	64	112
1362.819627325	144	72	79
1362.822631697	144	60	101
1362.846845515	128	67	64
1362.847434943	144	87	95
1362.857927008	144	57	91
1362.873488684	144	76	113
1362.899724881	144	67	112
1362.90724759	128	87	64
1362.912011946	144	62	84
1362.91326412	128	76	64
1362.917320943	144	76	71
1362.917493088	128	60	64
1362.927472185	128	64	64
1362.932628254	128	72	64
1362.956889322	144	72	58
1362.969135126	128	57	64
1362.976096548	128	76	64
1362.994566137	128	67	64
1363.014775343	144	67	15
1363.020137251	144	87	94
1363.024530235	128	62	64
1363.037282205	144	64	113
1363.039031898	144	76	108
1363.048112394	128	72	64
1363.067022101	144	57	83
1363.072177972	144	72	79
1363.077234834	128	76	64
1363.077298879	144	76	71
1363.09036208	128	87	64
1363.094922842	128	67	64
1363.128146191	128	76	64
1363.158983484	144	76	104
1363.164331916	128	64	64
1363.166577671	144	67	113
1363.16924951	128	57	64
1363.179218094	144	62	81
1363.197327214	144	87	90
1363.203455639	144	60	111
1363.216377673	128	72	64
1363.216631214	144	72	58
1363.220139794	128	76	64
1363.22326773	144	76	68
1363.242222685	128	87	64
1363.248880486	144	57	81
1363.257840206	128	76	64
1363.261881165	128	67	64
1363.267561991	144	67	32
1363.282931686	144	64	114
1363.3082672	128	62	64
1363.323896614	128	72	64
1363.327525566	144	72	78
1363.344573158	128	67	64
1363.357384361	128	57	64
1363.379901402	144	87	96
1363.38976224	128	60	64
1363.391311368	128	64	64
1363.400042456	144	67	114
1363.402029903	144	76	76
1363.413270602	128	76	64
1363.416185973	128	72	64
1363.426460964	128	87	64
1363.429381752	144	62	81
1363.448146438	144	57	75
1363.495147924	128	67	64
1363.507095801	144	76	77
1363.510701168	144	72	78
1363.514145775	128	72	64
1363.514183781	144	72	60
1363.51661083	144	64	112
1363.517612103	144	67	28
1363.54932087	128	57	64
1363.558665554	128	76	64
1363.580843575	144	87	99
1363.582828829	128	72	64
1363.607815246	128	62	64
1363.612655942	128	67	64
1363.625093198	128	87	64
1363.629266274	128	64	64
1363.634246751	144	67	115
1363.645589076	144	57	66
1363.654702778	144	76	79
1363.711407558	128	76	64
1363.715074046	144	60	109
1363.72866297	144	72	79
1363.737353881	128	57	64
1363.747345461	144	87	100
1363.755563446	144	64	108
1363.77661735	128	67	64
1363.776785246	144	67	27
1363.798781286	128	72	64
1363.79927643	144	76	84
1363.808260532	128	87	64
1363.82093305	144	62	86
1363.823534755	144	57	59
1363.857684583	128	76	64
1363.860030921	144	74	110
1363.861341919	128	67	64
1363.868949357	128	60	64
1363.884539295	144	67	105
1363.884831277	128	64	64
1363.906082387	128	74	64
1363.917387157	128	57	64
1363.919931278	128	62	64
1363.931080277	144	87	100
1363.994059307	128	87	64
1364.003987763	128	33	64
1364.006000432	144	64	112
1364.021927809	144	57	56
1364.024138546	144	76	85
1364.02554302	128	67	64
1364.025679628	144	67	15
1364.080113479	144	62	82
1364.094562787	128	67	64
1364.099536924	144	72	81
1364.115066247	144	87	97
1364.120229503	128	64	64
1364.124367377	128	57	64
1364.131238372	144	60	113
1364.136288005	144	67	97
1364.166665227	128	72	64
1364.177306179	128	87	64
1364.182816532	128	76	64
1364.208391939	128	62	64
1364.217568764	144	57	53
1364.245278618	144	64	107
1364.247511136	144	33	114
1364.281615876	144	87	99
1364.288534358	128	67	64
1364.28856868	144	67	20
1364.301082946	128	57	64
1364.341363573	128	87	64
1364.361611982	128	67	64
1364.364658848	128	60	64
1364.36968156	128	64	64
1364.381581583	144	62	83
1364.390295495	128	33	64
1364.441239567	144	57	44
1364.444682542	144	87	97
1364.463458145	144	72	82
1364.490936605	128	57	64
1364.508382409	128	87	64
1364.511289338	144	64	106
1364.52334878	128	62	64
1364.595397556	144	57	36
1364.60866041	128	72	64
1364.629615316	144	60	106
1364.631188544	144	87	99
1364.642488985	128	64	64
1364.658362776	144	76	85
1364.666218888	128	57	64
1364.666787431	144	67	31
1364.670465325	144	62	86
1364.692151767	128	87	64
1364.70772776	144	72	77
1364.710971373	128	76	64
1364.736184435	144	57	36
1364.755883036	128	67	64
1364.772264268	144	76	110
1364.791944262	128	62	64
1364.799269351	144	87	99
1364.802301756	128	72	64
1364.804848728	144	64	109
1364.818226535	128	76	64
1364.818307942	144	76	80
1364.835661955	128	60	64
1364.847691098	128	57	64
1364.859608237	128	87	64
1364.897247371	128	64	64
1364.908735607	128	76	64
1364.918993769	144	57	41
1364.935628827	144	76	75
1364.96194655	144	87	99
1364.964184855	144	62	85
1364.978299475	128	76	64
1365.001421787	144	76	116
1365.006630957	144	60	122
1365.016118315	144	67	94
1365.025425194	128	87	64
1365.025619379	144	72	76
1365.02709189	144	64	113
1365.04791424	128	57	64
1365.057235115	128	76	64
1365.096290998	144	76	80
1365.116587401	128	76	64
1365.116890844	128	72	64
1365.130508354	144	57	50
1365.142223745	144	76	118
1365.148047449	144	87	100
1365.157832516	128	64	64
1365.158804531	128	62	64
1365.183853298	128	76	64
1365.183983173	144	76	80
1365.203524633	128	67	64
1365.209424623	128	87	64
1365.231362354	128	76	64
1365.233659105	128	57	64
1365.255275941	144	62	82
1365.260817334	128	60	64
1365.278011624	144	64	115
1365.280820235	144	76	116
1365.309412951	144	57	55
1365.31236043	144	87	100
1365.314712292	128	76	64
1365.31818083	144	72	77
1365.339180715	144	76	83
1365.375607044	128	87	64
1365.378093229	128	76	64
1365.378158216	144	76	120
1365.391855861	128	62	64
1365.394296393	128	64	64
1365.403507228	128	72	64
1365.417650087	128	57	64
1365.440867181	128	76	64
1365.442853553	144	76	88
1365.447540916	144	50	50
1365.481743755	144	87	96
1365.484675575	144	57	62
1365.491129218	144	60	121
1365.508913258	128	76	64
1365.540629934	144	64	113
1365.544941945	128	87	64
1365.54966669	144	72	78
1365.556210961	144	62	85
1365.579155395	128	57	64
1365.604231917	144	76	121
1365.616214568	128	72	64
1365.648466649	144	87	98
1365.658890578	128	62	64
1365.659229919	128	60	64
1365.662248096	144	57	66
1365.662493995	128	50	64
1365.666556526	128	64	64
1365.674547027	128	76	64
1365.699848486	144	76	80
1365.711510315	128	87	64
1365.733396379	144	67	103
1365.75346149	144	50	51
1365.760652129	128	76	64
1365.768098861	144	72	77
1365.789106474	144	64	111
1365.798754058	128	57	64
1365.806028384	144	76	120
1365.812412899	144	87	95
1365.831551858	128	72	64
1365.847181465	144	57	69
1365.88326169	128	76	64
1365.883943836	144	62	89
1365.888326057	144	76	87
1365.892752057	128	87	64
1365.915769769	128	76	64
1365.917301897	128	64	64
1365.919074714	144	72	76
1365.935019275	144	76	102
1365.943141032	144	60	119
1365.974105297	128	57	64
1365.982065316	144	87	96
1365.999072342	128	72	64
1366.022966489	128	76	64
1366.023040466	144	76	74
1366.026041436	128	62	64
1366.041364343	128	76	64
1366.045264018	144	57	76
1366.051622683	144	64	111
1366.054911459	128	67	64
1366.076262274	128	87	64
1366.093238901	144	76	105
1366.143752013	144	72	76
1366.149817324	128	76	64
1366.149855827	144	76	88
1366.150461364	144	87	95
1366.158395496	128	60	64
1366.163888405	144	62	80
1366.1682186	128	57	64
1366.168781571	128	64	64
1366.200907652	128	72	64
1366.227770965	128	76	64
1366.229444245	144	57	80
1366.243117935	128	87	64
1366.251291956	144	76	101
1366.276221084	128	62	64
1366.291503351	144	64	109
1366.332611555	144	87	97
1366.345382605	144	72	76
1366.351757662	128	57	64
1366.354581651	128	76	64
1366.354620611	144	76	87
1366.355329709	144	33	102
1366.397348739	128	33	64
1366.400947609	128	72	64
1366.405088252	144	60	119
1366.405326019	128	64	64
1366.409825503	128	87	64
1366.42645179	144	67	108
1366.427819884	144	57	86
1366.432957648	128	50	64
1366.463845666	144	62	84
1366.493080182	144	72	79
1366.495660123	144	50	50
1366.515737275	144	87	96
1366.548030134	128	76	64
1366.548099933	144	76	101
1366.549031424	128	60	64
1366.5518322	144	64	107
1366.562244549	128	57	64
1366.572399214	144	33	103
1366.577315758	128	62	64
1366.582851744	128	33	64
1366.595956826	128	87	64
1366.619356687	144	57	91
1366.625763017	128	76	64
1366.636753714	128	72	64
1366.646818947	128	64	64
1366.675832574	144	76	90
1366.683302048	144	87	99
1366.727917226	128	76	64
1366.747439407	144	62	84
1366.754475503	144	76	107
1366.760195036	128	87	64
1366.761194849	128	57	64
1366.780799693	144	64	104
1366.79871926	128	50	64
1366.815790656	144	57	96
1366.821711062	144	60	114
1366.841602611	144	50	53
1366.848325288	128	67	64
1366.850812175	128	76	64
1366.850851184	144	76	94
1366.859809111	128	62	64
1366.872771946	128	64	64
1366.882464448	144	87	106
1366.894582427	144	72	83
1366.953928887	128	57	64
1366.959631252	128	87	64
1366.965928862	128	72	64
1366.999533777	128	76	64
1367.019173553	144	57	107
1367.019935955	144	64	107
1367.037880433	128	60	64
1367.052069125	144	62	87
1367.066093826	144	87	106
1367.082056602	144	76	113
1367.125762326	128	76	64
1367.128348491	128	64	64
1367.130444864	144	76	92
1367.142050897	144	67	110
1367.147986611	128	87	64
1367.15092889	128	57	64
1367.181521492	128	76	64
1367.18533546	144	76	120
1367.195527404	144	57	113
1367.210459001	128	62	64
1367.21563959	144	72	83
1367.244303623	144	87	106
1367.274579822	144	64	108
1367.317054072	144	60	117
1367.319850016	128	72	64
1367.324192835	128	87	64
1367.347617749	128	57	64
1367.349821946	128	76	64
1367.371903945	144	62	87
1367.374897177	144	76	96
1367.381332744	144	57	117
1367.384092969	128	64	64
1367.420922613	128	67	64
1367.427202526	128	76	64
1367.428361643	144	87	106
1367.468070551	144	72	85
1367.468986641	128	60	64
1367.470105175	144	76	110
1367.474761458	128	62	64
1367.492189538	128	76	64
1367.509923435	128	87	64
1367.526872928	144	76	93
1367.534032057	128	72	64
1367.537039678	144	64	109
1367.54026628	144	67	107
1367.546883333	128	76	64
1367.558609871	128	57	64
1367.56419484	144	57	122
1367.593361557	144	76	103
1367.59678097	144	87	107
1367.596930344	128	67	64
1367.629669348	128	76	64
1367.630852308	128	64	64
1367.644916062	144	62	84
1367.648028979	144	76	96
1367.677349328	128	76	64
1367.684797941	144	72	81
1367.693476086	128	87	64
1367.698832342	128	57	64
1367.714839891	128	50	64
1367.733946246	144	76	101
1367.759605972	144	57	121
1367.760154654	128	62	64
1367.761023025	128	76	64
1367.768189526	128	72	64
1367.781945468	144	50	57
1367.784401053	144	64	111
1367.791647641	144	67	106
1367.793183458	144	87	106
1367.808409796	144	76	89
1367.832592172	128	76	64
1367.859175107	128	87	64
1367.874052714	144	76	96
1367.878442766	128	64	64
1367.880748234	128	67	64
1367.890681965	128	50	64
1367.895954708	128	57	64
1367.896760054	128	76	64
1367.926260145	144	76	91
1367.939122472	144	62	84
1367.942696689	128	76	64
1367.9504791	144	72	81
1367.95738795	144	57	118
1367.966586396	144	87	105
1367.975953493	144	76	99
1368.022153801	144	64	109
1368.023980155	144	67	106
1368.025274391	128	76	64
1368.026843405	128	62	64
1368.036439524	144	50	56
1368.042554251	128	87	64
1368.051708745	144	76	90
1368.094908407	128	57	64
1368.095214841	128	72	64
1368.111101904	128	76	64
1368.13363606	144	87	104
1368.139537048	144	76	99
1368.1716421	144	72	80
1368.180214063	144	57	114
1368.180807715	128	64	64
1368.181324936	144	62	87
1368.210994563	128	87	64
1368.215811776	128	76	64
1368.215923301	144	76	89
1368.249545975	128	67	64
1368.26114501	128	76	64
1368.282905283	144	64	109
1368.293589325	128	62	64
1368.302411006	128	57	64
1368.308058614	144	76	94
1368.320194338	144	87	104
1368.325659648	128	72	64
1368.348738998	128	76	64
1368.349170427	144	57	103
1368.392793663	128	87	64
1368.412455059	144	76	103
1368.41267898	128	64	64
1368.4510521	144	62	87
1368.47291729	128	57	64
1368.47736405	144	87	103
1368.484015548	144	72	81
1368.499083939	128	76	64
1368.502080301	144	76	90
1368.535617371	144	64	109
1368.546363775	128	76	64
1368.557499806	144	74	104
1368.557782524	144	57	95
1368.55829898	144	67	104
1368.575502559	128	87	64
1368.58485397	128	72	64
1368.593709062	128	62	64
1368.596405912	128	74	64
1368.604100286	144	76	106
1368.64011077	128	64	64
1368.666430962	144	87	104
1368.669357172	128	57	64
1368.685639927	128	76	64
1368.690351596	144	76	89
1368.711236452	144	62	87
1368.728309683	128	76	64
1368.734588364	144	72	79
1368.742309267	128	87	64
1368.743277669	144	57	92
1368.771899432	128	67	64
1368.783514676	144	76	106
1368.786013563	144	64	111
1368.800415183	128	72	64
1368.805994268	128	62	64
1368.832597269	144	67	102
1368.852706322	144	87	100
1368.861524267	128	57	64
1368.868648877	128	76	64
1368.868741911	144	76	93
1368.89248346	128	64	64
1368.907934667	128	76	64
1368.914027873	128	67	64
1368.915723162	128	50	64
1368.925652998	144	57	90
1368.927283374	128	87	64
1368.944080953	144	72	79
1368.977450473	144	62	94
1368.979218444	144	50	77
1368.988746371	144	76	113
1368.999259401	128	72	64
1368.999928076	144	67	100
1369.022333572	144	64	113
1369.027386462	128	57	64
1369.056776666	144	87	102
1369.07576201	128	76	64
1369.075837338	144	76	102
1369.084365979	128	67	64
1369.088838502	128	62	64
1369.091405302	144	57	89
1369.109841901	128	87	64
1369.129755258	128	64	64
1369.141048541	128	76	64
1369.143668411	144	72	79
1369.179728511	128	50	64
1369.183703073	144	67	101
1369.21382491	144	87	100
1369.21769199	128	57	64
1369.228710422	144	76	104
1369.234203616	128	72	64
1369.247900082	144	50	86
1369.283395664	128	67	64
1369.284054249	144	64	114
1369.291329301	144	57	86
1369.294966596	128	87	64
1369.300462676	128	76	64
1369.300516541	144	76	93
1369.311331749	144	72	78
1369.344926967	128	76	64
1369.353007071	144	67	104
1369.384698015	144	87	101
1369.397626866	128	64	64
1369.398596706	144	76	106
1369.416875253	128	72	64
1369.423613583	128	57	64
1369.444770576	128	87	64
1369.486173396	128	76	64
1369.49021112	144	76	92
1369.490450396	144	57	100
1369.504293983	128	67	64
1369.507373623	144	72	78
1369.512519289	144	64	111
1369.544782882	128	76	64
1369.569767354	144	76	114
1369.573335202	144	62	84
1369.58541297	144	87	101
1369.592748347	128	62	64
1369.599771698	128	72	64
1369.604394826	128	57	64
1369.632332224	128	50	64
1369.639025451	128	64	64
1369.644249144	128	87	64
1369.653778563	144	67	103
1369.665058694	128	67	64
1369.665242238	144	50	98
1369.668161701	144	57	107
1369.670062335	128	76	64
1369.674623684	144	76	104
1369.693528847	144	72	77
1369.741173518	128	76	64
1369.750986312	144	87	100
1369.751373757	144	67	109
1369.762714974	144	64	111
1369.783856015	128	72	64
1369.804566125	128	57	64
1369.807299006	144	76	115
1369.811145794	128	87	64
1369.832633874	128	67	64
1369.852906958	144	72	75
1369.865491157	144	57	108
1369.889458868	128	76	64
1369.891323247	144	76	99
1369.910618557	128	64	64
1369.914125733	144	87	101
1369.924039919	128	76	64
1369.97816459	128	57	64
1369.978308049	128	87	64
1369.980970805	144	76	101
1369.9971429	128	72	64
1370.025337363	144	67	107
1370.034311921	144	64	110
1370.046237696	144	57	108
1370.054700046	144	72	75
1370.063431735	128	76	64
1370.068096821	144	76	94
1370.086169746	144	87	102
1370.096832039	128	67	64
1370.124462962	128	76	64
1370.144756194	128	87	64
1370.163811644	128	64	64
1370.170535816	144	76	111
1370.17879587	144	74	120
1370.179070666	128	57	64
1370.198518473	128	72	64
1370.212156417	128	74	64
1370.246604988	144	57	104
1370.255681317	144	72	76
1370.268316874	144	87	102
1370.271879015	128	76	64
1370.274640286	144	76	97
1370.284649535	144	64	111
1370.318672542	128	72	64
1370.321475732	144	72	32
1370.328200172	128	87	64
1370.349027977	128	50	64
1370.358975414	128	76	64
1370.368895989	128	57	64
1370.383777569	144	76	111
1370.414011337	128	64	64
1370.425245253	144	67	101
1370.432740068	144	57	109
1370.4360024	144	87	102
1370.446681183	144	50	82
1370.465061631	128	67	64
1370.475114373	128	76	64
1370.476648329	128	72	64
1370.497263932	128	87	64
1370.499646595	144	76	95
1370.523547435	144	64	110
1370.535167881	144	67	111
1370.55183105	128	76	64
1370.559494589	144	72	79
1370.565323649	128	57	64
1370.596078727	144	76	104
1370.601479818	144	87	102
1370.610438996	144	57	113
1370.630617109	128	67	64
1370.667484318	128	76	64
1370.670514462	144	76	89
1370.67079122	128	64	64
1370.677642997	128	87	64
1370.704351799	128	72	64
1370.74068036	128	76	64
1370.741414417	144	72	29
1370.742798825	128	57	64
1370.769114049	144	87	103
1370.77429873	144	64	111
1370.79390053	144	57	116
1370.799449898	128	72	64
1370.844251113	128	87	64
1370.871804591	144	72	83
1370.885727301	144	76	114
1370.906450774	128	57	64
1370.915196151	128	64	64
1370.948135694	144	57	114
1370.951564598	128	76	64
1370.955263827	144	76	97
1370.967675815	128	72	64
1370.969353039	144	87	106
1371.028012733	128	76	64
1371.028458784	128	87	64
1371.035056407	144	64	108
1371.054748634	144	76	107
1371.059516329	128	57	64
1371.110882513	144	67	96
1371.116304716	144	57	104
1371.133327494	144	60	100
1371.134303968	144	72	27
1371.150478447	144	87	106
1371.150887201	128	76	64
1371.150923082	144	76	92
1371.15315066	128	64	64
1371.196455508	128	60	64
1371.200799822	128	72	64
1371.212246755	128	87	64
1371.219454116	128	57	64
1371.226149004	144	72	88
1371.228058187	128	76	64
1371.286346472	144	76	101
1371.287482296	144	57	103
1371.316024448	144	87	104
1371.322006456	144	64	109
1371.338965153	128	67	64
1371.358479205	128	76	64
1371.374178035	128	72	64
1371.378923834	128	87	64
1371.385262919	144	76	82
1371.397321912	144	67	104
1371.398476461	128	57	64
1371.411209884	144	72	11
1371.444326407	128	76	64
1371.452801666	144	57	99
1371.481680329	128	67	64
1371.49228614	128	64	64
1371.502539714	144	87	104
1371.505217049	144	76	101
1371.554996382	128	72	64
1371.557195189	144	72	92
1371.565375851	128	57	64
1371.582634867	128	87	64
1371.600812081	144	67	106
1371.601965713	144	64	111
1371.602312804	128	76	64
1371.602351781	144	76	85
1371.63649392	144	57	98
1371.649731527	128	72	64
1371.665634382	128	67	64
1371.673939639	128	76	64
1371.679985825	144	87	100
1371.685651273	144	60	96
1371.705422889	144	72	4
1371.739167826	144	76	101
1371.739395541	144	67	100
1371.741962923	128	64	64
1371.743056399	128	87	64
1371.763285403	128	57	64
1371.769220421	128	60	64
1371.782409131	128	72	64
1371.817004018	128	67	64
1371.820114395	128	76	64
1371.820198429	144	76	89
1371.849233754	128	50	64
1371.84991941	144	57	81
1371.86793843	144	87	94
1371.889307561	144	72	95
1371.928177717	128	87	64
1371.931486078	128	57	64
1371.963995031	128	76	64
1371.974967709	144	76	102
1371.980423081	144	64	114
1372.032068273	144	87	91
1372.039964351	128	72	64
1372.067339941	128	76	64
1372.067429714	144	76	86
1372.072825348	144	72	59
1372.11149929	128	87	64
1372.114657309	144	50	92
1372.125273782	144	67	104
1372.134268202	144	60	102
1372.146294596	128	64	64
1372.165744442	128	72	64
1372.172528178	128	50	64
1372.185174164	144	50	71
1372.186950839	144	72	85
1372.211652144	128	76	64
1372.22250171	144	64	113
1372.227337194	144	87	90
1372.237817106	144	76	99
1372.254410283	128	50	64
1372.278600226	128	60	64
1372.279169866	128	87	64
1372.294863551	144	50	92
1372.330647659	128	72	64
1372.345398575	128	50	64
1372.345462393	144	50	72
1372.373148563	128	67	64
1372.373786348	128	64	64
1372.387398367	144	72	99
1372.39197636	128	76	64
1372.392016323	144	76	93
1372.401906443	144	87	92
1372.43740939	128	50	64
1372.448916375	128	72	64
1372.460343259	144	50	94
1372.462276093	128	87	64
1372.521668308	144	72	78
1372.524794931	144	67	106
1372.526143296	128	50	64
1372.526185017	144	50	73
1372.535789368	128	76	64
1372.536118863	144	76	101
1372.549436501	144	87	91
1372.549587181	128	67	64
1372.559770014	144	64	113
1372.603908882	128	50	64
1372.628376792	128	87	64
1372.643586231	144	50	94
1372.665058473	128	72	64
1372.66524462	144	72	105
1372.665732097	144	60	102
1372.698555397	144	67	100
1372.706532949	128	76	64
1372.706874855	144	76	96
1372.707046238	128	76	64
1372.707079056	144	76	51
1372.709681941	128	50	64
1372.709726838	144	50	73
1372.713688968	128	67	64
1372.715482813	128	72	64
1372.733997216	128	64	64
1372.735206106	144	87	92
1372.771532412	128	50	64
1372.791205829	144	50	94
1372.79849487	128	87	64
1372.798804737	144	64	110
1372.805087813	144	72	89
1372.815057163	128	60	64
1372.851356814	128	76	64
1372.870922271	128	50	64
1372.88036065	144	50	75
1372.880844947	144	76	100
1372.919722328	144	87	89
1372.924821696	128	64	64
1372.936502737	128	50	64
1372.949768962	128	72	64
1372.958223296	144	67	94
1372.967424915	128	87	64
1372.972554112	144	72	103
1372.974958387	144	50	94
1373.013663608	128	67	64
1373.015533003	144	64	110
1373.024672118	128	76	64
1373.024729789	144	76	97
1373.041611251	128	50	64
1373.041663647	144	50	72
1373.06629695	128	72	64
1373.102944193	128	50	64
1373.106359423	144	87	90
1373.135118393	128	64	64
1373.140630385	144	50	94
1373.153951836	144	72	89
1373.165386287	128	87	64
1373.205314826	128	76	64
1373.205520636	144	76	110
1373.208115904	144	60	96
1373.223471333	144	67	102
1373.224611101	128	50	64
1373.224661014	144	50	72
1373.248088218	128	67	64
1373.269141685	144	87	88
1373.277805146	144	64	113
1373.286157292	128	50	64
1373.29412912	128	60	64
1373.296057786	128	72	64
1373.306682889	144	50	94
1373.333843281	144	67	102
1373.338552653	144	72	101
1373.345538572	128	87	64
1373.391362898	128	50	64
1373.39142947	144	50	72
1373.391586908	128	76	64
1373.391812564	144	76	100
1373.418788906	128	64	64
1373.432446282	128	72	64
1373.450468117	144	87	85
1373.452736251	128	50	64
1373.472160934	144	50	94
1373.487497435	144	72	88
1373.491093106	144	64	113
1373.505219489	128	67	64
1373.529385173	128	87	64
1373.557619301	128	50	64
1373.557686839	144	50	71
1373.575333667	128	76	64
1373.575597826	144	76	106
1373.619485784	128	50	64
1373.630857002	128	72	64
1373.634953057	128	64	64
1373.653615956	144	87	82
1373.657331459	144	50	93
1373.689191859	144	72	98
1373.709991765	144	74	101
1373.713356086	128	87	64
1373.724466897	128	50	64
1373.724561225	144	50	72
1373.740526181	144	67	111
1373.745154454	144	64	108
1373.75484725	128	76	64
1373.755172239	144	76	101
1373.761138803	128	74	64
1373.766598241	128	72	64
1373.786434177	128	50	64
1373.806256006	144	50	91
1373.838346286	144	87	82
1373.854889078	144	72	90
1373.885528665	128	64	64
1373.903670417	128	50	64
1373.911193755	144	50	73
1373.912314714	128	87	64
1373.916667201	128	76	64
1373.917524082	144	76	105
1373.953670746	128	50	64
1373.954250361	128	67	64
1373.972863721	144	50	90
1373.995732686	144	64	109
1373.998427527	128	72	64
1374.019262282	144	87	78
1374.041374433	128	50	64
1374.041453722	144	50	72
1374.080518735	128	87	64
1374.098339519	144	67	115
1374.103650306	128	50	64
1374.123063972	144	50	90
1374.123457722	128	76	64
1374.123569536	144	76	101
1374.13514793	128	64	64
1374.146757023	128	67	64
1374.167002696	144	72	94
1374.203603214	144	87	80
1374.203820635	144	67	111
1374.221919127	128	50	64
1374.22198685	144	50	69
1374.223951519	144	64	107
1374.258335307	128	76	64
1374.280644106	128	87	64
1374.283546463	144	76	101
1374.304440545	128	50	64
1374.310417195	128	72	64
1374.313075003	144	50	89
1374.346394218	128	67	64
1374.353155131	128	64	64
1374.383218072	144	33	14
1374.387779621	144	87	77
1374.387989556	128	50	64
1374.395147274	128	33	64
1374.396063346	144	50	68
1374.425674627	144	72	92
1374.446071125	128	87	64
1374.454606594	128	50	64
1374.463882757	144	64	106
1374.487165819	128	76	64
1374.487240862	144	76	100
1374.498375851	144	33	25
1374.510788232	144	50	87
1374.553994252	144	67	101
1374.5704471	128	72	64
1374.570717097	144	87	80
1374.570991026	128	50	64
1374.578119347	144	50	68
1374.580746689	128	33	64
1374.598044834	128	67	64
1374.599365468	128	64	64
1374.620475861	128	50	64
1374.647397741	128	87	64
1374.656399002	144	50	90
1374.665672041	128	76	64
1374.668507418	144	76	101
1374.682213903	144	33	19
1374.692310755	144	64	111
1374.721455192	128	50	64
1374.73941165	144	50	73
1374.754845879	144	87	87
1374.764976478	128	33	64
1374.787058223	128	50	64
1374.808256554	144	67	96
1374.819798827	128	64	64
1374.83065252	128	87	64
1374.839139122	144	50	94
1374.848733148	128	67	64
1374.869454084	144	74	125
1374.874917922	128	76	64
1374.874976281	144	76	100
1374.904023235	128	50	64
1374.911379624	144	50	81
1374.919774906	144	67	98
1374.921589472	128	74	64
1374.938072751	144	87	92
1374.939761521	144	33	17
1374.94984948	144	72	90
1374.971254252	128	50	64
1374.980352708	128	33	64
1375.007498425	144	50	99
1375.012969152	128	87	64
1375.05243247	128	72	64
1375.072618581	128	50	64
1375.07267405	144	50	86
1375.073862021	144	64	114
1375.081103404	144	33	17
1375.087740727	128	67	64
1375.090128147	128	76	64
1375.090171215	144	76	100
1375.114339135	128	33	64
1375.118188265	144	87	91
1375.153471313	128	50	64
1375.173524924	144	50	99
1375.19633209	128	87	64
1375.210602456	128	64	64
1375.214394826	144	33	21
1375.243309317	128	50	64
1375.24337217	144	50	85
1375.279348225	128	33	64
1375.300049543	128	76	64
1375.315640283	144	72	88
1375.3201006	128	50	64
1375.320464264	144	87	91
1375.324753753	144	67	96
1375.336203964	144	76	90
1375.340165994	144	50	94
1375.38064031	128	87	64
1375.381104317	144	33	28
1375.414027241	128	33	64
1375.421259506	128	50	64
1375.428184442	144	50	72
1375.460348584	128	72	64
1375.477996481	128	67	64
1375.483199359	128	76	64
1375.503610933	144	87	91
1375.504092491	128	50	64
1375.51089597	144	76	65
1375.524074645	144	50	83
1375.558584562	144	33	31
1375.581029504	128	33	64
1375.581220722	128	87	64
1375.604272045	128	50	64
1375.612764731	128	76	64
1375.612816597	144	76	50
1375.624130852	144	50	62
1375.640529995	128	76	64
1375.671090851	128	50	64
1375.681068746	144	33	37
1375.687055312	144	87	91
1375.698658488	144	76	53
1375.707103636	144	50	75
1375.708186184	144	67	89
1375.735421062	144	72	87
1375.743116405	128	76	64
1375.743150029	144	76	46
1375.746460254	128	33	64
1375.764318338	128	87	64
1375.783384474	128	67	64
1375.787566158	128	50	64
1375.794696909	144	50	60
1375.818961265	144	67	83
1375.826444244	128	76	64
1375.831564961	144	33	41
1375.852017447	144	76	55
1375.870573024	128	50	64
1375.879132031	128	72	64
1375.881738134	128	33	64
1375.886857054	144	87	91
1375.914757772	128	67	64
1375.923432614	128	76	64
1375.926130263	144	76	58
1375.947548805	128	87	64
1375.94781996	144	33	43
1375.996724599	128	33	64
1376.017924741	144	74	124
1376.069776855	128	76	64
1376.069843667	144	76	54
1376.07051815	144	87	90
1376.074351155	128	74	64
1376.083093386	144	33	43
1376.130733937	128	33	64
1376.130852088	128	87	64
1376.135277633	144	72	84
1376.141493877	144	67	89
1376.219073011	128	72	64
1376.229970922	128	67	64
1376.27076949	144	87	90
1376.283252226	128	76	64
1376.284273159	144	76	59
1376.323244363	144	33	50
1376.333577471	128	87	64
1376.364711891	128	33	64
1376.428749308	128	76	64
1376.428823634	144	76	56
1376.437294997	144	87	88
1376.464851588	144	33	59
1376.514098011	128	87	64
1376.548154158	128	33	64
1376.550270792	144	72	87
1376.626696828	128	76	64
1376.626792228	144	76	58
1376.637674453	144	87	90
1376.648166555	144	33	67
1376.651855813	128	72	64
1376.683609876	144	74	124
1376.698120159	128	87	64
1376.71524649	128	33	64
1376.721541618	128	74	64
1376.726185735	128	76	64
1376.772708633	144	76	61
1376.888204491	144	33	70
1376.930414945	128	33	64
1377.000105359	144	72	86
1377.005459336	128	76	64
1377.005511657	144	76	59
1377.014880362	144	33	78
1377.081416273	128	33	64
1377.085357445	128	72	64
1377.174707734	144	74	117
1377.181481706	144	33	81
1377.226598586	128	74	64
1377.247184771	128	33	64
1377.326497599	128	76	64
1377.326565613	144	76	61
1377.332331151	144	33	90
1377.397218946	128	33	64
1377.500937971	144	72	84
1377.502376528	144	87	88
1377.54154828	144	33	98
1377.54174795	128	33	64
1377.542940704	128	76	64
1377.542976726	144	76	65
1377.615524054	144	33	102
1377.628802698	144	67	83
1377.647021043	128	33	64
1377.65982778	128	72	64
1377.670815372	144	74	116
1377.702822233	128	74	64
1377.731434224	144	33	102
1377.759522517	128	76	64
1377.759577248	144	76	62
1377.764526618	128	33	64
1377.830865519	144	33	105
1377.880285179	128	33	64
1377.938700391	128	67	64
1377.957623895	144	33	106
1377.972776305	128	76	64
1377.97285606	144	76	65
1377.998474187	128	33	64
1378.032537945	144	72	82
1378.033585983	144	67	85
1378.037983441	128	87	64
1378.06574316	144	33	103
1378.130580912	128	33	64
1378.135101675	128	72	64
1378.156906802	144	74	108
1378.202848596	128	74	64
1378.216935625	128	76	64
1378.218800638	144	76	64
1378.27412292	128	67	64
1378.325620807	144	33	102
1378.344395814	128	33	64
1378.473038287	128	76	64
1378.473137015	144	76	68
1378.489016025	144	33	103
1378.534034615	144	72	82
1378.564604792	128	33	64
1378.635520601	128	72	64
1378.650483457	144	74	112
1378.687918189	128	74	64
1378.708965609	144	33	105
1378.709435138	128	76	64
1378.709470317	144	76	68
1378.796889664	128	33	64
1378.906255998	128	76	64
1378.906328509	144	76	69
1378.941832949	144	33	108
1379.034839525	144	72	83
1379.045962338	128	33	64
1379.108318714	144	67	66
1379.118975867	128	72	64
1379.137169286	144	74	110
1379.158349285	128	76	64
1379.158839653	144	76	71
1379.170545996	128	74	64
1379.239321043	144	33	112
1379.302510242	128	76	64
1379.302587702	144	76	70
1379.533766645	144	72	83
1379.537216628	144	87	85
1379.617888409	144	74	109
1379.618644499	128	72	64
1379.672949887	128	76	64
1379.673256506	144	76	77
1379.684625847	128	74	64
1379.826398633	128	76	64
1379.826475878	144	76	68
1380.033709319	144	72	85
1380.039365391	128	76	64
1380.039837829	144	76	74
1380.055445022	128	87	64
1380.101889309	128	72	64
1380.122683954	128	67	64
1380.134864113	144	74	107
1380.14018442	128	76	64
1380.140230571	144	76	70
1380.192143284	128	74	64
1380.317543186	128	76	64
1380.3181014	144	76	79
1380.425566993	128	76	64
1380.425642773	144	76	72
1380.501197955	144	72	84
1380.568079497	128	72	64
1380.638918582	144	74	105
1380.639539244	128	76	64
1380.6397128	144	76	75
1380.641697041	144	67	77
1380.649880806	144	87	98
1380.687233482	128	74	64
1380.784150627	128	76	64
1380.784214472	144	76	77
1380.8723303	128	67	64
1380.890005799	128	87	64
1380.953668937	128	76	64
1380.954328027	144	76	82
1381.001441213	144	72	83
1381.086003718	128	72	64
1381.109595596	128	76	64
1381.109660711	144	76	77
1381.174757176	144	74	108
1381.175169379	144	67	71
1381.247230941	128	74	64
1381.248308597	128	67	64
1381.370958649	128	76	64
1381.371033712	144	76	83
1381.406877528	144	87	104
1381.43644875	128	87	64
1381.551939862	144	72	82
1381.618359723	128	72	64
1381.623255554	128	76	64
1381.623336584	144	76	82
1381.686125295	144	74	107
1381.691562739	144	67	90
1381.744161815	128	74	64
1381.764698051	128	67	64
1381.853455616	128	76	64
1381.853521189	144	76	88
1381.921062275	144	87	97
1381.953133958	128	87	64
1382.103374749	144	72	88
1382.155138488	128	76	64
1382.156124677	144	76	92
1382.17681215	144	74	109
1382.186652343	128	72	64
1382.21957873	128	74	64
1382.232582431	144	67	92
1382.280535712	128	67	64
1382.384773863	128	76	64
1382.384843793	144	76	100
1382.461880118	144	87	97
1382.528661588	128	87	64
1382.554551794	128	33	64
1382.635320969	144	72	89
1382.637020737	128	76	64
1382.637077523	144	76	100
1382.674030594	144	74	98
1382.719422254	128	72	64
1382.726029789	144	67	87
1382.735359558	128	74	64
1382.755626698	144	33	76
1382.78470828	144	50	76
1382.817034004	128	67	64
1382.89024464	128	76	64
1382.890321116	144	76	101
1383.004771188	144	87	102
1383.034814715	144	62	119
1383.066694014	128	50	64
1383.066841628	128	87	64
1383.100502168	128	62	64
1383.142917648	128	76	64
1383.143014003	144	76	96
1383.146917598	144	50	81
1383.183557982	144	72	89
1383.187091514	144	74	99
1383.188932323	128	50	64
1383.23807623	128	74	64
1383.239768423	144	62	120
1383.243445707	144	67	82
1383.268653156	128	72	64
1383.276289527	144	50	86
1383.296223705	128	62	64
1383.297090904	128	67	64
1383.387048003	128	76	64
1383.387132632	144	76	100
1383.41746251	144	62	123
1383.499223115	128	62	64
1383.530624573	144	87	99
1383.542535818	128	76	64
1383.542577741	144	76	88
1383.564055069	144	62	125
1383.596634412	128	76	64
1383.606275261	128	87	64
1383.616135853	128	50	64
1383.664968556	144	76	88
1383.666623269	128	62	64
1383.698009022	128	76	64
1383.698057682	144	76	74
1383.701194295	144	72	86
1383.729177999	128	76	64
1383.732947725	144	76	81
1383.736562423	144	62	125
1383.742333555	144	74	101
1383.77520721	144	67	91
1383.789117227	128	74	64
1383.791807792	128	76	64
1383.80383005	128	72	64
1383.81688348	128	62	64
1383.8304176	128	67	64
1383.832812027	144	76	66
1383.853484247	144	62	125
1383.879697463	128	76	64
1383.930961618	128	62	64
1383.936445376	144	76	63
1383.995067813	128	76	64
1383.999958187	144	62	125
1384.013948548	144	87	104
1384.050185695	144	76	64
1384.068958104	128	87	64
1384.083527736	128	62	64
1384.098046841	128	76	64
1384.098144957	144	76	61
1384.108094686	144	67	86
1384.149631215	128	67	64
1384.152504809	144	62	126
1384.191996377	128	76	64
1384.217558952	144	76	54
1384.219300715	144	74	92
1384.233328672	128	62	64
1384.234112643	144	72	86
1384.251271463	144	67	98
1384.26798893	128	74	64
1384.272725226	128	76	64
1384.297374538	128	67	64
1384.297758804	144	76	68
1384.299111843	144	62	126
1384.313801551	128	33	64
1384.319336558	128	72	64
1384.33393814	128	76	64
1384.338842567	144	76	53
1384.360883929	128	76	64
1384.384344244	144	67	120
1384.4038961	144	76	66
1384.445428507	128	76	64
1384.448896098	128	67	64
1384.467798556	144	67	54
1384.472888445	144	76	56
1384.480981638	144	87	108
1384.491091241	128	76	64
1384.512056063	128	67	64
1384.515225799	128	62	64
1384.523240887	144	76	68
1384.536496628	144	67	116
1384.559952027	128	76	64
1384.560431038	128	87	64
1384.584657495	144	62	126
1384.594480171	144	76	63
1384.598861483	128	67	64
1384.627970604	128	76	64
1384.630073626	128	62	64
1384.635445095	144	67	54
1384.665077096	128	67	64
1384.670270772	144	76	80
1384.699093445	144	67	124
1384.711738939	128	76	64
1384.733789396	144	76	84
1384.735384482	144	72	85
1384.753660891	144	62	125
1384.764513856	144	74	108
1384.770151499	144	33	105
1384.784339041	128	74	64
1384.794500387	128	67	64
1384.819230339	128	72	64
1384.82579884	128	76	64
1384.835157069	144	67	60
1384.836336207	128	62	64
1384.850347318	144	76	81
1384.870392145	144	62	125
1384.899707262	128	76	64
1384.930390366	128	62	64
1384.931160091	128	67	64
1384.942924534	144	76	99
1384.949539304	144	67	66
1384.969869378	128	76	64
1384.9699393	144	76	85
1384.995578575	128	76	64
1385.013623777	144	87	103
1385.015803212	128	67	64
1385.021429316	144	67	122
1385.024137088	144	76	102
1385.069545433	128	87	64
1385.086496174	144	62	125
1385.097061452	128	67	64
1385.122604983	128	76	64
1385.124429769	144	76	87
1385.136536736	144	67	50
1385.147056283	128	62	64
1385.160747509	128	76	64
1385.181787875	128	67	64
1385.212094861	144	76	99
1385.236415862	144	67	99
1385.245464081	128	76	64
1385.251692472	144	72	84
1385.267786506	144	76	86
1385.287004915	128	76	64
1385.310437542	128	67	64
1385.310656306	144	67	12
1385.310748555	128	67	64
1385.310782307	144	67	32
1385.325908436	144	76	99
1385.338583652	128	72	64
1385.36612142	128	67	64
1385.382846747	144	50	81
1385.401429147	128	76	64
1385.401503107	144	76	86
1385.419592145	144	67	125
1385.441937474	128	76	64
1385.480409451	128	67	64
1385.506207938	144	67	38
1385.513618044	128	67	64
1385.51368004	144	67	53
1385.528008382	128	50	64
1385.532249734	144	76	84
1385.564289981	128	67	64
1385.572810051	144	87	96
1385.58533966	128	76	64
1385.588736802	144	76	98
1385.599249678	144	62	122
1385.619655894	128	87	64
1385.68567993	128	76	64
1385.685750316	144	76	89
1385.685977131	128	62	64
1385.686622605	144	50	82
1385.733764455	128	76	64
1385.738142191	144	67	76
1385.740946216	128	50	64
1385.785054026	144	76	107
1385.808444624	144	62	127
1385.810778579	144	72	84
1385.82661407	144	50	89
1385.834953535	128	76	64
1385.835000552	144	76	95
1385.900727608	128	76	64
1385.902704561	128	62	64
1385.904728956	144	76	113
1385.936251325	128	72	64
1385.991280678	144	62	127
1385.992361788	128	76	64
1385.992634264	144	76	100
1386.027749106	128	76	64
1386.045886308	144	64	106
1386.056874869	144	87	86
1386.065653218	128	62	64
1386.09915121	128	50	64
1386.10649462	128	87	64
1386.115440879	144	76	99
1386.149407914	128	67	64
1386.159489641	128	64	64
1386.195528463	128	76	64
1386.268783729	144	64	106
1386.308639479	144	74	97
1386.319753346	144	72	81
1386.336079468	144	60	96
1386.353435118	128	74	64
1386.358428134	128	64	64
1386.374141729	144	76	97
1386.419670264	128	72	64
1386.433463264	144	64	105
1386.526045859	128	76	64
1386.526283058	144	76	106
1386.544195288	128	64	64
1386.557130526	144	87	84
1386.583100186	144	62	89
1386.606707598	128	87	64
1386.620134992	144	64	102
1386.63142745	128	62	64
1386.672607946	128	76	64
1386.672688558	144	76	91
1386.693280292	144	62	111
1386.718009445	128	64	64
1386.74199091	128	76	64
1386.748515517	128	62	64
1386.753675497	144	62	94
1386.773755452	144	64	101
1386.804662559	144	76	98
1386.80496735	128	33	64
1386.813075307	128	62	64
1386.854293795	144	67	104
1386.868719195	144	72	86
1386.870450794	128	64	64
1386.88234947	144	33	111
1386.886781048	144	62	112
1386.892830418	128	76	64
1386.892862983	144	76	81
1386.914478957	128	62	64
1386.9276695	144	74	94
1386.928125263	128	74	64
1386.928168271	144	74	110
1386.934604121	144	62	101
1386.964480627	128	62	64
1386.967613086	144	50	84
1386.969653394	128	72	64
1386.973657802	128	50	64
1386.998509511	128	74	64
1387.018816652	144	62	123
1387.037024671	128	76	64
1387.037267777	144	76	90
1387.06427345	128	62	64
1387.074990939	128	67	64
1387.084269662	144	62	108
1387.123286745	144	87	90
1387.130956223	128	62	64
1387.131166053	128	76	64
1387.131225494	144	76	78
1387.16803012	144	62	118
1387.170636843	128	87	64
1387.214262413	128	62	64
1387.248184868	144	50	83
1387.25095202	144	62	112
1387.276155083	128	76	64
1387.280347486	128	62	64
1387.293044396	128	67	64
1387.295655336	144	76	85
1387.334502719	144	62	118
1387.346886208	144	72	85
1387.363864609	128	62	64
1387.401236216	144	62	113
1387.404928412	128	76	64
1387.404981096	144	76	76
1387.434408679	144	74	110
1387.449059003	128	62	64
1387.477711091	128	76	64
1387.48373895	128	74	64
1387.486709895	144	62	121
1387.510291421	128	72	64
1387.531140466	144	76	83
1387.566482282	128	62	64
1387.573883772	144	62	118
1387.597556919	128	62	64
1387.602509358	128	50	64
1387.627338841	128	76	64
1387.627416477	144	76	75
1387.634800018	144	62	122
1387.697655704	128	62	64
1387.716923042	144	62	118
1387.728481681	128	76	64
1387.740577634	128	60	64
1387.753446836	144	50	80
1387.758769435	144	76	86
1387.764127953	128	62	64
1387.791572549	144	64	6
1387.801678923	144	62	124
1387.822138319	128	50	64
1387.852085369	128	76	64
1387.852167693	144	76	76
1387.853565549	128	64	64
1387.864526288	128	62	64
1387.870091028	144	62	120
1387.901748992	144	64	5
1387.917628255	144	72	83
1387.930347954	128	62	64
1387.952121304	144	74	125
1387.97954241	128	87	64
1387.982199138	128	64	64
1387.989627148	144	50	78
1387.990409662	128	74	64
1388.007312604	128	76	64
1388.017510494	144	76	87
1388.019617723	128	72	64
1388.027866069	144	60	89
1388.033422786	144	64	7
1388.090943898	144	62	122
1388.098433242	128	64	64
1388.11916274	128	76	64
1388.119259688	144	76	76
1388.149935979	128	62	64
1388.15213304	144	64	12
1388.217418603	128	64	64
1388.25622579	144	62	121
1388.266621054	128	76	64
1388.277096076	144	64	16
1388.289781314	144	76	80
1388.299032369	128	62	64
1388.356642285	128	64	64
1388.38486311	128	76	64
1388.384960945	144	76	74
1388.3927491	144	64	21
1388.404492307	144	62	121
1388.428696147	144	74	122
1388.430169898	128	74	64
1388.430230908	144	74	127
1388.466874516	128	62	64
1388.468637686	144	72	87
1388.472855696	128	64	64
1388.481956669	128	50	64
1388.491984348	128	74	64
1388.520810161	144	64	24
1388.533731998	128	76	64
1388.550939251	144	50	73
1388.551551635	144	62	122
1388.557393621	144	76	83
1388.570376966	128	72	64
1388.602525097	128	64	64
1388.615504229	128	62	64
1388.620323316	144	64	29
1388.648776905	128	60	64
1388.653988773	128	76	64
1388.654036662	144	76	77
1388.69536009	128	64	64
1388.72126832	144	62	123
1388.742566517	144	64	35
1388.775751279	128	76	64
1388.78455311	128	62	64
1388.801070651	144	76	90
1388.802335517	128	64	64
1388.831646047	128	33	64
1388.839932172	144	64	41
1388.887812932	144	62	122
1388.902360932	128	76	64
1388.902399442	144	76	84
1388.917086227	128	50	64
1388.917393234	128	64	64
1388.935401363	144	72	90
1388.946296105	144	60	94
1388.948238219	144	64	46
1388.988954675	144	33	121
1388.999367676	128	62	64
1389.022489527	128	64	64
1389.044034019	144	64	53
1389.079748376	128	72	64
1389.082323135	128	76	64
1389.084511268	144	50	80
1389.164511945	144	74	102
1389.205764295	128	64	64
1389.234433295	144	76	91
1389.234594503	128	76	64
1389.234658209	144	76	81
1389.244566869	128	74	64
1389.248073875	144	64	63
1389.312685467	128	64	64
1389.369769257	128	50	64
1389.374395543	144	64	72
1389.383890683	128	76	64
1389.384030726	144	76	90
1389.418786169	128	64	64
1389.433318988	144	72	89
1389.468678465	144	62	119
1389.481555964	144	64	77
1389.543096597	128	64	64
1389.556144119	128	76	64
1389.556207374	144	76	78
1389.556616762	128	62	64
1389.578180922	128	72	64
1389.588866	144	64	84
1389.592458241	128	76	64
1389.65628062	128	64	64
1389.726246967	144	64	95
1389.726536042	144	74	111
1389.745570882	144	76	88
1389.745811971	128	76	64
1389.745850628	144	76	72
1389.788113349	128	64	64
1389.808358562	144	64	101
1389.837568807	128	74	64
1389.842593268	128	76	64
1389.865803058	144	62	118
1389.867189842	144	76	80
1389.883326503	128	64	64
1389.884814234	128	62	64
1389.904731747	128	33	64
1389.914310717	144	64	107
1389.985035477	144	72	87
1389.990912348	128	64	64
1390.02251907	128	76	64
1390.022590813	144	76	69
1390.028058772	144	64	118
1390.086933022	128	72	64
1390.10381806	128	64	64
1390.145514551	144	64	124
1390.184032033	128	76	64
1390.210366769	144	76	86
1390.228863878	128	64	64
1390.235761745	144	62	116
1390.265106286	144	64	118
1390.287612746	128	62	64
1390.330421694	128	76	64
1390.330504305	144	76	75
1390.359242082	128	64	64
1390.378727424	144	74	117
1390.403686242	144	64	89
1390.483237497	128	76	64
1390.496564162	128	64	64
1390.510077386	144	76	87
1390.518682749	144	72	88
1390.526252083	128	74	64
1390.535957377	144	64	72
1390.585999274	128	72	64
1390.611322438	128	64	64
1390.63806648	128	60	64
1390.670478909	128	76	64
1390.670553562	144	76	81
1390.686338751	144	64	56
1390.732246066	128	64	64
1390.759347222	128	76	64
1390.785179497	144	64	47
1390.805688331	144	76	94
1390.874021995	128	64	64
1390.918661773	144	64	38
1390.951704194	128	64	64
1390.954825693	128	76	64
1390.954868887	144	76	89
1391.018477755	144	72	96
1391.022251555	144	74	123
1391.034992787	144	64	29
1391.098163903	128	64	64
1391.098359952	128	76	64
1391.099083306	144	76	101
1391.123813684	144	60	97
1391.13697665	144	62	103
1391.15446062	144	64	24
1391.15657297	128	74	64
1391.162481581	128	72	64
1391.184588794	128	76	64
1391.184706368	144	76	91
1391.207954629	144	50	72
1391.226992235	128	50	64
1391.231335895	128	64	64
1391.268316523	144	64	18
1391.272598412	128	62	64
1391.333739851	128	76	64
1391.346427871	128	64	64
1391.374520568	144	76	99
1391.374772709	144	50	71
1391.408352794	144	64	12
1391.439021175	128	50	64
1391.46353727	128	76	64
1391.463621882	144	76	89
1391.511030689	128	64	64
1391.552035241	144	72	99
1391.568101448	144	64	11
1391.608489228	144	50	71
1391.636912978	128	72	64
1391.6899929	128	50	64
1391.717173425	128	76	64
1391.717905757	144	76	91
1391.783452961	144	74	120
1391.856608369	144	50	65
1391.874068906	144	62	113
1391.883516245	128	76	64
1391.918679363	128	62	64
1391.919781648	144	76	89
1391.980515369	128	64	64
1392.001154317	128	50	64
1392.009488045	128	76	64
1392.009579049	144	76	79
1392.046296862	144	62	122
1392.084813847	144	72	94
1392.100002417	144	50	68
1392.146228151	144	64	1
1392.15372274	128	76	64
1392.154250989	144	76	85
1392.170280044	128	72	64
1392.174789114	128	50	64
1392.248789585	128	76	64
1392.248861575	144	76	76
1392.339416891	144	50	68
1392.373068521	128	50	64
1392.376485072	128	76	64
1392.423994878	144	76	91
1392.522685548	144	50	70
1392.523802026	128	76	64
1392.523877246	144	76	88
1392.572655212	128	50	64
1392.589057847	128	64	64
1392.618298476	144	72	95
1392.675655974	128	76	64
1392.703056241	128	72	64
1392.775991564	144	50	70
1393.023847915	144	76	89
1393.057805892	128	76	64
1393.136258233	144	72	93
1393.150530973	128	50	64
1393.220202628	128	72	64
1393.256707769	144	33	113
1393.278867823	128	33	64
1393.291860283	144	76	97
1393.569021893	144	64	1
1393.617811111	128	76	64
1393.624837146	128	62	64
1393.701618749	144	72	95
1393.728937263	128	60	64
1393.786653089	128	72	64
1393.794160358	144	62	118
1393.841147411	144	76	94
1393.873580145	144	60	94
1393.936097049	144	21	127
1394.138809562	128	64	64
1394.150723244	128	76	64
1394.197278209	128	60	64
1394.21887835	128	21	64
1394.328515024	144	72	93
1394.368899937	144	64	12
1394.385140847	128	72	64
1394.398287635	144	33	124
1394.44520399	128	33	64
1394.490616093	144	76	96
1394.501918408	144	50	64
1394.528754301	128	64	64
1394.590130746	128	50	64
1394.628492774	144	21	125
1394.693524255	128	21	64
1394.734014042	144	50	61
1394.757140882	144	64	13
1394.834390927	128	76	64
1394.859151058	144	60	96
1394.879513639	128	50	64
1394.936797623	144	72	93
1394.965278145	144	50	61
1394.975398688	128	62	64
1395.003413351	128	72	64
1395.029523641	128	64	64
1395.112815312	144	62	118
1395.182053371	128	50	64
1395.261162537	144	21	122
1395.262702194	144	64	14
1395.326900979	128	21	64
1395.339629365	144	50	63
1395.35763572	144	76	93
1395.39071377	128	50	64
1395.446094314	128	64	64
1395.53401004	144	50	61
1395.673441119	144	64	16
1395.678935299	128	50	64
1395.746234042	144	21	114
1395.752062799	144	50	62
1395.830632141	128	21	64
1395.859354697	128	64	64
1395.917908234	128	76	64
1395.919535832	144	72	99
1395.999263278	128	50	64
1396.078216533	128	72	64
1396.081830165	144	64	16
1396.105476726	128	62	64
1396.162227918	144	21	126
1396.205728227	128	60	64
1396.264566952	128	64	64
1396.366994172	144	76	99
1396.382770535	144	60	96
1396.439697974	128	60	64
1396.53928469	144	62	111
1396.585234887	144	60	99
1396.609344777	144	50	70
1396.615257957	128	60	64
1396.625253719	128	50	64
1396.776929706	144	50	78
1396.782821098	144	60	99
1396.805918507	128	50	64
1396.808531149	128	60	64
1396.808965071	144	64	11
1396.886684023	144	72	108
1396.894481031	144	50	85
1396.968280222	144	60	99
1396.97304253	128	50	64
1396.986730212	128	72	64
1396.988366978	128	64	64
1397.061808057	144	50	95
1397.065657828	128	60	64
1397.140262975	128	50	64
1397.16439591	128	21	64
1397.2185807	144	64	20
1397.229740739	144	50	101
1397.29050873	128	50	64
1397.301144556	128	76	64
1397.394470505	128	64	64
1397.395146243	144	21	116
1397.453365287	144	50	109
1397.457984937	144	76	75
1397.4616946	128	21	64
1397.478013737	144	60	99
1397.491294666	128	50	64
1397.512469801	128	76	64
1397.57283166	144	76	86
1397.586257238	144	21	119
1397.594313654	144	64	18
1397.609347607	128	21	64
1397.655159667	144	50	116
1397.763665959	128	64	64
1397.770278444	144	21	120
1397.812133524	128	21	64
1397.818036086	128	76	64
1397.936619873	144	64	8
1397.953353797	144	21	121
1397.992796662	128	21	64
1398.071927553	128	64	64
1398.133276685	144	21	116
1398.140205728	128	21	64
1398.157801827	144	76	81
1398.173847016	128	50	64
1398.252707205	144	64	6
1398.262822326	144	21	118
1398.29215775	128	21	64
1398.303246031	128	76	64
1398.320379975	144	50	97
1398.377141963	128	64	64
1398.416045523	144	21	121
1398.424091901	128	50	64
1398.474266186	128	21	64
1398.583369906	144	21	121
1398.64311912	144	50	85
1398.662702491	128	21	64
1398.724774662	144	76	80
1398.729543546	144	21	111
1398.771431539	144	72	105
1398.813279179	128	21	64
1398.849695818	128	60	64
1398.854116205	128	72	64
1398.905628497	144	21	112
1398.951372861	128	76	64
1398.960523197	128	21	64
1399.048710492	144	21	114
1399.129798702	128	21	64
1399.217476436	144	21	110
1399.274772116	144	76	60
1399.276700132	128	21	64
1399.370877211	144	21	109
1399.443619988	128	21	64
1399.4722876	128	76	64
1399.537980402	144	21	114
1399.610839015	128	21	64
1399.634235363	128	50	64
1399.661725318	128	74	64
1399.697113815	144	21	116
1399.762756436	128	21	64
1399.780223288	144	60	96
1399.824925272	144	76	54
1399.852381176	144	21	118
1399.869558484	144	72	104
1399.894041177	128	62	64
1399.932620627	128	21	64
1399.953665621	128	72	64
1400.01791393	128	76	64
1400.020744978	144	21	121
1400.055336054	144	62	115
1400.076955999	128	21	64
1400.14299647	128	62	64
1400.204147016	144	21	122
1400.231347473	144	62	115
1400.243936643	128	21	64
1400.30536998	128	62	64
1400.365851419	144	21	118
1400.391481754	144	76	57
1400.398707656	144	62	118
1400.408586311	128	21	64
1400.496042804	128	62	64
1400.531673051	144	21	119
1400.548188573	144	62	116
1400.592305973	128	21	64
1400.607103203	128	62	64
1400.685106059	128	76	64
1400.69170075	144	62	118
1400.717547315	144	21	119
1400.738628537	128	62	64
1400.777249714	128	21	64
1400.841819019	144	62	115
1400.858409491	144	76	55
1400.904806134	144	21	119
1400.920880984	144	72	111
1400.960885693	128	21	64
1401.004334439	128	72	64
1401.088047139	144	21	120
1401.110516848	128	76	64
1401.144322982	128	21	64
1401.272279472	144	21	117
1401.327463178	128	21	64
1401.437359906	144	21	118
1401.458006608	144	76	56
1401.515759667	128	21	64
1401.622209222	144	21	118
1401.628132766	128	62	64
1401.678567158	128	21	64
1401.70166722	144	50	83
1401.75152208	128	76	64
1401.792878067	128	50	64
1401.806376035	144	21	120
1401.864383766	128	21	64
1401.956030496	144	50	74
1401.971184336	144	72	127
1401.974509602	144	76	53
1401.988173732	144	21	116
1402.046381387	128	21	64
1402.046896368	128	60	64
1402.054469462	128	72	64
1402.079285779	128	64	64
1402.168341993	144	21	115
1402.22877885	128	21	64
1402.343225845	128	76	64
1402.367330099	144	21	110
1402.41208168	128	21	64
1402.418873999	128	50	64
1402.498130496	144	50	81
1402.517383086	144	60	15
1402.551110043	144	21	106
1402.571476047	144	74	76
1402.585927959	128	74	64
1402.591790828	144	76	55
1402.613917023	128	21	64
1402.624812997	128	76	64
1402.734250405	144	21	100
1402.795263812	128	21	64
1402.934646272	144	21	109
1402.994737485	128	21	64
1403.037672668	144	72	127
1403.059467169	144	76	59
1403.134633049	144	21	110
1403.136448549	128	72	64
1403.166736161	128	60	64
1403.203585864	128	21	64
1403.332588084	144	60	8
1403.336957421	144	21	107
1403.368035151	128	76	64
1403.39611534	128	21	64
1403.538401245	144	21	107
1403.596495386	128	21	64
1403.706120369	144	38	98
1403.718425025	144	21	110
1403.751600386	128	50	64
1403.772299869	128	38	64
1403.77879021	128	21	64
1403.823266131	128	60	64
1403.899612734	144	21	113
1403.95003332	144	50	88
1403.962021188	128	21	64
1403.975179436	144	76	56
1404.007416488	128	50	64
1404.016449287	144	50	63
1404.029266102	128	76	64
1404.037342738	144	60	5
1404.066281356	144	21	110
1404.069840531	144	72	127
1404.137338089	128	72	64
1404.144595558	128	21	64
1404.158578524	144	38	105
1404.160083083	128	50	64
1404.160846194	144	50	85
1404.176891453	144	76	58
1404.222120232	144	33	99
1404.242722757	128	50	64
1404.242793413	144	50	65
1404.249061761	144	21	113
1404.274910157	128	38	64
1404.280283387	128	33	64
1404.312399184	128	21	64
1404.398473861	144	21	113
1404.462213056	128	21	64
1404.501947698	128	50	64
1404.503218854	144	50	86
1404.505391845	144	38	107
1404.582081676	144	21	117
1404.60072524	128	60	64
1404.646047322	128	21	64
1404.670398138	128	38	64
1404.716929553	128	50	64
1404.735155922	144	50	70
1404.752071365	144	21	116
1404.812789737	128	21	64
1404.817335087	128	76	64
1404.935090082	144	21	120
1404.966253106	144	60	8
1404.976172123	144	76	56
1404.990024566	144	38	105
1404.996250465	128	21	64
1405.028737338	128	76	64
1405.033502898	144	72	48
1405.059194438	128	50	64
1405.059250838	144	50	85
1405.088735148	128	38	64
1405.101510685	144	21	116
1405.101643057	128	72	64
1405.124139744	144	76	60
1405.177271785	128	76	64
1405.178238692	128	21	64
1405.233527337	144	76	60
1405.302404005	144	21	120
1405.313735293	144	38	108
1405.365197775	128	21	64
1405.407705578	128	50	64
1405.407780634	144	50	67
1405.429848277	128	38	64
1405.468679915	144	21	117
1405.529888573	128	21	64
1405.552501246	128	60	64
1405.624157793	144	38	111
1405.732386364	128	38	64
1405.734048834	128	50	64
1405.804124516	144	38	111
1405.876229218	128	38	64
1405.87872721	144	50	74
1405.925739822	144	60	9
1405.948713613	144	38	112
1405.952250887	144	72	75
1405.967279594	128	76	64
1406.022606363	128	72	64
1406.031649337	128	38	64
1406.066084161	144	76	65
1406.092576843	144	38	110
1406.14604833	128	76	64
1406.165444149	128	50	64
1406.165518109	144	50	61
1406.184047974	128	38	64
1406.233830547	144	76	67
1406.285267173	144	38	111
1406.294591318	128	60	64
1406.322602665	128	38	64
1406.379589823	144	62	127
1406.396066831	144	38	109
1406.432775771	128	62	64
1406.463912003	128	50	64
1406.464000206	144	50	70
1406.467606155	128	38	64
1406.541708571	144	38	109
1406.56746173	144	62	121
1406.62319793	128	38	64
1406.64967905	128	62	64
1406.71758201	128	50	64
1406.717654358	144	50	61
1406.832604809	144	62	127
1406.853930702	144	72	71
1406.930665376	128	62	64
1406.931641556	128	72	64
1406.954022185	128	50	64
1406.954075488	144	50	83
1406.996476286	144	62	122
1407.079200403	128	62	64
1407.084149294	128	76	64
1407.100700809	144	38	112
1407.169628129	128	50	64
1407.169702502	144	50	90
1407.184366194	144	76	67
1407.241437567	128	76	64
1407.336822542	144	76	68
1407.343173734	144	62	115
1407.391856095	128	62	64
1407.392037936	128	76	64
1407.491797381	128	21	64
1407.502146688	144	76	69
1407.51681648	128	50	64
1407.516962617	144	50	110
1407.768952072	128	50	64
1407.769021005	144	50	100
1407.803925237	144	72	71
1407.889082517	128	72	64
1408.016469522	128	50	64
1408.512404607	144	62	106
1408.518231917	128	76	64
1408.565517831	128	62	64
1408.663125318	144	76	69
1408.678703721	128	76	64
1408.767395827	144	76	70
1408.78584691	144	72	69
1408.788778631	144	62	118
1408.859672944	128	62	64
1408.890342367	128	72	64
1409.056088036	144	62	106
1409.148657081	128	62	64
1409.184668629	144	60	1
1409.37776125	144	62	105
1409.481899325	128	62	64
1409.58007734	144	72	61
1409.671055205	144	62	98
1409.68880689	128	72	64
1409.782211209	128	62	64
1409.866251429	128	60	64
1409.953371892	144	62	99
1410.04893292	128	62	64
1410.188064004	144	72	49
1410.269986001	144	62	99
1410.272355665	128	72	64
1410.287355433	144	60	1
1410.382468906	128	62	64
1410.587664365	144	62	96
1410.682251105	128	62	64
1410.72184034	144	72	57
1410.82142525	128	72	64
1410.870698053	144	62	100
1410.890436536	128	60	64
1410.923367511	128	50	64
1410.960881862	128	62	64
1411.14439858	144	72	63
1411.16653593	144	62	98
1411.205455073	128	72	64
1411.277937762	128	62	64
1411.33868898	144	60	7
1411.486087743	144	62	98
1411.522566471	144	72	64
1411.564502463	128	62	64
1411.588515946	128	72	64
1418.636901192	128	38	64
1418.900812105	128	74	64
1419.262862201	128	82	64
1419.450563856	128	97	64
1420.517641209	128	60	64
1422.007448659	128	62	64
1.363876477	128	72	64
15.946284797	128	76	64
40.506191704	128	57	64
57.224503168	128	33	64
